<?xml version="1.0" encoding="utf-8"?>
<!-- Generator: Adobe Illustrator 21.1.0, SVG Export Plug-In . SVG Version: 6.00 Build 0)  -->
<svg version="1.1" id="Слой_1" xmlns="http://www.w3.org/2000/svg" xmlns:xlink="http://www.w3.org/1999/xlink" x="0px" y="0px"
	 viewBox="0 0 81.5349503 89.7456894" enable-background="new 0 0 81.5349503 89.7456894" xml:space="preserve">
<g>
	<defs>
		<polygon id="SVGID_1_" points="28.2477207,73.230629 38.7602425,35.3873901 28.0695438,-3.0972617 -13.1182699,-3.0972617 
			-13.1182699,72.5892181 		"/>
	</defs>
	<clipPath id="SVGID_2_">
		<use xlink:href="#SVGID_1_"  overflow="visible"/>
	</clipPath>
	<g clip-path="url(#SVGID_2_)">
		<defs>
			<rect id="SVGID_3_" x="-7.9869833" y="0.430498" width="48.7472267" height="69.272377"/>
		</defs>
		<clipPath id="SVGID_4_">
			<use xlink:href="#SVGID_3_"  overflow="visible"/>
		</clipPath>
		<g clip-path="url(#SVGID_4_)">
			<linearGradient id="SVGID_5_" gradientUnits="userSpaceOnUse" x1="15.0659504" y1="6.6753573" x2="7.4447351" y2="14.2965727">
				<stop  offset="0" style="stop-color:#F59900"/>
				<stop  offset="1" style="stop-color:#CA8608"/>
			</linearGradient>
			<polyline fill="none" stroke="url(#SVGID_5_)" stroke-width="2" stroke-linejoin="round" stroke-miterlimit="10" points="
				6.1240559,11.975894 6.1240559,9.4102507 16.3866291,9.4102507 16.3866291,11.975894 			"/>
			<linearGradient id="SVGID_6_" gradientUnits="userSpaceOnUse" x1="26.7148991" y1="23.4555931" x2="-4.2042141" y2="54.3747063">
				<stop  offset="0" style="stop-color:#F59900"/>
				<stop  offset="1" style="stop-color:#CA8608"/>
			</linearGradient>
			
				<rect x="8.6896992" y="11.975894" fill="none" stroke="url(#SVGID_6_)" stroke-width="2" stroke-linejoin="round" stroke-miterlimit="10" width="5.1312871" height="53.8785133"/>
			<linearGradient id="SVGID_7_" gradientUnits="userSpaceOnUse" x1="52.8056374" y1="53.8090096" x2="28.7148476" y2="77.8998032">
				<stop  offset="0" style="stop-color:#F59900"/>
				<stop  offset="1" style="stop-color:#CA8608"/>
			</linearGradient>
			
				<line fill="none" stroke="url(#SVGID_7_)" stroke-width="2" stroke-linejoin="round" stroke-miterlimit="10" x1="63.8510361" y1="65.8544083" x2="17.6694508" y2="65.8544083"/>
			<linearGradient id="SVGID_8_" gradientUnits="userSpaceOnUse" x1="64.7752914" y1="-5.1907434" x2="16.7451935" y2="42.8393555">
				<stop  offset="0" style="stop-color:#F59900"/>
				<stop  offset="1" style="stop-color:#CA8608"/>
			</linearGradient>
			<polyline fill="none" stroke="url(#SVGID_8_)" stroke-width="2" stroke-linejoin="round" stroke-miterlimit="10" points="
				80.5277176,26.0869331 80.5277176,11.975894 60.0025673,11.975894 57.436924,14.5415373 24.0835609,14.5415373 
				21.5179176,11.975894 0.9927688,11.975894 0.9927688,26.0869331 			"/>
			<linearGradient id="SVGID_9_" gradientUnits="userSpaceOnUse" x1="47.6384811" y1="5.5836511" x2="33.8820267" y2="19.340107">
				<stop  offset="0" style="stop-color:#F59900"/>
				<stop  offset="1" style="stop-color:#CA8608"/>
			</linearGradient>
			<path fill="none" stroke="url(#SVGID_9_)" stroke-width="2" stroke-linejoin="round" stroke-miterlimit="10" d="
				M47.1743507,8.1274281c2.1247253,0,3.848465,1.7233429,3.848465,3.8484659v2.5656433H30.4976692V11.975894
				c0-2.125123,1.7238464-3.8484659,3.848465-3.8484659H47.1743507z"/>
			
				<linearGradient id="SVGID_10_" gradientUnits="userSpaceOnUse" x1="85.7247009" y1="23.4555931" x2="54.8055878" y2="54.3747063">
				<stop  offset="0" style="stop-color:#F59900"/>
				<stop  offset="1" style="stop-color:#CA8608"/>
			</linearGradient>
			
				<rect x="67.699501" y="11.975894" fill="none" stroke="url(#SVGID_10_)" stroke-width="2" stroke-linejoin="round" stroke-miterlimit="10" width="5.1312871" height="53.8785133"/>
			<linearGradient id="SVGID_11_" gradientUnits="userSpaceOnUse" x1="46.5986366" y1="24.203907" x2="34.9218483" y2="35.8806953">
				<stop  offset="0" style="stop-color:#F59900"/>
				<stop  offset="1" style="stop-color:#CA8608"/>
			</linearGradient>
			
				<rect x="35.6289558" y="24.9110126" fill="none" stroke="url(#SVGID_11_)" stroke-width="2" stroke-linejoin="round" stroke-miterlimit="10" width="10.2625742" height="10.2625742"/>
			
				<linearGradient id="SVGID_12_" gradientUnits="userSpaceOnUse" x1="28.1617069" y1="25.3166142" x2="18.9241409" y2="34.5541801">
				<stop  offset="0" style="stop-color:#F59900"/>
				<stop  offset="1" style="stop-color:#CA8608"/>
			</linearGradient>
			
				<line fill="none" stroke="url(#SVGID_12_)" stroke-width="2" stroke-linejoin="round" stroke-miterlimit="10" x1="31.7804909" y1="29.9353981" x2="15.3053579" y2="29.9353981"/>
			
				<linearGradient id="SVGID_13_" gradientUnits="userSpaceOnUse" x1="63.7096252" y1="24.9455223" x2="53.7298698" y2="34.9252739">
				<stop  offset="0" style="stop-color:#F59900"/>
				<stop  offset="1" style="stop-color:#CA8608"/>
			</linearGradient>
			
				<line fill="none" stroke="url(#SVGID_13_)" stroke-width="2" stroke-linejoin="round" stroke-miterlimit="10" x1="49.739994" y1="29.9353981" x2="67.699501" y2="29.9353981"/>
			
				<linearGradient id="SVGID_14_" gradientUnits="userSpaceOnUse" x1="15.4494944" y1="37.0795364" x2="-6.8734112" y2="59.4024391">
				<stop  offset="0" style="stop-color:#F59900"/>
				<stop  offset="1" style="stop-color:#CA8608"/>
			</linearGradient>
			<polyline fill="none" stroke="url(#SVGID_14_)" stroke-width="2" stroke-linejoin="round" stroke-miterlimit="10" points="
				8.6896992,65.8544083 0.9927688,65.8544083 0.9927688,29.9353981 7.3053579,29.9353981 			"/>
			<linearGradient id="SVGID_15_" gradientUnits="userSpaceOnUse" x1="88.393898" y1="36.3873634" x2="65.3788223" y2="59.4024391">
				<stop  offset="0" style="stop-color:#F59900"/>
				<stop  offset="1" style="stop-color:#CA8608"/>
			</linearGradient>
			<polyline fill="none" stroke="url(#SVGID_15_)" stroke-width="2" stroke-linejoin="round" stroke-miterlimit="10" points="
				72.8307877,29.9353981 80.5277176,29.9353981 80.5277176,65.8544083 72.8307877,65.8544083 			"/>
			<linearGradient id="SVGID_16_" gradientUnits="userSpaceOnUse" x1="74.0757523" y1="6.6753573" x2="66.4545364" y2="14.2965727">
				<stop  offset="0" style="stop-color:#F59900"/>
				<stop  offset="1" style="stop-color:#CA8608"/>
			</linearGradient>
			<polyline fill="none" stroke="url(#SVGID_16_)" stroke-width="2" stroke-linejoin="round" stroke-miterlimit="10" points="
				65.1338577,11.975894 65.1338577,9.4102507 75.396431,9.4102507 75.396431,11.975894 			"/>
			<g>
				<linearGradient id="SVGID_17_" gradientUnits="userSpaceOnUse" x1="39.33601" y1="36.5978203" x2="37.0531883" y2="38.8806419">
					<stop  offset="0" style="stop-color:#F59900"/>
					<stop  offset="1" style="stop-color:#CA8608"/>
				</linearGradient>
				
					<line fill="none" stroke="url(#SVGID_17_)" stroke-width="2" stroke-linejoin="round" stroke-miterlimit="10" x1="36.9117775" y1="37.7392311" x2="39.4774208" y2="37.7392311"/>
				
					<linearGradient id="SVGID_18_" gradientUnits="userSpaceOnUse" x1="44.4672966" y1="36.5978203" x2="42.1844749" y2="38.8806419">
					<stop  offset="0" style="stop-color:#F59900"/>
					<stop  offset="1" style="stop-color:#CA8608"/>
				</linearGradient>
				
					<line fill="none" stroke="url(#SVGID_18_)" stroke-width="2" stroke-linejoin="round" stroke-miterlimit="10" x1="42.0430641" y1="37.7392311" x2="44.6087074" y2="37.7392311"/>
			</g>
			<g>
				<linearGradient id="SVGID_19_" gradientUnits="userSpaceOnUse" x1="39.33601" y1="21.2039585" x2="37.0531883" y2="23.4867802">
					<stop  offset="0" style="stop-color:#F59900"/>
					<stop  offset="1" style="stop-color:#CA8608"/>
				</linearGradient>
				
					<line fill="none" stroke="url(#SVGID_19_)" stroke-width="2" stroke-linejoin="round" stroke-miterlimit="10" x1="36.9117775" y1="22.3453693" x2="39.4774208" y2="22.3453693"/>
				
					<linearGradient id="SVGID_20_" gradientUnits="userSpaceOnUse" x1="44.4672966" y1="21.2039585" x2="42.1844749" y2="23.4867802">
					<stop  offset="0" style="stop-color:#F59900"/>
					<stop  offset="1" style="stop-color:#CA8608"/>
				</linearGradient>
				
					<line fill="none" stroke="url(#SVGID_20_)" stroke-width="2" stroke-linejoin="round" stroke-miterlimit="10" x1="42.0430641" y1="22.3453693" x2="44.6087074" y2="22.3453693"/>
			</g>
		</g>
	</g>
</g>
<polygon fill="none" points="28.9721317,73.230629 39.4846535,35.3873901 28.7939529,-3.0972617 -14.3938608,-3.0972617 
	-14.3938608,72.5892181 "/>
<g>
	<defs>
		<polygon id="SVGID_21_" points="29.8634892,-3.3645163 29.8634892,-3.0972879 30.0766525,-3.0972879 40.7674751,35.3873634 
			30.3288879,72.9641571 94.0045776,72.9641571 94.0045776,-3.3645163 		"/>
	</defs>
	<clipPath id="SVGID_22_">
		<use xlink:href="#SVGID_21_"  overflow="visible"/>
	</clipPath>
	<g clip-path="url(#SVGID_22_)">
		
			<line fill="none" stroke="#FCCE8E" stroke-width="2" stroke-linejoin="round" stroke-miterlimit="10" x1="63.8582649" y1="65.8544083" x2="17.6766834" y2="65.8544083"/>
		<polyline fill="none" stroke="#FCCE8E" stroke-width="2" stroke-linejoin="round" stroke-miterlimit="10" points="
			80.5349503,26.0869331 80.5349503,11.975894 60.0098,11.975894 57.4441566,14.5415373 24.0907917,14.5415373 
			21.5251484,11.975894 1,11.975894 1,26.0869331 		"/>
		<path fill="none" stroke="#FCCE8E" stroke-width="2" stroke-linejoin="round" stroke-miterlimit="10" d="M47.1815834,8.1274281
			c2.1247253,0,3.848465,1.7233429,3.848465,3.8484659v2.5656433H30.5049V11.975894
			c0-2.125123,1.7238445-3.8484659,3.8484669-3.8484659H47.1815834z"/>
		
			<rect x="8.6969309" y="11.975894" fill="none" stroke="#FCCE8E" stroke-width="2" stroke-linejoin="round" stroke-miterlimit="10" width="5.1312871" height="53.8785133"/>
		
			<rect x="67.7067337" y="11.975894" fill="none" stroke="#FCCE8E" stroke-width="2" stroke-linejoin="round" stroke-miterlimit="10" width="5.1312871" height="53.8785133"/>
		
			<rect x="35.6361885" y="24.9110126" fill="none" stroke="#FCCE8E" stroke-width="2" stroke-linejoin="round" stroke-miterlimit="10" width="10.2625742" height="10.2625742"/>
		
			<line fill="none" stroke="#FCCE8E" stroke-width="2" stroke-linejoin="round" stroke-miterlimit="10" x1="31.7877216" y1="29.9353981" x2="13.8282175" y2="29.9353981"/>
		
			<line fill="none" stroke="#FCCE8E" stroke-width="2" stroke-linejoin="round" stroke-miterlimit="10" x1="49.7472267" y1="29.9353981" x2="67.7067337" y2="29.9353981"/>
		<polyline fill="none" stroke="#FCCE8E" stroke-width="2" stroke-linejoin="round" stroke-miterlimit="10" points="
			8.6969309,65.8544083 1,65.8544083 1,29.9353981 8.6969309,29.9353981 		"/>
		<polyline fill="none" stroke="#FCCE8E" stroke-width="2" stroke-linejoin="round" stroke-miterlimit="10" points="
			72.8380203,29.9353981 80.5349503,29.9353981 80.5349503,65.8544083 72.8380203,65.8544083 		"/>
		<polyline fill="none" stroke="#FCCE8E" stroke-width="2" stroke-linejoin="round" stroke-miterlimit="10" points="
			6.1312871,11.975894 6.1312871,9.4102507 16.3938618,9.4102507 16.3938618,11.975894 		"/>
		<polyline fill="none" stroke="#FCCE8E" stroke-width="2" stroke-linejoin="round" stroke-miterlimit="10" points="
			65.1410904,11.975894 65.1410904,9.4102507 75.4036636,9.4102507 75.4036636,11.975894 		"/>
		<g>
			
				<line fill="none" stroke="#FCCE8E" stroke-width="2" stroke-linejoin="round" stroke-miterlimit="10" x1="36.9190102" y1="37.7392311" x2="39.4846535" y2="37.7392311"/>
			
				<line fill="none" stroke="#FCCE8E" stroke-width="2" stroke-linejoin="round" stroke-miterlimit="10" x1="42.0502968" y1="37.7392311" x2="44.6159401" y2="37.7392311"/>
		</g>
		<g>
			
				<line fill="none" stroke="#FCCE8E" stroke-width="2" stroke-linejoin="round" stroke-miterlimit="10" x1="36.9190102" y1="22.3453693" x2="39.4846535" y2="22.3453693"/>
			
				<line fill="none" stroke="#FCCE8E" stroke-width="2" stroke-linejoin="round" stroke-miterlimit="10" x1="42.0502968" y1="22.3453693" x2="44.6159401" y2="22.3453693"/>
		</g>
	</g>
</g>
<linearGradient id="SVGID_23_" gradientUnits="userSpaceOnUse" x1="52.2846031" y1="20.9979515" x2="4.5326967" y2="68.749855">
	<stop  offset="0" style="stop-color:#F59900"/>
	<stop  offset="1" style="stop-color:#CA8608"/>
</linearGradient>
<polyline fill="none" stroke="url(#SVGID_23_)" stroke-miterlimit="10" points="25.74263,89.6118622 40.7674751,35.5250473 
	30.805357,0.1354837 "/>
<g>
</g>
<g>
</g>
<g>
</g>
<g>
</g>
<g>
</g>
<g>
</g>
<g>
</g>
<g>
</g>
<g>
</g>
<g>
</g>
<g>
</g>
<g>
</g>
<g>
</g>
<g>
</g>
<g>
</g>
</svg>
