<?xml version="1.0" encoding="utf-8"?>
<!-- Generator: Adobe Illustrator 21.1.0, SVG Export Plug-In . SVG Version: 6.00 Build 0)  -->
<svg version="1.1" id="Слой_1" xmlns="http://www.w3.org/2000/svg" xmlns:xlink="http://www.w3.org/1999/xlink" x="0px" y="0px"
	 viewBox="0 0 87.9761887 82.6192017" enable-background="new 0 0 87.9761887 82.6192017" xml:space="preserve">
<g>
	<defs>
		<polygon id="SVGID_1_" points="-7.9133077,-10.4920769 -2.9133074,57.8339157 47.2154846,28.2602501 36.7767792,65.8374786 
			100.4532013,65.8374786 100.4532013,-10.4920769 		"/>
	</defs>
	<clipPath id="SVGID_2_">
		<use xlink:href="#SVGID_1_"  overflow="visible"/>
	</clipPath>
	<g clip-path="url(#SVGID_2_)">
		
			<line fill="none" stroke="#FCCE8E" stroke-width="2" stroke-linejoin="round" stroke-miterlimit="10" x1="70.3065414" y1="58.7276421" x2="24.1244297" y2="58.7276421"/>
		<polyline fill="none" stroke="#FCCE8E" stroke-width="2" stroke-linejoin="round" stroke-miterlimit="10" points="
			86.9834213,18.9597111 86.9834213,4.8485093 66.4580307,4.8485093 63.8923607,7.4141827 30.5386124,7.4141827 
			27.9729385,4.8485093 7.4475546,4.8485093 7.4475546,18.9597111 		"/>
		<path fill="none" stroke="#FCCE8E" stroke-width="2" stroke-linejoin="round" stroke-miterlimit="10" d="M53.6296692,1
			c2.124752,0,3.8485107,1.7233627,3.8485107,3.8485093v2.5656734H36.9527931V4.8485093
			C36.9527931,2.7233627,38.6766586,1,40.8013039,1H53.6296692z"/>
		
			<rect x="15.1445742" y="4.8485093" fill="none" stroke="#FCCE8E" stroke-width="2" stroke-linejoin="round" stroke-miterlimit="10" width="5.1313462" height="53.8791351"/>
		
			<rect x="74.1550522" y="4.8485093" fill="none" stroke="#FCCE8E" stroke-width="2" stroke-linejoin="round" stroke-miterlimit="10" width="5.1313462" height="53.8791351"/>
		
			<rect x="42.0841408" y="17.7837772" fill="none" stroke="#FCCE8E" stroke-width="2" stroke-linejoin="round" stroke-miterlimit="10" width="10.2626925" height="10.2626925"/>
		
			<line fill="none" stroke="#FCCE8E" stroke-width="2" stroke-linejoin="round" stroke-miterlimit="10" x1="38.23563" y1="22.8082199" x2="20.275919" y2="22.8082199"/>
		
			<line fill="none" stroke="#FCCE8E" stroke-width="2" stroke-linejoin="round" stroke-miterlimit="10" x1="56.195343" y1="22.8082199" x2="74.1550522" y2="22.8082199"/>
		<polyline fill="none" stroke="#FCCE8E" stroke-width="2" stroke-linejoin="round" stroke-miterlimit="10" points="
			15.1445742,58.7276421 7.4475546,58.7276421 7.4475546,22.8082199 15.1445742,22.8082199 		"/>
		<polyline fill="none" stroke="#FCCE8E" stroke-width="2" stroke-linejoin="round" stroke-miterlimit="10" points="
			79.2863998,22.8082199 86.9834213,22.8082199 86.9834213,58.7276421 79.2863998,58.7276421 		"/>
		<polyline fill="none" stroke="#FCCE8E" stroke-width="2" stroke-linejoin="round" stroke-miterlimit="10" points="
			12.5789003,4.8485093 12.5789003,2.2828364 22.8415928,2.2828364 22.8415928,4.8485093 		"/>
		<polyline fill="none" stroke="#FCCE8E" stroke-width="2" stroke-linejoin="round" stroke-miterlimit="10" points="
			71.5893784,4.8485093 71.5893784,2.2828364 81.8520737,2.2828364 81.8520737,4.8485093 		"/>
		<g>
			
				<line fill="none" stroke="#FCCE8E" stroke-width="2" stroke-linejoin="round" stroke-miterlimit="10" x1="43.3669777" y1="30.6121426" x2="45.9326515" y2="30.6121426"/>
			
				<line fill="none" stroke="#FCCE8E" stroke-width="2" stroke-linejoin="round" stroke-miterlimit="10" x1="48.4983215" y1="30.6121426" x2="51.0639954" y2="30.6121426"/>
		</g>
		<g>
			
				<line fill="none" stroke="#FCCE8E" stroke-width="2" stroke-linejoin="round" stroke-miterlimit="10" x1="43.3669777" y1="15.2181044" x2="45.9326515" y2="15.2181044"/>
			
				<line fill="none" stroke="#FCCE8E" stroke-width="2" stroke-linejoin="round" stroke-miterlimit="10" x1="48.4983215" y1="15.2181044" x2="51.0639954" y2="15.2181044"/>
		</g>
	</g>
</g>
<g>
	<defs>
		<polygon id="SVGID_3_" points="34.695591,66.1039505 44.4200249,31.8339176 -7.9133077,62.8339157 -6.6708779,65.462532 		"/>
	</defs>
	<clipPath id="SVGID_4_">
		<use xlink:href="#SVGID_3_"  overflow="visible"/>
	</clipPath>
	<g clip-path="url(#SVGID_4_)">
		<defs>
			<rect id="SVGID_5_" x="-1.5395321" y="-6.6970191" width="48.7477875" height="69.2731705"/>
		</defs>
		<clipPath id="SVGID_6_">
			<use xlink:href="#SVGID_5_"  overflow="visible"/>
		</clipPath>
		<g clip-path="url(#SVGID_6_)">
			<linearGradient id="SVGID_7_" gradientUnits="userSpaceOnUse" x1="59.2537842" y1="46.6821136" x2="35.1627274" y2="70.7731705">
				<stop  offset="0" style="stop-color:#F59900"/>
				<stop  offset="1" style="stop-color:#CA8608"/>
			</linearGradient>
			
				<line fill="none" stroke="url(#SVGID_7_)" stroke-width="2" stroke-linejoin="round" stroke-miterlimit="10" x1="70.2993088" y1="58.7276421" x2="24.1171989" y2="58.7276421"/>
			
				<linearGradient id="SVGID_8_" gradientUnits="userSpaceOnUse" x1="71.2235718" y1="-12.3183165" x2="23.1929359" y2="35.7123222">
				<stop  offset="0" style="stop-color:#F59900"/>
				<stop  offset="1" style="stop-color:#CA8608"/>
			</linearGradient>
			<polyline fill="none" stroke="url(#SVGID_8_)" stroke-width="2" stroke-linejoin="round" stroke-miterlimit="10" points="
				86.9761887,18.9597111 86.9761887,4.8485093 66.4508057,4.8485093 63.885128,7.4141827 30.5313797,7.4141827 
				27.9657078,4.8485093 7.4403234,4.8485093 7.4403234,18.9597111 			"/>
			<linearGradient id="SVGID_9_" gradientUnits="userSpaceOnUse" x1="54.0865631" y1="-1.5437988" x2="40.3299675" y2="12.2127991">
				<stop  offset="0" style="stop-color:#F59900"/>
				<stop  offset="1" style="stop-color:#CA8608"/>
			</linearGradient>
			<path fill="none" stroke="url(#SVGID_9_)" stroke-width="2" stroke-linejoin="round" stroke-miterlimit="10" d="M53.6224365,1
				c2.124752,0,3.8485107,1.7233627,3.8485107,3.8485093v2.5656734h-20.525383V4.8485093
				C36.9455643,2.7233627,38.6694298,1,40.7940712,1H53.6224365z"/>
			<linearGradient id="SVGID_10_" gradientUnits="userSpaceOnUse" x1="33.1627426" y1="16.3283501" x2="2.243289" y2="47.2478027">
				<stop  offset="0" style="stop-color:#F59900"/>
				<stop  offset="1" style="stop-color:#CA8608"/>
			</linearGradient>
			
				<rect x="15.1373425" y="4.8485093" fill="none" stroke="url(#SVGID_10_)" stroke-width="2" stroke-linejoin="round" stroke-miterlimit="10" width="5.1313462" height="53.8791351"/>
			
				<linearGradient id="SVGID_11_" gradientUnits="userSpaceOnUse" x1="92.1732178" y1="16.3283501" x2="61.2537689" y2="47.2478027">
				<stop  offset="0" style="stop-color:#F59900"/>
				<stop  offset="1" style="stop-color:#CA8608"/>
			</linearGradient>
			
				<rect x="74.1478195" y="4.8485093" fill="none" stroke="url(#SVGID_11_)" stroke-width="2" stroke-linejoin="round" stroke-miterlimit="10" width="5.1313462" height="53.8791351"/>
			
				<linearGradient id="SVGID_12_" gradientUnits="userSpaceOnUse" x1="53.0467072" y1="17.0766716" x2="41.3698006" y2="28.7535763">
				<stop  offset="0" style="stop-color:#F59900"/>
				<stop  offset="1" style="stop-color:#CA8608"/>
			</linearGradient>
			
				<rect x="42.0769081" y="17.7837772" fill="none" stroke="url(#SVGID_12_)" stroke-width="2" stroke-linejoin="round" stroke-miterlimit="10" width="10.2626925" height="10.2626925"/>
			<linearGradient id="SVGID_13_" gradientUnits="userSpaceOnUse" x1="34.238472" y1="17.8182926" x2="24.2586155" y2="27.7981491">
				<stop  offset="0" style="stop-color:#F59900"/>
				<stop  offset="1" style="stop-color:#CA8608"/>
			</linearGradient>
			
				<line fill="none" stroke="url(#SVGID_13_)" stroke-width="2" stroke-linejoin="round" stroke-miterlimit="10" x1="38.2284012" y1="22.8082199" x2="20.2686882" y2="22.8082199"/>
			
				<linearGradient id="SVGID_14_" gradientUnits="userSpaceOnUse" x1="70.1578979" y1="17.8182926" x2="60.1780396" y2="27.7981491">
				<stop  offset="0" style="stop-color:#F59900"/>
				<stop  offset="1" style="stop-color:#CA8608"/>
			</linearGradient>
			
				<line fill="none" stroke="url(#SVGID_14_)" stroke-width="2" stroke-linejoin="round" stroke-miterlimit="10" x1="56.1881104" y1="22.8082199" x2="74.1478195" y2="22.8082199"/>
			
				<linearGradient id="SVGID_15_" gradientUnits="userSpaceOnUse" x1="22.5893898" y1="29.2602673" x2="-0.4259375" y2="52.2755966">
				<stop  offset="0" style="stop-color:#F59900"/>
				<stop  offset="1" style="stop-color:#CA8608"/>
			</linearGradient>
			<polyline fill="none" stroke="url(#SVGID_15_)" stroke-width="2" stroke-linejoin="round" stroke-miterlimit="10" points="
				15.1373425,58.7276421 7.4403234,58.7276421 7.4403234,22.8082199 15.1373425,22.8082199 			"/>
			
				<linearGradient id="SVGID_16_" gradientUnits="userSpaceOnUse" x1="94.8424454" y1="29.2602673" x2="71.8271179" y2="52.2755966">
				<stop  offset="0" style="stop-color:#F59900"/>
				<stop  offset="1" style="stop-color:#CA8608"/>
			</linearGradient>
			<polyline fill="none" stroke="url(#SVGID_16_)" stroke-width="2" stroke-linejoin="round" stroke-miterlimit="10" points="
				79.2791672,22.8082199 86.9761887,22.8082199 86.9761887,58.7276421 79.2791672,58.7276421 			"/>
			<linearGradient id="SVGID_17_" gradientUnits="userSpaceOnUse" x1="21.5136604" y1="-0.4520784" x2="13.8923712" y2="7.1692109">
				<stop  offset="0" style="stop-color:#F59900"/>
				<stop  offset="1" style="stop-color:#CA8608"/>
			</linearGradient>
			<polyline fill="none" stroke="url(#SVGID_17_)" stroke-width="2" stroke-linejoin="round" stroke-miterlimit="10" points="
				12.5716696,4.8485093 12.5716696,2.2828364 22.834362,2.2828364 22.834362,4.8485093 			"/>
			<linearGradient id="SVGID_18_" gradientUnits="userSpaceOnUse" x1="80.5241394" y1="-0.4520784" x2="72.9028473" y2="7.1692109">
				<stop  offset="0" style="stop-color:#F59900"/>
				<stop  offset="1" style="stop-color:#CA8608"/>
			</linearGradient>
			<polyline fill="none" stroke="url(#SVGID_18_)" stroke-width="2" stroke-linejoin="round" stroke-miterlimit="10" points="
				71.5821457,4.8485093 71.5821457,2.2828364 81.844841,2.2828364 81.844841,4.8485093 			"/>
			<g>
				
					<linearGradient id="SVGID_19_" gradientUnits="userSpaceOnUse" x1="45.7840004" y1="29.4707241" x2="43.5011635" y2="31.753561">
					<stop  offset="0" style="stop-color:#F59900"/>
					<stop  offset="1" style="stop-color:#CA8608"/>
				</linearGradient>
				
					<line fill="none" stroke="url(#SVGID_19_)" stroke-width="2" stroke-linejoin="round" stroke-miterlimit="10" x1="43.359745" y1="30.6121426" x2="45.9254189" y2="30.6121426"/>
				
					<linearGradient id="SVGID_20_" gradientUnits="userSpaceOnUse" x1="50.9153481" y1="29.4707241" x2="48.6325111" y2="31.753561">
					<stop  offset="0" style="stop-color:#F59900"/>
					<stop  offset="1" style="stop-color:#CA8608"/>
				</linearGradient>
				
					<line fill="none" stroke="url(#SVGID_20_)" stroke-width="2" stroke-linejoin="round" stroke-miterlimit="10" x1="48.4910927" y1="30.6121426" x2="51.0567665" y2="30.6121426"/>
			</g>
			<g>
				
					<linearGradient id="SVGID_21_" gradientUnits="userSpaceOnUse" x1="45.7840004" y1="14.0766869" x2="43.5011635" y2="16.3595238">
					<stop  offset="0" style="stop-color:#F59900"/>
					<stop  offset="1" style="stop-color:#CA8608"/>
				</linearGradient>
				
					<line fill="none" stroke="url(#SVGID_21_)" stroke-width="2" stroke-linejoin="round" stroke-miterlimit="10" x1="43.359745" y1="15.2181044" x2="45.9254189" y2="15.2181044"/>
				
					<linearGradient id="SVGID_22_" gradientUnits="userSpaceOnUse" x1="50.9153481" y1="14.0766869" x2="48.6325111" y2="16.3595238">
					<stop  offset="0" style="stop-color:#F59900"/>
					<stop  offset="1" style="stop-color:#CA8608"/>
				</linearGradient>
				
					<line fill="none" stroke="url(#SVGID_22_)" stroke-width="2" stroke-linejoin="round" stroke-miterlimit="10" x1="48.4910927" y1="15.2181044" x2="51.0567665" y2="15.2181044"/>
			</g>
		</g>
	</g>
</g>
<linearGradient id="SVGID_23_" gradientUnits="userSpaceOnUse" x1="53.0592232" y1="32.371254" x2="14.7527781" y2="70.6776962">
	<stop  offset="0" style="stop-color:#F59900"/>
	<stop  offset="1" style="stop-color:#CA8608"/>
</linearGradient>
<polyline fill="none" stroke="url(#SVGID_23_)" stroke-miterlimit="10" points="32.1904716,82.4853745 47.2154846,28.397934 
	0.2533591,56.0005836 "/>
<polygon fill="none" points="35.4200058,66.1039505 45.9326515,28.2602749 35.2418289,-10.2248192 -7.9464836,-10.2248192 
	-7.9464836,65.462532 "/>
<g>
</g>
<g>
</g>
<g>
</g>
<g>
</g>
<g>
</g>
<g>
</g>
<g>
</g>
<g>
</g>
<g>
</g>
<g>
</g>
<g>
</g>
<g>
</g>
<g>
</g>
<g>
</g>
<g>
</g>
</svg>
