<?xml version="1.0" encoding="utf-8"?>
<!-- Generator: Adobe Illustrator 21.1.0, SVG Export Plug-In . SVG Version: 6.00 Build 0)  -->
<svg version="1.1" id="Слой_1" xmlns="http://www.w3.org/2000/svg" xmlns:xlink="http://www.w3.org/1999/xlink" x="0px" y="0px"
	 viewBox="0 0 87.8368683 82.6192017" enable-background="new 0 0 87.8368683 82.6192017" xml:space="preserve">
<g>
	<defs>
		<polygon id="SVGID_1_" points="34.5490417,66.1039505 44.6068115,30.1672516 -8.0598545,41.5005836 -6.8174253,65.462532 		"/>
	</defs>
	<clipPath id="SVGID_2_">
		<use xlink:href="#SVGID_1_"  overflow="visible"/>
	</clipPath>
	<g clip-path="url(#SVGID_2_)">
		<defs>
			<rect id="SVGID_3_" x="-1.686079" y="-6.6970191" width="48.7477875" height="69.2731705"/>
		</defs>
		<clipPath id="SVGID_4_">
			<use xlink:href="#SVGID_3_"  overflow="visible"/>
		</clipPath>
		<g clip-path="url(#SVGID_4_)">
			<linearGradient id="SVGID_5_" gradientUnits="userSpaceOnUse" x1="59.1072388" y1="46.6821136" x2="35.0161781" y2="70.7731705">
				<stop  offset="0" style="stop-color:#F59900"/>
				<stop  offset="1" style="stop-color:#CA8608"/>
			</linearGradient>
			
				<line fill="none" stroke="url(#SVGID_5_)" stroke-width="2" stroke-linejoin="round" stroke-miterlimit="10" x1="70.1527634" y1="58.7276421" x2="23.9706516" y2="58.7276421"/>
			
				<linearGradient id="SVGID_6_" gradientUnits="userSpaceOnUse" x1="71.0770264" y1="-12.3183165" x2="23.0463886" y2="35.7123222">
				<stop  offset="0" style="stop-color:#F59900"/>
				<stop  offset="1" style="stop-color:#CA8608"/>
			</linearGradient>
			<polyline fill="none" stroke="url(#SVGID_6_)" stroke-width="2" stroke-linejoin="round" stroke-miterlimit="10" points="
				86.8296432,18.9597111 86.8296432,4.8485093 66.3042526,4.8485093 63.7385826,7.4141827 30.3848343,7.4141827 
				27.8191605,4.8485093 7.2937765,4.8485093 7.2937765,18.9597111 			"/>
			<linearGradient id="SVGID_7_" gradientUnits="userSpaceOnUse" x1="53.9400177" y1="-1.5437988" x2="40.1834183" y2="12.2127991">
				<stop  offset="0" style="stop-color:#F59900"/>
				<stop  offset="1" style="stop-color:#CA8608"/>
			</linearGradient>
			<path fill="none" stroke="url(#SVGID_7_)" stroke-width="2" stroke-linejoin="round" stroke-miterlimit="10" d="M53.4758911,1
				c2.124752,0,3.8485107,1.7233627,3.8485107,3.8485093v2.5656734H36.799015V4.8485093
				C36.799015,2.7233627,38.5228806,1,40.6475258,1H53.4758911z"/>
			<linearGradient id="SVGID_8_" gradientUnits="userSpaceOnUse" x1="33.0161934" y1="16.3283501" x2="2.0967419" y2="47.2478027">
				<stop  offset="0" style="stop-color:#F59900"/>
				<stop  offset="1" style="stop-color:#CA8608"/>
			</linearGradient>
			
				<rect x="14.9907951" y="4.8485093" fill="none" stroke="url(#SVGID_8_)" stroke-width="2" stroke-linejoin="round" stroke-miterlimit="10" width="5.1313462" height="53.8791351"/>
			<linearGradient id="SVGID_9_" gradientUnits="userSpaceOnUse" x1="92.0266724" y1="16.3283501" x2="61.1072197" y2="47.2478027">
				<stop  offset="0" style="stop-color:#F59900"/>
				<stop  offset="1" style="stop-color:#CA8608"/>
			</linearGradient>
			
				<rect x="74.0012741" y="4.8485093" fill="none" stroke="url(#SVGID_9_)" stroke-width="2" stroke-linejoin="round" stroke-miterlimit="10" width="5.1313462" height="53.8791351"/>
			
				<linearGradient id="SVGID_10_" gradientUnits="userSpaceOnUse" x1="52.9001617" y1="17.0766716" x2="41.2232552" y2="28.7535763">
				<stop  offset="0" style="stop-color:#F59900"/>
				<stop  offset="1" style="stop-color:#CA8608"/>
			</linearGradient>
			
				<rect x="41.9303627" y="17.7837772" fill="none" stroke="url(#SVGID_10_)" stroke-width="2" stroke-linejoin="round" stroke-miterlimit="10" width="10.2626925" height="10.2626925"/>
			
				<linearGradient id="SVGID_11_" gradientUnits="userSpaceOnUse" x1="34.0919266" y1="17.8182926" x2="24.1120701" y2="27.7981491">
				<stop  offset="0" style="stop-color:#F59900"/>
				<stop  offset="1" style="stop-color:#CA8608"/>
			</linearGradient>
			
				<line fill="none" stroke="url(#SVGID_11_)" stroke-width="2" stroke-linejoin="round" stroke-miterlimit="10" x1="38.081852" y1="22.8082199" x2="20.1221409" y2="22.8082199"/>
			
				<linearGradient id="SVGID_12_" gradientUnits="userSpaceOnUse" x1="70.0113449" y1="17.8182926" x2="60.0314903" y2="27.7981491">
				<stop  offset="0" style="stop-color:#F59900"/>
				<stop  offset="1" style="stop-color:#CA8608"/>
			</linearGradient>
			
				<line fill="none" stroke="url(#SVGID_12_)" stroke-width="2" stroke-linejoin="round" stroke-miterlimit="10" x1="56.0415649" y1="22.8082199" x2="74.0012741" y2="22.8082199"/>
			
				<linearGradient id="SVGID_13_" gradientUnits="userSpaceOnUse" x1="22.4428425" y1="29.2602673" x2="-0.5724844" y2="52.2755966">
				<stop  offset="0" style="stop-color:#F59900"/>
				<stop  offset="1" style="stop-color:#CA8608"/>
			</linearGradient>
			<polyline fill="none" stroke="url(#SVGID_13_)" stroke-width="2" stroke-linejoin="round" stroke-miterlimit="10" points="
				14.9907951,58.7276421 7.2937765,58.7276421 7.2937765,22.8082199 14.9907951,22.8082199 			"/>
			<linearGradient id="SVGID_14_" gradientUnits="userSpaceOnUse" x1="94.6959" y1="29.2602673" x2="71.6805725" y2="52.2755966">
				<stop  offset="0" style="stop-color:#F59900"/>
				<stop  offset="1" style="stop-color:#CA8608"/>
			</linearGradient>
			<polyline fill="none" stroke="url(#SVGID_14_)" stroke-width="2" stroke-linejoin="round" stroke-miterlimit="10" points="
				79.1326218,22.8082199 86.8296432,22.8082199 86.8296432,58.7276421 79.1326218,58.7276421 			"/>
			<linearGradient id="SVGID_15_" gradientUnits="userSpaceOnUse" x1="21.3671131" y1="-0.4520784" x2="13.7458239" y2="7.1692109">
				<stop  offset="0" style="stop-color:#F59900"/>
				<stop  offset="1" style="stop-color:#CA8608"/>
			</linearGradient>
			<polyline fill="none" stroke="url(#SVGID_15_)" stroke-width="2" stroke-linejoin="round" stroke-miterlimit="10" points="
				12.4251223,4.8485093 12.4251223,2.2828364 22.6878147,2.2828364 22.6878147,4.8485093 			"/>
			<linearGradient id="SVGID_16_" gradientUnits="userSpaceOnUse" x1="80.377594" y1="-0.4520784" x2="72.7563019" y2="7.1692109">
				<stop  offset="0" style="stop-color:#F59900"/>
				<stop  offset="1" style="stop-color:#CA8608"/>
			</linearGradient>
			<polyline fill="none" stroke="url(#SVGID_16_)" stroke-width="2" stroke-linejoin="round" stroke-miterlimit="10" points="
				71.4356003,4.8485093 71.4356003,2.2828364 81.6982956,2.2828364 81.6982956,4.8485093 			"/>
			<g>
				<linearGradient id="SVGID_17_" gradientUnits="userSpaceOnUse" x1="45.637455" y1="29.4707241" x2="43.3546181" y2="31.753561">
					<stop  offset="0" style="stop-color:#F59900"/>
					<stop  offset="1" style="stop-color:#CA8608"/>
				</linearGradient>
				
					<line fill="none" stroke="url(#SVGID_17_)" stroke-width="2" stroke-linejoin="round" stroke-miterlimit="10" x1="43.2131996" y1="30.6121426" x2="45.7788734" y2="30.6121426"/>
				
					<linearGradient id="SVGID_18_" gradientUnits="userSpaceOnUse" x1="50.7687988" y1="29.4707241" x2="48.4859619" y2="31.753561">
					<stop  offset="0" style="stop-color:#F59900"/>
					<stop  offset="1" style="stop-color:#CA8608"/>
				</linearGradient>
				
					<line fill="none" stroke="url(#SVGID_18_)" stroke-width="2" stroke-linejoin="round" stroke-miterlimit="10" x1="48.3445435" y1="30.6121426" x2="50.9102173" y2="30.6121426"/>
			</g>
			<g>
				
					<linearGradient id="SVGID_19_" gradientUnits="userSpaceOnUse" x1="45.637455" y1="14.0766869" x2="43.3546181" y2="16.3595238">
					<stop  offset="0" style="stop-color:#F59900"/>
					<stop  offset="1" style="stop-color:#CA8608"/>
				</linearGradient>
				
					<line fill="none" stroke="url(#SVGID_19_)" stroke-width="2" stroke-linejoin="round" stroke-miterlimit="10" x1="43.2131996" y1="15.2181044" x2="45.7788734" y2="15.2181044"/>
				
					<linearGradient id="SVGID_20_" gradientUnits="userSpaceOnUse" x1="50.7687988" y1="14.0766869" x2="48.4859619" y2="16.3595238">
					<stop  offset="0" style="stop-color:#F59900"/>
					<stop  offset="1" style="stop-color:#CA8608"/>
				</linearGradient>
				
					<line fill="none" stroke="url(#SVGID_20_)" stroke-width="2" stroke-linejoin="round" stroke-miterlimit="10" x1="48.3445435" y1="15.2181044" x2="50.9102173" y2="15.2181044"/>
			</g>
		</g>
	</g>
</g>
<polygon fill="none" points="35.2734604,66.1039505 45.7861023,28.2602749 35.0952797,-10.2248192 -8.09303,-10.2248192 
	-8.09303,65.462532 "/>
<g>
	<defs>
		<polygon id="SVGID_21_" points="-8.0598545,-10.4920769 -3.0598545,39.5005836 47.0689392,28.2602501 36.6302338,65.8374786 
			100.3066559,65.8374786 100.3066559,-10.4920769 		"/>
	</defs>
	<clipPath id="SVGID_22_">
		<use xlink:href="#SVGID_21_"  overflow="visible"/>
	</clipPath>
	<g clip-path="url(#SVGID_22_)">
		
			<line fill="none" stroke="#FCCE8E" stroke-width="2" stroke-linejoin="round" stroke-miterlimit="10" x1="70.159996" y1="58.7276421" x2="23.9778824" y2="58.7276421"/>
		<polyline fill="none" stroke="#FCCE8E" stroke-width="2" stroke-linejoin="round" stroke-miterlimit="10" points="
			86.8368683,18.9597111 86.8368683,4.8485093 66.3114853,4.8485093 63.7458153,7.4141827 30.392065,7.4141827 
			27.8263912,4.8485093 7.3010077,4.8485093 7.3010077,18.9597111 		"/>
		<path fill="none" stroke="#FCCE8E" stroke-width="2" stroke-linejoin="round" stroke-miterlimit="10" d="M53.4831238,1
			c2.1247482,0,3.8485069,1.7233627,3.8485069,3.8485093v2.5656734h-20.525383V4.8485093
			C36.8062477,2.7233627,38.5301132,1,40.6547585,1H53.4831238z"/>
		
			<rect x="14.9980268" y="4.8485093" fill="none" stroke="#FCCE8E" stroke-width="2" stroke-linejoin="round" stroke-miterlimit="10" width="5.1313462" height="53.8791351"/>
		
			<rect x="74.0085068" y="4.8485093" fill="none" stroke="#FCCE8E" stroke-width="2" stroke-linejoin="round" stroke-miterlimit="10" width="5.1313462" height="53.8791351"/>
		
			<rect x="41.9375954" y="17.7837772" fill="none" stroke="#FCCE8E" stroke-width="2" stroke-linejoin="round" stroke-miterlimit="10" width="10.2626925" height="10.2626925"/>
		
			<line fill="none" stroke="#FCCE8E" stroke-width="2" stroke-linejoin="round" stroke-miterlimit="10" x1="38.0890846" y1="22.8082199" x2="20.1293736" y2="22.8082199"/>
		
			<line fill="none" stroke="#FCCE8E" stroke-width="2" stroke-linejoin="round" stroke-miterlimit="10" x1="56.0487938" y1="22.8082199" x2="74.0085068" y2="22.8082199"/>
		<polyline fill="none" stroke="#FCCE8E" stroke-width="2" stroke-linejoin="round" stroke-miterlimit="10" points="
			14.9980268,58.7276421 7.3010077,58.7276421 7.3010077,22.8082199 14.9980268,22.8082199 		"/>
		<polyline fill="none" stroke="#FCCE8E" stroke-width="2" stroke-linejoin="round" stroke-miterlimit="10" points="
			79.1398544,22.8082199 86.8368683,22.8082199 86.8368683,58.7276421 79.1398544,58.7276421 		"/>
		<polyline fill="none" stroke="#FCCE8E" stroke-width="2" stroke-linejoin="round" stroke-miterlimit="10" points="
			12.432354,4.8485093 12.432354,2.2828364 22.6950455,2.2828364 22.6950455,4.8485093 		"/>
		<polyline fill="none" stroke="#FCCE8E" stroke-width="2" stroke-linejoin="round" stroke-miterlimit="10" points="
			71.4428329,4.8485093 71.4428329,2.2828364 81.7055283,2.2828364 81.7055283,4.8485093 		"/>
		<g>
			
				<line fill="none" stroke="#FCCE8E" stroke-width="2" stroke-linejoin="round" stroke-miterlimit="10" x1="43.2204285" y1="30.6121426" x2="45.7861023" y2="30.6121426"/>
			
				<line fill="none" stroke="#FCCE8E" stroke-width="2" stroke-linejoin="round" stroke-miterlimit="10" x1="48.3517761" y1="30.6121426" x2="50.91745" y2="30.6121426"/>
		</g>
		<g>
			
				<line fill="none" stroke="#FCCE8E" stroke-width="2" stroke-linejoin="round" stroke-miterlimit="10" x1="43.2204285" y1="15.2181044" x2="45.7861023" y2="15.2181044"/>
			
				<line fill="none" stroke="#FCCE8E" stroke-width="2" stroke-linejoin="round" stroke-miterlimit="10" x1="48.3517761" y1="15.2181044" x2="50.91745" y2="15.2181044"/>
		</g>
	</g>
</g>
<linearGradient id="SVGID_23_" gradientUnits="userSpaceOnUse" x1="48.3512192" y1="28.3106155" x2="12.9362297" y2="63.725605">
	<stop  offset="0" style="stop-color:#F59900"/>
	<stop  offset="1" style="stop-color:#CA8608"/>
</linearGradient>
<polyline fill="none" stroke="url(#SVGID_23_)" stroke-miterlimit="10" points="32.0439224,82.4853745 47.0689392,28.397934 
	0.1068122,38.6672516 "/>
<g>
</g>
<g>
</g>
<g>
</g>
<g>
</g>
<g>
</g>
<g>
</g>
<g>
</g>
<g>
</g>
<g>
</g>
<g>
</g>
<g>
</g>
<g>
</g>
<g>
</g>
<g>
</g>
<g>
</g>
</svg>
