<?xml version="1.0" encoding="utf-8"?>
<!-- Generator: Adobe Illustrator 21.1.0, SVG Export Plug-In . SVG Version: 6.00 Build 0)  -->
<svg version="1.1" id="Слой_1" xmlns="http://www.w3.org/2000/svg" xmlns:xlink="http://www.w3.org/1999/xlink" x="0px" y="0px"
	 viewBox="0 0 87.9447632 82.6182632" enable-background="new 0 0 87.9447632 82.6182632" xml:space="preserve">
<g>
	<defs>
		<polygon id="SVGID_1_" points="35.3819504,66.1032028 45.7151756,29.5080547 -4.2848244,5.5080552 -5.9840431,-10.2246904 
			-5.9840431,65.461792 		"/>
	</defs>
	<clipPath id="SVGID_2_">
		<use xlink:href="#SVGID_1_"  overflow="visible"/>
	</clipPath>
	<g clip-path="url(#SVGID_2_)">
		<defs>
			<rect id="SVGID_3_" x="-1.6060904" y="-6.6969304" width="48.7472267" height="69.272377"/>
		</defs>
		<clipPath id="SVGID_4_">
			<use xlink:href="#SVGID_3_"  overflow="visible"/>
		</clipPath>
		<g clip-path="url(#SVGID_4_)">
			<linearGradient id="SVGID_5_" gradientUnits="userSpaceOnUse" x1="54.0193748" y1="-1.5437777" x2="40.2629166" y2="12.212678">
				<stop  offset="0" style="stop-color:#F59900"/>
				<stop  offset="1" style="stop-color:#CA8608"/>
			</linearGradient>
			<path fill="none" stroke="url(#SVGID_5_)" stroke-width="2" stroke-linejoin="round" stroke-miterlimit="10" d="M53.5552444,1
				c2.1247253,0,3.848465,1.7233427,3.848465,3.8484654v2.5656433H36.8785629V4.8484654
				C36.8785629,2.7233427,38.6024055,1,40.7270279,1H53.5552444z"/>
			<linearGradient id="SVGID_6_" gradientUnits="userSpaceOnUse" x1="21.4468441" y1="-0.452071" x2="13.8256283" y2="7.1691446">
				<stop  offset="0" style="stop-color:#F59900"/>
				<stop  offset="1" style="stop-color:#CA8608"/>
			</linearGradient>
			<polyline fill="none" stroke="url(#SVGID_6_)" stroke-width="2" stroke-linejoin="round" stroke-miterlimit="10" points="
				12.5049486,4.8484654 12.5049486,2.2828217 22.7675228,2.2828217 22.7675228,4.8484654 			"/>
			<linearGradient id="SVGID_7_" gradientUnits="userSpaceOnUse" x1="80.4566422" y1="-0.452071" x2="72.8354263" y2="7.1691446">
				<stop  offset="0" style="stop-color:#F59900"/>
				<stop  offset="1" style="stop-color:#CA8608"/>
			</linearGradient>
			<polyline fill="none" stroke="url(#SVGID_7_)" stroke-width="2" stroke-linejoin="round" stroke-miterlimit="10" points="
				71.5147476,4.8484654 71.5147476,2.2828217 81.7773209,2.2828217 81.7773209,4.8484654 			"/>
			<linearGradient id="SVGID_8_" gradientUnits="userSpaceOnUse" x1="70.0905151" y1="17.8180943" x2="60.1107635" y2="27.7978458">
				<stop  offset="0" style="stop-color:#F59900"/>
				<stop  offset="1" style="stop-color:#CA8608"/>
			</linearGradient>
			
				<line fill="none" stroke="url(#SVGID_8_)" stroke-width="2" stroke-linejoin="round" stroke-miterlimit="10" x1="56.1208878" y1="22.80797" x2="74.0803909" y2="22.80797"/>
			<linearGradient id="SVGID_9_" gradientUnits="userSpaceOnUse" x1="33.0957909" y1="16.3281651" x2="2.1766789" y2="47.2472801">
				<stop  offset="0" style="stop-color:#F59900"/>
				<stop  offset="1" style="stop-color:#CA8608"/>
			</linearGradient>
			
				<rect x="15.0705919" y="4.8484654" fill="none" stroke="url(#SVGID_9_)" stroke-width="2" stroke-linejoin="round" stroke-miterlimit="10" width="5.1312871" height="53.8785133"/>
			<linearGradient id="SVGID_10_" gradientUnits="userSpaceOnUse" x1="59.1865311" y1="46.6815834" x2="35.0957413" y2="70.772377">
				<stop  offset="0" style="stop-color:#F59900"/>
				<stop  offset="1" style="stop-color:#CA8608"/>
			</linearGradient>
			
				<line fill="none" stroke="url(#SVGID_10_)" stroke-width="2" stroke-linejoin="round" stroke-miterlimit="10" x1="70.231926" y1="58.7269783" x2="24.0503445" y2="58.7269783"/>
			
				<linearGradient id="SVGID_11_" gradientUnits="userSpaceOnUse" x1="71.156189" y1="-12.3181725" x2="23.1260853" y2="35.7119293">
				<stop  offset="0" style="stop-color:#F59900"/>
				<stop  offset="1" style="stop-color:#CA8608"/>
			</linearGradient>
			<polyline fill="none" stroke="url(#SVGID_11_)" stroke-width="2" stroke-linejoin="round" stroke-miterlimit="10" points="
				86.9086075,18.9595051 86.9086075,4.8484654 66.383461,4.8484654 63.8178177,7.4141088 30.4644527,7.4141088 
				27.8988094,4.8484654 7.373662,4.8484654 7.373662,18.9595051 			"/>
			
				<linearGradient id="SVGID_12_" gradientUnits="userSpaceOnUse" x1="92.1055908" y1="16.3281651" x2="61.1864777" y2="47.2472801">
				<stop  offset="0" style="stop-color:#F59900"/>
				<stop  offset="1" style="stop-color:#CA8608"/>
			</linearGradient>
			
				<rect x="74.0803909" y="4.8484654" fill="none" stroke="url(#SVGID_12_)" stroke-width="2" stroke-linejoin="round" stroke-miterlimit="10" width="5.1312871" height="53.8785133"/>
			<linearGradient id="SVGID_13_" gradientUnits="userSpaceOnUse" x1="52.9795303" y1="17.0764771" x2="41.302742" y2="28.7532654">
				<stop  offset="0" style="stop-color:#F59900"/>
				<stop  offset="1" style="stop-color:#CA8608"/>
			</linearGradient>
			
				<rect x="42.0098495" y="17.7835846" fill="none" stroke="url(#SVGID_13_)" stroke-width="2" stroke-linejoin="round" stroke-miterlimit="10" width="10.2625742" height="10.2625742"/>
			
				<linearGradient id="SVGID_14_" gradientUnits="userSpaceOnUse" x1="34.6715088" y1="18.3180943" x2="25.6917553" y2="27.2978458">
				<stop  offset="0" style="stop-color:#F59900"/>
				<stop  offset="1" style="stop-color:#CA8608"/>
			</linearGradient>
			
				<line fill="none" stroke="url(#SVGID_14_)" stroke-width="2" stroke-linejoin="round" stroke-miterlimit="10" x1="38.1613846" y1="22.80797" x2="22.2018795" y2="22.80797"/>
			<linearGradient id="SVGID_15_" gradientUnits="userSpaceOnUse" x1="21.5225582" y1="30.2599354" x2="-0.4925179" y2="52.275013">
				<stop  offset="0" style="stop-color:#F59900"/>
				<stop  offset="1" style="stop-color:#CA8608"/>
			</linearGradient>
			<polyline fill="none" stroke="url(#SVGID_15_)" stroke-width="2" stroke-linejoin="round" stroke-miterlimit="10" points="
				15.0705919,58.7269783 7.373662,58.7269783 7.373662,22.80797 13.0705919,22.80797 			"/>
			<linearGradient id="SVGID_16_" gradientUnits="userSpaceOnUse" x1="94.7747879" y1="29.2599354" x2="71.7597122" y2="52.275013">
				<stop  offset="0" style="stop-color:#F59900"/>
				<stop  offset="1" style="stop-color:#CA8608"/>
			</linearGradient>
			<polyline fill="none" stroke="url(#SVGID_16_)" stroke-width="2" stroke-linejoin="round" stroke-miterlimit="10" points="
				79.2116776,22.80797 86.9086075,22.80797 86.9086075,58.7269783 79.2116776,58.7269783 			"/>
			<g>
				<linearGradient id="SVGID_17_" gradientUnits="userSpaceOnUse" x1="45.7169037" y1="29.4703903" x2="43.434082" y2="31.753212">
					<stop  offset="0" style="stop-color:#F59900"/>
					<stop  offset="1" style="stop-color:#CA8608"/>
				</linearGradient>
				
					<line fill="none" stroke="url(#SVGID_17_)" stroke-width="2" stroke-linejoin="round" stroke-miterlimit="10" x1="43.2926712" y1="30.6118011" x2="45.8583145" y2="30.6118011"/>
				
					<linearGradient id="SVGID_18_" gradientUnits="userSpaceOnUse" x1="50.8481903" y1="29.4703903" x2="48.5653687" y2="31.753212">
					<stop  offset="0" style="stop-color:#F59900"/>
					<stop  offset="1" style="stop-color:#CA8608"/>
				</linearGradient>
				
					<line fill="none" stroke="url(#SVGID_18_)" stroke-width="2" stroke-linejoin="round" stroke-miterlimit="10" x1="48.4239578" y1="30.6118011" x2="50.9896011" y2="30.6118011"/>
			</g>
			<g>
				
					<linearGradient id="SVGID_19_" gradientUnits="userSpaceOnUse" x1="45.7169037" y1="14.0765305" x2="43.434082" y2="16.3593521">
					<stop  offset="0" style="stop-color:#F59900"/>
					<stop  offset="1" style="stop-color:#CA8608"/>
				</linearGradient>
				
					<line fill="none" stroke="url(#SVGID_19_)" stroke-width="2" stroke-linejoin="round" stroke-miterlimit="10" x1="43.2926712" y1="15.2179413" x2="45.8583145" y2="15.2179413"/>
				
					<linearGradient id="SVGID_20_" gradientUnits="userSpaceOnUse" x1="50.8481903" y1="14.0765305" x2="48.5653687" y2="16.3593521">
					<stop  offset="0" style="stop-color:#F59900"/>
					<stop  offset="1" style="stop-color:#CA8608"/>
				</linearGradient>
				
					<line fill="none" stroke="url(#SVGID_20_)" stroke-width="2" stroke-linejoin="round" stroke-miterlimit="10" x1="48.4239578" y1="15.2179413" x2="50.9896011" y2="15.2179413"/>
			</g>
		</g>
	</g>
</g>
<polygon fill="none" points="35.3819504,66.1032028 45.8944702,28.2599621 14.7151756,-6.4919448 -7.9840431,-10.2246904 
	-7.9840431,65.461792 "/>
<g>
	<defs>
		<polygon id="SVGID_21_" points="-0.726693,-10.4919453 -3.2848244,3.5080552 47.1772919,28.2599354 36.7387047,65.836731 
			100.4143906,65.836731 100.4143906,-10.4919453 		"/>
	</defs>
	<clipPath id="SVGID_22_">
		<use xlink:href="#SVGID_21_"  overflow="visible"/>
	</clipPath>
	<g clip-path="url(#SVGID_22_)">
		
			<line fill="none" stroke="#FCCE8E" stroke-width="2" stroke-linejoin="round" stroke-miterlimit="10" x1="70.2680817" y1="58.7269783" x2="24.0865002" y2="58.7269783"/>
		<polyline fill="none" stroke="#FCCE8E" stroke-width="2" stroke-linejoin="round" stroke-miterlimit="10" points="
			86.9447632,18.9595051 86.9447632,4.8484654 66.4196167,4.8484654 63.8539734,7.4141088 30.5006084,7.4141088 
			27.9349651,4.8484654 7.4098177,4.8484654 7.4098177,18.9595051 		"/>
		<path fill="none" stroke="#FCCE8E" stroke-width="2" stroke-linejoin="round" stroke-miterlimit="10" d="M53.5914001,1
			c2.1247253,0,3.848465,1.7233427,3.848465,3.8484654v2.5656433H36.9147186V4.8484654
			C36.9147186,2.7233427,38.6385612,1,40.7631836,1H53.5914001z"/>
		
			<rect x="15.1067486" y="4.8484654" fill="none" stroke="#FCCE8E" stroke-width="2" stroke-linejoin="round" stroke-miterlimit="10" width="5.1312871" height="53.8785133"/>
		
			<rect x="74.1165466" y="4.8484654" fill="none" stroke="#FCCE8E" stroke-width="2" stroke-linejoin="round" stroke-miterlimit="10" width="5.1312871" height="53.8785133"/>
		
			<rect x="42.0460052" y="17.7835846" fill="none" stroke="#FCCE8E" stroke-width="2" stroke-linejoin="round" stroke-miterlimit="10" width="10.2625742" height="10.2625742"/>
		
			<line fill="none" stroke="#FCCE8E" stroke-width="2" stroke-linejoin="round" stroke-miterlimit="10" x1="38.1975403" y1="22.80797" x2="20.2380352" y2="22.80797"/>
		
			<line fill="none" stroke="#FCCE8E" stroke-width="2" stroke-linejoin="round" stroke-miterlimit="10" x1="56.1570435" y1="22.80797" x2="74.1165466" y2="22.80797"/>
		<polyline fill="none" stroke="#FCCE8E" stroke-width="2" stroke-linejoin="round" stroke-miterlimit="10" points="
			15.1067486,58.7269783 7.4098177,58.7269783 7.4098177,22.80797 15.1067486,22.80797 		"/>
		<polyline fill="none" stroke="#FCCE8E" stroke-width="2" stroke-linejoin="round" stroke-miterlimit="10" points="
			79.2478333,22.80797 86.9447632,22.80797 86.9447632,58.7269783 79.2478333,58.7269783 		"/>
		<polyline fill="none" stroke="#FCCE8E" stroke-width="2" stroke-linejoin="round" stroke-miterlimit="10" points="
			12.5411043,4.8484654 12.5411043,2.2828217 22.8036785,2.2828217 22.8036785,4.8484654 		"/>
		<polyline fill="none" stroke="#FCCE8E" stroke-width="2" stroke-linejoin="round" stroke-miterlimit="10" points="
			71.5509033,4.8484654 71.5509033,2.2828217 81.8134766,2.2828217 81.8134766,4.8484654 		"/>
		<g>
			
				<line fill="none" stroke="#FCCE8E" stroke-width="2" stroke-linejoin="round" stroke-miterlimit="10" x1="43.3288269" y1="30.6118011" x2="45.8944702" y2="30.6118011"/>
			
				<line fill="none" stroke="#FCCE8E" stroke-width="2" stroke-linejoin="round" stroke-miterlimit="10" x1="48.4601135" y1="30.6118011" x2="51.0257568" y2="30.6118011"/>
		</g>
		<g>
			
				<line fill="none" stroke="#FCCE8E" stroke-width="2" stroke-linejoin="round" stroke-miterlimit="10" x1="43.3288269" y1="15.2179413" x2="45.8944702" y2="15.2179413"/>
			
				<line fill="none" stroke="#FCCE8E" stroke-width="2" stroke-linejoin="round" stroke-miterlimit="10" x1="48.4601135" y1="15.2179413" x2="51.0257568" y2="15.2179413"/>
		</g>
	</g>
</g>
<linearGradient id="SVGID_23_" gradientUnits="userSpaceOnUse" x1="40.1321144" y1="20.4876556" x2="4.9699283" y2="55.6498413">
	<stop  offset="0" style="stop-color:#F59900"/>
	<stop  offset="1" style="stop-color:#CA8608"/>
</linearGradient>
<polyline fill="none" stroke="url(#SVGID_23_)" stroke-miterlimit="10" points="32.1524467,82.484436 47.1772919,28.3976192 
	0.2151756,6.0080552 "/>
<g>
</g>
<g>
</g>
<g>
</g>
<g>
</g>
<g>
</g>
<g>
</g>
<g>
</g>
<g>
</g>
<g>
</g>
<g>
</g>
<g>
</g>
<g>
</g>
<g>
</g>
<g>
</g>
<g>
</g>
</svg>
