<svg class="svg-symbols" style="position: absolute; clip: rect(0, 0, 0, 0);" xmlns="http://www.w3.org/2000/svg">
<defs>
<linearGradient x1="50%" y1="0%" x2="50%" y2="100%" id="investor-login-hover.svg-a"><stop stop-color="#6888F7" offset="0%"/><stop stop-color="#00E0E1" offset="31.122%"/><stop stop-color="#757FF1" offset="69.762%"/><stop stop-color="#E6388D" offset="100%"/></linearGradient>
</defs>
<symbol id="icon-svg-investor-login-hover" viewBox="0 0 43 43"><title>Investor login acon 2</title><g fill="none" fill-rule="evenodd"><path d="M14.67 7.742c4.376-1.336 9.246-1.317 13.543-.015.782.236 1.22-.712.443-.948-4.569-1.383-9.76-1.411-14.433.017-.778.238-.33 1.184.448.946m-5.003 4.994c3.259-2.62 7.772-4.049 12.379-3.92.828.026.878-.99.043-1.013-4.959-.136-9.808 1.4-13.312 4.217-.589.473.3 1.19.89.716m15.227-3.644c3.357.58 6.165 1.87 8.372 3.644.588.473 1.479-.243.89-.716-2.368-1.904-5.388-3.295-9.004-3.92-.813-.137-1.074.855-.258.992M35.741 22.27c0 4.838-2.66 9.46-7.377 12.608-.641.428.164 1.206.804.78C34.138 32.343 37 27.446 37 22.27c0-.67-1.259-.67-1.259 0m-2.83 6.472c.313-.467-.371-.959-.914-.655-3.622 2.031-7.373 1.91-9.388.966-.526-.25-1.145.19-.898.64.091.165 2.247 4.066 4.377 6.642.453.548 1.514.003 1.049-.56-1.381-1.67-2.812-3.984-3.618-5.35 2.186.499 4.69.375 7.184-.566-.823 1.12-1.677 2.032-3.085 2.933l-.544-.65.553-.116c.807-.168.489-1.149-.315-.98l-1.415.294c-.419.088-.607.483-.364.773 1.518 1.816 1.473 1.855 1.824 1.905a.755.755 0 0 0 .48-.088c2.632-1.536 3.657-3.067 5.075-5.188M7.259 22.221c0-6.3 6.375-11.424 14.208-11.424 6.798 0 12.687 3.884 14.003 9.236.161.655 1.397.462 1.235-.196-1.432-5.825-7.84-10.052-15.238-10.052C12.94 9.785 6 15.364 6 22.221c0 3.18 1.116 6.12 2.083 8.78.234.643 1.445.363 1.21-.285-.945-2.594-2.034-5.463-2.034-8.495m2.727 2.256c-.114-.663-1.362-.526-1.248.138.566 3.313 2.174 7.048 3.801 10.142.322.61 1.487.226 1.16-.395-1.58-3.003-3.155-6.642-3.713-9.885m5.523 7.5c-1.417-2.72-3.275-6.81-3.275-9.756 0-1.83.835-3.588 2.352-4.95.555-.499-.385-1.174-.939-.675-1.788 1.607-2.679 3.65-2.679 5.625 0 2.428 1.137 5.841 3.379 10.147.32.616 1.484.227 1.162-.391m1.179 2.16c-.346-.607-1.492-.187-1.146.422.38.666.78 1.345 1.19 2.016.364.598 1.498.157 1.13-.445-.404-.663-.8-1.334-1.174-1.992M14.747 22.22c0-2.977 3.013-5.4 6.716-5.4 6.455 0 8.628 6.863 4.898 6.863-1.003 0-1.819-.656-1.819-1.463 0-1.364-1.381-2.474-3.079-2.474-1.697 0-3.078 1.11-3.078 2.474 0 1.128.773 3.159 2.122 5.573.338.606 1.49.199 1.148-.415-1.26-2.254-2.011-4.183-2.011-5.158 0-.806.816-1.462 1.82-1.462 1.003 0 1.818.656 1.818 1.462 0 1.365 1.382 2.475 3.08 2.475 1.697 0 3.077-1.11 3.077-2.475 0-3.535-3.577-6.412-7.976-6.412-4.398 0-7.976 2.877-7.976 6.412 0 4.088 4.12 11.01 6.574 14.772.386.59 1.507.128 1.116-.47-2.402-3.68-6.43-10.432-6.43-14.302m8.838 6.035c5.234 1.579 10.83-1.55 10.83-6.035 0-2.44-1.072-4.814-3.02-6.682-.534-.513-1.5.137-.965.65 1.758 1.686 2.726 3.828 2.726 6.032 0 3.776-4.71 6.418-9.129 5.087-.777-.235-1.222.713-.442.948m4.882-13.56c.667.4 1.421-.41.756-.81-8.471-5.1-20.569-.234-20.702 8.2-.012.67 1.248.69 1.258.013.122-7.615 11.045-12.006 18.688-7.403m-2.696 7.525c0 .669 1.26.67 1.26 0 0-4.462-7.286-6.162-10.266-2.4-.447.564.615 1.108 1.062.543 2.302-2.904 7.944-1.601 7.944 1.857m-8.615 0c0-.668-1.26-.67-1.26 0 0 3.228 4.922 11.309 7.305 14.716.408.583 1.506.088 1.098-.495-2.88-4.12-7.143-11.487-7.143-14.22M28.69 25.15c-.295.149-.383.461-.198.698.12.153.324.236.534.236a.74.74 0 0 0 .334-.078c1.63-.824 2.603-2.24 2.603-3.786 0-6.462-8.768-10.612-15.88-7.242-.715.343-.07 1.213.646.87 6.236-2.958 13.974.667 13.974 6.372 0 1.196-.752 2.292-2.013 2.93m-2.29 1.541c-3.067 0-5.562-2.005-5.562-4.47 0-.67 1.26-.67 1.26 0 0 1.907 1.93 3.458 4.302 3.458.833 0 .832 1.012 0 1.012" fill="url(#investor-login-hover.svg-a)"/><path d="M4.375 0H0v4.18c0 .33.28.598.625.598a.612.612 0 0 0 .625-.598V1.194h3.125A.611.611 0 0 0 5 .597C5 .267 4.72 0 4.375 0M38.625 0A.611.611 0 0 0 38 .597c0 .33.28.597.625.597h3.125V4.18c0 .33.28.598.625.598A.611.611 0 0 0 43 4.18V0h-4.375zM4.375 41.806H1.25V38.82c0-.33-.28-.598-.625-.598A.611.611 0 0 0 0 38.82V43h4.375A.611.611 0 0 0 5 42.402c0-.329-.28-.596-.625-.596M38.625 41.806h3.125V38.82c0-.33.28-.598.625-.598.346 0 .625.268.625.598V43h-4.375a.611.611 0 0 1-.625-.598c0-.329.28-.596.625-.596" fill="#777263"/></g></symbol>
<symbol id="icon-svg-investor-login" viewBox="0 0 43 43"><title>investor login icon</title><g fill="none" fill-rule="evenodd"><path d="M14.67 7.742c4.376-1.336 9.246-1.317 13.543-.015.782.236 1.22-.712.443-.948-4.569-1.383-9.76-1.411-14.433.017-.778.238-.33 1.184.448.946m-5.003 4.994c3.259-2.62 7.772-4.049 12.379-3.92.828.026.878-.99.043-1.013-4.959-.136-9.808 1.4-13.312 4.217-.589.473.3 1.19.89.716m15.227-3.644c3.357.58 6.165 1.87 8.372 3.644.588.473 1.479-.243.89-.716-2.368-1.904-5.388-3.295-9.004-3.92-.813-.137-1.074.855-.258.992M35.741 22.27c0 4.838-2.66 9.46-7.377 12.608-.641.428.164 1.206.804.78C34.138 32.343 37 27.446 37 22.27c0-.67-1.259-.67-1.259 0m-2.83 6.472c.313-.467-.371-.959-.914-.655-3.622 2.031-7.373 1.91-9.388.966-.526-.25-1.145.19-.898.64.091.165 2.247 4.066 4.377 6.642.453.548 1.514.003 1.049-.56-1.381-1.67-2.812-3.984-3.618-5.35 2.186.499 4.69.375 7.184-.566-.823 1.12-1.677 2.032-3.085 2.933l-.544-.65.553-.116c.807-.168.489-1.149-.315-.98l-1.415.294c-.419.088-.607.483-.364.773 1.518 1.816 1.473 1.855 1.824 1.905a.755.755 0 0 0 .48-.088c2.632-1.536 3.657-3.067 5.075-5.188M7.259 22.221c0-6.3 6.375-11.424 14.208-11.424 6.798 0 12.687 3.884 14.003 9.236.161.655 1.397.462 1.235-.196-1.432-5.825-7.84-10.052-15.238-10.052C12.94 9.785 6 15.364 6 22.221c0 3.18 1.116 6.12 2.083 8.78.234.643 1.445.363 1.21-.285-.945-2.594-2.034-5.463-2.034-8.495m2.727 2.256c-.114-.663-1.362-.526-1.248.138.566 3.313 2.174 7.048 3.801 10.142.322.61 1.487.226 1.16-.395-1.58-3.003-3.155-6.642-3.713-9.885m5.523 7.5c-1.417-2.72-3.275-6.81-3.275-9.756 0-1.83.835-3.588 2.352-4.95.555-.499-.385-1.174-.939-.675-1.788 1.607-2.679 3.65-2.679 5.625 0 2.428 1.137 5.841 3.379 10.147.32.616 1.484.227 1.162-.391m1.179 2.16c-.346-.607-1.492-.187-1.146.422.38.666.78 1.345 1.19 2.016.364.598 1.498.157 1.13-.445-.404-.663-.8-1.334-1.174-1.992M14.747 22.22c0-2.977 3.013-5.4 6.716-5.4 6.455 0 8.628 6.863 4.898 6.863-1.003 0-1.819-.656-1.819-1.463 0-1.364-1.381-2.474-3.079-2.474-1.697 0-3.078 1.11-3.078 2.474 0 1.128.773 3.159 2.122 5.573.338.606 1.49.199 1.148-.415-1.26-2.254-2.011-4.183-2.011-5.158 0-.806.816-1.462 1.82-1.462 1.003 0 1.818.656 1.818 1.462 0 1.365 1.382 2.475 3.08 2.475 1.697 0 3.077-1.11 3.077-2.475 0-3.535-3.577-6.412-7.976-6.412-4.398 0-7.976 2.877-7.976 6.412 0 4.088 4.12 11.01 6.574 14.772.386.59 1.507.128 1.116-.47-2.402-3.68-6.43-10.432-6.43-14.302m8.838 6.035c5.234 1.579 10.83-1.55 10.83-6.035 0-2.44-1.072-4.814-3.02-6.682-.534-.513-1.5.137-.965.65 1.758 1.686 2.726 3.828 2.726 6.032 0 3.776-4.71 6.418-9.129 5.087-.777-.235-1.222.713-.442.948m4.882-13.56c.667.4 1.421-.41.756-.81-8.471-5.1-20.569-.234-20.702 8.2-.012.67 1.248.69 1.258.013.122-7.615 11.045-12.006 18.688-7.403m-2.696 7.525c0 .669 1.26.67 1.26 0 0-4.462-7.286-6.162-10.266-2.4-.447.564.615 1.108 1.062.543 2.302-2.904 7.944-1.601 7.944 1.857m-8.615 0c0-.668-1.26-.67-1.26 0 0 3.228 4.922 11.309 7.305 14.716.408.583 1.506.088 1.098-.495-2.88-4.12-7.143-11.487-7.143-14.22M28.69 25.15c-.295.149-.383.461-.198.698.12.153.324.236.534.236a.74.74 0 0 0 .334-.078c1.63-.824 2.603-2.24 2.603-3.786 0-6.462-8.768-10.612-15.88-7.242-.715.343-.07 1.213.646.87 6.236-2.958 13.974.667 13.974 6.372 0 1.196-.752 2.292-2.013 2.93m-2.29 1.541c-3.067 0-5.562-2.005-5.562-4.47 0-.67 1.26-.67 1.26 0 0 1.907 1.93 3.458 4.302 3.458.833 0 .832 1.012 0 1.012" fill="#F55505"/><path d="M4.375 0H0v4.18c0 .33.28.598.625.598a.612.612 0 0 0 .625-.598V1.194h3.125A.611.611 0 0 0 5 .597C5 .267 4.72 0 4.375 0M38.625 0A.611.611 0 0 0 38 .597c0 .33.28.597.625.597h3.125V4.18c0 .33.28.598.625.598A.611.611 0 0 0 43 4.18V0h-4.375zM4.375 41.806H1.25V38.82c0-.33-.28-.598-.625-.598A.611.611 0 0 0 0 38.82V43h4.375A.611.611 0 0 0 5 42.402c0-.329-.28-.596-.625-.596M38.625 41.806h3.125V38.82c0-.33.28-.598.625-.598.346 0 .625.268.625.598V43h-4.375a.611.611 0 0 1-.625-.598c0-.329.28-.596.625-.596" fill="#777263"/></g></symbol>
<symbol id="icon-svg-logo" viewBox="0 0 175.2202148 56.6479988"><path class="st0" d="M-16.59.007h191.8v56.641h-191.8z"/><path class="st1" d="M118.57.007h56.64v56.641h-56.64z"/><path class="st2" d="M175.22 56.648h-56.65V0z"/><path class="st3" d="M6.984 21.196c1.832 0 2.788 1.141 3.16 2.68h3.77c-.69-3.953-3.399-5.969-6.93-5.969-2.178 0-3.771.716-5.072 1.99C.027 21.78 0 23.902 0 27.51c0 3.607.026 5.73 1.912 7.613 1.3 1.273 2.894 1.989 5.072 1.989 3.505 0 6.24-2.016 6.93-5.968H10.17c-.372 1.538-1.354 2.679-3.186 2.679-1.01 0-1.833-.372-2.364-.982-.69-.795-.93-1.724-.93-5.331 0-3.608.24-4.536.93-5.332.531-.61 1.355-.982 2.364-.982zm25.25 2.653c0-3.157-2.284-5.783-6.135-5.783h-7.408v18.887h3.691V29.42h2.655l3.691 7.533h4.276l-4.223-8.144c1.833-.663 3.452-2.307 3.452-4.96zm-6.373 2.494h-3.479v-4.987h3.479c1.62 0 2.682 1.034 2.682 2.493 0 1.459-1.063 2.494-2.682 2.494zm17.07-.664l-3.53-7.613h-4.01l5.682 11.141v7.746h3.665v-7.746l5.682-11.14h-4.01l-3.478 7.612zm18.692-7.613h-7.329v18.887h3.691v-7.109h3.638c3.93 0 6.24-2.68 6.24-5.889 0-3.21-2.31-5.889-6.24-5.889zm-.186 8.462h-3.452v-5.172h3.452c1.673 0 2.735 1.06 2.735 2.6s-1.062 2.572-2.735 2.572zm9.583-5.172h4.94v15.597h3.69V21.356h4.94v-3.29H71.02v3.29zm29.022-1.46c-1.275-1.273-2.868-1.989-5.046-1.989s-3.797.716-5.071 1.99c-1.886 1.883-1.912 4.005-1.912 7.613 0 3.607.026 5.73 1.912 7.613 1.274 1.273 2.894 1.989 5.071 1.989s3.771-.716 5.046-1.99c1.885-1.883 1.938-4.005 1.938-7.612 0-3.608-.053-5.73-1.938-7.613zM97.36 32.789c-.531.61-1.354 1.035-2.364 1.035a3.19 3.19 0 0 1-2.39-1.035c-.69-.795-.902-1.67-.902-5.278 0-3.608.212-4.51.902-5.306.558-.61 1.381-1.008 2.39-1.008 1.01 0 1.833.398 2.364 1.008.69.796.929 1.698.929 5.306 0 3.607-.239 4.483-.93 5.278z" id="CRYPTO"/><path class="st4" d="M152.651 24.021h3.136v13.17h-3.136z" id="&#x41F;&#x440;&#x44F;&#x43C;&#x43E;&#x443;&#x433;&#x43E;&#x43B;&#x44C;&#x43D;&#x438;&#x43A;_1"/><circle class="st4" cx="154.219" cy="20.572" r="2.195" id="&#x42D;&#x43B;&#x43B;&#x438;&#x43F;&#x441;_1"/><path class="st4" d="M148.553 19.944c-1.205-1.103-2.858-1.654-4.96-1.654H136.6v18.807h3.667v-6.82h3.327c2.1 0 3.754-.547 4.96-1.64 1.204-1.094 1.807-2.54 1.807-4.34 0-1.8-.603-3.251-1.808-4.353zm-2.636 6.568c-.528.572-1.302.859-2.323.859h-3.327v-6.174h3.327c1.03 0 1.806.295 2.329.884.523.59.784 1.337.784 2.241 0 .887-.263 1.617-.79 2.19z" id="P"/></symbol>
<symbol id="icon-svg-cancel" viewBox="0 0 64 64"><path d="M28.941 31.786L.613 60.114a2.014 2.014 0 1 0 2.848 2.849l28.541-28.541 28.541 28.541c.394.394.909.59 1.424.59a2.014 2.014 0 0 0 1.424-3.439L35.064 31.786 63.41 3.438A2.014 2.014 0 1 0 60.562.589L32.003 29.15 3.441.59A2.015 2.015 0 0 0 .593 3.439l28.348 28.347z"/></symbol>
<symbol id="icon-svg-menu" viewBox="0 0 64 64"><path d="M2.252 10.271h58.871a2.033 2.033 0 1 0 0-4.068H2.252a2.034 2.034 0 1 0 0 4.068zM61.123 30.015H2.252a2.035 2.035 0 0 0 0 4.069h58.871a2.034 2.034 0 0 0 0-4.069zM61.123 53.876H2.252a2.033 2.033 0 1 0 0 4.068h58.871a2.034 2.034 0 1 0 0-4.068z"/></symbol>
</svg>