<svg xmlns="http://www.w3.org/2000/svg" viewBox="0 0 539.077 539.077"><path d="M460.462 527.846h-134.77a11.224 11.224 0 0 1-11.231-11.231v-146h-89.846v146a11.224 11.224 0 0 1-11.231 11.231H78.615a11.224 11.224 0 0 1-11.231-11.231V292a11.224 11.224 0 0 1 11.231-11.231A11.224 11.224 0 0 1 89.846 292v213.385h112.308v-146a11.224 11.224 0 0 1 11.231-11.231h112.308a11.224 11.224 0 0 1 11.231 11.231v146h112.308V303.231A11.224 11.224 0 0 1 460.463 292a11.224 11.224 0 0 1 11.231 11.231v213.385c-.002 6.207-5.025 11.23-11.232 11.23zM527.846 292a11.195 11.195 0 0 1-7.94-3.29L269.538 38.343 19.171 288.71c-4.387 4.387-11.494 4.387-15.881 0-4.387-4.387-4.387-11.494 0-15.881L261.598 14.521c4.387-4.387 11.494-4.387 15.881 0l258.308 258.308c4.387 4.387 4.387 11.494 0 15.881a11.197 11.197 0 0 1-7.941 3.29zM438 134.769a11.224 11.224 0 0 1-11.231-11.231V56.154h-67.385c-6.208 0-11.231-5.023-11.231-11.231s5.023-11.231 11.231-11.231H438a11.224 11.224 0 0 1 11.231 11.231v78.615A11.224 11.224 0 0 1 438 134.769z"/></svg>