<?xml version="1.0" encoding="utf-8"?>
<!-- Generator: Adobe Illustrator 21.1.0, SVG Export Plug-In . SVG Version: 6.00 Build 0)  -->
<svg version="1.1" id="Слой_1" xmlns="http://www.w3.org/2000/svg" xmlns:xlink="http://www.w3.org/1999/xlink" x="0px" y="0px"
	 viewBox="0 0 64 64" enable-background="new 0 0 64 64" xml:space="preserve">
<g>
	<g>
		<g>
			<linearGradient id="SVGID_1_" gradientUnits="userSpaceOnUse" x1="0" y1="22" x2="44" y2="22">
				<stop  offset="0" style="stop-color:#F59900"/>
				<stop  offset="1" style="stop-color:#CA8608"/>
			</linearGradient>
			<path fill="none" stroke="url(#SVGID_1_)" stroke-width="2" stroke-miterlimit="10" d="M22,43C10.4022923,43,1,33.5976982,1,22
				S10.4022923,1,22,1c11.5976906,0,21,9.4022999,21,21"/>
			<g>
				<linearGradient id="SVGID_2_" gradientUnits="userSpaceOnUse" x1="20" y1="42" x2="64" y2="42">
					<stop  offset="0" style="stop-color:#F59900"/>
					<stop  offset="1" style="stop-color:#CA8608"/>
				</linearGradient>
				<circle fill="none" stroke="url(#SVGID_2_)" stroke-width="2" stroke-miterlimit="10" cx="42" cy="42" r="21"/>
				<linearGradient id="SVGID_3_" gradientUnits="userSpaceOnUse" x1="24" y1="42" x2="60" y2="42">
					<stop  offset="0" style="stop-color:#F59900"/>
					<stop  offset="1" style="stop-color:#CA8608"/>
				</linearGradient>
				<circle fill="none" stroke="url(#SVGID_3_)" stroke-width="2" stroke-miterlimit="10" cx="42" cy="42" r="17"/>
			</g>
			<g>
				<linearGradient id="SVGID_4_" gradientUnits="userSpaceOnUse" x1="44" y1="13" x2="58" y2="13">
					<stop  offset="0" style="stop-color:#F59900"/>
					<stop  offset="1" style="stop-color:#CA8608"/>
				</linearGradient>
				<path fill="none" stroke="url(#SVGID_4_)" stroke-width="2" stroke-miterlimit="10" d="M44,7h9c2.2089996,0,4,1.7910004,4,4v9"
					/>
			</g>
			<g>
				<linearGradient id="SVGID_5_" gradientUnits="userSpaceOnUse" x1="6" y1="51" x2="20" y2="51">
					<stop  offset="0" style="stop-color:#F59900"/>
					<stop  offset="1" style="stop-color:#CA8608"/>
				</linearGradient>
				<path fill="none" stroke="url(#SVGID_5_)" stroke-width="2" stroke-miterlimit="10" d="M20,57h-9c-2.2089996,0-4-1.7910004-4-4
					v-9"/>
			</g>
			<linearGradient id="SVGID_6_" gradientUnits="userSpaceOnUse" x1="4" y1="22" x2="40" y2="22">
				<stop  offset="0" style="stop-color:#F59900"/>
				<stop  offset="1" style="stop-color:#CA8608"/>
			</linearGradient>
			<path fill="none" stroke="url(#SVGID_6_)" stroke-width="2" stroke-miterlimit="10" d="M22,39c-9.3887072,0-17-7.6112995-17-17
				S12.6112928,5,22,5c9.3886929,0,17,7.6113005,17,17"/>
			<linearGradient id="SVGID_7_" gradientUnits="userSpaceOnUse" x1="12" y1="22" x2="30.9599743" y2="22">
				<stop  offset="0" style="stop-color:#F59900"/>
				<stop  offset="1" style="stop-color:#CA8608"/>
			</linearGradient>
			<path fill="none" stroke="url(#SVGID_7_)" stroke-width="2" stroke-miterlimit="10" d="M24,31c0,0-1.281208,0-2,0
				c-4.9707069,0-9-4.0293007-9-9s4.0292931-9,9-9c3.5331917,0,6.5917912,2.0370998,8.0644913,5"/>
			<linearGradient id="SVGID_8_" gradientUnits="userSpaceOnUse" x1="32.9461441" y1="41.7860336" x2="49.3040581" y2="41.7860336">
				<stop  offset="0" style="stop-color:#F59900"/>
				<stop  offset="1" style="stop-color:#CA8608"/>
			</linearGradient>
			<path fill="none" stroke="url(#SVGID_8_)" stroke-width="2" stroke-miterlimit="10" d="M48.8462906,48.8718987
				c0,0-1.1390991,0.5865021-1.7780991,0.9155006c-4.4193001,2.2756004-9.8460999,0.5377998-12.1217003-3.8815002
				c-2.2754898-4.4192009-0.5377007-9.8460999,3.8815079-12.1215973c3.1412926-1.6174011,6.7930908-1.206501,9.4587936,0.7534981"/>
		</g>
	</g>
</g>
<g display="none">
	<g display="inline">
		<linearGradient id="SVGID_9_" gradientUnits="userSpaceOnUse" x1="-141" y1="13.7236071" x2="-124.1055756" y2="13.7236071">
			<stop  offset="0" style="stop-color:#F59900"/>
			<stop  offset="1" style="stop-color:#CA8608"/>
		</linearGradient>
		<polyline fill="none" stroke="url(#SVGID_9_)" stroke-width="2" stroke-miterlimit="10" points="-141,7 -132,7 -125,21 		"/>
		<linearGradient id="SVGID_10_" gradientUnits="userSpaceOnUse" x1="-181.8944244" y1="13.7236071" x2="-165" y2="13.7236071">
			<stop  offset="0" style="stop-color:#F59900"/>
			<stop  offset="1" style="stop-color:#CA8608"/>
		</linearGradient>
		<polyline fill="none" stroke="url(#SVGID_10_)" stroke-width="2" stroke-miterlimit="10" points="-181,21 -174,7 -165,7 		"/>
		<linearGradient id="SVGID_11_" gradientUnits="userSpaceOnUse" x1="-169" y1="8" x2="-137" y2="8">
			<stop  offset="0" style="stop-color:#F59900"/>
			<stop  offset="1" style="stop-color:#CA8608"/>
		</linearGradient>
		<path fill="none" stroke="url(#SVGID_11_)" stroke-width="2" stroke-miterlimit="10" d="M-168,16c0-8.2842007,6.7157898-15,15-15
			c8.2841949,0,15,6.7157998,15,15"/>
		<linearGradient id="SVGID_12_" gradientUnits="userSpaceOnUse" x1="-185" y1="21" x2="-121" y2="21">
			<stop  offset="0" style="stop-color:#F59900"/>
			<stop  offset="1" style="stop-color:#CA8608"/>
		</linearGradient>
		
			<line fill="none" stroke="url(#SVGID_12_)" stroke-width="2" stroke-linejoin="round" stroke-miterlimit="10" x1="-121" y1="21" x2="-185" y2="21"/>
		<g>
			<linearGradient id="SVGID_13_" gradientUnits="userSpaceOnUse" x1="-178" y1="41.5" x2="-176" y2="41.5">
				<stop  offset="0" style="stop-color:#F59900"/>
				<stop  offset="1" style="stop-color:#CA8608"/>
			</linearGradient>
			<line fill="none" stroke="url(#SVGID_13_)" stroke-width="2" stroke-miterlimit="10" x1="-177" y1="51" x2="-177" y2="32"/>
			<linearGradient id="SVGID_14_" gradientUnits="userSpaceOnUse" x1="-172" y1="41.5" x2="-170" y2="41.5">
				<stop  offset="0" style="stop-color:#F59900"/>
				<stop  offset="1" style="stop-color:#CA8608"/>
			</linearGradient>
			<line fill="none" stroke="url(#SVGID_14_)" stroke-width="2" stroke-miterlimit="10" x1="-171" y1="32" x2="-171" y2="51"/>
			<linearGradient id="SVGID_15_" gradientUnits="userSpaceOnUse" x1="-180" y1="27" x2="-168" y2="27">
				<stop  offset="0" style="stop-color:#F59900"/>
				<stop  offset="1" style="stop-color:#CA8608"/>
			</linearGradient>
			<rect x="-179" y="25" fill="none" stroke="url(#SVGID_15_)" stroke-width="2" stroke-miterlimit="10" width="10" height="4"/>
			<linearGradient id="SVGID_16_" gradientUnits="userSpaceOnUse" x1="-180" y1="53" x2="-168" y2="53">
				<stop  offset="0" style="stop-color:#F59900"/>
				<stop  offset="1" style="stop-color:#CA8608"/>
			</linearGradient>
			<rect x="-179" y="51" fill="none" stroke="url(#SVGID_16_)" stroke-width="2" stroke-miterlimit="10" width="10" height="4"/>
		</g>
		<g>
			<linearGradient id="SVGID_17_" gradientUnits="userSpaceOnUse" x1="-164" y1="41.5" x2="-162" y2="41.5">
				<stop  offset="0" style="stop-color:#F59900"/>
				<stop  offset="1" style="stop-color:#CA8608"/>
			</linearGradient>
			<line fill="none" stroke="url(#SVGID_17_)" stroke-width="2" stroke-miterlimit="10" x1="-163" y1="51" x2="-163" y2="32"/>
			<linearGradient id="SVGID_18_" gradientUnits="userSpaceOnUse" x1="-158" y1="41.5" x2="-156" y2="41.5">
				<stop  offset="0" style="stop-color:#F59900"/>
				<stop  offset="1" style="stop-color:#CA8608"/>
			</linearGradient>
			<line fill="none" stroke="url(#SVGID_18_)" stroke-width="2" stroke-miterlimit="10" x1="-157" y1="32" x2="-157" y2="51"/>
			<linearGradient id="SVGID_19_" gradientUnits="userSpaceOnUse" x1="-166" y1="27" x2="-154" y2="27">
				<stop  offset="0" style="stop-color:#F59900"/>
				<stop  offset="1" style="stop-color:#CA8608"/>
			</linearGradient>
			<rect x="-165" y="25" fill="none" stroke="url(#SVGID_19_)" stroke-width="2" stroke-miterlimit="10" width="10" height="4"/>
			<linearGradient id="SVGID_20_" gradientUnits="userSpaceOnUse" x1="-166" y1="53" x2="-154" y2="53">
				<stop  offset="0" style="stop-color:#F59900"/>
				<stop  offset="1" style="stop-color:#CA8608"/>
			</linearGradient>
			<rect x="-165" y="51" fill="none" stroke="url(#SVGID_20_)" stroke-width="2" stroke-miterlimit="10" width="10" height="4"/>
		</g>
		<g>
			<linearGradient id="SVGID_21_" gradientUnits="userSpaceOnUse" x1="-150" y1="41.5" x2="-148" y2="41.5">
				<stop  offset="0" style="stop-color:#F59900"/>
				<stop  offset="1" style="stop-color:#CA8608"/>
			</linearGradient>
			<line fill="none" stroke="url(#SVGID_21_)" stroke-width="2" stroke-miterlimit="10" x1="-149" y1="51" x2="-149" y2="32"/>
			<linearGradient id="SVGID_22_" gradientUnits="userSpaceOnUse" x1="-144" y1="41.5" x2="-142" y2="41.5">
				<stop  offset="0" style="stop-color:#F59900"/>
				<stop  offset="1" style="stop-color:#CA8608"/>
			</linearGradient>
			<line fill="none" stroke="url(#SVGID_22_)" stroke-width="2" stroke-miterlimit="10" x1="-143" y1="32" x2="-143" y2="51"/>
			<linearGradient id="SVGID_23_" gradientUnits="userSpaceOnUse" x1="-152" y1="27" x2="-140" y2="27">
				<stop  offset="0" style="stop-color:#F59900"/>
				<stop  offset="1" style="stop-color:#CA8608"/>
			</linearGradient>
			<rect x="-151" y="25" fill="none" stroke="url(#SVGID_23_)" stroke-width="2" stroke-miterlimit="10" width="10" height="4"/>
			<linearGradient id="SVGID_24_" gradientUnits="userSpaceOnUse" x1="-152" y1="53" x2="-140" y2="53">
				<stop  offset="0" style="stop-color:#F59900"/>
				<stop  offset="1" style="stop-color:#CA8608"/>
			</linearGradient>
			<rect x="-151" y="51" fill="none" stroke="url(#SVGID_24_)" stroke-width="2" stroke-miterlimit="10" width="10" height="4"/>
		</g>
		<g>
			<linearGradient id="SVGID_25_" gradientUnits="userSpaceOnUse" x1="-136" y1="41.5" x2="-134" y2="41.5">
				<stop  offset="0" style="stop-color:#F59900"/>
				<stop  offset="1" style="stop-color:#CA8608"/>
			</linearGradient>
			<line fill="none" stroke="url(#SVGID_25_)" stroke-width="2" stroke-miterlimit="10" x1="-135" y1="51" x2="-135" y2="32"/>
			<linearGradient id="SVGID_26_" gradientUnits="userSpaceOnUse" x1="-130" y1="41.5" x2="-128" y2="41.5">
				<stop  offset="0" style="stop-color:#F59900"/>
				<stop  offset="1" style="stop-color:#CA8608"/>
			</linearGradient>
			<line fill="none" stroke="url(#SVGID_26_)" stroke-width="2" stroke-miterlimit="10" x1="-129" y1="32" x2="-129" y2="51"/>
			<linearGradient id="SVGID_27_" gradientUnits="userSpaceOnUse" x1="-138" y1="27" x2="-126" y2="27">
				<stop  offset="0" style="stop-color:#F59900"/>
				<stop  offset="1" style="stop-color:#CA8608"/>
			</linearGradient>
			<rect x="-137" y="25" fill="none" stroke="url(#SVGID_27_)" stroke-width="2" stroke-miterlimit="10" width="10" height="4"/>
			<linearGradient id="SVGID_28_" gradientUnits="userSpaceOnUse" x1="-138" y1="53" x2="-126" y2="53">
				<stop  offset="0" style="stop-color:#F59900"/>
				<stop  offset="1" style="stop-color:#CA8608"/>
			</linearGradient>
			<rect x="-137" y="51" fill="none" stroke="url(#SVGID_28_)" stroke-width="2" stroke-miterlimit="10" width="10" height="4"/>
		</g>
		<linearGradient id="SVGID_29_" gradientUnits="userSpaceOnUse" x1="-185" y1="25" x2="-121" y2="25">
			<stop  offset="0" style="stop-color:#F59900"/>
			<stop  offset="1" style="stop-color:#CA8608"/>
		</linearGradient>
		<line fill="none" stroke="url(#SVGID_29_)" stroke-width="2" stroke-miterlimit="10" x1="-121" y1="25" x2="-185" y2="25"/>
		<linearGradient id="SVGID_30_" gradientUnits="userSpaceOnUse" x1="-182" y1="55" x2="-124" y2="55">
			<stop  offset="0" style="stop-color:#F59900"/>
			<stop  offset="1" style="stop-color:#CA8608"/>
		</linearGradient>
		<line fill="none" stroke="url(#SVGID_30_)" stroke-width="2" stroke-miterlimit="10" x1="-182" y1="55" x2="-124" y2="55"/>
		<linearGradient id="SVGID_31_" gradientUnits="userSpaceOnUse" x1="-158" y1="11" x2="-148" y2="11">
			<stop  offset="0" style="stop-color:#F59900"/>
			<stop  offset="1" style="stop-color:#CA8608"/>
		</linearGradient>
		<circle fill="none" stroke="url(#SVGID_31_)" stroke-width="2" stroke-miterlimit="10" cx="-153" cy="11" r="4"/>
		<linearGradient id="SVGID_32_" gradientUnits="userSpaceOnUse" x1="-146" y1="11" x2="-144" y2="11">
			<stop  offset="0" style="stop-color:#F59900"/>
			<stop  offset="1" style="stop-color:#CA8608"/>
		</linearGradient>
		<line fill="none" stroke="url(#SVGID_32_)" stroke-width="2" stroke-miterlimit="10" x1="-146" y1="11" x2="-144" y2="11"/>
		<linearGradient id="SVGID_33_" gradientUnits="userSpaceOnUse" x1="-162" y1="11" x2="-160" y2="11">
			<stop  offset="0" style="stop-color:#F59900"/>
			<stop  offset="1" style="stop-color:#CA8608"/>
		</linearGradient>
		<line fill="none" stroke="url(#SVGID_33_)" stroke-width="2" stroke-miterlimit="10" x1="-160" y1="11" x2="-162" y2="11"/>
		<linearGradient id="SVGID_34_" gradientUnits="userSpaceOnUse" x1="-185" y1="61" x2="-121" y2="61">
			<stop  offset="0" style="stop-color:#F59900"/>
			<stop  offset="1" style="stop-color:#CA8608"/>
		</linearGradient>
		<rect x="-184" y="59" fill="none" stroke="url(#SVGID_34_)" stroke-width="2" stroke-miterlimit="10" width="62" height="4"/>
	</g>
</g>
<g display="none">
	<g display="inline">
		<g>
			<g>
				<linearGradient id="SVGID_35_" gradientUnits="userSpaceOnUse" x1="-55.6139412" y1="32.6053238" x2="-45" y2="32.6053238">
					<stop  offset="0" style="stop-color:#F59900"/>
					<stop  offset="1" style="stop-color:#CA8608"/>
				</linearGradient>
				<path fill="none" stroke="url(#SVGID_35_)" stroke-width="2" stroke-linejoin="round" stroke-miterlimit="10" d="M-55,12.5
					c0,0,9,7,9,13s0,9,0,9l-2,11v8"/>
				<linearGradient id="SVGID_36_" gradientUnits="userSpaceOnUse" x1="-79" y1="17.5" x2="-54" y2="17.5">
					<stop  offset="0" style="stop-color:#F59900"/>
					<stop  offset="1" style="stop-color:#CA8608"/>
				</linearGradient>
				<path fill="none" stroke="url(#SVGID_36_)" stroke-width="2" stroke-linejoin="round" stroke-miterlimit="10" d="M-60,34.5h-17
					c-0.5527039,0-1-0.4473-1-1v-32c0-0.5527,0.4472961-1,1-1h21c0.5526924,0,1,0.4473,1,1v25"/>
				<linearGradient id="SVGID_37_" gradientUnits="userSpaceOnUse" x1="-70" y1="45.5" x2="-64" y2="45.5">
					<stop  offset="0" style="stop-color:#F59900"/>
					<stop  offset="1" style="stop-color:#CA8608"/>
				</linearGradient>
				<path fill="none" stroke="url(#SVGID_37_)" stroke-width="2" stroke-linejoin="round" stroke-miterlimit="10" d="M-69,37.5
					c0,5,4,10,4,10v6"/>
				
					<linearGradient id="SVGID_38_" gradientUnits="userSpaceOnUse" x1="-68.8888855" y1="31.0555553" x2="-52.2928925" y2="31.0555553">
					<stop  offset="0" style="stop-color:#F59900"/>
					<stop  offset="1" style="stop-color:#CA8608"/>
				</linearGradient>
				<path fill="none" stroke="url(#SVGID_38_)" stroke-width="2" stroke-linejoin="round" stroke-miterlimit="10" d="M-53,28.5l-9-9
					c0,0-3-2-5,0s0,5,0,5l7,7c0,3.3134995,2.6864929,12,6,12"/>
				<linearGradient id="SVGID_39_" gradientUnits="userSpaceOnUse" x1="-73" y1="17.5" x2="-71" y2="17.5">
					<stop  offset="0" style="stop-color:#F59900"/>
					<stop  offset="1" style="stop-color:#CA8608"/>
				</linearGradient>
				
					<line fill="none" stroke="url(#SVGID_39_)" stroke-width="2" stroke-linejoin="round" stroke-miterlimit="10" x1="-72" y1="0.5" x2="-72" y2="34.5"/>
				<linearGradient id="SVGID_40_" gradientUnits="userSpaceOnUse" x1="-69" y1="9.5" x2="-67" y2="9.5">
					<stop  offset="0" style="stop-color:#F59900"/>
					<stop  offset="1" style="stop-color:#CA8608"/>
				</linearGradient>
				
					<line fill="none" stroke="url(#SVGID_40_)" stroke-width="2" stroke-linejoin="round" stroke-miterlimit="10" x1="-68" y1="3.5" x2="-68" y2="15.5"/>
				<linearGradient id="SVGID_41_" gradientUnits="userSpaceOnUse" x1="-68" y1="57.5" x2="-45" y2="57.5">
					<stop  offset="0" style="stop-color:#F59900"/>
					<stop  offset="1" style="stop-color:#CA8608"/>
				</linearGradient>
				<polyline fill="none" stroke="url(#SVGID_41_)" stroke-width="2" stroke-linejoin="round" stroke-miterlimit="10" points="
					-67,63.5 -67,52.5 -46,52.5 -46,63.5 				"/>
				<linearGradient id="SVGID_42_" gradientUnits="userSpaceOnUse" x1="-64" y1="56.5" x2="-62" y2="56.5">
					<stop  offset="0" style="stop-color:#F59900"/>
					<stop  offset="1" style="stop-color:#CA8608"/>
				</linearGradient>
				
					<line fill="none" stroke="url(#SVGID_42_)" stroke-width="2" stroke-linejoin="round" stroke-miterlimit="10" x1="-64" y1="56.5" x2="-62" y2="56.5"/>
				<linearGradient id="SVGID_43_" gradientUnits="userSpaceOnUse" x1="-64" y1="60.5" x2="-62" y2="60.5">
					<stop  offset="0" style="stop-color:#F59900"/>
					<stop  offset="1" style="stop-color:#CA8608"/>
				</linearGradient>
				
					<line fill="none" stroke="url(#SVGID_43_)" stroke-width="2" stroke-linejoin="round" stroke-miterlimit="10" x1="-64" y1="60.5" x2="-62" y2="60.5"/>
				<linearGradient id="SVGID_44_" gradientUnits="userSpaceOnUse" x1="-65" y1="5.5" x2="-63" y2="5.5">
					<stop  offset="0" style="stop-color:#F59900"/>
					<stop  offset="1" style="stop-color:#CA8608"/>
				</linearGradient>
				
					<line fill="none" stroke="url(#SVGID_44_)" stroke-width="2" stroke-linejoin="round" stroke-miterlimit="10" x1="-64" y1="3.5" x2="-64" y2="7.5"/>
				<linearGradient id="SVGID_45_" gradientUnits="userSpaceOnUse" x1="-65" y1="10.5" x2="-63" y2="10.5">
					<stop  offset="0" style="stop-color:#F59900"/>
					<stop  offset="1" style="stop-color:#CA8608"/>
				</linearGradient>
				
					<line fill="none" stroke="url(#SVGID_45_)" stroke-width="2" stroke-linejoin="round" stroke-miterlimit="10" x1="-64" y1="9.5" x2="-64" y2="11.5"/>
			</g>
			<linearGradient id="SVGID_46_" gradientUnits="userSpaceOnUse" x1="-89" y1="31.5" x2="-70" y2="31.5">
				<stop  offset="0" style="stop-color:#F59900"/>
				<stop  offset="1" style="stop-color:#CA8608"/>
			</linearGradient>
			<path fill="none" stroke="url(#SVGID_46_)" stroke-width="2" stroke-linejoin="round" stroke-miterlimit="10" d="M-70,58.5h-15
				c-1.6562042,0-3-1.3437004-3-3v-48c0-1.6561999,1.3437958-3,3-3h4"/>
			<linearGradient id="SVGID_47_" gradientUnits="userSpaceOnUse" x1="-52" y1="31.5" x2="-33" y2="31.5">
				<stop  offset="0" style="stop-color:#F59900"/>
				<stop  offset="1" style="stop-color:#CA8608"/>
			</linearGradient>
			<path fill="none" stroke="url(#SVGID_47_)" stroke-width="2" stroke-linejoin="round" stroke-miterlimit="10" d="M-52,4.5h15
				c1.656292,0,3,1.3438001,3,3v48c0,1.6562996-1.343708,3-3,3h-6"/>
			<linearGradient id="SVGID_48_" gradientUnits="userSpaceOnUse" x1="-52" y1="8.5" x2="-34" y2="8.5">
				<stop  offset="0" style="stop-color:#F59900"/>
				<stop  offset="1" style="stop-color:#CA8608"/>
			</linearGradient>
			
				<line fill="none" stroke="url(#SVGID_48_)" stroke-width="2" stroke-linejoin="round" stroke-miterlimit="10" x1="-34" y1="8.5" x2="-52" y2="8.5"/>
			<linearGradient id="SVGID_49_" gradientUnits="userSpaceOnUse" x1="-88" y1="54.5" x2="-70" y2="54.5">
				<stop  offset="0" style="stop-color:#F59900"/>
				<stop  offset="1" style="stop-color:#CA8608"/>
			</linearGradient>
			
				<line fill="none" stroke="url(#SVGID_49_)" stroke-width="2" stroke-linejoin="round" stroke-miterlimit="10" x1="-88" y1="54.5" x2="-70" y2="54.5"/>
		</g>
	</g>
</g>
<g display="none">
	<linearGradient id="SVGID_50_" gradientUnits="userSpaceOnUse" x1="143" y1="12" x2="151" y2="12">
		<stop  offset="0" style="stop-color:#F59900"/>
		<stop  offset="1" style="stop-color:#CA8608"/>
	</linearGradient>
	<polyline display="inline" fill="none" stroke="url(#SVGID_50_)" stroke-width="2" stroke-miterlimit="10" points="150,16 150,9 
		143,9 	"/>
	
		<linearGradient id="SVGID_51_" gradientUnits="userSpaceOnUse" x1="119.5319824" y1="17.6195507" x2="150.7071075" y2="17.6195507">
		<stop  offset="0" style="stop-color:#F59900"/>
		<stop  offset="1" style="stop-color:#CA8608"/>
	</linearGradient>
	<polyline display="inline" fill="none" stroke="url(#SVGID_51_)" stroke-width="2" stroke-miterlimit="10" points="150,9 
		133.5651855,25.4347992 127.3042908,19.1739006 120.23909,26.2390995 	"/>
	<linearGradient id="SVGID_52_" gradientUnits="userSpaceOnUse" x1="91" y1="52" x2="155" y2="52">
		<stop  offset="0" style="stop-color:#F59900"/>
		<stop  offset="1" style="stop-color:#CA8608"/>
	</linearGradient>
	<polygon display="inline" fill="none" stroke="url(#SVGID_52_)" stroke-width="2" stroke-miterlimit="10" points="150,55 96,55 
		92,51 92,49 116,49 118,51 128,51 130,49 154,49 154,51 	"/>
	<linearGradient id="SVGID_53_" gradientUnits="userSpaceOnUse" x1="95" y1="27" x2="139" y2="27">
		<stop  offset="0" style="stop-color:#F59900"/>
		<stop  offset="1" style="stop-color:#CA8608"/>
	</linearGradient>
	<path display="inline" fill="none" stroke="url(#SVGID_53_)" stroke-width="2" stroke-miterlimit="10" d="M139,9H99
		c-1.6562119,0-3,1.3428001-3,3v34"/>
	<linearGradient id="SVGID_54_" gradientUnits="userSpaceOnUse" x1="149" y1="33" x2="151" y2="33">
		<stop  offset="0" style="stop-color:#F59900"/>
		<stop  offset="1" style="stop-color:#CA8608"/>
	</linearGradient>
	
		<line display="inline" fill="none" stroke="url(#SVGID_54_)" stroke-width="2" stroke-miterlimit="10" x1="150" y1="46" x2="150" y2="20"/>
	<linearGradient id="SVGID_55_" gradientUnits="userSpaceOnUse" x1="99" y1="28" x2="147" y2="28">
		<stop  offset="0" style="stop-color:#F59900"/>
		<stop  offset="1" style="stop-color:#CA8608"/>
	</linearGradient>
	<polyline display="inline" fill="none" stroke="url(#SVGID_55_)" stroke-width="2" stroke-miterlimit="10" points="139,13 100,13 
		100,43 146,43 146,20 	"/>
	<linearGradient id="SVGID_56_" gradientUnits="userSpaceOnUse" x1="110" y1="39" x2="112" y2="39">
		<stop  offset="0" style="stop-color:#F59900"/>
		<stop  offset="1" style="stop-color:#CA8608"/>
	</linearGradient>
	
		<line display="inline" fill="none" stroke="url(#SVGID_56_)" stroke-width="2" stroke-miterlimit="10" x1="111" y1="40" x2="111" y2="38"/>
	<linearGradient id="SVGID_57_" gradientUnits="userSpaceOnUse" x1="122" y1="34" x2="124" y2="34">
		<stop  offset="0" style="stop-color:#F59900"/>
		<stop  offset="1" style="stop-color:#CA8608"/>
	</linearGradient>
	
		<line display="inline" fill="none" stroke="url(#SVGID_57_)" stroke-width="2" stroke-miterlimit="10" x1="123" y1="40" x2="123" y2="28"/>
	<linearGradient id="SVGID_58_" gradientUnits="userSpaceOnUse" x1="126" y1="32" x2="128" y2="32">
		<stop  offset="0" style="stop-color:#F59900"/>
		<stop  offset="1" style="stop-color:#CA8608"/>
	</linearGradient>
	
		<line display="inline" fill="none" stroke="url(#SVGID_58_)" stroke-width="2" stroke-miterlimit="10" x1="127" y1="40" x2="127" y2="24"/>
	<linearGradient id="SVGID_59_" gradientUnits="userSpaceOnUse" x1="130" y1="34.5" x2="132" y2="34.5">
		<stop  offset="0" style="stop-color:#F59900"/>
		<stop  offset="1" style="stop-color:#CA8608"/>
	</linearGradient>
	
		<line display="inline" fill="none" stroke="url(#SVGID_59_)" stroke-width="2" stroke-miterlimit="10" x1="131" y1="40" x2="131" y2="29"/>
	<linearGradient id="SVGID_60_" gradientUnits="userSpaceOnUse" x1="134" y1="35" x2="136" y2="35">
		<stop  offset="0" style="stop-color:#F59900"/>
		<stop  offset="1" style="stop-color:#CA8608"/>
	</linearGradient>
	
		<line display="inline" fill="none" stroke="url(#SVGID_60_)" stroke-width="2" stroke-miterlimit="10" x1="135" y1="40" x2="135" y2="30"/>
	<linearGradient id="SVGID_61_" gradientUnits="userSpaceOnUse" x1="138" y1="32.5" x2="140" y2="32.5">
		<stop  offset="0" style="stop-color:#F59900"/>
		<stop  offset="1" style="stop-color:#CA8608"/>
	</linearGradient>
	
		<line display="inline" fill="none" stroke="url(#SVGID_61_)" stroke-width="2" stroke-miterlimit="10" x1="139" y1="40" x2="139" y2="25"/>
	<g display="inline">
		<linearGradient id="SVGID_62_" gradientUnits="userSpaceOnUse" x1="108.5" y1="29.2000008" x2="117.5" y2="29.2000008">
			<stop  offset="0" style="stop-color:#F59900"/>
			<stop  offset="1" style="stop-color:#CA8608"/>
		</linearGradient>
		<path fill="none" stroke="url(#SVGID_62_)" stroke-width="2" stroke-miterlimit="10" d="M116.5,28.8500004
			c0,2.4499989-1.3740005,4.5500011-3.5,4.5500011s-3.5-2.1000023-3.5-4.5500011S110.1999969,25,113,25
			S116.5,26.3999996,116.5,28.8500004z"/>
		<linearGradient id="SVGID_63_" gradientUnits="userSpaceOnUse" x1="105" y1="35.9158783" x2="121" y2="35.9158783">
			<stop  offset="0" style="stop-color:#F59900"/>
			<stop  offset="1" style="stop-color:#CA8608"/>
		</linearGradient>
		<path fill="none" stroke="url(#SVGID_63_)" stroke-width="2" stroke-miterlimit="10" d="M115.0999985,32.7000008L120,35.5
			c0,0,0,0.2406998,0,1.4000015C120,38.0600014,119.3000031,39,118.5999985,39h-11.1999969
			C106.6999969,39,106,38.0600014,106,36.9000015C106,35.7406998,106,35.5,106,35.5l4.9000015-2.7999992"/>
	</g>
</g>
</svg>
