<?xml version="1.0" encoding="utf-8"?>
<!-- Generator: Adobe Illustrator 21.1.0, SVG Export Plug-In . SVG Version: 6.00 Build 0)  -->
<svg version="1.1" id="Слой_1" xmlns="http://www.w3.org/2000/svg" xmlns:xlink="http://www.w3.org/1999/xlink" x="0px" y="0px"
	 viewBox="0 0 64 48" enable-background="new 0 0 64 48" xml:space="preserve">
<g display="none">
	<g display="inline">
		<g>
			<linearGradient id="SVGID_1_" gradientUnits="userSpaceOnUse" x1="-91" y1="14" x2="-47" y2="14">
				<stop  offset="0" style="stop-color:#F59900"/>
				<stop  offset="1" style="stop-color:#CA8608"/>
			</linearGradient>
			<path fill="none" stroke="url(#SVGID_1_)" stroke-width="2" stroke-miterlimit="10" d="M-69,35c-11.5977097,0-21-9.4022999-21-21
				s9.4022903-21,21-21c11.5976906,0,21,9.4022999,21,21"/>
			<g>
				<linearGradient id="SVGID_2_" gradientUnits="userSpaceOnUse" x1="-71" y1="34" x2="-27" y2="34">
					<stop  offset="0" style="stop-color:#F59900"/>
					<stop  offset="1" style="stop-color:#CA8608"/>
				</linearGradient>
				<circle fill="none" stroke="url(#SVGID_2_)" stroke-width="2" stroke-miterlimit="10" cx="-49" cy="34" r="21"/>
				<linearGradient id="SVGID_3_" gradientUnits="userSpaceOnUse" x1="-67" y1="34" x2="-31" y2="34">
					<stop  offset="0" style="stop-color:#F59900"/>
					<stop  offset="1" style="stop-color:#CA8608"/>
				</linearGradient>
				<circle fill="none" stroke="url(#SVGID_3_)" stroke-width="2" stroke-miterlimit="10" cx="-49" cy="34" r="17"/>
			</g>
			<g>
				<linearGradient id="SVGID_4_" gradientUnits="userSpaceOnUse" x1="-47" y1="5" x2="-33" y2="5">
					<stop  offset="0" style="stop-color:#F59900"/>
					<stop  offset="1" style="stop-color:#CA8608"/>
				</linearGradient>
				<path fill="none" stroke="url(#SVGID_4_)" stroke-width="2" stroke-miterlimit="10" d="M-47-1h9c2.2089996,0,4,1.791,4,4v9"/>
			</g>
			<g>
				<linearGradient id="SVGID_5_" gradientUnits="userSpaceOnUse" x1="-85" y1="43" x2="-71" y2="43">
					<stop  offset="0" style="stop-color:#F59900"/>
					<stop  offset="1" style="stop-color:#CA8608"/>
				</linearGradient>
				<path fill="none" stroke="url(#SVGID_5_)" stroke-width="2" stroke-miterlimit="10" d="M-71,49h-9c-2.2089996,0-4-1.7910004-4-4
					v-9"/>
			</g>
			<linearGradient id="SVGID_6_" gradientUnits="userSpaceOnUse" x1="-87" y1="14" x2="-51" y2="14">
				<stop  offset="0" style="stop-color:#F59900"/>
				<stop  offset="1" style="stop-color:#CA8608"/>
			</linearGradient>
			<path fill="none" stroke="url(#SVGID_6_)" stroke-width="2" stroke-miterlimit="10" d="M-69,31c-9.38871,0-17-7.6112995-17-17
				s7.61129-17,17-17c9.3886909,0,17,7.6113,17,17"/>
			<linearGradient id="SVGID_7_" gradientUnits="userSpaceOnUse" x1="-79" y1="14" x2="-60.0400238" y2="14">
				<stop  offset="0" style="stop-color:#F59900"/>
				<stop  offset="1" style="stop-color:#CA8608"/>
			</linearGradient>
			<path fill="none" stroke="url(#SVGID_7_)" stroke-width="2" stroke-miterlimit="10" d="M-67,23c0,0-1.2812042,0-2,0
				c-4.9707108,0-9-4.0293007-9-9s4.0292892-9,9-9c3.5331955,0,6.5917931,2.0370998,8.0644913,5"/>
			
				<linearGradient id="SVGID_8_" gradientUnits="userSpaceOnUse" x1="-58.0538559" y1="33.7860336" x2="-41.6959419" y2="33.7860336">
				<stop  offset="0" style="stop-color:#F59900"/>
				<stop  offset="1" style="stop-color:#CA8608"/>
			</linearGradient>
			<path fill="none" stroke="url(#SVGID_8_)" stroke-width="2" stroke-miterlimit="10" d="M-42.1537094,40.8718987
				c0,0-1.1390991,0.5865021-1.7780991,0.9155006c-4.4193001,2.2756004-9.8460999,0.5377998-12.1217003-3.8815002
				c-2.2754898-4.4192009-0.5377007-9.8460999,3.8815079-12.1215992c3.1412926-1.6173992,6.7930908-1.2064991,9.4587936,0.7535"/>
		</g>
	</g>
</g>
<g display="none">
	<g display="inline">
		<linearGradient id="SVGID_9_" gradientUnits="userSpaceOnUse" x1="-232" y1="5.7236066" x2="-215.1055756" y2="5.7236066">
			<stop  offset="0" style="stop-color:#F59900"/>
			<stop  offset="1" style="stop-color:#CA8608"/>
		</linearGradient>
		<polyline fill="none" stroke="url(#SVGID_9_)" stroke-width="2" stroke-miterlimit="10" points="-232,-1 -223,-1 -216,13 		"/>
		<linearGradient id="SVGID_10_" gradientUnits="userSpaceOnUse" x1="-272.8944397" y1="5.7236066" x2="-256" y2="5.7236066">
			<stop  offset="0" style="stop-color:#F59900"/>
			<stop  offset="1" style="stop-color:#CA8608"/>
		</linearGradient>
		<polyline fill="none" stroke="url(#SVGID_10_)" stroke-width="2" stroke-miterlimit="10" points="-272,13 -265,-1 -256,-1 		"/>
		<linearGradient id="SVGID_11_" gradientUnits="userSpaceOnUse" x1="-260" y1="0" x2="-228" y2="0">
			<stop  offset="0" style="stop-color:#F59900"/>
			<stop  offset="1" style="stop-color:#CA8608"/>
		</linearGradient>
		<path fill="none" stroke="url(#SVGID_11_)" stroke-width="2" stroke-miterlimit="10" d="M-259,8c0-8.2841997,6.7157898-15,15-15
			c8.2841949,0,15,6.7157998,15,15"/>
		<linearGradient id="SVGID_12_" gradientUnits="userSpaceOnUse" x1="-276" y1="13" x2="-212" y2="13">
			<stop  offset="0" style="stop-color:#F59900"/>
			<stop  offset="1" style="stop-color:#CA8608"/>
		</linearGradient>
		
			<line fill="none" stroke="url(#SVGID_12_)" stroke-width="2" stroke-linejoin="round" stroke-miterlimit="10" x1="-212" y1="13" x2="-276" y2="13"/>
		<g>
			<linearGradient id="SVGID_13_" gradientUnits="userSpaceOnUse" x1="-269" y1="33.5" x2="-267" y2="33.5">
				<stop  offset="0" style="stop-color:#F59900"/>
				<stop  offset="1" style="stop-color:#CA8608"/>
			</linearGradient>
			<line fill="none" stroke="url(#SVGID_13_)" stroke-width="2" stroke-miterlimit="10" x1="-268" y1="43" x2="-268" y2="24"/>
			<linearGradient id="SVGID_14_" gradientUnits="userSpaceOnUse" x1="-263" y1="33.5" x2="-261" y2="33.5">
				<stop  offset="0" style="stop-color:#F59900"/>
				<stop  offset="1" style="stop-color:#CA8608"/>
			</linearGradient>
			<line fill="none" stroke="url(#SVGID_14_)" stroke-width="2" stroke-miterlimit="10" x1="-262" y1="24" x2="-262" y2="43"/>
			<linearGradient id="SVGID_15_" gradientUnits="userSpaceOnUse" x1="-271" y1="19" x2="-259" y2="19">
				<stop  offset="0" style="stop-color:#F59900"/>
				<stop  offset="1" style="stop-color:#CA8608"/>
			</linearGradient>
			<rect x="-270" y="17" fill="none" stroke="url(#SVGID_15_)" stroke-width="2" stroke-miterlimit="10" width="10" height="4"/>
			<linearGradient id="SVGID_16_" gradientUnits="userSpaceOnUse" x1="-271" y1="45" x2="-259" y2="45">
				<stop  offset="0" style="stop-color:#F59900"/>
				<stop  offset="1" style="stop-color:#CA8608"/>
			</linearGradient>
			<rect x="-270" y="43" fill="none" stroke="url(#SVGID_16_)" stroke-width="2" stroke-miterlimit="10" width="10" height="4"/>
		</g>
		<g>
			<linearGradient id="SVGID_17_" gradientUnits="userSpaceOnUse" x1="-255" y1="33.5" x2="-253" y2="33.5">
				<stop  offset="0" style="stop-color:#F59900"/>
				<stop  offset="1" style="stop-color:#CA8608"/>
			</linearGradient>
			<line fill="none" stroke="url(#SVGID_17_)" stroke-width="2" stroke-miterlimit="10" x1="-254" y1="43" x2="-254" y2="24"/>
			<linearGradient id="SVGID_18_" gradientUnits="userSpaceOnUse" x1="-249" y1="33.5" x2="-247" y2="33.5">
				<stop  offset="0" style="stop-color:#F59900"/>
				<stop  offset="1" style="stop-color:#CA8608"/>
			</linearGradient>
			<line fill="none" stroke="url(#SVGID_18_)" stroke-width="2" stroke-miterlimit="10" x1="-248" y1="24" x2="-248" y2="43"/>
			<linearGradient id="SVGID_19_" gradientUnits="userSpaceOnUse" x1="-257" y1="19" x2="-245" y2="19">
				<stop  offset="0" style="stop-color:#F59900"/>
				<stop  offset="1" style="stop-color:#CA8608"/>
			</linearGradient>
			<rect x="-256" y="17" fill="none" stroke="url(#SVGID_19_)" stroke-width="2" stroke-miterlimit="10" width="10" height="4"/>
			<linearGradient id="SVGID_20_" gradientUnits="userSpaceOnUse" x1="-257" y1="45" x2="-245" y2="45">
				<stop  offset="0" style="stop-color:#F59900"/>
				<stop  offset="1" style="stop-color:#CA8608"/>
			</linearGradient>
			<rect x="-256" y="43" fill="none" stroke="url(#SVGID_20_)" stroke-width="2" stroke-miterlimit="10" width="10" height="4"/>
		</g>
		<g>
			<linearGradient id="SVGID_21_" gradientUnits="userSpaceOnUse" x1="-241" y1="33.5" x2="-239" y2="33.5">
				<stop  offset="0" style="stop-color:#F59900"/>
				<stop  offset="1" style="stop-color:#CA8608"/>
			</linearGradient>
			<line fill="none" stroke="url(#SVGID_21_)" stroke-width="2" stroke-miterlimit="10" x1="-240" y1="43" x2="-240" y2="24"/>
			<linearGradient id="SVGID_22_" gradientUnits="userSpaceOnUse" x1="-235" y1="33.5" x2="-233" y2="33.5">
				<stop  offset="0" style="stop-color:#F59900"/>
				<stop  offset="1" style="stop-color:#CA8608"/>
			</linearGradient>
			<line fill="none" stroke="url(#SVGID_22_)" stroke-width="2" stroke-miterlimit="10" x1="-234" y1="24" x2="-234" y2="43"/>
			<linearGradient id="SVGID_23_" gradientUnits="userSpaceOnUse" x1="-243" y1="19" x2="-231" y2="19">
				<stop  offset="0" style="stop-color:#F59900"/>
				<stop  offset="1" style="stop-color:#CA8608"/>
			</linearGradient>
			<rect x="-242" y="17" fill="none" stroke="url(#SVGID_23_)" stroke-width="2" stroke-miterlimit="10" width="10" height="4"/>
			<linearGradient id="SVGID_24_" gradientUnits="userSpaceOnUse" x1="-243" y1="45" x2="-231" y2="45">
				<stop  offset="0" style="stop-color:#F59900"/>
				<stop  offset="1" style="stop-color:#CA8608"/>
			</linearGradient>
			<rect x="-242" y="43" fill="none" stroke="url(#SVGID_24_)" stroke-width="2" stroke-miterlimit="10" width="10" height="4"/>
		</g>
		<g>
			<linearGradient id="SVGID_25_" gradientUnits="userSpaceOnUse" x1="-227" y1="33.5" x2="-225" y2="33.5">
				<stop  offset="0" style="stop-color:#F59900"/>
				<stop  offset="1" style="stop-color:#CA8608"/>
			</linearGradient>
			<line fill="none" stroke="url(#SVGID_25_)" stroke-width="2" stroke-miterlimit="10" x1="-226" y1="43" x2="-226" y2="24"/>
			<linearGradient id="SVGID_26_" gradientUnits="userSpaceOnUse" x1="-221" y1="33.5" x2="-219" y2="33.5">
				<stop  offset="0" style="stop-color:#F59900"/>
				<stop  offset="1" style="stop-color:#CA8608"/>
			</linearGradient>
			<line fill="none" stroke="url(#SVGID_26_)" stroke-width="2" stroke-miterlimit="10" x1="-220" y1="24" x2="-220" y2="43"/>
			<linearGradient id="SVGID_27_" gradientUnits="userSpaceOnUse" x1="-229" y1="19" x2="-217" y2="19">
				<stop  offset="0" style="stop-color:#F59900"/>
				<stop  offset="1" style="stop-color:#CA8608"/>
			</linearGradient>
			<rect x="-228" y="17" fill="none" stroke="url(#SVGID_27_)" stroke-width="2" stroke-miterlimit="10" width="10" height="4"/>
			<linearGradient id="SVGID_28_" gradientUnits="userSpaceOnUse" x1="-229" y1="45" x2="-217" y2="45">
				<stop  offset="0" style="stop-color:#F59900"/>
				<stop  offset="1" style="stop-color:#CA8608"/>
			</linearGradient>
			<rect x="-228" y="43" fill="none" stroke="url(#SVGID_28_)" stroke-width="2" stroke-miterlimit="10" width="10" height="4"/>
		</g>
		<linearGradient id="SVGID_29_" gradientUnits="userSpaceOnUse" x1="-276" y1="17" x2="-212" y2="17">
			<stop  offset="0" style="stop-color:#F59900"/>
			<stop  offset="1" style="stop-color:#CA8608"/>
		</linearGradient>
		<line fill="none" stroke="url(#SVGID_29_)" stroke-width="2" stroke-miterlimit="10" x1="-212" y1="17" x2="-276" y2="17"/>
		<linearGradient id="SVGID_30_" gradientUnits="userSpaceOnUse" x1="-273" y1="47" x2="-215" y2="47">
			<stop  offset="0" style="stop-color:#F59900"/>
			<stop  offset="1" style="stop-color:#CA8608"/>
		</linearGradient>
		<line fill="none" stroke="url(#SVGID_30_)" stroke-width="2" stroke-miterlimit="10" x1="-273" y1="47" x2="-215" y2="47"/>
		<linearGradient id="SVGID_31_" gradientUnits="userSpaceOnUse" x1="-249" y1="3" x2="-239" y2="3">
			<stop  offset="0" style="stop-color:#F59900"/>
			<stop  offset="1" style="stop-color:#CA8608"/>
		</linearGradient>
		<circle fill="none" stroke="url(#SVGID_31_)" stroke-width="2" stroke-miterlimit="10" cx="-244" cy="3" r="4"/>
		<linearGradient id="SVGID_32_" gradientUnits="userSpaceOnUse" x1="-237" y1="3" x2="-235" y2="3">
			<stop  offset="0" style="stop-color:#F59900"/>
			<stop  offset="1" style="stop-color:#CA8608"/>
		</linearGradient>
		<line fill="none" stroke="url(#SVGID_32_)" stroke-width="2" stroke-miterlimit="10" x1="-237" y1="3" x2="-235" y2="3"/>
		<linearGradient id="SVGID_33_" gradientUnits="userSpaceOnUse" x1="-253" y1="3" x2="-251" y2="3">
			<stop  offset="0" style="stop-color:#F59900"/>
			<stop  offset="1" style="stop-color:#CA8608"/>
		</linearGradient>
		<line fill="none" stroke="url(#SVGID_33_)" stroke-width="2" stroke-miterlimit="10" x1="-251" y1="3" x2="-253" y2="3"/>
		<linearGradient id="SVGID_34_" gradientUnits="userSpaceOnUse" x1="-276" y1="53" x2="-212" y2="53">
			<stop  offset="0" style="stop-color:#F59900"/>
			<stop  offset="1" style="stop-color:#CA8608"/>
		</linearGradient>
		<rect x="-275" y="51" fill="none" stroke="url(#SVGID_34_)" stroke-width="2" stroke-miterlimit="10" width="62" height="4"/>
	</g>
</g>
<g display="none">
	<g display="inline">
		<g>
			<g>
				<linearGradient id="SVGID_35_" gradientUnits="userSpaceOnUse" x1="-146.6139374" y1="24.6053238" x2="-136" y2="24.6053238">
					<stop  offset="0" style="stop-color:#F59900"/>
					<stop  offset="1" style="stop-color:#CA8608"/>
				</linearGradient>
				<path fill="none" stroke="url(#SVGID_35_)" stroke-width="2" stroke-linejoin="round" stroke-miterlimit="10" d="M-146,4.5
					c0,0,9,7,9,13s0,9,0,9l-2,11v8"/>
				<linearGradient id="SVGID_36_" gradientUnits="userSpaceOnUse" x1="-170" y1="9.5" x2="-145" y2="9.5">
					<stop  offset="0" style="stop-color:#F59900"/>
					<stop  offset="1" style="stop-color:#CA8608"/>
				</linearGradient>
				<path fill="none" stroke="url(#SVGID_36_)" stroke-width="2" stroke-linejoin="round" stroke-miterlimit="10" d="M-151,26.5h-17
					c-0.5527039,0-1-0.4473-1-1v-32c0-0.5527,0.4472961-1,1-1h21c0.5526886,0,1,0.4473,1,1v25"/>
				<linearGradient id="SVGID_37_" gradientUnits="userSpaceOnUse" x1="-161" y1="37.5" x2="-155" y2="37.5">
					<stop  offset="0" style="stop-color:#F59900"/>
					<stop  offset="1" style="stop-color:#CA8608"/>
				</linearGradient>
				<path fill="none" stroke="url(#SVGID_37_)" stroke-width="2" stroke-linejoin="round" stroke-miterlimit="10" d="M-160,29.5
					c0,5,4,10,4,10v6"/>
				
					<linearGradient id="SVGID_38_" gradientUnits="userSpaceOnUse" x1="-159.8888855" y1="23.0555553" x2="-143.2928925" y2="23.0555553">
					<stop  offset="0" style="stop-color:#F59900"/>
					<stop  offset="1" style="stop-color:#CA8608"/>
				</linearGradient>
				<path fill="none" stroke="url(#SVGID_38_)" stroke-width="2" stroke-linejoin="round" stroke-miterlimit="10" d="M-144,20.5
					l-9-9c0,0-3-2-5,0s0,5,0,5l7,7c0,3.3134995,2.6864929,12,6,12"/>
				<linearGradient id="SVGID_39_" gradientUnits="userSpaceOnUse" x1="-164" y1="9.5" x2="-162" y2="9.5">
					<stop  offset="0" style="stop-color:#F59900"/>
					<stop  offset="1" style="stop-color:#CA8608"/>
				</linearGradient>
				
					<line fill="none" stroke="url(#SVGID_39_)" stroke-width="2" stroke-linejoin="round" stroke-miterlimit="10" x1="-163" y1="-7.5" x2="-163" y2="26.5"/>
				<linearGradient id="SVGID_40_" gradientUnits="userSpaceOnUse" x1="-160" y1="1.5" x2="-158" y2="1.5">
					<stop  offset="0" style="stop-color:#F59900"/>
					<stop  offset="1" style="stop-color:#CA8608"/>
				</linearGradient>
				
					<line fill="none" stroke="url(#SVGID_40_)" stroke-width="2" stroke-linejoin="round" stroke-miterlimit="10" x1="-159" y1="-4.5" x2="-159" y2="7.5"/>
				<linearGradient id="SVGID_41_" gradientUnits="userSpaceOnUse" x1="-159" y1="49.5" x2="-136" y2="49.5">
					<stop  offset="0" style="stop-color:#F59900"/>
					<stop  offset="1" style="stop-color:#CA8608"/>
				</linearGradient>
				<polyline fill="none" stroke="url(#SVGID_41_)" stroke-width="2" stroke-linejoin="round" stroke-miterlimit="10" points="
					-158,55.5 -158,44.5 -137,44.5 -137,55.5 				"/>
				<linearGradient id="SVGID_42_" gradientUnits="userSpaceOnUse" x1="-155" y1="48.5" x2="-153" y2="48.5">
					<stop  offset="0" style="stop-color:#F59900"/>
					<stop  offset="1" style="stop-color:#CA8608"/>
				</linearGradient>
				
					<line fill="none" stroke="url(#SVGID_42_)" stroke-width="2" stroke-linejoin="round" stroke-miterlimit="10" x1="-155" y1="48.5" x2="-153" y2="48.5"/>
				<linearGradient id="SVGID_43_" gradientUnits="userSpaceOnUse" x1="-155" y1="52.5" x2="-153" y2="52.5">
					<stop  offset="0" style="stop-color:#F59900"/>
					<stop  offset="1" style="stop-color:#CA8608"/>
				</linearGradient>
				
					<line fill="none" stroke="url(#SVGID_43_)" stroke-width="2" stroke-linejoin="round" stroke-miterlimit="10" x1="-155" y1="52.5" x2="-153" y2="52.5"/>
				<linearGradient id="SVGID_44_" gradientUnits="userSpaceOnUse" x1="-156" y1="-2.5" x2="-154" y2="-2.5">
					<stop  offset="0" style="stop-color:#F59900"/>
					<stop  offset="1" style="stop-color:#CA8608"/>
				</linearGradient>
				
					<line fill="none" stroke="url(#SVGID_44_)" stroke-width="2" stroke-linejoin="round" stroke-miterlimit="10" x1="-155" y1="-4.5" x2="-155" y2="-0.5"/>
				<linearGradient id="SVGID_45_" gradientUnits="userSpaceOnUse" x1="-156" y1="2.5" x2="-154" y2="2.5">
					<stop  offset="0" style="stop-color:#F59900"/>
					<stop  offset="1" style="stop-color:#CA8608"/>
				</linearGradient>
				
					<line fill="none" stroke="url(#SVGID_45_)" stroke-width="2" stroke-linejoin="round" stroke-miterlimit="10" x1="-155" y1="1.5" x2="-155" y2="3.5"/>
			</g>
			<linearGradient id="SVGID_46_" gradientUnits="userSpaceOnUse" x1="-180" y1="23.5" x2="-161" y2="23.5">
				<stop  offset="0" style="stop-color:#F59900"/>
				<stop  offset="1" style="stop-color:#CA8608"/>
			</linearGradient>
			<path fill="none" stroke="url(#SVGID_46_)" stroke-width="2" stroke-linejoin="round" stroke-miterlimit="10" d="M-161,50.5h-15
				c-1.6562042,0-3-1.3437004-3-3v-48c0-1.6561999,1.3437958-3,3-3h4"/>
			<linearGradient id="SVGID_47_" gradientUnits="userSpaceOnUse" x1="-143" y1="23.5" x2="-124" y2="23.5">
				<stop  offset="0" style="stop-color:#F59900"/>
				<stop  offset="1" style="stop-color:#CA8608"/>
			</linearGradient>
			<path fill="none" stroke="url(#SVGID_47_)" stroke-width="2" stroke-linejoin="round" stroke-miterlimit="10" d="M-143-3.5h15
				c1.6562958,0,3,1.3438001,3,3v48c0,1.6562996-1.3437042,3-3,3h-6"/>
			<linearGradient id="SVGID_48_" gradientUnits="userSpaceOnUse" x1="-143" y1="0.5" x2="-125" y2="0.5">
				<stop  offset="0" style="stop-color:#F59900"/>
				<stop  offset="1" style="stop-color:#CA8608"/>
			</linearGradient>
			
				<line fill="none" stroke="url(#SVGID_48_)" stroke-width="2" stroke-linejoin="round" stroke-miterlimit="10" x1="-125" y1="0.5" x2="-143" y2="0.5"/>
			<linearGradient id="SVGID_49_" gradientUnits="userSpaceOnUse" x1="-179" y1="46.5" x2="-161" y2="46.5">
				<stop  offset="0" style="stop-color:#F59900"/>
				<stop  offset="1" style="stop-color:#CA8608"/>
			</linearGradient>
			
				<line fill="none" stroke="url(#SVGID_49_)" stroke-width="2" stroke-linejoin="round" stroke-miterlimit="10" x1="-179" y1="46.5" x2="-161" y2="46.5"/>
		</g>
	</g>
</g>
<g>
	<linearGradient id="SVGID_50_" gradientUnits="userSpaceOnUse" x1="52" y1="4" x2="60" y2="4">
		<stop  offset="0" style="stop-color:#F59900"/>
		<stop  offset="1" style="stop-color:#CA8608"/>
	</linearGradient>
	<polyline fill="none" stroke="url(#SVGID_50_)" stroke-width="2" stroke-miterlimit="10" points="59,8 59,1 52,1 	"/>
	<linearGradient id="SVGID_51_" gradientUnits="userSpaceOnUse" x1="28.5319824" y1="9.6195498" x2="59.7071075" y2="9.6195498">
		<stop  offset="0" style="stop-color:#F59900"/>
		<stop  offset="1" style="stop-color:#CA8608"/>
	</linearGradient>
	<polyline fill="none" stroke="url(#SVGID_51_)" stroke-width="2" stroke-miterlimit="10" points="59,1 42.5651894,17.4347992 
		36.3042908,11.1738997 29.23909,18.2390995 	"/>
	<linearGradient id="SVGID_52_" gradientUnits="userSpaceOnUse" x1="0" y1="44" x2="64" y2="44">
		<stop  offset="0" style="stop-color:#F59900"/>
		<stop  offset="1" style="stop-color:#CA8608"/>
	</linearGradient>
	<polygon fill="none" stroke="url(#SVGID_52_)" stroke-width="2" stroke-miterlimit="10" points="59,47 5,47 1,43 1,41 25,41 27,43 
		37,43 39,41 63,41 63,43 	"/>
	<linearGradient id="SVGID_53_" gradientUnits="userSpaceOnUse" x1="4" y1="19" x2="48" y2="19">
		<stop  offset="0" style="stop-color:#F59900"/>
		<stop  offset="1" style="stop-color:#CA8608"/>
	</linearGradient>
	<path fill="none" stroke="url(#SVGID_53_)" stroke-width="2" stroke-miterlimit="10" d="M48,1H8C6.3437905,1,5,2.3427999,5,4v34"/>
	<linearGradient id="SVGID_54_" gradientUnits="userSpaceOnUse" x1="58" y1="25" x2="60" y2="25">
		<stop  offset="0" style="stop-color:#F59900"/>
		<stop  offset="1" style="stop-color:#CA8608"/>
	</linearGradient>
	<line fill="none" stroke="url(#SVGID_54_)" stroke-width="2" stroke-miterlimit="10" x1="59" y1="38" x2="59" y2="12"/>
	<linearGradient id="SVGID_55_" gradientUnits="userSpaceOnUse" x1="8" y1="20" x2="56" y2="20">
		<stop  offset="0" style="stop-color:#F59900"/>
		<stop  offset="1" style="stop-color:#CA8608"/>
	</linearGradient>
	<polyline fill="none" stroke="url(#SVGID_55_)" stroke-width="2" stroke-miterlimit="10" points="48,5 9,5 9,35 55,35 55,12 	"/>
	<linearGradient id="SVGID_56_" gradientUnits="userSpaceOnUse" x1="19" y1="31" x2="21" y2="31">
		<stop  offset="0" style="stop-color:#F59900"/>
		<stop  offset="1" style="stop-color:#CA8608"/>
	</linearGradient>
	<line fill="none" stroke="url(#SVGID_56_)" stroke-width="2" stroke-miterlimit="10" x1="20" y1="32" x2="20" y2="30"/>
	<linearGradient id="SVGID_57_" gradientUnits="userSpaceOnUse" x1="31" y1="26" x2="33" y2="26">
		<stop  offset="0" style="stop-color:#F59900"/>
		<stop  offset="1" style="stop-color:#CA8608"/>
	</linearGradient>
	<line fill="none" stroke="url(#SVGID_57_)" stroke-width="2" stroke-miterlimit="10" x1="32" y1="32" x2="32" y2="20"/>
	<linearGradient id="SVGID_58_" gradientUnits="userSpaceOnUse" x1="35" y1="24" x2="37" y2="24">
		<stop  offset="0" style="stop-color:#F59900"/>
		<stop  offset="1" style="stop-color:#CA8608"/>
	</linearGradient>
	<line fill="none" stroke="url(#SVGID_58_)" stroke-width="2" stroke-miterlimit="10" x1="36" y1="32" x2="36" y2="16"/>
	<linearGradient id="SVGID_59_" gradientUnits="userSpaceOnUse" x1="39" y1="26.5" x2="41" y2="26.5">
		<stop  offset="0" style="stop-color:#F59900"/>
		<stop  offset="1" style="stop-color:#CA8608"/>
	</linearGradient>
	<line fill="none" stroke="url(#SVGID_59_)" stroke-width="2" stroke-miterlimit="10" x1="40" y1="32" x2="40" y2="21"/>
	<linearGradient id="SVGID_60_" gradientUnits="userSpaceOnUse" x1="43" y1="27" x2="45" y2="27">
		<stop  offset="0" style="stop-color:#F59900"/>
		<stop  offset="1" style="stop-color:#CA8608"/>
	</linearGradient>
	<line fill="none" stroke="url(#SVGID_60_)" stroke-width="2" stroke-miterlimit="10" x1="44" y1="32" x2="44" y2="22"/>
	<linearGradient id="SVGID_61_" gradientUnits="userSpaceOnUse" x1="47" y1="24.5" x2="49" y2="24.5">
		<stop  offset="0" style="stop-color:#F59900"/>
		<stop  offset="1" style="stop-color:#CA8608"/>
	</linearGradient>
	<line fill="none" stroke="url(#SVGID_61_)" stroke-width="2" stroke-miterlimit="10" x1="48" y1="32" x2="48" y2="17"/>
	<g>
		<linearGradient id="SVGID_62_" gradientUnits="userSpaceOnUse" x1="17.5" y1="21.2000008" x2="26.5" y2="21.2000008">
			<stop  offset="0" style="stop-color:#F59900"/>
			<stop  offset="1" style="stop-color:#CA8608"/>
		</linearGradient>
		<path fill="none" stroke="url(#SVGID_62_)" stroke-width="2" stroke-miterlimit="10" d="M25.5,20.8500004
			c0,2.4499989-1.3740005,4.5499992-3.5,4.5499992s-3.5-2.1000004-3.5-4.5499992S19.2000008,17,22,17
			S25.5,18.3999996,25.5,20.8500004z"/>
		<linearGradient id="SVGID_63_" gradientUnits="userSpaceOnUse" x1="14" y1="27.9158783" x2="30" y2="27.9158783">
			<stop  offset="0" style="stop-color:#F59900"/>
			<stop  offset="1" style="stop-color:#CA8608"/>
		</linearGradient>
		<path fill="none" stroke="url(#SVGID_63_)" stroke-width="2" stroke-miterlimit="10" d="M24.1000004,24.7000008L29,27.5
			c0,0,0,0.2406998,0,1.3999996C29,30.0599995,28.2999992,31,27.6000004,31H16.3999996C15.6999998,31,15,30.0599995,15,28.8999996
			C15,27.7406998,15,27.5,15,27.5l4.8999996-2.7999992"/>
	</g>
</g>
</svg>
