<?xml version="1.0" encoding="utf-8"?>
<!-- Generator: Adobe Illustrator 21.1.0, SVG Export Plug-In . SVG Version: 6.00 Build 0)  -->
<svg version="1.1" id="Слой_1" xmlns="http://www.w3.org/2000/svg" xmlns:xlink="http://www.w3.org/1999/xlink" x="0px" y="0px"
	 viewBox="0 0 64 64" enable-background="new 0 0 64 64" xml:space="preserve">
<g display="none">
	<g display="inline">
		<g>
			<linearGradient id="SVGID_1_" gradientUnits="userSpaceOnUse" x1="185" y1="22" x2="229" y2="22">
				<stop  offset="0" style="stop-color:#F59900"/>
				<stop  offset="1" style="stop-color:#CA8608"/>
			</linearGradient>
			<path fill="none" stroke="url(#SVGID_1_)" stroke-width="2" stroke-miterlimit="10" d="M207,43c-11.597702,0-21-9.4023018-21-21
				s9.402298-21,21-21c11.5976868,0,21,9.4022999,21,21"/>
			<g>
				<linearGradient id="SVGID_2_" gradientUnits="userSpaceOnUse" x1="205" y1="42" x2="249" y2="42">
					<stop  offset="0" style="stop-color:#F59900"/>
					<stop  offset="1" style="stop-color:#CA8608"/>
				</linearGradient>
				<circle fill="none" stroke="url(#SVGID_2_)" stroke-width="2" stroke-miterlimit="10" cx="227" cy="42" r="21"/>
				<linearGradient id="SVGID_3_" gradientUnits="userSpaceOnUse" x1="209" y1="42" x2="245" y2="42">
					<stop  offset="0" style="stop-color:#F59900"/>
					<stop  offset="1" style="stop-color:#CA8608"/>
				</linearGradient>
				<circle fill="none" stroke="url(#SVGID_3_)" stroke-width="2" stroke-miterlimit="10" cx="227" cy="42" r="17"/>
			</g>
			<g>
				<linearGradient id="SVGID_4_" gradientUnits="userSpaceOnUse" x1="229" y1="13" x2="243" y2="13">
					<stop  offset="0" style="stop-color:#F59900"/>
					<stop  offset="1" style="stop-color:#CA8608"/>
				</linearGradient>
				<path fill="none" stroke="url(#SVGID_4_)" stroke-width="2" stroke-miterlimit="10" d="M229,7h9c2.2089996,0,4,1.7910004,4,4v9"
					/>
			</g>
			<g>
				<linearGradient id="SVGID_5_" gradientUnits="userSpaceOnUse" x1="191" y1="51" x2="205" y2="51">
					<stop  offset="0" style="stop-color:#F59900"/>
					<stop  offset="1" style="stop-color:#CA8608"/>
				</linearGradient>
				<path fill="none" stroke="url(#SVGID_5_)" stroke-width="2" stroke-miterlimit="10" d="M205,57h-9c-2.2089996,0-4-1.7910004-4-4
					v-9"/>
			</g>
			<linearGradient id="SVGID_6_" gradientUnits="userSpaceOnUse" x1="189" y1="22" x2="225" y2="22">
				<stop  offset="0" style="stop-color:#F59900"/>
				<stop  offset="1" style="stop-color:#CA8608"/>
			</linearGradient>
			<path fill="none" stroke="url(#SVGID_6_)" stroke-width="2" stroke-miterlimit="10" d="M207,39c-9.3887024,0-17-7.6112995-17-17
				s7.6112976-17,17-17c9.3886871,0,17,7.6113005,17,17"/>
			<linearGradient id="SVGID_7_" gradientUnits="userSpaceOnUse" x1="197" y1="22" x2="215.9599762" y2="22">
				<stop  offset="0" style="stop-color:#F59900"/>
				<stop  offset="1" style="stop-color:#CA8608"/>
			</linearGradient>
			<path fill="none" stroke="url(#SVGID_7_)" stroke-width="2" stroke-miterlimit="10" d="M209,31c0,0-1.2812042,0-2,0
				c-4.9707031,0-9-4.0293007-9-9s4.0292969-9,9-9c3.5331879,0,6.5917969,2.0370998,8.0644989,5"/>
			
				<linearGradient id="SVGID_8_" gradientUnits="userSpaceOnUse" x1="217.9461365" y1="41.7860336" x2="234.3040619" y2="41.7860336">
				<stop  offset="0" style="stop-color:#F59900"/>
				<stop  offset="1" style="stop-color:#CA8608"/>
			</linearGradient>
			<path fill="none" stroke="url(#SVGID_8_)" stroke-width="2" stroke-miterlimit="10" d="M233.8462982,48.8718987
				c0,0-1.1390991,0.5865021-1.7781067,0.9155006c-4.4192963,2.2756004-9.8460999,0.5377998-12.1217041-3.8815002
				c-2.2754822-4.4192009-0.5376892-9.8460999,3.8815155-12.1215973c3.1412964-1.6174011,6.7930908-1.206501,9.458786,0.7534981"/>
		</g>
	</g>
</g>
<g>
	<g>
		<linearGradient id="SVGID_9_" gradientUnits="userSpaceOnUse" x1="44" y1="13.7236071" x2="60.8944283" y2="13.7236071">
			<stop  offset="0" style="stop-color:#F59900"/>
			<stop  offset="1" style="stop-color:#CA8608"/>
		</linearGradient>
		<polyline fill="none" stroke="url(#SVGID_9_)" stroke-width="2" stroke-miterlimit="10" points="44,7 53,7 60,21 		"/>
		<linearGradient id="SVGID_10_" gradientUnits="userSpaceOnUse" x1="3.1055727" y1="13.7236071" x2="20" y2="13.7236071">
			<stop  offset="0" style="stop-color:#F59900"/>
			<stop  offset="1" style="stop-color:#CA8608"/>
		</linearGradient>
		<polyline fill="none" stroke="url(#SVGID_10_)" stroke-width="2" stroke-miterlimit="10" points="4,21 11,7 20,7 		"/>
		<linearGradient id="SVGID_11_" gradientUnits="userSpaceOnUse" x1="16" y1="8" x2="48" y2="8">
			<stop  offset="0" style="stop-color:#F59900"/>
			<stop  offset="1" style="stop-color:#CA8608"/>
		</linearGradient>
		<path fill="none" stroke="url(#SVGID_11_)" stroke-width="2" stroke-miterlimit="10" d="M17,16c0-8.2842007,6.7157974-15,15-15
			s15,6.7157998,15,15"/>
		<linearGradient id="SVGID_12_" gradientUnits="userSpaceOnUse" x1="0" y1="21" x2="64" y2="21">
			<stop  offset="0" style="stop-color:#F59900"/>
			<stop  offset="1" style="stop-color:#CA8608"/>
		</linearGradient>
		
			<line fill="none" stroke="url(#SVGID_12_)" stroke-width="2" stroke-linejoin="round" stroke-miterlimit="10" x1="64" y1="21" x2="0" y2="21"/>
		<g>
			<linearGradient id="SVGID_13_" gradientUnits="userSpaceOnUse" x1="7" y1="41.5" x2="9" y2="41.5">
				<stop  offset="0" style="stop-color:#F59900"/>
				<stop  offset="1" style="stop-color:#CA8608"/>
			</linearGradient>
			<line fill="none" stroke="url(#SVGID_13_)" stroke-width="2" stroke-miterlimit="10" x1="8" y1="51" x2="8" y2="32"/>
			<linearGradient id="SVGID_14_" gradientUnits="userSpaceOnUse" x1="13" y1="41.5" x2="15" y2="41.5">
				<stop  offset="0" style="stop-color:#F59900"/>
				<stop  offset="1" style="stop-color:#CA8608"/>
			</linearGradient>
			<line fill="none" stroke="url(#SVGID_14_)" stroke-width="2" stroke-miterlimit="10" x1="14" y1="32" x2="14" y2="51"/>
			<linearGradient id="SVGID_15_" gradientUnits="userSpaceOnUse" x1="5" y1="27" x2="17" y2="27">
				<stop  offset="0" style="stop-color:#F59900"/>
				<stop  offset="1" style="stop-color:#CA8608"/>
			</linearGradient>
			<rect x="6" y="25" fill="none" stroke="url(#SVGID_15_)" stroke-width="2" stroke-miterlimit="10" width="10" height="4"/>
			<linearGradient id="SVGID_16_" gradientUnits="userSpaceOnUse" x1="5" y1="53" x2="17" y2="53">
				<stop  offset="0" style="stop-color:#F59900"/>
				<stop  offset="1" style="stop-color:#CA8608"/>
			</linearGradient>
			<rect x="6" y="51" fill="none" stroke="url(#SVGID_16_)" stroke-width="2" stroke-miterlimit="10" width="10" height="4"/>
		</g>
		<g>
			<linearGradient id="SVGID_17_" gradientUnits="userSpaceOnUse" x1="21" y1="41.5" x2="23" y2="41.5">
				<stop  offset="0" style="stop-color:#F59900"/>
				<stop  offset="1" style="stop-color:#CA8608"/>
			</linearGradient>
			<line fill="none" stroke="url(#SVGID_17_)" stroke-width="2" stroke-miterlimit="10" x1="22" y1="51" x2="22" y2="32"/>
			<linearGradient id="SVGID_18_" gradientUnits="userSpaceOnUse" x1="27" y1="41.5" x2="29" y2="41.5">
				<stop  offset="0" style="stop-color:#F59900"/>
				<stop  offset="1" style="stop-color:#CA8608"/>
			</linearGradient>
			<line fill="none" stroke="url(#SVGID_18_)" stroke-width="2" stroke-miterlimit="10" x1="28" y1="32" x2="28" y2="51"/>
			<linearGradient id="SVGID_19_" gradientUnits="userSpaceOnUse" x1="19" y1="27" x2="31" y2="27">
				<stop  offset="0" style="stop-color:#F59900"/>
				<stop  offset="1" style="stop-color:#CA8608"/>
			</linearGradient>
			<rect x="20" y="25" fill="none" stroke="url(#SVGID_19_)" stroke-width="2" stroke-miterlimit="10" width="10" height="4"/>
			<linearGradient id="SVGID_20_" gradientUnits="userSpaceOnUse" x1="19" y1="53" x2="31" y2="53">
				<stop  offset="0" style="stop-color:#F59900"/>
				<stop  offset="1" style="stop-color:#CA8608"/>
			</linearGradient>
			<rect x="20" y="51" fill="none" stroke="url(#SVGID_20_)" stroke-width="2" stroke-miterlimit="10" width="10" height="4"/>
		</g>
		<g>
			<linearGradient id="SVGID_21_" gradientUnits="userSpaceOnUse" x1="35" y1="41.5" x2="37" y2="41.5">
				<stop  offset="0" style="stop-color:#F59900"/>
				<stop  offset="1" style="stop-color:#CA8608"/>
			</linearGradient>
			<line fill="none" stroke="url(#SVGID_21_)" stroke-width="2" stroke-miterlimit="10" x1="36" y1="51" x2="36" y2="32"/>
			<linearGradient id="SVGID_22_" gradientUnits="userSpaceOnUse" x1="41" y1="41.5" x2="43" y2="41.5">
				<stop  offset="0" style="stop-color:#F59900"/>
				<stop  offset="1" style="stop-color:#CA8608"/>
			</linearGradient>
			<line fill="none" stroke="url(#SVGID_22_)" stroke-width="2" stroke-miterlimit="10" x1="42" y1="32" x2="42" y2="51"/>
			<linearGradient id="SVGID_23_" gradientUnits="userSpaceOnUse" x1="33" y1="27" x2="45" y2="27">
				<stop  offset="0" style="stop-color:#F59900"/>
				<stop  offset="1" style="stop-color:#CA8608"/>
			</linearGradient>
			<rect x="34" y="25" fill="none" stroke="url(#SVGID_23_)" stroke-width="2" stroke-miterlimit="10" width="10" height="4"/>
			<linearGradient id="SVGID_24_" gradientUnits="userSpaceOnUse" x1="33" y1="53" x2="45" y2="53">
				<stop  offset="0" style="stop-color:#F59900"/>
				<stop  offset="1" style="stop-color:#CA8608"/>
			</linearGradient>
			<rect x="34" y="51" fill="none" stroke="url(#SVGID_24_)" stroke-width="2" stroke-miterlimit="10" width="10" height="4"/>
		</g>
		<g>
			<linearGradient id="SVGID_25_" gradientUnits="userSpaceOnUse" x1="49" y1="41.5" x2="51" y2="41.5">
				<stop  offset="0" style="stop-color:#F59900"/>
				<stop  offset="1" style="stop-color:#CA8608"/>
			</linearGradient>
			<line fill="none" stroke="url(#SVGID_25_)" stroke-width="2" stroke-miterlimit="10" x1="50" y1="51" x2="50" y2="32"/>
			<linearGradient id="SVGID_26_" gradientUnits="userSpaceOnUse" x1="55" y1="41.5" x2="57" y2="41.5">
				<stop  offset="0" style="stop-color:#F59900"/>
				<stop  offset="1" style="stop-color:#CA8608"/>
			</linearGradient>
			<line fill="none" stroke="url(#SVGID_26_)" stroke-width="2" stroke-miterlimit="10" x1="56" y1="32" x2="56" y2="51"/>
			<linearGradient id="SVGID_27_" gradientUnits="userSpaceOnUse" x1="47" y1="27" x2="59" y2="27">
				<stop  offset="0" style="stop-color:#F59900"/>
				<stop  offset="1" style="stop-color:#CA8608"/>
			</linearGradient>
			<rect x="48" y="25" fill="none" stroke="url(#SVGID_27_)" stroke-width="2" stroke-miterlimit="10" width="10" height="4"/>
			<linearGradient id="SVGID_28_" gradientUnits="userSpaceOnUse" x1="47" y1="53" x2="59" y2="53">
				<stop  offset="0" style="stop-color:#F59900"/>
				<stop  offset="1" style="stop-color:#CA8608"/>
			</linearGradient>
			<rect x="48" y="51" fill="none" stroke="url(#SVGID_28_)" stroke-width="2" stroke-miterlimit="10" width="10" height="4"/>
		</g>
		<linearGradient id="SVGID_29_" gradientUnits="userSpaceOnUse" x1="0" y1="25" x2="64" y2="25">
			<stop  offset="0" style="stop-color:#F59900"/>
			<stop  offset="1" style="stop-color:#CA8608"/>
		</linearGradient>
		<line fill="none" stroke="url(#SVGID_29_)" stroke-width="2" stroke-miterlimit="10" x1="64" y1="25" x2="0" y2="25"/>
		<linearGradient id="SVGID_30_" gradientUnits="userSpaceOnUse" x1="3" y1="55" x2="61" y2="55">
			<stop  offset="0" style="stop-color:#F59900"/>
			<stop  offset="1" style="stop-color:#CA8608"/>
		</linearGradient>
		<line fill="none" stroke="url(#SVGID_30_)" stroke-width="2" stroke-miterlimit="10" x1="3" y1="55" x2="61" y2="55"/>
		<linearGradient id="SVGID_31_" gradientUnits="userSpaceOnUse" x1="27" y1="11" x2="37" y2="11">
			<stop  offset="0" style="stop-color:#F59900"/>
			<stop  offset="1" style="stop-color:#CA8608"/>
		</linearGradient>
		<circle fill="none" stroke="url(#SVGID_31_)" stroke-width="2" stroke-miterlimit="10" cx="32" cy="11" r="4"/>
		<linearGradient id="SVGID_32_" gradientUnits="userSpaceOnUse" x1="39" y1="11" x2="41" y2="11">
			<stop  offset="0" style="stop-color:#F59900"/>
			<stop  offset="1" style="stop-color:#CA8608"/>
		</linearGradient>
		<line fill="none" stroke="url(#SVGID_32_)" stroke-width="2" stroke-miterlimit="10" x1="39" y1="11" x2="41" y2="11"/>
		<linearGradient id="SVGID_33_" gradientUnits="userSpaceOnUse" x1="23" y1="11" x2="25" y2="11">
			<stop  offset="0" style="stop-color:#F59900"/>
			<stop  offset="1" style="stop-color:#CA8608"/>
		</linearGradient>
		<line fill="none" stroke="url(#SVGID_33_)" stroke-width="2" stroke-miterlimit="10" x1="25" y1="11" x2="23" y2="11"/>
		<linearGradient id="SVGID_34_" gradientUnits="userSpaceOnUse" x1="0" y1="61" x2="64" y2="61">
			<stop  offset="0" style="stop-color:#F59900"/>
			<stop  offset="1" style="stop-color:#CA8608"/>
		</linearGradient>
		<rect x="1" y="59" fill="none" stroke="url(#SVGID_34_)" stroke-width="2" stroke-miterlimit="10" width="62" height="4"/>
	</g>
</g>
<g display="none">
	<g display="inline">
		<g>
			<g>
				<linearGradient id="SVGID_35_" gradientUnits="userSpaceOnUse" x1="129.3860626" y1="32.6053238" x2="140" y2="32.6053238">
					<stop  offset="0" style="stop-color:#F59900"/>
					<stop  offset="1" style="stop-color:#CA8608"/>
				</linearGradient>
				<path fill="none" stroke="url(#SVGID_35_)" stroke-width="2" stroke-linejoin="round" stroke-miterlimit="10" d="M130,12.5
					c0,0,9,7,9,13s0,9,0,9l-2,11v8"/>
				<linearGradient id="SVGID_36_" gradientUnits="userSpaceOnUse" x1="106" y1="17.5" x2="131" y2="17.5">
					<stop  offset="0" style="stop-color:#F59900"/>
					<stop  offset="1" style="stop-color:#CA8608"/>
				</linearGradient>
				<path fill="none" stroke="url(#SVGID_36_)" stroke-width="2" stroke-linejoin="round" stroke-miterlimit="10" d="M125,34.5h-17
					c-0.5527039,0-1-0.4473-1-1v-32c0-0.5527,0.4472961-1,1-1h21c0.5526886,0,1,0.4473,1,1v25"/>
				<linearGradient id="SVGID_37_" gradientUnits="userSpaceOnUse" x1="115" y1="45.5" x2="121" y2="45.5">
					<stop  offset="0" style="stop-color:#F59900"/>
					<stop  offset="1" style="stop-color:#CA8608"/>
				</linearGradient>
				<path fill="none" stroke="url(#SVGID_37_)" stroke-width="2" stroke-linejoin="round" stroke-miterlimit="10" d="M116,37.5
					c0,5,4,10,4,10v6"/>
				
					<linearGradient id="SVGID_38_" gradientUnits="userSpaceOnUse" x1="116.1111145" y1="31.0555553" x2="132.7071075" y2="31.0555553">
					<stop  offset="0" style="stop-color:#F59900"/>
					<stop  offset="1" style="stop-color:#CA8608"/>
				</linearGradient>
				<path fill="none" stroke="url(#SVGID_38_)" stroke-width="2" stroke-linejoin="round" stroke-miterlimit="10" d="M132,28.5l-9-9
					c0,0-3-2-5,0s0,5,0,5l7,7c0,3.3134995,2.6864929,12,6,12"/>
				<linearGradient id="SVGID_39_" gradientUnits="userSpaceOnUse" x1="112" y1="17.5" x2="114" y2="17.5">
					<stop  offset="0" style="stop-color:#F59900"/>
					<stop  offset="1" style="stop-color:#CA8608"/>
				</linearGradient>
				
					<line fill="none" stroke="url(#SVGID_39_)" stroke-width="2" stroke-linejoin="round" stroke-miterlimit="10" x1="113" y1="0.5" x2="113" y2="34.5"/>
				<linearGradient id="SVGID_40_" gradientUnits="userSpaceOnUse" x1="116" y1="9.5" x2="118" y2="9.5">
					<stop  offset="0" style="stop-color:#F59900"/>
					<stop  offset="1" style="stop-color:#CA8608"/>
				</linearGradient>
				
					<line fill="none" stroke="url(#SVGID_40_)" stroke-width="2" stroke-linejoin="round" stroke-miterlimit="10" x1="117" y1="3.5" x2="117" y2="15.5"/>
				<linearGradient id="SVGID_41_" gradientUnits="userSpaceOnUse" x1="117" y1="57.5" x2="140" y2="57.5">
					<stop  offset="0" style="stop-color:#F59900"/>
					<stop  offset="1" style="stop-color:#CA8608"/>
				</linearGradient>
				<polyline fill="none" stroke="url(#SVGID_41_)" stroke-width="2" stroke-linejoin="round" stroke-miterlimit="10" points="
					118,63.5 118,52.5 139,52.5 139,63.5 				"/>
				<linearGradient id="SVGID_42_" gradientUnits="userSpaceOnUse" x1="121" y1="56.5" x2="123" y2="56.5">
					<stop  offset="0" style="stop-color:#F59900"/>
					<stop  offset="1" style="stop-color:#CA8608"/>
				</linearGradient>
				
					<line fill="none" stroke="url(#SVGID_42_)" stroke-width="2" stroke-linejoin="round" stroke-miterlimit="10" x1="121" y1="56.5" x2="123" y2="56.5"/>
				<linearGradient id="SVGID_43_" gradientUnits="userSpaceOnUse" x1="121" y1="60.5" x2="123" y2="60.5">
					<stop  offset="0" style="stop-color:#F59900"/>
					<stop  offset="1" style="stop-color:#CA8608"/>
				</linearGradient>
				
					<line fill="none" stroke="url(#SVGID_43_)" stroke-width="2" stroke-linejoin="round" stroke-miterlimit="10" x1="121" y1="60.5" x2="123" y2="60.5"/>
				<linearGradient id="SVGID_44_" gradientUnits="userSpaceOnUse" x1="120" y1="5.5" x2="122" y2="5.5">
					<stop  offset="0" style="stop-color:#F59900"/>
					<stop  offset="1" style="stop-color:#CA8608"/>
				</linearGradient>
				
					<line fill="none" stroke="url(#SVGID_44_)" stroke-width="2" stroke-linejoin="round" stroke-miterlimit="10" x1="121" y1="3.5" x2="121" y2="7.5"/>
				<linearGradient id="SVGID_45_" gradientUnits="userSpaceOnUse" x1="120" y1="10.5" x2="122" y2="10.5">
					<stop  offset="0" style="stop-color:#F59900"/>
					<stop  offset="1" style="stop-color:#CA8608"/>
				</linearGradient>
				
					<line fill="none" stroke="url(#SVGID_45_)" stroke-width="2" stroke-linejoin="round" stroke-miterlimit="10" x1="121" y1="9.5" x2="121" y2="11.5"/>
			</g>
			<linearGradient id="SVGID_46_" gradientUnits="userSpaceOnUse" x1="96" y1="31.5" x2="115" y2="31.5">
				<stop  offset="0" style="stop-color:#F59900"/>
				<stop  offset="1" style="stop-color:#CA8608"/>
			</linearGradient>
			<path fill="none" stroke="url(#SVGID_46_)" stroke-width="2" stroke-linejoin="round" stroke-miterlimit="10" d="M115,58.5h-15
				c-1.6562042,0-3-1.3437004-3-3v-48c0-1.6561999,1.3437958-3,3-3h4"/>
			<linearGradient id="SVGID_47_" gradientUnits="userSpaceOnUse" x1="133" y1="31.5" x2="152" y2="31.5">
				<stop  offset="0" style="stop-color:#F59900"/>
				<stop  offset="1" style="stop-color:#CA8608"/>
			</linearGradient>
			<path fill="none" stroke="url(#SVGID_47_)" stroke-width="2" stroke-linejoin="round" stroke-miterlimit="10" d="M133,4.5h15
				c1.6562958,0,3,1.3438001,3,3v48c0,1.6562996-1.3437042,3-3,3h-6"/>
			<linearGradient id="SVGID_48_" gradientUnits="userSpaceOnUse" x1="133" y1="8.5" x2="151" y2="8.5">
				<stop  offset="0" style="stop-color:#F59900"/>
				<stop  offset="1" style="stop-color:#CA8608"/>
			</linearGradient>
			
				<line fill="none" stroke="url(#SVGID_48_)" stroke-width="2" stroke-linejoin="round" stroke-miterlimit="10" x1="151" y1="8.5" x2="133" y2="8.5"/>
			<linearGradient id="SVGID_49_" gradientUnits="userSpaceOnUse" x1="97" y1="54.5" x2="115" y2="54.5">
				<stop  offset="0" style="stop-color:#F59900"/>
				<stop  offset="1" style="stop-color:#CA8608"/>
			</linearGradient>
			
				<line fill="none" stroke="url(#SVGID_49_)" stroke-width="2" stroke-linejoin="round" stroke-miterlimit="10" x1="97" y1="54.5" x2="115" y2="54.5"/>
		</g>
	</g>
</g>
<g display="none">
	<linearGradient id="SVGID_50_" gradientUnits="userSpaceOnUse" x1="328" y1="12" x2="336" y2="12">
		<stop  offset="0" style="stop-color:#F59900"/>
		<stop  offset="1" style="stop-color:#CA8608"/>
	</linearGradient>
	<polyline display="inline" fill="none" stroke="url(#SVGID_50_)" stroke-width="2" stroke-miterlimit="10" points="335,16 335,9 
		328,9 	"/>
	
		<linearGradient id="SVGID_51_" gradientUnits="userSpaceOnUse" x1="304.5319824" y1="17.6195507" x2="335.7070923" y2="17.6195507">
		<stop  offset="0" style="stop-color:#F59900"/>
		<stop  offset="1" style="stop-color:#CA8608"/>
	</linearGradient>
	<polyline display="inline" fill="none" stroke="url(#SVGID_51_)" stroke-width="2" stroke-miterlimit="10" points="335,9 
		318.5651855,25.4347992 312.3042908,19.1739006 305.2390747,26.2390995 	"/>
	<linearGradient id="SVGID_52_" gradientUnits="userSpaceOnUse" x1="276" y1="52" x2="340" y2="52">
		<stop  offset="0" style="stop-color:#F59900"/>
		<stop  offset="1" style="stop-color:#CA8608"/>
	</linearGradient>
	<polygon display="inline" fill="none" stroke="url(#SVGID_52_)" stroke-width="2" stroke-miterlimit="10" points="335,55 281,55 
		277,51 277,49 301,49 303,51 313,51 315,49 339,49 339,51 	"/>
	<linearGradient id="SVGID_53_" gradientUnits="userSpaceOnUse" x1="280" y1="27" x2="324" y2="27">
		<stop  offset="0" style="stop-color:#F59900"/>
		<stop  offset="1" style="stop-color:#CA8608"/>
	</linearGradient>
	<path display="inline" fill="none" stroke="url(#SVGID_53_)" stroke-width="2" stroke-miterlimit="10" d="M324,9h-40
		c-1.6562195,0-3,1.3428001-3,3v34"/>
	<linearGradient id="SVGID_54_" gradientUnits="userSpaceOnUse" x1="334" y1="33" x2="336" y2="33">
		<stop  offset="0" style="stop-color:#F59900"/>
		<stop  offset="1" style="stop-color:#CA8608"/>
	</linearGradient>
	
		<line display="inline" fill="none" stroke="url(#SVGID_54_)" stroke-width="2" stroke-miterlimit="10" x1="335" y1="46" x2="335" y2="20"/>
	<linearGradient id="SVGID_55_" gradientUnits="userSpaceOnUse" x1="284" y1="28" x2="332" y2="28">
		<stop  offset="0" style="stop-color:#F59900"/>
		<stop  offset="1" style="stop-color:#CA8608"/>
	</linearGradient>
	<polyline display="inline" fill="none" stroke="url(#SVGID_55_)" stroke-width="2" stroke-miterlimit="10" points="324,13 285,13 
		285,43 331,43 331,20 	"/>
	<linearGradient id="SVGID_56_" gradientUnits="userSpaceOnUse" x1="295" y1="39" x2="297" y2="39">
		<stop  offset="0" style="stop-color:#F59900"/>
		<stop  offset="1" style="stop-color:#CA8608"/>
	</linearGradient>
	
		<line display="inline" fill="none" stroke="url(#SVGID_56_)" stroke-width="2" stroke-miterlimit="10" x1="296" y1="40" x2="296" y2="38"/>
	<linearGradient id="SVGID_57_" gradientUnits="userSpaceOnUse" x1="307" y1="34" x2="309" y2="34">
		<stop  offset="0" style="stop-color:#F59900"/>
		<stop  offset="1" style="stop-color:#CA8608"/>
	</linearGradient>
	
		<line display="inline" fill="none" stroke="url(#SVGID_57_)" stroke-width="2" stroke-miterlimit="10" x1="308" y1="40" x2="308" y2="28"/>
	<linearGradient id="SVGID_58_" gradientUnits="userSpaceOnUse" x1="311" y1="32" x2="313" y2="32">
		<stop  offset="0" style="stop-color:#F59900"/>
		<stop  offset="1" style="stop-color:#CA8608"/>
	</linearGradient>
	
		<line display="inline" fill="none" stroke="url(#SVGID_58_)" stroke-width="2" stroke-miterlimit="10" x1="312" y1="40" x2="312" y2="24"/>
	<linearGradient id="SVGID_59_" gradientUnits="userSpaceOnUse" x1="315" y1="34.5" x2="317" y2="34.5">
		<stop  offset="0" style="stop-color:#F59900"/>
		<stop  offset="1" style="stop-color:#CA8608"/>
	</linearGradient>
	
		<line display="inline" fill="none" stroke="url(#SVGID_59_)" stroke-width="2" stroke-miterlimit="10" x1="316" y1="40" x2="316" y2="29"/>
	<linearGradient id="SVGID_60_" gradientUnits="userSpaceOnUse" x1="319" y1="35" x2="321" y2="35">
		<stop  offset="0" style="stop-color:#F59900"/>
		<stop  offset="1" style="stop-color:#CA8608"/>
	</linearGradient>
	
		<line display="inline" fill="none" stroke="url(#SVGID_60_)" stroke-width="2" stroke-miterlimit="10" x1="320" y1="40" x2="320" y2="30"/>
	<linearGradient id="SVGID_61_" gradientUnits="userSpaceOnUse" x1="323" y1="32.5" x2="325" y2="32.5">
		<stop  offset="0" style="stop-color:#F59900"/>
		<stop  offset="1" style="stop-color:#CA8608"/>
	</linearGradient>
	
		<line display="inline" fill="none" stroke="url(#SVGID_61_)" stroke-width="2" stroke-miterlimit="10" x1="324" y1="40" x2="324" y2="25"/>
	<g display="inline">
		<linearGradient id="SVGID_62_" gradientUnits="userSpaceOnUse" x1="293.5" y1="29.2000008" x2="302.5" y2="29.2000008">
			<stop  offset="0" style="stop-color:#F59900"/>
			<stop  offset="1" style="stop-color:#CA8608"/>
		</linearGradient>
		<path fill="none" stroke="url(#SVGID_62_)" stroke-width="2" stroke-miterlimit="10" d="M301.5,28.8500004
			c0,2.4499989-1.3739929,4.5500011-3.5,4.5500011s-3.5-2.1000023-3.5-4.5500011S295.2000122,25,298,25
			S301.5,26.3999996,301.5,28.8500004z"/>
		<linearGradient id="SVGID_63_" gradientUnits="userSpaceOnUse" x1="290" y1="35.9158783" x2="306" y2="35.9158783">
			<stop  offset="0" style="stop-color:#F59900"/>
			<stop  offset="1" style="stop-color:#CA8608"/>
		</linearGradient>
		<path fill="none" stroke="url(#SVGID_63_)" stroke-width="2" stroke-miterlimit="10" d="M300.1000061,32.7000008L305,35.5
			c0,0,0,0.2406998,0,1.4000015C305,38.0600014,304.2999878,39,303.6000061,39h-11.2000122
			C291.7000122,39,291,38.0600014,291,36.9000015C291,35.7406998,291,35.5,291,35.5l4.8999939-2.7999992"/>
	</g>
</g>
</svg>
