<?xml version="1.0" encoding="utf-8"?>
<!-- Generator: Adobe Illustrator 21.1.0, SVG Export Plug-In . SVG Version: 6.00 Build 0)  -->
<svg version="1.1" id="Слой_1" xmlns="http://www.w3.org/2000/svg" xmlns:xlink="http://www.w3.org/1999/xlink" x="0px" y="0px"
	 viewBox="0 0 56 64" enable-background="new 0 0 56 64" xml:space="preserve">
<g display="none">
	<g display="inline">
		<g>
			<linearGradient id="SVGID_1_" gradientUnits="userSpaceOnUse" x1="89" y1="22.5" x2="133" y2="22.5">
				<stop  offset="0" style="stop-color:#F59900"/>
				<stop  offset="1" style="stop-color:#CA8608"/>
			</linearGradient>
			<path fill="none" stroke="url(#SVGID_1_)" stroke-width="2" stroke-miterlimit="10" d="M111,43.5
				c-11.5977097,0-21-9.4023018-21-21s9.4022903-21,21-21c11.5976944,0,21,9.4022999,21,21"/>
			<g>
				<linearGradient id="SVGID_2_" gradientUnits="userSpaceOnUse" x1="109" y1="42.5" x2="153" y2="42.5">
					<stop  offset="0" style="stop-color:#F59900"/>
					<stop  offset="1" style="stop-color:#CA8608"/>
				</linearGradient>
				<circle fill="none" stroke="url(#SVGID_2_)" stroke-width="2" stroke-miterlimit="10" cx="131" cy="42.5" r="21"/>
				<linearGradient id="SVGID_3_" gradientUnits="userSpaceOnUse" x1="113" y1="42.5" x2="149" y2="42.5">
					<stop  offset="0" style="stop-color:#F59900"/>
					<stop  offset="1" style="stop-color:#CA8608"/>
				</linearGradient>
				<circle fill="none" stroke="url(#SVGID_3_)" stroke-width="2" stroke-miterlimit="10" cx="131" cy="42.5" r="17"/>
			</g>
			<g>
				<linearGradient id="SVGID_4_" gradientUnits="userSpaceOnUse" x1="133" y1="13.5" x2="147" y2="13.5">
					<stop  offset="0" style="stop-color:#F59900"/>
					<stop  offset="1" style="stop-color:#CA8608"/>
				</linearGradient>
				<path fill="none" stroke="url(#SVGID_4_)" stroke-width="2" stroke-miterlimit="10" d="M133,7.5h9c2.2089996,0,4,1.7910004,4,4
					v9"/>
			</g>
			<g>
				<linearGradient id="SVGID_5_" gradientUnits="userSpaceOnUse" x1="95" y1="51.5" x2="109" y2="51.5">
					<stop  offset="0" style="stop-color:#F59900"/>
					<stop  offset="1" style="stop-color:#CA8608"/>
				</linearGradient>
				<path fill="none" stroke="url(#SVGID_5_)" stroke-width="2" stroke-miterlimit="10" d="M109,57.5h-9
					c-2.2089996,0-4-1.7910004-4-4v-9"/>
			</g>
			<linearGradient id="SVGID_6_" gradientUnits="userSpaceOnUse" x1="93" y1="22.5" x2="129" y2="22.5">
				<stop  offset="0" style="stop-color:#F59900"/>
				<stop  offset="1" style="stop-color:#CA8608"/>
			</linearGradient>
			<path fill="none" stroke="url(#SVGID_6_)" stroke-width="2" stroke-miterlimit="10" d="M111,39.5c-9.38871,0-17-7.6112995-17-17
				s7.61129-17,17-17c9.3886948,0,17,7.6113005,17,17"/>
			<linearGradient id="SVGID_7_" gradientUnits="userSpaceOnUse" x1="101" y1="22.5" x2="119.9599762" y2="22.5">
				<stop  offset="0" style="stop-color:#F59900"/>
				<stop  offset="1" style="stop-color:#CA8608"/>
			</linearGradient>
			<path fill="none" stroke="url(#SVGID_7_)" stroke-width="2" stroke-miterlimit="10" d="M113,31.5c0,0-1.2812042,0-2,0
				c-4.9707108,0-9-4.0293007-9-9s4.0292892-9,9-9c3.5331955,0,6.5917892,2.0370998,8.0644913,5"/>
			
				<linearGradient id="SVGID_8_" gradientUnits="userSpaceOnUse" x1="121.9461441" y1="42.2860336" x2="138.3040619" y2="42.2860336">
				<stop  offset="0" style="stop-color:#F59900"/>
				<stop  offset="1" style="stop-color:#CA8608"/>
			</linearGradient>
			<path fill="none" stroke="url(#SVGID_8_)" stroke-width="2" stroke-miterlimit="10" d="M137.8462982,49.3718987
				c0,0-1.1390991,0.5865021-1.7781067,0.9155006c-4.4192963,2.2756004-9.8460999,0.5377998-12.1216965-3.8815002
				c-2.2754974-4.4192009-0.5377045-9.8460999,3.8815079-12.1215973c3.1412964-1.6174011,6.7930908-1.206501,9.458786,0.7534981"/>
		</g>
	</g>
</g>
<g display="none">
	<g display="inline">
		<linearGradient id="SVGID_9_" gradientUnits="userSpaceOnUse" x1="-52" y1="14.2236071" x2="-35.1055717" y2="14.2236071">
			<stop  offset="0" style="stop-color:#F59900"/>
			<stop  offset="1" style="stop-color:#CA8608"/>
		</linearGradient>
		<polyline fill="none" stroke="url(#SVGID_9_)" stroke-width="2" stroke-miterlimit="10" points="-52,7.5 -43,7.5 -36,21.5 		"/>
		<linearGradient id="SVGID_10_" gradientUnits="userSpaceOnUse" x1="-92.8944244" y1="14.2236071" x2="-76" y2="14.2236071">
			<stop  offset="0" style="stop-color:#F59900"/>
			<stop  offset="1" style="stop-color:#CA8608"/>
		</linearGradient>
		<polyline fill="none" stroke="url(#SVGID_10_)" stroke-width="2" stroke-miterlimit="10" points="-92,21.5 -85,7.5 -76,7.5 		"/>
		<linearGradient id="SVGID_11_" gradientUnits="userSpaceOnUse" x1="-80" y1="8.5" x2="-48" y2="8.5">
			<stop  offset="0" style="stop-color:#F59900"/>
			<stop  offset="1" style="stop-color:#CA8608"/>
		</linearGradient>
		<path fill="none" stroke="url(#SVGID_11_)" stroke-width="2" stroke-miterlimit="10" d="M-79,16.5c0-8.2841997,6.7157974-15,15-15
			s15,6.7158003,15,15"/>
		<linearGradient id="SVGID_12_" gradientUnits="userSpaceOnUse" x1="-96" y1="21.5" x2="-32" y2="21.5">
			<stop  offset="0" style="stop-color:#F59900"/>
			<stop  offset="1" style="stop-color:#CA8608"/>
		</linearGradient>
		
			<line fill="none" stroke="url(#SVGID_12_)" stroke-width="2" stroke-linejoin="round" stroke-miterlimit="10" x1="-32" y1="21.5" x2="-96" y2="21.5"/>
		<g>
			<linearGradient id="SVGID_13_" gradientUnits="userSpaceOnUse" x1="-89" y1="42" x2="-87" y2="42">
				<stop  offset="0" style="stop-color:#F59900"/>
				<stop  offset="1" style="stop-color:#CA8608"/>
			</linearGradient>
			<line fill="none" stroke="url(#SVGID_13_)" stroke-width="2" stroke-miterlimit="10" x1="-88" y1="51.5" x2="-88" y2="32.5"/>
			<linearGradient id="SVGID_14_" gradientUnits="userSpaceOnUse" x1="-83" y1="42" x2="-81" y2="42">
				<stop  offset="0" style="stop-color:#F59900"/>
				<stop  offset="1" style="stop-color:#CA8608"/>
			</linearGradient>
			<line fill="none" stroke="url(#SVGID_14_)" stroke-width="2" stroke-miterlimit="10" x1="-82" y1="32.5" x2="-82" y2="51.5"/>
			<linearGradient id="SVGID_15_" gradientUnits="userSpaceOnUse" x1="-91" y1="27.5" x2="-79" y2="27.5">
				<stop  offset="0" style="stop-color:#F59900"/>
				<stop  offset="1" style="stop-color:#CA8608"/>
			</linearGradient>
			<rect x="-90" y="25.5" fill="none" stroke="url(#SVGID_15_)" stroke-width="2" stroke-miterlimit="10" width="10" height="4"/>
			<linearGradient id="SVGID_16_" gradientUnits="userSpaceOnUse" x1="-91" y1="53.5" x2="-79" y2="53.5">
				<stop  offset="0" style="stop-color:#F59900"/>
				<stop  offset="1" style="stop-color:#CA8608"/>
			</linearGradient>
			<rect x="-90" y="51.5" fill="none" stroke="url(#SVGID_16_)" stroke-width="2" stroke-miterlimit="10" width="10" height="4"/>
		</g>
		<g>
			<linearGradient id="SVGID_17_" gradientUnits="userSpaceOnUse" x1="-75" y1="42" x2="-73" y2="42">
				<stop  offset="0" style="stop-color:#F59900"/>
				<stop  offset="1" style="stop-color:#CA8608"/>
			</linearGradient>
			<line fill="none" stroke="url(#SVGID_17_)" stroke-width="2" stroke-miterlimit="10" x1="-74" y1="51.5" x2="-74" y2="32.5"/>
			<linearGradient id="SVGID_18_" gradientUnits="userSpaceOnUse" x1="-69" y1="42" x2="-67" y2="42">
				<stop  offset="0" style="stop-color:#F59900"/>
				<stop  offset="1" style="stop-color:#CA8608"/>
			</linearGradient>
			<line fill="none" stroke="url(#SVGID_18_)" stroke-width="2" stroke-miterlimit="10" x1="-68" y1="32.5" x2="-68" y2="51.5"/>
			<linearGradient id="SVGID_19_" gradientUnits="userSpaceOnUse" x1="-77" y1="27.5" x2="-65" y2="27.5">
				<stop  offset="0" style="stop-color:#F59900"/>
				<stop  offset="1" style="stop-color:#CA8608"/>
			</linearGradient>
			<rect x="-76" y="25.5" fill="none" stroke="url(#SVGID_19_)" stroke-width="2" stroke-miterlimit="10" width="10" height="4"/>
			<linearGradient id="SVGID_20_" gradientUnits="userSpaceOnUse" x1="-77" y1="53.5" x2="-65" y2="53.5">
				<stop  offset="0" style="stop-color:#F59900"/>
				<stop  offset="1" style="stop-color:#CA8608"/>
			</linearGradient>
			<rect x="-76" y="51.5" fill="none" stroke="url(#SVGID_20_)" stroke-width="2" stroke-miterlimit="10" width="10" height="4"/>
		</g>
		<g>
			<linearGradient id="SVGID_21_" gradientUnits="userSpaceOnUse" x1="-61" y1="42" x2="-59" y2="42">
				<stop  offset="0" style="stop-color:#F59900"/>
				<stop  offset="1" style="stop-color:#CA8608"/>
			</linearGradient>
			<line fill="none" stroke="url(#SVGID_21_)" stroke-width="2" stroke-miterlimit="10" x1="-60" y1="51.5" x2="-60" y2="32.5"/>
			<linearGradient id="SVGID_22_" gradientUnits="userSpaceOnUse" x1="-55" y1="42" x2="-53" y2="42">
				<stop  offset="0" style="stop-color:#F59900"/>
				<stop  offset="1" style="stop-color:#CA8608"/>
			</linearGradient>
			<line fill="none" stroke="url(#SVGID_22_)" stroke-width="2" stroke-miterlimit="10" x1="-54" y1="32.5" x2="-54" y2="51.5"/>
			<linearGradient id="SVGID_23_" gradientUnits="userSpaceOnUse" x1="-63" y1="27.5" x2="-51" y2="27.5">
				<stop  offset="0" style="stop-color:#F59900"/>
				<stop  offset="1" style="stop-color:#CA8608"/>
			</linearGradient>
			<rect x="-62" y="25.5" fill="none" stroke="url(#SVGID_23_)" stroke-width="2" stroke-miterlimit="10" width="10" height="4"/>
			<linearGradient id="SVGID_24_" gradientUnits="userSpaceOnUse" x1="-63" y1="53.5" x2="-51" y2="53.5">
				<stop  offset="0" style="stop-color:#F59900"/>
				<stop  offset="1" style="stop-color:#CA8608"/>
			</linearGradient>
			<rect x="-62" y="51.5" fill="none" stroke="url(#SVGID_24_)" stroke-width="2" stroke-miterlimit="10" width="10" height="4"/>
		</g>
		<g>
			<linearGradient id="SVGID_25_" gradientUnits="userSpaceOnUse" x1="-47" y1="42" x2="-45" y2="42">
				<stop  offset="0" style="stop-color:#F59900"/>
				<stop  offset="1" style="stop-color:#CA8608"/>
			</linearGradient>
			<line fill="none" stroke="url(#SVGID_25_)" stroke-width="2" stroke-miterlimit="10" x1="-46" y1="51.5" x2="-46" y2="32.5"/>
			<linearGradient id="SVGID_26_" gradientUnits="userSpaceOnUse" x1="-41" y1="42" x2="-39" y2="42">
				<stop  offset="0" style="stop-color:#F59900"/>
				<stop  offset="1" style="stop-color:#CA8608"/>
			</linearGradient>
			<line fill="none" stroke="url(#SVGID_26_)" stroke-width="2" stroke-miterlimit="10" x1="-40" y1="32.5" x2="-40" y2="51.5"/>
			<linearGradient id="SVGID_27_" gradientUnits="userSpaceOnUse" x1="-49" y1="27.5" x2="-37" y2="27.5">
				<stop  offset="0" style="stop-color:#F59900"/>
				<stop  offset="1" style="stop-color:#CA8608"/>
			</linearGradient>
			<rect x="-48" y="25.5" fill="none" stroke="url(#SVGID_27_)" stroke-width="2" stroke-miterlimit="10" width="10" height="4"/>
			<linearGradient id="SVGID_28_" gradientUnits="userSpaceOnUse" x1="-49" y1="53.5" x2="-37" y2="53.5">
				<stop  offset="0" style="stop-color:#F59900"/>
				<stop  offset="1" style="stop-color:#CA8608"/>
			</linearGradient>
			<rect x="-48" y="51.5" fill="none" stroke="url(#SVGID_28_)" stroke-width="2" stroke-miterlimit="10" width="10" height="4"/>
		</g>
		<linearGradient id="SVGID_29_" gradientUnits="userSpaceOnUse" x1="-96" y1="25.5" x2="-32" y2="25.5">
			<stop  offset="0" style="stop-color:#F59900"/>
			<stop  offset="1" style="stop-color:#CA8608"/>
		</linearGradient>
		<line fill="none" stroke="url(#SVGID_29_)" stroke-width="2" stroke-miterlimit="10" x1="-32" y1="25.5" x2="-96" y2="25.5"/>
		<linearGradient id="SVGID_30_" gradientUnits="userSpaceOnUse" x1="-93" y1="55.5" x2="-35" y2="55.5">
			<stop  offset="0" style="stop-color:#F59900"/>
			<stop  offset="1" style="stop-color:#CA8608"/>
		</linearGradient>
		<line fill="none" stroke="url(#SVGID_30_)" stroke-width="2" stroke-miterlimit="10" x1="-93" y1="55.5" x2="-35" y2="55.5"/>
		<linearGradient id="SVGID_31_" gradientUnits="userSpaceOnUse" x1="-69" y1="11.5" x2="-59" y2="11.5">
			<stop  offset="0" style="stop-color:#F59900"/>
			<stop  offset="1" style="stop-color:#CA8608"/>
		</linearGradient>
		<circle fill="none" stroke="url(#SVGID_31_)" stroke-width="2" stroke-miterlimit="10" cx="-64" cy="11.5" r="4"/>
		<linearGradient id="SVGID_32_" gradientUnits="userSpaceOnUse" x1="-57" y1="11.5" x2="-55" y2="11.5">
			<stop  offset="0" style="stop-color:#F59900"/>
			<stop  offset="1" style="stop-color:#CA8608"/>
		</linearGradient>
		<line fill="none" stroke="url(#SVGID_32_)" stroke-width="2" stroke-miterlimit="10" x1="-57" y1="11.5" x2="-55" y2="11.5"/>
		<linearGradient id="SVGID_33_" gradientUnits="userSpaceOnUse" x1="-73" y1="11.5" x2="-71" y2="11.5">
			<stop  offset="0" style="stop-color:#F59900"/>
			<stop  offset="1" style="stop-color:#CA8608"/>
		</linearGradient>
		<line fill="none" stroke="url(#SVGID_33_)" stroke-width="2" stroke-miterlimit="10" x1="-71" y1="11.5" x2="-73" y2="11.5"/>
		<linearGradient id="SVGID_34_" gradientUnits="userSpaceOnUse" x1="-96" y1="61.5" x2="-32" y2="61.5">
			<stop  offset="0" style="stop-color:#F59900"/>
			<stop  offset="1" style="stop-color:#CA8608"/>
		</linearGradient>
		<rect x="-95" y="59.5" fill="none" stroke="url(#SVGID_34_)" stroke-width="2" stroke-miterlimit="10" width="62" height="4"/>
	</g>
</g>
<g>
	<g>
		<g>
			<g>
				<linearGradient id="SVGID_35_" gradientUnits="userSpaceOnUse" x1="33.3860588" y1="33.1053238" x2="44" y2="33.1053238">
					<stop  offset="0" style="stop-color:#F59900"/>
					<stop  offset="1" style="stop-color:#CA8608"/>
				</linearGradient>
				<path fill="none" stroke="url(#SVGID_35_)" stroke-width="2" stroke-linejoin="round" stroke-miterlimit="10" d="M34,13
					c0,0,9,7,9,13s0,9,0,9l-2,11v8"/>
				<linearGradient id="SVGID_36_" gradientUnits="userSpaceOnUse" x1="10" y1="18" x2="35" y2="18">
					<stop  offset="0" style="stop-color:#F59900"/>
					<stop  offset="1" style="stop-color:#CA8608"/>
				</linearGradient>
				<path fill="none" stroke="url(#SVGID_36_)" stroke-width="2" stroke-linejoin="round" stroke-miterlimit="10" d="M29,35H12
					c-0.5527048,0-1-0.4473-1-1V2c0-0.5527,0.4472952-1,1-1h21c0.5526924,0,1,0.4473,1,1v25"/>
				<linearGradient id="SVGID_37_" gradientUnits="userSpaceOnUse" x1="19" y1="46" x2="25" y2="46">
					<stop  offset="0" style="stop-color:#F59900"/>
					<stop  offset="1" style="stop-color:#CA8608"/>
				</linearGradient>
				<path fill="none" stroke="url(#SVGID_37_)" stroke-width="2" stroke-linejoin="round" stroke-miterlimit="10" d="M20,38
					c0,5,4,10,4,10v6"/>
				
					<linearGradient id="SVGID_38_" gradientUnits="userSpaceOnUse" x1="20.1111107" y1="31.5555553" x2="36.7071075" y2="31.5555553">
					<stop  offset="0" style="stop-color:#F59900"/>
					<stop  offset="1" style="stop-color:#CA8608"/>
				</linearGradient>
				<path fill="none" stroke="url(#SVGID_38_)" stroke-width="2" stroke-linejoin="round" stroke-miterlimit="10" d="M36,29l-9-9
					c0,0-3-2-5,0s0,5,0,5l7,7c0,3.3134995,2.6864948,12,6,12"/>
				<linearGradient id="SVGID_39_" gradientUnits="userSpaceOnUse" x1="16" y1="18" x2="18" y2="18">
					<stop  offset="0" style="stop-color:#F59900"/>
					<stop  offset="1" style="stop-color:#CA8608"/>
				</linearGradient>
				
					<line fill="none" stroke="url(#SVGID_39_)" stroke-width="2" stroke-linejoin="round" stroke-miterlimit="10" x1="17" y1="1" x2="17" y2="35"/>
				<linearGradient id="SVGID_40_" gradientUnits="userSpaceOnUse" x1="20" y1="10" x2="22" y2="10">
					<stop  offset="0" style="stop-color:#F59900"/>
					<stop  offset="1" style="stop-color:#CA8608"/>
				</linearGradient>
				
					<line fill="none" stroke="url(#SVGID_40_)" stroke-width="2" stroke-linejoin="round" stroke-miterlimit="10" x1="21" y1="4" x2="21" y2="16"/>
				<linearGradient id="SVGID_41_" gradientUnits="userSpaceOnUse" x1="21" y1="58" x2="44" y2="58">
					<stop  offset="0" style="stop-color:#F59900"/>
					<stop  offset="1" style="stop-color:#CA8608"/>
				</linearGradient>
				<polyline fill="none" stroke="url(#SVGID_41_)" stroke-width="2" stroke-linejoin="round" stroke-miterlimit="10" points="
					22,64 22,53 43,53 43,64 				"/>
				<linearGradient id="SVGID_42_" gradientUnits="userSpaceOnUse" x1="25" y1="57" x2="27" y2="57">
					<stop  offset="0" style="stop-color:#F59900"/>
					<stop  offset="1" style="stop-color:#CA8608"/>
				</linearGradient>
				
					<line fill="none" stroke="url(#SVGID_42_)" stroke-width="2" stroke-linejoin="round" stroke-miterlimit="10" x1="25" y1="57" x2="27" y2="57"/>
				<linearGradient id="SVGID_43_" gradientUnits="userSpaceOnUse" x1="25" y1="61" x2="27" y2="61">
					<stop  offset="0" style="stop-color:#F59900"/>
					<stop  offset="1" style="stop-color:#CA8608"/>
				</linearGradient>
				
					<line fill="none" stroke="url(#SVGID_43_)" stroke-width="2" stroke-linejoin="round" stroke-miterlimit="10" x1="25" y1="61" x2="27" y2="61"/>
				<linearGradient id="SVGID_44_" gradientUnits="userSpaceOnUse" x1="24" y1="6" x2="26" y2="6">
					<stop  offset="0" style="stop-color:#F59900"/>
					<stop  offset="1" style="stop-color:#CA8608"/>
				</linearGradient>
				
					<line fill="none" stroke="url(#SVGID_44_)" stroke-width="2" stroke-linejoin="round" stroke-miterlimit="10" x1="25" y1="4" x2="25" y2="8"/>
				<linearGradient id="SVGID_45_" gradientUnits="userSpaceOnUse" x1="24" y1="11" x2="26" y2="11">
					<stop  offset="0" style="stop-color:#F59900"/>
					<stop  offset="1" style="stop-color:#CA8608"/>
				</linearGradient>
				
					<line fill="none" stroke="url(#SVGID_45_)" stroke-width="2" stroke-linejoin="round" stroke-miterlimit="10" x1="25" y1="10" x2="25" y2="12"/>
			</g>
			<linearGradient id="SVGID_46_" gradientUnits="userSpaceOnUse" x1="0" y1="32" x2="19" y2="32">
				<stop  offset="0" style="stop-color:#F59900"/>
				<stop  offset="1" style="stop-color:#CA8608"/>
			</linearGradient>
			<path fill="none" stroke="url(#SVGID_46_)" stroke-width="2" stroke-linejoin="round" stroke-miterlimit="10" d="M19,59H4
				c-1.6562049,0-3-1.3437004-3-3V8c0-1.6561999,1.3437951-3,3-3h4"/>
			<linearGradient id="SVGID_47_" gradientUnits="userSpaceOnUse" x1="37" y1="32" x2="56" y2="32">
				<stop  offset="0" style="stop-color:#F59900"/>
				<stop  offset="1" style="stop-color:#CA8608"/>
			</linearGradient>
			<path fill="none" stroke="url(#SVGID_47_)" stroke-width="2" stroke-linejoin="round" stroke-miterlimit="10" d="M37,5h15
				c1.656292,0,3,1.3438001,3,3v48c0,1.6562996-1.343708,3-3,3h-6"/>
			<linearGradient id="SVGID_48_" gradientUnits="userSpaceOnUse" x1="37" y1="9" x2="55" y2="9">
				<stop  offset="0" style="stop-color:#F59900"/>
				<stop  offset="1" style="stop-color:#CA8608"/>
			</linearGradient>
			
				<line fill="none" stroke="url(#SVGID_48_)" stroke-width="2" stroke-linejoin="round" stroke-miterlimit="10" x1="55" y1="9" x2="37" y2="9"/>
			<linearGradient id="SVGID_49_" gradientUnits="userSpaceOnUse" x1="1" y1="55" x2="19" y2="55">
				<stop  offset="0" style="stop-color:#F59900"/>
				<stop  offset="1" style="stop-color:#CA8608"/>
			</linearGradient>
			
				<line fill="none" stroke="url(#SVGID_49_)" stroke-width="2" stroke-linejoin="round" stroke-miterlimit="10" x1="1" y1="55" x2="19" y2="55"/>
		</g>
	</g>
</g>
<g display="none">
	<linearGradient id="SVGID_50_" gradientUnits="userSpaceOnUse" x1="232" y1="12.5" x2="240" y2="12.5">
		<stop  offset="0" style="stop-color:#F59900"/>
		<stop  offset="1" style="stop-color:#CA8608"/>
	</linearGradient>
	<polyline display="inline" fill="none" stroke="url(#SVGID_50_)" stroke-width="2" stroke-miterlimit="10" points="239,16.5 
		239,9.5 232,9.5 	"/>
	
		<linearGradient id="SVGID_51_" gradientUnits="userSpaceOnUse" x1="208.5319824" y1="18.1195507" x2="239.7071075" y2="18.1195507">
		<stop  offset="0" style="stop-color:#F59900"/>
		<stop  offset="1" style="stop-color:#CA8608"/>
	</linearGradient>
	<polyline display="inline" fill="none" stroke="url(#SVGID_51_)" stroke-width="2" stroke-miterlimit="10" points="239,9.5 
		222.5651855,25.9347992 216.3042908,19.6739006 209.23909,26.7390995 	"/>
	<linearGradient id="SVGID_52_" gradientUnits="userSpaceOnUse" x1="180" y1="52.5" x2="244" y2="52.5">
		<stop  offset="0" style="stop-color:#F59900"/>
		<stop  offset="1" style="stop-color:#CA8608"/>
	</linearGradient>
	<polygon display="inline" fill="none" stroke="url(#SVGID_52_)" stroke-width="2" stroke-miterlimit="10" points="239,55.5 
		185,55.5 181,51.5 181,49.5 205,49.5 207,51.5 217,51.5 219,49.5 243,49.5 243,51.5 	"/>
	<linearGradient id="SVGID_53_" gradientUnits="userSpaceOnUse" x1="184" y1="27.5" x2="228" y2="27.5">
		<stop  offset="0" style="stop-color:#F59900"/>
		<stop  offset="1" style="stop-color:#CA8608"/>
	</linearGradient>
	<path display="inline" fill="none" stroke="url(#SVGID_53_)" stroke-width="2" stroke-miterlimit="10" d="M228,9.5h-40
		c-1.6562042,0-3,1.3428001-3,3v34"/>
	<linearGradient id="SVGID_54_" gradientUnits="userSpaceOnUse" x1="238" y1="33.5" x2="240" y2="33.5">
		<stop  offset="0" style="stop-color:#F59900"/>
		<stop  offset="1" style="stop-color:#CA8608"/>
	</linearGradient>
	
		<line display="inline" fill="none" stroke="url(#SVGID_54_)" stroke-width="2" stroke-miterlimit="10" x1="239" y1="46.5" x2="239" y2="20.5"/>
	<linearGradient id="SVGID_55_" gradientUnits="userSpaceOnUse" x1="188" y1="28.5" x2="236" y2="28.5">
		<stop  offset="0" style="stop-color:#F59900"/>
		<stop  offset="1" style="stop-color:#CA8608"/>
	</linearGradient>
	<polyline display="inline" fill="none" stroke="url(#SVGID_55_)" stroke-width="2" stroke-miterlimit="10" points="228,13.5 
		189,13.5 189,43.5 235,43.5 235,20.5 	"/>
	<linearGradient id="SVGID_56_" gradientUnits="userSpaceOnUse" x1="199" y1="39.5" x2="201" y2="39.5">
		<stop  offset="0" style="stop-color:#F59900"/>
		<stop  offset="1" style="stop-color:#CA8608"/>
	</linearGradient>
	
		<line display="inline" fill="none" stroke="url(#SVGID_56_)" stroke-width="2" stroke-miterlimit="10" x1="200" y1="40.5" x2="200" y2="38.5"/>
	<linearGradient id="SVGID_57_" gradientUnits="userSpaceOnUse" x1="211" y1="34.5" x2="213" y2="34.5">
		<stop  offset="0" style="stop-color:#F59900"/>
		<stop  offset="1" style="stop-color:#CA8608"/>
	</linearGradient>
	
		<line display="inline" fill="none" stroke="url(#SVGID_57_)" stroke-width="2" stroke-miterlimit="10" x1="212" y1="40.5" x2="212" y2="28.5"/>
	<linearGradient id="SVGID_58_" gradientUnits="userSpaceOnUse" x1="215" y1="32.5" x2="217" y2="32.5">
		<stop  offset="0" style="stop-color:#F59900"/>
		<stop  offset="1" style="stop-color:#CA8608"/>
	</linearGradient>
	
		<line display="inline" fill="none" stroke="url(#SVGID_58_)" stroke-width="2" stroke-miterlimit="10" x1="216" y1="40.5" x2="216" y2="24.5"/>
	<linearGradient id="SVGID_59_" gradientUnits="userSpaceOnUse" x1="219" y1="35" x2="221" y2="35">
		<stop  offset="0" style="stop-color:#F59900"/>
		<stop  offset="1" style="stop-color:#CA8608"/>
	</linearGradient>
	
		<line display="inline" fill="none" stroke="url(#SVGID_59_)" stroke-width="2" stroke-miterlimit="10" x1="220" y1="40.5" x2="220" y2="29.5"/>
	<linearGradient id="SVGID_60_" gradientUnits="userSpaceOnUse" x1="223" y1="35.5" x2="225" y2="35.5">
		<stop  offset="0" style="stop-color:#F59900"/>
		<stop  offset="1" style="stop-color:#CA8608"/>
	</linearGradient>
	
		<line display="inline" fill="none" stroke="url(#SVGID_60_)" stroke-width="2" stroke-miterlimit="10" x1="224" y1="40.5" x2="224" y2="30.5"/>
	<linearGradient id="SVGID_61_" gradientUnits="userSpaceOnUse" x1="227" y1="33" x2="229" y2="33">
		<stop  offset="0" style="stop-color:#F59900"/>
		<stop  offset="1" style="stop-color:#CA8608"/>
	</linearGradient>
	
		<line display="inline" fill="none" stroke="url(#SVGID_61_)" stroke-width="2" stroke-miterlimit="10" x1="228" y1="40.5" x2="228" y2="25.5"/>
	<g display="inline">
		<linearGradient id="SVGID_62_" gradientUnits="userSpaceOnUse" x1="197.5" y1="29.7000008" x2="206.5" y2="29.7000008">
			<stop  offset="0" style="stop-color:#F59900"/>
			<stop  offset="1" style="stop-color:#CA8608"/>
		</linearGradient>
		<path fill="none" stroke="url(#SVGID_62_)" stroke-width="2" stroke-miterlimit="10" d="M205.5,29.3500004
			c0,2.4499989-1.3739929,4.5500011-3.5,4.5500011s-3.5-2.1000023-3.5-4.5500011S199.1999969,25.5,202,25.5
			S205.5,26.8999996,205.5,29.3500004z"/>
		<linearGradient id="SVGID_63_" gradientUnits="userSpaceOnUse" x1="194" y1="36.4158783" x2="210" y2="36.4158783">
			<stop  offset="0" style="stop-color:#F59900"/>
			<stop  offset="1" style="stop-color:#CA8608"/>
		</linearGradient>
		<path fill="none" stroke="url(#SVGID_63_)" stroke-width="2" stroke-miterlimit="10" d="M204.1000061,33.2000008L209,36
			c0,0,0,0.2406998,0,1.4000015C209,38.5600014,208.3000031,39.5,207.6000061,39.5h-11.2000122
			C195.6999969,39.5,195,38.5600014,195,37.4000015C195,36.2406998,195,36,195,36l4.8999939-2.7999992"/>
	</g>
</g>
</svg>
