<?xml version="1.0" encoding="utf-8"?>
<!-- Generator: Adobe Illustrator 21.1.0, SVG Export Plug-In . SVG Version: 6.00 Build 0)  -->
<svg version="1.1" id="Слой_1" xmlns="http://www.w3.org/2000/svg" xmlns:xlink="http://www.w3.org/1999/xlink" x="0px" y="0px"
	 viewBox="0 0 57.1111107 57" enable-background="new 0 0 57.1111107 57" xml:space="preserve">
<g>
	<linearGradient id="SVGID_1_" gradientUnits="userSpaceOnUse" x1="34.5746078" y1="10.4634962" x2="1.5746077" y2="43.4634972">
		<stop  offset="0" style="stop-color:#F59900"/>
		<stop  offset="1" style="stop-color:#CA8608"/>
	</linearGradient>
	<path fill="none" stroke="url(#SVGID_1_)" stroke-width="2" stroke-miterlimit="10" d="M24.1111107,1
		C13.8020449,1,5.4444447,9.3576002,5.4444447,19.666666L1,31.2222214V33h4.4444447v8
		c0,2.9462204,2.388,5.3333321,5.333333,5.3333321h5.333333V57"/>
	<g>
		<linearGradient id="SVGID_2_" gradientUnits="userSpaceOnUse" x1="18.6111107" y1="45.1666679" x2="16.2777786" y2="47.5">
			<stop  offset="0" style="stop-color:#F59900"/>
			<stop  offset="1" style="stop-color:#CA8608"/>
		</linearGradient>
		
			<line fill="none" stroke="url(#SVGID_2_)" stroke-width="2" stroke-linejoin="round" stroke-miterlimit="10" x1="16.1111107" y1="46.3333321" x2="18.7777786" y2="46.3333321"/>
	</g>
	<g>
		<linearGradient id="SVGID_3_" gradientUnits="userSpaceOnUse" x1="32.1666679" y1="10.7222223" x2="30.2777786" y2="12.6111107">
			<stop  offset="0" style="stop-color:#F59900"/>
			<stop  offset="1" style="stop-color:#CA8608"/>
		</linearGradient>
		
			<line fill="none" stroke="url(#SVGID_3_)" stroke-width="2" stroke-linejoin="round" stroke-miterlimit="10" x1="30.333334" y1="11.666667" x2="32.1111107" y2="11.666667"/>
		<polyline fill="none" stroke="#CA8608" stroke-width="2" stroke-linejoin="round" stroke-miterlimit="10" points="
			35.6666679,14.333333 28.5555553,21.4444447 25,17.8888893 		"/>
		<path fill="none" stroke="#CA8608" stroke-width="2" stroke-linejoin="round" stroke-miterlimit="10" d="M36.5555573,19.666666
			c0,4.4183998-3.5816002,8-8.0000019,8c-4.4184093,0-8-3.5816002-8-8s3.5815907-7.999999,8-7.999999"/>
	</g>
	<linearGradient id="SVGID_4_" gradientUnits="userSpaceOnUse" x1="15.2777777" y1="21.3888893" x2="13.3888893" y2="23.2777786">
		<stop  offset="0" style="stop-color:#F59900"/>
		<stop  offset="1" style="stop-color:#CA8608"/>
	</linearGradient>
	
		<line fill="none" stroke="url(#SVGID_4_)" stroke-width="2" stroke-miterlimit="10" x1="14.333333" y1="21.4444447" x2="14.333333" y2="23.2222214"/>
	<g>
		
			<line fill="none" stroke="#CA8608" stroke-width="2" stroke-linejoin="round" stroke-miterlimit="10" x1="41" y1="46.3333321" x2="38.3333321" y2="46.3333321"/>
	</g>
	<path fill="none" stroke="#CA8608" stroke-width="2" stroke-miterlimit="10" d="M14.333333,19.666666
		C14.333333,9.3576002,22.6909332,1,33,1s18.6666679,8.3576002,18.6666679,18.666666l4.4444427,11.5555553V33h-4.4444427v8
		c0,2.9462204-2.3880005,5.3333321-5.3333359,5.3333321H41V57"/>
	<path fill="none" stroke="#CA8608" stroke-width="2" stroke-miterlimit="10" d="M35.6666679,57V46.3333321
		c0-8.8888893,7.1111107-14.5798206,7.1111107-24.8888874V19.666666"/>
	
		<line fill="none" stroke="#CA8608" stroke-width="2" stroke-miterlimit="10" x1="42.7777786" y1="16.1111107" x2="42.7777786" y2="17.8888893"/>
</g>
<g display="none">
	
		<linearGradient id="SVGID_5_" gradientUnits="userSpaceOnUse" x1="-143.5908966" y1="30.3535538" x2="-177.2980042" y2="64.0606613">
		<stop  offset="0" style="stop-color:#F59900"/>
		<stop  offset="1" style="stop-color:#CA8608"/>
	</linearGradient>
	<polygon display="inline" fill="none" stroke="url(#SVGID_5_)" stroke-width="2" stroke-miterlimit="10" points="
		-133.4444427,52.5 -187.4444427,52.5 -191.4444427,48.5 -191.4444427,46.5 -167.4444427,46.5 -165.4444427,48.5 -155.4444427,48.5 
		-153.4444427,46.5 -129.4444427,46.5 -129.4444427,48.5 	"/>
	
		<linearGradient id="SVGID_6_" gradientUnits="userSpaceOnUse" x1="-170.8586273" y1="11.0858164" x2="-195.8586273" y2="36.0858154">
		<stop  offset="0" style="stop-color:#F59900"/>
		<stop  offset="1" style="stop-color:#CA8608"/>
	</linearGradient>
	<path display="inline" fill="none" stroke="url(#SVGID_6_)" stroke-width="2" stroke-miterlimit="10" d="M-172.4444427,10.5h-12
		c-1.6562042,0-3,1.3428068-3,3v30"/>
	<linearGradient id="SVGID_7_" gradientUnits="userSpaceOnUse" x1="-129.1160583" y1="15.1716137" x2="-145.9444427" y2="32">
		<stop  offset="0" style="stop-color:#F59900"/>
		<stop  offset="1" style="stop-color:#CA8608"/>
	</linearGradient>
	<path display="inline" fill="none" stroke="url(#SVGID_7_)" stroke-width="2" stroke-miterlimit="10" d="M-133.4444427,43.5v-30
		c0-1.6571932-1.3437042-3-3-3h-12"/>
	<linearGradient id="SVGID_8_" gradientUnits="userSpaceOnUse" x1="-168.4444427" y1="15.5" x2="-189.4444427" y2="36.5">
		<stop  offset="0" style="stop-color:#F59900"/>
		<stop  offset="1" style="stop-color:#CA8608"/>
	</linearGradient>
	<polyline display="inline" fill="none" stroke="url(#SVGID_8_)" stroke-width="2" stroke-miterlimit="10" points="
		-176.4444427,40.5 -183.4444427,40.5 -183.4444427,14.5 -170.4444427,14.5 	"/>
	<linearGradient id="SVGID_9_" gradientUnits="userSpaceOnUse" x1="-159.4444427" y1="21.5" x2="-161.4444427" y2="23.5">
		<stop  offset="0" style="stop-color:#F59900"/>
		<stop  offset="1" style="stop-color:#CA8608"/>
	</linearGradient>
	
		<line display="inline" fill="none" stroke="url(#SVGID_9_)" stroke-width="2" stroke-miterlimit="10" x1="-159.4444427" y1="22.5" x2="-161.4444427" y2="22.5"/>
	<linearGradient id="SVGID_10_" gradientUnits="userSpaceOnUse" x1="-159.4444427" y1="17.5" x2="-161.4444427" y2="19.5">
		<stop  offset="0" style="stop-color:#F59900"/>
		<stop  offset="1" style="stop-color:#CA8608"/>
	</linearGradient>
	
		<line display="inline" fill="none" stroke="url(#SVGID_10_)" stroke-width="2" stroke-miterlimit="10" x1="-159.4444427" y1="18.5" x2="-161.4444427" y2="18.5"/>
	<linearGradient id="SVGID_11_" gradientUnits="userSpaceOnUse" x1="-159.4444427" y1="25.5" x2="-161.4444427" y2="27.5">
		<stop  offset="0" style="stop-color:#F59900"/>
		<stop  offset="1" style="stop-color:#CA8608"/>
	</linearGradient>
	
		<line display="inline" fill="none" stroke="url(#SVGID_11_)" stroke-width="2" stroke-miterlimit="10" x1="-159.4444427" y1="26.5" x2="-161.4444427" y2="26.5"/>
	
		<line display="inline" fill="none" stroke="#CA8608" stroke-width="2" stroke-miterlimit="10" x1="-162.4444427" y1="30.5" x2="-155.4444427" y2="30.5"/>
	
		<line display="inline" fill="none" stroke="#CA8608" stroke-width="2" stroke-miterlimit="10" x1="-162.4444427" y1="14.5" x2="-155.4444427" y2="14.5"/>
	<polyline display="inline" fill="none" stroke="#CA8608" stroke-width="2" stroke-miterlimit="10" points="-146.4444427,36.5 
		-173.4444427,36.5 -173.4444427,40.5 -137.4444427,40.5 -137.4444427,14.5 -150.4444427,14.5 	"/>
	<polyline display="inline" fill="none" stroke="#CA8608" stroke-width="2" stroke-miterlimit="10" points="-169.4444427,36.5 
		-169.4444427,34.5 -165.4444427,30.5 -165.4444427,14.5 -169.4444427,10.5 -169.4444427,8.5 -164.4444427,8.5 -164.4444427,4.5 	
		"/>
	<polyline display="inline" fill="none" stroke="#CA8608" stroke-width="2" stroke-miterlimit="10" points="-151.4444427,36.5 
		-151.4444427,34.5 -155.4444427,30.5 -155.4444427,14.5 -151.4444427,10.5 -151.4444427,8.5 -161.4444427,8.5 	"/>
	
		<line display="inline" fill="none" stroke="#CA8608" stroke-width="2" stroke-miterlimit="10" x1="-156.4444427" y1="4.5" x2="-156.4444427" y2="8.5"/>
	<polyline display="inline" fill="none" stroke="#CA8608" stroke-width="2" stroke-miterlimit="10" points="-152.4444427,0.5 
		-157.4444427,0.5 -157.4444427,-3.5 -163.4444427,-3.5 -163.4444427,0.5 -168.4444427,0.5 	"/>
	<polyline display="inline" fill="none" stroke="#CA8608" stroke-width="2" stroke-miterlimit="10" points="-166.4444427,-3.5 
		-171.4444427,-3.5 -171.4444427,2.5 -169.4444427,4.5 -151.4444427,4.5 -149.4444427,2.5 -149.4444427,-3.5 -154.4444427,-3.5 	"/>
</g>
<g display="none">
	<g display="inline">
		<g>
			
				<linearGradient id="SVGID_12_" gradientUnits="userSpaceOnUse" x1="-35.2508965" y1="0.6935484" x2="-89.6379929" y2="55.0806465">
				<stop  offset="0" style="stop-color:#F59900"/>
				<stop  offset="1" style="stop-color:#CA8608"/>
			</linearGradient>
			<polyline fill="none" stroke="url(#SVGID_12_)" stroke-width="2" stroke-miterlimit="10" points="-80.5089569,52.2741928 
				-90.4444427,52.2741928 -90.4444427,3.5 -34.4444427,3.5 -34.4444427,52.2741928 -44.3799286,52.2741928 			"/>
			
				<linearGradient id="SVGID_13_" gradientUnits="userSpaceOnUse" x1="-47.9444427" y1="-3.7741935" x2="-76.9444427" y2="25.2258072">
				<stop  offset="0" style="stop-color:#F59900"/>
				<stop  offset="1" style="stop-color:#CA8608"/>
			</linearGradient>
			
				<line fill="none" stroke="url(#SVGID_13_)" stroke-width="2" stroke-miterlimit="10" x1="-90.4444427" y1="10.7258062" x2="-34.4444427" y2="10.7258062"/>
			
				<linearGradient id="SVGID_14_" gradientUnits="userSpaceOnUse" x1="-85.8799286" y1="6.1612902" x2="-87.7831573" y2="8.0645161">
				<stop  offset="0" style="stop-color:#F59900"/>
				<stop  offset="1" style="stop-color:#CA8608"/>
			</linearGradient>
			
				<line fill="none" stroke="url(#SVGID_14_)" stroke-width="2" stroke-miterlimit="10" x1="-87.7347641" y1="7.1129031" x2="-85.9283142" y2="7.1129031"/>
			
				<linearGradient id="SVGID_15_" gradientUnits="userSpaceOnUse" x1="-82.2670288" y1="6.1612902" x2="-84.1702499" y2="8.0645161">
				<stop  offset="0" style="stop-color:#F59900"/>
				<stop  offset="1" style="stop-color:#CA8608"/>
			</linearGradient>
			
				<line fill="none" stroke="url(#SVGID_15_)" stroke-width="2" stroke-miterlimit="10" x1="-84.1218643" y1="7.1129031" x2="-82.3154144" y2="7.1129031"/>
			
				<linearGradient id="SVGID_16_" gradientUnits="userSpaceOnUse" x1="-78.6541214" y1="6.1612902" x2="-80.5573502" y2="8.0645161">
				<stop  offset="0" style="stop-color:#F59900"/>
				<stop  offset="1" style="stop-color:#CA8608"/>
			</linearGradient>
			
				<line fill="none" stroke="url(#SVGID_16_)" stroke-width="2" stroke-miterlimit="10" x1="-80.5089569" y1="7.1129031" x2="-78.702507" y2="7.1129031"/>
			
				<linearGradient id="SVGID_17_" gradientUnits="userSpaceOnUse" x1="-73.6863785" y1="4.8064518" x2="-78.2992859" y2="9.4193544">
				<stop  offset="0" style="stop-color:#F59900"/>
				<stop  offset="1" style="stop-color:#CA8608"/>
			</linearGradient>
			
				<line fill="none" stroke="url(#SVGID_17_)" stroke-width="2" stroke-miterlimit="10" x1="-75.9928284" y1="3.5" x2="-75.9928284" y2="10.7258062"/>
			
				<linearGradient id="SVGID_18_" gradientUnits="userSpaceOnUse" x1="-45.6863785" y1="-2.4193549" x2="-64.7508926" y2="16.6451607">
				<stop  offset="0" style="stop-color:#F59900"/>
				<stop  offset="1" style="stop-color:#CA8608"/>
			</linearGradient>
			
				<line fill="none" stroke="url(#SVGID_18_)" stroke-width="2" stroke-miterlimit="10" x1="-73.2831573" y1="7.1129031" x2="-37.1541214" y2="7.1129031"/>
			<polyline fill="none" stroke="#CA8608" stroke-width="2" stroke-miterlimit="10" points="-80.5089569,48.6612892 
				-86.831543,48.6612892 -86.831543,14.3387098 -38.0573463,14.3387098 -38.0573463,48.6612892 -44.3799286,48.6612892 			"/>
		</g>
		
			<linearGradient id="SVGID_19_" gradientUnits="userSpaceOnUse" x1="-75.4928284" y1="14.7419357" x2="-81.9121857" y2="21.1612911">
			<stop  offset="0" style="stop-color:#F59900"/>
			<stop  offset="1" style="stop-color:#CA8608"/>
		</linearGradient>
		
			<line fill="none" stroke="url(#SVGID_19_)" stroke-width="2" stroke-miterlimit="10" x1="-84.1218643" y1="17.9516125" x2="-73.2831573" y2="17.9516125"/>
		
			<linearGradient id="SVGID_20_" gradientUnits="userSpaceOnUse" x1="-72.7831573" y1="17.4516125" x2="-81.0089569" y2="25.6774197">
			<stop  offset="0" style="stop-color:#F59900"/>
			<stop  offset="1" style="stop-color:#CA8608"/>
		</linearGradient>
		
			<line fill="none" stroke="url(#SVGID_20_)" stroke-width="2" stroke-miterlimit="10" x1="-84.1218643" y1="21.5645161" x2="-69.6702499" y2="21.5645161"/>
		<linearGradient id="SVGID_21_" gradientUnits="userSpaceOnUse" x1="-76.8476715" y1="22.4193554" x2="-82.3638" y2="27.9354839">
			<stop  offset="0" style="stop-color:#F59900"/>
			<stop  offset="1" style="stop-color:#CA8608"/>
		</linearGradient>
		
			<line fill="none" stroke="url(#SVGID_21_)" stroke-width="2" stroke-miterlimit="10" x1="-84.1218643" y1="25.1774197" x2="-75.0896072" y2="25.1774197"/>
		
			<linearGradient id="SVGID_22_" gradientUnits="userSpaceOnUse" x1="-63.2992821" y1="19.7096767" x2="-67.0089569" y2="23.4193554">
			<stop  offset="0" style="stop-color:#F59900"/>
			<stop  offset="1" style="stop-color:#CA8608"/>
		</linearGradient>
		
			<line fill="none" stroke="url(#SVGID_22_)" stroke-width="2" stroke-miterlimit="10" x1="-67.8638" y1="21.5645161" x2="-62.4444427" y2="21.5645161"/>
		<linearGradient id="SVGID_23_" gradientUnits="userSpaceOnUse" x1="-53.3638" y1="18.8064518" x2="-58.8799286" y2="24.3225803">
			<stop  offset="0" style="stop-color:#F59900"/>
			<stop  offset="1" style="stop-color:#CA8608"/>
		</linearGradient>
		
			<line fill="none" stroke="url(#SVGID_23_)" stroke-width="2" stroke-miterlimit="10" x1="-60.6379929" y1="21.5645161" x2="-51.6057358" y2="21.5645161"/>
		
			<linearGradient id="SVGID_24_" gradientUnits="userSpaceOnUse" x1="-68.7186356" y1="23.3225803" x2="-72.4283142" y2="27.032259">
			<stop  offset="0" style="stop-color:#F59900"/>
			<stop  offset="1" style="stop-color:#CA8608"/>
		</linearGradient>
		
			<line fill="none" stroke="url(#SVGID_24_)" stroke-width="2" stroke-miterlimit="10" x1="-73.2831573" y1="25.1774197" x2="-67.8638" y2="25.1774197"/>
		
			<linearGradient id="SVGID_25_" gradientUnits="userSpaceOnUse" x1="-78.202507" y1="26.4838715" x2="-82.8154144" y2="31.0967751">
			<stop  offset="0" style="stop-color:#F59900"/>
			<stop  offset="1" style="stop-color:#CA8608"/>
		</linearGradient>
		
			<line fill="none" stroke="url(#SVGID_25_)" stroke-width="2" stroke-miterlimit="10" x1="-84.1218643" y1="28.7903233" x2="-76.8960571" y2="28.7903233"/>
		
			<linearGradient id="SVGID_26_" gradientUnits="userSpaceOnUse" x1="-65.5573502" y1="15.6451616" x2="-70.1702499" y2="20.2580643">
			<stop  offset="0" style="stop-color:#F59900"/>
			<stop  offset="1" style="stop-color:#CA8608"/>
		</linearGradient>
		
			<line fill="none" stroke="url(#SVGID_26_)" stroke-width="2" stroke-miterlimit="10" x1="-71.4766998" y1="17.9516125" x2="-64.2508926" y2="17.9516125"/>
		
			<linearGradient id="SVGID_27_" gradientUnits="userSpaceOnUse" x1="-55.9892006" y1="36.7866898" x2="-68.8996964" y2="49.6971817">
			<stop  offset="0" style="stop-color:#F59900"/>
			<stop  offset="1" style="stop-color:#CA8608"/>
		</linearGradient>
		
			<circle fill="none" stroke="url(#SVGID_27_)" stroke-width="2" stroke-miterlimit="10" cx="-62.4444427" cy="43.2419357" r="8.1290321"/>
		<path fill="none" stroke="#CA8608" stroke-width="2" stroke-linejoin="round" stroke-miterlimit="10" d="M-47.8569946,36.0972404
			l-4.9412766,0.1367455l1.6582298-4.6616383c-1.0946159-1.0620117-2.3347473-1.9713802-3.6922951-2.6920643l-3.9277687,3.0219231
			l-1.3962975-4.7384129c-0.7497673-0.1058578-1.5091972-0.1799221-2.2880402-0.1799221
			c-0.778862,0-1.5382919,0.0740643-2.288063,0.1799221l-1.3962936,4.7384129l-3.9277725-3.0219231
			c-1.3575439,0.7206841-2.5976715,1.6300526-3.6922913,2.6920643l1.6582336,4.6616383l-4.9412842-0.1367455
			c-0.6650391,1.3557396-1.1466446,2.8138161-1.4139023,4.3503838l4.0786057,2.7943115l-4.0786057,2.7943993
			c0.2672577,1.5364761,0.7488632,2.9945564,1.4139023,4.350296l4.9412842-0.1367455l-1.6582336,4.6616364
			c1.0946198,1.0620117,2.3347473,1.9713821,3.6922913,2.6920662l3.9277725-3.0219231l1.3962936,4.7384109
			C-63.9827347,59.4259338-63.2233047,59.5-62.4444427,59.5c0.7788429,0,1.5382729-0.0740662,2.2880402-0.179924
			l1.3962975-4.7384109l3.9277687,3.0219231c1.3575478-0.7206841,2.5976791-1.6300545,3.6922951-2.6920662l-1.6582298-4.6616364
			l4.9412766,0.1367455c0.6650467-1.3557396,1.1466446-2.8138199,1.4139099-4.350296l-4.0786057-2.7943993l4.0786057-2.7943115
			C-46.71035,38.9110565-47.1919479,37.45298-47.8569946,36.0972404z"/>
		<circle fill="none" stroke="#CA8608" stroke-width="2" stroke-miterlimit="10" cx="-62.4444427" cy="43.2419357" r="4.516129"/>
	</g>
</g>
<g display="none">
	<g display="inline">
		<g>
			<g>
				
					<linearGradient id="SVGID_28_" gradientUnits="userSpaceOnUse" x1="-247.8995056" y1="49.1853943" x2="-250.9893951" y2="52.27528">
					<stop  offset="0" style="stop-color:#F59900"/>
					<stop  offset="1" style="stop-color:#CA8608"/>
				</linearGradient>
				
					<line fill="none" stroke="url(#SVGID_28_)" stroke-width="2" stroke-miterlimit="10" x1="-249.4444427" y1="48.6404495" x2="-249.4444427" y2="52.8202248"/>
				
					<linearGradient id="SVGID_29_" gradientUnits="userSpaceOnUse" x1="-247.2595825" y1="52.7252655" x2="-251.6292877" y2="57.0949593">
					<stop  offset="0" style="stop-color:#F59900"/>
					<stop  offset="1" style="stop-color:#CA8608"/>
				</linearGradient>
				
					<circle fill="none" stroke="url(#SVGID_29_)" stroke-width="2" stroke-miterlimit="10" cx="-249.4444427" cy="54.9101105" r="2.0898876"/>
				
					<linearGradient id="SVGID_30_" gradientUnits="userSpaceOnUse" x1="-256.0848999" y1="49.3595505" x2="-267.1860046" y2="60.4606743">
					<stop  offset="0" style="stop-color:#F59900"/>
					<stop  offset="1" style="stop-color:#CA8608"/>
				</linearGradient>
				
					<line fill="none" stroke="url(#SVGID_30_)" stroke-width="2" stroke-miterlimit="10" x1="-251.5343323" y1="54.9101105" x2="-271.7365723" y2="54.9101105"/>
				
					<linearGradient id="SVGID_31_" gradientUnits="userSpaceOnUse" x1="-231.7028656" y1="49.3595505" x2="-242.8040009" y2="60.4606743">
					<stop  offset="0" style="stop-color:#F59900"/>
					<stop  offset="1" style="stop-color:#CA8608"/>
				</linearGradient>
				
					<line fill="none" stroke="url(#SVGID_31_)" stroke-width="2" stroke-miterlimit="10" x1="-227.1523132" y1="54.9101105" x2="-247.3545532" y2="54.9101105"/>
				
					<linearGradient id="SVGID_32_" gradientUnits="userSpaceOnUse" x1="-248.5961304" y1="43.6123581" x2="-250.2927551" y2="45.3089905">
					<stop  offset="0" style="stop-color:#F59900"/>
					<stop  offset="1" style="stop-color:#CA8608"/>
				</linearGradient>
				
					<line fill="none" stroke="url(#SVGID_32_)" stroke-width="2" stroke-miterlimit="10" x1="-250.1410675" y1="44.4606743" x2="-248.747818" y2="44.4606743"/>
				
					<linearGradient id="SVGID_33_" gradientUnits="userSpaceOnUse" x1="-251.3826447" y1="43.6123581" x2="-253.0792694" y2="45.3089905">
					<stop  offset="0" style="stop-color:#F59900"/>
					<stop  offset="1" style="stop-color:#CA8608"/>
				</linearGradient>
				
					<line fill="none" stroke="url(#SVGID_33_)" stroke-width="2" stroke-miterlimit="10" x1="-252.927597" y1="44.4606743" x2="-251.5343323" y2="44.4606743"/>
				
					<linearGradient id="SVGID_34_" gradientUnits="userSpaceOnUse" x1="-245.8096161" y1="43.6123581" x2="-247.5062408" y2="45.3089905">
					<stop  offset="0" style="stop-color:#F59900"/>
					<stop  offset="1" style="stop-color:#CA8608"/>
				</linearGradient>
				
					<line fill="none" stroke="url(#SVGID_34_)" stroke-width="2" stroke-miterlimit="10" x1="-247.3545532" y1="44.4606743" x2="-245.9613037" y2="44.4606743"/>
				
					<linearGradient id="SVGID_35_" gradientUnits="userSpaceOnUse" x1="-248.5961304" y1="35.2528076" x2="-250.2927551" y2="36.94944">
					<stop  offset="0" style="stop-color:#F59900"/>
					<stop  offset="1" style="stop-color:#CA8608"/>
				</linearGradient>
				
					<line fill="none" stroke="url(#SVGID_35_)" stroke-width="2" stroke-miterlimit="10" x1="-250.1410675" y1="36.1011238" x2="-248.747818" y2="36.1011238"/>
				
					<linearGradient id="SVGID_36_" gradientUnits="userSpaceOnUse" x1="-251.3826447" y1="35.2528076" x2="-253.0792694" y2="36.94944">
					<stop  offset="0" style="stop-color:#F59900"/>
					<stop  offset="1" style="stop-color:#CA8608"/>
				</linearGradient>
				
					<line fill="none" stroke="url(#SVGID_36_)" stroke-width="2" stroke-miterlimit="10" x1="-252.927597" y1="36.1011238" x2="-251.5343323" y2="36.1011238"/>
				
					<linearGradient id="SVGID_37_" gradientUnits="userSpaceOnUse" x1="-245.8096161" y1="35.2528076" x2="-247.5062408" y2="36.94944">
					<stop  offset="0" style="stop-color:#F59900"/>
					<stop  offset="1" style="stop-color:#CA8608"/>
				</linearGradient>
				
					<line fill="none" stroke="url(#SVGID_37_)" stroke-width="2" stroke-miterlimit="10" x1="-247.3545532" y1="36.1011238" x2="-245.9613037" y2="36.1011238"/>
				
					<linearGradient id="SVGID_38_" gradientUnits="userSpaceOnUse" x1="-248.5961304" y1="26.893259" x2="-250.2927551" y2="28.5898876">
					<stop  offset="0" style="stop-color:#F59900"/>
					<stop  offset="1" style="stop-color:#CA8608"/>
				</linearGradient>
				
					<line fill="none" stroke="url(#SVGID_38_)" stroke-width="2" stroke-miterlimit="10" x1="-250.1410675" y1="27.7415733" x2="-248.747818" y2="27.7415733"/>
				
					<linearGradient id="SVGID_39_" gradientUnits="userSpaceOnUse" x1="-251.3826447" y1="26.893259" x2="-253.0792694" y2="28.5898876">
					<stop  offset="0" style="stop-color:#F59900"/>
					<stop  offset="1" style="stop-color:#CA8608"/>
				</linearGradient>
				
					<line fill="none" stroke="url(#SVGID_39_)" stroke-width="2" stroke-miterlimit="10" x1="-252.927597" y1="27.7415733" x2="-251.5343323" y2="27.7415733"/>
				
					<linearGradient id="SVGID_40_" gradientUnits="userSpaceOnUse" x1="-245.8096161" y1="26.893259" x2="-247.5062408" y2="28.5898876">
					<stop  offset="0" style="stop-color:#F59900"/>
					<stop  offset="1" style="stop-color:#CA8608"/>
				</linearGradient>
				
					<line fill="none" stroke="url(#SVGID_40_)" stroke-width="2" stroke-miterlimit="10" x1="-247.3545532" y1="27.7415733" x2="-245.9613037" y2="27.7415733"/>
				
					<ellipse fill="none" stroke="#CA8608" stroke-width="2" stroke-miterlimit="10" cx="-249.4444427" cy="18.6853924" rx="16.0224724" ry="4.8764043"/>
				<path fill="none" stroke="#CA8608" stroke-width="2" stroke-miterlimit="10" d="M-233.4219666,22.168539v4.8764057
					c0,2.693306-7.1731415,4.8764038-16.0224762,4.8764038c-8.84935,0-16.0224762-2.1830978-16.0224762-4.8764038V22.168539"/>
				<path fill="none" stroke="#CA8608" stroke-width="2" stroke-miterlimit="10" d="M-233.4219666,30.5280895v4.8764057
					c0,2.693306-7.1731415,4.8764038-16.0224762,4.8764038c-8.84935,0-16.0224762-2.1830978-16.0224762-4.8764038v-4.8764057"/>
				<path fill="none" stroke="#CA8608" stroke-width="2" stroke-miterlimit="10" d="M-233.4219666,38.8876419v4.8764038
					c0,2.693306-7.1731415,4.8764038-16.0224762,4.8764038c-8.84935,0-16.0224762-2.1830978-16.0224762-4.8764038v-4.8764038"/>
			</g>
		</g>
	</g>
	
		<linearGradient id="SVGID_41_" gradientUnits="userSpaceOnUse" x1="-232.1359558" y1="3.2451487" x2="-267.4552002" y2="38.5643921">
		<stop  offset="0" style="stop-color:#F59900"/>
		<stop  offset="1" style="stop-color:#CA8608"/>
	</linearGradient>
	<path display="inline" fill="none" stroke="url(#SVGID_41_)" stroke-width="2" stroke-miterlimit="10" d="M-232.5163574,32.6179771
		h0.9404449c6.2323608,0,11.2854004-5.0526581,11.2854004-11.2853928c0-5.5931349-3.761795-10.344944-9.4044952-10.344944
		c0-4.7022471-2.8213501-8.4640446-8.4640503-8.4640446h-0.9404449C-241.6645813-2.1069894-246.5964813-5-252.2657928-5
		c-8.3097076,0-15.0471954,6.737474-15.0471954,15.0471907c-6.2323608,0-11.2854004,5.0530348-11.2854004,11.2853937
		c0,6.2327347,5.0530396,11.2853928,11.2854004,11.2853928h0.9404602"/>
	
		<linearGradient id="SVGID_42_" gradientUnits="userSpaceOnUse" x1="-252.4948578" y1="-0.5863616" x2="-263.3695679" y2="10.2883577">
		<stop  offset="0" style="stop-color:#F59900"/>
		<stop  offset="1" style="stop-color:#CA8608"/>
	</linearGradient>
	<path display="inline" fill="none" stroke="url(#SVGID_42_)" stroke-width="2" stroke-miterlimit="10" d="M-261.6702881,10.9876404
		c0-5.7134185,4.70224-10.344944,9.4044952-10.344944"/>
</g>
<circle display="none" fill="none" stroke="#CA8608" stroke-miterlimit="10" cx="-298.444458" cy="101.5" r="0"/>
</svg>
