<?xml version="1.0" encoding="utf-8"?>
<!-- Generator: Adobe Illustrator 21.1.0, SVG Export Plug-In . SVG Version: 6.00 Build 0)  -->
<svg version="1.1" id="Слой_1" xmlns="http://www.w3.org/2000/svg" xmlns:xlink="http://www.w3.org/1999/xlink" x="0px" y="0px"
	 viewBox="0 0 64 58" enable-background="new 0 0 64 58" xml:space="preserve">
<g display="none">
	<linearGradient id="SVGID_1_" gradientUnits="userSpaceOnUse" x1="227.0190582" y1="14.9634962" x2="194.0190582" y2="47.9634972">
		<stop  offset="0" style="stop-color:#F59900"/>
		<stop  offset="1" style="stop-color:#CA8608"/>
	</linearGradient>
	<path display="inline" fill="none" stroke="url(#SVGID_1_)" stroke-width="2" stroke-miterlimit="10" d="M216.5555573,5.5
		c-10.3090668,0-18.6666718,8.3576002-18.6666718,18.666666l-4.4444427,11.5555553V37.5h4.4444427v8
		c0,2.9462204,2.3880005,5.3333321,5.3333435,5.3333321h5.3333282V61.5"/>
	<g display="inline">
		<linearGradient id="SVGID_2_" gradientUnits="userSpaceOnUse" x1="211.0555573" y1="49.6666679" x2="208.722229" y2="52">
			<stop  offset="0" style="stop-color:#F59900"/>
			<stop  offset="1" style="stop-color:#CA8608"/>
		</linearGradient>
		
			<line fill="none" stroke="url(#SVGID_2_)" stroke-width="2" stroke-linejoin="round" stroke-miterlimit="10" x1="208.5555573" y1="50.8333321" x2="211.222229" y2="50.8333321"/>
	</g>
	<g display="inline">
		<linearGradient id="SVGID_3_" gradientUnits="userSpaceOnUse" x1="224.6111145" y1="15.2222223" x2="222.722229" y2="17.1111107">
			<stop  offset="0" style="stop-color:#F59900"/>
			<stop  offset="1" style="stop-color:#CA8608"/>
		</linearGradient>
		
			<line fill="none" stroke="url(#SVGID_3_)" stroke-width="2" stroke-linejoin="round" stroke-miterlimit="10" x1="222.777771" y1="16.166666" x2="224.5555573" y2="16.166666"/>
		<polyline fill="none" stroke="#CA8608" stroke-width="2" stroke-linejoin="round" stroke-miterlimit="10" points="
			228.1111145,18.833334 221,25.9444447 217.4444427,22.3888893 		"/>
		<path fill="none" stroke="#CA8608" stroke-width="2" stroke-linejoin="round" stroke-miterlimit="10" d="M229,24.166666
			c0,4.4183998-3.581604,8.0000019-8,8.0000019c-4.4184113,0-8-3.5816021-8-8.0000019s3.5815887-8,8-8"/>
	</g>
	<linearGradient id="SVGID_4_" gradientUnits="userSpaceOnUse" x1="207.722229" y1="25.8888893" x2="205.8333282" y2="27.7777786">
		<stop  offset="0" style="stop-color:#F59900"/>
		<stop  offset="1" style="stop-color:#CA8608"/>
	</linearGradient>
	
		<line display="inline" fill="none" stroke="url(#SVGID_4_)" stroke-width="2" stroke-miterlimit="10" x1="206.777771" y1="25.9444447" x2="206.777771" y2="27.7222214"/>
	<g display="inline">
		
			<line fill="none" stroke="#CA8608" stroke-width="2" stroke-linejoin="round" stroke-miterlimit="10" x1="233.4444427" y1="50.8333321" x2="230.777771" y2="50.8333321"/>
	</g>
	<path display="inline" fill="none" stroke="#CA8608" stroke-width="2" stroke-miterlimit="10" d="M206.777771,24.166666
		c0-10.3090658,8.357605-18.666666,18.6666718-18.666666s18.6666718,8.3576002,18.6666718,18.666666l4.4444427,11.5555553V37.5
		h-4.4444427v8c0,2.9462204-2.3880005,5.3333321-5.3333435,5.3333321h-5.3333282V61.5"/>
	<path display="inline" fill="none" stroke="#CA8608" stroke-width="2" stroke-miterlimit="10" d="M228.1111145,61.5V50.8333321
		c0-8.8888893,7.1111145-14.5798225,7.1111145-24.8888874V24.166666"/>
	
		<line display="inline" fill="none" stroke="#CA8608" stroke-width="2" stroke-miterlimit="10" x1="235.222229" y1="20.6111107" x2="235.222229" y2="22.3888893"/>
</g>
<g>
	<linearGradient id="SVGID_5_" gradientUnits="userSpaceOnUse" x1="48.8535538" y1="34.8535538" x2="15.1464462" y2="68.5606613">
		<stop  offset="0" style="stop-color:#F59900"/>
		<stop  offset="1" style="stop-color:#CA8608"/>
	</linearGradient>
	<polygon fill="none" stroke="url(#SVGID_5_)" stroke-width="2" stroke-miterlimit="10" points="59,57 5,57 1,53 1,51 25,51 27,53 
		37,53 39,51 63,51 63,53 	"/>
	<linearGradient id="SVGID_6_" gradientUnits="userSpaceOnUse" x1="21.5858154" y1="15.5858164" x2="-3.4141841" y2="40.5858154">
		<stop  offset="0" style="stop-color:#F59900"/>
		<stop  offset="1" style="stop-color:#CA8608"/>
	</linearGradient>
	<path fill="none" stroke="url(#SVGID_6_)" stroke-width="2" stroke-miterlimit="10" d="M20,15H8c-1.6561999,0-3,1.3428078-3,3v30"
		/>
	<linearGradient id="SVGID_7_" gradientUnits="userSpaceOnUse" x1="63.3283882" y1="19.6716137" x2="46.5" y2="36.5">
		<stop  offset="0" style="stop-color:#F59900"/>
		<stop  offset="1" style="stop-color:#CA8608"/>
	</linearGradient>
	<path fill="none" stroke="url(#SVGID_7_)" stroke-width="2" stroke-miterlimit="10" d="M59,48V18c0-1.6571922-1.3437004-3-3-3H44"
		/>
	<linearGradient id="SVGID_8_" gradientUnits="userSpaceOnUse" x1="24" y1="20" x2="3" y2="41">
		<stop  offset="0" style="stop-color:#F59900"/>
		<stop  offset="1" style="stop-color:#CA8608"/>
	</linearGradient>
	<polyline fill="none" stroke="url(#SVGID_8_)" stroke-width="2" stroke-miterlimit="10" points="16,45 9,45 9,19 22,19 	"/>
	<linearGradient id="SVGID_9_" gradientUnits="userSpaceOnUse" x1="33" y1="26" x2="31" y2="28">
		<stop  offset="0" style="stop-color:#F59900"/>
		<stop  offset="1" style="stop-color:#CA8608"/>
	</linearGradient>
	<line fill="none" stroke="url(#SVGID_9_)" stroke-width="2" stroke-miterlimit="10" x1="33" y1="27" x2="31" y2="27"/>
	<linearGradient id="SVGID_10_" gradientUnits="userSpaceOnUse" x1="33" y1="22" x2="31" y2="24">
		<stop  offset="0" style="stop-color:#F59900"/>
		<stop  offset="1" style="stop-color:#CA8608"/>
	</linearGradient>
	<line fill="none" stroke="url(#SVGID_10_)" stroke-width="2" stroke-miterlimit="10" x1="33" y1="23" x2="31" y2="23"/>
	<linearGradient id="SVGID_11_" gradientUnits="userSpaceOnUse" x1="33" y1="30" x2="31" y2="32">
		<stop  offset="0" style="stop-color:#F59900"/>
		<stop  offset="1" style="stop-color:#CA8608"/>
	</linearGradient>
	<line fill="none" stroke="url(#SVGID_11_)" stroke-width="2" stroke-miterlimit="10" x1="33" y1="31" x2="31" y2="31"/>
	<line fill="none" stroke="#CA8608" stroke-width="2" stroke-miterlimit="10" x1="30" y1="35" x2="37" y2="35"/>
	<line fill="none" stroke="#CA8608" stroke-width="2" stroke-miterlimit="10" x1="30" y1="19" x2="37" y2="19"/>
	<polyline fill="none" stroke="#CA8608" stroke-width="2" stroke-miterlimit="10" points="46,41 19,41 19,45 55,45 55,19 42,19 	"/>
	<polyline fill="none" stroke="#CA8608" stroke-width="2" stroke-miterlimit="10" points="23,41 23,39 27,35 27,19 23,15 23,13 
		28,13 28,9 	"/>
	<polyline fill="none" stroke="#CA8608" stroke-width="2" stroke-miterlimit="10" points="41,41 41,39 37,35 37,19 41,15 41,13 
		31,13 	"/>
	<line fill="none" stroke="#CA8608" stroke-width="2" stroke-miterlimit="10" x1="36" y1="9" x2="36" y2="13"/>
	<polyline fill="none" stroke="#CA8608" stroke-width="2" stroke-miterlimit="10" points="40,5 35,5 35,1 29,1 29,5 24,5 	"/>
	<polyline fill="none" stroke="#CA8608" stroke-width="2" stroke-miterlimit="10" points="26,1 21,1 21,7 23,9 41,9 43,7 43,1 38,1 
			"/>
</g>
<g display="none">
	<g display="inline">
		<g>
			
				<linearGradient id="SVGID_12_" gradientUnits="userSpaceOnUse" x1="157.1935425" y1="5.1935482" x2="102.8064499" y2="59.5806465">
				<stop  offset="0" style="stop-color:#F59900"/>
				<stop  offset="1" style="stop-color:#CA8608"/>
			</linearGradient>
			<polyline fill="none" stroke="url(#SVGID_12_)" stroke-width="2" stroke-miterlimit="10" points="111.9354858,56.7741928 
				102,56.7741928 102,8 158,8 158,56.7741928 148.0645142,56.7741928 			"/>
			<linearGradient id="SVGID_13_" gradientUnits="userSpaceOnUse" x1="144.5" y1="0.7258065" x2="115.5" y2="29.7258072">
				<stop  offset="0" style="stop-color:#F59900"/>
				<stop  offset="1" style="stop-color:#CA8608"/>
			</linearGradient>
			
				<line fill="none" stroke="url(#SVGID_13_)" stroke-width="2" stroke-miterlimit="10" x1="102" y1="15.2258062" x2="158" y2="15.2258062"/>
			
				<linearGradient id="SVGID_14_" gradientUnits="userSpaceOnUse" x1="106.5645142" y1="10.6612902" x2="104.661293" y2="12.5645161">
				<stop  offset="0" style="stop-color:#F59900"/>
				<stop  offset="1" style="stop-color:#CA8608"/>
			</linearGradient>
			
				<line fill="none" stroke="url(#SVGID_14_)" stroke-width="2" stroke-miterlimit="10" x1="104.7096786" y1="11.6129036" x2="106.5161285" y2="11.6129036"/>
			
				<linearGradient id="SVGID_15_" gradientUnits="userSpaceOnUse" x1="110.1774216" y1="10.6612902" x2="108.2741928" y2="12.5645161">
				<stop  offset="0" style="stop-color:#F59900"/>
				<stop  offset="1" style="stop-color:#CA8608"/>
			</linearGradient>
			
				<line fill="none" stroke="url(#SVGID_15_)" stroke-width="2" stroke-miterlimit="10" x1="108.3225784" y1="11.6129036" x2="110.1290359" y2="11.6129036"/>
			
				<linearGradient id="SVGID_16_" gradientUnits="userSpaceOnUse" x1="113.7903214" y1="10.6612902" x2="111.8871002" y2="12.5645161">
				<stop  offset="0" style="stop-color:#F59900"/>
				<stop  offset="1" style="stop-color:#CA8608"/>
			</linearGradient>
			
				<line fill="none" stroke="url(#SVGID_16_)" stroke-width="2" stroke-miterlimit="10" x1="111.9354858" y1="11.6129036" x2="113.7419357" y2="11.6129036"/>
			
				<linearGradient id="SVGID_17_" gradientUnits="userSpaceOnUse" x1="118.7580643" y1="9.3064518" x2="114.1451645" y2="13.9193544">
				<stop  offset="0" style="stop-color:#F59900"/>
				<stop  offset="1" style="stop-color:#CA8608"/>
			</linearGradient>
			
				<line fill="none" stroke="url(#SVGID_17_)" stroke-width="2" stroke-miterlimit="10" x1="116.4516144" y1="8" x2="116.4516144" y2="15.2258062"/>
			
				<linearGradient id="SVGID_18_" gradientUnits="userSpaceOnUse" x1="146.7580719" y1="2.0806451" x2="127.6935501" y2="21.1451607">
				<stop  offset="0" style="stop-color:#F59900"/>
				<stop  offset="1" style="stop-color:#CA8608"/>
			</linearGradient>
			
				<line fill="none" stroke="url(#SVGID_18_)" stroke-width="2" stroke-miterlimit="10" x1="119.161293" y1="11.6129036" x2="155.290329" y2="11.6129036"/>
			<polyline fill="none" stroke="#CA8608" stroke-width="2" stroke-miterlimit="10" points="111.9354858,53.1612892 
				105.6128998,53.1612892 105.6128998,18.8387089 154.3871002,18.8387089 154.3871002,53.1612892 148.0645142,53.1612892 			"/>
		</g>
		
			<linearGradient id="SVGID_19_" gradientUnits="userSpaceOnUse" x1="116.9516144" y1="19.2419357" x2="110.5322571" y2="25.6612911">
			<stop  offset="0" style="stop-color:#F59900"/>
			<stop  offset="1" style="stop-color:#CA8608"/>
		</linearGradient>
		
			<line fill="none" stroke="url(#SVGID_19_)" stroke-width="2" stroke-miterlimit="10" x1="108.3225784" y1="22.4516125" x2="119.161293" y2="22.4516125"/>
		
			<linearGradient id="SVGID_20_" gradientUnits="userSpaceOnUse" x1="119.661293" y1="21.9516125" x2="111.4354858" y2="30.1774197">
			<stop  offset="0" style="stop-color:#F59900"/>
			<stop  offset="1" style="stop-color:#CA8608"/>
		</linearGradient>
		
			<line fill="none" stroke="url(#SVGID_20_)" stroke-width="2" stroke-miterlimit="10" x1="108.3225784" y1="26.0645161" x2="122.7741928" y2="26.0645161"/>
		
			<linearGradient id="SVGID_21_" gradientUnits="userSpaceOnUse" x1="115.5967712" y1="26.9193554" x2="110.0806427" y2="32.435482">
			<stop  offset="0" style="stop-color:#F59900"/>
			<stop  offset="1" style="stop-color:#CA8608"/>
		</linearGradient>
		
			<line fill="none" stroke="url(#SVGID_21_)" stroke-width="2" stroke-miterlimit="10" x1="108.3225784" y1="29.6774197" x2="117.3548355" y2="29.6774197"/>
		
			<linearGradient id="SVGID_22_" gradientUnits="userSpaceOnUse" x1="129.1451569" y1="24.2096767" x2="125.4354858" y2="27.9193554">
			<stop  offset="0" style="stop-color:#F59900"/>
			<stop  offset="1" style="stop-color:#CA8608"/>
		</linearGradient>
		
			<line fill="none" stroke="url(#SVGID_22_)" stroke-width="2" stroke-miterlimit="10" x1="124.5806427" y1="26.0645161" x2="130" y2="26.0645161"/>
		
			<linearGradient id="SVGID_23_" gradientUnits="userSpaceOnUse" x1="139.0806427" y1="23.3064518" x2="133.5645142" y2="28.8225803">
			<stop  offset="0" style="stop-color:#F59900"/>
			<stop  offset="1" style="stop-color:#CA8608"/>
		</linearGradient>
		
			<line fill="none" stroke="url(#SVGID_23_)" stroke-width="2" stroke-miterlimit="10" x1="131.8064575" y1="26.0645161" x2="140.8387146" y2="26.0645161"/>
		
			<linearGradient id="SVGID_24_" gradientUnits="userSpaceOnUse" x1="123.7258072" y1="27.8225803" x2="120.0161285" y2="31.532259">
			<stop  offset="0" style="stop-color:#F59900"/>
			<stop  offset="1" style="stop-color:#CA8608"/>
		</linearGradient>
		
			<line fill="none" stroke="url(#SVGID_24_)" stroke-width="2" stroke-miterlimit="10" x1="119.161293" y1="29.6774197" x2="124.5806427" y2="29.6774197"/>
		
			<linearGradient id="SVGID_25_" gradientUnits="userSpaceOnUse" x1="114.2419357" y1="30.9838715" x2="109.6290359" y2="35.5967751">
			<stop  offset="0" style="stop-color:#F59900"/>
			<stop  offset="1" style="stop-color:#CA8608"/>
		</linearGradient>
		
			<line fill="none" stroke="url(#SVGID_25_)" stroke-width="2" stroke-miterlimit="10" x1="108.3225784" y1="33.2903214" x2="115.5483856" y2="33.2903214"/>
		
			<linearGradient id="SVGID_26_" gradientUnits="userSpaceOnUse" x1="126.8871002" y1="20.1451607" x2="122.2741928" y2="24.7580643">
			<stop  offset="0" style="stop-color:#F59900"/>
			<stop  offset="1" style="stop-color:#CA8608"/>
		</linearGradient>
		
			<line fill="none" stroke="url(#SVGID_26_)" stroke-width="2" stroke-miterlimit="10" x1="120.9677429" y1="22.4516125" x2="128.1935425" y2="22.4516125"/>
		
			<linearGradient id="SVGID_27_" gradientUnits="userSpaceOnUse" x1="136.455246" y1="41.2866898" x2="123.5447464" y2="54.1971817">
			<stop  offset="0" style="stop-color:#F59900"/>
			<stop  offset="1" style="stop-color:#CA8608"/>
		</linearGradient>
		<circle fill="none" stroke="url(#SVGID_27_)" stroke-width="2" stroke-miterlimit="10" cx="130" cy="47.7419357" r="8.1290321"/>
		<path fill="none" stroke="#CA8608" stroke-width="2" stroke-linejoin="round" stroke-miterlimit="10" d="M144.5874481,40.5972404
			l-4.9412689,0.1367455l1.6582184-4.6616364c-1.0946198-1.0620155-2.3347473-1.9713821-3.6922913-2.6920662l-3.9277649,3.0219231
			l-1.3963013-4.7384129c-0.7497711-0.1058578-1.509201-0.1799221-2.2880402-0.1799221
			c-0.7788544,0-1.5382843,0.0740643-2.288063,0.1799221l-1.3962936,4.7384129l-3.9277649-3.0219231
			c-1.3575516,0.7206841-2.5976791,1.6300507-3.6922989,2.6920662l1.6582336,4.6616364l-4.9412766-0.1367455
			c-0.6650467,1.3557396-1.1466446,2.8138161-1.4139099,4.3503838l4.0786057,2.7943115l-4.0786057,2.7943993
			c0.2672653,1.5364761,0.7488632,2.9945564,1.4139099,4.350296l4.9412766-0.1367455l-1.6582336,4.6616364
			c1.0946198,1.0620117,2.3347473,1.9713821,3.6922989,2.6920662l3.9277649-3.0219231l1.3962936,4.7384109
			C128.4617157,63.9259338,129.2211456,64,130,64c0.7788391,0,1.538269-0.0740662,2.2880402-0.179924l1.3963013-4.7384109
			l3.9277649,3.0219231c1.3575439-0.7206841,2.5976715-1.6300545,3.6922913-2.6920662l-1.6582184-4.6616364l4.9412689,0.1367455
			c0.6650543-1.3557396,1.1466522-2.8138199,1.4139099-4.350296l-4.078598-2.7943993l4.078598-2.7943115
			C145.7341003,43.4110565,145.2525024,41.95298,144.5874481,40.5972404z"/>
		<circle fill="none" stroke="#CA8608" stroke-width="2" stroke-miterlimit="10" cx="130" cy="47.7419357" r="4.516129"/>
	</g>
</g>
<g display="none">
	<g display="inline">
		<g>
			<g>
				
					<linearGradient id="SVGID_28_" gradientUnits="userSpaceOnUse" x1="-55.4550552" y1="53.6853943" x2="-58.5449448" y2="56.77528">
					<stop  offset="0" style="stop-color:#F59900"/>
					<stop  offset="1" style="stop-color:#CA8608"/>
				</linearGradient>
				
					<line fill="none" stroke="url(#SVGID_28_)" stroke-width="2" stroke-miterlimit="10" x1="-57" y1="53.1404495" x2="-57" y2="57.3202248"/>
				
					<linearGradient id="SVGID_29_" gradientUnits="userSpaceOnUse" x1="-54.8151436" y1="57.2252655" x2="-59.1848373" y2="61.5949593">
					<stop  offset="0" style="stop-color:#F59900"/>
					<stop  offset="1" style="stop-color:#CA8608"/>
				</linearGradient>
				
					<circle fill="none" stroke="url(#SVGID_29_)" stroke-width="2" stroke-miterlimit="10" cx="-57" cy="59.4101105" r="2.0898876"/>
				
					<linearGradient id="SVGID_30_" gradientUnits="userSpaceOnUse" x1="-63.6404495" y1="53.8595505" x2="-74.7415695" y2="64.9606705">
					<stop  offset="0" style="stop-color:#F59900"/>
					<stop  offset="1" style="stop-color:#CA8608"/>
				</linearGradient>
				
					<line fill="none" stroke="url(#SVGID_30_)" stroke-width="2" stroke-miterlimit="10" x1="-59.0898895" y1="59.4101105" x2="-79.2921371" y2="59.4101105"/>
				
					<linearGradient id="SVGID_31_" gradientUnits="userSpaceOnUse" x1="-39.2584267" y1="53.8595505" x2="-50.3595505" y2="64.9606705">
					<stop  offset="0" style="stop-color:#F59900"/>
					<stop  offset="1" style="stop-color:#CA8608"/>
				</linearGradient>
				
					<line fill="none" stroke="url(#SVGID_31_)" stroke-width="2" stroke-miterlimit="10" x1="-34.7078667" y1="59.4101105" x2="-54.9101105" y2="59.4101105"/>
				
					<linearGradient id="SVGID_32_" gradientUnits="userSpaceOnUse" x1="-56.1516838" y1="48.1123581" x2="-57.8483162" y2="49.8089905">
					<stop  offset="0" style="stop-color:#F59900"/>
					<stop  offset="1" style="stop-color:#CA8608"/>
				</linearGradient>
				
					<line fill="none" stroke="url(#SVGID_32_)" stroke-width="2" stroke-miterlimit="10" x1="-57.6966286" y1="48.9606743" x2="-56.3033714" y2="48.9606743"/>
				
					<linearGradient id="SVGID_33_" gradientUnits="userSpaceOnUse" x1="-58.9382019" y1="48.1123581" x2="-60.6348305" y2="49.8089905">
					<stop  offset="0" style="stop-color:#F59900"/>
					<stop  offset="1" style="stop-color:#CA8608"/>
				</linearGradient>
				
					<line fill="none" stroke="url(#SVGID_33_)" stroke-width="2" stroke-miterlimit="10" x1="-60.4831467" y1="48.9606743" x2="-59.0898895" y2="48.9606743"/>
				
					<linearGradient id="SVGID_34_" gradientUnits="userSpaceOnUse" x1="-53.3651695" y1="48.1123581" x2="-55.0617981" y2="49.8089905">
					<stop  offset="0" style="stop-color:#F59900"/>
					<stop  offset="1" style="stop-color:#CA8608"/>
				</linearGradient>
				
					<line fill="none" stroke="url(#SVGID_34_)" stroke-width="2" stroke-miterlimit="10" x1="-54.9101105" y1="48.9606743" x2="-53.5168533" y2="48.9606743"/>
				
					<linearGradient id="SVGID_35_" gradientUnits="userSpaceOnUse" x1="-56.1516838" y1="39.7528076" x2="-57.8483162" y2="41.44944">
					<stop  offset="0" style="stop-color:#F59900"/>
					<stop  offset="1" style="stop-color:#CA8608"/>
				</linearGradient>
				
					<line fill="none" stroke="url(#SVGID_35_)" stroke-width="2" stroke-miterlimit="10" x1="-57.6966286" y1="40.6011238" x2="-56.3033714" y2="40.6011238"/>
				
					<linearGradient id="SVGID_36_" gradientUnits="userSpaceOnUse" x1="-58.9382019" y1="39.7528076" x2="-60.6348305" y2="41.44944">
					<stop  offset="0" style="stop-color:#F59900"/>
					<stop  offset="1" style="stop-color:#CA8608"/>
				</linearGradient>
				
					<line fill="none" stroke="url(#SVGID_36_)" stroke-width="2" stroke-miterlimit="10" x1="-60.4831467" y1="40.6011238" x2="-59.0898895" y2="40.6011238"/>
				
					<linearGradient id="SVGID_37_" gradientUnits="userSpaceOnUse" x1="-53.3651695" y1="39.7528076" x2="-55.0617981" y2="41.44944">
					<stop  offset="0" style="stop-color:#F59900"/>
					<stop  offset="1" style="stop-color:#CA8608"/>
				</linearGradient>
				
					<line fill="none" stroke="url(#SVGID_37_)" stroke-width="2" stroke-miterlimit="10" x1="-54.9101105" y1="40.6011238" x2="-53.5168533" y2="40.6011238"/>
				
					<linearGradient id="SVGID_38_" gradientUnits="userSpaceOnUse" x1="-56.1516838" y1="31.393259" x2="-57.8483162" y2="33.0898895">
					<stop  offset="0" style="stop-color:#F59900"/>
					<stop  offset="1" style="stop-color:#CA8608"/>
				</linearGradient>
				
					<line fill="none" stroke="url(#SVGID_38_)" stroke-width="2" stroke-miterlimit="10" x1="-57.6966286" y1="32.2415733" x2="-56.3033714" y2="32.2415733"/>
				
					<linearGradient id="SVGID_39_" gradientUnits="userSpaceOnUse" x1="-58.9382019" y1="31.393259" x2="-60.6348305" y2="33.0898895">
					<stop  offset="0" style="stop-color:#F59900"/>
					<stop  offset="1" style="stop-color:#CA8608"/>
				</linearGradient>
				
					<line fill="none" stroke="url(#SVGID_39_)" stroke-width="2" stroke-miterlimit="10" x1="-60.4831467" y1="32.2415733" x2="-59.0898895" y2="32.2415733"/>
				
					<linearGradient id="SVGID_40_" gradientUnits="userSpaceOnUse" x1="-53.3651695" y1="31.393259" x2="-55.0617981" y2="33.0898895">
					<stop  offset="0" style="stop-color:#F59900"/>
					<stop  offset="1" style="stop-color:#CA8608"/>
				</linearGradient>
				
					<line fill="none" stroke="url(#SVGID_40_)" stroke-width="2" stroke-miterlimit="10" x1="-54.9101105" y1="32.2415733" x2="-53.5168533" y2="32.2415733"/>
				
					<ellipse fill="none" stroke="#CA8608" stroke-width="2" stroke-miterlimit="10" cx="-57" cy="23.1853924" rx="16.0224724" ry="4.8764043"/>
				<path fill="none" stroke="#CA8608" stroke-width="2" stroke-miterlimit="10" d="M-40.9775276,26.668539v4.8764057
					c0,2.693306-7.1731339,4.8764038-16.0224724,4.8764038c-8.8493652,0-16.0224686-2.1830978-16.0224686-4.8764038V26.668539"/>
				<path fill="none" stroke="#CA8608" stroke-width="2" stroke-miterlimit="10" d="M-40.9775276,35.0280914v4.8764038
					c0,2.693306-7.1731339,4.8764038-16.0224724,4.8764038c-8.8493652,0-16.0224686-2.1830978-16.0224686-4.8764038v-4.8764038"/>
				<path fill="none" stroke="#CA8608" stroke-width="2" stroke-miterlimit="10" d="M-40.9775276,43.3876419v4.8764038
					c0,2.693306-7.1731339,4.8764038-16.0224724,4.8764038c-8.8493652,0-16.0224686-2.1830978-16.0224686-4.8764038v-4.8764038"/>
			</g>
		</g>
	</g>
	<linearGradient id="SVGID_41_" gradientUnits="userSpaceOnUse" x1="-39.6915054" y1="7.7451487" x2="-75.0107498" y2="43.0643921">
		<stop  offset="0" style="stop-color:#F59900"/>
		<stop  offset="1" style="stop-color:#CA8608"/>
	</linearGradient>
	<path display="inline" fill="none" stroke="url(#SVGID_41_)" stroke-width="2" stroke-miterlimit="10" d="M-40.0719109,37.1179771
		h0.9404488c6.2323608,0,11.2853947-5.0526581,11.2853947-11.2853928c0-5.5931358-3.761797-10.344944-9.4044933-10.344944
		c0-4.7022467-2.8213501-8.4640446-8.4640465-8.4640446h-0.9404488C-49.2201347,2.3930106-54.1520386-0.5-59.8213501-0.5
		c-8.3097153,0-15.0471878,6.737474-15.0471878,15.0471907c-6.2323608,0-11.2853928,5.0530348-11.2853928,11.2853937
		c0,6.2327347,5.0530319,11.2853928,11.2853928,11.2853928h0.9404449"/>
	<linearGradient id="SVGID_42_" gradientUnits="userSpaceOnUse" x1="-60.0504074" y1="3.9136384" x2="-70.9251251" y2="14.7883577">
		<stop  offset="0" style="stop-color:#F59900"/>
		<stop  offset="1" style="stop-color:#CA8608"/>
	</linearGradient>
	<path display="inline" fill="none" stroke="url(#SVGID_42_)" stroke-width="2" stroke-miterlimit="10" d="M-69.2258453,15.4876404
		c0-5.713418,4.7022476-10.344944,9.4044952-10.344944"/>
</g>
<circle display="none" fill="none" stroke="#CA8608" stroke-miterlimit="10" cx="-106" cy="106" r="0"/>
</svg>
