<?xml version="1.0" encoding="utf-8"?>
<!-- Generator: Adobe Illustrator 21.1.0, SVG Export Plug-In . SVG Version: 6.00 Build 0)  -->
<svg version="1.1" id="Logo" xmlns="http://www.w3.org/2000/svg" xmlns:xlink="http://www.w3.org/1999/xlink" x="0px" y="0px"
	 viewBox="0 0 503.8410339 503.8410339" enable-background="new 0 0 503.8410339 503.8410339" xml:space="preserve">
<defs>
<linearGradient x1="100%" y1="0%" x2="0%" y2="100%" id="g1">
<stop offset="0%" stop-color="#1400c8"/>
<stop offset="50%" stop-color="#b900b4"/>
<stop offset="100%" stop-color="#f50000"/>
</linearGradient>
</defs>
	<g fill="url(#g1)">
	<path d="M251.920517,45.3910828c67.2657928,0,75.2331696,0.256546,101.7973175,1.4685059
		c24.5618286,1.1207886,37.9011841,5.2244911,46.7782593,8.6743965
		c11.7587891,4.5698051,20.1508789,10.0294533,28.9660034,18.8445625
		c8.8155212,8.8154907,14.2751465,17.2075806,18.8449402,28.9664307c3.4498901,8.8770294,7.5536499,22.2163925,8.674408,46.7778549
		c1.2119751,26.5645142,1.4685059,34.5319214,1.4685059,101.7976837s-0.2565308,75.2331696-1.4685059,101.7973175
		c-1.1207581,24.5618286-5.2245178,37.9011841-8.674408,46.7782593
		c-4.5697937,11.7587891-10.0294189,20.1508789-18.8445435,28.9660034
		c-8.8155212,8.8155212-17.2076111,14.2751465-28.9664001,18.8449402
		c-8.8770752,3.4498901-22.2164307,7.5536499-46.7782593,8.674408
		c-26.5603333,1.2119751-34.5269775,1.4685059-101.7973175,1.4685059s-75.2369995-0.2565308-101.7973175-1.4685059
		c-24.5618286-1.1207581-37.9011917-5.2245178-46.7782211-8.674408
		c-11.7588501-4.5697937-20.1509399-10.0294189-28.9660492-18.8445435
		c-8.8153229-8.8153076-14.2751389-17.2076111-18.844944-28.9664001
		c-3.4499054-8.8770752-7.5536079-22.2164307-8.6743965-46.7779236
		c-1.2119598-26.5644836-1.4685059-34.5318604-1.4685059-101.7976532s0.256546-75.2331696,1.4685059-101.7973175
		c1.1207886-24.5618286,5.2244911-37.9011917,8.6743965-46.7782211
		c4.5698051-11.7588501,10.0294533-20.1509399,18.8445625-28.9660492
		c8.8154907-8.8154907,17.2075806-14.2751389,28.9664307-18.844944c8.8770294-3.4499054,22.2163925-7.5536079,46.7778549-8.6743965
		C176.6873474,45.6476288,184.6547546,45.3910828,251.920517,45.3910828 M251.920517,0
		c-68.4176178,0-76.9965363,0.2897754-103.8664246,1.5157005c-26.8145142,1.2235562-45.1267319,5.4821563-61.151413,11.7098141
		c-16.5657501,6.4379072-30.6150208,15.0516844-44.6203461,29.0568199
		C28.2771988,56.2876587,19.6634216,70.3369293,13.2255144,86.9026794
		c-6.2276578,16.0246811-10.4862576,34.3368988-11.7098141,61.151413C0.2897754,174.9239807,0,183.5027161,0,251.920517
		c0,68.4176483,0.2897754,76.9965057,1.5157005,103.8664093c1.2235562,26.8145447,5.4821563,45.1267395,11.7098141,61.1513977
		c6.4379072,16.5655823,15.0516844,30.6150513,29.0568199,44.6203613
		c14.0053253,14.005188,28.0545959,22.6189575,44.6203461,29.0568237
		c16.0246811,6.2276917,34.3368988,10.4862671,61.151413,11.7098083
		c26.8698883,1.2261658,35.4488068,1.5157166,103.8664246,1.5157166s76.9965057-0.2895508,103.8664093-1.5157166
		c26.8145447-1.2235413,45.1267395-5.4821167,61.1513977-11.7098083
		c16.5657654-6.4378662,30.6150513-15.0516357,44.6203613-29.0568237
		c14.005188-14.0053101,22.6189575-28.0545959,29.0568237-44.6203613
		c6.2276917-16.0246582,10.4862671-34.336853,11.7098083-61.1513977
		c1.2259216-26.8699036,1.5157166-35.448761,1.5157166-103.8664093s-0.2897949-76.9965363-1.5157166-103.8664246
		c-1.2235413-26.8145142-5.4821167-45.1267319-11.7098083-61.151413
		c-6.4378662-16.5657501-15.0516357-30.6150208-29.0568237-44.6203461
		c-14.0053101-14.0051346-28.0545959-22.6189117-44.6203613-29.0568199
		c-16.0246582-6.2276578-34.336853-10.4862576-61.1513977-11.7098141C328.9170227,0.2897754,320.3381653,0,251.920517,0
		L251.920517,0z"/>
	<path d="M251.920517,122.5559311c-71.4460754,0-129.3645935,57.9184494-129.3645935,129.3645935
		s57.9185104,129.3645477,129.3645935,129.3645477s129.3645782-57.918457,129.3645782-129.3645477
		S323.3666077,122.5559311,251.920517,122.5559311z M251.920517,335.8939819
		c-46.3772583,0-83.9735107-37.5962219-83.9735107-83.973465c0-46.3773041,37.5962524-83.9735107,83.9735107-83.9735107
		s83.9734955,37.5962067,83.9734955,83.9735107C335.8940125,298.29776,298.297821,335.8939819,251.920517,335.8939819z"/>
	<circle cx="386.3963318" cy="117.4447021" r="30.2304611"/>
</g>
<g>
</g>
<g>
</g>
<g>
</g>
<g>
</g>
<g>
</g>
<g>
</g>
<g>
</g>
<g>
</g>
<g>
</g>
<g>
</g>
<g>
</g>
<g>
</g>
<g>
</g>
<g>
</g>
<g>
</g>
</svg>
