<?xml version="1.0" encoding="UTF-8"?>
<svg width="43px" height="43px" viewBox="0 0 43 43" version="1.1" xmlns="http://www.w3.org/2000/svg" xmlns:xlink="http://www.w3.org/1999/xlink">
    <!-- Generator: Sketch 46.2 (44496) - http://www.bohemiancoding.com/sketch -->
    <title>Investor login acon 2</title>
    <desc>Created with Sketch.</desc>
    <defs>
        <linearGradient x1="50%" y1="0%" x2="50%" y2="100%" id="linearGradient-1">
            <stop stop-color="#6888F7" offset="0%"></stop>
            <stop stop-color="#00E0E1" offset="31.1217497%"></stop>
            <stop stop-color="#757FF1" offset="69.7619425%"></stop>
            <stop stop-color="#E6388D" offset="100%"></stop>
        </linearGradient>
    </defs>
    <g id="Page-1" stroke="none" stroke-width="1" fill="none" fill-rule="evenodd">
        <g id="mclarty-MCLArty_HPC2_section1_hover" transform="translate(-1182.000000, -45.000000)">
            <g id="Header" transform="translate(55.000000, 40.000000)">
                <g id="menu" transform="translate(764.000000, 5.000000)">
                    <g id="Investor-login-icon-3_-hover" transform="translate(363.000000, 0.000000)">
                        <g id="Page-1">
                            <path d="M14.6708919,7.7423054 C19.0462649,6.40574764 23.9157846,6.42544963 28.2128848,7.72705225 C28.9948226,7.96284061 29.4336249,7.01460277 28.6564309,6.77944995 C24.0873524,5.39586163 18.8968349,5.36789751 14.2233926,6.79597421 C13.4454079,7.03366922 13.8921166,7.98000041 14.6708919,7.7423054 M9.66775485,12.7364428 C12.9267515,10.1167133 17.439695,8.68736551 22.046724,8.81511068 C22.8753092,8.84243925 22.9251192,7.82683331 22.0902089,7.80331803 C17.1313474,7.66667517 12.2823841,9.20279506 8.77750006,12.02018 C8.18926777,12.4930278 9.07873192,13.2099262 9.66775485,12.7364428 M24.8953812,9.09157413 C28.2516259,9.67119404 31.0599607,10.9619923 33.2674131,12.7364428 C33.8548548,13.2086551 34.7459002,12.4930278 34.1576679,12.02018 C31.788926,10.1160778 28.7694917,8.72486285 25.1531281,8.10075456 C24.3395649,7.96347616 24.0786554,8.95493128 24.8953812,9.09157413 M35.7413094,22.2709362 C35.7413094,27.1093642 33.0816139,31.7317059 28.363896,34.8789404 C27.7226912,35.3066643 28.5275574,36.0852108 29.1679716,35.6581224 C34.1371114,32.3443744 37,27.4474758 37,22.2709362 C37,21.6017039 35.7413094,21.6010684 35.7413094,22.2709362 M32.9116274,28.7433585 C33.2239282,28.2762306 32.5400291,27.7843164 31.996863,28.0881084 C28.3749649,30.1193203 24.6241934,29.9979306 22.6088653,29.0541416 C22.0830932,28.8037356 21.4640261,29.244806 21.7114948,29.6947741 C21.8024178,29.8593811 23.9576883,33.7597401 26.0884491,36.3362523 C26.5414828,36.8840948 27.6017241,36.3387945 27.1368308,35.7763344 C25.7555918,34.1054783 24.3253335,31.792083 23.518886,30.4256545 C25.7049912,30.9245598 28.2097223,30.8006279 30.7025938,29.8600166 C29.879543,30.9798525 29.0256574,31.8924996 27.6183274,32.7930714 L27.07358,32.14227 L27.6270244,32.0266003 C28.4342625,31.8588156 28.1156367,30.8781648 27.3115611,31.046585 L25.8971155,31.3414794 C25.478079,31.4285495 25.2899079,31.8238604 25.5326328,32.1143059 C27.0514423,33.930067 27.0063761,33.9688354 27.3574179,34.0190437 C27.5258232,34.042559 27.6989722,34.0114172 27.8373333,33.9307025 C30.4693565,32.3952182 31.4940192,30.8635472 32.9116274,28.7433585 M7.25948124,22.2213634 C7.25948124,15.9218101 13.633579,10.7973854 21.4671887,10.7973854 C28.2650667,10.7973854 34.1537147,14.6812201 35.4701217,20.0331711 C35.6314112,20.6884213 36.8671734,20.4945791 36.7050932,19.8367867 C35.2732536,14.0119879 28.8643679,9.78495716 21.4671887,9.78495716 C12.938611,9.78495716 6,15.3637988 6,22.2213634 C6,25.4016463 7.11558571,28.340421 8.08332271,31.00019 C8.31735061,31.6440003 9.52781249,31.3637236 9.29220332,30.7161 C8.34818537,28.122428 7.25948124,25.2529281 7.25948124,22.2213634 M9.98559004,24.4769238 C9.87173863,23.8140471 8.62411691,23.9513255 8.73796832,24.6148377 C9.30406284,27.9279503 10.912214,31.6630667 12.5393405,34.7569151 C12.8611288,35.3676769 14.0257339,34.9825347 13.6992017,34.3622397 C12.1195134,31.3586392 10.5437782,27.720126 9.98559004,24.4769238 M15.5089648,31.9770275 C14.0921472,29.2562459 12.2341554,25.1664935 12.2341554,22.2213634 C12.2341554,20.3909847 13.0690658,18.6330585 14.5855033,17.2710788 C15.1413196,16.7721735 14.2012548,16.0972214 13.6470198,16.5961267 C11.8586039,18.2027924 10.9683491,20.2460797 10.9683491,22.2213634 C10.9683491,24.6485218 12.105282,28.0620509 14.3467316,32.3678896 C14.6677293,32.9843713 15.8307531,32.5947803 15.5089648,31.9770275 M16.6878013,34.1378912 C16.3422939,33.5296717 15.1958734,33.949769 15.5421714,34.5586241 C15.9216761,35.2253141 16.3217374,35.9040796 16.7312862,36.5752184 C17.0957688,37.1726337 18.2295391,36.7321988 17.861894,36.1296991 C17.4578796,35.4668224 17.0625622,34.7963191 16.6878013,34.1378912 M14.7467928,22.2213634 C14.7467928,19.2438203 17.7599021,16.8217463 21.4632355,16.8217463 C27.917978,16.8217463 30.0914331,23.6837597 26.3612181,23.6837597 C25.3579025,23.6837597 24.5419674,23.027874 24.5419674,22.2213634 C24.5419674,20.8568415 23.1607284,19.7465389 21.4632355,19.7465389 C19.7657426,19.7465389 18.3845036,20.8568415 18.3845036,22.2213634 C18.3845036,23.3488258 19.1577444,25.3800377 20.5065674,27.7938496 C20.8449591,28.4001625 21.9977046,27.9927762 21.6553597,27.3794722 C20.3958785,25.1251829 19.6439848,23.1962943 19.6439848,22.2213634 C19.6439848,21.4148528 20.4599199,20.7589671 21.4632355,20.7589671 C22.466551,20.7589671 23.2824862,21.4148528 23.2824862,22.2213634 C23.2824862,23.5858853 24.6637252,24.6961879 26.3612181,24.6961879 C28.058711,24.6961879 29.4391594,23.5858853 29.4391594,22.2213634 C29.4391594,18.685809 25.8615369,15.8093181 21.4632355,15.8093181 C17.0649341,15.8093181 13.4873116,18.685809 13.4873116,22.2213634 C13.4873116,26.3085736 17.6065189,33.230964 20.06144,36.9927735 C20.4472698,37.5838333 21.5675993,37.1211543 21.1770257,36.5224679 C18.7750772,32.8426441 14.7467928,26.0912161 14.7467928,22.2213634 M23.5852993,28.2558931 C28.8185111,29.8345947 34.4154148,26.7057912 34.4154148,22.2213634 C34.4154148,19.7802229 33.343314,17.4070861 31.3951899,15.5392101 C30.8607208,15.0263228 29.894565,15.675853 30.4298248,16.1893759 C32.1881966,17.8754851 33.1559336,20.0172824 33.1559336,22.2213634 C33.1559336,25.997155 28.4453314,28.6391286 24.0272641,27.3082908 C23.2500701,27.0725024 22.8049427,28.0207403 23.5852993,28.2558931 M28.4674692,14.6958377 C29.1339743,15.0968686 29.8882399,14.2865447 29.2225254,13.8855138 C20.7516642,8.78587547 8.65416103,13.6516321 8.52054375,22.0859916 C8.50947487,22.7558594 9.76895611,22.7755614 9.77923436,22.0987026 C9.90099212,14.4842002 20.8236119,10.093198 28.4674692,14.6958377 M25.7706139,22.2213634 C25.7706139,22.8899601 27.0300951,22.8912311 27.0300951,22.2213634 C27.0300951,17.7591798 19.7451861,16.0590885 16.7652835,19.8202625 C16.3177842,20.3846292 17.3796067,20.929294 17.827106,20.3642917 C20.1286439,17.4598366 25.7706139,18.7627104 25.7706139,22.2213634 M17.1558571,22.2213634 C17.1558571,21.5527667 15.8963758,21.5514956 15.8963758,22.2213634 C15.8963758,25.4493125 20.8180775,33.5296717 23.2010508,36.9374808 C23.6090183,37.5202785 24.7072101,37.0251865 24.2992425,36.4417533 C21.4181693,32.3227657 17.1558571,24.954856 17.1558571,22.2213634 M28.6896376,25.1506048 C28.3947308,25.2999586 28.3069703,25.6120128 28.4919789,25.8490722 C28.6113647,26.0016038 28.8161392,26.0854962 29.0256574,26.0854962 C29.1402994,26.0854962 29.2565227,26.0600742 29.3600959,26.0073237 C30.9895942,25.1830178 31.9628657,23.767652 31.9628657,22.2213634 C31.9628657,15.7591098 23.1947257,11.6089804 16.082175,14.9792922 C15.3682318,15.3224882 16.0133898,16.1919181 16.7289143,15.8480865 C22.964651,12.890881 30.7033844,16.5160476 30.7033844,22.2213634 C30.7033844,23.417465 29.9507001,24.5125145 28.6896376,25.1506048 M26.3999592,26.6924446 C23.3330868,26.6924446 20.8378434,24.6866547 20.8378434,22.2213634 C20.8378434,21.5514956 22.0973246,21.5521312 22.0973246,22.2213634 C22.0973246,24.1286434 24.0272641,25.6800164 26.3999592,25.6800164 C27.2332883,25.6800164 27.2324976,26.6924446 26.3999592,26.6924446" id="Fill-1" fill="url(#linearGradient-1)"></path>
                            <path d="M4.3752943,0 L0,0 L0,4.18018065 C0,4.51009625 0.27939099,4.77777778 0.624705698,4.77777778 C0.970020405,4.77777778 1.2501962,4.51009625 1.2501962,4.18018065 L1.2501962,1.19444444 L4.3752943,1.19444444 C4.72060901,1.19444444 5,0.926762921 5,0.596847318 C5,0.267681523 4.72060901,0 4.3752943,0" id="Fill-3" fill="#777263"></path>
                            <path d="M38.6247057,0 C38.279391,0 38,0.267681523 38,0.596847318 C38,0.926762921 38.279391,1.19444444 38.6247057,1.19444444 L41.7498038,1.19444444 L41.7498038,4.18018065 C41.7498038,4.51009625 42.0299796,4.77777778 42.3752943,4.77777778 C42.720609,4.77777778 43,4.51009625 43,4.18018065 L43,0 L38.6247057,0 Z" id="Fill-5" fill="#777263"></path>
                            <path d="M4.3752943,41.8055556 L1.2501962,41.8055556 L1.2501962,38.8198193 C1.2501962,38.4899037 0.970020405,38.2222222 0.624705698,38.2222222 C0.27939099,38.2222222 0,38.4899037 0,38.8198193 L0,43 L4.3752943,43 C4.72060901,43 5,42.7323185 5,42.4024029 C5,42.0732371 4.72060901,41.8055556 4.3752943,41.8055556" id="Fill-7" fill="#777263"></path>
                            <path d="M42.3752943,41.8055556 L39.2501962,41.8055556 L39.2501962,38.8198193 C39.2501962,38.4899037 38.9700204,38.2222222 38.6247057,38.2222222 C38.279391,38.2222222 38,38.4899037 38,38.8198193 L38,43 L42.3752943,43 C42.720609,43 43,42.7323185 43,42.4024029 C43,42.0732371 42.720609,41.8055556 42.3752943,41.8055556" id="Fill-7" fill="#777263" transform="translate(40.500000, 40.611111) scale(-1, 1) translate(-40.500000, -40.611111) "></path>
                        </g>
                    </g>
                </g>
            </g>
        </g>
    </g>
</svg>