<?xml version="1.0" encoding="utf-8"?>
<!-- Generator: Adobe Illustrator 21.1.0, SVG Export Plug-In . SVG Version: 6.00 Build 0)  -->
<svg version="1.1" id="Слой_1" xmlns="http://www.w3.org/2000/svg" xmlns:xlink="http://www.w3.org/1999/xlink" x="0px" y="0px"
	 viewBox="0 0 175.1000061 56.5999985" enable-background="new 0 0 175.1000061 56.5999985" xml:space="preserve">
<rect x="118.5" fill="#FF9A00" width="56.5999908" height="56.5999985"/>
<polygon fill="#EB6E19" points="118.5,56.5999985 175.1000061,56.5999985 175.1000061,0 "/>
<g id="CRYPTO_3_">
	<path fill="currentColor" d="M6.8999996,21.2000008c1.7999992,0,2.7999992,1.1000004,3.2000008,2.7000008h3.7999992
		c-0.7000008-4-3.3999996-6-6.8999996-6c-2.2000008,0-3.7999992,0.7000008-5.1000004,2C0,21.8000011,0,23.9000015,0,27.5000019
		s0,5.6999989,1.8999996,7.6000004c1.2999992,1.2999992,2.8999996,2,5.1000004,2c3.5,0,6.2000008-2,6.8999996-6h-3.7000008
		c-0.3999996,1.5-1.3999996,2.7000008-3.2000008,2.7000008c-1,0-1.7999992-0.4000015-2.3999996-1
		c-0.7000008-0.7999992-0.8999996-1.7000008-0.8999996-5.2999992s0.2000008-4.5,0.8999996-5.2999992
		C5,21.6000004,5.8999996,21.2000008,6.8999996,21.2000008z M32.0999985,23.7999992C32.0999985,20.5999985,29.7999992,18,26,18
		h-7.4000015v19h3.7000008v-7.5H25l3.7000008,7.5H33l-4.2000008-8.1000004C30.5,28.1000004,32.0999985,26.5,32.0999985,23.7999992z
		 M25.7000008,26.2999992h-3.4000015v-5h3.5c1.5999985,0,2.7000008,1,2.7000008,2.5
		C28.3999977,25.2999992,27.3999977,26.2999992,25.7000008,26.2999992z M42.7999992,25.7000008l-3.5-7.6000004h-4L41,29.2000008V37
		h3.7000008v-7.7000008l5.5999985-11.1999989h-4L42.7999992,25.7000008z M61.4999962,18.1000004h-7.3000031V37h3.6999969v-7.1000004
		h3.5999985c3.9000053,0,6.1999931-2.7000008,6.1999931-5.8999996
		C67.6999969,20.7000008,65.3999939,18.1000004,61.4999962,18.1000004z M61.2999992,26.5h-3.5v-5.2000008h3.5
		c1.6999969,0,2.6999969,1.1000004,2.6999969,2.6000004S62.9999962,26.5,61.2999992,26.5z M70.8999939,21.3999996h4.9000092V37H79.5
		V21.3999996h4.8999939v-3.2999992h-13.5V21.3999996z M99.8999939,19.8999996c-1.3000031-1.2999992-2.8999939-2-5-2
		c-2.1999969,0-3.8000031,0.7000008-5.0999908,2c-1.9000092,1.8999996-1.9000092,4-1.9000092,7.6000004
		s0,5.7000008,1.9000092,7.5999985c1.3000031,1.2999992,2.8999939,2,5.0999908,2s3.8000031-0.7000008,5-2
		c1.9000092-1.9000015,1.9000092-4,1.9000092-7.6000004C101.8999939,23.8999996,101.8000031,21.7999992,99.8999939,19.8999996z
		 M97.1999969,32.7999992c-0.5,0.5999985-1.3999939,1-2.3999939,1s-1.8000031-0.4000015-2.4000092-1
		C91.6999969,32,91.5,31.0999985,91.5,27.5s0.1999969-4.5,0.8999939-5.2999992c0.6000061-0.6000004,1.4000092-1,2.4000092-1
		s1.8000031,0.3999996,2.3999939,1C97.8999939,23,98.1000061,23.9000015,98.1000061,27.5
		C98.1999969,31.1000004,97.8999939,32,97.1999969,32.7999992z"/>
</g>
<g>
	<g id="Прямоугольник_1_9_">
		<g>
			<rect x="152.5" y="24" fill="#FFFFFF" width="3.1000061" height="13.2000008"/>
		</g>
	</g>
	<g id="Эллипс_1_9_">
		<g>
			<path fill="#FFFFFF" d="M154.1000061,18.3999996c-1.1999969,0-2.1999969,1-2.1999969,2.2000008s1,2.2000008,2.1999969,2.2000008
				s2.1999969-1,2.1999969-2.2000008S155.3000031,18.3999996,154.1000061,18.3999996z"/>
		</g>
	</g>
	<g id="P_9_">
		<g>
			<path fill="#FFFFFF" d="M148.4000092,19.8999996c-1.1999969-1.1000004-2.8999939-1.7000008-5-1.7000008h-7V37h3.6999969
				v-6.7999992h3.3000031c2.1000061,0,3.8000031-0.5,5-1.6000004s1.8000031-2.5,1.8000031-4.3000011
				C150.1999969,22.5,149.6000061,21,148.4000092,19.8999996z M145.8000031,26.5
				c-0.5,0.6000004-1.3000031,0.8999996-2.3000031,0.8999996h-3.3000031v-6.1999989H143.5
				c1,0,1.8000031,0.2999992,2.3000031,0.8999996s0.8000031,1.2999992,0.8000031,2.2000008
				C146.6000061,25.2000008,146.3000031,25.8999996,145.8000031,26.5z"/>
		</g>
	</g>
</g>
</svg>
