<?xml version="1.0" encoding="utf-8"?>
<!-- Generator: Adobe Illustrator 21.1.0, SVG Export Plug-In . SVG Version: 6.00 Build 0)  -->
<svg version="1.1" id="Слой_1" xmlns="http://www.w3.org/2000/svg" xmlns:xlink="http://www.w3.org/1999/xlink" x="0px" y="0px"
	 viewBox="0 0 175.2201996 56.6479988" enable-background="new 0 0 175.2201996 56.6479988" xml:space="preserve">
<rect x="118.5802917" y="0.007" fill-rule="evenodd" clip-rule="evenodd" fill="#F59A00" width="56.6399002" height="56.6409988"/>
<polygon fill-rule="evenodd" clip-rule="evenodd" fill="#CA8610" points="118.5701981,56.6479988 175.2201996,56.6479988 
	175.2201996,0 "/>
<g id="CRYPTO">
	<path fill-rule="evenodd" clip-rule="evenodd" d="M6.9836001,21.1963997c1.8321996,0,2.7883,1.1406994,3.1600003,2.6792011H13.9143
		c-0.6904001-3.9524002-3.3989-5.9682999-6.9306998-5.9682999c-2.1774001,0-3.7707002,0.7160988-5.0718002,1.989399
		C0.0265,21.7800007,0,23.9020996,0,27.5095997c0,3.6076012,0.0265,5.7296009,1.9118,7.6130009
		c1.3010999,1.273201,2.8944001,1.989399,5.0718002,1.989399c3.5051999,0,6.2402997-2.0158997,6.9306998-5.9682999h-3.7441998
		c-0.3717003,1.5385017-1.3543005,2.6791992-3.1865001,2.6791992c-1.0090003,0-1.8322001-0.3714981-2.3633003-0.9814987
		c-0.6903999-0.7957993-0.9293997-1.7241993-0.9293997-5.3318005c0-3.6075001,0.2389998-4.5359001,0.9293997-5.3316994
		C5.1514001,21.5678005,5.9745998,21.1963997,6.9836001,21.1963997z M32.2335014,23.8490009
		c0-3.156601-2.2836018-5.7827015-6.1340008-5.7827015H18.691v18.8865013h3.691v-7.5332012h2.6553993l3.691,7.5332012h4.275301
		l-4.2222004-8.1434002C30.6137009,28.1462002,32.2335014,26.5016003,32.2335014,23.8490009z M25.8605995,26.3425007H22.382
		v-4.9869003h3.4785995c1.6198006,0,2.6820011,1.0345993,2.6820011,2.4934006
		C28.5426006,25.3080006,27.4804001,26.3425007,25.8605995,26.3425007z M42.9319,25.6793003l-3.531601-7.6130009h-4.0096016
		l5.6823997,11.1410007v7.7455006h3.6645012v-7.7455006l5.6825981-11.1410007h-4.0095978L42.9319,25.6793003z
		 M61.6230965,18.0662994h-7.3288994v18.8865013h3.6909981v-7.1088009h3.6379013
		c3.9298973,0,6.2401009-2.6791992,6.2401009-5.8887997C67.8631973,20.7455006,65.5529938,18.0662994,61.6230965,18.0662994z
		 M61.4371986,26.5280991h-3.4520035v-5.1724987h3.4520035c1.6728973,0,2.735096,1.0611,2.735096,2.5995998
		S63.110096,26.5280991,61.4371986,26.5280991z M71.0203934,21.3556004h4.939003v15.5972004h3.6911011V21.3556004h4.9389954
		v-3.2893009H71.0203934V21.3556004z M100.0415955,19.8966999c-1.274498-1.2733002-2.8677979-1.989399-5.0451965-1.989399
		c-2.1774063,0-3.7972031,0.7160988-5.0718002,1.989399c-1.8852997,1.8833008-1.9118042,4.0053997-1.9118042,7.6128998
		c0,3.6076012,0.0265045,5.7296009,1.9118042,7.6130009c1.2745972,1.273201,2.8943939,1.989399,5.0718002,1.989399
		c2.1773987,0,3.7706985-0.716198,5.0451965-1.989399c1.885498-1.8834,1.9384995-4.0053997,1.9384995-7.6130009
		C101.9800949,23.9020996,101.9270935,21.7800007,100.0415955,19.8966999z M97.3596954,32.7882996
		c-0.5310974,0.6100006-1.3542023,1.0345993-2.3632965,1.0345993c-1.0090027,0-1.8322067-0.4245987-2.3899002-1.0345993
		c-0.6903992-0.7957993-0.9028015-1.6710987-0.9028015-5.2786999c0-3.6075001,0.2124023-4.5093994,0.9028015-5.3052006
		c0.5576935-0.6100998,1.3808975-1.0079994,2.3899002-1.0079994c1.0090942,0,1.8321991,0.3978996,2.3632965,1.0079994
		c0.6903992,0.7958012,0.9292984,1.6977005,0.9292984,5.3052006C98.2889938,31.1172009,98.0500946,31.9925003,97.3596954,32.7882996
		z"/>
</g>
<g>
	<g id="Прямоугольник_1">
		<g>
			
				<rect x="152.651001" y="24.0214005" fill-rule="evenodd" clip-rule="evenodd" fill="#FFFFFF" width="3.1357999" height="13.1702003"/>
		</g>
	</g>
	<g id="Эллипс_1">
		<g>
			<circle fill-rule="evenodd" clip-rule="evenodd" fill="#FFFFFF" cx="154.2189178" cy="20.5720005" r="2.1950235"/>
		</g>
	</g>
	<g id="P">
		<g>
			<path fill-rule="evenodd" clip-rule="evenodd" fill="#FFFFFF" d="M148.5531006,19.9435997
				c-1.205307-1.1021996-2.8585052-1.6534004-4.9594116-1.6534004h-6.9933014v18.8069h3.6661072v-6.8200989h3.3271942
				c2.1009064,0,3.7541046-0.5468006,4.9594116-1.6403999c1.2052002-1.0935001,1.8079987-2.5402012,1.8079987-4.3401012
				C150.3610992,22.4967995,149.7583008,21.0459003,148.5531006,19.9435997z M145.9164886,26.5116997
				c-0.5273895,0.5727997-1.3016968,0.8590012-2.3227997,0.8590012h-3.3271942v-6.1742001h3.3271942
				c1.0296021,0,1.8058014,0.2950001,2.32901,0.8848c0.522995,0.5898991,0.7846985,1.3368988,0.7846985,2.2409992
				C146.7073975,25.2094002,146.4438019,25.9391994,145.9164886,26.5116997z"/>
		</g>
	</g>
</g>
</svg>
