<?xml version="1.0" encoding="utf-8"?>
<!-- Generator: Adobe Illustrator 21.1.0, SVG Export Plug-In . SVG Version: 6.00 Build 0)  -->
<svg version="1.1" id="Слой_1" xmlns="http://www.w3.org/2000/svg" xmlns:xlink="http://www.w3.org/1999/xlink" x="0px" y="0px"
	 viewBox="0 0 179.9999847 63.9671936" enable-background="new 0 0 179.9999847 63.9671936" xml:space="preserve">
<g>
	<path fill-rule="evenodd" clip-rule="evenodd" fill="#FD0C15" d="M170.1510162,25.0843811
		c0-1.9494324,1.5389099-3.5396729,3.3857117-3.5396729c1.8977966,0,3.3854065,1.5902405,3.3854065,3.5396729
		c0,1.9490967-1.4876099,3.5392761-3.3854065,3.5392761C171.6899261,28.6749878,170.1510162,27.0847778,170.1510162,25.0843811
		L170.1510162,25.0843811L170.1510162,25.0843811z M173.5367279,27.8540649c1.4363098,0,2.5647888-1.2310486,2.5647888-2.718689
		s-1.1797791-2.7187195-2.5647888-2.7187195c-1.4365845,0-2.5650635,1.2310791-2.5650635,2.7187195
		S172.1004181,27.8540649,173.5367279,27.8540649L173.5367279,27.8540649L173.5367279,27.8540649z M173.0749359,26.6743164
		h-0.7179871v-3.1288757h1.2824097c0.2562561,0,0.5640869,0,0.7692871,0.153595
		c0.2565613,0.1539612,0.3591919,0.461792,0.3591919,0.7696228c0,0.3588562-0.2052307,0.6667175-0.5131226,0.7693481
		l0.5644226,1.3850098h-0.7696228l-0.4617615-1.2310791h-0.5128174V26.6743164L173.0749359,26.6743164L173.0749359,26.6743164z
		 M173.0749359,24.9304504h0.4104919c0.153656,0,0.3075562,0,0.4101868-0.0513
		c0.1025696-0.0513611,0.1539001-0.2052612,0.1539001-0.3591919c0-0.1026306-0.0513306-0.2565002-0.1539001-0.3078003
		c-0.1026306-0.0510559-0.3078613-0.0510559-0.4101868-0.0510559l-0.3591309-0.0002747L173.0749359,24.9304504
		L173.0749359,24.9304504L173.0749359,24.9304504z"/>
	<path fill-rule="evenodd" clip-rule="evenodd" fill="#FD0C15" d="M121.675766,1.436615l-0.9232483,6.0528259
		c-2.0007324-1.0772095-3.4883423-1.4876404-5.0785522-1.4876404c-4.2063293,0-7.1815796,4.30896-7.1815796,10.4133301
		c0,4.2063293,2.0006714,6.7711182,5.2835083,6.7711182c1.3850098,0,2.9239197-0.461731,4.821991-1.4363098l-0.9745178,6.3606873
		c-2.1033325,0.6156616-3.4370117,0.8208923-5.0272522,0.8208923c-6.104126,0-9.9002991-4.6167603-9.9002991-12.0035706
		C102.695816,6.9763489,107.928299,0,115.4687347,0c0.9745178,0,1.8467407,0.1026001,2.5647888,0.3078613l2.3598328,0.6156616
		C121.0087738,1.1800537,121.1627045,1.2313843,121.675766,1.436615L121.675766,1.436615L121.675766,1.436615z"/>
	<path fill-rule="evenodd" clip-rule="evenodd" fill="#FD0C15" d="M102.8499908,5.5916443
		c-0.1539001-0.0513-0.3591003-0.0513-0.5643311-0.0513c-1.8468018,0-2.9239807,0.9745178-4.6680908,3.6932068l0.5130615-3.4369507
		h-5.1298523l-3.4880676,22.6218872h5.6939392c2.0517578-13.8500977,2.5647888-16.2096863,5.2835083-16.2096863
		c0.1539307,0,0.2052307,0,0.4101868,0c0.513092-2.718689,1.1798096-4.7193604,2.1546326-6.5658569L102.8499908,5.5916443
		L102.8499908,5.5916443L102.8499908,5.5916443z"/>
	<path fill-rule="evenodd" clip-rule="evenodd" fill="#FD0C15" d="M68.9428558,28.1106262
		c-1.5389709,0.513031-2.7700195,0.7695923-4.0527344,0.7695923c-2.8723145,0-4.4625854-1.7441711-4.4625854-4.9759216
		c0-0.6154175,0.0513306-1.3337097,0.1539612-2.0517273l0.3588562-2.2059326l0.2565308-1.7951965l2.4621582-15.4403076h5.6429443
		L68.634964,5.7452393h2.9239502l-0.8208923,5.4890442l-2.8726196-0.0003052l-1.4876709,9.4385071
		c-0.0509644,0.4104919-0.1022949,0.7183228-0.1022949,0.9235229c0,1.1798096,0.6154175,1.6928711,1.9491272,1.6928711
		c0.6669922,0,1.1284485-0.0513306,1.5389099-0.2052307L68.9428558,28.1106262L68.9428558,28.1106262L68.9428558,28.1106262z"/>
	<path fill-rule="evenodd" clip-rule="evenodd" fill="#FD0C15" d="M46.5774689,12.9268494
		c0,2.8726196,1.3337097,4.821991,4.3089905,6.3093262c2.2569275,1.1285095,2.6673584,1.4876404,2.6673584,2.5137634
		c0,1.3850098-1.0258179,2.0517273-3.2317505,2.0517273c-1.6928406,0-3.231781-0.2565308-5.0783081-0.9232178l-0.7695618,5.2321777
		l0.2565308,0.0513306l1.0258484,0.2052002c0.3591614,0.0513306,0.8208923,0.153656,1.4876404,0.2049561
		c1.3336792,0.1026306,2.4108276,0.2052307,3.1291504,0.2052307c5.95047,0,8.7204895-2.4108887,8.7204895-7.5404358
		c0-3.0779114-1.1287842-4.9246216-4.0014038-6.3096313c-2.3595276-1.1285095-2.6160889-1.3850098-2.6160889-2.4622192
		c0-1.2310791,0.9235229-1.8467407,2.7700195-1.8467407c1.1285095,0,2.6160889,0.1539307,4.0523987,0.3591309l0.8209229-5.2322083
		c-1.4876099-0.2565308-3.6932373-0.4617615-4.9759521-0.4617615C48.7318268,5.283783,46.5261688,8.72052,46.5774689,12.9268494
		L46.5774689,12.9268494L46.5774689,12.9268494z"/>
	<path fill-rule="evenodd" clip-rule="evenodd" fill="#FD0C15" d="M166.8682404,28.367157h-5.3864136l0.2565308-2.205658
		c-1.5389404,1.7438965-3.1804504,2.5134888-5.2321777,2.5134888c-4.1550293,0-6.8737183-3.7445374-6.8737183-9.3871765
		c0-7.540741,4.2063293-13.9013977,9.2332764-13.9013977c2.2059326,0,3.8474426,0.9745178,5.437439,3.0775452l1.2310791-7.9508667
		h5.5915833L166.8682404,28.367157L166.8682404,28.367157L166.8682404,28.367157z M158.5068512,23.0836487
		c2.6674194,0,4.513916-3.1291504,4.513916-7.6430359c0-2.8726196-1.0771484-4.4628601-3.0265503-4.4628601
		c-2.5648193,0-4.4113159,3.180481-4.4113159,7.5917358C155.582901,21.5447083,156.5575104,23.0836487,158.5068512,23.0836487
		L158.5068512,23.0836487L158.5068512,23.0836487z"/>
	<path fill-rule="evenodd" clip-rule="evenodd" fill="#FD0C15" d="M86.8966217,27.9053955
		c-1.9493713,0.6156616-3.7958374,0.9234924-5.8478699,0.9234924c-6.3093262,0-9.6437683-3.4882507-9.6437683-10.1567688
		c0-7.7969971,4.2063293-13.4909668,9.9002991-13.4909668c4.6681213,0,7.6433411,3.2315063,7.6433411,8.258728
		c0,1.641571-0.2052002,3.2831421-0.7183228,5.5913391H76.9450226c-0.0513,0.3591919-0.0513,0.5131226-0.0513,0.7180481
		c0,2.6673889,1.6928406,4.0014038,4.9759521,4.0014038c2.0003967,0,3.8471985-0.461792,5.8989258-1.4363098L86.8966217,27.9053955
		L86.8966217,27.9053955L86.8966217,27.9053955z M83.7161713,14.4144897c0.0513-0.4618225,0.0513-0.8719788,0.0513-1.1285095
		c0-1.8467407-0.9745483-2.9239197-2.6674194-2.9239197c-1.7954407,0-3.0778503,1.4363098-3.5906067,4.0524292H83.7161713
		L83.7161713,14.4144897L83.7161713,14.4144897z"/>
	<polygon fill-rule="evenodd" clip-rule="evenodd" fill="#FD0C15" points="23.8016815,28.367157 18.1590424,28.367157 
		21.3907928,6.9763489 14.1066132,28.367157 10.2594299,28.367157 9.7976837,7.1305847 6.3609467,28.367157 1.0771637,28.367157 
		5.4887238,0.5643921 13.6448517,0.5643921 13.8500824,17.8001404 19.3901062,0.5643921 28.2132263,0.5643921 23.8016815,28.367157 
			"/>
	<path fill-rule="evenodd" clip-rule="evenodd" fill="#FD0C15" d="M38.4213715,18.3129578
		c-0.6157074-0.0513306-0.8722229-0.1023254-1.2826843-0.1023254c-3.2314911,0-4.8217316,1.1797791-4.8217316,3.4367065
		c0,1.3850098,0.8206329,2.3082581,2.051712,2.3082581C36.625885,23.9555969,38.3187408,21.6473389,38.4213715,18.3129578
		L38.4213715,18.3129578L38.4213715,18.3129578z M42.5250702,28.367157h-4.7194061l0.1026306-2.3595886
		c-1.4363098,1.8978271-3.3343964,2.7187195-5.9504852,2.7187195c-3.0778656,0-5.1808929-2.5134888-5.1808929-6.1557007
		c0-5.5400085,3.6932526-8.7202148,9.9515839-8.7202148c0.6667175,0,1.4876099,0.0513306,2.3082581,0.1539307
		c0.1539154-0.7696228,0.2052155-1.0774536,0.2052155-1.4876099c0-1.4876404-0.9745636-2.0520325-3.641922-2.0520325
		c-1.590271,0-3.437027,0.2565308-4.7194061,0.6670227l-0.7183228,0.2562256l-0.5127869,0.1539307L30.418869,6.463562
		c2.8213196-0.8719177,4.7194061-1.2311096,6.7711182-1.2311096c4.8733215,0,7.4381104,2.3082886,7.4381104,6.617218
		c0,1.128479-0.1026001,1.9494019-0.461792,4.5141602l-1.128418,8.0534973l-0.2052612,1.4363403l-0.1539307,1.128479
		l-0.1022949,0.8206177L42.5250702,28.367157L42.5250702,28.367157L42.5250702,28.367157z"/>
	<path fill-rule="evenodd" clip-rule="evenodd" fill="#FD0C15" d="M131.4734344,18.3129578
		c-0.5643921-0.0513306-0.8719788-0.1023254-1.2824097-0.1023254c-3.2318115,0-4.8733215,1.1797791-4.8733215,3.4367065
		c0,1.3850098,0.8209229,2.3082581,2.052002,2.3082581C129.6779327,23.9555969,131.3707733,21.6473389,131.4734344,18.3129578
		L131.4734344,18.3129578L131.4734344,18.3129578z M135.5771332,28.367157h-4.7193909l0.1026001-2.3595886
		c-1.4363098,1.8978271-3.3340759,2.7187195-5.9501953,2.7187195c-3.0778503,0-5.1811523-2.5134888-5.1811523-6.1557007
		c0-5.5400085,3.6935425-8.7202148,9.9515686-8.7202148c0.6156921,0,1.4876099,0.0513306,2.3085327,0.1539307
		c0.153656-0.7696228,0.2049561-1.0774536,0.2049561-1.4876099c0-1.4876404-0.9745789-2.0520325-3.6419373-2.0520325
		c-1.590271,0-3.4367676,0.2565308-4.7194214,0.6670227l-0.8206177,0.2052307l-0.5130615,0.1536255l0.7695923-5.0783081
		c2.8213196-0.8718872,4.7191162-1.2310791,6.7711182-1.2310791c4.8730469,0,7.4381104,2.3082886,7.4381104,6.617218
		c0,1.128479-0.1026001,1.9494019-0.4617615,4.5141602l-1.1797791,8.0022278l-0.1539307,1.4362793l-0.1539001,1.1285095
		l-0.1026611,0.7695923L135.5771332,28.367157L135.5771332,28.367157L135.5771332,28.367157z"/>
	<path fill-rule="evenodd" clip-rule="evenodd" fill="#FD0C15" d="M151.4276276,5.5916443
		c-0.1536255-0.0513-0.3588562-0.0513-0.5640869-0.0513c-1.8468018,0-2.9239807,0.9745178-4.6680908,3.6932068l0.5130615-3.4369507
		h-5.1295776l-3.4883423,22.6218872h5.6939697c2.0517273-13.8500977,2.5647888-16.2096863,5.2835083-16.2096863
		c0.1539001,0,0.1539001,0,0.4104614,0c0.5127869-2.718689,1.2310791-4.7193604,2.1543274-6.5658569L151.4276276,5.5916443
		L151.4276276,5.5916443L151.4276276,5.5916443z"/>
	<path fill-rule="evenodd" clip-rule="evenodd" fill="#F3AE12" d="M127.6262665,50.3733826
		c0,5.1298523-1.5902405,8.1564026-4.1037292,8.1564026c-1.8467712,0.0510254-2.9239502-2.0007324-2.9239502-5.0272522
		c0-3.5906372,1.6415405-7.6943359,4.2063293-7.6943359C126.9079132,45.808197,127.6262665,48.0137939,127.6262665,50.3733826
		L127.6262665,50.3733826L127.6262665,50.3733826z M133.2175751,50.4246826c0-5.6939392-2.8213196-10.1565247-8.1051025-10.1565247
		c-6.1040955,0-10.053894,5.3860779-10.053894,13.3369751c0,5.6939392,2.3595276,10.3620605,8.1047974,10.3620605
		C128.9599457,63.9671936,133.2175751,59.8631592,133.2175751,50.4246826L133.2175751,50.4246826L133.2175751,50.4246826z"/>
	<path fill-rule="evenodd" clip-rule="evenodd" fill="#F3AE12" d="M116.8537445,36.3180847l-0.8719482,6.0531006
		c-1.8980713-1.0772095-3.2317505-1.4876404-4.7193909-1.4876404c-3.9497986,0-6.7198181,4.3089294-6.7198181,10.4130554
		c0,4.2063293,1.8467407,6.7711182,4.9246521,6.7711182c1.3336792,0,2.7696838-0.4614563,4.5138855-1.4363098l-0.9232788,6.3609619
		c-1.9493713,0.6156616-3.2317505,0.8205872-4.7193604,0.8205872c-5.6939697,0-9.2846375-4.6164856-9.2846375-12.0032654
		c0-9.9516296,4.9243774-16.9279785,11.9520264-16.9279785c0.9232178,0,1.6928406,0.1026611,2.3598328,0.3078918
		l2.1543274,0.6156311C116.2383575,36.010498,116.3922577,36.0617981,116.8537445,36.3180847L116.8537445,36.3180847
		L116.8537445,36.3180847z"/>
	<path fill-rule="evenodd" clip-rule="evenodd" fill="#F3AE12" d="M81.8183746,40.4217529
		c-0.1539307-0.0513-0.3591614-0.0513-0.5644226-0.0513c-1.7441101,0-2.718689,0.974823-4.3602295,3.6935425l0.513092-3.4369812
		h-4.7707214l-3.231781,22.6218567h5.283783c1.8977966-13.8500671,2.4108582-16.2096252,4.9243469-16.2096252
		c0.1539001,0,0.1539001,0,0.4104614,0.0513306c0.4614868-2.7187195,1.1284485-4.7193909,2.0004272-6.5661621L81.8183746,40.4217529
		L81.8183746,40.4217529L81.8183746,40.4217529z"/>
	<path fill-rule="evenodd" clip-rule="evenodd" fill="#F3AE12" d="M150.9661407,63.0436707h-5.0269775l0.2562866-2.205658
		c-1.4363098,1.743866-2.9752502,2.5134888-4.9243469,2.5134888c-3.8474731,0-6.412262-3.7445374-6.412262-9.3872375
		c0-7.5406799,3.9500732-13.9013672,8.6178589-13.9013672c2.0517273,0,3.6419983,0.9745483,5.0783081,3.1288757l1.1797485-7.9508667
		h5.2324829L150.9661407,63.0436707L150.9661407,63.0436707L150.9661407,63.0436707z M143.1175995,57.7088318
		c2.5137634,0,4.2063293-3.1291199,4.2063293-7.6430054c0-2.8726501-0.9745789-4.4115906-2.8213196-4.4115906
		c-2.4109192,0-4.1037292,3.1291809-4.1037292,7.5917664C140.39888,56.2212524,141.322403,57.7088318,143.1175995,57.7088318
		L143.1175995,57.7088318L143.1175995,57.7088318z"/>
	<path fill-rule="evenodd" clip-rule="evenodd" fill="#F3AE12" d="M32.1630249,62.9410706
		c-1.7951813,0.6156311-3.5393372,0.9235229-5.4374084,0.9235229c-5.8991852,0-8.9767609-3.4883118-8.9767609-10.1568604
		c0-7.745636,3.9497986-13.4909058,9.2333069-13.4909058c4.3602295,0,7.130249,3.1802063,7.130249,8.2587585
		c0,1.6415405-0.2052155,3.2828064-0.6669922,5.5913391h-10.515686c-0.0513,0.3588562-0.0513,0.5127869-0.0513,0.7180176
		c0,2.6160889,1.5902252,3.9497986,4.6680908,3.9497986c1.8977814,0,3.5906525-0.4614868,5.4887085-1.4363403L32.1630249,62.9410706
		L32.1630249,62.9410706L32.1630249,62.9410706z M29.1877747,49.4501038c0-0.461731,0.0513306-0.8719177,0.0513306-1.128479
		c0-1.8467407-0.9232635-2.9239197-2.5134888-2.9239197c-1.6928558,0-2.8726349,1.4363098-3.3856964,4.0523987H29.1877747
		L29.1877747,49.4501038L29.1877747,49.4501038z"/>
	<path fill-rule="evenodd" clip-rule="evenodd" fill="#F3AE12" d="M95.1553497,62.9410706
		c-1.7954102,0.6156311-3.5395813,0.9235229-5.4373779,0.9235229c-5.9505005,0-9.0283508-3.4883118-9.0283508-10.1568604
		c0-7.745636,3.9497986-13.4909058,9.2335815-13.4909058c4.3599548,0,7.1815796,3.1802063,7.1815796,8.2587585
		c0,1.6415405-0.2052307,3.2828064-0.6670227,5.5913391H85.9218292c-0.0513611,0.3588562-0.0513611,0.5127869-0.0513611,0.7180176
		c0,2.6160889,1.590271,3.9497986,4.6681213,3.9497986c1.8980408,0,3.5909424-0.4614868,5.488739-1.4363403L95.1553497,62.9410706
		L95.1553497,62.9410706L95.1553497,62.9410706z M92.1800995,49.4501038c0.0513-0.461731,0.0513-0.8719177,0.0513-1.128479
		c0-1.8467407-0.9231873-2.9239197-2.5134277-2.9239197c-1.6929016,0-2.8726807,1.4363098-3.3857117,4.0523987H92.1800995
		L92.1800995,49.4501038L92.1800995,49.4501038z"/>
	<path fill-rule="evenodd" clip-rule="evenodd" fill="#F3AE12" d="M169.0225677,62.9410706
		c-1.8467712,0.6156311-3.5906677,0.9235229-5.4374084,0.9235229c-5.899231,0-9.0283813-3.4883118-9.0283813-10.1568604
		c0-7.745636,3.9500732-13.4909058,9.2849121-13.4909058c4.3599548,0,7.1299744,3.1802063,7.1299744,8.2587585
		c0,1.6415405-0.2049255,3.2828064-0.666748,5.5913391h-10.5159302c-0.0510559,0.3588562-0.0510559,0.5127869-0.0510559,0.7180176
		c0,2.6160889,1.5899963,3.9497986,4.6678467,3.9497986c1.8980713,0,3.5909424-0.4614868,5.4889832-1.4363403
		L169.0225677,62.9410706L169.0225677,62.9410706L169.0225677,62.9410706z M166.047287,49.4501038
		c0-0.461731,0.0513-0.8719177,0.0513-1.128479c0-1.8467407-0.9231873-2.9239197-2.5134277-2.9239197
		c-1.6929016,0-2.8726501,1.4363098-3.3857422,4.0523987H166.047287L166.047287,49.4501038L166.047287,49.4501038z"/>
	<path fill-rule="evenodd" clip-rule="evenodd" fill="#F3AE12" d="M16.4661713,41.4479065
		c-1.0258484-0.7182617-2.4621582-1.2826843-4.4112701-1.2826843c-2.1546173,0-3.8474731,0.461792-3.8474731,2.7187195
		c0,4.0013733,7.7972565,2.5137634,7.7972565,11.1313477c0,7.8485718-5.1298523,9.9002991-9.7979431,9.9002991
		c-2.0517273,0-4.4625854-0.6667175-6.2067413-1.4876404l1.2823944-5.7452393
		c1.077179,0.9748535,3.180481,1.6415405,4.9759521,1.6415405c1.6925659,0,4.2576294-0.461731,4.2576294-3.385437
		c0-4.5654297-7.7972717-2.8725891-7.7972717-10.875061c0-7.3352356,4.5654907-9.4898682,8.9770508-9.4898682
		c2.4621582,0,4.8220215,0.3591919,6.155426,1.2826843L16.4661713,41.4479065L16.4661713,41.4479065L16.4661713,41.4479065z"/>
	<path fill-rule="evenodd" clip-rule="evenodd" fill="#F3AE12" d="M47.6546783,62.9410706
		c-1.0772095,0.513031-2.5648193,0.8722229-4.7194214,0.8722229c-4.6165161,0-7.4891663-4.6168213-7.4891663-10.2594604
		c0-7.3867798,4.1550293-13.234375,10.2591858-13.234375c1.3337097,0,3.3856812,0.5640869,4.9759216,1.4876099l-1.1797485,5.3861084
		c-1.1288147-0.7695923-2.3085632-1.2310791-3.5396423-1.2310791c-2.8213196,0-4.8730774,2.6160889-4.8730774,7.232605
		c0,2.6676941,1.4876709,4.873291,3.795929,4.873291c1.3850098,0,2.3595581-0.3078308,3.5393372-0.9745178L47.6546783,62.9410706
		L47.6546783,62.9410706L47.6546783,62.9410706z"/>
	<path fill-rule="evenodd" clip-rule="evenodd" fill="#F3AE12" d="M67.4551849,57.2471008
		c-0.2565308,1.9493713-0.513031,3.8474731-0.6669617,5.8478699h-5.0782776l0.4104919-3.6419678h-0.0513306
		c-1.5902405,2.4621582-3.2318115,4.1550293-6.1557007,4.1550293c-3.180481,0-4.9243469-3.3856812-4.9243469-7.745636
		c0-1.5389404,0.1022949-2.3598633,0.4101563-4.7194519l1.4363403-10.4646301h5.6939392l-1.5389404,10.5156555
		c-0.1539001,1.1287537-0.3588562,2.2572632-0.3588562,3.4370422c0,1.3337097,0.6154175,2.6673889,2.1543274,2.5647888
		c2.3085327,0,3.6932678-2.8213501,4.1036987-6.1554565l1.5902405-10.36203h5.4887085L67.4551849,57.2471008L67.4551849,57.2471008
		L67.4551849,57.2471008z"/>
	<polygon fill-rule="evenodd" clip-rule="evenodd" fill="#F3AE12" points="174.3060455,62.8384399 173.4341278,62.8384399 
		173.4341278,59.0938416 172.2030182,59.0938416 172.2030182,58.2732544 175.5371246,58.2732544 175.5371246,59.0938416 
		174.3060455,59.0938416 174.3060455,62.8384399 	"/>
	<polygon fill-rule="evenodd" clip-rule="evenodd" fill="#F3AE12" points="179.9999847,62.8384399 179.1793976,62.8384399 
		179.1793976,59.042572 179.1793976,59.042572 178.4097443,62.8384399 177.5891571,62.8384399 176.8195343,59.042572 
		176.8195343,59.042572 176.8195343,62.8384399 175.9989166,62.8384399 175.9989166,58.2732544 177.2812958,58.2732544 
		177.999588,61.8638611 178.0506134,61.8638611 178.7689362,58.2732544 179.9999847,58.2732544 179.9999847,62.8384399 	"/>
</g>
</svg>
