<?xml version="1.0" encoding="utf-8"?>
<!-- Generator: Adobe Illustrator 21.1.0, SVG Export Plug-In . SVG Version: 6.00 Build 0)  -->
<svg version="1.1" id="Слой_1" xmlns="http://www.w3.org/2000/svg" xmlns:xlink="http://www.w3.org/1999/xlink" x="0px" y="0px"
	 viewBox="0 0 116.4962311 90.6106873" enable-background="new 0 0 116.4962311 90.6106873" xml:space="preserve">
<title>mc_vrt_rgb_pos</title>
<g id="Layer_2">
	<g id="Layer_1-2">
		<rect x="-15.1537638" y="-15.1493187" display="none" fill="none" width="146.8000031" height="120.4100037"/>
		<path fill="#231F20" d="M21.1962357,90.1106873v-6c0.1359253-1.9614258-1.3439369-3.6616745-3.3053665-3.7975998
			c-0.1513367-0.0104828-0.3031921-0.0112915-0.4546318-0.0024033c-1.3461647-0.0882568-2.6336718,0.5631638-3.3600016,1.6999969
			c-0.6622047-1.1029358-1.8747215-1.7552414-3.1599998-1.6999969c-1.1190815-0.056572-2.1844368,0.4837112-2.7999992,1.4199982
			v-1.1800003H6.0362368v9.5599976h2.1000004v-5.2599945c-0.1674805-1.2257309,0.6903992-2.3551483,1.9161263-2.5226288
			c0.1404247-0.0191879,0.2823505-0.0250015,0.4238739-0.0173721c1.3799992,0,2.0799999,0.9000015,2.0799999,2.5199966v5.3199997
			h2.1000004v-5.2999954c-0.1616249-1.2320862,0.7061539-2.361908,1.9382391-2.5235367
			c0.1331615-0.0174637,0.2676182-0.0229797,0.401762-0.0164642c1.4199982,0,2.0999985,0.9000015,2.0999985,2.5199966v5.3199997
			L21.1962357,90.1106873z M52.2662354,80.5506821h-3.4199982v-2.8999939h-2.0999985v2.9000015h-1.9000015v1.9000015h1.9399986
			v4.3999939c0,2.2200012,0.8600006,3.5400009,3.3200035,3.5400009c0.9190598,0.0030899,1.8203049-0.253418,2.5999985-0.7399979
			l-0.5999985-1.7799988c-0.5577927,0.3327103-1.1908646,0.5185013-1.8399963,0.5400009
			c-1,0-1.3799973-0.6399994-1.3799973-1.5999985v-4.3600082h3.4000015L52.2662354,80.5506821z M70.0062332,80.3106842
			c-1.0330811-0.0303802-2.0000153,0.5068054-2.5199966,1.4000015v-1.1600037H65.426239v9.5599976h2.0800018v-5.359993
			c0-1.5800018,0.6800003-2.4599991,2-2.4599991c0.4448853-0.0060883,0.8866196,0.0754623,1.3000031,0.2399979l0.6399994-2
			c-0.475029-0.1699371-0.9754944-0.2578583-1.4800034-0.2600021L70.0062332,80.3106842z M43.1862335,81.3106842
			c-1.1773758-0.7000198-2.5310516-1.0471191-3.9000015-1c-2.4199982,0-4,1.1600037-4,3.0599976
			c0,1.5599976,1.1599998,2.5199966,3.2999992,2.8199997l1,0.1399994c1.1399994,0.1600037,1.6800003,0.4599991,1.6800003,1
			c0,0.7399979-0.7599983,1.1600037-2.1800003,1.1600037c-1.1421967,0.0330658-2.2622986-0.3191681-3.1800003-1l-1,1.6200027
			c1.2116127,0.845993,2.6628227,1.2806473,4.1399994,1.2399979c2.7599983,0,4.3600006-1.3000031,4.3600006-3.1200027
			s-1.2599983-2.5599976-3.3400002-2.8600006l-1-0.1399994c-0.9000015-0.1200027-1.6199989-0.3000031-1.6199989-0.9400024
			s0.6800003-1.1200027,1.8199997-1.1200027c1.0536766,0.0122375,2.0865974,0.2945709,3,0.8199997L43.1862335,81.3106842z
			 M98.8962326,80.3106842c-1.0330811-0.0303802-2.0000153,0.5068054-2.5199966,1.4000015v-1.1600037h-2.0599976v9.5599976
			h2.0800018v-5.359993c0-1.5800018,0.6800003-2.4599991,2-2.4599991c0.4448853-0.0060883,0.8866196,0.0754623,1.3000031,0.2399979
			l0.6399994-2c-0.475029-0.1699371-0.9754944-0.2578583-1.4800034-0.2600021L98.8962326,80.3106842z M72.0962372,85.3106842
			c-0.0981598,2.6657257,1.9832611,4.9063034,4.6489944,5.0044632c0.150322,0.0055389,0.3008194,0.0040512,0.451004-0.0044632
			c1.2488785,0.0635376,2.4762344-0.3432007,3.4400024-1.1399994l-1-1.6800003
			c-0.7190323,0.5483093-1.5958176,0.8499298-2.5,0.8600006c-1.6899948-0.1367264-2.9491577-1.6175842-2.8124313-3.3075714
			c0.1213684-1.5001221,1.3123093-2.6910629,2.8124313-2.8124313c0.9041824,0.0100708,1.7809677,0.3116913,2.5,0.8600006
			l1-1.6800003c-0.963768-0.7967987-2.191124-1.203537-3.4400024-1.1399994
			c-2.6632614-0.1509247-4.9446106,1.8857346-5.0955353,4.548996c-0.0085068,0.1501846-0.0100021,0.3006821-0.0044632,0.451004
			V85.3106842z M91.5762329,85.3106842v-4.7600021h-2.0800018v1.1600037c-0.7165985-0.9220505-1.8330231-1.4430542-3-1.4000015
			c-2.7614212,0-5,2.2385788-5,5s2.2385788,5,5,5c1.1669769,0.0430527,2.2834015-0.477951,3-1.4000015v1.1600037h2.0800018
			V85.3106842z M83.836235,85.3106842c0.0939102-1.593338,1.4616928-2.8088684,3.0550308-2.7149582
			s2.8088684,1.4616928,2.7149582,3.0550308c-0.0896835,1.5216293-1.3457336,2.7120056-2.8699875,2.7199249
			c-1.5849304,0.0200577-2.8860245-1.2485275-2.9060822-2.8334579
			C83.8292007,85.4616623,83.8312225,85.3860855,83.836235,85.3106842z M58.7362366,80.3106842
			c-2.7614212,0.0386581-4.9686584,2.3085785-4.9300003,5.0699997s2.3085785,4.9686584,5.0699997,4.9300003l0,0
			c1.438736,0.0738525,2.8536072-0.3894577,3.9700012-1.2999954l-1-1.5400009c-0.7896347,0.6332779-1.7678986,0.9851685-2.7799988,1
			c-1.4296341,0.1229477-2.6974182-0.9143295-2.8600006-2.3399963h7.0999985c0-0.2600021,0-0.5199966,0-0.8000031
			c0-3-1.8600006-5-4.5400009-5L58.7362366,80.3106842z M58.7362366,82.1706848
			c1.3086166-0.0279007,2.3920746,1.0103302,2.4199753,2.3189468c0.0000076,0.000351,0.0000153,0.0007019,0.0000229,0.0010529h-5
			c0.075325-1.3351746,1.203476-2.3656158,2.5400009-2.3199997H58.7362366z M110.8462372,85.3306885v-8.6200027h-2v5
			c-0.7165985-0.9220505-1.8330231-1.4430542-3-1.4000015c-2.7614212,0-5,2.2385788-5,5s2.2385788,5,5,5
			c1.1669769,0.0430527,2.2834015-0.477951,3-1.4000015v1.1600037h2V85.3306885z M114.3162384,88.7206879
			c0.1300201-0.0015945,0.2590942,0.0221863,0.3800049,0.0699997c0.1148376,0.0468597,0.2199554,0.1146851,0.3099976,0.1999969
			c0.0878754,0.0862198,0.1590729,0.1879272,0.2100067,0.3000031c0.102356,0.2360458,0.102356,0.503952,0,0.7399979
			c-0.0509338,0.1120758-0.1221313,0.2137833-0.2100067,0.3000031c-0.0900421,0.0853119-0.1951599,0.1531372-0.3099976,0.1999969
			c-0.1197205,0.0528259-0.2491455,0.0800781-0.3800049,0.0800018c-0.3869476-0.0029221-0.7374878-0.2288208-0.8999939-0.5800018
			c-0.101181-0.23629-0.101181-0.5037079,0-0.7399979c0.0509338-0.1120758,0.1221313-0.2137833,0.2100067-0.3000031
			c0.0900421-0.0853119,0.1951599-0.1531372,0.3099976-0.1999969c0.130249-0.0518112,0.269928-0.0756607,0.4099884-0.0699997
			H114.3162384z M114.3162384,90.4106903c0.0998077,0.0006027,0.1986237-0.0198364,0.2899933-0.0599976
			c0.0860291-0.038414,0.1640625-0.0926971,0.2299957-0.1600037c0.2592926-0.2829056,0.2592926-0.7170944,0-1
			c-0.0657806-0.0674973-0.1438446-0.1218033-0.2299957-0.1600037c-0.0914612-0.0398788-0.1902161-0.0603104-0.2899933-0.0599976
			c-0.0996857,0.0005264-0.1982727,0.0209274-0.2899933,0.0599976c-0.0898438,0.0368423-0.1714478,0.0912399-0.2400055,0.1600037
			c-0.2592926,0.2829056-0.2592926,0.7170944,0,1c0.0687256,0.0685577,0.1502838,0.1229324,0.2400055,0.1600037
			c0.1008911,0.0435028,0.2101898,0.0639954,0.3199921,0.0599899L114.3162384,90.4106903z M114.376236,89.2206879
			c0.0933533-0.0045242,0.1853333,0.0237808,0.2599945,0.0800018c0.0621033,0.0513992,0.0956116,0.1295853,0.0899963,0.2099991
			c0.0028992,0.0671539-0.0224915,0.1324539-0.0700073,0.1800003c-0.0579681,0.0526428-0.1319122,0.0843353-0.2100067,0.0899963
			l0.2899933,0.3300018h-0.2299957l-0.2700043-0.3300018h-0.0899963v0.3300018h-0.1900024V89.23069L114.376236,89.2206879z
			 M114.1562347,89.390686v0.2399979h0.2200012c0.0391541,0.011673,0.0808411,0.011673,0.1199951,0
			c0.014267-0.0283051,0.014267-0.0616913,0-0.0899963c0.014267-0.0283051,0.014267-0.0616913,0-0.0899963
			c-0.0391541-0.011673-0.0808411-0.011673-0.1199951,0L114.1562347,89.390686z M103.1562347,85.3306885
			c0.0939102-1.593338,1.4616928-2.8088684,3.0550308-2.7149582s2.8088684,1.4616928,2.7149582,3.0550308
			c-0.0896835,1.5216293-1.3457336,2.7120056-2.8699875,2.7199249c-1.5849304,0.0200577-2.8860245-1.2485275-2.9060822-2.8334579
			C103.1492004,85.4816666,103.1512222,85.4060898,103.1562347,85.3306885z M32.9262314,85.3306885v-4.7800064h-2.0799942v1.1600037
			c-0.7165947-0.9220505-1.8330231-1.4430542-3-1.4000015c-2.761425,0-5,2.2385788-5,5s2.238575,5,5,5
			c1.1669769,0.0430527,2.2834053-0.477951,3-1.4000015v1.1600037h2.0800018L32.9262314,85.3306885z M25.1862335,85.3306885
			c0.0939102-1.593338,1.4616928-2.8088684,3.0550308-2.7149582s2.8088646,1.4616928,2.7149582,3.0550308
			c-0.0896835,1.5216293-1.3457375,2.7120056-2.8699875,2.7199249c-1.5847511,0.0311127-2.8946686-1.228363-2.9257774-2.813118
			c-0.0016174-0.0823364,0.0003128-0.1647034,0.0057793-0.2468796H25.1862335z"/>
		<g id="_Group_">
			<rect x="42.4962387" y="7.7006822" fill="#FF5F00" width="31.5" height="56.6100006"/>
			<path id="_Path_" fill="#EB001B" d="M44.4962387,36.0106812c-0.011776-11.0485077,5.0588455-21.4884548,13.75-28.3099995
				C42.6138191-4.5847306,19.981945-1.8714452,7.6965303,13.760973s-9.5721273,38.2642899,6.0602932,50.5497131
				c13.0552111,10.2600021,31.4342041,10.2600021,44.4894142,0C49.5578461,57.4912987,44.4875374,47.0556793,44.4962387,36.0106812z
				"/>
			<path fill="#F79E1B" d="M116.4962311,36.0106812c-0.000473,19.8822517-16.1185913,35.9996262-36.0008469,35.9991608
				c-8.0696793-0.0001907-15.9052887-2.711647-22.2491455-7.6991577
				c15.6324234-12.2854195,18.3457031-34.9172897,6.0602951-50.5497131
				c-1.7715683-2.2542114-3.8060837-4.288723-6.0602951-6.0602927c15.630127-12.288331,38.2625046-9.5792723,50.5508347,6.0508533
				c4.9875183,6.343853,7.6989746,14.1794662,7.6991577,22.2491455V36.0106812z"/>
			<path fill="#F79E1B" d="M113.0562439,58.3106804v-1.159996h0.4700012v-0.2399979h-1.1900024v0.2399979h0.5099945v1.1600037
				L113.0562439,58.3106804z M115.3662415,58.3106804v-1.4000015h-0.3600006l-0.4199982,1l-0.4199982-1h-0.3200073v1.4000015
				h0.2599945V57.260685l0.3899994,0.9100037h0.2700043l0.3899994-0.9100037v1.0599976L115.3662415,58.3106804z"/>
		</g>
	</g>
</g>
</svg>
