<?xml version="1.0" encoding="utf-8"?>
<!-- Generator: Adobe Illustrator 21.1.0, SVG Export Plug-In . SVG Version: 6.00 Build 0)  -->
<svg version="1.1" id="Слой_1" xmlns="http://www.w3.org/2000/svg" xmlns:xlink="http://www.w3.org/1999/xlink" x="0px" y="0px"
	 viewBox="0 0 60.3078651 64" enable-background="new 0 0 60.3078651 64" xml:space="preserve">
<g display="none">
	<linearGradient id="SVGID_1_" gradientUnits="userSpaceOnUse" x1="314.1729736" y1="16.4634972" x2="281.1729736" y2="49.4634972">
		<stop  offset="0" style="stop-color:#F59900"/>
		<stop  offset="1" style="stop-color:#CA8608"/>
	</linearGradient>
	<path display="inline" fill="none" stroke="url(#SVGID_1_)" stroke-width="2" stroke-miterlimit="10" d="M303.7095032,7
		c-10.309082,0-18.666687,8.3576002-18.666687,18.666666l-4.4444275,11.5555553V39h4.4444275v8
		c0,2.9462204,2.3880005,5.3333321,5.3333435,5.3333321h5.3333435V63"/>
	<g display="inline">
		<linearGradient id="SVGID_2_" gradientUnits="userSpaceOnUse" x1="298.2095032" y1="51.1666679" x2="295.8761597" y2="53.5">
			<stop  offset="0" style="stop-color:#F59900"/>
			<stop  offset="1" style="stop-color:#CA8608"/>
		</linearGradient>
		
			<line fill="none" stroke="url(#SVGID_2_)" stroke-width="2" stroke-linejoin="round" stroke-miterlimit="10" x1="295.7095032" y1="52.3333321" x2="298.3761597" y2="52.3333321"/>
	</g>
	<g display="inline">
		
			<linearGradient id="SVGID_3_" gradientUnits="userSpaceOnUse" x1="311.7650452" y1="16.7222214" x2="309.8761597" y2="18.6111107">
			<stop  offset="0" style="stop-color:#F59900"/>
			<stop  offset="1" style="stop-color:#CA8608"/>
		</linearGradient>
		
			<line fill="none" stroke="url(#SVGID_3_)" stroke-width="2" stroke-linejoin="round" stroke-miterlimit="10" x1="309.9317017" y1="17.666666" x2="311.7095032" y2="17.666666"/>
		<polyline fill="none" stroke="#CA8608" stroke-width="2" stroke-linejoin="round" stroke-miterlimit="10" points="
			315.2650452,20.333334 308.1539307,27.4444447 304.5983887,23.8888893 		"/>
		<path fill="none" stroke="#CA8608" stroke-width="2" stroke-linejoin="round" stroke-miterlimit="10" d="M316.1539307,25.666666
			c0,4.4183998-3.581604,8.0000019-8,8.0000019s-8-3.5816021-8-8.0000019s3.581604-8,8-8"/>
	</g>
	<linearGradient id="SVGID_4_" gradientUnits="userSpaceOnUse" x1="294.8761597" y1="27.3888893" x2="292.9872742" y2="29.2777786">
		<stop  offset="0" style="stop-color:#F59900"/>
		<stop  offset="1" style="stop-color:#CA8608"/>
	</linearGradient>
	
		<line display="inline" fill="none" stroke="url(#SVGID_4_)" stroke-width="2" stroke-miterlimit="10" x1="293.9317017" y1="27.4444447" x2="293.9317017" y2="29.2222214"/>
	<g display="inline">
		
			<line fill="none" stroke="#CA8608" stroke-width="2" stroke-linejoin="round" stroke-miterlimit="10" x1="320.5983887" y1="52.3333321" x2="317.9317017" y2="52.3333321"/>
	</g>
	<path display="inline" fill="none" stroke="#CA8608" stroke-width="2" stroke-miterlimit="10" d="M293.9317017,25.666666
		C293.9317017,15.3576002,302.2893066,7,312.5983887,7c10.3090515,0,18.6666565,8.3576002,18.6666565,18.666666l4.444458,11.5555553
		V39h-4.444458v8c0,2.9462204-2.3880005,5.3333321-5.3333435,5.3333321h-5.333313V63"/>
	<path display="inline" fill="none" stroke="#CA8608" stroke-width="2" stroke-miterlimit="10" d="M315.2650452,63V52.3333321
		c0-8.8888893,7.1111145-14.5798225,7.1111145-24.8888874V25.666666"/>
	
		<line display="inline" fill="none" stroke="#CA8608" stroke-width="2" stroke-miterlimit="10" x1="322.3761597" y1="22.1111107" x2="322.3761597" y2="23.8888893"/>
</g>
<g display="none">
	<linearGradient id="SVGID_5_" gradientUnits="userSpaceOnUse" x1="136.0074921" y1="36.3535538" x2="102.3003769" y2="70.0606613">
		<stop  offset="0" style="stop-color:#F59900"/>
		<stop  offset="1" style="stop-color:#CA8608"/>
	</linearGradient>
	<polygon display="inline" fill="none" stroke="url(#SVGID_5_)" stroke-width="2" stroke-miterlimit="10" points="146.1539307,58.5 
		92.1539307,58.5 88.1539307,54.5 88.1539307,52.5 112.1539307,52.5 114.1539307,54.5 124.1539307,54.5 126.1539307,52.5 
		150.1539307,52.5 150.1539307,54.5 	"/>
	<linearGradient id="SVGID_6_" gradientUnits="userSpaceOnUse" x1="108.7397461" y1="17.0858154" x2="83.7397461" y2="42.0858154">
		<stop  offset="0" style="stop-color:#F59900"/>
		<stop  offset="1" style="stop-color:#CA8608"/>
	</linearGradient>
	<path display="inline" fill="none" stroke="url(#SVGID_6_)" stroke-width="2" stroke-miterlimit="10" d="M107.1539307,16.5h-12
		c-1.6561966,0-3,1.3428078-3,3v30"/>
	<linearGradient id="SVGID_7_" gradientUnits="userSpaceOnUse" x1="150.4823151" y1="21.1716137" x2="133.6539307" y2="38">
		<stop  offset="0" style="stop-color:#F59900"/>
		<stop  offset="1" style="stop-color:#CA8608"/>
	</linearGradient>
	<path display="inline" fill="none" stroke="url(#SVGID_7_)" stroke-width="2" stroke-miterlimit="10" d="M146.1539307,49.5v-30
		c0-1.6571922-1.3437042-3-3-3h-12"/>
	<linearGradient id="SVGID_8_" gradientUnits="userSpaceOnUse" x1="111.1539307" y1="21.5" x2="90.1539307" y2="42.5">
		<stop  offset="0" style="stop-color:#F59900"/>
		<stop  offset="1" style="stop-color:#CA8608"/>
	</linearGradient>
	<polyline display="inline" fill="none" stroke="url(#SVGID_8_)" stroke-width="2" stroke-miterlimit="10" points="
		103.1539307,46.5 96.1539307,46.5 96.1539307,20.5 109.1539307,20.5 	"/>
	<linearGradient id="SVGID_9_" gradientUnits="userSpaceOnUse" x1="120.1539307" y1="27.5" x2="118.1539307" y2="29.5">
		<stop  offset="0" style="stop-color:#F59900"/>
		<stop  offset="1" style="stop-color:#CA8608"/>
	</linearGradient>
	
		<line display="inline" fill="none" stroke="url(#SVGID_9_)" stroke-width="2" stroke-miterlimit="10" x1="120.1539307" y1="28.5" x2="118.1539307" y2="28.5"/>
	<linearGradient id="SVGID_10_" gradientUnits="userSpaceOnUse" x1="120.1539307" y1="23.5" x2="118.1539307" y2="25.5">
		<stop  offset="0" style="stop-color:#F59900"/>
		<stop  offset="1" style="stop-color:#CA8608"/>
	</linearGradient>
	
		<line display="inline" fill="none" stroke="url(#SVGID_10_)" stroke-width="2" stroke-miterlimit="10" x1="120.1539307" y1="24.5" x2="118.1539307" y2="24.5"/>
	<linearGradient id="SVGID_11_" gradientUnits="userSpaceOnUse" x1="120.1539307" y1="31.5" x2="118.1539307" y2="33.5">
		<stop  offset="0" style="stop-color:#F59900"/>
		<stop  offset="1" style="stop-color:#CA8608"/>
	</linearGradient>
	
		<line display="inline" fill="none" stroke="url(#SVGID_11_)" stroke-width="2" stroke-miterlimit="10" x1="120.1539307" y1="32.5" x2="118.1539307" y2="32.5"/>
	
		<line display="inline" fill="none" stroke="#CA8608" stroke-width="2" stroke-miterlimit="10" x1="117.1539307" y1="36.5" x2="124.1539307" y2="36.5"/>
	
		<line display="inline" fill="none" stroke="#CA8608" stroke-width="2" stroke-miterlimit="10" x1="117.1539307" y1="20.5" x2="124.1539307" y2="20.5"/>
	<polyline display="inline" fill="none" stroke="#CA8608" stroke-width="2" stroke-miterlimit="10" points="133.1539307,42.5 
		106.1539307,42.5 106.1539307,46.5 142.1539307,46.5 142.1539307,20.5 129.1539307,20.5 	"/>
	<polyline display="inline" fill="none" stroke="#CA8608" stroke-width="2" stroke-miterlimit="10" points="110.1539307,42.5 
		110.1539307,40.5 114.1539307,36.5 114.1539307,20.5 110.1539307,16.5 110.1539307,14.5 115.1539307,14.5 115.1539307,10.5 	"/>
	<polyline display="inline" fill="none" stroke="#CA8608" stroke-width="2" stroke-miterlimit="10" points="128.1539307,42.5 
		128.1539307,40.5 124.1539307,36.5 124.1539307,20.5 128.1539307,16.5 128.1539307,14.5 118.1539307,14.5 	"/>
	
		<line display="inline" fill="none" stroke="#CA8608" stroke-width="2" stroke-miterlimit="10" x1="123.1539307" y1="10.5" x2="123.1539307" y2="14.5"/>
	<polyline display="inline" fill="none" stroke="#CA8608" stroke-width="2" stroke-miterlimit="10" points="127.1539307,6.5 
		122.1539307,6.5 122.1539307,2.5 116.1539307,2.5 116.1539307,6.5 111.1539307,6.5 	"/>
	<polyline display="inline" fill="none" stroke="#CA8608" stroke-width="2" stroke-miterlimit="10" points="113.1539307,2.5 
		108.1539307,2.5 108.1539307,8.5 110.1539307,10.5 128.1539307,10.5 130.1539307,8.5 130.1539307,2.5 125.1539307,2.5 	"/>
</g>
<g display="none">
	<g display="inline">
		<g>
			
				<linearGradient id="SVGID_12_" gradientUnits="userSpaceOnUse" x1="244.3474884" y1="6.6935482" x2="189.9603882" y2="61.0806465">
				<stop  offset="0" style="stop-color:#F59900"/>
				<stop  offset="1" style="stop-color:#CA8608"/>
			</linearGradient>
			<polyline fill="none" stroke="url(#SVGID_12_)" stroke-width="2" stroke-miterlimit="10" points="199.0894165,58.2741928 
				189.1539307,58.2741928 189.1539307,9.5 245.1539307,9.5 245.1539307,58.2741928 235.2184448,58.2741928 			"/>
			
				<linearGradient id="SVGID_13_" gradientUnits="userSpaceOnUse" x1="231.6539307" y1="2.2258065" x2="202.6539307" y2="31.2258072">
				<stop  offset="0" style="stop-color:#F59900"/>
				<stop  offset="1" style="stop-color:#CA8608"/>
			</linearGradient>
			
				<line fill="none" stroke="url(#SVGID_13_)" stroke-width="2" stroke-miterlimit="10" x1="189.1539307" y1="16.7258072" x2="245.1539307" y2="16.7258072"/>
			
				<linearGradient id="SVGID_14_" gradientUnits="userSpaceOnUse" x1="193.7184448" y1="12.1612902" x2="191.8152161" y2="14.0645161">
				<stop  offset="0" style="stop-color:#F59900"/>
				<stop  offset="1" style="stop-color:#CA8608"/>
			</linearGradient>
			
				<line fill="none" stroke="url(#SVGID_14_)" stroke-width="2" stroke-miterlimit="10" x1="191.8636169" y1="13.1129036" x2="193.6700592" y2="13.1129036"/>
			
				<linearGradient id="SVGID_15_" gradientUnits="userSpaceOnUse" x1="197.3313446" y1="12.1612902" x2="195.4281311" y2="14.0645161">
				<stop  offset="0" style="stop-color:#F59900"/>
				<stop  offset="1" style="stop-color:#CA8608"/>
			</linearGradient>
			
				<line fill="none" stroke="url(#SVGID_15_)" stroke-width="2" stroke-miterlimit="10" x1="195.4765167" y1="13.1129036" x2="197.282959" y2="13.1129036"/>
			
				<linearGradient id="SVGID_16_" gradientUnits="userSpaceOnUse" x1="200.9442596" y1="12.1612902" x2="199.0410309" y2="14.0645161">
				<stop  offset="0" style="stop-color:#F59900"/>
				<stop  offset="1" style="stop-color:#CA8608"/>
			</linearGradient>
			
				<line fill="none" stroke="url(#SVGID_16_)" stroke-width="2" stroke-miterlimit="10" x1="199.0894165" y1="13.1129036" x2="200.895874" y2="13.1129036"/>
			
				<linearGradient id="SVGID_17_" gradientUnits="userSpaceOnUse" x1="205.9120026" y1="10.8064518" x2="201.2990875" y2="15.4193544">
				<stop  offset="0" style="stop-color:#F59900"/>
				<stop  offset="1" style="stop-color:#CA8608"/>
			</linearGradient>
			
				<line fill="none" stroke="url(#SVGID_17_)" stroke-width="2" stroke-miterlimit="10" x1="203.605545" y1="9.5" x2="203.605545" y2="16.7258072"/>
			
				<linearGradient id="SVGID_18_" gradientUnits="userSpaceOnUse" x1="233.9120026" y1="3.5806451" x2="214.8474884" y2="22.6451607">
				<stop  offset="0" style="stop-color:#F59900"/>
				<stop  offset="1" style="stop-color:#CA8608"/>
			</linearGradient>
			
				<line fill="none" stroke="url(#SVGID_18_)" stroke-width="2" stroke-miterlimit="10" x1="206.3152161" y1="13.1129036" x2="242.4442596" y2="13.1129036"/>
			<polyline fill="none" stroke="#CA8608" stroke-width="2" stroke-miterlimit="10" points="199.0894165,54.6612892 
				192.7668304,54.6612892 192.7668304,20.3387089 241.5410309,20.3387089 241.5410309,54.6612892 235.2184448,54.6612892 			"/>
		</g>
		
			<linearGradient id="SVGID_19_" gradientUnits="userSpaceOnUse" x1="204.105545" y1="20.7419357" x2="197.6861877" y2="27.1612911">
			<stop  offset="0" style="stop-color:#F59900"/>
			<stop  offset="1" style="stop-color:#CA8608"/>
		</linearGradient>
		
			<line fill="none" stroke="url(#SVGID_19_)" stroke-width="2" stroke-miterlimit="10" x1="195.4765167" y1="23.9516125" x2="206.3152161" y2="23.9516125"/>
		
			<linearGradient id="SVGID_20_" gradientUnits="userSpaceOnUse" x1="206.8152161" y1="23.4516125" x2="198.5894165" y2="31.6774197">
			<stop  offset="0" style="stop-color:#F59900"/>
			<stop  offset="1" style="stop-color:#CA8608"/>
		</linearGradient>
		
			<line fill="none" stroke="url(#SVGID_20_)" stroke-width="2" stroke-miterlimit="10" x1="195.4765167" y1="27.5645161" x2="209.9281311" y2="27.5645161"/>
		
			<linearGradient id="SVGID_21_" gradientUnits="userSpaceOnUse" x1="202.7507019" y1="28.4193554" x2="197.2345734" y2="33.935482">
			<stop  offset="0" style="stop-color:#F59900"/>
			<stop  offset="1" style="stop-color:#CA8608"/>
		</linearGradient>
		
			<line fill="none" stroke="url(#SVGID_21_)" stroke-width="2" stroke-miterlimit="10" x1="195.4765167" y1="31.1774197" x2="204.5087738" y2="31.1774197"/>
		
			<linearGradient id="SVGID_22_" gradientUnits="userSpaceOnUse" x1="216.2990875" y1="25.7096767" x2="212.5894165" y2="29.4193554">
			<stop  offset="0" style="stop-color:#F59900"/>
			<stop  offset="1" style="stop-color:#CA8608"/>
		</linearGradient>
		
			<line fill="none" stroke="url(#SVGID_22_)" stroke-width="2" stroke-miterlimit="10" x1="211.7345734" y1="27.5645161" x2="217.1539307" y2="27.5645161"/>
		
			<linearGradient id="SVGID_23_" gradientUnits="userSpaceOnUse" x1="226.2345734" y1="24.8064518" x2="220.7184448" y2="30.3225803">
			<stop  offset="0" style="stop-color:#F59900"/>
			<stop  offset="1" style="stop-color:#CA8608"/>
		</linearGradient>
		
			<line fill="none" stroke="url(#SVGID_23_)" stroke-width="2" stroke-miterlimit="10" x1="218.9603882" y1="27.5645161" x2="227.9926453" y2="27.5645161"/>
		
			<linearGradient id="SVGID_24_" gradientUnits="userSpaceOnUse" x1="210.8797455" y1="29.3225803" x2="207.1700592" y2="33.0322571">
			<stop  offset="0" style="stop-color:#F59900"/>
			<stop  offset="1" style="stop-color:#CA8608"/>
		</linearGradient>
		
			<line fill="none" stroke="url(#SVGID_24_)" stroke-width="2" stroke-miterlimit="10" x1="206.3152161" y1="31.1774197" x2="211.7345734" y2="31.1774197"/>
		<linearGradient id="SVGID_25_" gradientUnits="userSpaceOnUse" x1="201.395874" y1="32.4838715" x2="196.782959" y2="37.0967751">
			<stop  offset="0" style="stop-color:#F59900"/>
			<stop  offset="1" style="stop-color:#CA8608"/>
		</linearGradient>
		
			<line fill="none" stroke="url(#SVGID_25_)" stroke-width="2" stroke-miterlimit="10" x1="195.4765167" y1="34.7903214" x2="202.7023163" y2="34.7903214"/>
		
			<linearGradient id="SVGID_26_" gradientUnits="userSpaceOnUse" x1="214.0410309" y1="21.6451607" x2="209.4281311" y2="26.2580643">
			<stop  offset="0" style="stop-color:#F59900"/>
			<stop  offset="1" style="stop-color:#CA8608"/>
		</linearGradient>
		
			<line fill="none" stroke="url(#SVGID_26_)" stroke-width="2" stroke-miterlimit="10" x1="208.1216736" y1="23.9516125" x2="215.3474884" y2="23.9516125"/>
		
			<linearGradient id="SVGID_27_" gradientUnits="userSpaceOnUse" x1="223.6091766" y1="42.7866898" x2="210.6986847" y2="55.6971817">
			<stop  offset="0" style="stop-color:#F59900"/>
			<stop  offset="1" style="stop-color:#CA8608"/>
		</linearGradient>
		
			<circle fill="none" stroke="url(#SVGID_27_)" stroke-width="2" stroke-miterlimit="10" cx="217.1539307" cy="49.2419357" r="8.1290321"/>
		<path fill="none" stroke="#CA8608" stroke-width="2" stroke-linejoin="round" stroke-miterlimit="10" d="M231.7413788,42.0972404
			l-4.9412689,0.1367455l1.6582336-4.6616364c-1.0946198-1.0620155-2.3347473-1.9713821-3.6923065-2.6920662l-3.9277649,3.0219231
			l-1.3963013-4.7384148c-0.7497559-0.1058578-1.509201-0.1799202-2.2880402-0.1799202
			c-0.7788544,0-1.5382843,0.0740623-2.2880554,0.1799202l-1.3963013,4.7384148l-3.9277649-3.0219231
			c-1.3575439,0.7206841-2.5976715,1.6300507-3.6922913,2.6920662l1.6582336,4.6616364l-4.9412842-0.1367455
			c-0.6650391,1.3557396-1.1466522,2.8138161-1.4139099,4.3503838l4.0786133,2.7943115l-4.0786133,2.7943993
			c0.2672577,1.5364761,0.7488708,2.9945564,1.4139099,4.350296l4.9412842-0.1367455l-1.6582336,4.6616364
			c1.0946198,1.0620117,2.3347473,1.9713821,3.6922913,2.6920662l3.9277649-3.0219231l1.3963013,4.7384109
			c0.7497711,0.1058578,1.509201,0.179924,2.2880554,0.179924c0.7788391,0,1.5382843-0.0740662,2.2880402-0.179924
			l1.3963013-4.7384109l3.9277649,3.0219231c1.3575592-0.7206841,2.5976868-1.6300545,3.6923065-2.6920662l-1.6582336-4.6616364
			l4.9412689,0.1367455c0.6650543-1.3557396,1.1466522-2.8138199,1.4139099-4.350296l-4.078598-2.7943993l4.078598-2.7943115
			C232.888031,44.9110565,232.4064331,43.45298,231.7413788,42.0972404z"/>
		<circle fill="none" stroke="#CA8608" stroke-width="2" stroke-miterlimit="10" cx="217.1539307" cy="49.2419357" r="4.516129"/>
	</g>
</g>
<g>
	<g>
		<g>
			<g>
				<linearGradient id="SVGID_28_" gradientUnits="userSpaceOnUse" x1="31.6988773" y1="55.1853943" x2="28.6089897" y2="58.27528">
					<stop  offset="0" style="stop-color:#F59900"/>
					<stop  offset="1" style="stop-color:#CA8608"/>
				</linearGradient>
				
					<line fill="none" stroke="url(#SVGID_28_)" stroke-width="2" stroke-miterlimit="10" x1="30.1539326" y1="54.6404495" x2="30.1539326" y2="58.8202248"/>
				
					<linearGradient id="SVGID_29_" gradientUnits="userSpaceOnUse" x1="32.3387871" y1="58.7252655" x2="27.9690933" y2="63.0949593">
					<stop  offset="0" style="stop-color:#F59900"/>
					<stop  offset="1" style="stop-color:#CA8608"/>
				</linearGradient>
				
					<circle fill="none" stroke="url(#SVGID_29_)" stroke-width="2" stroke-miterlimit="10" cx="30.1539326" cy="60.9101105" r="2.0898876"/>
				
					<linearGradient id="SVGID_30_" gradientUnits="userSpaceOnUse" x1="23.513483" y1="55.3595505" x2="12.4123592" y2="66.4606705">
					<stop  offset="0" style="stop-color:#F59900"/>
					<stop  offset="1" style="stop-color:#CA8608"/>
				</linearGradient>
				
					<line fill="none" stroke="url(#SVGID_30_)" stroke-width="2" stroke-miterlimit="10" x1="28.064045" y1="60.9101105" x2="7.8617978" y2="60.9101105"/>
				
					<linearGradient id="SVGID_31_" gradientUnits="userSpaceOnUse" x1="47.895504" y1="55.3595505" x2="36.7943802" y2="66.4606705">
					<stop  offset="0" style="stop-color:#F59900"/>
					<stop  offset="1" style="stop-color:#CA8608"/>
				</linearGradient>
				
					<line fill="none" stroke="url(#SVGID_31_)" stroke-width="2" stroke-miterlimit="10" x1="52.4460678" y1="60.9101105" x2="32.2438202" y2="60.9101105"/>
				
					<linearGradient id="SVGID_32_" gradientUnits="userSpaceOnUse" x1="31.0022469" y1="49.6123581" x2="29.3056183" y2="51.3089905">
					<stop  offset="0" style="stop-color:#F59900"/>
					<stop  offset="1" style="stop-color:#CA8608"/>
				</linearGradient>
				
					<line fill="none" stroke="url(#SVGID_32_)" stroke-width="2" stroke-miterlimit="10" x1="29.457304" y1="50.4606743" x2="30.8505611" y2="50.4606743"/>
				
					<linearGradient id="SVGID_33_" gradientUnits="userSpaceOnUse" x1="28.2157307" y1="49.6123581" x2="26.5191002" y2="51.3089905">
					<stop  offset="0" style="stop-color:#F59900"/>
					<stop  offset="1" style="stop-color:#CA8608"/>
				</linearGradient>
				
					<line fill="none" stroke="url(#SVGID_33_)" stroke-width="2" stroke-miterlimit="10" x1="26.6707859" y1="50.4606743" x2="28.064045" y2="50.4606743"/>
				
					<linearGradient id="SVGID_34_" gradientUnits="userSpaceOnUse" x1="33.788765" y1="49.6123581" x2="32.0921364" y2="51.3089905">
					<stop  offset="0" style="stop-color:#F59900"/>
					<stop  offset="1" style="stop-color:#CA8608"/>
				</linearGradient>
				
					<line fill="none" stroke="url(#SVGID_34_)" stroke-width="2" stroke-miterlimit="10" x1="32.2438202" y1="50.4606743" x2="33.6370773" y2="50.4606743"/>
				<linearGradient id="SVGID_35_" gradientUnits="userSpaceOnUse" x1="31.0022469" y1="41.2528076" x2="29.3056183" y2="42.94944">
					<stop  offset="0" style="stop-color:#F59900"/>
					<stop  offset="1" style="stop-color:#CA8608"/>
				</linearGradient>
				
					<line fill="none" stroke="url(#SVGID_35_)" stroke-width="2" stroke-miterlimit="10" x1="29.457304" y1="42.1011238" x2="30.8505611" y2="42.1011238"/>
				<linearGradient id="SVGID_36_" gradientUnits="userSpaceOnUse" x1="28.2157307" y1="41.2528076" x2="26.5191002" y2="42.94944">
					<stop  offset="0" style="stop-color:#F59900"/>
					<stop  offset="1" style="stop-color:#CA8608"/>
				</linearGradient>
				
					<line fill="none" stroke="url(#SVGID_36_)" stroke-width="2" stroke-miterlimit="10" x1="26.6707859" y1="42.1011238" x2="28.064045" y2="42.1011238"/>
				<linearGradient id="SVGID_37_" gradientUnits="userSpaceOnUse" x1="33.788765" y1="41.2528076" x2="32.0921364" y2="42.94944">
					<stop  offset="0" style="stop-color:#F59900"/>
					<stop  offset="1" style="stop-color:#CA8608"/>
				</linearGradient>
				
					<line fill="none" stroke="url(#SVGID_37_)" stroke-width="2" stroke-miterlimit="10" x1="32.2438202" y1="42.1011238" x2="33.6370773" y2="42.1011238"/>
				
					<linearGradient id="SVGID_38_" gradientUnits="userSpaceOnUse" x1="31.0022469" y1="32.8932571" x2="29.3056183" y2="34.5898895">
					<stop  offset="0" style="stop-color:#F59900"/>
					<stop  offset="1" style="stop-color:#CA8608"/>
				</linearGradient>
				
					<line fill="none" stroke="url(#SVGID_38_)" stroke-width="2" stroke-miterlimit="10" x1="29.457304" y1="33.7415733" x2="30.8505611" y2="33.7415733"/>
				
					<linearGradient id="SVGID_39_" gradientUnits="userSpaceOnUse" x1="28.2157307" y1="32.8932571" x2="26.5191002" y2="34.5898895">
					<stop  offset="0" style="stop-color:#F59900"/>
					<stop  offset="1" style="stop-color:#CA8608"/>
				</linearGradient>
				
					<line fill="none" stroke="url(#SVGID_39_)" stroke-width="2" stroke-miterlimit="10" x1="26.6707859" y1="33.7415733" x2="28.064045" y2="33.7415733"/>
				
					<linearGradient id="SVGID_40_" gradientUnits="userSpaceOnUse" x1="33.788765" y1="32.8932571" x2="32.0921364" y2="34.5898895">
					<stop  offset="0" style="stop-color:#F59900"/>
					<stop  offset="1" style="stop-color:#CA8608"/>
				</linearGradient>
				
					<line fill="none" stroke="url(#SVGID_40_)" stroke-width="2" stroke-miterlimit="10" x1="32.2438202" y1="33.7415733" x2="33.6370773" y2="33.7415733"/>
				
					<ellipse fill="none" stroke="#CA8608" stroke-width="2" stroke-miterlimit="10" cx="30.1539326" cy="24.6853924" rx="16.0224724" ry="4.8764043"/>
				<path fill="none" stroke="#CA8608" stroke-width="2" stroke-miterlimit="10" d="M46.176403,28.168539v4.8764057
					c0,2.693306-7.1731339,4.8764038-16.0224705,4.8764038c-8.8493633,0-16.0224724-2.1830978-16.0224724-4.8764038V28.168539"/>
				<path fill="none" stroke="#CA8608" stroke-width="2" stroke-miterlimit="10" d="M46.176403,36.5280914v4.8764038
					c0,2.693306-7.1731339,4.8764038-16.0224705,4.8764038c-8.8493633,0-16.0224724-2.1830978-16.0224724-4.8764038v-4.8764038"/>
				<path fill="none" stroke="#CA8608" stroke-width="2" stroke-miterlimit="10" d="M46.176403,44.8876419v4.8764038
					c0,2.693306-7.1731339,4.8764038-16.0224705,4.8764038c-8.8493633,0-16.0224724-2.1830978-16.0224724-4.8764038v-4.8764038"/>
			</g>
		</g>
	</g>
	<linearGradient id="SVGID_41_" gradientUnits="userSpaceOnUse" x1="47.462429" y1="9.2451487" x2="12.1431847" y2="44.5643921">
		<stop  offset="0" style="stop-color:#F59900"/>
		<stop  offset="1" style="stop-color:#CA8608"/>
	</linearGradient>
	<path fill="none" stroke="url(#SVGID_41_)" stroke-width="2" stroke-miterlimit="10" d="M47.0820236,38.6179771h0.9404488
		c6.232357,0,11.2853928-5.0526581,11.2853928-11.2853928c0-5.5931358-3.7617989-10.344944-9.4044952-10.344944
		c0-4.7022467-2.8213463-8.4640446-8.4640427-8.4640446h-0.9404526C37.9337959,3.8930106,33.0018921,1,27.3325844,1
		c-8.309721,0-15.0471907,6.737474-15.0471907,15.0471916C6.0530348,16.0471916,1,21.1002254,1,27.3325844
		c0,6.2327347,5.0530348,11.2853928,11.2853937,11.2853928h0.9404488"/>
	<linearGradient id="SVGID_42_" gradientUnits="userSpaceOnUse" x1="27.1035252" y1="5.4136386" x2="16.2288074" y2="16.2883568">
		<stop  offset="0" style="stop-color:#F59900"/>
		<stop  offset="1" style="stop-color:#CA8608"/>
	</linearGradient>
	<path fill="none" stroke="url(#SVGID_42_)" stroke-width="2" stroke-miterlimit="10" d="M17.9280891,16.9876404
		c0-5.713418,4.7022476-10.344944,9.4044952-10.344944"/>
</g>
<circle display="none" fill="none" stroke="#CA8608" stroke-miterlimit="10" cx="-18.8460674" cy="107.5" r="0"/>
</svg>
