<?xml version="1.0" encoding="utf-8"?>
<!-- Generator: Adobe Illustrator 21.1.0, SVG Export Plug-In . SVG Version: 6.00 Build 0)  -->
<svg version="1.1" id="Layer_1" xmlns="http://www.w3.org/2000/svg" xmlns:xlink="http://www.w3.org/1999/xlink" x="0px" y="0px"
	 viewBox="0 0 116.4962463 90.6106262" enable-background="new 0 0 116.4962463 90.6106262" xml:space="preserve">
<title>ms_vrt_rgb_pos</title>
<rect x="-15.1437693" y="-15.1293325" display="none" fill="none" width="146.7799988" height="120.6399994"/>
<path d="M35.2462463,90.1106873v-6c0.1359253-1.9559021-1.3394165-3.6516418-3.2953205-3.7875977
	c-0.1513672-0.0105286-0.3032227-0.011322-0.4546814-0.0024109c-1.3461609-0.0882568-2.633667,0.5631714-3.3599854,1.7000122
	c-0.6622009-1.1029358-1.8747253-1.755249-3.1600037-1.7000122c-1.1190796-0.0565796-2.1844177,0.4837341-2.7999878,1.4200134
	v-1.1799927h-2.0799866v9.5499878h2.1000061v-5.2900085c-0.1733704-1.2193298,0.67453-2.3483582,1.8938599-2.5217285
	c0.1477356-0.0209961,0.2971802-0.0271301,0.4461365-0.01828c1.3800049,0,2.0799866,0.8999939,2.0799866,2.519989v5.3099976
	h2.1000061v-5.2900085c-0.1616211-1.2320862,0.7061462-2.361908,1.9382324-2.5235291
	c0.1331482-0.0174866,0.2676086-0.0229797,0.4017639-0.0164795c1.4200153,0,2.100008,0.8999939,2.100008,2.519989v5.3099976
	L35.2462463,90.1106873z M46.9462585,85.3406982v-4.769989h-2.1000061v1.1600037
	c-0.7155457-0.9233704-1.8327026-1.4447021-3-1.3999939c-2.7614136,0-5,2.2385864-5,5s2.2385864,5,5,5
	c1.1672974,0.0447083,2.2844543-0.4766235,3-1.3999939v1.1600037h2.0799866L46.9462585,85.3406982z M39.2162476,85.3406982
	c0.0939026-1.5933228,1.4617004-2.8088684,3.0550232-2.7149658c1.5933533,0.0939026,2.8088684,1.4617004,2.7149658,3.0550537
	c-0.0896912,1.5216064-1.3457336,2.7120056-2.8699951,2.7199097c-1.5791016,0.0370178-2.8892212-1.2130737-2.9262695-2.7921753
	c-0.0020752-0.089325,0-0.1787109,0.0062866-0.2678528L39.2162476,85.3406982z M91.386261,80.3406982
	c0.6847839-0.00177,1.3635864,0.1271973,2,0.3800049c0.6074524,0.2432556,1.1612549,0.6033936,1.6300049,1.0599976
	c0.462677,0.4524536,0.829895,0.9931335,1.0799866,1.5899963c0.5224609,1.2821655,0.5224609,2.7178345,0,4
	c-0.2498474,0.5969849-0.6170959,1.1376953-1.0799866,1.5899963c-0.46875,0.456604-1.0225525,0.8167419-1.6300049,1.0599976
	c-1.318634,0.5123901-2.7813721,0.5123901-4.1000061,0c-0.6046143-0.2430115-1.1551819-0.6032715-1.6199951-1.0599976
	c-0.458252-0.454071-0.8219299-0.9944763-1.0700073-1.5899963c-0.5213928-1.2823486-0.5213928-2.7176514,0-4
	c0.2480774-0.59552,0.6117554-1.1359253,1.0700073-1.5899963c0.4648132-0.4567261,1.0153809-0.8169556,1.6199951-1.0599976
	c0.6592712-0.2732849,1.366333-0.4126587,2.0799866-0.4100342L91.386261,80.3406982z M91.386261,82.3406982
	c-0.4072571-0.0055542-0.8116455,0.0692139-1.1900024,0.2200012c-0.3563843,0.1428833-0.679718,0.3572998-0.9500122,0.6300049
	c-0.2757568,0.2870789-0.4901123,0.6273193-0.6300049,1c-0.3055115,0.7984314-0.3055115,1.6815796,0,2.480011
	c0.1396484,0.3728027,0.3540344,0.7131042,0.6300049,1c0.2701111,0.2729187,0.5935059,0.4873657,0.9500122,0.6300049
	c0.7618408,0.2983093,1.6081543,0.2983093,2.3699951,0c0.3735657-0.138092,0.7141724-0.3526611,1-0.6300049
	c0.2764282-0.2865601,0.4908752-0.6269531,0.6300049-1c0.3055115-0.7984314,0.3055115-1.6815796,0-2.480011
	c-0.1391296-0.3730469-0.3535767-0.7134399-0.6300049-1c-0.2858276-0.2773438-0.6264343-0.4919128-1-0.6300049
	c-0.3772278-0.172699-0.7853088-0.2679138-1.2000122-0.2800293L91.386261,82.3406982z M58.2462463,85.3406677
	c0-3-1.8599854-5-4.5299988-5c-2.7614136,0.0386658-4.9686584,2.3085938-4.9299927,5.0700073
	s2.3085938,4.9686584,5.0700073,4.9299927c1.4236755,0.048645,2.8154602-0.4283447,3.9100037-1.3399963l-1-1.5400085
	c-0.7896423,0.6332703-1.7678833,0.9851685-2.7799988,1c-1.4296265,0.1229553-2.6974182-0.9143372-2.8599854-2.3399963h7.0899963
	C58.2462463,85.8706665,58.2462463,85.6206665,58.2462463,85.3406677z M51.136261,84.5006714
	c0.0802612-1.3192444,1.1886292-2.3392944,2.5099792-2.3099976c1.3086243-0.0278931,2.3920898,1.0103149,2.4199829,2.3189392
	c0.0000305,0.0003662,0.0000305,0.0007019,0.0000305,0.0010681L51.136261,84.5006714z M66.9962463,83.0006714
	c-0.9132385-0.5258484-1.9462585-0.808197-3-0.8200073c-1.1400146,0-1.8200073,0.4200134-1.8200073,1.1199951
	s0.7200012,0.8200073,1.6199951,0.9400024l1,0.1400146c2.0799866,0.2999878,3.3399963,1.1799927,3.3399963,2.8599854
	s-1.6000061,3.1199951-4.3500061,3.1199951c-1.473877,0.0392151-2.9214783-0.3954163-4.1300049-1.2399902l1-1.6199951
	c0.9176941,0.6808167,2.0378113,1.0330505,3.1799927,1c1.4200134,0,2.1799927-0.4200134,2.1799927-1.1600037
	c0-0.5400085-0.5400085-0.8399963-1.6799927-1l-1-0.1400146c-2.1400146-0.2999878-3.2999878-1.2600098-3.2999878-2.8200073
	c0-1.8999939,1.5599976-3.0599976,4-3.0599976c1.3656311-0.0457458,2.7157288,0.3013,3.8900146,1L66.9962463,83.0006714z
	 M76.9962463,82.4606628h-3.3900146v4.3099976c0,1,0.3399963,1.6000061,1.3800049,1.6000061
	c0.6491394-0.0215149,1.282196-0.2073059,1.8399963-0.5400085l0.6000061,1.7799988
	c-0.7796936,0.4865723-1.6809387,0.7430725-2.6000061,0.7399902c-2.4599915,0-3.3200073-1.3200073-3.3200073-3.5400085v-4.3500061
	h-1.9400024v-1.8999939h1.9400024v-2.8999939h2.1000061v2.8999939h3.3900146V82.4606628z M84.1862488,80.3206482
	c0.5045166,0.0019531,1.0050354,0.0898743,1.480011,0.2600098l-0.6400146,2
	c-0.4132996-0.1647949-0.855072-0.2463379-1.2999878-0.2399902c-1.3599854,0-2,0.8800049-2,2.4599915v5.3500061h-2.0799866
	v-9.5499878h2.0599976v1.1600037c0.519989-0.8931885,1.486908-1.4303589,2.519989-1.3999939L84.1862488,80.3206482z
	 M98.5662537,88.7206421c0.1300049-0.0015869,0.2590942,0.0221863,0.3800049,0.0700073
	c0.1148376,0.046875,0.2199707,0.1146851,0.3099976,0.2000122c0.0878601,0.0862122,0.1590576,0.1879272,0.2099915,0.2999878
	c0.102356,0.2360535,0.102356,0.5039368,0,0.7399902c-0.0509338,0.1120605-0.1221313,0.2137756-0.2099915,0.2999878
	c-0.0900269,0.0853271-0.1951599,0.1531372-0.3099976,0.2000122c-0.1197205,0.0528259-0.2491455,0.0800781-0.3800049,0.0799866
	c-0.3869324-0.0029297-0.7374878-0.2288208-0.8999939-0.5799866c-0.1011658-0.2362976-0.1011658-0.5036926,0-0.7399902
	c0.0509338-0.1120605,0.1221313-0.2137756,0.2099915-0.2999878c0.0900269-0.0853271,0.1951599-0.1531372,0.3099976-0.2000122
	c0.1052246-0.0418396,0.2168274-0.0654907,0.3299866-0.0699768L98.5662537,88.7206421z M98.5662537,90.4106445
	c0.099823,0.0006104,0.1986389-0.0198364,0.2900085-0.0599976c0.0860291-0.0384216,0.1640625-0.0926819,0.230011-0.1600037
	c0.2879639-0.2900085,0.2862854-0.7585449-0.0037231-1.0465088c-0.0652466-0.0647888-0.1419678-0.1168518-0.2262878-0.1535034
	c-0.0914612-0.0398865-0.1902161-0.0603027-0.2900085-0.0599976c-0.0997009,0.0005188-0.1982727,0.0209351-0.2900085,0.0599976
	c-0.0898438,0.0368347-0.1714172,0.0912476-0.2399902,0.1600037c-0.2593079,0.2828979-0.2593079,0.7171021,0,1
	c0.1398926,0.1416321,0.3309326,0.2209473,0.5299988,0.2200012V90.4106445z M98.6262512,89.2206421
	c0.0933533-0.0045471,0.1853333,0.0237732,0.2600098,0.0799866c0.0621033,0.0513916,0.0956116,0.1295776,0.0899963,0.2099915
	c0.0028992,0.0671387-0.0224915,0.1324463-0.0700073,0.1799927c-0.0579529,0.0526428-0.131897,0.0843201-0.2099915,0.0899963
	l0.2900085,0.3299866h-0.230011l-0.269989-0.3299866h-0.0899963v0.3299866h-0.1900024v-0.9199219L98.6262512,89.2206421z
	 M98.40625,89.3906555v0.2399902h0.2200012c0.0391541,0.0116577,0.0808411,0.0116577,0.1199951,0
	c0.0142517-0.0282898,0.0142517-0.0617065,0-0.0899963c0.0142517-0.0282898,0.0142517-0.0617065,0-0.0899963
	c-0.0391541-0.0116577-0.0808411-0.0116577-0.1199951,0L98.40625,89.3906555z"/>
<g id="_Group_">
	<rect x="42.4962311" y="7.7006674" fill="#7673C0" width="31.5" height="56.6100006"/>
	<path id="_Path_" fill="#EB001B" d="M44.4962463,36.0106812c-0.0117798-11.0484924,5.0588379-21.4884644,13.75-28.3099976
		C42.6138306-4.5847464,19.9819622-1.871459,7.6965322,13.7609568C-4.5888681,29.3933716-1.8756114,52.025238,13.7568045,64.3106689
		c13.0552053,10.2600098,31.4342346,10.2600098,44.4894409,0C49.5578613,57.4913025,44.4875488,47.0556641,44.4962463,36.0106812z"
		/>
	<path fill="#00A1DF" d="M113.0562439,58.3106689v-1.1199951h0.4700012v-0.2399902h-1.1900024v0.2399902h0.4700012v1.1600037
		L113.0562439,58.3106689z M115.3662415,58.3106689V56.910675h-0.3599854l-0.4200134,1l-0.4200134-1h-0.3699951v1.3999939h0.2600098
		v-1.0499878l0.3900146,0.9100037h0.269989l0.3900146-0.9100037v1.0599976L115.3662415,58.3106689z"/>
	<path fill="#00A1DF" d="M116.4862366,36.0106812c-0.0048218,19.8822632-16.1264648,35.9960938-36.008728,35.991272
		C72.4148865,72,64.5863037,69.2915649,58.2462463,64.3106689c15.6324158-12.2854309,18.3457031-34.9172974,6.0602722-50.5497131
		c-1.7715759-2.2542114-3.8060608-4.2886963-6.0602722-6.0602722c15.630127-12.2883301,38.2625122-9.5792847,50.5508423,6.0508423
		c4.9875183,6.3438406,7.6989746,14.1794729,7.6991577,22.2491455L116.4862366,36.0106812z"/>
</g>
</svg>
