<?xml version="1.0" encoding="utf-8"?>
<!-- Generator: Adobe Illustrator 21.1.0, SVG Export Plug-In . SVG Version: 6.00 Build 0)  -->
<svg version="1.1" id="Слой_1" xmlns="http://www.w3.org/2000/svg" xmlns:xlink="http://www.w3.org/1999/xlink" x="0px" y="0px"
	 viewBox="0 0 40 55" style="enable-background:new 0 0 40 55;" xml:space="preserve" width="40" height="55">
<style type="text/css">
	.st0{fill:#F59900;}
	.st1{fill:#CA8608;}
	.st2{fill:#FFFFFF;}
</style>
<rect x="0.0000007" class="st0" width="40" height="40"/>
<polygon class="st1" points="0.000002,0.0000267 0.000002,39.9999657 13.0000019,39.9999657 20.0000019,54.9999657 
	27.0000019,39.9999657 40.0000038,39.9999657 "/>
<g>
	<g id="Прямоугольник_1">
		<g>
			<rect x="24.3380947" y="16.9612713" class="st2" width="2.2141566" height="9.2993469"/>
		</g>
	</g>
	<g id="Эллипс_1">
		<g>
			<circle class="st2" cx="25.4451904" cy="14.5256844" r="1.5498856"/>
		</g>
	</g>
	<g id="P">
		<g>
			<path class="st2" d="M21.4446068,14.0819073c-0.8510494-0.778182-2.0183582-1.1673803-3.5017815-1.1673803h-4.9378996v13.2792959
				h2.5886669v-4.8155346h2.3492327c1.4834232,0,2.650732-0.3860912,3.5017815-1.1583424
				c0.8510513-0.7721081,1.2765427-1.793539,1.2765427-3.0644302
				C22.7211494,15.8847656,22.2956581,14.8603001,21.4446068,14.0819073z M19.5829315,18.7196465
				c-0.3723927,0.4044495-0.919117,0.6065331-1.6401062,0.6065331h-2.3492327v-4.3595419h2.3492327
				c0.7269325,0,1.2751274,0.2082968,1.6444836,0.6246777c0.3693542,0.4165926,0.5541382,0.9440413,0.5541382,1.5824175
				C20.1414471,17.800106,19.9552517,18.31534,19.5829315,18.7196465z"/>
		</g>
	</g>
</g>
</svg>
