<?xml version="1.0" encoding="utf-8"?>
<!-- Generator: Adobe Illustrator 21.1.0, SVG Export Plug-In . SVG Version: 6.00 Build 0)  -->
<svg version="1.1" id="Слой_1" xmlns="http://www.w3.org/2000/svg" xmlns:xlink="http://www.w3.org/1999/xlink" x="0px" y="0px"
	 viewBox="0 0 56.6500015 56.6479988" enable-background="new 0 0 56.6500015 56.6479988" xml:space="preserve" width="40" height="40">
<rect y="0.007" fill-rule="evenodd" clip-rule="evenodd" fill="#F59900" width="56.6398811" height="56.6409988"/>
<polygon fill-rule="evenodd" clip-rule="evenodd" fill="#CA8608" points="56.6500015,56.6479988 0,56.6479988 0,0 "/>
<g>
	<g id="Прямоугольник_1">
		<g>
			
				<rect x="34.08078" y="24.0214005" fill-rule="evenodd" clip-rule="evenodd" fill="#FFFFFF" width="3.1357999" height="13.1702003"/>
		</g>
	</g>
	<g id="Эллипс_1">
		<g>
			<circle fill-rule="evenodd" clip-rule="evenodd" fill="#FFFFFF" cx="35.6487045" cy="20.5720005" r="2.195025"/>
		</g>
	</g>
	<g id="P">
		<g>
			<path fill-rule="evenodd" clip-rule="evenodd" fill="#FFFFFF" d="M29.9828796,19.9435005
				c-1.2052994-1.1021004-2.8584995-1.6533012-4.9594002-1.6533012H18.03018v18.8068008h3.6662006v-6.8199997h3.3270988
				c2.1009007,0,3.7541008-0.5468006,4.9594002-1.640501c1.2053013-1.0935001,1.8079014-2.5401001,1.8079014-4.3400002
				C31.790781,22.4967995,31.1881809,21.0459003,29.9828796,19.9435005z M27.3462811,26.5116997
				c-0.527401,0.5727997-1.3017006,0.8590012-2.3228016,0.8590012h-3.3270988v-6.1742001h3.3270988
				c1.02952,0,1.8059006,0.2950001,2.3290005,0.8846989c0.5230999,0.5900002,0.7847996,1.3369999,0.7847996,2.2411003
				C28.1372795,25.2094002,27.8735809,25.9391003,27.3462811,26.5116997z"/>
		</g>
	</g>
</g>
</svg>
