<?xml version="1.0" encoding="utf-8"?>
<!-- Generator: Adobe Illustrator 21.1.0, SVG Export Plug-In . SVG Version: 6.00 Build 0)  -->
<svg version="1.1" id="Слой_1" xmlns="http://www.w3.org/2000/svg" xmlns:xlink="http://www.w3.org/1999/xlink" x="0px" y="0px"
	 viewBox="0 0 58 58" enable-background="new 0 0 58 58" xml:space="preserve">
<g display="none">
	<linearGradient id="SVGID_1_" gradientUnits="userSpaceOnUse" x1="126.0190506" y1="7.9634967" x2="93.0190506" y2="40.9634972">
		<stop  offset="0" style="stop-color:#F59900"/>
		<stop  offset="1" style="stop-color:#CA8608"/>
	</linearGradient>
	<path display="inline" fill="none" stroke="url(#SVGID_1_)" stroke-width="2" stroke-miterlimit="10" d="M115.5555573-1.5
		c-10.3090668,0-18.6666718,8.3576002-18.6666718,18.666666l-4.4444427,11.5555553V30.5h4.4444427v8
		c0,2.9462204,2.3880005,5.3333321,5.3333359,5.3333321h5.3333359V54.5"/>
	<g display="inline">
		<linearGradient id="SVGID_2_" gradientUnits="userSpaceOnUse" x1="110.0555573" y1="42.6666679" x2="107.7222214" y2="45">
			<stop  offset="0" style="stop-color:#F59900"/>
			<stop  offset="1" style="stop-color:#CA8608"/>
		</linearGradient>
		
			<line fill="none" stroke="url(#SVGID_2_)" stroke-width="2" stroke-linejoin="round" stroke-miterlimit="10" x1="107.5555573" y1="43.8333321" x2="110.2222214" y2="43.8333321"/>
	</g>
	<g display="inline">
		<linearGradient id="SVGID_3_" gradientUnits="userSpaceOnUse" x1="123.6111145" y1="8.2222223" x2="121.7222214" y2="10.1111107">
			<stop  offset="0" style="stop-color:#F59900"/>
			<stop  offset="1" style="stop-color:#CA8608"/>
		</linearGradient>
		
			<line fill="none" stroke="url(#SVGID_3_)" stroke-width="2" stroke-linejoin="round" stroke-miterlimit="10" x1="121.7777786" y1="9.166667" x2="123.5555573" y2="9.166667"/>
		<polyline fill="none" stroke="#CA8608" stroke-width="2" stroke-linejoin="round" stroke-miterlimit="10" points="
			127.1111145,11.833333 120,18.9444447 116.4444427,15.3888893 		"/>
		<path fill="none" stroke="#CA8608" stroke-width="2" stroke-linejoin="round" stroke-miterlimit="10" d="M128,17.166666
			c0,4.4183998-3.5815964,8-8,8c-4.4184113,0-8-3.5816002-8-8s3.5815887-7.999999,8-7.999999"/>
	</g>
	<linearGradient id="SVGID_4_" gradientUnits="userSpaceOnUse" x1="106.7222214" y1="18.8888893" x2="104.8333359" y2="20.7777786">
		<stop  offset="0" style="stop-color:#F59900"/>
		<stop  offset="1" style="stop-color:#CA8608"/>
	</linearGradient>
	
		<line display="inline" fill="none" stroke="url(#SVGID_4_)" stroke-width="2" stroke-miterlimit="10" x1="105.7777786" y1="18.9444447" x2="105.7777786" y2="20.7222214"/>
	<g display="inline">
		
			<line fill="none" stroke="#CA8608" stroke-width="2" stroke-linejoin="round" stroke-miterlimit="10" x1="132.4444427" y1="43.8333321" x2="129.777771" y2="43.8333321"/>
	</g>
	<path display="inline" fill="none" stroke="#CA8608" stroke-width="2" stroke-miterlimit="10" d="M105.7777786,17.166666
		C105.7777786,6.8576002,114.135376-1.5,124.4444427-1.5s18.6666718,8.3576002,18.6666718,18.666666l4.4444427,11.5555553V30.5
		h-4.4444427v8c0,2.9462204-2.3880005,5.3333321-5.3333435,5.3333321h-5.3333282V54.5"/>
	<path display="inline" fill="none" stroke="#CA8608" stroke-width="2" stroke-miterlimit="10" d="M127.1111145,54.5V43.8333321
		c0-8.8888893,7.1111145-14.5798206,7.1111145-24.8888874V17.166666"/>
	
		<line display="inline" fill="none" stroke="#CA8608" stroke-width="2" stroke-miterlimit="10" x1="134.222229" y1="13.6111107" x2="134.222229" y2="15.3888893"/>
</g>
<g display="none">
	<linearGradient id="SVGID_5_" gradientUnits="userSpaceOnUse" x1="-52.1464462" y1="27.8535538" x2="-85.8535538" y2="61.5606613">
		<stop  offset="0" style="stop-color:#F59900"/>
		<stop  offset="1" style="stop-color:#CA8608"/>
	</linearGradient>
	<polygon display="inline" fill="none" stroke="url(#SVGID_5_)" stroke-width="2" stroke-miterlimit="10" points="-42,50 -96,50 
		-100,46 -100,44 -76,44 -74,46 -64,46 -62,44 -38,44 -38,46 	"/>
	<linearGradient id="SVGID_6_" gradientUnits="userSpaceOnUse" x1="-79.4141846" y1="8.5858164" x2="-104.4141846" y2="33.5858154">
		<stop  offset="0" style="stop-color:#F59900"/>
		<stop  offset="1" style="stop-color:#CA8608"/>
	</linearGradient>
	<path display="inline" fill="none" stroke="url(#SVGID_6_)" stroke-width="2" stroke-miterlimit="10" d="M-81,8h-12
		c-1.6561966,0-3,1.3428068-3,3v30"/>
	<linearGradient id="SVGID_7_" gradientUnits="userSpaceOnUse" x1="-37.6716118" y1="12.6716137" x2="-54.5" y2="29.5">
		<stop  offset="0" style="stop-color:#F59900"/>
		<stop  offset="1" style="stop-color:#CA8608"/>
	</linearGradient>
	<path display="inline" fill="none" stroke="url(#SVGID_7_)" stroke-width="2" stroke-miterlimit="10" d="M-42,41V11
		c0-1.6571932-1.3437004-3-3-3h-12"/>
	<linearGradient id="SVGID_8_" gradientUnits="userSpaceOnUse" x1="-77" y1="13" x2="-98" y2="34">
		<stop  offset="0" style="stop-color:#F59900"/>
		<stop  offset="1" style="stop-color:#CA8608"/>
	</linearGradient>
	<polyline display="inline" fill="none" stroke="url(#SVGID_8_)" stroke-width="2" stroke-miterlimit="10" points="-85,38 -92,38 
		-92,12 -79,12 	"/>
	<linearGradient id="SVGID_9_" gradientUnits="userSpaceOnUse" x1="-68" y1="19" x2="-70" y2="21">
		<stop  offset="0" style="stop-color:#F59900"/>
		<stop  offset="1" style="stop-color:#CA8608"/>
	</linearGradient>
	
		<line display="inline" fill="none" stroke="url(#SVGID_9_)" stroke-width="2" stroke-miterlimit="10" x1="-68" y1="20" x2="-70" y2="20"/>
	<linearGradient id="SVGID_10_" gradientUnits="userSpaceOnUse" x1="-68" y1="15" x2="-70" y2="17">
		<stop  offset="0" style="stop-color:#F59900"/>
		<stop  offset="1" style="stop-color:#CA8608"/>
	</linearGradient>
	
		<line display="inline" fill="none" stroke="url(#SVGID_10_)" stroke-width="2" stroke-miterlimit="10" x1="-68" y1="16" x2="-70" y2="16"/>
	<linearGradient id="SVGID_11_" gradientUnits="userSpaceOnUse" x1="-68" y1="23" x2="-70" y2="25">
		<stop  offset="0" style="stop-color:#F59900"/>
		<stop  offset="1" style="stop-color:#CA8608"/>
	</linearGradient>
	
		<line display="inline" fill="none" stroke="url(#SVGID_11_)" stroke-width="2" stroke-miterlimit="10" x1="-68" y1="24" x2="-70" y2="24"/>
	<line display="inline" fill="none" stroke="#CA8608" stroke-width="2" stroke-miterlimit="10" x1="-71" y1="28" x2="-64" y2="28"/>
	<line display="inline" fill="none" stroke="#CA8608" stroke-width="2" stroke-miterlimit="10" x1="-71" y1="12" x2="-64" y2="12"/>
	<polyline display="inline" fill="none" stroke="#CA8608" stroke-width="2" stroke-miterlimit="10" points="-55,34 -82,34 -82,38 
		-46,38 -46,12 -59,12 	"/>
	<polyline display="inline" fill="none" stroke="#CA8608" stroke-width="2" stroke-miterlimit="10" points="-78,34 -78,32 -74,28 
		-74,12 -78,8 -78,6 -73,6 -73,2 	"/>
	<polyline display="inline" fill="none" stroke="#CA8608" stroke-width="2" stroke-miterlimit="10" points="-60,34 -60,32 -64,28 
		-64,12 -60,8 -60,6 -70,6 	"/>
	<line display="inline" fill="none" stroke="#CA8608" stroke-width="2" stroke-miterlimit="10" x1="-65" y1="2" x2="-65" y2="6"/>
	<polyline display="inline" fill="none" stroke="#CA8608" stroke-width="2" stroke-miterlimit="10" points="-61,-2 -66,-2 -66,-6 
		-72,-6 -72,-2 -77,-2 	"/>
	<polyline display="inline" fill="none" stroke="#CA8608" stroke-width="2" stroke-miterlimit="10" points="-75,-6 -80,-6 -80,0 
		-78,2 -60,2 -58,0 -58,-6 -63,-6 	"/>
</g>
<g>
	<g>
		<g>
			<linearGradient id="SVGID_12_" gradientUnits="userSpaceOnUse" x1="56.1935501" y1="-1.8064516" x2="1.8064516" y2="52.5806465">
				<stop  offset="0" style="stop-color:#F59900"/>
				<stop  offset="1" style="stop-color:#CA8608"/>
			</linearGradient>
			<polyline fill="none" stroke="url(#SVGID_12_)" stroke-width="2" stroke-miterlimit="10" points="10.9354839,49.7741928 
				1,49.7741928 1,1 57,1 57,49.7741928 47.064518,49.7741928 			"/>
			<linearGradient id="SVGID_13_" gradientUnits="userSpaceOnUse" x1="43.5" y1="-6.2741938" x2="14.5" y2="22.7258072">
				<stop  offset="0" style="stop-color:#F59900"/>
				<stop  offset="1" style="stop-color:#CA8608"/>
			</linearGradient>
			
				<line fill="none" stroke="url(#SVGID_13_)" stroke-width="2" stroke-miterlimit="10" x1="1" y1="8.2258062" x2="57" y2="8.2258062"/>
			<linearGradient id="SVGID_14_" gradientUnits="userSpaceOnUse" x1="5.5645161" y1="3.6612904" x2="3.6612904" y2="5.5645161">
				<stop  offset="0" style="stop-color:#F59900"/>
				<stop  offset="1" style="stop-color:#CA8608"/>
			</linearGradient>
			
				<line fill="none" stroke="url(#SVGID_14_)" stroke-width="2" stroke-miterlimit="10" x1="3.7096775" y1="4.6129031" x2="5.516129" y2="4.6129031"/>
			<linearGradient id="SVGID_15_" gradientUnits="userSpaceOnUse" x1="9.1774197" y1="3.6612904" x2="7.2741938" y2="5.5645161">
				<stop  offset="0" style="stop-color:#F59900"/>
				<stop  offset="1" style="stop-color:#CA8608"/>
			</linearGradient>
			
				<line fill="none" stroke="url(#SVGID_15_)" stroke-width="2" stroke-miterlimit="10" x1="7.3225808" y1="4.6129031" x2="9.1290321" y2="4.6129031"/>
			<linearGradient id="SVGID_16_" gradientUnits="userSpaceOnUse" x1="12.7903223" y1="3.6612904" x2="10.8870964" y2="5.5645161">
				<stop  offset="0" style="stop-color:#F59900"/>
				<stop  offset="1" style="stop-color:#CA8608"/>
			</linearGradient>
			
				<line fill="none" stroke="url(#SVGID_16_)" stroke-width="2" stroke-miterlimit="10" x1="10.9354839" y1="4.6129031" x2="12.7419357" y2="4.6129031"/>
			<linearGradient id="SVGID_17_" gradientUnits="userSpaceOnUse" x1="17.7580643" y1="2.3064516" x2="13.1451616" y2="6.9193549">
				<stop  offset="0" style="stop-color:#F59900"/>
				<stop  offset="1" style="stop-color:#CA8608"/>
			</linearGradient>
			
				<line fill="none" stroke="url(#SVGID_17_)" stroke-width="2" stroke-miterlimit="10" x1="15.4516125" y1="1" x2="15.4516125" y2="8.2258062"/>
			
				<linearGradient id="SVGID_18_" gradientUnits="userSpaceOnUse" x1="45.7580643" y1="-4.9193549" x2="26.6935482" y2="14.1451616">
				<stop  offset="0" style="stop-color:#F59900"/>
				<stop  offset="1" style="stop-color:#CA8608"/>
			</linearGradient>
			
				<line fill="none" stroke="url(#SVGID_18_)" stroke-width="2" stroke-miterlimit="10" x1="18.1612911" y1="4.6129031" x2="54.2903214" y2="4.6129031"/>
			<polyline fill="none" stroke="#CA8608" stroke-width="2" stroke-miterlimit="10" points="10.9354839,46.1612892 
				4.6129031,46.1612892 4.6129031,11.8387098 53.3870964,11.8387098 53.3870964,46.1612892 47.064518,46.1612892 			"/>
		</g>
		<linearGradient id="SVGID_19_" gradientUnits="userSpaceOnUse" x1="15.9516125" y1="12.2419357" x2="9.532258" y2="18.6612911">
			<stop  offset="0" style="stop-color:#F59900"/>
			<stop  offset="1" style="stop-color:#CA8608"/>
		</linearGradient>
		
			<line fill="none" stroke="url(#SVGID_19_)" stroke-width="2" stroke-miterlimit="10" x1="7.3225808" y1="15.4516125" x2="18.1612911" y2="15.4516125"/>
		<linearGradient id="SVGID_20_" gradientUnits="userSpaceOnUse" x1="18.6612911" y1="14.9516125" x2="10.4354839" y2="23.1774197">
			<stop  offset="0" style="stop-color:#F59900"/>
			<stop  offset="1" style="stop-color:#CA8608"/>
		</linearGradient>
		
			<line fill="none" stroke="url(#SVGID_20_)" stroke-width="2" stroke-miterlimit="10" x1="7.3225808" y1="19.0645161" x2="21.7741928" y2="19.0645161"/>
		<linearGradient id="SVGID_21_" gradientUnits="userSpaceOnUse" x1="14.5967741" y1="19.9193554" x2="9.0806456" y2="25.4354839">
			<stop  offset="0" style="stop-color:#F59900"/>
			<stop  offset="1" style="stop-color:#CA8608"/>
		</linearGradient>
		
			<line fill="none" stroke="url(#SVGID_21_)" stroke-width="2" stroke-miterlimit="10" x1="7.3225808" y1="22.6774197" x2="16.3548393" y2="22.6774197"/>
		<linearGradient id="SVGID_22_" gradientUnits="userSpaceOnUse" x1="28.1451607" y1="17.2096767" x2="24.4354839" y2="20.9193554">
			<stop  offset="0" style="stop-color:#F59900"/>
			<stop  offset="1" style="stop-color:#CA8608"/>
		</linearGradient>
		
			<line fill="none" stroke="url(#SVGID_22_)" stroke-width="2" stroke-miterlimit="10" x1="23.5806446" y1="19.0645161" x2="29" y2="19.0645161"/>
		<linearGradient id="SVGID_23_" gradientUnits="userSpaceOnUse" x1="38.0806465" y1="16.3064518" x2="32.564518" y2="21.8225803">
			<stop  offset="0" style="stop-color:#F59900"/>
			<stop  offset="1" style="stop-color:#CA8608"/>
		</linearGradient>
		
			<line fill="none" stroke="url(#SVGID_23_)" stroke-width="2" stroke-miterlimit="10" x1="30.8064518" y1="19.0645161" x2="39.8387108" y2="19.0645161"/>
		<linearGradient id="SVGID_24_" gradientUnits="userSpaceOnUse" x1="22.7258072" y1="20.8225803" x2="19.0161285" y2="24.532259">
			<stop  offset="0" style="stop-color:#F59900"/>
			<stop  offset="1" style="stop-color:#CA8608"/>
		</linearGradient>
		
			<line fill="none" stroke="url(#SVGID_24_)" stroke-width="2" stroke-miterlimit="10" x1="18.1612911" y1="22.6774197" x2="23.5806446" y2="22.6774197"/>
		<linearGradient id="SVGID_25_" gradientUnits="userSpaceOnUse" x1="13.2419357" y1="23.9838715" x2="8.6290321" y2="28.5967751">
			<stop  offset="0" style="stop-color:#F59900"/>
			<stop  offset="1" style="stop-color:#CA8608"/>
		</linearGradient>
		
			<line fill="none" stroke="url(#SVGID_25_)" stroke-width="2" stroke-miterlimit="10" x1="7.3225808" y1="26.2903233" x2="14.5483875" y2="26.2903233"/>
		<linearGradient id="SVGID_26_" gradientUnits="userSpaceOnUse" x1="25.8870964" y1="13.1451616" x2="21.2741928" y2="17.7580643">
			<stop  offset="0" style="stop-color:#F59900"/>
			<stop  offset="1" style="stop-color:#CA8608"/>
		</linearGradient>
		
			<line fill="none" stroke="url(#SVGID_26_)" stroke-width="2" stroke-miterlimit="10" x1="19.967741" y1="15.4516125" x2="27.1935482" y2="15.4516125"/>
		<linearGradient id="SVGID_27_" gradientUnits="userSpaceOnUse" x1="35.455246" y1="34.2866898" x2="22.5447502" y2="47.1971817">
			<stop  offset="0" style="stop-color:#F59900"/>
			<stop  offset="1" style="stop-color:#CA8608"/>
		</linearGradient>
		<circle fill="none" stroke="url(#SVGID_27_)" stroke-width="2" stroke-miterlimit="10" cx="29" cy="40.7419357" r="8.1290321"/>
		<path fill="none" stroke="#CA8608" stroke-width="2" stroke-linejoin="round" stroke-miterlimit="10" d="M43.5874481,33.5972404
			l-4.9412766,0.1367455l1.6582336-4.6616383c-1.0946198-1.0620117-2.3347473-1.9713802-3.6922989-2.6920643l-3.9277649,3.0219231
			l-1.3962975-4.7384129C30.5382767,24.5579357,29.7788429,24.4838715,29,24.4838715
			c-0.7788601,0-1.5382919,0.0740643-2.2880592,0.1799221l-1.3962975,4.7384129l-3.9277668-3.0219231
			c-1.3575497,0.7206841-2.5976772,1.6300526-3.692297,2.6920643l1.6582317,4.6616383l-4.9412766-0.1367455
			c-0.6650457,1.3557396-1.1466455,2.8138161-1.4139099,4.3503838l4.0786057,2.7943115l-4.0786057,2.7943993
			c0.2672644,1.5364761,0.7488642,2.9945564,1.4139099,4.350296l4.9412766-0.1367455l-1.6582317,4.6616364
			c1.0946198,1.0620117,2.3347473,1.9713821,3.692297,2.6920662l3.9277668-3.0219231l1.3962975,4.7384109
			C27.4617081,56.9259338,28.2211399,57,29,57c0.7788429,0,1.5382767-0.0740662,2.288044-0.179924l1.3962975-4.7384109
			l3.9277649,3.0219231c1.3575516-0.7206841,2.5976791-1.6300545,3.6922989-2.6920662l-1.6582336-4.6616364l4.9412766,0.1367455
			c0.6650467-1.3557396,1.1466484-2.8138199,1.4139099-4.350296l-4.0786057-2.7943993l4.0786057-2.7943115
			C44.7340965,36.4110565,44.2524948,34.95298,43.5874481,33.5972404z"/>
		<circle fill="none" stroke="#CA8608" stroke-width="2" stroke-miterlimit="10" cx="29" cy="40.7419357" r="4.516129"/>
	</g>
</g>
<g display="none">
	<g display="inline">
		<g>
			<g>
				
					<linearGradient id="SVGID_28_" gradientUnits="userSpaceOnUse" x1="-156.4550629" y1="46.6853943" x2="-159.5449371" y2="49.77528">
					<stop  offset="0" style="stop-color:#F59900"/>
					<stop  offset="1" style="stop-color:#CA8608"/>
				</linearGradient>
				
					<line fill="none" stroke="url(#SVGID_28_)" stroke-width="2" stroke-miterlimit="10" x1="-158" y1="46.1404495" x2="-158" y2="50.3202248"/>
				
					<linearGradient id="SVGID_29_" gradientUnits="userSpaceOnUse" x1="-155.8151398" y1="50.2252655" x2="-160.184845" y2="54.5949593">
					<stop  offset="0" style="stop-color:#F59900"/>
					<stop  offset="1" style="stop-color:#CA8608"/>
				</linearGradient>
				
					<circle fill="none" stroke="url(#SVGID_29_)" stroke-width="2" stroke-miterlimit="10" cx="-158" cy="52.4101105" r="2.0898876"/>
				
					<linearGradient id="SVGID_30_" gradientUnits="userSpaceOnUse" x1="-164.6404419" y1="46.8595505" x2="-175.7415771" y2="57.9606743">
					<stop  offset="0" style="stop-color:#F59900"/>
					<stop  offset="1" style="stop-color:#CA8608"/>
				</linearGradient>
				
					<line fill="none" stroke="url(#SVGID_30_)" stroke-width="2" stroke-miterlimit="10" x1="-160.0898895" y1="52.4101105" x2="-180.2921295" y2="52.4101105"/>
				
					<linearGradient id="SVGID_31_" gradientUnits="userSpaceOnUse" x1="-140.2584229" y1="46.8595505" x2="-151.3595581" y2="57.9606743">
					<stop  offset="0" style="stop-color:#F59900"/>
					<stop  offset="1" style="stop-color:#CA8608"/>
				</linearGradient>
				
					<line fill="none" stroke="url(#SVGID_31_)" stroke-width="2" stroke-miterlimit="10" x1="-135.7078705" y1="52.4101105" x2="-155.9101105" y2="52.4101105"/>
				
					<linearGradient id="SVGID_32_" gradientUnits="userSpaceOnUse" x1="-157.1516876" y1="41.1123581" x2="-158.8483124" y2="42.8089905">
					<stop  offset="0" style="stop-color:#F59900"/>
					<stop  offset="1" style="stop-color:#CA8608"/>
				</linearGradient>
				
					<line fill="none" stroke="url(#SVGID_32_)" stroke-width="2" stroke-miterlimit="10" x1="-158.6966248" y1="41.9606743" x2="-157.3033752" y2="41.9606743"/>
				
					<linearGradient id="SVGID_33_" gradientUnits="userSpaceOnUse" x1="-159.9382019" y1="41.1123581" x2="-161.6348267" y2="42.8089905">
					<stop  offset="0" style="stop-color:#F59900"/>
					<stop  offset="1" style="stop-color:#CA8608"/>
				</linearGradient>
				
					<line fill="none" stroke="url(#SVGID_33_)" stroke-width="2" stroke-miterlimit="10" x1="-161.483139" y1="41.9606743" x2="-160.0898895" y2="41.9606743"/>
				
					<linearGradient id="SVGID_34_" gradientUnits="userSpaceOnUse" x1="-154.3651733" y1="41.1123581" x2="-156.0617981" y2="42.8089905">
					<stop  offset="0" style="stop-color:#F59900"/>
					<stop  offset="1" style="stop-color:#CA8608"/>
				</linearGradient>
				
					<line fill="none" stroke="url(#SVGID_34_)" stroke-width="2" stroke-miterlimit="10" x1="-155.9101105" y1="41.9606743" x2="-154.516861" y2="41.9606743"/>
				
					<linearGradient id="SVGID_35_" gradientUnits="userSpaceOnUse" x1="-157.1516876" y1="32.7528076" x2="-158.8483124" y2="34.44944">
					<stop  offset="0" style="stop-color:#F59900"/>
					<stop  offset="1" style="stop-color:#CA8608"/>
				</linearGradient>
				
					<line fill="none" stroke="url(#SVGID_35_)" stroke-width="2" stroke-miterlimit="10" x1="-158.6966248" y1="33.6011238" x2="-157.3033752" y2="33.6011238"/>
				
					<linearGradient id="SVGID_36_" gradientUnits="userSpaceOnUse" x1="-159.9382019" y1="32.7528076" x2="-161.6348267" y2="34.44944">
					<stop  offset="0" style="stop-color:#F59900"/>
					<stop  offset="1" style="stop-color:#CA8608"/>
				</linearGradient>
				
					<line fill="none" stroke="url(#SVGID_36_)" stroke-width="2" stroke-miterlimit="10" x1="-161.483139" y1="33.6011238" x2="-160.0898895" y2="33.6011238"/>
				
					<linearGradient id="SVGID_37_" gradientUnits="userSpaceOnUse" x1="-154.3651733" y1="32.7528076" x2="-156.0617981" y2="34.44944">
					<stop  offset="0" style="stop-color:#F59900"/>
					<stop  offset="1" style="stop-color:#CA8608"/>
				</linearGradient>
				
					<line fill="none" stroke="url(#SVGID_37_)" stroke-width="2" stroke-miterlimit="10" x1="-155.9101105" y1="33.6011238" x2="-154.516861" y2="33.6011238"/>
				
					<linearGradient id="SVGID_38_" gradientUnits="userSpaceOnUse" x1="-157.1516876" y1="24.393259" x2="-158.8483124" y2="26.0898876">
					<stop  offset="0" style="stop-color:#F59900"/>
					<stop  offset="1" style="stop-color:#CA8608"/>
				</linearGradient>
				
					<line fill="none" stroke="url(#SVGID_38_)" stroke-width="2" stroke-miterlimit="10" x1="-158.6966248" y1="25.2415733" x2="-157.3033752" y2="25.2415733"/>
				
					<linearGradient id="SVGID_39_" gradientUnits="userSpaceOnUse" x1="-159.9382019" y1="24.393259" x2="-161.6348267" y2="26.0898876">
					<stop  offset="0" style="stop-color:#F59900"/>
					<stop  offset="1" style="stop-color:#CA8608"/>
				</linearGradient>
				
					<line fill="none" stroke="url(#SVGID_39_)" stroke-width="2" stroke-miterlimit="10" x1="-161.483139" y1="25.2415733" x2="-160.0898895" y2="25.2415733"/>
				
					<linearGradient id="SVGID_40_" gradientUnits="userSpaceOnUse" x1="-154.3651733" y1="24.393259" x2="-156.0617981" y2="26.0898876">
					<stop  offset="0" style="stop-color:#F59900"/>
					<stop  offset="1" style="stop-color:#CA8608"/>
				</linearGradient>
				
					<line fill="none" stroke="url(#SVGID_40_)" stroke-width="2" stroke-miterlimit="10" x1="-155.9101105" y1="25.2415733" x2="-154.516861" y2="25.2415733"/>
				
					<ellipse fill="none" stroke="#CA8608" stroke-width="2" stroke-miterlimit="10" cx="-158" cy="16.1853924" rx="16.0224724" ry="4.8764043"/>
				<path fill="none" stroke="#CA8608" stroke-width="2" stroke-miterlimit="10" d="M-141.9775238,19.668539v4.8764057
					c0,2.693306-7.1731415,4.8764038-16.0224762,4.8764038c-8.8493652,0-16.0224762-2.1830978-16.0224762-4.8764038V19.668539"/>
				<path fill="none" stroke="#CA8608" stroke-width="2" stroke-miterlimit="10" d="M-141.9775238,28.0280895v4.8764057
					c0,2.693306-7.1731415,4.8764038-16.0224762,4.8764038c-8.8493652,0-16.0224762-2.1830978-16.0224762-4.8764038v-4.8764057"/>
				<path fill="none" stroke="#CA8608" stroke-width="2" stroke-miterlimit="10" d="M-141.9775238,36.3876419v4.8764038
					c0,2.693306-7.1731415,4.8764038-16.0224762,4.8764038c-8.8493652,0-16.0224762-2.1830978-16.0224762-4.8764038v-4.8764038"/>
			</g>
		</g>
	</g>
	
		<linearGradient id="SVGID_41_" gradientUnits="userSpaceOnUse" x1="-140.6914978" y1="0.7451485" x2="-176.0107422" y2="36.0643921">
		<stop  offset="0" style="stop-color:#F59900"/>
		<stop  offset="1" style="stop-color:#CA8608"/>
	</linearGradient>
	<path display="inline" fill="none" stroke="url(#SVGID_41_)" stroke-width="2" stroke-miterlimit="10" d="M-141.0719147,30.1179771
		h0.9404602c6.2323456,0,11.2853851-5.0526581,11.2853851-11.2853928c0-5.5931349-3.761795-10.344944-9.4044952-10.344944
		c0-4.7022471-2.8213501-8.4640446-8.464035-8.4640446h-0.9404602C-150.2201385-4.6069894-155.1520386-7.5-160.8213501-7.5
		c-8.3097229,0-15.0471954,6.737474-15.0471954,15.0471916c-6.2323456,0-11.2853851,5.0530343-11.2853851,11.2853928
		c0,6.2327347,5.0530396,11.2853928,11.2853851,11.2853928h0.9404602"/>
	
		<linearGradient id="SVGID_42_" gradientUnits="userSpaceOnUse" x1="-161.0503998" y1="-3.0863616" x2="-171.9251251" y2="7.7883573">
		<stop  offset="0" style="stop-color:#F59900"/>
		<stop  offset="1" style="stop-color:#CA8608"/>
	</linearGradient>
	<path display="inline" fill="none" stroke="url(#SVGID_42_)" stroke-width="2" stroke-miterlimit="10" d="M-170.2258453,8.4876404
		c0-5.713418,4.7022552-10.344944,9.4044952-10.344944"/>
</g>
<circle display="none" fill="none" stroke="#CA8608" stroke-miterlimit="10" cx="-207" cy="99" r="0"/>
</svg>
