<?xml version="1.0" encoding="utf-8"?>
<!-- Generator: Adobe Illustrator 21.1.0, SVG Export Plug-In . SVG Version: 6.00 Build 0)  -->
<svg version="1.1" id="Слой_1" xmlns="http://www.w3.org/2000/svg" xmlns:xlink="http://www.w3.org/1999/xlink" x="0px" y="0px"
	 viewBox="0 0 56.7999992 36.9312859" enable-background="new 0 0 56.7999992 36.9312859" xml:space="preserve">
<g>
	<g>
		<g>
			
				<rect x="19.2942734" y="1" fill="none" stroke="#CA8608" stroke-width="2" stroke-linejoin="round" stroke-miterlimit="10" width="24.7899456" height="2.2536314"/>
			
				<rect x="19.2942734" y="33.6776543" fill="none" stroke="#CA8608" stroke-width="2" stroke-linejoin="round" stroke-miterlimit="10" width="24.7899456" height="2.2536314"/>
			<g>
				<path fill="none" stroke="#CA8608" stroke-width="2" stroke-miterlimit="10" d="M40.7037697,33.6776543v-2.8170395
					c0-9.0145245-7.3243027-11.8315639-7.3243027-11.8315639V17.902235c0,0,7.3243027-2.8170395,7.3243027-11.8315639V3.2536314"/>
				<path fill="none" stroke="#CA8608" stroke-width="2" stroke-miterlimit="10" d="M22.6747208,3.2536314v2.8170393
					c0,9.0145245,7.3243008,11.8315639,7.3243008,11.8315639v1.1268158c0,0-7.3243008,2.8170395-7.3243008,11.8315639v2.8170395"/>
			</g>
			<polyline fill="none" stroke="#CA8608" stroke-width="2" stroke-miterlimit="10" points="23.2381287,9.4511175 
				31.6892452,12.8315649 40.1403618,9.4511175 			"/>
			<path fill="none" stroke="#CA8608" stroke-width="2" stroke-miterlimit="10" d="M22.6747208,33.6776543
				c0-3.7337036,4.0363045-6.7608948,9.0145245-6.7608948c4.9782085,0,9.0145245,3.0271912,9.0145245,6.7608948"/>
			
				<line fill="none" stroke="#CA8608" stroke-width="2" stroke-miterlimit="10" x1="31.6892452" y1="19.5924587" x2="31.6892452" y2="20.7192745"/>
			
				<line fill="none" stroke="#CA8608" stroke-width="2" stroke-miterlimit="10" x1="31.6892452" y1="21.8460903" x2="31.6892452" y2="22.9729061"/>
			
				<line fill="none" stroke="#CA8608" stroke-width="2" stroke-miterlimit="10" x1="31.6892452" y1="24.0997219" x2="31.6892452" y2="25.2265377"/>
		</g>
		<g>
			<linearGradient id="SVGID_1_" gradientUnits="userSpaceOnUse" x1="45.8518867" y1="24.3039818" x2="40.0629196" y2="30.092947">
				<stop  offset="0" style="stop-color:#F59900"/>
				<stop  offset="1" style="stop-color:#CA8608"/>
			</linearGradient>
			
				<line fill="none" stroke="url(#SVGID_1_)" stroke-width="2" stroke-miterlimit="10" x1="42.9574013" y1="22.4094982" x2="42.9574013" y2="31.9874306"/>
			<linearGradient id="SVGID_2_" gradientUnits="userSpaceOnUse" x1="45.8518867" y1="6.8383384" x2="40.0629196" y2="12.627305">
				<stop  offset="0" style="stop-color:#F59900"/>
				<stop  offset="1" style="stop-color:#CA8608"/>
			</linearGradient>
			
				<line fill="none" stroke="url(#SVGID_2_)" stroke-width="2" stroke-miterlimit="10" x1="42.9574013" y1="4.9438548" x2="42.9574013" y2="14.5217876"/>
			<linearGradient id="SVGID_3_" gradientUnits="userSpaceOnUse" x1="46.0349121" y1="15.3881311" x2="39.8798904" y2="21.5431538">
				<stop  offset="0" style="stop-color:#F59900"/>
				<stop  offset="1" style="stop-color:#CA8608"/>
			</linearGradient>
			<path fill="none" stroke="url(#SVGID_3_)" stroke-width="2" stroke-linejoin="round" stroke-miterlimit="10" d="
				M44.0842171,21.8460903c0,0.3113956-0.252018,0.5634079-0.5634079,0.5634079h-1.1268158
				c-0.3114014,0-0.5634079-0.2520123-0.5634079-0.5634079v-6.7608948c0-0.3113956,0.2520065-0.5634079,0.5634079-0.5634079
				h1.1268158c0.3113899,0,0.5634079,0.2520123,0.5634079,0.5634079V21.8460903z"/>
		</g>
		<g>
			<linearGradient id="SVGID_4_" gradientUnits="userSpaceOnUse" x1="23.3155727" y1="24.3039818" x2="17.5266056" y2="30.092947">
				<stop  offset="0" style="stop-color:#F59900"/>
				<stop  offset="1" style="stop-color:#CA8608"/>
			</linearGradient>
			
				<line fill="none" stroke="url(#SVGID_4_)" stroke-width="2" stroke-miterlimit="10" x1="20.4210892" y1="22.4094982" x2="20.4210892" y2="31.9874306"/>
			<linearGradient id="SVGID_5_" gradientUnits="userSpaceOnUse" x1="23.3155727" y1="6.8383384" x2="17.5266056" y2="12.627305">
				<stop  offset="0" style="stop-color:#F59900"/>
				<stop  offset="1" style="stop-color:#CA8608"/>
			</linearGradient>
			
				<line fill="none" stroke="url(#SVGID_5_)" stroke-width="2" stroke-miterlimit="10" x1="20.4210892" y1="4.9438548" x2="20.4210892" y2="14.5217876"/>
			<linearGradient id="SVGID_6_" gradientUnits="userSpaceOnUse" x1="23.4985981" y1="15.3881311" x2="17.3435764" y2="21.5431538">
				<stop  offset="0" style="stop-color:#F59900"/>
				<stop  offset="1" style="stop-color:#CA8608"/>
			</linearGradient>
			<path fill="none" stroke="url(#SVGID_6_)" stroke-width="2" stroke-linejoin="round" stroke-miterlimit="10" d="
				M21.547905,21.8460903c0,0.3113956-0.252018,0.5634079-0.5634079,0.5634079h-1.1268158
				c-0.3114014,0-0.5634079-0.2520123-0.5634079-0.5634079v-6.7608948c0-0.3113956,0.2520065-0.5634079,0.5634079-0.5634079
				h1.1268158c0.3113899,0,0.5634079,0.2520123,0.5634079,0.5634079V21.8460903z"/>
		</g>
	</g>
</g>
<linearGradient id="SVGID_7_" gradientUnits="userSpaceOnUse" x1="7.6999998" y1="20.1427383" x2="1.9" y2="25.9427376">
	<stop  offset="0" style="stop-color:#F59900"/>
	<stop  offset="1" style="stop-color:#CA8608"/>
</linearGradient>
<line fill="none" stroke="url(#SVGID_7_)" stroke-width="2" stroke-miterlimit="10" x1="9.6000004" y1="23.042738" x2="0" y2="23.042738"/>
<linearGradient id="SVGID_8_" gradientUnits="userSpaceOnUse" x1="13.6999998" y1="16.542738" x2="7.0999999" y2="23.1427383">
	<stop  offset="0" style="stop-color:#F59900"/>
	<stop  offset="1" style="stop-color:#CA8608"/>
</linearGradient>
<line fill="none" stroke="url(#SVGID_8_)" stroke-width="2" stroke-miterlimit="10" x1="16" y1="19.8427372" x2="4.8000002" y2="19.8427372"/>
<linearGradient id="SVGID_9_" gradientUnits="userSpaceOnUse" x1="52.0200005" y1="15.502738" x2="48.1399994" y2="19.3827381">
	<stop  offset="0" style="stop-color:#F59900"/>
	<stop  offset="1" style="stop-color:#CA8608"/>
</linearGradient>
<line fill="none" stroke="url(#SVGID_9_)" stroke-width="2" stroke-miterlimit="10" x1="52.9599991" y1="17.4427376" x2="47.2000008" y2="17.4427376"/>
<linearGradient id="SVGID_10_" gradientUnits="userSpaceOnUse" x1="55.6199989" y1="12.0627384" x2="51.2599983" y2="16.422739">
	<stop  offset="0" style="stop-color:#F59900"/>
	<stop  offset="1" style="stop-color:#CA8608"/>
</linearGradient>
<line fill="none" stroke="url(#SVGID_10_)" stroke-width="2" stroke-miterlimit="10" x1="56.7999992" y1="14.2427378" x2="50.0800018" y2="14.2427378"/>
<g>
</g>
<g>
</g>
<g>
</g>
<g>
</g>
<g>
</g>
<g>
</g>
<g>
</g>
<g>
</g>
<g>
</g>
<g>
</g>
<g>
</g>
<g>
</g>
<g>
</g>
<g>
</g>
<g>
</g>
</svg>
