<?xml version="1.0" encoding="utf-8"?>
<!-- Generator: Adobe Illustrator 21.1.0, SVG Export Plug-In . SVG Version: 6.00 Build 0)  -->
<svg version="1.1" id="Слой_1" xmlns="http://www.w3.org/2000/svg" xmlns:xlink="http://www.w3.org/1999/xlink" x="0px" y="0px"
	 viewBox="0 0 34.2447357 49.599369" enable-background="new 0 0 34.2447357 49.599369" xml:space="preserve">
<g>
	<linearGradient id="SVGID_1_" gradientUnits="userSpaceOnUse" x1="33.1841087" y1="5.6670156" x2="-2.0103021" y2="40.8614273">
		<stop  offset="0" style="stop-color:#F59900"/>
		<stop  offset="1" style="stop-color:#CA8608"/>
	</linearGradient>
	<polyline fill="none" stroke="url(#SVGID_1_)" stroke-width="2" stroke-linejoin="round" stroke-miterlimit="10" points="
		10.212781,42.4575157 1,42.4575157 1,1 27.1028805,1 33.2447357,7.1418543 33.2447357,42.4575157 24.0319538,42.4575157 	"/>
	<linearGradient id="SVGID_2_" gradientUnits="userSpaceOnUse" x1="30.6738071" y1="3.5709271" x2="26.1028805" y2="8.1418543">
		<stop  offset="0" style="stop-color:#F59900"/>
		<stop  offset="1" style="stop-color:#CA8608"/>
	</linearGradient>
	<polyline fill="none" stroke="url(#SVGID_2_)" stroke-width="2" stroke-miterlimit="10" points="33.2447357,7.1418543 
		27.1028805,7.1418543 27.1028805,1 	"/>
	<g>
		<g>
			<linearGradient id="SVGID_3_" gradientUnits="userSpaceOnUse" x1="22.3323116" y1="38.9901428" x2="11.9124231" y2="49.4100304">
				<stop  offset="0" style="stop-color:#F59900"/>
				<stop  offset="1" style="stop-color:#CA8608"/>
			</linearGradient>
			<polyline fill="none" stroke="url(#SVGID_3_)" stroke-width="2" stroke-linejoin="round" stroke-miterlimit="10" points="
				21.7287579,39.3865891 21.7287579,48.599369 17.1223679,44.7607117 12.5159769,48.599369 12.5159769,39.3865891 			"/>
		</g>
		<path fill="none" stroke="#CA8608" stroke-width="2" stroke-miterlimit="10" d="M25.8273582,29.4060764
			c0-0.9743576-0.6931915-1.7851925-1.6139126-1.968935c-0.1634521-0.5918064-0.3968792-1.1528759-0.6950588-1.6747074
			c0.1870232-0.3047409,0.300127-0.6598377,0.300127-1.0436611c0-1.1090832-0.8997669-2.0088444-2.0088444-2.0088444
			c-0.3838291,0-0.7389259,0.1130981-1.0436668,0.3001213c-0.5218315-0.2981777-1.082901-0.5316067-1.6747074-0.6949921
			c-0.1837349-0.9207211-0.9945774-1.6139717-1.9689274-1.6139717c-0.9743633,0-1.7851934,0.6932507-1.9689417,1.6139717
			c-0.5918055,0.1633854-1.1528749,0.3968143-1.6747055,0.6949921c-0.3047419-0.1870232-0.6598387-0.3001213-1.0436554-0.3001213
			c-1.1090221,0-2.0088444,0.8997612-2.0088444,2.0088444c0,0.3838234,0.1130924,0.7389202,0.3001156,1.0436611
			c-0.2981796,0.5218315-0.5316067,1.082901-0.6950598,1.6747074c-0.9207201,0.1837425-1.6138992,0.9945774-1.6138992,1.968935
			c0,0.9743557,0.6931791,1.7851257,1.6138992,1.968935c0.1634531,0.5918045,0.3968801,1.152874,0.6950598,1.6747055
			c-0.1870232,0.3047409-0.3001156,0.6599045-0.3001156,1.043663c0,1.1090126,0.8998222,2.0088425,2.0088444,2.0088425
			c0.3838167,0,0.7389135-0.1130295,1.0436554-0.3000565c0.5218306,0.2981148,1.0829,0.5315399,1.6747055,0.6949959
			c0.1837482,0.9207191,0.9945784,1.613903,1.9689417,1.613903c0.97435,0,1.7851925-0.6931839,1.9689274-1.613903
			c0.5918064-0.163456,1.1528759-0.3968811,1.6747074-0.6949959c0.3047409,0.187027,0.6598377,0.3000565,1.0436668,0.3000565
			c1.1090775,0,2.0088444-0.8998299,2.0088444-2.0088425c0-0.3837585-0.1131039-0.7389221-0.300127-1.043663
			c0.2981796-0.5218315,0.5316067-1.082901,0.6950588-1.6747055C25.1341667,31.1912022,25.8273582,30.3804321,25.8273582,29.4060764
			z"/>
		
			<circle fill="none" stroke="#CA8608" stroke-width="2" stroke-linejoin="round" stroke-miterlimit="10" cx="17.1223679" cy="29.4060764" r="4.7453008"/>
	</g>
	
		<line fill="none" stroke="#CA8608" stroke-width="2" stroke-linejoin="round" stroke-miterlimit="10" x1="4.8386588" y1="4.8386588" x2="14.0514402" y2="4.8386588"/>
	<linearGradient id="SVGID_4_" gradientUnits="userSpaceOnUse" x1="23.7642212" y1="3.5709271" x2="10.4805126" y2="16.8546352">
		<stop  offset="0" style="stop-color:#F59900"/>
		<stop  offset="1" style="stop-color:#CA8608"/>
	</linearGradient>
	
		<line fill="none" stroke="url(#SVGID_4_)" stroke-width="2" stroke-linejoin="round" stroke-miterlimit="10" x1="4.8386588" y1="10.212781" x2="29.4060764" y2="10.212781"/>
	<linearGradient id="SVGID_5_" gradientUnits="userSpaceOnUse" x1="23.7642212" y1="6.6418543" x2="10.4805126" y2="19.9255619">
		<stop  offset="0" style="stop-color:#F59900"/>
		<stop  offset="1" style="stop-color:#CA8608"/>
	</linearGradient>
	
		<line fill="none" stroke="url(#SVGID_5_)" stroke-width="2" stroke-linejoin="round" stroke-miterlimit="10" x1="4.8386588" y1="13.2837086" x2="29.4060764" y2="13.2837086"/>
	<linearGradient id="SVGID_6_" gradientUnits="userSpaceOnUse" x1="23.7642212" y1="9.712781" x2="10.4805126" y2="22.9964905">
		<stop  offset="0" style="stop-color:#F59900"/>
		<stop  offset="1" style="stop-color:#CA8608"/>
	</linearGradient>
	
		<line fill="none" stroke="url(#SVGID_6_)" stroke-width="2" stroke-linejoin="round" stroke-miterlimit="10" x1="4.8386588" y1="16.3546352" x2="29.4060764" y2="16.3546352"/>
</g>
<g>
</g>
<g>
</g>
<g>
</g>
<g>
</g>
<g>
</g>
<g>
</g>
<g>
</g>
<g>
</g>
<g>
</g>
<g>
</g>
<g>
</g>
<g>
</g>
<g>
</g>
<g>
</g>
<g>
</g>
</svg>
