<?xml version="1.0" encoding="utf-8"?>
<!-- Generator: Adobe Illustrator 21.1.0, SVG Export Plug-In . SVG Version: 6.00 Build 0)  -->
<svg version="1.1" id="VISA_Logo" xmlns="http://www.w3.org/2000/svg" xmlns:xlink="http://www.w3.org/1999/xlink" x="0px" y="0px"
	 viewBox="0 0 216.0004883 69.7593002" enable-background="new 0 0 216.0004883 69.7593002" xml:space="preserve">
<path fill="#1A1F71" d="M82.0118103,1.2343999L53.7343979,68.7035904H35.282299L21.3676987,14.8578997
	c-0.8451996-3.3169003-1.5800991-4.5297995-4.1503983-5.9266996C13.0268993,6.6552997,6.0971999,4.5190997,0,3.1943998
	l0.4175-1.9599999h29.6968002c3.7846985,0,7.1898994,2.5190001,8.0487976,6.8779001l7.3501015,39.0453987L63.675808,1.2343999
	H82.0118103z M154.3061981,46.6753006c0.0742035-17.8081017-24.6278992-18.7886009-24.4561005-26.7436008
	c0.0507965-2.4218998,2.3583984-4.9941998,7.4013977-5.6534004c2.5048981-0.3266001,9.3916016-0.5775995,17.2118988,3.0205002
	l3.0615082-14.3065996C153.3256989,1.4663,147.9205017,0,141.1988068,0c-17.25,0-29.3936081,9.1723995-29.496109,22.3051987
	c-0.1083984,9.7123909,8.6669998,15.1299019,15.282196,18.360302c6.7979126,3.3076973,9.0830078,5.4252968,9.0536957,8.3828964
	c-0.0448914,4.5297012-5.4247894,6.5244026-10.4423904,6.6040001c-8.7773056,0.1386032-13.8691025-2.3691978-17.9296036-4.260807
	l-3.1622009,14.782711c4.0772018,1.8740997,11.6035995,3.5009995,19.4122009,3.5849991
	C142.2496033,69.7593002,154.245697,60.6996994,154.3061981,46.6753006 M199.8559875,68.7035904h16.1445007L201.9125977,1.2343999
	h-14.902298c-3.347702,0-6.1728973,1.9481903-7.4297028,4.9501905l-26.1846008,62.519001h18.3262024l3.6396942-10.0751915
	h22.3925018L199.8559875,68.7035904z M180.3833008,44.7987976l9.1885071-25.3358974l5.2880859,25.3358974H180.3833008z
	 M106.9516983,1.2343999L92.5170975,68.7035904H75.0649948L89.5004959,1.2343999H106.9516983z"/>
<g>
</g>
<g>
</g>
<g>
</g>
<g>
</g>
<g>
</g>
<g>
</g>
</svg>
