<?xml version="1.0" encoding="utf-8"?>
<!-- Generator: Adobe Illustrator 21.1.0, SVG Export Plug-In . SVG Version: 6.00 Build 0)  -->
<svg version="1.1" id="Layer_1" xmlns="http://www.w3.org/2000/svg" xmlns:xlink="http://www.w3.org/1999/xlink" x="0px" y="0px"
	 viewBox="0 0 183.9033966 91.9462967" enable-background="new 0 0 183.9033966 91.9462967" xml:space="preserve">
<g>
	<g>
		<path fill="#1A1F71" d="M9.8233004,32.214901L0,2.1001h4.1996999l4.6929002,14.836401
			c1.2915001,4.0620003,2.4102001,7.7280998,3.2133999,11.2568989h0.0917997
			c0.8491001-3.4883003,2.0996008-7.2861996,3.4370003-11.2162991L20.7294998,2.1001h4.153801L14.1142998,32.214901H9.8233004z"/>
		<path fill="#1A1F71" d="M26.9424,22.1172009c0.091301,5.3183994,3.4829006,7.5049,7.4180012,7.5049
			c2.8168983,0,4.5102005-0.4932003,5.9897003-1.1187l0.6708984,2.8168983
			c-1.3876991,0.625-3.7518997,1.3423023-7.1943016,1.3423023c-6.6605988,0-10.6366978-4.3828011-10.6366978-10.9062023
			c0-6.5234995,3.8437004-11.658699,10.1387005-11.658699c7.0620003,0,8.9432983,6.2133007,8.9432983,10.184
			c0,0.803299-0.0918007,1.4288006-0.1371994,1.8355007H26.9424z M38.4687996,19.3008003
			c0.0508003-2.5020008-1.0269012-6.3910999-5.4506989-6.3910999c-3.9756012,0-5.7147999,3.6654987-6.0298004,6.3910999H38.4687996z
			"/>
		<path fill="#1A1F71" d="M45.3530998,17.3330002c0-2.5425005-0.0458984-4.7339001-0.1777992-6.7470999h3.4418983
			l0.1323967,4.2456999h0.1777c0.9814034-2.9034004,3.3506012-4.7339001,5.9897003-4.7339001
			c0.4424019,0,0.7627029,0.0459003,1.1133003,0.1322994v3.7114c-0.4017982-0.0913-0.8031998-0.1371994-1.3423004-0.1371994
			c-2.766098,0-4.7285004,2.1000996-5.267498,5.0488005c-0.0914001,0.5390987-0.1832008,1.1645985-0.1832008,1.8354988V32.214901
			h-3.8841972V17.3330002z"/>
		<path fill="#1A1F71" d="M62.7368965,4.5103002c0.0453987,1.3421998-0.9409981,2.415-2.5014992,2.415
			c-1.3833008,0-2.3695984-1.0728002-2.3695984-2.415c0-1.3833001,1.027298-2.4561002,2.4608994-2.4561002
			C61.7958984,2.0541999,62.7368965,3.1270001,62.7368965,4.5103002 M58.3539963,10.5859003h3.9405022v21.6240997h-3.9405022
			V10.5859003z"/>
		<path fill="#1A1F71" d="M67.4296951,32.214901V13.5805998h-3.0404968v-2.9946995h3.0404968V9.5586004
			c0-3.0352006,0.6708984-5.8062005,2.501503-7.5503006C71.4057999,0.5796,73.3681946,0,75.2036972,0
			c1.3880997,0,2.5877991,0.3101,3.350502,0.6255l-0.5335999,3.0355999C77.4356003,3.3915999,76.6324005,3.1729,75.5136948,3.1729
			c-3.3451996,0-4.1942978,2.9487002-4.1942978,6.2538996v1.1591005h5.2217026v2.9946995H71.319397V32.214901H67.4296951z"/>
		<path fill="#1A1F71" d="M84.7929993,4.5103002c0.0508041,1.3421998-0.9409027,2.415-2.501503,2.415
			c-1.3833008,0-2.3695984-1.0728002-2.3695984-2.415c0-1.3833001,1.032196-2.4561002,2.4609985-2.4561002
			C83.8520966,2.0541999,84.7929993,3.1270001,84.7929993,4.5103002 M80.4204941,10.5859003h3.9300995v21.6240997h-3.9300995
			V10.5859003z"/>
		<path fill="#1A1F71" d="M91.2753983,22.1172009c0.0917969,5.3183994,3.4833984,7.5049,7.4179993,7.5049
			c2.8174057,0,4.5106964-0.4932003,5.989296-1.1187l0.6718063,2.8168983c-1.3886032,0.625-3.7627029,1.3423023-7.1953049,1.3423023
			c-6.6600952,0-10.6362-4.3828011-10.6362-10.9062023c0-6.5234995,3.8442001-11.658699,10.1381989-11.658699
			c7.0625,0,8.9384995,6.2133007,8.9384995,10.184c0,0.803299-0.086998,1.4288006-0.1376953,1.8355007H91.2753983z
			 M102.8018036,19.3008003c0.0409927-2.5020008-1.0273056-6.3910999-5.45121-6.3910999
			c-3.9745941,0-5.7142944,3.6654987-6.0345993,6.3910999H102.8018036z"/>
		<path fill="#1A1F71" d="M128.3663025,0.4932v26.1338005c0,1.9222984,0.0410004,4.1083984,0.1727905,5.5879002h-3.5233994
			l-0.1826019-3.7520008h-0.0917969c-1.205101,2.4097004-3.8388977,4.2401981-7.3731003,4.2401981
			c-5.2266006,0-9.2432022-4.4232979-9.2432022-10.9925976c-0.0458984-7.1944008,4.4239044-11.6128006,9.6963043-11.6128006
			c3.2997971,0,5.5371017,1.5658998,6.517601,3.3050995h0.0917969V0.4932H128.3663025z M124.4306946,19.3920994
			c0-0.4932003-0.0448914-1.1645985-0.1776962-1.6576996c-0.580101-2.5015001-2.7304993-4.5556993-5.6739044-4.5556993
			c-4.0682907,0-6.4785004,3.5747004-6.4785004,8.3588991c0,4.3779011,2.1407013,7.9927006,6.3916016,7.9927006
			c2.6288986,0,5.0439987-1.7388,5.7608032-4.6928997c0.1328049-0.5337009,0.1776962-1.0678997,0.1776962-1.6928997V19.3920994z"/>
		<path fill="#1A1F71" d="M142.9228973,32.214901c0.0917969-1.4795017,0.1777039-3.6656017,0.1777039-5.5879002V0.4932h3.8896942
			V14.0737h0.0917969c1.3827972-2.4101,3.8838043-3.9759998,7.3720093-3.9759998
			c5.3642883,0,9.1572876,4.4692001,9.1171875,11.0331993c0,7.7285004-4.8710938,11.5721989-9.6971893,11.5721989
			c-3.1309052,0-5.6327972-1.204998-7.2402954-4.0624981h-0.1308136l-0.1835938,3.5743008H142.9228973z M146.9902954,23.5459003
			c0,0.4883003,0.0917969,0.9814987,0.1826019,1.4286995c0.7577972,2.7255993,3.0312042,4.6016006,5.8934937,4.6016006
			c4.1132965,0,6.5694122-3.3506012,6.5694122-8.3080997c0-4.3316002-2.2383118-8.0435009-6.4317017-8.0435009
			c-2.6796112,0-5.1816101,1.8305998-5.9902039,4.825201c-0.0917969,0.4473-0.2236023,0.9814987-0.2236023,1.6064987V23.5459003z"/>
		<path fill="#1A1F71" d="M167.8622894,10.5859003l4.7325134,12.7823c0.4940948,1.4286995,1.0331879,3.1268997,1.3837891,4.4232998
			h0.0908051c0.407196-1.2964001,0.8495941-2.9540997,1.3887024-4.5151005l4.2861023-12.6904993h4.1591949L178,26.0020008
			c-2.8115082,7.4178982-4.7333984,11.2157993-7.4130096,13.5394993c-1.9218903,1.6934013-3.8437958,2.3642998-4.824295,2.5474014
			l-0.9862976-3.3101006c0.9862976-0.3100014,2.2774048-0.9355011,3.4414063-1.9219017
			c1.0722961-0.8490982,2.4101868-2.3642006,3.3105927-4.3773994c0.1777039-0.4019012,0.309494-0.7119007,0.309494-0.9354992
			c0-0.2237015-0.0907898-0.5391006-0.2695007-1.027401l-7.9971008-19.9306984H167.8622894z"/>
	</g>
	<g>
		<path fill="#1A1F71" d="M65.2177963,46.9696999L53.2998009,77.1103973l-4.8247032-25.6249962
			c-0.5541992-2.857502-2.7914963-4.5157013-5.2777977-4.5157013h-19.4888l-0.2640991,1.2812996
			c3.9965992,0.8799019,8.5419998,2.2733994,11.2972984,3.7626991c1.6831017,0.9248009,2.1660995,1.7236023,2.7099991,3.8994026
			L46.5937996,91.25h12.1107979l18.5580978-44.2803001H65.2177963z"/>
		<polygon fill="#1A1F71" points="82.1694946,46.9696999 72.7021942,91.25 84.1572952,91.25 93.6093979,46.9696999 		"/>
		<path fill="#1A1F71" d="M108.6435928,59.2431984c0.0352097-1.5859985,1.5508041-3.2734985,4.8613052-3.7206993
			c1.6464996-0.2089996,6.1620941-0.3671989,11.2969055,1.9824028l2.0087891-9.3809013
			c-2.7509995-1.0018997-6.3096008-1.972599-10.7128983-1.972599c-11.3281021,0-19.2851944,6.0301971-19.3622971,14.6532974
			c-0.0606003,6.3661995,5.6952972,9.9248009,10.027298,12.0498009c4.4638977,2.1611023,5.9688034,3.5487976,5.9384995,5.5058975
			c-0.0205002,2.9707031-3.5596008,4.2714005-6.8436966,4.3222046c-5.7657013,0.0917969-9.1064987-1.5508041-11.7753983-2.7861023
			l-2.0645065,9.7012024c2.6651001,1.2256012,7.6113052,2.2977982,12.7412033,2.3485947
			c12.0157013,0,19.8907013-5.9481964,19.9317017-15.1513977C124.7412949,65.1006012,108.5322952,64.4599991,108.6435928,59.2431984
			"/>
		<path fill="#1A1F71" d="M141.8096008,75.5692978l6.0859985-16.6307983l3.4266968,16.6307983H141.8096008z M146.1572876,46.9696999
			c-2.2021942,0-4.0585938,1.2764015-4.881897,3.2490997L124.0948029,91.25h12.0350952l2.3896942-6.6141968h14.6592102
			L154.5556946,91.25h10.621109l-9.2383118-44.2803001H146.1572876z"/>
	</g>
</g>
<g>
</g>
<g>
</g>
<g>
</g>
<g>
</g>
<g>
</g>
<g>
</g>
</svg>
