<?xml version="1.0" encoding="utf-8"?>
<!-- Generator: Adobe Illustrator 21.1.0, SVG Export Plug-In . SVG Version: 6.00 Build 0)  -->
<svg version="1.1" id="VK_Logo" xmlns="http://www.w3.org/2000/svg" xmlns:xlink="http://www.w3.org/1999/xlink" x="0px" y="0px"
	 viewBox="0 0 192 192" enable-background="new 0 0 192 192" xml:space="preserve">
<g id="Base">
	<defs>
		<path id="SVGID_1_" d="M66.5599976,0c53.7600021,0,5.1200027,0,58.8800049,0S192,12.8000031,192,66.5599976
			s0,5.1200027,0,58.8800049S179.1999969,192,125.4400024,192s-5.1200027,0-58.8800049,0S0,179.1999969,0,125.4400024
			s0-28.8596725,0-58.8800049C0,12.8000031,12.8000002,0,66.5599976,0z"/>
	</defs>
	<use xlink:href="#SVGID_1_"  overflow="visible" fill-rule="evenodd" clip-rule="evenodd" fill="#5181B8"/>
	<clipPath id="SVGID_2_">
		<use xlink:href="#SVGID_1_"  overflow="visible"/>
	</clipPath>
	<rect x="-5" y="-5" display="none" clip-path="url(#SVGID_2_)" fill="#5181B8" width="202" height="202"/>
</g>
<path id="Logo" fill-rule="evenodd" clip-rule="evenodd" fill="#FFFFFF" d="M157.2486572,66.1462173
	c0.8896027-2.9664459,0-5.1462173-4.2337952-5.1462173h-14c-3.5596924,0-5.2008057,1.8830032-6.0908051,3.9593887
	c0,0-7.1195145,17.3535538-17.2052002,28.6258163c-3.26297,3.26297-4.746315,4.3011551-6.5261841,4.3011551
	c-0.8898163,0-2.1780167-1.0381851-2.1780167-4.0043869V66.1462173c0-3.5597382-1.0330582-5.1462173-3.9997482-5.1462173h-22
	c-2.2245255,0-3.5623779,1.6521606-3.5623779,3.2179718c0,3.3745575,5.0425873,4.1527786,5.5623779,13.6454163v20.6165161
	c0,4.5200958-0.8163071,5.3396072-2.5961761,5.3396072c-4.7460709,0-16.2909012-17.4310684-23.1380501-37.37677
	C55.9388008,62.5659866,54.5929184,61,51.0149117,61H37.0149078c-4,0-4.8000488,1.8830032-4.8000488,3.9593887
	c0,3.7081299,4.7463188,22.0998688,22.0996094,46.424263C65.8832626,127.9952698,82.1829071,137,97.0149078,137
	c8.8991013,0,10-2,10-5.4449921V119c0-4,0.8430481-4.7982941,3.6611099-4.7982941
	c2.0763931,0,5.6361313,1.038208,13.9421921,9.047493C134.1105652,132.7415924,135.6755676,137,141.0148621,137h14
	c4,0,6-2,4.8462982-5.9468842c-1.2626038-3.9337006-5.794693-9.6409836-11.8083954-16.4064941
	c-3.2631989-3.8562622-8.157608-8.0090485-9.6410065-10.0859299c-2.0764008-2.6694336-1.4830933-3.8562622,0-6.2291718
	C138.4117584,98.3315201,155.4687653,74.3036499,157.2486572,66.1462173z"/>
<g>
</g>
<g>
</g>
<g>
</g>
<g>
</g>
<g>
</g>
<g>
</g>
<g>
</g>
<g>
</g>
<g>
</g>
<g>
</g>
<g>
</g>
<g>
</g>
<g>
</g>
<g>
</g>
<g>
</g>
</svg>
