<?xml version="1.0" encoding="utf-8"?>
<!-- Generator: Adobe Illustrator 21.1.0, SVG Export Plug-In . SVG Version: 6.00 Build 0)  -->
<svg version="1.1" id="Слой_1" xmlns="http://www.w3.org/2000/svg" xmlns:xlink="http://www.w3.org/1999/xlink" x="0px" y="0px"
	 viewBox="0 0 64 64.0005035" enable-background="new 0 0 64 64.0005035" xml:space="preserve">
<g display="none">
	<linearGradient id="SVGID_1_" gradientUnits="userSpaceOnUse" x1="119.5" y1="31.5002499" x2="112.5" y2="38.5002518">
		<stop  offset="0" style="stop-color:#F59900"/>
		<stop  offset="1" style="stop-color:#CA8608"/>
	</linearGradient>
	
		<line display="inline" fill="none" stroke="url(#SVGID_1_)" stroke-width="2" stroke-miterlimit="10" x1="122" y1="35.0002518" x2="110" y2="35.0002518"/>
	<linearGradient id="SVGID_2_" gradientUnits="userSpaceOnUse" x1="127" y1="35.0002518" x2="119" y2="43.0002518">
		<stop  offset="0" style="stop-color:#F59900"/>
		<stop  offset="1" style="stop-color:#CA8608"/>
	</linearGradient>
	
		<line display="inline" fill="none" stroke="url(#SVGID_2_)" stroke-width="2" stroke-miterlimit="10" x1="130" y1="39.0002518" x2="116" y2="39.0002518"/>
	<linearGradient id="SVGID_3_" gradientUnits="userSpaceOnUse" x1="202.8999939" y1="16.7002506" x2="198.3000031" y2="21.3002491">
		<stop  offset="0" style="stop-color:#F59900"/>
		<stop  offset="1" style="stop-color:#CA8608"/>
	</linearGradient>
	
		<line display="inline" fill="none" stroke="url(#SVGID_3_)" stroke-width="2" stroke-miterlimit="10" x1="204.1999969" y1="19.0002499" x2="197" y2="19.0002499"/>
	<linearGradient id="SVGID_4_" gradientUnits="userSpaceOnUse" x1="207.3999939" y1="12.4002504" x2="202.1999969" y2="17.6002502">
		<stop  offset="0" style="stop-color:#F59900"/>
		<stop  offset="1" style="stop-color:#CA8608"/>
	</linearGradient>
	
		<line display="inline" fill="none" stroke="url(#SVGID_4_)" stroke-width="2" stroke-miterlimit="10" x1="209" y1="15.0002499" x2="200.6000061" y2="15.0002499"/>
	<g display="inline">
		<linearGradient id="SVGID_5_" gradientUnits="userSpaceOnUse" x1="152" y1="43.0002518" x2="150" y2="45.0002518">
			<stop  offset="0" style="stop-color:#F59900"/>
			<stop  offset="1" style="stop-color:#CA8608"/>
		</linearGradient>
		
			<line fill="none" stroke="url(#SVGID_5_)" stroke-width="2" stroke-linejoin="round" stroke-miterlimit="10" x1="150" y1="44.0002518" x2="152" y2="44.0002518"/>
		<linearGradient id="SVGID_6_" gradientUnits="userSpaceOnUse" x1="148" y1="43.0002518" x2="146" y2="45.0002518">
			<stop  offset="0" style="stop-color:#F59900"/>
			<stop  offset="1" style="stop-color:#CA8608"/>
		</linearGradient>
		
			<line fill="none" stroke="url(#SVGID_6_)" stroke-width="2" stroke-linejoin="round" stroke-miterlimit="10" x1="146" y1="44.0002518" x2="148" y2="44.0002518"/>
		<linearGradient id="SVGID_7_" gradientUnits="userSpaceOnUse" x1="156" y1="43.0002518" x2="154" y2="45.0002518">
			<stop  offset="0" style="stop-color:#F59900"/>
			<stop  offset="1" style="stop-color:#CA8608"/>
		</linearGradient>
		
			<line fill="none" stroke="url(#SVGID_7_)" stroke-width="2" stroke-linejoin="round" stroke-miterlimit="10" x1="154" y1="44.0002518" x2="156" y2="44.0002518"/>
		<linearGradient id="SVGID_8_" gradientUnits="userSpaceOnUse" x1="157" y1="46.0002518" x2="145" y2="58.0002518">
			<stop  offset="0" style="stop-color:#F59900"/>
			<stop  offset="1" style="stop-color:#CA8608"/>
		</linearGradient>
		
			<line fill="none" stroke="url(#SVGID_8_)" stroke-width="2" stroke-linejoin="round" stroke-miterlimit="10" x1="162" y1="52.0002518" x2="140" y2="52.0002518"/>
		<g>
			<g>
				<linearGradient id="SVGID_9_" gradientUnits="userSpaceOnUse" x1="191.0561218" y1="12.9441328" x2="158.5" y2="45.5002518">
					<stop  offset="0" style="stop-color:#F59900"/>
					<stop  offset="1" style="stop-color:#CA8608"/>
				</linearGradient>
				<path fill="none" stroke="url(#SVGID_9_)" stroke-width="2" stroke-miterlimit="10" d="M168,0.00025
					c11.5976868,0,21,9.4028006,21,21.0004997l6,13.0000019v1.9995003h-6v9.0004997c0,3.3134995-2.6865082,5.9995003-6,5.9995003h-6
					v12"/>
				<g>
					<linearGradient id="SVGID_10_" gradientUnits="userSpaceOnUse" x1="176.75" y1="49.7502518" x2="174.25" y2="52.2502518">
						<stop  offset="0" style="stop-color:#F59900"/>
						<stop  offset="1" style="stop-color:#CA8608"/>
					</linearGradient>
					
						<line fill="none" stroke="url(#SVGID_10_)" stroke-width="2" stroke-miterlimit="10" x1="177" y1="51.0002518" x2="174" y2="51.0002518"/>
				</g>
			</g>
		</g>
		<linearGradient id="SVGID_11_" gradientUnits="userSpaceOnUse" x1="166.25" y1="-2.7497499" x2="160.75" y2="2.7502501">
			<stop  offset="0" style="stop-color:#F59900"/>
			<stop  offset="1" style="stop-color:#CA8608"/>
		</linearGradient>
		
			<line fill="none" stroke="url(#SVGID_11_)" stroke-width="2" stroke-linejoin="round" stroke-miterlimit="10" x1="168" y1="0.00025" x2="159" y2="0.00025"/>
		<path fill="none" stroke="#CA8608" stroke-width="2" stroke-linejoin="round" stroke-miterlimit="10" d="M139,34.0007515
			c0,10.9993744,0,10.9995003,0,10.9995003"/>
		<path fill="none" stroke="#CA8608" stroke-width="2" stroke-linecap="square" stroke-linejoin="round" stroke-miterlimit="10" d="
			M151,21.0002499l6-2.9995003l12,3l2-4l-10-10l-7-3c0,0,0-0.0006251,0-4"/>
		<polyline fill="none" stroke="#CA8608" stroke-width="2" stroke-linejoin="round" stroke-miterlimit="10" points="163,45.0002518 
			163,36.0007515 147,17.0002499 		"/>
		
			<line fill="none" stroke="#CA8608" stroke-width="2" stroke-linejoin="round" stroke-miterlimit="10" x1="156" y1="9.0002499" x2="158" y2="9.0002499"/>
		<path fill="none" stroke="#CA8608" stroke-width="2" stroke-miterlimit="10" d="M166,52.0002518
			c1.6562958,0,3,1.3432999,3,3.0004997v6.9995003h-36v-6.9995003c0-1.6571999,1.3437958-3.0004997,3-3.0004997h1v-4h28v4H166z"/>
		<path fill="none" stroke="#CA8608" stroke-width="2" stroke-linejoin="round" stroke-miterlimit="10" d="M154,0.00075
			c-27,0-20,25.9993763-15,34c0,10.9993744,0,10.9995003,0,10.9995003"/>
	</g>
</g>
<g>
	<linearGradient id="SVGID_12_" gradientUnits="userSpaceOnUse" x1="34.25" y1="1.25" x2="29.75" y2="5.75">
		<stop  offset="0" style="stop-color:#F59900"/>
		<stop  offset="1" style="stop-color:#CA8608"/>
	</linearGradient>
	<line fill="none" stroke="url(#SVGID_12_)" stroke-width="2" stroke-miterlimit="10" x1="32" y1="7" x2="32" y2="0"/>
	<linearGradient id="SVGID_13_" gradientUnits="userSpaceOnUse" x1="23.8681221" y1="2.6323774" x2="20.1318779" y2="6.3686223">
		<stop  offset="0" style="stop-color:#F59900"/>
		<stop  offset="1" style="stop-color:#CA8608"/>
	</linearGradient>
	<line fill="none" stroke="url(#SVGID_13_)" stroke-width="2" stroke-miterlimit="10" x1="23" y1="8.0004997" x2="21" y2="1.0005"/>
	<linearGradient id="SVGID_14_" gradientUnits="userSpaceOnUse" x1="13.1933756" y1="6.8071246" x2="10.8066244" y2="9.1938753">
		<stop  offset="0" style="stop-color:#F59900"/>
		<stop  offset="1" style="stop-color:#CA8608"/>
	</linearGradient>
	
		<line fill="none" stroke="url(#SVGID_14_)" stroke-width="2" stroke-miterlimit="10" x1="14" y1="11.0004997" x2="10" y2="5.0005002"/>
	<linearGradient id="SVGID_15_" gradientUnits="userSpaceOnUse" x1="54.6386757" y1="5.361825" x2="49.3613243" y2="10.6391754">
		<stop  offset="0" style="stop-color:#F59900"/>
		<stop  offset="1" style="stop-color:#CA8608"/>
	</linearGradient>
	
		<line fill="none" stroke="url(#SVGID_15_)" stroke-width="2" stroke-miterlimit="10" x1="50" y1="11.0004997" x2="54" y2="5.0005002"/>
	<linearGradient id="SVGID_16_" gradientUnits="userSpaceOnUse" x1="44.5934029" y1="1.9070985" x2="39.4065971" y2="7.0939016">
		<stop  offset="0" style="stop-color:#F59900"/>
		<stop  offset="1" style="stop-color:#CA8608"/>
	</linearGradient>
	<line fill="none" stroke="url(#SVGID_16_)" stroke-width="2" stroke-miterlimit="10" x1="41" y1="8.0004997" x2="43" y2="1.0005"/>
	<linearGradient id="SVGID_17_" gradientUnits="userSpaceOnUse" x1="25" y1="52" x2="23" y2="54">
		<stop  offset="0" style="stop-color:#F59900"/>
		<stop  offset="1" style="stop-color:#CA8608"/>
	</linearGradient>
	<line fill="none" stroke="url(#SVGID_17_)" stroke-width="2" stroke-miterlimit="10" x1="25" y1="53" x2="23" y2="53"/>
	<linearGradient id="SVGID_18_" gradientUnits="userSpaceOnUse" x1="21" y1="52" x2="19" y2="54">
		<stop  offset="0" style="stop-color:#F59900"/>
		<stop  offset="1" style="stop-color:#CA8608"/>
	</linearGradient>
	<line fill="none" stroke="url(#SVGID_18_)" stroke-width="2" stroke-miterlimit="10" x1="21" y1="53" x2="19" y2="53"/>
	<linearGradient id="SVGID_19_" gradientUnits="userSpaceOnUse" x1="41" y1="52" x2="39" y2="54">
		<stop  offset="0" style="stop-color:#F59900"/>
		<stop  offset="1" style="stop-color:#CA8608"/>
	</linearGradient>
	<line fill="none" stroke="url(#SVGID_19_)" stroke-width="2" stroke-miterlimit="10" x1="41" y1="53" x2="39" y2="53"/>
	<linearGradient id="SVGID_20_" gradientUnits="userSpaceOnUse" x1="45" y1="52" x2="43" y2="54">
		<stop  offset="0" style="stop-color:#F59900"/>
		<stop  offset="1" style="stop-color:#CA8608"/>
	</linearGradient>
	<line fill="none" stroke="url(#SVGID_20_)" stroke-width="2" stroke-miterlimit="10" x1="45" y1="53" x2="43" y2="53"/>
	<linearGradient id="SVGID_21_" gradientUnits="userSpaceOnUse" x1="36.2426491" y1="21.7578487" x2="27.757349" y2="30.2431507">
		<stop  offset="0" style="stop-color:#F59900"/>
		<stop  offset="1" style="stop-color:#CA8608"/>
	</linearGradient>
	<circle fill="none" stroke="url(#SVGID_21_)" stroke-width="2" stroke-miterlimit="10" cx="32" cy="26.0004997" r="5"/>
	<linearGradient id="SVGID_22_" gradientUnits="userSpaceOnUse" x1="48.214489" y1="9.7857418" x2="15.7854919" y2="42.2147369">
		<stop  offset="0" style="stop-color:#F59900"/>
		<stop  offset="1" style="stop-color:#CA8608"/>
	</linearGradient>
	<path fill="none" stroke="url(#SVGID_22_)" stroke-width="2" stroke-linejoin="round" stroke-miterlimit="10" d="M33,41h-1
		C14.8788958,41,1,26,1,26s13.8788958-14.9995003,31-14.9995003s31,15,31,15s-6.913105,7.4706993-17,11.8676987"/>
	<path fill="none" stroke="#CA8608" stroke-width="2" stroke-miterlimit="10" d="M22.4736004,31.5039005
		C21.537096,29.8848,21,28.0058994,21,26.0004997c0-6.0751991,4.9248009-11,11-11s11,4.9248009,11,11c0,9-13,14-13,20V54"/>
	<circle fill="none" stroke="#CA8608" stroke-width="2" stroke-miterlimit="10" cx="32" cy="60.0004997" r="3"/>
	<path fill="none" stroke="#CA8608" stroke-width="2" stroke-miterlimit="10" d="M19.0097961,33.5059013
		C17.7313995,31.2978992,17,28.7348995,17,26.0004997c0-8.2842007,6.7157955-15,15-15c8.2841949,0,15,6.7157993,15,15
		c0,12-13,15-13,22V54"/>
</g>
</svg>
