<?xml version="1.0" encoding="utf-8"?>
<!-- Generator: Adobe Illustrator 21.1.0, SVG Export Plug-In . SVG Version: 6.00 Build 0)  -->
<svg version="1.1" id="Слой_1" xmlns="http://www.w3.org/2000/svg" xmlns:xlink="http://www.w3.org/1999/xlink" x="0px" y="0px"
	 viewBox="0 0 99 64" enable-background="new 0 0 99 64" xml:space="preserve">
<g>
	<linearGradient id="SVGID_1_" gradientUnits="userSpaceOnUse" x1="9.5" y1="32.5" x2="2.5" y2="39.5">
		<stop  offset="0" style="stop-color:#F59900"/>
		<stop  offset="1" style="stop-color:#CA8608"/>
	</linearGradient>
	<line fill="none" stroke="url(#SVGID_1_)" stroke-width="2" stroke-miterlimit="10" x1="12" y1="36" x2="0" y2="36"/>
	<linearGradient id="SVGID_2_" gradientUnits="userSpaceOnUse" x1="17" y1="36" x2="9" y2="44">
		<stop  offset="0" style="stop-color:#F59900"/>
		<stop  offset="1" style="stop-color:#CA8608"/>
	</linearGradient>
	<line fill="none" stroke="url(#SVGID_2_)" stroke-width="2" stroke-miterlimit="10" x1="20" y1="40" x2="6" y2="40"/>
	<linearGradient id="SVGID_3_" gradientUnits="userSpaceOnUse" x1="92.9000015" y1="17.7000008" x2="88.3000031" y2="22.2999992">
		<stop  offset="0" style="stop-color:#F59900"/>
		<stop  offset="1" style="stop-color:#CA8608"/>
	</linearGradient>
	<line fill="none" stroke="url(#SVGID_3_)" stroke-width="2" stroke-miterlimit="10" x1="94.1999969" y1="20" x2="87" y2="20"/>
	<linearGradient id="SVGID_4_" gradientUnits="userSpaceOnUse" x1="97.4000015" y1="13.3999996" x2="92.1999969" y2="18.6000004">
		<stop  offset="0" style="stop-color:#F59900"/>
		<stop  offset="1" style="stop-color:#CA8608"/>
	</linearGradient>
	<line fill="none" stroke="url(#SVGID_4_)" stroke-width="2" stroke-miterlimit="10" x1="99" y1="16" x2="90.5999985" y2="16"/>
	<g>
		<linearGradient id="SVGID_5_" gradientUnits="userSpaceOnUse" x1="42" y1="44" x2="40" y2="46">
			<stop  offset="0" style="stop-color:#F59900"/>
			<stop  offset="1" style="stop-color:#CA8608"/>
		</linearGradient>
		
			<line fill="none" stroke="url(#SVGID_5_)" stroke-width="2" stroke-linejoin="round" stroke-miterlimit="10" x1="40" y1="45" x2="42" y2="45"/>
		<linearGradient id="SVGID_6_" gradientUnits="userSpaceOnUse" x1="38" y1="44" x2="36" y2="46">
			<stop  offset="0" style="stop-color:#F59900"/>
			<stop  offset="1" style="stop-color:#CA8608"/>
		</linearGradient>
		
			<line fill="none" stroke="url(#SVGID_6_)" stroke-width="2" stroke-linejoin="round" stroke-miterlimit="10" x1="36" y1="45" x2="38" y2="45"/>
		<linearGradient id="SVGID_7_" gradientUnits="userSpaceOnUse" x1="46" y1="44" x2="44" y2="46">
			<stop  offset="0" style="stop-color:#F59900"/>
			<stop  offset="1" style="stop-color:#CA8608"/>
		</linearGradient>
		
			<line fill="none" stroke="url(#SVGID_7_)" stroke-width="2" stroke-linejoin="round" stroke-miterlimit="10" x1="44" y1="45" x2="46" y2="45"/>
		<linearGradient id="SVGID_8_" gradientUnits="userSpaceOnUse" x1="47" y1="47" x2="35" y2="59">
			<stop  offset="0" style="stop-color:#F59900"/>
			<stop  offset="1" style="stop-color:#CA8608"/>
		</linearGradient>
		
			<line fill="none" stroke="url(#SVGID_8_)" stroke-width="2" stroke-linejoin="round" stroke-miterlimit="10" x1="52" y1="53" x2="30" y2="53"/>
		<g>
			<g>
				<linearGradient id="SVGID_9_" gradientUnits="userSpaceOnUse" x1="81.0561142" y1="13.943882" x2="48.5" y2="46.5">
					<stop  offset="0" style="stop-color:#F59900"/>
					<stop  offset="1" style="stop-color:#CA8608"/>
				</linearGradient>
				<path fill="none" stroke="url(#SVGID_9_)" stroke-width="2" stroke-miterlimit="10" d="M58,1
					c11.5976944,0,21,9.4027996,21,21.0004997l6,13V37h-6v9.0004997C79,49.3139992,76.3134918,52,73,52h-6v12"/>
				<g>
					<linearGradient id="SVGID_10_" gradientUnits="userSpaceOnUse" x1="66.75" y1="50.75" x2="64.25" y2="53.25">
						<stop  offset="0" style="stop-color:#F59900"/>
						<stop  offset="1" style="stop-color:#CA8608"/>
					</linearGradient>
					<line fill="none" stroke="url(#SVGID_10_)" stroke-width="2" stroke-miterlimit="10" x1="67" y1="52" x2="64" y2="52"/>
				</g>
			</g>
		</g>
		<linearGradient id="SVGID_11_" gradientUnits="userSpaceOnUse" x1="56.25" y1="-1.75" x2="50.75" y2="3.75">
			<stop  offset="0" style="stop-color:#F59900"/>
			<stop  offset="1" style="stop-color:#CA8608"/>
		</linearGradient>
		
			<line fill="none" stroke="url(#SVGID_11_)" stroke-width="2" stroke-linejoin="round" stroke-miterlimit="10" x1="58" y1="1" x2="49" y2="1"/>
		<path fill="none" stroke="#CA8608" stroke-width="2" stroke-linejoin="round" stroke-miterlimit="10" d="M29,35.0004997
			C29,45.9998741,29,46,29,46"/>
		<path fill="none" stroke="#CA8608" stroke-width="2" stroke-linecap="square" stroke-linejoin="round" stroke-miterlimit="10" d="
			M41,22l6-2.9995003l12,3l2-4l-10-10l-7-2.9999995c0,0,0-0.0006251,0-4"/>
		<polyline fill="none" stroke="#CA8608" stroke-width="2" stroke-linejoin="round" stroke-miterlimit="10" points="53,46 
			53,37.0004997 37,18 		"/>
		
			<line fill="none" stroke="#CA8608" stroke-width="2" stroke-linejoin="round" stroke-miterlimit="10" x1="46" y1="10" x2="48" y2="10"/>
		<path fill="none" stroke="#CA8608" stroke-width="2" stroke-miterlimit="10" d="M56,53c1.6562996,0,3,1.3432999,3,3.0004997V63H23
			v-6.9995003C23,54.3432999,24.3437996,53,26,53h1v-4h28v4H56z"/>
		<path fill="none" stroke="#CA8608" stroke-width="2" stroke-linejoin="round" stroke-miterlimit="10" d="M44,1.0005
			c-27,0-20,25.9993744-15,34C29,45.9998741,29,46,29,46"/>
	</g>
</g>
<g display="none">
	<linearGradient id="SVGID_12_" gradientUnits="userSpaceOnUse" x1="-75.75" y1="2.2497499" x2="-80.25" y2="6.7497501">
		<stop  offset="0" style="stop-color:#F59900"/>
		<stop  offset="1" style="stop-color:#CA8608"/>
	</linearGradient>
	
		<line display="inline" fill="none" stroke="url(#SVGID_12_)" stroke-width="2" stroke-miterlimit="10" x1="-78" y1="7.9997501" x2="-78" y2="0.99975"/>
	<linearGradient id="SVGID_13_" gradientUnits="userSpaceOnUse" x1="-86.1318741" y1="3.6321275" x2="-89.8681259" y2="7.3683724">
		<stop  offset="0" style="stop-color:#F59900"/>
		<stop  offset="1" style="stop-color:#CA8608"/>
	</linearGradient>
	
		<line display="inline" fill="none" stroke="url(#SVGID_13_)" stroke-width="2" stroke-miterlimit="10" x1="-87" y1="9.0002499" x2="-89" y2="2.0002501"/>
	<linearGradient id="SVGID_14_" gradientUnits="userSpaceOnUse" x1="-96.8066254" y1="7.8068748" x2="-99.1933746" y2="10.1936255">
		<stop  offset="0" style="stop-color:#F59900"/>
		<stop  offset="1" style="stop-color:#CA8608"/>
	</linearGradient>
	
		<line display="inline" fill="none" stroke="url(#SVGID_14_)" stroke-width="2" stroke-miterlimit="10" x1="-96" y1="12.0002499" x2="-100" y2="6.0002499"/>
	<linearGradient id="SVGID_15_" gradientUnits="userSpaceOnUse" x1="-55.3613243" y1="6.3615751" x2="-60.6386757" y2="11.6389246">
		<stop  offset="0" style="stop-color:#F59900"/>
		<stop  offset="1" style="stop-color:#CA8608"/>
	</linearGradient>
	
		<line display="inline" fill="none" stroke="url(#SVGID_15_)" stroke-width="2" stroke-miterlimit="10" x1="-60" y1="12.0002499" x2="-56" y2="6.0002499"/>
	<linearGradient id="SVGID_16_" gradientUnits="userSpaceOnUse" x1="-65.406601" y1="2.9068487" x2="-70.593399" y2="8.0936518">
		<stop  offset="0" style="stop-color:#F59900"/>
		<stop  offset="1" style="stop-color:#CA8608"/>
	</linearGradient>
	
		<line display="inline" fill="none" stroke="url(#SVGID_16_)" stroke-width="2" stroke-miterlimit="10" x1="-69" y1="9.0002499" x2="-67" y2="2.0002501"/>
	<linearGradient id="SVGID_17_" gradientUnits="userSpaceOnUse" x1="-85" y1="52.9997482" x2="-87" y2="54.9997482">
		<stop  offset="0" style="stop-color:#F59900"/>
		<stop  offset="1" style="stop-color:#CA8608"/>
	</linearGradient>
	
		<line display="inline" fill="none" stroke="url(#SVGID_17_)" stroke-width="2" stroke-miterlimit="10" x1="-85" y1="53.9997482" x2="-87" y2="53.9997482"/>
	<linearGradient id="SVGID_18_" gradientUnits="userSpaceOnUse" x1="-89" y1="52.9997482" x2="-91" y2="54.9997482">
		<stop  offset="0" style="stop-color:#F59900"/>
		<stop  offset="1" style="stop-color:#CA8608"/>
	</linearGradient>
	
		<line display="inline" fill="none" stroke="url(#SVGID_18_)" stroke-width="2" stroke-miterlimit="10" x1="-89" y1="53.9997482" x2="-91" y2="53.9997482"/>
	<linearGradient id="SVGID_19_" gradientUnits="userSpaceOnUse" x1="-69" y1="52.9997482" x2="-71" y2="54.9997482">
		<stop  offset="0" style="stop-color:#F59900"/>
		<stop  offset="1" style="stop-color:#CA8608"/>
	</linearGradient>
	
		<line display="inline" fill="none" stroke="url(#SVGID_19_)" stroke-width="2" stroke-miterlimit="10" x1="-69" y1="53.9997482" x2="-71" y2="53.9997482"/>
	<linearGradient id="SVGID_20_" gradientUnits="userSpaceOnUse" x1="-65" y1="52.9997482" x2="-67" y2="54.9997482">
		<stop  offset="0" style="stop-color:#F59900"/>
		<stop  offset="1" style="stop-color:#CA8608"/>
	</linearGradient>
	
		<line display="inline" fill="none" stroke="url(#SVGID_20_)" stroke-width="2" stroke-miterlimit="10" x1="-65" y1="53.9997482" x2="-67" y2="53.9997482"/>
	
		<linearGradient id="SVGID_21_" gradientUnits="userSpaceOnUse" x1="-73.7573471" y1="22.7575989" x2="-82.2426529" y2="31.2429008">
		<stop  offset="0" style="stop-color:#F59900"/>
		<stop  offset="1" style="stop-color:#CA8608"/>
	</linearGradient>
	
		<circle display="inline" fill="none" stroke="url(#SVGID_21_)" stroke-width="2" stroke-miterlimit="10" cx="-78" cy="27.0002499" r="5"/>
	<linearGradient id="SVGID_22_" gradientUnits="userSpaceOnUse" x1="-61.785511" y1="10.7854919" x2="-94.2145081" y2="43.214489">
		<stop  offset="0" style="stop-color:#F59900"/>
		<stop  offset="1" style="stop-color:#CA8608"/>
	</linearGradient>
	<path display="inline" fill="none" stroke="url(#SVGID_22_)" stroke-width="2" stroke-linejoin="round" stroke-miterlimit="10" d="
		M-77,41.9997482h-1c-17.1211014,0-31-14.9999981-31-14.9999981s13.8788986-14.9995003,31-14.9995003s31,15,31,15
		s-6.913105,7.4707012-17,11.8677006"/>
	<path display="inline" fill="none" stroke="#CA8608" stroke-width="2" stroke-miterlimit="10" d="M-87.5263977,32.5036507
		C-88.4629059,30.8845501-89,29.0056496-89,27.0002499c0-6.0751991,4.9247971-11,11-11s11,4.9248009,11,11
		c0,9.0000019-13,14.0000019-13,20.0000019v7.9994965"/>
	<circle display="inline" fill="none" stroke="#CA8608" stroke-width="2" stroke-miterlimit="10" cx="-78" cy="61.0002518" r="3"/>
	<path display="inline" fill="none" stroke="#CA8608" stroke-width="2" stroke-miterlimit="10" d="M-90.9902039,34.5056496
		C-92.2686005,32.2976494-93,29.7346497-93,27.0002499c0-8.2842007,6.7157974-15,15-15s15,6.7157993,15,15
		c0,12.0000019-13,15.0000019-13,22.0000019v5.9994965"/>
</g>
</svg>
