<?xml version="1.0" encoding="utf-8"?>
<!-- Generator: Adobe Illustrator 21.1.0, SVG Export Plug-In . SVG Version: 6.00 Build 0)  -->
<svg version="1.1" id="Layer_1" xmlns="http://www.w3.org/2000/svg" xmlns:xlink="http://www.w3.org/1999/xlink" x="0px" y="0px"
	 viewBox="0 0 380.9249878 85.0393677" enable-background="new 0 0 380.9249878 85.0393677" xml:space="preserve">
<g>
	<path fill="#FF0000" d="M118.9462357,13.2790384c-1.3971558-5.2268639-5.5136337-9.3433418-10.740509-10.7404881
		C98.7317352,0,60.7423897,0,60.7423897,0S22.7530403,0,13.2790499,2.5385504
		C8.0521746,3.9356971,3.9356971,8.0521746,2.5385447,13.2790384C0,22.7530174,0,42.5196838,0,42.5196838
		s0,19.7666702,2.5385447,29.2406464c1.3971524,5.2268677,5.5136299,9.3433456,10.7405052,10.7404861
		c9.4739904,2.5385513,47.4633408,2.5385513,47.4633408,2.5385513s37.9893456,0,47.4633369-2.5385513
		c5.2268753-1.3971405,9.3433533-5.5136185,10.740509-10.7404861c2.5385361-9.4739761,2.5385361-29.2406464,2.5385361-29.2406464
		S121.4847717,22.7530174,118.9462357,13.2790384z"/>
	<polygon fill="#FFFFFF" points="48.5939102,60.7423859 80.1552048,42.5202065 48.5939102,24.2969551 	"/>
</g>
<g>
	<g>
		<path fill="#282828" d="M176.3355255,77.3637238c-2.404129-1.6204987-4.1130066-4.140358-5.1256409-7.5580978
			c-1.0140839-3.4167633-1.520401-7.9628525-1.520401-13.6397209v-7.7319107c0-5.7339973,0.5780945-10.3386726,1.7371826-13.8135376
			c1.1581268-3.4748688,2.9675903-6.0079041,5.4298248-7.6015491c2.4612579-1.5921803,5.6905365-2.3890018,9.6868591-2.3890018
			c3.9382172,0,7.0942535,0.81147,9.4695892,2.4324551c2.3743591,1.6219635,4.1115417,4.1564636,5.2125397,7.6015491
			c1.0995331,3.4465485,1.6507721,8.036087,1.6507721,13.7700844v7.7319107c0,5.6768684-0.5361023,10.2380943-1.6073151,13.6831779
			c-1.0721893,3.4465485-2.8098755,5.9659119-5.2125397,7.5580902c-2.4041443,1.5921783-5.6617432,2.3889999-9.7737732,2.3889999
			C182.0543823,79.7961731,178.738205,78.9847031,176.3355255,77.3637238z M189.8014374,69.0234528
			c0.6649933-1.7371902,0.9989471-4.5744019,0.9989471-8.5135994V43.9162254c0-3.8224983-0.3339539-6.6162605-0.9989471-8.3837204
			c-0.6664581-1.7659988-1.8397217-2.6497269-3.5188141-2.6497269c-1.6219635,0-2.7664185,0.883728-3.4314117,2.6497269
			c-0.6664581,1.7674599-0.9989624,4.5612221-0.9989624,8.3837204v16.5936279c0,3.9391975,0.3173676,6.7764091,0.9555054,8.5135994
			c0.636673,1.7376785,1.7943115,2.6062698,3.4748688,2.6062698
			C187.9617157,71.6297226,189.1349792,70.7611313,189.8014374,69.0234528z"/>
		<path fill="#282828" d="M360.8564148,56.2923775v2.6932945c0,3.4180145,0.0996399,5.9809189,0.303772,7.6887054
			c0.202179,1.7092514,0.6211853,2.954071,1.2599487,3.7359314c0.6368408,0.7818604,1.6203918,1.1730347,2.9536133,1.1730347
			c1.79422,0,3.0258484-0.6954193,3.6919556-2.0852814c0.6651611-1.3898697,1.0275269-3.7061462,1.0861206-6.9503098
			l10.3385315,0.6080055c0.0576172,0.4644279,0.0869141,1.1012459,0.0869141,1.9114342
			c0,4.9236221-1.3468628,8.6009521-4.0396729,11.0334625s-6.5020142,3.6490097-11.4246521,3.6490097
			c-5.9071655,0-10.049408-1.852829-12.4238281-5.5604401c-2.3753662-3.705658-3.5620728-9.4394684-3.5620728-17.2014236v-9.2963753
			c0-7.9924622,1.2306824-13.82687,3.6929626-17.5056686c2.4613342-3.6773338,6.6748657-5.5169773,12.6406555-5.5169773
			c4.111969,0,7.2677307,0.7535362,9.4692383,2.2591419c2.2005615,1.5065842,3.7496338,3.8521652,4.6481934,7.036747
			c0.8976135,3.1860428,1.3468933,7.5885887,1.3468933,13.205677v9.1220322H360.8564148z M362.3761902,33.8782272
			c-0.6075134,0.7530479-1.0138245,1.9841995-1.2160034,3.6919861c-0.2041321,1.7092514-0.303772,4.3004761-0.303772,7.775631
			v3.8228607h8.7738342v-3.8228607c0-3.4165535-0.1162109-6.0082664-0.3467102-7.775631
			c-0.2324829-1.7659035-0.6514893-3.0107269-1.2599792-3.7354507c-0.60849-0.7237434-1.5500488-1.0861053-2.8236694-1.0861053
			C363.9252625,32.7486572,362.9846802,33.1261559,362.3761902,33.8782272z"/>
		<path fill="#282828" d="M147.1416016,55.2952957L133.5018768,6.0358586h11.9020538l4.7779999,22.3276253
			c1.2167206,5.5030518,2.1136322,10.194149,2.6931763,14.0737762h0.347641
			c0.4047546-2.7800903,1.3031311-7.4414024,2.6931763-13.9868679l4.951828-22.4145336h11.9025269l-13.8135376,49.2594376
			v23.6319427h-11.8151398V55.2952957z"/>
		<path fill="#282828" d="M241.5860596,25.6717796v53.2552605h-9.3826752l-1.0429077-6.5156784h-0.2602386
			c-2.5496368,4.9235001-6.3721313,7.3842773-11.4679871,7.3842773c-3.5334625,0-6.1397247-1.1576385-7.8188171-3.4748688
			c-1.6805573-2.3157654-2.5193634-5.9361267-2.5193634-10.8596344V25.6717796h11.9889526v39.0945778
			c0,2.3753357,0.2607269,4.0695572,0.7816772,5.0821838c0.5214539,1.0140915,1.3900452,1.5204086,2.6062775,1.5204086
			c1.0429077,0,2.0418549-0.3178482,2.9973602-0.9559937c0.9559937-0.636673,1.664444-1.4466782,2.1287689-2.432457V25.6717796
			H241.5860596z"/>
		<path fill="#282828" d="M303.0820007,25.6717796v53.2552605h-9.3826599l-1.0429077-6.5156784h-0.2602234
			c-2.5496521,4.9235001-6.3721619,7.3842773-11.4680176,7.3842773c-3.5334473,0-6.1397095-1.1576385-7.8188171-3.4748688
			c-1.680542-2.3157654-2.5193481-5.9361267-2.5193481-10.8596344V25.6717796h11.9889526v39.0945778
			c0,2.3753357,0.2607117,4.0695572,0.7816772,5.0821838c0.5214539,1.0140915,1.3900452,1.5204086,2.6062927,1.5204086
			c1.0428772,0,2.0418396-0.3178482,2.997345-0.9559937c0.9559937-0.636673,1.6644287-1.4466782,2.1287537-2.432457V25.6717796
			H303.0820007z"/>
		<path fill="#282828" d="M274.1642761,15.6807642h-11.9020386v63.2463074h-11.7282257V15.6807642h-11.9020386v-9.643404h35.5323029
			V15.6807642z"/>
		<path fill="#282828" d="M342.7611694,34.184803c-0.7250977-3.3581562-1.8978271-5.7906513-3.5187988-7.2973652
			c-1.6219482-1.505249-3.8522949-2.258667-6.6894531-2.258667c-2.2015381,0-4.2570801,0.6230469-6.1680908,1.8676758
			c-1.911499,1.2459717-3.3884277,2.8820801-4.4307861,4.9088135h-0.0880127l0.0010986-28.0616455h-11.5544434v75.5828857h9.9035645
			l1.2163086-5.0386963h0.2607422c0.9256592,1.7957764,2.3156738,3.2141113,4.1700439,4.2570801
			c1.8529053,1.0423584,3.9094238,1.5633545,6.1685791,1.5633545c4.0529785,0,7.0366211-1.8675537,8.9481201-5.6031494
			c1.9110107-3.736084,2.8670654-9.5701904,2.8670654-17.5057335v-8.427124
			C343.8471069,42.2077522,343.484314,37.5450325,342.7611694,34.184803z M331.7711792,55.9075089
			c0,3.8811035-0.1601563,6.921875-0.4780273,9.1218262c-0.3188477,2.2021484-0.8548584,3.7658691-1.6072998,4.6916504
			c-0.7532959,0.9272461-1.7674561,1.3900146-3.0402832,1.3900146c-0.9857178,0-1.8978271-0.230835-2.7366943-0.6951904
			c-0.84021-0.4628906-1.5203857-1.1577148-2.041748-2.0848389V38.0975723
			c0.4046631-1.4466553,1.0994873-2.6345215,2.0852051-3.5617676c0.9838867-0.9256592,2.0550537-1.3900146,3.2142334-1.3900146
			c1.2161865,0,2.1571045,0.4780273,2.8234863,1.4334717c0.6650391,0.9554443,1.1292725,2.5628662,1.3900146,4.8218994
			c0.2607422,2.258667,0.3911133,5.4729004,0.3911133,9.6429443V55.9075089z"/>
	</g>
</g>
</svg>
