<svg xmlns="http://www.w3.org/2000/svg" xmlns:xlink="http://www.w3.org/1999/xlink" viewBox="0 0 81.535 89.746"><defs><path id="id-46a" d="M28.248 73.23L38.76 35.388 28.07-3.097h-41.188v75.686z"/></defs><clipPath id="id-47b"><use xlink:href="#id-46a" overflow="visible"/></clipPath><g clip-path="url(#id-47b)"><defs><path id="id-48c" d="M-7.987.43H40.76v69.272H-7.987z"/></defs><clipPath id="id-49d"><use xlink:href="#id-48c" overflow="visible"/></clipPath><g clip-path="url(#id-49d)"><linearGradient id="id-50e" gradientUnits="userSpaceOnUse" x1="15.066" y1="6.675" x2="7.445" y2="14.297"><stop offset="0" stop-color="#f59900"/><stop offset="1" stop-color="#ca8608"/></linearGradient><path fill="none" stroke="url(#id-50e)" stroke-width="2" stroke-linejoin="round" stroke-miterlimit="10" d="M6.124 11.976V9.41h10.263v2.566"/><linearGradient id="id-51f" gradientUnits="userSpaceOnUse" x1="26.715" y1="23.456" x2="-4.204" y2="54.375"><stop offset="0" stop-color="#f59900"/><stop offset="1" stop-color="#ca8608"/></linearGradient><path fill="none" stroke="url(#id-51f)" stroke-width="2" stroke-linejoin="round" stroke-miterlimit="10" d="M8.69 11.976h5.131v53.879H8.69z"/><linearGradient id="id-52g" gradientUnits="userSpaceOnUse" x1="52.806" y1="53.809" x2="28.715" y2="77.9"><stop offset="0" stop-color="#f59900"/><stop offset="1" stop-color="#ca8608"/></linearGradient><path fill="none" stroke="url(#id-52g)" stroke-width="2" stroke-linejoin="round" stroke-miterlimit="10" d="M63.851 65.854H17.669"/><linearGradient id="id-53h" gradientUnits="userSpaceOnUse" x1="64.775" y1="-5.191" x2="16.745" y2="42.839"><stop offset="0" stop-color="#f59900"/><stop offset="1" stop-color="#ca8608"/></linearGradient><path fill="none" stroke="url(#id-53h)" stroke-width="2" stroke-linejoin="round" stroke-miterlimit="10" d="M80.528 26.087V11.976H60.003l-2.566 2.566H24.084l-2.566-2.566H.993v14.11"/><linearGradient id="id-54i" gradientUnits="userSpaceOnUse" x1="47.638" y1="5.584" x2="33.882" y2="19.34"><stop offset="0" stop-color="#f59900"/><stop offset="1" stop-color="#ca8608"/></linearGradient><path fill="none" stroke="url(#id-54i)" stroke-width="2" stroke-linejoin="round" stroke-miterlimit="10" d="M47.174 8.127a3.85 3.85 0 0 1 3.849 3.849v2.566H30.498v-2.566a3.85 3.85 0 0 1 3.848-3.849h12.828z"/><linearGradient id="id-55j" gradientUnits="userSpaceOnUse" x1="85.725" y1="23.456" x2="54.806" y2="54.375"><stop offset="0" stop-color="#f59900"/><stop offset="1" stop-color="#ca8608"/></linearGradient><path fill="none" stroke="url(#id-55j)" stroke-width="2" stroke-linejoin="round" stroke-miterlimit="10" d="M67.7 11.976h5.131v53.879H67.7z"/><linearGradient id="id-56k" gradientUnits="userSpaceOnUse" x1="46.599" y1="24.204" x2="34.922" y2="35.881"><stop offset="0" stop-color="#f59900"/><stop offset="1" stop-color="#ca8608"/></linearGradient><path fill="none" stroke="url(#id-56k)" stroke-width="2" stroke-linejoin="round" stroke-miterlimit="10" d="M35.629 24.911h10.263v10.263H35.629z"/><linearGradient id="id-57l" gradientUnits="userSpaceOnUse" x1="28.162" y1="25.317" x2="18.924" y2="34.554"><stop offset="0" stop-color="#f59900"/><stop offset="1" stop-color="#ca8608"/></linearGradient><path fill="none" stroke="url(#id-57l)" stroke-width="2" stroke-linejoin="round" stroke-miterlimit="10" d="M31.78 29.935H15.305"/><linearGradient id="id-58m" gradientUnits="userSpaceOnUse" x1="63.71" y1="24.946" x2="53.73" y2="34.925"><stop offset="0" stop-color="#f59900"/><stop offset="1" stop-color="#ca8608"/></linearGradient><path fill="none" stroke="url(#id-58m)" stroke-width="2" stroke-linejoin="round" stroke-miterlimit="10" d="M49.74 29.935H67.7"/><linearGradient id="id-59n" gradientUnits="userSpaceOnUse" x1="15.449" y1="37.08" x2="-6.873" y2="59.402"><stop offset="0" stop-color="#f59900"/><stop offset="1" stop-color="#ca8608"/></linearGradient><path fill="none" stroke="url(#id-59n)" stroke-width="2" stroke-linejoin="round" stroke-miterlimit="10" d="M8.69 65.854H.993V29.935h6.312"/><linearGradient id="id-60o" gradientUnits="userSpaceOnUse" x1="88.394" y1="36.387" x2="65.379" y2="59.402"><stop offset="0" stop-color="#f59900"/><stop offset="1" stop-color="#ca8608"/></linearGradient><path fill="none" stroke="url(#id-60o)" stroke-width="2" stroke-linejoin="round" stroke-miterlimit="10" d="M72.83 29.935h7.698v35.92H72.83"/><linearGradient id="id-61p" gradientUnits="userSpaceOnUse" x1="74.076" y1="6.675" x2="66.455" y2="14.297"><stop offset="0" stop-color="#f59900"/><stop offset="1" stop-color="#ca8608"/></linearGradient><path fill="none" stroke="url(#id-61p)" stroke-width="2" stroke-linejoin="round" stroke-miterlimit="10" d="M65.134 11.976V9.41h10.262v2.566"/><linearGradient id="id-62q" gradientUnits="userSpaceOnUse" x1="39.336" y1="36.598" x2="37.053" y2="38.881"><stop offset="0" stop-color="#f59900"/><stop offset="1" stop-color="#ca8608"/></linearGradient><path fill="none" stroke="url(#id-62q)" stroke-width="2" stroke-linejoin="round" stroke-miterlimit="10" d="M36.912 37.739h2.565"/><linearGradient id="id-63r" gradientUnits="userSpaceOnUse" x1="44.467" y1="36.598" x2="42.184" y2="38.881"><stop offset="0" stop-color="#f59900"/><stop offset="1" stop-color="#ca8608"/></linearGradient><path fill="none" stroke="url(#id-63r)" stroke-width="2" stroke-linejoin="round" stroke-miterlimit="10" d="M42.043 37.739h2.566"/><linearGradient id="id-64s" gradientUnits="userSpaceOnUse" x1="39.336" y1="21.204" x2="37.053" y2="23.487"><stop offset="0" stop-color="#f59900"/><stop offset="1" stop-color="#ca8608"/></linearGradient><path fill="none" stroke="url(#id-64s)" stroke-width="2" stroke-linejoin="round" stroke-miterlimit="10" d="M36.912 22.345h2.565"/><linearGradient id="id-65t" gradientUnits="userSpaceOnUse" x1="44.467" y1="21.204" x2="42.184" y2="23.487"><stop offset="0" stop-color="#f59900"/><stop offset="1" stop-color="#ca8608"/></linearGradient><path fill="none" stroke="url(#id-65t)" stroke-width="2" stroke-linejoin="round" stroke-miterlimit="10" d="M42.043 22.345h2.566"/></g></g><path fill="none" d="M28.972 73.23l10.513-37.843L28.794-3.097h-43.188v75.686z"/><defs><path id="id-66u" d="M29.863-3.365v.268h.214l10.69 38.484L30.33 72.964h63.676V-3.365z"/></defs><clipPath id="id-67v"><use xlink:href="#id-66u" overflow="visible"/></clipPath><g clip-path="url(#id-67v)" fill="none" stroke="#FCCE8E" stroke-width="2" stroke-linejoin="round" stroke-miterlimit="10"><path d="M63.858 65.854H17.677m62.858-39.767V11.976H60.01l-2.566 2.566H24.091l-2.566-2.566H1v14.11"/><path d="M47.182 8.127a3.85 3.85 0 0 1 3.848 3.849v2.566H30.505v-2.566a3.85 3.85 0 0 1 3.848-3.849h12.829zM8.697 11.976h5.131v53.879H8.697zm59.01 0h5.131v53.879h-5.131zM35.636 24.911h10.263v10.263H35.636zm-3.848 5.024h-17.96m35.919 0h17.96M8.697 65.854H1V29.935h7.697m64.141 0h7.697v35.92h-7.697M6.131 11.976V9.41h10.263v2.566m48.747 0V9.41h10.263v2.566M36.919 37.739h2.566m2.565 0h2.566m-7.697-15.394h2.566m2.565 0h2.566"/></g><linearGradient id="id-68w" gradientUnits="userSpaceOnUse" x1="52.285" y1="20.998" x2="4.533" y2="68.75"><stop offset="0" stop-color="#f59900"/><stop offset="1" stop-color="#ca8608"/></linearGradient><path fill="none" stroke="url(#id-68w)" stroke-miterlimit="10" d="M25.743 89.612l15.024-54.087L30.805.135"/></svg>