<svg xmlns="http://www.w3.org/2000/svg" xmlns:xlink="http://www.w3.org/1999/xlink" viewBox="0 0 87.976 82.619"><defs><path id="id-1035a" d="M-7.913-10.492l5 68.326L47.215 28.26 36.777 65.837h63.676v-76.33z"/></defs><clipPath id="id-1036b"><use xlink:href="#id-1035a" overflow="visible"/></clipPath><g clip-path="url(#id-1036b)" fill="none" stroke="#FCCE8E" stroke-width="2" stroke-linejoin="round" stroke-miterlimit="10"><path d="M70.307 58.728H24.124M86.983 18.96V4.849H66.458l-2.566 2.565H30.54L27.973 4.85H7.448v14.11"/><path d="M53.63 1a3.85 3.85 0 0 1 3.848 3.849v2.565H36.953V4.85A3.85 3.85 0 0 1 40.8 1h12.83zM15.145 4.849h5.131v53.879h-5.131zm59.01 0h5.131v53.879h-5.131zM42.084 17.784h10.263v10.263H42.084zm-3.848 5.024h-17.96m35.919 0h17.96m-59.01 35.92H7.448v-35.92h7.697m64.141 0h7.697v35.92h-7.697M12.579 4.849V2.283h10.263v2.566m48.748 0V2.283h10.262v2.566M43.367 30.612h2.566m2.565 0h2.566m-7.697-15.394h2.566m2.565 0h2.566"/></g><defs><path id="id-1037c" d="M34.696 66.104l9.724-34.27-52.333 31 1.242 2.629z"/></defs><clipPath id="id-1038d"><use xlink:href="#id-1037c" overflow="visible"/></clipPath><g clip-path="url(#id-1038d)"><defs><path id="id-1039e" d="M-1.54-6.697h48.748v69.273H-1.54z"/></defs><clipPath id="id-1040f"><use xlink:href="#id-1039e" overflow="visible"/></clipPath><g clip-path="url(#id-1040f)"><linearGradient id="id-1041g" gradientUnits="userSpaceOnUse" x1="59.254" y1="46.682" x2="35.163" y2="70.773"><stop offset="0" stop-color="#f59900"/><stop offset="1" stop-color="#ca8608"/></linearGradient><path fill="none" stroke="url(#id-1041g)" stroke-width="2" stroke-linejoin="round" stroke-miterlimit="10" d="M70.299 58.728H24.117"/><linearGradient id="id-1042h" gradientUnits="userSpaceOnUse" x1="71.224" y1="-12.318" x2="23.193" y2="35.712"><stop offset="0" stop-color="#f59900"/><stop offset="1" stop-color="#ca8608"/></linearGradient><path fill="none" stroke="url(#id-1042h)" stroke-width="2" stroke-linejoin="round" stroke-miterlimit="10" d="M86.976 18.96V4.849H66.451l-2.566 2.565H30.531L27.966 4.85H7.44v14.11"/><linearGradient id="id-1043i" gradientUnits="userSpaceOnUse" x1="54.087" y1="-1.544" x2="40.33" y2="12.213"><stop offset="0" stop-color="#f59900"/><stop offset="1" stop-color="#ca8608"/></linearGradient><path fill="none" stroke="url(#id-1043i)" stroke-width="2" stroke-linejoin="round" stroke-miterlimit="10" d="M53.622 1a3.85 3.85 0 0 1 3.849 3.849v2.565H36.946V4.85A3.85 3.85 0 0 1 40.794 1h12.828z"/><linearGradient id="id-1044j" gradientUnits="userSpaceOnUse" x1="33.163" y1="16.328" x2="2.243" y2="47.248"><stop offset="0" stop-color="#f59900"/><stop offset="1" stop-color="#ca8608"/></linearGradient><path fill="none" stroke="url(#id-1044j)" stroke-width="2" stroke-linejoin="round" stroke-miterlimit="10" d="M15.137 4.849h5.131v53.879h-5.131z"/><linearGradient id="id-1045k" gradientUnits="userSpaceOnUse" x1="92.173" y1="16.328" x2="61.254" y2="47.248"><stop offset="0" stop-color="#f59900"/><stop offset="1" stop-color="#ca8608"/></linearGradient><path fill="none" stroke="url(#id-1045k)" stroke-width="2" stroke-linejoin="round" stroke-miterlimit="10" d="M74.148 4.849h5.131v53.879h-5.131z"/><linearGradient id="id-1046l" gradientUnits="userSpaceOnUse" x1="53.047" y1="17.077" x2="41.37" y2="28.754"><stop offset="0" stop-color="#f59900"/><stop offset="1" stop-color="#ca8608"/></linearGradient><path fill="none" stroke="url(#id-1046l)" stroke-width="2" stroke-linejoin="round" stroke-miterlimit="10" d="M42.077 17.784H52.34v10.263H42.077z"/><linearGradient id="id-1047m" gradientUnits="userSpaceOnUse" x1="34.238" y1="17.818" x2="24.259" y2="27.798"><stop offset="0" stop-color="#f59900"/><stop offset="1" stop-color="#ca8608"/></linearGradient><path fill="none" stroke="url(#id-1047m)" stroke-width="2" stroke-linejoin="round" stroke-miterlimit="10" d="M38.228 22.808H20.269"/><linearGradient id="id-1048n" gradientUnits="userSpaceOnUse" x1="70.158" y1="17.818" x2="60.178" y2="27.798"><stop offset="0" stop-color="#f59900"/><stop offset="1" stop-color="#ca8608"/></linearGradient><path fill="none" stroke="url(#id-1048n)" stroke-width="2" stroke-linejoin="round" stroke-miterlimit="10" d="M56.188 22.808h17.96"/><linearGradient id="id-1049o" gradientUnits="userSpaceOnUse" x1="22.589" y1="29.26" x2="-.426" y2="52.276"><stop offset="0" stop-color="#f59900"/><stop offset="1" stop-color="#ca8608"/></linearGradient><path fill="none" stroke="url(#id-1049o)" stroke-width="2" stroke-linejoin="round" stroke-miterlimit="10" d="M15.137 58.728H7.44v-35.92h7.697"/><linearGradient id="id-1050p" gradientUnits="userSpaceOnUse" x1="94.842" y1="29.26" x2="71.827" y2="52.276"><stop offset="0" stop-color="#f59900"/><stop offset="1" stop-color="#ca8608"/></linearGradient><path fill="none" stroke="url(#id-1050p)" stroke-width="2" stroke-linejoin="round" stroke-miterlimit="10" d="M79.28 22.808h7.696v35.92H79.28"/><linearGradient id="id-1051q" gradientUnits="userSpaceOnUse" x1="21.514" y1="-.452" x2="13.892" y2="7.169"><stop offset="0" stop-color="#f59900"/><stop offset="1" stop-color="#ca8608"/></linearGradient><path fill="none" stroke="url(#id-1051q)" stroke-width="2" stroke-linejoin="round" stroke-miterlimit="10" d="M12.572 4.849V2.283h10.262v2.566"/><linearGradient id="id-1052r" gradientUnits="userSpaceOnUse" x1="80.524" y1="-.452" x2="72.903" y2="7.169"><stop offset="0" stop-color="#f59900"/><stop offset="1" stop-color="#ca8608"/></linearGradient><path fill="none" stroke="url(#id-1052r)" stroke-width="2" stroke-linejoin="round" stroke-miterlimit="10" d="M71.582 4.849V2.283h10.263v2.566"/><linearGradient id="id-1053s" gradientUnits="userSpaceOnUse" x1="45.784" y1="29.471" x2="43.501" y2="31.754"><stop offset="0" stop-color="#f59900"/><stop offset="1" stop-color="#ca8608"/></linearGradient><path fill="none" stroke="url(#id-1053s)" stroke-width="2" stroke-linejoin="round" stroke-miterlimit="10" d="M43.36 30.612h2.565"/><linearGradient id="id-1054t" gradientUnits="userSpaceOnUse" x1="50.915" y1="29.471" x2="48.633" y2="31.754"><stop offset="0" stop-color="#f59900"/><stop offset="1" stop-color="#ca8608"/></linearGradient><path fill="none" stroke="url(#id-1054t)" stroke-width="2" stroke-linejoin="round" stroke-miterlimit="10" d="M48.491 30.612h2.566"/><linearGradient id="id-1055u" gradientUnits="userSpaceOnUse" x1="45.784" y1="14.077" x2="43.501" y2="16.36"><stop offset="0" stop-color="#f59900"/><stop offset="1" stop-color="#ca8608"/></linearGradient><path fill="none" stroke="url(#id-1055u)" stroke-width="2" stroke-linejoin="round" stroke-miterlimit="10" d="M43.36 15.218h2.565"/><linearGradient id="id-1056v" gradientUnits="userSpaceOnUse" x1="50.915" y1="14.077" x2="48.633" y2="16.36"><stop offset="0" stop-color="#f59900"/><stop offset="1" stop-color="#ca8608"/></linearGradient><path fill="none" stroke="url(#id-1056v)" stroke-width="2" stroke-linejoin="round" stroke-miterlimit="10" d="M48.491 15.218h2.566"/></g></g><linearGradient id="id-1057w" gradientUnits="userSpaceOnUse" x1="53.059" y1="32.371" x2="14.753" y2="70.678"><stop offset="0" stop-color="#f59900"/><stop offset="1" stop-color="#ca8608"/></linearGradient><path fill="none" stroke="url(#id-1057w)" stroke-miterlimit="10" d="M32.19 82.485l15.025-54.087L.253 56"/><path fill="none" d="M35.42 66.104L45.933 28.26 35.242-10.225H-7.946v75.688z"/></svg>