<svg xmlns="http://www.w3.org/2000/svg" xmlns:xlink="http://www.w3.org/1999/xlink" viewBox="0 0 87.837 82.619"><defs><path id="id-184a" d="M34.549 66.104l10.058-35.937L-8.06 41.501l1.243 23.962z"/></defs><clipPath id="id-185b"><use xlink:href="#id-184a" overflow="visible"/></clipPath><g clip-path="url(#id-185b)"><defs><path id="id-186c" d="M-1.686-6.697h48.748v69.273H-1.686z"/></defs><clipPath id="id-187d"><use xlink:href="#id-186c" overflow="visible"/></clipPath><g clip-path="url(#id-187d)"><linearGradient id="id-188e" gradientUnits="userSpaceOnUse" x1="59.107" y1="46.682" x2="35.016" y2="70.773"><stop offset="0" stop-color="#f59900"/><stop offset="1" stop-color="#ca8608"/></linearGradient><path fill="none" stroke="url(#id-188e)" stroke-width="2" stroke-linejoin="round" stroke-miterlimit="10" d="M70.153 58.728H23.971"/><linearGradient id="id-189f" gradientUnits="userSpaceOnUse" x1="71.077" y1="-12.318" x2="23.046" y2="35.712"><stop offset="0" stop-color="#f59900"/><stop offset="1" stop-color="#ca8608"/></linearGradient><path fill="none" stroke="url(#id-189f)" stroke-width="2" stroke-linejoin="round" stroke-miterlimit="10" d="M86.83 18.96V4.849H66.304L63.74 7.414H30.385L27.819 4.85H7.294v14.11"/><linearGradient id="id-190g" gradientUnits="userSpaceOnUse" x1="53.94" y1="-1.544" x2="40.183" y2="12.213"><stop offset="0" stop-color="#f59900"/><stop offset="1" stop-color="#ca8608"/></linearGradient><path fill="none" stroke="url(#id-190g)" stroke-width="2" stroke-linejoin="round" stroke-miterlimit="10" d="M53.476 1a3.85 3.85 0 0 1 3.848 3.849v2.565H36.8V4.85A3.85 3.85 0 0 1 40.648 1h12.828z"/><linearGradient id="id-191h" gradientUnits="userSpaceOnUse" x1="33.016" y1="16.328" x2="2.097" y2="47.248"><stop offset="0" stop-color="#f59900"/><stop offset="1" stop-color="#ca8608"/></linearGradient><path fill="none" stroke="url(#id-191h)" stroke-width="2" stroke-linejoin="round" stroke-miterlimit="10" d="M14.991 4.849h5.131v53.879h-5.131z"/><linearGradient id="id-192i" gradientUnits="userSpaceOnUse" x1="92.027" y1="16.328" x2="61.107" y2="47.248"><stop offset="0" stop-color="#f59900"/><stop offset="1" stop-color="#ca8608"/></linearGradient><path fill="none" stroke="url(#id-192i)" stroke-width="2" stroke-linejoin="round" stroke-miterlimit="10" d="M74.001 4.849h5.131v53.879h-5.131z"/><linearGradient id="id-193j" gradientUnits="userSpaceOnUse" x1="52.9" y1="17.077" x2="41.223" y2="28.754"><stop offset="0" stop-color="#f59900"/><stop offset="1" stop-color="#ca8608"/></linearGradient><path fill="none" stroke="url(#id-193j)" stroke-width="2" stroke-linejoin="round" stroke-miterlimit="10" d="M41.93 17.784h10.263v10.263H41.93z"/><linearGradient id="id-194k" gradientUnits="userSpaceOnUse" x1="34.092" y1="17.818" x2="24.112" y2="27.798"><stop offset="0" stop-color="#f59900"/><stop offset="1" stop-color="#ca8608"/></linearGradient><path fill="none" stroke="url(#id-194k)" stroke-width="2" stroke-linejoin="round" stroke-miterlimit="10" d="M38.082 22.808h-17.96"/><linearGradient id="id-195l" gradientUnits="userSpaceOnUse" x1="70.011" y1="17.818" x2="60.031" y2="27.798"><stop offset="0" stop-color="#f59900"/><stop offset="1" stop-color="#ca8608"/></linearGradient><path fill="none" stroke="url(#id-195l)" stroke-width="2" stroke-linejoin="round" stroke-miterlimit="10" d="M56.042 22.808h17.959"/><linearGradient id="id-196m" gradientUnits="userSpaceOnUse" x1="22.443" y1="29.26" x2="-.572" y2="52.276"><stop offset="0" stop-color="#f59900"/><stop offset="1" stop-color="#ca8608"/></linearGradient><path fill="none" stroke="url(#id-196m)" stroke-width="2" stroke-linejoin="round" stroke-miterlimit="10" d="M14.99 58.728H7.295v-35.92h7.697"/><linearGradient id="id-197n" gradientUnits="userSpaceOnUse" x1="94.696" y1="29.26" x2="71.681" y2="52.276"><stop offset="0" stop-color="#f59900"/><stop offset="1" stop-color="#ca8608"/></linearGradient><path fill="none" stroke="url(#id-197n)" stroke-width="2" stroke-linejoin="round" stroke-miterlimit="10" d="M79.133 22.808h7.697v35.92h-7.697"/><linearGradient id="id-198o" gradientUnits="userSpaceOnUse" x1="21.367" y1="-.452" x2="13.746" y2="7.169"><stop offset="0" stop-color="#f59900"/><stop offset="1" stop-color="#ca8608"/></linearGradient><path fill="none" stroke="url(#id-198o)" stroke-width="2" stroke-linejoin="round" stroke-miterlimit="10" d="M12.425 4.849V2.283h10.263v2.566"/><linearGradient id="id-199p" gradientUnits="userSpaceOnUse" x1="80.378" y1="-.452" x2="72.756" y2="7.169"><stop offset="0" stop-color="#f59900"/><stop offset="1" stop-color="#ca8608"/></linearGradient><path fill="none" stroke="url(#id-199p)" stroke-width="2" stroke-linejoin="round" stroke-miterlimit="10" d="M71.436 4.849V2.283h10.262v2.566"/><linearGradient id="id-200q" gradientUnits="userSpaceOnUse" x1="45.637" y1="29.471" x2="43.355" y2="31.754"><stop offset="0" stop-color="#f59900"/><stop offset="1" stop-color="#ca8608"/></linearGradient><path fill="none" stroke="url(#id-200q)" stroke-width="2" stroke-linejoin="round" stroke-miterlimit="10" d="M43.213 30.612h2.566"/><linearGradient id="id-201r" gradientUnits="userSpaceOnUse" x1="50.769" y1="29.471" x2="48.486" y2="31.754"><stop offset="0" stop-color="#f59900"/><stop offset="1" stop-color="#ca8608"/></linearGradient><path fill="none" stroke="url(#id-201r)" stroke-width="2" stroke-linejoin="round" stroke-miterlimit="10" d="M48.345 30.612h2.565"/><linearGradient id="id-202s" gradientUnits="userSpaceOnUse" x1="45.637" y1="14.077" x2="43.355" y2="16.36"><stop offset="0" stop-color="#f59900"/><stop offset="1" stop-color="#ca8608"/></linearGradient><path fill="none" stroke="url(#id-202s)" stroke-width="2" stroke-linejoin="round" stroke-miterlimit="10" d="M43.213 15.218h2.566"/><linearGradient id="id-203t" gradientUnits="userSpaceOnUse" x1="50.769" y1="14.077" x2="48.486" y2="16.36"><stop offset="0" stop-color="#f59900"/><stop offset="1" stop-color="#ca8608"/></linearGradient><path fill="none" stroke="url(#id-203t)" stroke-width="2" stroke-linejoin="round" stroke-miterlimit="10" d="M48.345 15.218h2.565"/></g></g><path fill="none" d="M35.273 66.104L45.786 28.26l-10.69-38.485h-43.19v75.688z"/><defs><path id="id-204u" d="M-8.06-10.492l5 49.993L47.07 28.26 36.63 65.836h63.677v-76.33z"/></defs><clipPath id="id-205v"><use xlink:href="#id-204u" overflow="visible"/></clipPath><g clip-path="url(#id-205v)" fill="none" stroke="#FCCE8E" stroke-width="2" stroke-linejoin="round" stroke-miterlimit="10"><path d="M70.16 58.728H23.978M86.837 18.96V4.849H66.31l-2.565 2.565H30.392L27.826 4.85H7.301v14.11"/><path d="M53.483 1a3.85 3.85 0 0 1 3.849 3.849v2.565H36.806V4.85A3.85 3.85 0 0 1 40.655 1h12.828zM14.998 4.849h5.131v53.879h-5.131zm59.011 0h5.131v53.879h-5.131zM41.938 17.784h10.263v10.263H41.938zm-3.849 5.024h-17.96m35.92 0h17.96"/><path d="M14.998 58.728H7.301v-35.92h7.697m64.142 0h7.697v35.92H79.14M12.432 4.849V2.283h10.263v2.566m48.748 0V2.283h10.263v2.566M43.22 30.612h2.566m2.566 0h2.565M43.22 15.218h2.566m2.566 0h2.565"/></g><linearGradient id="id-206w" gradientUnits="userSpaceOnUse" x1="48.351" y1="28.311" x2="12.936" y2="63.726"><stop offset="0" stop-color="#f59900"/><stop offset="1" stop-color="#ca8608"/></linearGradient><path fill="none" stroke="url(#id-206w)" stroke-miterlimit="10" d="M32.044 82.485l15.025-54.087L.107 38.668"/></svg>