<svg xmlns="http://www.w3.org/2000/svg" xmlns:xlink="http://www.w3.org/1999/xlink" viewBox="0 0 87.945 82.618"><defs><path id="id-228a" d="M35.382 66.103l10.333-36.595-50-24-1.699-15.733v75.687z"/></defs><clipPath id="id-229b"><use xlink:href="#id-228a" overflow="visible"/></clipPath><g clip-path="url(#id-229b)"><defs><path id="id-230c" d="M-1.606-6.697h48.747v69.272H-1.606z"/></defs><clipPath id="id-231d"><use xlink:href="#id-230c" overflow="visible"/></clipPath><g clip-path="url(#id-231d)"><linearGradient id="id-232e" gradientUnits="userSpaceOnUse" x1="54.019" y1="-1.544" x2="40.263" y2="12.213"><stop offset="0" stop-color="#f59900"/><stop offset="1" stop-color="#ca8608"/></linearGradient><path fill="none" stroke="url(#id-232e)" stroke-width="2" stroke-linejoin="round" stroke-miterlimit="10" d="M53.555 1a3.85 3.85 0 0 1 3.849 3.848v2.566H36.879V4.848A3.85 3.85 0 0 1 40.727 1h12.828z"/><linearGradient id="id-233f" gradientUnits="userSpaceOnUse" x1="21.447" y1="-.452" x2="13.826" y2="7.169"><stop offset="0" stop-color="#f59900"/><stop offset="1" stop-color="#ca8608"/></linearGradient><path fill="none" stroke="url(#id-233f)" stroke-width="2" stroke-linejoin="round" stroke-miterlimit="10" d="M12.505 4.848V2.283h10.263v2.565"/><linearGradient id="id-234g" gradientUnits="userSpaceOnUse" x1="80.457" y1="-.452" x2="72.835" y2="7.169"><stop offset="0" stop-color="#f59900"/><stop offset="1" stop-color="#ca8608"/></linearGradient><path fill="none" stroke="url(#id-234g)" stroke-width="2" stroke-linejoin="round" stroke-miterlimit="10" d="M71.515 4.848V2.283h10.262v2.565"/><linearGradient id="id-235h" gradientUnits="userSpaceOnUse" x1="70.091" y1="17.818" x2="60.111" y2="27.798"><stop offset="0" stop-color="#f59900"/><stop offset="1" stop-color="#ca8608"/></linearGradient><path fill="none" stroke="url(#id-235h)" stroke-width="2" stroke-linejoin="round" stroke-miterlimit="10" d="M56.121 22.808H74.08"/><linearGradient id="id-236i" gradientUnits="userSpaceOnUse" x1="33.096" y1="16.328" x2="2.177" y2="47.247"><stop offset="0" stop-color="#f59900"/><stop offset="1" stop-color="#ca8608"/></linearGradient><path fill="none" stroke="url(#id-236i)" stroke-width="2" stroke-linejoin="round" stroke-miterlimit="10" d="M15.071 4.848h5.131v53.879h-5.131z"/><linearGradient id="id-237j" gradientUnits="userSpaceOnUse" x1="59.187" y1="46.682" x2="35.096" y2="70.772"><stop offset="0" stop-color="#f59900"/><stop offset="1" stop-color="#ca8608"/></linearGradient><path fill="none" stroke="url(#id-237j)" stroke-width="2" stroke-linejoin="round" stroke-miterlimit="10" d="M70.232 58.727H24.05"/><linearGradient id="id-238k" gradientUnits="userSpaceOnUse" x1="71.156" y1="-12.318" x2="23.126" y2="35.712"><stop offset="0" stop-color="#f59900"/><stop offset="1" stop-color="#ca8608"/></linearGradient><path fill="none" stroke="url(#id-238k)" stroke-width="2" stroke-linejoin="round" stroke-miterlimit="10" d="M86.909 18.96V4.848H66.383l-2.565 2.566H30.464L27.9 4.848H7.374V18.96"/><linearGradient id="id-239l" gradientUnits="userSpaceOnUse" x1="92.106" y1="16.328" x2="61.186" y2="47.247"><stop offset="0" stop-color="#f59900"/><stop offset="1" stop-color="#ca8608"/></linearGradient><path fill="none" stroke="url(#id-239l)" stroke-width="2" stroke-linejoin="round" stroke-miterlimit="10" d="M74.08 4.848h5.131v53.879H74.08z"/><linearGradient id="id-240m" gradientUnits="userSpaceOnUse" x1="52.98" y1="17.076" x2="41.303" y2="28.753"><stop offset="0" stop-color="#f59900"/><stop offset="1" stop-color="#ca8608"/></linearGradient><path fill="none" stroke="url(#id-240m)" stroke-width="2" stroke-linejoin="round" stroke-miterlimit="10" d="M42.01 17.784h10.263v10.263H42.01z"/><linearGradient id="id-241n" gradientUnits="userSpaceOnUse" x1="34.672" y1="18.318" x2="25.692" y2="27.298"><stop offset="0" stop-color="#f59900"/><stop offset="1" stop-color="#ca8608"/></linearGradient><path fill="none" stroke="url(#id-241n)" stroke-width="2" stroke-linejoin="round" stroke-miterlimit="10" d="M38.161 22.808H22.202"/><linearGradient id="id-242o" gradientUnits="userSpaceOnUse" x1="21.523" y1="30.26" x2="-.493" y2="52.275"><stop offset="0" stop-color="#f59900"/><stop offset="1" stop-color="#ca8608"/></linearGradient><path fill="none" stroke="url(#id-242o)" stroke-width="2" stroke-linejoin="round" stroke-miterlimit="10" d="M15.07 58.727H7.375V22.808h5.697"/><linearGradient id="id-243p" gradientUnits="userSpaceOnUse" x1="94.775" y1="29.26" x2="71.76" y2="52.275"><stop offset="0" stop-color="#f59900"/><stop offset="1" stop-color="#ca8608"/></linearGradient><path fill="none" stroke="url(#id-243p)" stroke-width="2" stroke-linejoin="round" stroke-miterlimit="10" d="M79.212 22.808h7.697v35.919h-7.697"/><linearGradient id="id-244q" gradientUnits="userSpaceOnUse" x1="45.717" y1="29.47" x2="43.434" y2="31.753"><stop offset="0" stop-color="#f59900"/><stop offset="1" stop-color="#ca8608"/></linearGradient><path fill="none" stroke="url(#id-244q)" stroke-width="2" stroke-linejoin="round" stroke-miterlimit="10" d="M43.293 30.612h2.565"/><linearGradient id="id-245r" gradientUnits="userSpaceOnUse" x1="50.848" y1="29.47" x2="48.565" y2="31.753"><stop offset="0" stop-color="#f59900"/><stop offset="1" stop-color="#ca8608"/></linearGradient><path fill="none" stroke="url(#id-245r)" stroke-width="2" stroke-linejoin="round" stroke-miterlimit="10" d="M48.424 30.612h2.566"/><linearGradient id="id-246s" gradientUnits="userSpaceOnUse" x1="45.717" y1="14.077" x2="43.434" y2="16.359"><stop offset="0" stop-color="#f59900"/><stop offset="1" stop-color="#ca8608"/></linearGradient><path fill="none" stroke="url(#id-246s)" stroke-width="2" stroke-linejoin="round" stroke-miterlimit="10" d="M43.293 15.218h2.565"/><linearGradient id="id-247t" gradientUnits="userSpaceOnUse" x1="50.848" y1="14.077" x2="48.565" y2="16.359"><stop offset="0" stop-color="#f59900"/><stop offset="1" stop-color="#ca8608"/></linearGradient><path fill="none" stroke="url(#id-247t)" stroke-width="2" stroke-linejoin="round" stroke-miterlimit="10" d="M48.424 15.218h2.566"/></g></g><path fill="none" d="M35.382 66.103L45.894 28.26 14.715-6.492l-22.699-3.733v75.687z"/><defs><path id="id-248u" d="M-.727-10.492l-2.558 14L47.177 28.26 36.74 65.837h63.675v-76.329z"/></defs><clipPath id="id-249v"><use xlink:href="#id-248u" overflow="visible"/></clipPath><g clip-path="url(#id-249v)" fill="none" stroke="#FCCE8E" stroke-width="2" stroke-linejoin="round" stroke-miterlimit="10"><path d="M70.268 58.727H24.087M86.945 18.96V4.848H66.42l-2.566 2.566H30.501l-2.566-2.566H7.41V18.96"/><path d="M53.591 1a3.85 3.85 0 0 1 3.849 3.848v2.566H36.915V4.848A3.85 3.85 0 0 1 40.763 1h12.828zM15.107 4.848h5.131v53.879h-5.131zm59.01 0h5.131v53.879h-5.131zM42.046 17.784h10.263v10.263H42.046zm-3.848 5.024h-17.96m35.919 0h17.96m-59.01 35.919H7.41V22.808h7.697m64.141 0h7.697v35.919h-7.697M12.541 4.848V2.283h10.263v2.565m48.746 0V2.283h10.263v2.565M43.329 30.612h2.565m2.566 0h2.566m-7.697-15.394h2.565m2.566 0h2.566"/></g><linearGradient id="id-250w" gradientUnits="userSpaceOnUse" x1="40.132" y1="20.488" x2="4.97" y2="55.65"><stop offset="0" stop-color="#f59900"/><stop offset="1" stop-color="#ca8608"/></linearGradient><path fill="none" stroke="url(#id-250w)" stroke-miterlimit="10" d="M32.152 82.484l15.025-54.086L.215 6.008"/></svg>