<svg xmlns="http://www.w3.org/2000/svg" viewBox="0 0 475.107 230.358"><g fill="none" stroke="#E3E3E3" stroke-width=".35" stroke-miterlimit="10"><path d="M25.052 157.335h19.117v16.236H25.052z"/><path d="M44.168 157.335h19.117v16.236H44.168z"/><path d="M63.284 157.335h19.117v16.236H63.284z"/><path d="M82.4 157.335h19.117v16.236H82.4z"/><path d="M101.516 157.335h19.117v16.236h-19.117z"/><path d="M120.631 157.335h19.117v16.236h-19.117z"/><path d="M139.747 157.335h19.117v16.236h-19.117z"/><path d="M158.863 157.335h19.117v16.236h-19.117z"/><path d="M177.979 157.335h19.117v16.236h-19.117z"/><path d="M197.095 157.335h19.117v16.236h-19.117z"/><path d="M216.211 157.335h19.117v16.236h-19.117z"/><path d="M235.327 157.335h19.117v16.236h-19.117z"/><path d="M254.442 157.335h19.117v16.236h-19.117z"/><path d="M273.558 157.335h19.117v16.236h-19.117z"/><path d="M292.674 157.335h19.117v16.236h-19.117z"/><path d="M311.79 157.335h19.117v16.236H311.79z"/><path d="M330.906 157.335h19.117v16.236h-19.117z"/><path d="M350.022 157.335h19.117v16.236h-19.117z"/><path d="M369.138 157.335h19.117v16.236h-19.117z"/><path d="M388.254 157.335h19.117v16.236h-19.117z"/><path d="M407.37 157.335h19.117v16.236H407.37z"/><path d="M426.485 157.335h10.922v16.236h-10.922zM25.052 141.096h19.117v16.236H25.052z"/><path d="M44.168 141.096h19.117v16.236H44.168z"/><path d="M63.284 141.096h19.117v16.236H63.284z"/><path d="M82.4 141.096h19.117v16.236H82.4z"/><path d="M101.516 141.096h19.117v16.236h-19.117z"/><path d="M120.631 141.096h19.117v16.236h-19.117z"/><path d="M139.747 141.096h19.117v16.236h-19.117z"/><path d="M158.863 141.096h19.117v16.236h-19.117z"/><path d="M177.979 141.096h19.117v16.236h-19.117z"/><path d="M197.095 141.096h19.117v16.236h-19.117z"/><path d="M216.211 141.096h19.117v16.236h-19.117z"/><path d="M235.327 141.096h19.117v16.236h-19.117z"/><path d="M254.442 141.096h19.117v16.236h-19.117z"/><path d="M273.558 141.096h19.117v16.236h-19.117z"/><path d="M292.674 141.096h19.117v16.236h-19.117z"/><path d="M311.79 141.096h19.117v16.236H311.79z"/><path d="M330.906 141.096h19.117v16.236h-19.117z"/><path d="M350.022 141.096h19.117v16.236h-19.117z"/><path d="M369.138 141.096h19.117v16.236h-19.117z"/><path d="M388.254 141.096h19.117v16.236h-19.117z"/><path d="M407.37 141.096h19.117v16.236H407.37z"/><path d="M426.485 141.096h10.922v16.236h-10.922zM25.052 189.814h19.117v16.236H25.052z"/><path d="M44.168 189.814h19.117v16.236H44.168z"/><path d="M63.284 189.814h19.117v16.236H63.284z"/><path d="M82.4 189.814h19.117v16.236H82.4z"/><path d="M101.516 189.814h19.117v16.236h-19.117z"/><path d="M120.631 189.814h19.117v16.236h-19.117z"/><path d="M139.747 189.814h19.117v16.236h-19.117z"/><path d="M158.863 189.814h19.117v16.236h-19.117z"/><path d="M177.979 189.814h19.117v16.236h-19.117z"/><path d="M197.095 189.814h19.117v16.236h-19.117z"/><path d="M216.211 189.814h19.117v16.236h-19.117z"/><path d="M235.327 189.814h19.117v16.236h-19.117z"/><path d="M254.442 189.814h19.117v16.236h-19.117z"/><path d="M273.558 189.814h19.117v16.236h-19.117z"/><path d="M292.674 189.814h19.117v16.236h-19.117z"/><path d="M311.79 189.814h19.117v16.236H311.79z"/><path d="M330.906 189.814h19.117v16.236h-19.117z"/><path d="M350.022 189.814h19.117v16.236h-19.117z"/><path d="M369.138 189.814h19.117v16.236h-19.117z"/><path d="M388.254 189.814h19.117v16.236h-19.117z"/><path d="M407.37 189.814h19.117v16.236H407.37z"/><path d="M426.485 189.814h10.922v16.236h-10.922zm-401.433-16.24h19.117v16.236H25.052z"/><path d="M44.168 173.574h19.117v16.236H44.168z"/><path d="M63.284 173.574h19.117v16.236H63.284z"/><path d="M82.4 173.574h19.117v16.236H82.4z"/><path d="M101.516 173.574h19.117v16.236h-19.117z"/><path d="M120.631 173.574h19.117v16.236h-19.117z"/><path d="M139.747 173.574h19.117v16.236h-19.117z"/><path d="M158.863 173.574h19.117v16.236h-19.117z"/><path d="M177.979 173.574h19.117v16.236h-19.117z"/><path d="M197.095 173.574h19.117v16.236h-19.117z"/><path d="M216.211 173.574h19.117v16.236h-19.117z"/><path d="M235.327 173.574h19.117v16.236h-19.117z"/><path d="M254.442 173.574h19.117v16.236h-19.117z"/><path d="M273.558 173.574h19.117v16.236h-19.117z"/><path d="M292.674 173.574h19.117v16.236h-19.117z"/><path d="M311.79 173.574h19.117v16.236H311.79z"/><path d="M330.906 173.574h19.117v16.236h-19.117z"/><path d="M350.022 173.574h19.117v16.236h-19.117z"/><path d="M369.138 173.574h19.117v16.236h-19.117z"/><path d="M388.254 173.574h19.117v16.236h-19.117z"/><path d="M407.37 173.574h19.117v16.236H407.37z"/><path d="M426.485 173.574h10.922v16.236h-10.922zM25.052 92.378h19.117v16.236H25.052z"/><path d="M44.168 92.378h19.117v16.236H44.168z"/><path d="M63.284 92.378h19.117v16.236H63.284z"/><path d="M82.4 92.378h19.117v16.236H82.4z"/><path d="M101.516 92.378h19.117v16.236h-19.117z"/><path d="M120.631 92.378h19.117v16.236h-19.117z"/><path d="M139.747 92.378h19.117v16.236h-19.117z"/><path d="M158.863 92.378h19.117v16.236h-19.117z"/><path d="M177.979 92.378h19.117v16.236h-19.117z"/><path d="M197.095 92.378h19.117v16.236h-19.117z"/><path d="M216.211 92.378h19.117v16.236h-19.117z"/><path d="M235.327 92.378h19.117v16.236h-19.117z"/><path d="M254.442 92.378h19.117v16.236h-19.117z"/><path d="M273.558 92.378h19.117v16.236h-19.117z"/><path d="M292.674 92.378h19.117v16.236h-19.117z"/><path d="M311.79 92.378h19.117v16.236H311.79z"/><path d="M330.906 92.378h19.117v16.236h-19.117z"/><path d="M350.022 92.378h19.117v16.236h-19.117z"/><path d="M369.138 92.378h19.117v16.236h-19.117z"/><path d="M388.254 92.378h19.117v16.236h-19.117z"/><path d="M407.37 92.378h19.117v16.236H407.37z"/><path d="M426.485 92.378h10.922v16.236h-10.922zM25.052 76.138h19.117v16.236H25.052z"/><path d="M44.168 76.138h19.117v16.236H44.168z"/><path d="M63.284 76.138h19.117v16.236H63.284z"/><path d="M82.4 76.138h19.117v16.236H82.4z"/><path d="M101.516 76.138h19.117v16.236h-19.117z"/><path d="M120.631 76.138h19.117v16.236h-19.117z"/><path d="M139.747 76.138h19.117v16.236h-19.117z"/><path d="M158.863 76.138h19.117v16.236h-19.117z"/><path d="M177.979 76.138h19.117v16.236h-19.117z"/><path d="M197.095 76.138h19.117v16.236h-19.117z"/><path d="M216.211 76.138h19.117v16.236h-19.117z"/><path d="M235.327 76.138h19.117v16.236h-19.117z"/><path d="M254.442 76.138h19.117v16.236h-19.117z"/><path d="M273.558 76.138h19.117v16.236h-19.117z"/><path d="M292.674 76.138h19.117v16.236h-19.117z"/><path d="M311.79 76.138h19.117v16.236H311.79z"/><path d="M330.906 76.138h19.117v16.236h-19.117z"/><path d="M350.022 76.138h19.117v16.236h-19.117z"/><path d="M369.138 76.138h19.117v16.236h-19.117z"/><path d="M388.254 76.138h19.117v16.236h-19.117z"/><path d="M407.37 76.138h19.117v16.236H407.37z"/><path d="M426.485 76.138h10.922v16.236h-10.922zM25.052 59.903h19.117v16.236H25.052z"/><path d="M44.168 59.903h19.117v16.236H44.168z"/><path d="M63.284 59.903h19.117v16.236H63.284z"/><path d="M82.4 59.903h19.117v16.236H82.4z"/><path d="M101.516 59.903h19.117v16.236h-19.117z"/><path d="M120.631 59.903h19.117v16.236h-19.117z"/><path d="M139.747 59.903h19.117v16.236h-19.117z"/><path d="M158.863 59.903h19.117v16.236h-19.117z"/><path d="M177.979 59.903h19.117v16.236h-19.117z"/><path d="M197.095 59.903h19.117v16.236h-19.117z"/><path d="M216.211 59.903h19.117v16.236h-19.117z"/><path d="M235.327 59.903h19.117v16.236h-19.117z"/><path d="M254.442 59.903h19.117v16.236h-19.117z"/><path d="M273.558 59.903h19.117v16.236h-19.117z"/><path d="M292.674 59.903h19.117v16.236h-19.117z"/><path d="M311.79 59.903h19.117v16.236H311.79z"/><path d="M330.906 59.903h19.117v16.236h-19.117z"/><path d="M350.022 59.903h19.117v16.236h-19.117z"/><path d="M369.138 59.903h19.117v16.236h-19.117z"/><path d="M388.254 59.903h19.117v16.236h-19.117z"/><path d="M407.37 59.903h19.117v16.236H407.37z"/><path d="M426.485 59.903h10.922v16.236h-10.922zM25.052 43.663h19.117v16.236H25.052z"/><path d="M44.168 43.663h19.117v16.236H44.168z"/><path d="M63.284 43.663h19.117v16.236H63.284z"/><path d="M82.4 43.663h19.117v16.236H82.4z"/><path d="M101.516 43.663h19.117v16.236h-19.117z"/><path d="M120.631 43.663h19.117v16.236h-19.117z"/><path d="M139.747 43.663h19.117v16.236h-19.117z"/><path d="M158.863 43.663h19.117v16.236h-19.117z"/><path d="M177.979 43.663h19.117v16.236h-19.117z"/><path d="M197.095 43.663h19.117v16.236h-19.117z"/><path d="M216.211 43.663h19.117v16.236h-19.117z"/><path d="M235.327 43.663h19.117v16.236h-19.117z"/><path d="M254.442 43.663h19.117v16.236h-19.117z"/><path d="M273.558 43.663h19.117v16.236h-19.117z"/><path d="M292.674 43.663h19.117v16.236h-19.117z"/><path d="M311.79 43.663h19.117v16.236H311.79z"/><path d="M330.906 43.663h19.117v16.236h-19.117z"/><path d="M350.022 43.663h19.117v16.236h-19.117z"/><path d="M369.138 43.663h19.117v16.236h-19.117z"/><path d="M388.254 43.663h19.117v16.236h-19.117z"/><path d="M407.37 43.663h19.117v16.236H407.37z"/><path d="M426.485 43.663h10.922v16.236h-10.922zM25.052 124.856h19.117v16.236H25.052z"/><path d="M44.168 124.856h19.117v16.236H44.168z"/><path d="M63.284 124.856h19.117v16.236H63.284z"/><path d="M82.4 124.856h19.117v16.236H82.4z"/><path d="M101.516 124.856h19.117v16.236h-19.117z"/><path d="M120.631 124.856h19.117v16.236h-19.117z"/><path d="M139.747 124.856h19.117v16.236h-19.117z"/><path d="M158.863 124.856h19.117v16.236h-19.117z"/><path d="M177.979 124.856h19.117v16.236h-19.117z"/><path d="M197.095 124.856h19.117v16.236h-19.117z"/><path d="M216.211 124.856h19.117v16.236h-19.117z"/><path d="M235.327 124.856h19.117v16.236h-19.117z"/><path d="M254.442 124.856h19.117v16.236h-19.117z"/><path d="M273.558 124.856h19.117v16.236h-19.117z"/><path d="M292.674 124.856h19.117v16.236h-19.117z"/><path d="M311.79 124.856h19.117v16.236H311.79z"/><path d="M330.906 124.856h19.117v16.236h-19.117z"/><path d="M350.022 124.856h19.117v16.236h-19.117z"/><path d="M369.138 124.856h19.117v16.236h-19.117z"/><path d="M388.254 124.856h19.117v16.236h-19.117z"/><path d="M407.37 124.856h19.117v16.236H407.37z"/><path d="M426.485 124.856h10.922v16.236h-10.922zM25.052 108.617h19.117v16.236H25.052z"/><path d="M44.168 108.617h19.117v16.236H44.168z"/><path d="M63.284 108.617h19.117v16.236H63.284z"/><path d="M82.4 108.617h19.117v16.236H82.4z"/><path d="M101.516 108.617h19.117v16.236h-19.117z"/><path d="M120.631 108.617h19.117v16.236h-19.117z"/><path d="M139.747 108.617h19.117v16.236h-19.117z"/><path d="M158.863 108.617h19.117v16.236h-19.117z"/><path d="M177.979 108.617h19.117v16.236h-19.117z"/><path d="M197.095 108.617h19.117v16.236h-19.117z"/><path d="M216.211 108.617h19.117v16.236h-19.117z"/><path d="M235.327 108.617h19.117v16.236h-19.117z"/><path d="M254.442 108.617h19.117v16.236h-19.117z"/><path d="M273.558 108.617h19.117v16.236h-19.117z"/><path d="M292.674 108.617h19.117v16.236h-19.117z"/><path d="M311.79 108.617h19.117v16.236H311.79z"/><path d="M330.906 108.617h19.117v16.236h-19.117z"/><path d="M350.022 108.617h19.117v16.236h-19.117z"/><path d="M369.138 108.617h19.117v16.236h-19.117z"/><path d="M388.254 108.617h19.117v16.236h-19.117z"/><path d="M407.37 108.617h19.117v16.236H407.37z"/><path d="M426.485 108.617h10.922v16.236h-10.922z"/></g><path fill="none" stroke="#E3E3E3" stroke-width=".35" stroke-miterlimit="10" d="M63.284 206.028v2.468m-19.116-2.468v2.468m-19.116 0v-2.468m57.348 0v2.468m19.116-2.468v2.468m19.115-2.468v2.468m19.116-2.468v2.468m19.116-2.468v2.468m19.116-2.468v2.468m19.116-2.468v2.468m19.116-2.468v2.468m19.116-2.468v2.468m19.116-2.468v2.468m19.115-2.468v2.468m19.116-2.468v2.468m19.116-2.468v2.468m19.116-2.468v2.468m19.116-2.468v2.468m19.116-2.468v2.468m19.116-2.468v2.468m19.116-2.468v2.468m19.115-2.468v2.468m10.922-2.468v2.468m0-164.833h4.938m-4.938 32.481h2.622m-2.622 32.482h2.622m-2.622 32.481h3.022m-3.022 32.481h3.022m-3.022 32.481h5.244"/><path fill="#F59900" d="M450.127 205.786c0 .643-.163 1.152-.49 1.527s-.767.562-1.319.562c-.55 0-.989-.187-1.318-.562s-.494-.884-.494-1.527v-1.672c0-.638.163-1.146.49-1.524s.765-.566 1.315-.566c.551 0 .993.188 1.322.566s.494.886.494 1.524v1.672zm-.77-1.832c0-.41-.09-.732-.273-.97s-.44-.355-.773-.355c-.332 0-.586.119-.766.356s-.27.56-.27.969v1.988c0 .41.092.733.276.973s.44.359.767.359c.333 0 .59-.12.77-.357s.27-.564.27-.975v-1.988z"/><path fill="#535454" d="M26.746 214.084c0 .297-.083.558-.25.784s-.388.393-.664.506c.323.112.582.29.777.535s.293.527.293.847c0 .524-.17.93-.51 1.215s-.772.43-1.298.43c-.558 0-1.013-.144-1.365-.43s-.53-.691-.53-1.215c0-.32.1-.602.299-.847s.468-.425.807-.54c-.292-.109-.523-.276-.692-.501s-.254-.487-.254-.784c0-.497.16-.877.479-1.14s.735-.395 1.248-.395c.484 0 .882.132 1.193.397s.467.643.467 1.138zm-.61 2.657a1.032 1.032 0 0 0-1.05-1.067c-.323 0-.59.1-.8.301s-.317.456-.317.766c0 .32.104.577.314.77s.48.288.81.288c.298 0 .546-.096.745-.29s.299-.45.299-.768zm-.16-2.645c0-.273-.084-.499-.255-.676s-.382-.265-.635-.265c-.278 0-.508.085-.688.256s-.27.4-.27.685c0 .29.092.524.274.703s.413.27.692.27c.253 0 .463-.09.63-.27s.253-.414.253-.703zm15.569 4.223h-.774v-4.977l-1.238.012v-.594l2.012-.21v5.769zm2.414-2.527l.328-3.16h2.848v.683h-2.2l-.183 1.637c.122-.091.258-.166.406-.225s.318-.089.508-.092c.526-.005.938.16 1.236.494s.448.794.448 1.377c0 .57-.154 1.029-.46 1.375s-.751.52-1.337.52c-.482 0-.883-.132-1.203-.395s-.474-.65-.461-1.16l.007-.023h.696c0 .31.089.55.267.72s.41.256.694.256c.325 0 .578-.114.758-.343s.27-.543.27-.942c0-.362-.092-.655-.272-.879s-.433-.336-.756-.336c-.302 0-.52.046-.657.137s-.235.231-.3.422l-.637-.066zm-7.637 8.171v4.227h-.77v-1.64H34.51l-1 1.64h-.828l1.07-1.754c-.269-.097-.475-.249-.62-.457s-.216-.45-.216-.723c0-.38.144-.69.432-.931s.684-.362 1.19-.362h1.784zm-2.633 1.301c0 .188.064.348.192.48s.32.2.574.2h1.098v-1.383h-1.016c-.278 0-.49.07-.633.209s-.215.304-.215.494zm7.211 2.926h-.77v-1.797h-1.882v1.797h-.77v-4.227h.77v1.829h1.883v-1.829h.77v4.227zm1.13 0v-4.227h1.667c.558 0 .99.097 1.297.291s.461.486.461.873c0 .199-.06.374-.18.53s-.289.272-.507.353c.262.066.467.187.615.365s.22.382.22.612c0 .395-.143.695-.431.898s-.69.305-1.205.305h-1.938zm.769-2.441h.902c.325 0 .571-.048.736-.145s.249-.242.249-.437c0-.2-.083-.352-.25-.454s-.414-.152-.739-.152H42.8v1.188zm0 .59v1.257h1.168c.284 0 .499-.054.644-.162s.22-.264.22-.467c0-.2-.074-.355-.22-.465s-.36-.164-.644-.164h-1.168zm6.371 1.851c-.026-.128-.046-.24-.06-.338s-.023-.196-.026-.295c-.144.203-.33.373-.56.51s-.48.205-.745.205c-.44 0-.775-.112-1.006-.338s-.345-.536-.345-.932c0-.403.163-.72.49-.947s.77-.342 1.33-.342h.836v-.418c0-.247-.075-.443-.227-.587s-.364-.217-.64-.217c-.25 0-.452.062-.606.187s-.23.275-.23.45l-.73.007-.008-.023c-.019-.308.126-.59.431-.844s.701-.383 1.186-.383c.48 0 .864.122 1.156.365s.438.595.438 1.053v2.035c0 .152.007.297.023.438s.044.278.086.414h-.793zm-1.277-.563c.278 0 .53-.07.753-.214s.37-.308.438-.493v-.687h-.863c-.31 0-.558.078-.744.234s-.28.34-.28.551c0 .188.059.336.176.445s.29.164.52.164zm6.679-1.39c0 .61-.145 1.1-.437 1.474s-.695.561-1.207.561c-.261 0-.49-.044-.686-.13s-.364-.219-.502-.393v2.066h-.77v-5.852h.59l.122.547c.137-.203.31-.358.515-.465s.446-.16.719-.16c.523 0 .93.208 1.22.623s.436.964.436 1.647v.082zm-.77-.082c0-.48-.094-.873-.282-1.182s-.467-.463-.834-.463c-.222 0-.41.05-.567.15s-.282.238-.379.413v2.043c.097.175.223.31.38.408s.347.146.573.146c.365 0 .641-.133.828-.4s.282-.611.282-1.033v-.082zm2.524-.582h1.051c.5 0 .889.12 1.166.36s.416.55.416.933c0 .385-.14.702-.42.95s-.667.374-1.162.374h-1.82v-4.227h.77v1.61zm0 .601v1.414h1.051c.276 0 .48-.066.611-.199s.198-.298.198-.496c0-.192-.067-.36-.2-.504s-.336-.215-.609-.215h-1.05zm9.086 2.016h-3.531v-.527l1.785-2.13c.317-.385.533-.692.647-.92s.17-.457.17-.689c0-.262-.078-.478-.231-.646s-.366-.252-.637-.252c-.336 0-.592.102-.767.308s-.264.462-.264.77h-.742l-.008-.023c-.013-.464.142-.857.465-1.178s.762-.483 1.316-.483c.508 0 .907.141 1.2.422s.437.645.437 1.09c0 .3-.083.593-.248.879s-.417.646-.756 1.078l-1.434 1.68.008.02h2.59v.6zm4.449-2.008c0 .644-.163 1.152-.49 1.527s-.767.563-1.318.563c-.55 0-.99-.188-1.319-.563s-.494-.883-.494-1.527v-1.672c0-.637.163-1.145.49-1.523s.765-.567 1.315-.567c.552 0 .993.189 1.322.567s.494.886.494 1.523v1.672zm-.77-1.832c0-.41-.09-.731-.273-.969s-.44-.355-.773-.355c-.331 0-.586.118-.766.355s-.27.56-.27.97v1.987c0 .41.093.734.276.973s.44.36.768.36c.333 0 .59-.12.77-.358s.269-.563.269-.975v-1.988zm3.985 3.84h-.773v-4.977l-1.239.012v-.594l2.012-.21v5.769zm5.676-4.234c0 .296-.083.557-.25.783s-.388.393-.664.506c.323.112.582.29.777.535s.293.527.293.847c0 .524-.17.93-.51 1.215s-.772.43-1.298.43c-.558 0-1.013-.144-1.366-.43s-.529-.691-.529-1.215c0-.32.1-.602.299-.847s.468-.425.807-.54c-.292-.109-.523-.276-.692-.501s-.254-.487-.254-.783c0-.498.16-.878.479-1.141s.735-.395 1.248-.395c.484 0 .882.132 1.193.397s.467.643.467 1.139zm-.61 2.656a1.032 1.032 0 0 0-1.05-1.067c-.323 0-.59.101-.801.301s-.316.456-.316.766c0 .32.104.577.314.77s.48.288.81.288c.297 0 .546-.096.745-.29s.299-.45.299-.768zm-.16-2.645c0-.273-.085-.499-.255-.675s-.382-.266-.635-.266c-.279 0-.508.085-.688.256s-.27.4-.27.685c0 .29.092.524.274.703s.413.27.692.27c.253 0 .463-.09.63-.27s.252-.414.252-.703zm28.289 2.188c0-.68.146-1.228.436-1.645s.697-.625 1.22-.625c.23 0 .437.036.622.108s.347.176.484.314v-2.21h.77v2.273c.143-.16.313-.28.51-.362s.42-.123.67-.123c.52 0 .926.208 1.216.623s.436.964.436 1.647v.082c0 .61-.146 1.1-.438 1.474s-.694.561-1.207.561c-.253 0-.477-.04-.676-.117s-.368-.193-.511-.344v2.004h-.77v-1.965c-.14.14-.303.246-.486.317s-.393.105-.627.105c-.516 0-.919-.187-1.211-.56s-.438-.866-.438-1.475v-.082zm.77.082c0 .427.088.772.264 1.037s.446.396.81.396c.211 0 .392-.046.541-.14s.276-.226.377-.395v-2.133c-.101-.159-.227-.284-.377-.375s-.327-.136-.533-.136c-.367 0-.64.155-.816.467s-.266.71-.266 1.197v.082zm4.824-.082c0-.482-.094-.88-.283-1.194s-.467-.47-.834-.47c-.222 0-.41.051-.566.154s-.283.243-.38.42v2.05c.097.176.223.311.38.409s.347.146.574.146c.364 0 .64-.132.828-.398s.281-.61.281-1.035v-.082zm3.465 2.117c-.606 0-1.08-.194-1.42-.582s-.51-.898-.51-1.531v-.172c0-.607.175-1.109.526-1.506s.778-.596 1.283-.596c.565 0 .99.176 1.271.528s.424.819.424 1.402v.406h-2.703l-.012.02c0 .425.094.768.282 1.033s.473.396.86.396c.26 0 .488-.037.685-.11s.365-.178.505-.308l.301.5c-.151.146-.35.269-.597.37s-.546.15-.895.15zm-.121-3.781c-.269 0-.49.103-.666.31s-.283.472-.322.795l.008.02h1.906v-.063c0-.307-.075-.561-.227-.761s-.384-.301-.699-.301zm2.562 3.699v-4.227h1.668c.558 0 .99.097 1.297.291s.461.486.461.873c0 .199-.06.374-.18.53s-.288.272-.507.353c.262.066.468.187.615.365s.22.382.22.612c0 .395-.143.695-.43.898s-.69.305-1.206.305h-1.938zm.77-2.441h.902c.326 0 .572-.048.737-.145s.248-.242.248-.437c0-.2-.083-.352-.25-.454s-.413-.152-.739-.152h-.898v1.188zm0 .59v1.257h1.168c.284 0 .499-.054.645-.162s.218-.264.218-.467c0-.2-.073-.355-.218-.465s-.36-.164-.645-.164h-1.168zm7.375-.102c0 .61-.145 1.1-.437 1.474s-.695.561-1.208.561c-.26 0-.489-.044-.685-.13s-.364-.219-.502-.393v2.066h-.77v-5.852h.59l.121.547c.138-.203.31-.358.516-.465s.445-.16.719-.16c.523 0 .93.208 1.22.623s.436.964.436 1.647v.082zm-.77-.082c0-.48-.094-.873-.283-1.182s-.467-.463-.834-.463c-.221 0-.41.05-.566.15s-.282.238-.379.413v2.043c.097.175.223.31.379.408s.348.146.574.146c.364 0 .64-.133.828-.4s.281-.611.281-1.033v-.082zm4.313 2.035c-.026-.128-.046-.24-.06-.338s-.023-.196-.026-.295c-.144.203-.33.373-.56.51s-.479.205-.745.205c-.44 0-.775-.112-1.006-.338s-.345-.536-.345-.932c0-.403.163-.72.49-.947s.77-.342 1.33-.342h.836v-.418c0-.247-.075-.443-.227-.587s-.364-.217-.64-.217c-.25 0-.452.062-.606.187s-.23.275-.23.45l-.73.007-.008-.023c-.019-.308.126-.59.431-.844s.701-.383 1.186-.383c.48 0 .864.122 1.156.365s.438.595.438 1.053v2.035c0 .152.007.297.023.438s.044.278.086.414h-.793zm-1.277-.563c.278 0 .53-.07.754-.214s.37-.308.437-.493v-.687h-.863c-.31 0-.558.078-.744.234s-.28.34-.28.551c0 .188.059.336.176.445s.29.164.52.164zm6.504-3.664v4.227h-.77v-3.617h-1.43v1.195c0 .833-.11 1.445-.332 1.836s-.598.586-1.133.586h-.218l.015-.656.16-.004c.274 0 .464-.134.573-.4s.162-.721.162-1.362v-1.805h2.973zm1.808 1.61h1.05c.5 0 .89.12 1.167.36s.416.55.416.933c0 .385-.14.702-.42.95s-.667.374-1.162.374h-1.82v-4.227h.77v1.61zm0 .601v1.414h1.05c.277 0 .48-.066.612-.199s.198-.298.198-.496c0-.192-.067-.36-.2-.504s-.336-.215-.61-.215h-1.05zm9.086 2.016h-3.531v-.527l1.785-2.13c.317-.385.533-.692.646-.92s.17-.457.17-.689c0-.262-.077-.478-.23-.646s-.366-.252-.637-.252c-.336 0-.592.102-.767.308s-.264.462-.264.77h-.742l-.008-.023c-.013-.464.142-.857.465-1.178s.762-.483 1.316-.483c.508 0 .907.141 1.2.422s.437.645.437 1.09c0 .3-.083.593-.248.879s-.417.646-.756 1.078l-1.434 1.68.008.02h2.59v.6zm4.45-2.008c0 .644-.164 1.152-.49 1.527s-.768.563-1.32.563c-.55 0-.989-.188-1.318-.563s-.494-.883-.494-1.527v-1.672c0-.637.163-1.145.49-1.523s.765-.567 1.315-.567c.552 0 .993.189 1.322.567s.494.886.494 1.523v1.672zm-.77-1.832c0-.41-.091-.731-.274-.969s-.44-.355-.773-.355c-.331 0-.586.118-.766.355s-.27.56-.27.97v1.987c0 .41.093.734.276.973s.44.36.768.36c.333 0 .59-.12.77-.358s.269-.563.269-.975v-1.988zm3.984 3.84h-.773v-4.977l-1.239.012v-.594l2.012-.21v5.769zm5.676-4.234c0 .296-.083.557-.25.783s-.388.393-.664.506c.323.112.582.29.777.535s.293.527.293.847c0 .524-.17.93-.51 1.215s-.772.43-1.298.43c-.558 0-1.013-.144-1.366-.43s-.529-.691-.529-1.215c0-.32.1-.602.299-.847s.468-.425.807-.54c-.292-.109-.523-.276-.692-.501s-.254-.487-.254-.783c0-.498.16-.878.479-1.141s.735-.395 1.248-.395c.484 0 .882.132 1.193.397s.467.643.467 1.139zm-.61 2.656a1.032 1.032 0 0 0-1.05-1.067c-.323 0-.59.101-.801.301s-.316.456-.316.766c0 .32.104.577.314.77s.48.288.81.288c.297 0 .545-.096.745-.29s.299-.45.299-.768zm-.16-2.645c0-.273-.085-.499-.255-.675s-.382-.266-.635-.266c-.279 0-.508.085-.688.256s-.27.4-.27.685c0 .29.092.524.274.703s.413.27.692.27c.253 0 .462-.09.63-.27s.252-.414.252-.703zm34.736 3.215h.023l1.383-3.219h.96v4.227h-.769v-2.934l-.023-.007-1.297 2.94h-.531l-1.32-3.007-.024.008v3h-.77v-4.227h.993l1.375 3.22zm6.16 1.008c-.026-.128-.046-.24-.06-.338s-.023-.196-.026-.295c-.144.203-.33.373-.56.51s-.48.205-.745.205c-.44 0-.775-.112-1.006-.338s-.345-.536-.345-.932c0-.403.163-.72.49-.947s.77-.342 1.33-.342h.836v-.418c0-.247-.075-.443-.227-.587s-.364-.217-.64-.217c-.25 0-.452.062-.606.187s-.23.275-.23.45l-.73.007-.008-.023c-.019-.308.126-.59.431-.844s.701-.383 1.186-.383c.48 0 .864.122 1.156.365s.437.595.437 1.053v2.035c0 .152.008.297.024.438s.044.278.086.414h-.793zm-1.277-.563c.278 0 .53-.07.753-.214s.37-.308.438-.493v-.687h-.863c-.31 0-.558.078-.744.234s-.28.34-.28.551c0 .188.059.336.176.445s.29.164.52.164zm6.679-1.39c0 .61-.145 1.1-.437 1.474s-.695.561-1.207.561c-.261 0-.49-.044-.686-.13s-.364-.219-.502-.393v2.066h-.77v-5.852h.59l.122.547c.137-.203.31-.358.515-.465s.446-.16.719-.16c.523 0 .93.208 1.22.623s.436.964.436 1.647v.082zm-.77-.082c0-.48-.094-.873-.282-1.182s-.467-.463-.834-.463c-.222 0-.41.05-.567.15s-.282.238-.379.413v2.043c.097.175.223.31.38.408s.347.146.573.146c.365 0 .641-.133.828-.4s.282-.611.282-1.033v-.082zm4.892-1.594h-1.395v3.629h-.77v-3.629h-1.375v-.598h3.54v.598zm6.382 3.629h-3.531v-.527l1.785-2.13c.317-.385.533-.692.647-.92s.17-.457.17-.689c0-.262-.078-.478-.231-.646s-.366-.252-.637-.252c-.336 0-.592.102-.767.308s-.264.462-.264.77h-.742l-.008-.023c-.013-.464.142-.857.465-1.178s.762-.483 1.316-.483c.508 0 .908.141 1.2.422s.437.645.437 1.09c0 .3-.083.593-.248.879s-.417.646-.756 1.078l-1.434 1.68.008.02h2.59v.6zm4.449-2.008c0 .644-.163 1.152-.49 1.527s-.766.563-1.318.563c-.55 0-.99-.188-1.319-.563s-.494-.883-.494-1.527v-1.672c0-.637.163-1.145.49-1.523s.765-.567 1.315-.567c.552 0 .993.189 1.322.567s.494.886.494 1.523v1.672zm-.77-1.832c0-.41-.09-.731-.273-.969s-.44-.355-.773-.355c-.331 0-.586.118-.766.355s-.27.56-.27.97v1.987c0 .41.093.734.276.973s.44.36.768.36c.333 0 .59-.12.77-.358s.269-.563.269-.975v-1.988zm3.985 3.84h-.773v-4.977l-1.239.012v-.594l2.012-.21v5.769zm5.676-4.234c0 .296-.083.557-.25.783s-.388.393-.664.506c.323.112.582.29.777.535s.293.527.293.847c0 .524-.17.93-.51 1.215s-.772.43-1.298.43c-.558 0-1.013-.144-1.366-.43s-.529-.691-.529-1.215c0-.32.1-.602.299-.847s.468-.425.807-.54c-.292-.109-.523-.276-.692-.501s-.254-.487-.254-.783c0-.498.16-.878.479-1.141s.735-.395 1.248-.395c.484 0 .882.132 1.193.397s.467.643.467 1.139zm-.61 2.656a1.032 1.032 0 0 0-1.05-1.067c-.323 0-.59.101-.8.301s-.317.456-.317.766c0 .32.104.577.314.77s.48.288.81.288c.298 0 .546-.096.745-.29s.299-.45.299-.768zm-.16-2.645c0-.273-.084-.499-.255-.675s-.382-.266-.635-.266c-.278 0-.508.085-.688.256s-.27.4-.27.685c0 .29.092.524.274.703s.413.27.692.27c.253 0 .463-.09.63-.27s.252-.414.252-.703zm47.164 4.223c-.027-.128-.046-.24-.061-.338s-.022-.196-.025-.295c-.144.203-.33.373-.56.51s-.48.205-.745.205c-.44 0-.775-.112-1.006-.338s-.346-.536-.346-.932c0-.403.163-.72.49-.947s.771-.342 1.33-.342h.837v-.418c0-.247-.076-.443-.227-.587s-.364-.217-.64-.217c-.25 0-.453.062-.606.187s-.23.275-.23.45l-.731.007-.008-.023c-.018-.308.126-.59.432-.844s.701-.383 1.185-.383c.48 0 .865.122 1.157.365s.437.595.437 1.053v2.035c0 .152.008.297.024.438s.044.278.086.414h-.793zm-1.278-.563c.279 0 .53-.07.754-.214s.37-.308.438-.493v-.687h-.864c-.31 0-.557.078-.744.234s-.28.34-.28.551c0 .188.06.336.177.445s.29.164.52.164zm6.504.563h-.77v-3.617h-1.886v3.617h-.77v-4.227h3.426v4.227zm4.723-1.953c0 .61-.146 1.1-.438 1.474s-.694.561-1.207.561c-.26 0-.489-.044-.685-.13s-.365-.219-.502-.393v2.066h-.77v-5.852h.59l.121.547c.138-.203.31-.358.516-.465s.445-.16.719-.16c.523 0 .93.208 1.22.623s.436.964.436 1.647v.082zm-.77-.082c0-.48-.094-.873-.283-1.182s-.467-.463-.834-.463c-.222 0-.41.05-.566.15s-.283.238-.38.413v2.043c.097.175.223.31.38.408s.347.146.574.146c.364 0 .64-.133.828-.4s.281-.611.281-1.033v-.082zm3.465 2.117c-.606 0-1.08-.194-1.42-.582s-.51-.898-.51-1.531v-.172c0-.607.175-1.109.526-1.506s.778-.596 1.283-.596c.565 0 .99.176 1.271.528s.424.819.424 1.402v.406h-2.703l-.012.02c0 .425.094.768.282 1.033s.473.396.86.396c.26 0 .488-.037.685-.11s.365-.178.505-.308l.301.5c-.151.146-.35.269-.597.37s-.546.15-.895.15zm-.121-3.781c-.269 0-.49.103-.666.31s-.283.472-.322.795l.008.02h1.906v-.063c0-.307-.075-.561-.227-.761s-.384-.301-.699-.301zm5.984-.528v4.227h-.77v-3.617h-1.429v1.195c0 .833-.11 1.445-.332 1.836s-.599.586-1.133.586h-.218l.015-.656.16-.004c.274 0 .464-.134.573-.4s.162-.721.162-1.362v-1.805h2.972zm1.809 1.61h1.05c.5 0 .89.12 1.167.36s.416.55.416.933c0 .385-.14.702-.42.95s-.667.374-1.162.374h-1.82v-4.227h.769v1.61zm0 .601v1.414h1.05c.277 0 .48-.066.612-.199s.197-.298.197-.496c0-.192-.066-.36-.199-.504s-.336-.215-.61-.215h-1.05zm9.086 2.016h-3.531v-.527l1.785-2.13c.317-.385.533-.692.646-.92s.17-.457.17-.689c0-.262-.077-.478-.23-.646s-.366-.252-.637-.252c-.336 0-.592.102-.768.308s-.263.462-.263.77h-.742l-.008-.023c-.013-.464.141-.857.465-1.178s.761-.483 1.316-.483c.508 0 .907.141 1.2.422s.437.645.437 1.09c0 .3-.083.593-.248.879s-.417.646-.756 1.078l-1.434 1.68.008.02h2.59v.6zm4.449-2.008c0 .644-.163 1.152-.49 1.527s-.767.563-1.318.563c-.55 0-.99-.188-1.319-.563s-.494-.883-.494-1.527v-1.672c0-.637.163-1.145.49-1.523s.765-.567 1.315-.567c.551 0 .993.189 1.322.567s.494.886.494 1.523v1.672zm-.77-1.832c0-.41-.09-.731-.273-.969s-.44-.355-.773-.355c-.331 0-.586.118-.766.355s-.27.56-.27.97v1.987c0 .41.092.734.276.973s.44.36.768.36c.333 0 .59-.12.769-.358s.27-.563.27-.975v-1.988zm3.985 3.84h-.773v-4.977l-1.239.012v-.594l2.012-.21v5.769zm5.676-4.234c0 .296-.083.557-.25.783s-.388.393-.664.506c.323.112.582.29.777.535s.293.527.293.847c0 .524-.17.93-.51 1.215s-.772.43-1.299.43c-.557 0-1.012-.144-1.365-.43s-.53-.691-.53-1.215c0-.32.1-.602.3-.847s.467-.425.806-.54c-.292-.109-.522-.276-.691-.501s-.254-.487-.254-.783c0-.498.16-.878.479-1.141s.735-.395 1.248-.395c.484 0 .881.132 1.193.397s.467.643.467 1.139zm-.61 2.656a1.032 1.032 0 0 0-1.05-1.067c-.324 0-.59.101-.801.301s-.317.456-.317.766c0 .32.105.577.315.77s.48.288.81.288c.297 0 .545-.096.745-.29s.298-.45.298-.768zm-.16-2.645c0-.273-.085-.499-.256-.675s-.381-.266-.634-.266c-.279 0-.508.085-.688.256s-.27.4-.27.685c0 .29.091.524.274.703s.413.27.691.27c.253 0 .463-.09.631-.27s.252-.414.252-.703zm48.734 3.215h.023l1.383-3.219h.96v4.227h-.769v-2.934l-.023-.007-1.297 2.94h-.531l-1.32-3.007-.024.008v3h-.77v-4.227h.993l1.375 3.22zm6.16 1.008c-.027-.128-.046-.24-.06-.338s-.023-.196-.026-.295c-.144.203-.33.373-.56.51s-.48.205-.745.205c-.44 0-.775-.112-1.006-.338s-.345-.536-.345-.932c0-.403.163-.72.49-.947s.77-.342 1.33-.342h.836v-.418c0-.247-.075-.443-.227-.587s-.364-.217-.64-.217c-.25 0-.453.062-.606.187s-.23.275-.23.45l-.73.007-.009-.023c-.018-.308.126-.59.432-.844s.701-.383 1.186-.383c.48 0 .864.122 1.156.365s.437.595.437 1.053v2.035c0 .152.008.297.024.438s.044.278.086.414h-.793zm-1.278-.563c.279 0 .53-.07.754-.214s.37-.308.438-.493v-.687h-.863c-.31 0-.558.078-.745.234s-.279.34-.279.551c0 .188.059.336.176.445s.29.164.52.164zm5.735-3.664h.77v4.227h-.77v-3l-.024-.008-1.867 3.008h-.765v-4.227h.765v3l.024.008 1.867-3.008zm.203-1.738l.008.024c.01.301-.09.547-.301.738s-.495.285-.852.285c-.359 0-.644-.095-.855-.285s-.31-.437-.297-.738l.008-.024h.59c0 .172.044.312.133.418s.229.16.421.16c.188 0 .328-.053.418-.162s.137-.247.137-.416h.59zm7.234 5.965h-3.531v-.527l1.785-2.13c.318-.385.533-.692.647-.92s.17-.457.17-.689c0-.262-.078-.478-.23-.646s-.367-.252-.638-.252c-.336 0-.591.102-.767.308s-.264.462-.264.77h-.742l-.008-.023c-.013-.464.142-.857.465-1.178s.762-.483 1.316-.483c.508 0 .908.141 1.2.422s.437.645.437 1.09c0 .3-.083.593-.248.879s-.417.646-.756 1.078l-1.433 1.68.007.02h2.59v.6zm4.45-2.008c0 .644-.164 1.152-.49 1.527s-.767.563-1.32.563c-.549 0-.988-.188-1.317-.563s-.495-.883-.495-1.527v-1.672c0-.637.163-1.145.49-1.523s.765-.567 1.315-.567c.552 0 .993.189 1.322.567s.495.886.495 1.523v1.672zm-.77-1.832c0-.41-.09-.731-.273-.969s-.44-.355-.774-.355c-.331 0-.586.118-.766.355s-.27.56-.27.97v1.987c0 .41.093.734.276.973s.44.36.768.36c.333 0 .59-.12.77-.358s.269-.563.269-.975v-1.988zm3.984 3.84h-.773v-4.977l-1.238.012v-.594l2.011-.21v5.769zm5.676-4.234c0 .296-.083.557-.25.783s-.388.393-.664.506c.323.112.582.29.777.535s.293.527.293.847c0 .524-.17.93-.51 1.215s-.772.43-1.298.43c-.558 0-1.013-.144-1.365-.43s-.53-.691-.53-1.215c0-.32.1-.602.3-.847s.467-.425.806-.54c-.292-.109-.523-.276-.692-.501s-.254-.487-.254-.783c0-.498.16-.878.479-1.141s.735-.395 1.248-.395c.484 0 .882.132 1.193.397s.467.643.467 1.139zm-.61 2.656a1.032 1.032 0 0 0-1.05-1.067c-.323 0-.59.101-.8.301s-.317.456-.317.766c0 .32.104.577.314.77s.48.288.81.288c.298 0 .546-.096.745-.29s.299-.45.299-.768zm-.16-2.645c0-.273-.084-.499-.255-.675s-.382-.266-.635-.266c-.278 0-.508.085-.688.256s-.27.4-.27.685c0 .29.092.524.274.703s.413.27.692.27c.253 0 .463-.09.63-.27s.253-.414.253-.703zm-332.822-5.648h-3.53v-.527l1.784-2.13c.318-.385.533-.692.647-.92s.17-.457.17-.689c0-.262-.077-.478-.23-.646s-.367-.252-.638-.252c-.335 0-.591.102-.767.308s-.264.462-.264.77h-.742l-.008-.024c-.012-.463.142-.856.465-1.177s.762-.483 1.316-.483c.508 0 .908.14 1.2.422s.437.645.437 1.09c0 .3-.083.593-.248.879s-.417.645-.756 1.078l-1.433 1.68.007.02h2.59v.6zm4.504 0h-3.531v-.527l1.785-2.13c.318-.385.533-.692.647-.92s.17-.457.17-.689c0-.262-.078-.478-.23-.646s-.367-.252-.638-.252c-.336 0-.591.102-.767.308s-.264.462-.264.77h-.742l-.008-.024c-.013-.463.142-.856.465-1.177s.762-.483 1.316-.483c.508 0 .908.14 1.2.422s.437.645.437 1.09c0 .3-.083.593-.248.879s-.417.645-.756 1.078l-1.433 1.68.007.02h2.59v.6zm15.804 0h-3.531v-.527l1.785-2.13c.317-.385.533-.692.646-.92s.17-.457.17-.689c0-.262-.077-.478-.23-.646s-.366-.252-.637-.252c-.336 0-.592.102-.767.308s-.264.462-.264.77h-.742l-.008-.024c-.013-.463.141-.856.465-1.177s.761-.483 1.316-.483c.508 0 .907.14 1.2.422s.437.645.437 1.09c0 .3-.083.593-.248.879s-.417.645-.756 1.078l-1.434 1.68.008.02h2.59v.6zm2.344-.519c.37 0 .669-.129.896-.383s.342-.618.342-1.086v-.485c-.125.185-.28.325-.467.42s-.39.143-.611.143c-.547 0-.976-.17-1.287-.506s-.467-.806-.467-1.404c0-.574.165-1.041.496-1.405s.74-.545 1.227-.545c.567 0 1.023.179 1.367.535s.515.86.515 1.512v1.727c0 .653-.187 1.163-.562 1.53s-.858.548-1.45.548a3.058 3.058 0 0 1-1.202-.246l.117-.586c.172.083.34.142.506.178s.358.052.58.052zm.16-1.993c.268 0 .494-.061.678-.183s.317-.279.4-.47v-.671c0-.425-.095-.752-.285-.983s-.457-.345-.801-.345c-.278 0-.51.124-.697.373s-.28.572-.28.97c0 .391.086.707.258.948s.414.361.727.361zm14.537-.015l.328-3.16h2.848v.683h-2.2l-.183 1.637c.122-.091.258-.166.406-.225s.318-.089.508-.092c.526-.005.938.16 1.236.494s.448.794.448 1.377c0 .57-.154 1.029-.46 1.375s-.751.52-1.337.52c-.482 0-.883-.132-1.203-.395s-.474-.65-.461-1.16l.007-.023h.696c0 .31.089.55.267.72s.41.256.694.256c.325 0 .578-.114.758-.343s.27-.543.27-.942c0-.362-.092-.655-.272-.879s-.433-.336-.756-.336c-.302 0-.52.046-.657.137s-.235.231-.3.422l-.637-.066zm18.061 2.527h-.774v-4.977l-1.238.012v-.594l2.012-.21v5.769zm5.847 0h-3.531v-.527l1.785-2.13c.317-.385.533-.692.647-.92s.17-.457.17-.689c0-.262-.078-.478-.231-.646s-.366-.252-.637-.252c-.336 0-.591.102-.767.308s-.264.462-.264.77h-.742l-.008-.024c-.013-.463.142-.856.465-1.177s.762-.483 1.316-.483c.508 0 .908.14 1.2.422s.437.645.437 1.09c0 .3-.083.593-.248.879s-.417.645-.756 1.078l-1.433 1.68.007.02h2.59v.6zm14.459 0h-.773v-4.977l-1.239.012v-.594l2.012-.21v5.769zm3.688-.519c.37 0 .669-.129.896-.383s.342-.618.342-1.086v-.485c-.125.185-.28.325-.467.42s-.39.143-.611.143c-.547 0-.976-.17-1.287-.506s-.467-.806-.467-1.404c0-.574.165-1.041.496-1.405s.74-.545 1.227-.545c.567 0 1.023.179 1.367.535s.515.86.515 1.512v1.727c0 .653-.187 1.163-.562 1.53s-.859.548-1.45.548a3.058 3.058 0 0 1-1.202-.246l.117-.586c.172.083.34.142.506.178s.358.052.58.052zm.16-1.993c.268 0 .494-.061.678-.183s.317-.279.4-.47v-.671c0-.425-.095-.752-.285-.983s-.457-.345-.801-.345c-.278 0-.51.124-.697.373s-.28.572-.28.97c0 .391.086.707.258.948s.414.361.727.361zm17.802 2.512h-3.53v-.527l1.784-2.13c.318-.385.534-.692.647-.92s.17-.457.17-.689c0-.262-.077-.478-.23-.646s-.367-.252-.637-.252c-.336 0-.592.102-.768.308s-.264.462-.264.77h-.742l-.008-.024c-.012-.463.142-.856.465-1.177s.762-.483 1.317-.483c.507 0 .907.14 1.199.422s.437.645.437 1.09c0 .3-.083.593-.248.879s-.417.645-.756 1.078l-1.433 1.68.008.02h2.59v.6zm2.891-5.769c.224 0 .445.022.664.066s.4.1.543.168l-.164.59a2.44 2.44 0 0 0-1.043-.219c-.356 0-.646.152-.869.457s-.334.69-.334 1.156v.441c.16-.159.347-.284.565-.375s.45-.136.7-.136c.49 0 .878.164 1.163.492s.428.759.428 1.293c0 .583-.16 1.049-.479 1.396s-.749.522-1.291.522c-.526 0-.966-.2-1.32-.6s-.532-.946-.532-1.638v-1.309c0-.667.19-1.218.569-1.652s.845-.653 1.4-.653zm-.183 2.722c-.243 0-.45.052-.623.154s-.306.241-.397.416v.395c0 .481.105.862.314 1.142s.467.42.772.42c.32 0 .567-.122.74-.365s.26-.56.26-.951c0-.37-.093-.664-.28-.883s-.448-.328-.786-.328zm14.332.52l.329-3.16h2.847v.683h-2.199l-.183 1.637c.122-.091.257-.166.406-.225s.317-.089.508-.092c.526-.005.938.16 1.236.494s.447.794.447 1.377c0 .57-.153 1.029-.459 1.375s-.752.52-1.338.52c-.481 0-.882-.132-1.203-.395s-.473-.65-.46-1.16l.007-.023h.695c0 .31.09.55.268.72s.41.256.693.256c.326 0 .578-.114.758-.343s.27-.543.27-.942c0-.362-.091-.655-.272-.879s-.432-.336-.756-.336c-.301 0-.52.046-.656.137s-.235.231-.3.422l-.637-.066zm18.063 2.527h-.773v-4.977l-1.239.012v-.594l2.012-.21v5.769zm5.847 0h-3.53v-.527l1.785-2.13c.317-.385.533-.692.646-.92s.17-.457.17-.689c0-.262-.077-.478-.23-.646s-.367-.252-.637-.252c-.336 0-.592.102-.768.308s-.263.462-.263.77h-.743l-.007-.024c-.013-.463.141-.856.464-1.177s.762-.483 1.317-.483c.508 0 .907.14 1.2.422s.437.645.437 1.09c0 .3-.083.593-.248.879s-.417.645-.756 1.078l-1.434 1.68.008.02h2.59v.6zm14.458 0h-.774v-4.977l-1.238.012v-.594l2.012-.21v5.769zm3.687-.519c.37 0 .67-.129.897-.383s.342-.618.342-1.086v-.485c-.125.185-.28.325-.467.42s-.39.143-.612.143c-.546 0-.975-.17-1.287-.506s-.466-.806-.466-1.404c0-.574.165-1.041.496-1.405s.739-.545 1.226-.545c.568 0 1.024.179 1.367.535s.516.86.516 1.512v1.727c0 .653-.188 1.163-.563 1.53s-.858.548-1.449.548a3.058 3.058 0 0 1-1.203-.246l.117-.586c.172.083.341.142.506.178s.359.052.58.052zm.16-1.993c.269 0 .495-.061.678-.183s.318-.279.4-.47v-.671c0-.425-.094-.752-.285-.983s-.457-.345-.8-.345c-.279 0-.511.124-.698.373s-.279.572-.279.97c0 .391.086.707.258.948s.414.361.726.361zm17.803 2.512h-3.531v-.527l1.785-2.13c.317-.385.533-.692.647-.92s.17-.457.17-.689c0-.262-.078-.478-.231-.646s-.366-.252-.637-.252c-.336 0-.592.102-.767.308s-.264.462-.264.77h-.742l-.008-.024c-.013-.463.142-.856.465-1.177s.762-.483 1.316-.483c.508 0 .908.14 1.2.422s.437.645.437 1.09c0 .3-.083.593-.248.879s-.417.645-.756 1.078l-1.433 1.68.007.02h2.59v.6zm2.891-5.769c.223 0 .445.022.664.066s.4.1.543.168l-.164.59a2.44 2.44 0 0 0-1.043-.219c-.357 0-.647.152-.87.457s-.333.69-.333 1.156v.441c.159-.159.346-.284.564-.375s.451-.136.701-.136c.49 0 .877.164 1.162.492s.428.759.428 1.293c0 .583-.159 1.049-.478 1.396s-.75.522-1.291.522c-.527 0-.966-.2-1.32-.6s-.532-.946-.532-1.638v-1.309c0-.667.19-1.218.568-1.652s.846-.653 1.4-.653zm-.184 2.722c-.242 0-.45.052-.623.154s-.306.241-.396.416v.395c0 .481.104.862.314 1.142s.467.42.772.42c.32 0 .567-.122.74-.365s.26-.56.26-.951c0-.37-.093-.664-.28-.883s-.448-.328-.787-.328zm17.769 3.047h-3.531v-.527l1.785-2.13c.317-.385.533-.692.646-.92s.17-.457.17-.689c0-.262-.077-.478-.23-.646s-.367-.252-.637-.252c-.336 0-.592.102-.768.308s-.263.462-.263.77h-.743l-.007-.024c-.013-.463.141-.856.464-1.177s.762-.483 1.317-.483c.508 0 .907.14 1.2.422s.437.645.437 1.09c0 .3-.083.593-.248.879s-.417.645-.756 1.078l-1.434 1.68.008.02h2.59v.6zm13.978-.519c.37 0 .67-.129.897-.383s.342-.618.342-1.086v-.485c-.125.185-.28.325-.467.42s-.39.143-.612.143c-.546 0-.975-.17-1.287-.506s-.466-.806-.466-1.404c0-.574.165-1.041.496-1.405s.739-.545 1.226-.545c.568 0 1.024.179 1.367.535s.516.86.516 1.512v1.727c0 .653-.188 1.163-.563 1.53s-.858.548-1.449.548a3.058 3.058 0 0 1-1.203-.246l.117-.586c.172.083.341.142.506.178s.359.052.58.052zm.16-1.993c.269 0 .495-.061.678-.183s.318-.279.4-.47v-.671c0-.425-.094-.752-.285-.983s-.457-.345-.8-.345c-.279 0-.511.124-.698.373s-.279.572-.279.97c0 .391.086.707.258.948s.414.361.726.361zm16.629 2.512h-.773v-4.977l-1.238.012v-.594l2.011-.21v5.769zm4.235-5.769c.223 0 .445.022.664.066s.4.1.543.168l-.164.59a2.446 2.446 0 0 0-1.043-.219c-.357 0-.647.152-.87.457s-.333.69-.333 1.156v.441c.159-.159.346-.284.564-.375s.451-.136.701-.136c.49 0 .877.164 1.162.492s.428.759.428 1.293c0 .583-.16 1.049-.478 1.396s-.75.522-1.291.522c-.527 0-.966-.2-1.32-.6s-.532-.946-.532-1.638v-1.309c0-.667.19-1.218.568-1.652s.846-.653 1.4-.653zm-.184 2.722c-.242 0-.45.052-.623.154s-.306.241-.396.416v.395c0 .481.104.862.314 1.142s.467.42.772.42c.32 0 .567-.122.74-.365s.26-.56.26-.951c0-.37-.093-.664-.28-.883s-.448-.328-.787-.328zm17.6 3.047h-3.532v-.527l1.786-2.13c.317-.385.533-.692.646-.92s.17-.457.17-.689c0-.262-.077-.478-.23-.646s-.367-.252-.637-.252c-.336 0-.592.102-.768.308s-.263.462-.263.77h-.743l-.007-.024c-.013-.463.141-.856.464-1.177s.762-.483 1.317-.483c.508 0 .907.14 1.2.422s.437.645.437 1.09c0 .3-.083.593-.248.879s-.417.645-.756 1.078l-1.434 1.68.008.02h2.59v.6zm2.648-3.235c.344 0 .587-.084.729-.255s.213-.41.213-.717c0-.286-.078-.518-.233-.694s-.385-.263-.69-.263c-.296 0-.541.092-.736.275s-.29.413-.29.69h-.735l-.012-.024c-.012-.427.149-.792.485-1.094s.765-.453 1.289-.453c.528 0 .942.134 1.242.4s.45.66.45 1.178c0 .266-.07.508-.21.727s-.334.39-.584.512c.286.114.505.288.654.521s.225.515.225.846c0 .52-.165.929-.494 1.225s-.757.443-1.283.443c-.485 0-.911-.143-1.28-.428s-.546-.662-.533-1.13l.008-.024h.734c0 .276.1.509.3.697s.455.283.77.283c.313 0 .56-.096.739-.29s.27-.448.27-.76c0-.357-.084-.624-.249-.801s-.424-.266-.779-.266h-.633v-.598h.633zm15.8 0c.345 0 .588-.084.73-.255s.212-.41.212-.717c0-.286-.077-.518-.232-.694s-.385-.263-.69-.263c-.296 0-.542.092-.736.275s-.29.413-.29.69h-.735l-.012-.024c-.013-.427.148-.792.484-1.094s.766-.453 1.29-.453c.528 0 .942.134 1.242.4s.449.66.449 1.178c0 .266-.07.508-.21.727s-.333.39-.583.512c.286.114.505.288.654.521s.225.515.225.846c0 .52-.165.929-.494 1.225s-.757.443-1.284.443c-.484 0-.91-.143-1.279-.428s-.546-.662-.533-1.13l.008-.024h.734c0 .276.1.509.299.697s.456.283.771.283c.313 0 .56-.096.739-.29s.27-.448.27-.76c0-.357-.084-.624-.249-.801s-.425-.266-.78-.266h-.632v-.598h.633zm6.306 1.227c0 .644-.163 1.152-.49 1.527s-.767.563-1.319.563c-.55 0-.99-.188-1.318-.563s-.494-.883-.494-1.527v-1.672c0-.638.163-1.145.49-1.523s.764-.567 1.314-.567c.552 0 .993.189 1.322.567s.495.885.495 1.523v1.672zm-.77-1.832c0-.41-.09-.731-.273-.969s-.44-.355-.774-.355c-.33 0-.586.118-.765.355s-.27.56-.27.969v1.988c0 .41.092.734.275.973s.44.36.768.36c.333 0 .59-.12.77-.358s.27-.564.27-.975v-1.988zm16.832-1.242c-.719.854-1.204 1.608-1.457 2.262s-.379 1.386-.379 2.199v.62h-.77v-.62c0-.86.159-1.634.475-2.323s.775-1.4 1.373-2.138h-3.015v-.606h3.773v.606zm14.591 5.082h-.773v-4.977l-1.239.012v-.594l2.012-.21v5.769zm5.219-1.914h.785v.601h-.785v1.313h-.766v-1.313h-2.441v-.433l2.394-3.942h.813v3.774zm-2.383 0h1.617v-2.668l-.023-.004-.075.195-1.52 2.477zm18.815 1.914h-3.532v-.527l1.785-2.13c.318-.385.533-.692.647-.92s.17-.457.17-.689c0-.262-.077-.478-.23-.646s-.367-.252-.638-.252c-.335 0-.591.102-.767.308s-.264.462-.264.77H384l-.008-.024c-.012-.463.142-.856.465-1.177s.762-.483 1.316-.483c.508 0 .908.14 1.2.422s.437.645.437 1.09c0 .3-.083.593-.248.879s-.417.645-.756 1.078l-1.433 1.68.007.02h2.59v.6zm3.16 0h-.774v-4.977l-1.238.012v-.594l2.011-.21v5.769zm17.146 0h-3.531v-.527l1.785-2.13c.317-.385.533-.692.646-.92s.17-.457.17-.689c0-.262-.077-.478-.23-.646s-.366-.252-.637-.252c-.336 0-.592.102-.767.308s-.264.462-.264.77h-.742l-.008-.024c-.013-.463.141-.856.465-1.177s.761-.483 1.316-.483c.508 0 .907.14 1.2.422s.437.645.437 1.09c0 .3-.083.593-.248.879s-.417.645-.756 1.078l-1.434 1.68.008.02h2.59v.6zm4.332-4.235c0 .297-.083.558-.25.784s-.388.393-.664.506c.323.112.582.29.777.535s.293.527.293.847c0 .524-.17.93-.51 1.215s-.772.43-1.298.43c-.558 0-1.013-.144-1.366-.43s-.529-.691-.529-1.215c0-.32.1-.602.299-.847s.468-.425.807-.54c-.292-.109-.523-.276-.692-.501s-.254-.487-.254-.784c0-.497.16-.877.479-1.14s.735-.395 1.248-.395c.484 0 .882.132 1.193.397s.467.643.467 1.138zm-.61 2.657a1.032 1.032 0 0 0-1.05-1.067c-.323 0-.59.1-.8.301s-.317.456-.317.766c0 .32.104.577.314.77s.48.288.81.288c.298 0 .546-.096.745-.29s.299-.45.299-.768zm-.16-2.645c0-.273-.084-.499-.255-.676s-.382-.265-.635-.265c-.278 0-.508.085-.688.256s-.27.4-.27.685c0 .29.092.524.274.703s.413.27.692.27c.253 0 .463-.09.63-.27s.252-.414.252-.703zm16.284 2.309h.785v.601h-.785v1.313h-.766v-1.313h-2.441v-.433l2.394-3.942h.813v3.774zm-2.383 0h1.617v-2.668l-.023-.004-.075.195-1.52 2.477zm13.761-2.321c0 .297-.083.558-.25.784s-.388.393-.664.506c.323.112.582.29.777.535s.293.527.293.847c0 .524-.17.93-.51 1.215s-.772.43-1.299.43c-.557 0-1.012-.144-1.365-.43s-.53-.691-.53-1.215c0-.32.1-.602.3-.847s.467-.425.806-.54c-.292-.109-.522-.276-.691-.501s-.254-.487-.254-.784c0-.497.16-.877.478-1.14s.736-.395 1.248-.395c.485 0 .882.132 1.194.397s.467.643.467 1.138zm-.61 2.657a1.032 1.032 0 0 0-1.05-1.067c-.324 0-.59.1-.801.301s-.317.456-.317.766c0 .32.105.577.315.77s.48.288.81.288c.297 0 .545-.096.744-.29s.3-.45.3-.768zm-.16-2.645c0-.273-.085-.499-.256-.676s-.382-.265-.635-.265c-.278 0-.507.085-.687.256s-.27.4-.27.685c0 .29.091.524.274.703s.413.27.691.27c.253 0 .463-.09.631-.27s.252-.414.252-.703zM28.35 3.852v9.844h-1.73V2.299h7.01v1.553h-5.28zm12.13 9.22c-.448.448-1.136.72-1.97.72-.864 0-1.535-.208-2.128-.929v4.114H34.75V5.581h1.6v.864c.609-.737 1.28-.96 2.145-.96.832 0 1.537.271 1.984.72.786.8.914 2.097.914 3.425 0 1.328-.128 2.641-.914 3.442zm-2.4-6.131c-1.49 0-1.698 1.248-1.698 2.69 0 1.44.209 2.704 1.697 2.704 1.473 0 1.68-1.264 1.68-2.705 0-1.44-.207-2.69-1.68-2.69zm9.887 6.755v-.737c-.592.593-1.153.833-2.16.833-1.01 0-1.681-.24-2.178-.736-.416-.432-.64-1.057-.64-1.745 0-1.36.945-2.337 2.818-2.337h2.129v-.577c0-1.04-.498-1.52-1.778-1.52-.864 0-1.312.224-1.776.8L43.325 6.67c.752-.897 1.536-1.185 2.898-1.185 2.24 0 3.344.96 3.344 2.786v5.426h-1.6zm-.031-3.586h-1.873c-.993 0-1.49.416-1.49 1.169s.465 1.152 1.537 1.152c.577 0 1.04-.064 1.473-.464.256-.24.353-.624.353-1.2v-.657zm7.678 6.867v-3.201c-2.465-.128-4.033-1.473-4.033-4.178 0-2.689 1.536-3.97 4.033-4.114V2.3h1.633v3.185c2.497.144 4.033 1.425 4.033 4.114 0 2.705-1.568 4.05-4.033 4.178v3.201h-1.633zm0-4.658V6.941c-1.68.048-2.401 1.024-2.401 2.673 0 1.697.816 2.673 2.401 2.705zm1.633-5.378v5.378c1.584-.032 2.4-1.008 2.4-2.705 0-1.649-.72-2.625-2.4-2.673zm11.232 6.755V8.109l-3.474 5.587h-1.632V5.58h1.632v5.506l3.474-5.506h1.632v8.115H68.48zm4.253 0V5.58h1.65v8.115h-1.65zm4.947 0L74.397 9.47l3.09-3.89h1.952l-3.233 3.81 3.474 4.306h-2.001zM91.022 5.58v6.691h1.122v3.506h-1.57v-2.081H85.31v2.08h-1.553v-3.505h.864c.512-1.024.929-2.128.929-4.625V5.58h5.473zm-3.92 2.722c0 1.872-.305 2.977-.769 3.969h3.057V7.005h-2.288v1.297zm11.985 4.53c-.528.543-1.328.96-2.433.96s-1.888-.417-2.417-.96c-.768-.8-.96-1.825-.96-3.202 0-1.36.192-2.385.96-3.185.529-.544 1.313-.96 2.417-.96s1.905.416 2.433.96c.768.8.96 1.825.96 3.185 0 1.377-.192 2.401-.96 3.202zm-1.233-5.427c-.303-.304-.72-.464-1.2-.464s-.88.16-1.184.464c-.496.496-.56 1.345-.56 2.225s.064 1.729.56 2.225c.303.304.704.48 1.184.48s.897-.176 1.2-.48c.497-.496.561-1.344.561-2.225s-.064-1.729-.56-2.225zm8.528 6.291l-1.713-2.77-1.712 2.77h-1.969l2.785-4.146-2.673-3.97h1.968l1.6 2.642 1.602-2.641h1.953l-2.673 3.97 2.785 4.145h-1.953zm8.705-.864c-.528.543-1.328.96-2.433.96s-1.888-.417-2.417-.96c-.768-.8-.96-1.825-.96-3.202 0-1.36.192-2.385.96-3.185.529-.544 1.313-.96 2.417-.96s1.905.416 2.433.96c.768.8.96 1.825.96 3.185 0 1.377-.192 2.401-.96 3.202zm-1.233-5.427c-.303-.304-.72-.464-1.2-.464s-.88.16-1.184.464c-.496.496-.56 1.345-.56 2.225s.064 1.729.56 2.225c.303.304.704.48 1.184.48s.897-.176 1.2-.48c.497-.496.561-1.344.561-2.225s-.064-1.729-.56-2.225zm10.289-1.825v6.691h1.12v3.506h-1.569v-2.081h-5.265v2.08h-1.553v-3.505h.864c.512-1.024.929-2.128.929-4.625V5.58h5.474zm-3.922 2.722c0 1.872-.304 2.977-.768 3.969h3.057V7.005h-2.29v1.297zm11.665 5.394v-3.458h-3.234v3.458h-1.631V5.58h1.631v3.233h3.234V5.581h1.633v8.115h-1.633zm9.648-.864c-.528.543-1.328.96-2.432.96s-1.89-.417-2.417-.96c-.769-.8-.961-1.825-.961-3.202 0-1.36.192-2.385.96-3.185.529-.544 1.313-.96 2.418-.96s1.904.416 2.432.96c.769.8.96 1.825.96 3.185 0 1.377-.191 2.401-.96 3.202zm-1.232-5.427c-.304-.304-.72-.464-1.2-.464s-.881.16-1.185.464c-.496.496-.56 1.345-.56 2.225s.064 1.729.56 2.225c.304.304.704.48 1.185.48.48 0 .896-.176 1.2-.48.496-.496.56-1.344.56-2.225s-.064-1.729-.56-2.225zm7.599 6.387c-1.825 0-3.618-1.12-3.618-4.162 0-3.041 1.793-4.146 3.618-4.146 1.12 0 1.905.32 2.673 1.137l-1.12 1.088c-.513-.56-.913-.768-1.553-.768-.624 0-1.152.256-1.505.72-.352.448-.48 1.025-.48 1.97 0 .944.128 1.536.48 1.984.353.464.881.72 1.505.72.64 0 1.04-.208 1.553-.768l1.12 1.072c-.768.817-1.553 1.153-2.673 1.153zm7.728-6.787v6.69h-1.633v-6.69h-2.577V5.58h6.691v1.424h-2.481zm9.057 6.691V8.109l-3.474 5.587h-1.632V5.58h1.632v5.506l3.474-5.506h1.632v8.115h-1.632zm11.599 3.281v-3.201c-2.465-.128-4.033-1.473-4.033-4.178 0-2.689 1.536-3.97 4.033-4.114V2.3h1.633v3.185c2.497.144 4.033 1.425 4.033 4.114 0 2.705-1.568 4.05-4.033 4.178v3.201h-1.633zm0-4.658V6.941c-1.68.048-2.401 1.024-2.401 2.673 0 1.697.816 2.673 2.401 2.705zm1.633-5.378v5.378c1.584-.032 2.4-1.008 2.4-2.705 0-1.649-.72-2.625-2.4-2.673zm11.551 5.891c-.529.543-1.328.96-2.433.96s-1.889-.417-2.417-.96c-.768-.8-.96-1.825-.96-3.202 0-1.36.192-2.385.96-3.185.528-.544 1.313-.96 2.417-.96s1.904.416 2.433.96c.768.8.96 1.825.96 3.185 0 1.377-.192 2.401-.96 3.202zm-1.233-5.427c-.303-.304-.72-.464-1.2-.464s-.88.16-1.184.464c-.497.496-.561 1.345-.561 2.225s.064 1.729.56 2.225c.304.304.705.48 1.185.48.48 0 .897-.176 1.2-.48.496-.496.56-1.344.56-2.225s-.064-1.729-.56-2.225zm9.264 6.291v-3.458h-3.233v3.458h-1.632V5.58h1.632v3.233h3.233V5.581h1.633v8.115H197.5zm10.354-8.116v6.691h1.12v3.506h-1.569v-2.081h-5.265v2.08h-1.553v-3.505h.864c.512-1.024.929-2.128.929-4.625V5.58h5.474zm-3.922 2.722c0 1.872-.304 2.977-.768 3.969h3.057V7.005h-2.29v1.297zm11.168 5.394v-.737c-.591.593-1.152.833-2.16.833-1.008 0-1.68-.24-2.177-.736-.416-.432-.64-1.057-.64-1.745 0-1.36.944-2.337 2.817-2.337h2.128v-.577c0-1.04-.496-1.52-1.776-1.52-.864 0-1.313.224-1.776.8l-1.057-1.008c.752-.897 1.537-1.185 2.897-1.185 2.24 0 3.345.96 3.345 2.786v5.426h-1.6zm-.032-3.586h-1.872c-.992 0-1.489.416-1.489 1.169s.465 1.152 1.537 1.152c.576 0 1.04-.064 1.473-.464.256-.24.351-.624.351-1.2v-.657z"/><path fill="#6E9ED4" d="M25.803 25.4c0-.413.148-.772.445-1.074s.65-.454 1.06-.454c.403 0 .75.15 1.04.454s.437.66.437 1.075c0 .422-.144.778-.433 1.07s-.637.436-1.043.436c-.414 0-.769-.146-1.064-.437s-.442-.647-.442-1.07zm.767 0c0 .216.072.393.214.534s.318.211.525.211c.203 0 .374-.07.512-.21s.208-.32.208-.534-.07-.396-.21-.542-.311-.22-.51-.22c-.207 0-.382.073-.525.22s-.214.327-.214.542zm16.207-4.405v5.666c0 .937-.304 1.67-.914 2.197s-1.394.79-2.355.79c-.926 0-1.684-.264-2.274-.793s-.884-1.26-.884-2.194v-5.666h1.154v5.666c0 .652.186 1.163.56 1.532s.854.554 1.444.554c.625 0 1.134-.185 1.526-.554s.589-.88.589-1.532v-5.666h1.154zm6.375 6.38c0-.386-.138-.71-.416-.972s-.765-.485-1.465-.668c-.867-.215-1.543-.531-2.03-.95s-.73-.943-.73-1.576c0-.667.262-1.224.786-1.67s1.203-.667 2.039-.667c.898 0 1.614.254 2.147.764s.792 1.105.777 1.784l-.018.036h-1.101c0-.485-.17-.885-.507-1.202s-.77-.474-1.298-.474c-.54 0-.952.13-1.24.392s-.43.602-.43 1.02c0 .371.157.68.472.929s.825.465 1.532.653c.86.223 1.514.55 1.963.984s.674.97.674 1.606c0 .687-.27 1.24-.812 1.658s-1.247.627-2.118.627c-.824 0-1.552-.23-2.183-.691s-.936-1.079-.917-1.852l.012-.035h1.102c0 .535.203.948.609 1.24s.865.436 1.377.436c.547 0 .98-.123 1.298-.37s.477-.58.477-1.002zm2.789 2.151v-8.531h2.684c1.113 0 2.009.342 2.687 1.028s1.016 1.571 1.016 2.657v1.166c0 1.09-.339 1.976-1.016 2.657s-1.574 1.023-2.687 1.023h-2.684zm1.155-7.623v6.72h1.529c.79 0 1.411-.26 1.866-.779s.683-1.185.683-1.998v-1.178c0-.804-.228-1.466-.683-1.986s-1.077-.78-1.866-.78h-1.53z"/><path fill="#F59900" d="M68.77 25.4c0-.413.148-.772.445-1.074s.65-.454 1.06-.454c.403 0 .75.15 1.04.454s.437.66.437 1.075c0 .422-.145.778-.434 1.07s-.636.436-1.043.436c-.414 0-.768-.146-1.063-.437s-.442-.647-.442-1.07zm.767 0c0 .216.071.393.214.534s.317.211.524.211c.204 0 .374-.07.513-.21s.208-.32.208-.534-.07-.396-.21-.542-.311-.22-.51-.22c-.208 0-.382.073-.525.22s-.214.327-.214.542zm6.932 4.126v-8.531h2.783c.89 0 1.588.192 2.092.577s.756.962.756 1.731c0 .367-.114.697-.34.988s-.528.512-.903.665c.559.078 1.001.32 1.328.726s.489.885.489 1.436c0 .78-.254 1.378-.762 1.79s-1.195.618-2.062.618h-3.381zm1.154-4.904h1.87c.429 0 .778-.119 1.048-.355s.404-.565.404-.987c0-.461-.145-.806-.436-1.034s-.71-.343-1.257-.343h-1.629v2.719zm0 .902v3.1h2.227c.527 0 .936-.13 1.227-.39s.437-.628.437-1.105c0-.472-.149-.853-.446-1.142s-.697-.444-1.2-.463h-2.245zm7.565-3.961h-1.155v-1.178h1.154v1.178zm0 7.963h-1.155v-6.34h1.154v6.34zm3.38-7.869v1.529h1.202v.856h-1.202v3.85c0 .296.062.505.185.626s.286.182.49.182a1.557 1.557 0 0 0 .428-.082l.157.79c-.086.071-.213.129-.38.174s-.335.067-.499.067c-.469 0-.842-.142-1.119-.425s-.416-.727-.416-1.333v-3.85h-1.008v-.855h1.008v-1.53h1.154zm4.957 7.09c.356 0 .666-.119.932-.355s.398-.526.398-.87h1.043l.018.035c.016.547-.219 1.032-.703 1.456s-1.047.636-1.688.636c-.89 0-1.578-.303-2.062-.908s-.727-1.36-.727-2.262v-.246c0-.895.243-1.646.73-2.253s1.173-.911 2.06-.911c.706 0 1.286.219 1.737.656s.669.975.653 1.611l-.012.036h-1.049c0-.387-.126-.716-.377-.988s-.57-.407-.953-.407c-.566 0-.98.22-1.239.66s-.39.97-.39 1.596v.246c0 .637.128 1.174.384 1.611s.671.657 1.245.657zm3.493-2.45c0-.937.253-1.71.761-2.317s1.198-.911 2.069-.911c.879 0 1.573.303 2.083.908s.764 1.379.764 2.32v.13c0 .945-.254 1.718-.761 2.32s-1.2.902-2.075.902-1.567-.302-2.077-.905-.764-1.376-.764-2.318v-.129zm1.154.13c0 .671.141 1.226.425 1.663s.704.657 1.262.657c.551 0 .97-.22 1.254-.657s.428-.992.428-1.664v-.129c0-.664-.144-1.216-.43-1.658s-.709-.662-1.263-.662c-.551 0-.968.22-1.251.662s-.425.994-.425 1.658v.13zm7.183-4.864h-1.154v-1.178h1.154v1.178zm0 7.963h-1.154v-6.34h1.154v6.34zm2.807-6.34l.082.943c.211-.336.476-.596.794-.782s.68-.278 1.087-.278c.684 0 1.213.2 1.588.6s.562 1.019.562 1.855v4.002h-1.154v-3.979c0-.558-.11-.955-.331-1.19s-.558-.35-1.01-.35c-.356 0-.658.07-.906.213s-.444.343-.589.6v4.706h-1.154v-6.34h1.031z"/><path d="M438.35 223.963h.77v4.227h-.77v-3l-.024-.008-1.867 3.008h-.766v-4.227h.766v3l.023.008 1.868-3.008zm2.699 1.786h1c.052-.552.244-1.001.576-1.346s.765-.518 1.299-.518c.586 0 1.049.202 1.389.606s.51.919.51 1.547v.086c0 .63-.17 1.145-.509 1.546s-.8.602-1.382.602c-.547 0-.988-.178-1.323-.533s-.522-.819-.564-1.389h-.996v1.84h-.77v-4.227h.77v1.786zm1.758.375c0 .448.094.817.283 1.109s.47.437.842.437c.367 0 .645-.145.836-.437s.285-.661.285-1.11v-.085c0-.443-.096-.812-.287-1.106s-.472-.441-.842-.441c-.367 0-.646.147-.834.441s-.283.663-.283 1.106v.086zm7.383 2.066h-.77v-1.797h-1.883v1.797h-.77v-4.227h.77v1.829h1.883v-1.829h.77v4.227zm1.933-2.617h1.05c.5 0 .89.12 1.167.36s.416.55.416.933c0 .385-.14.702-.42.95s-.667.374-1.162.374h-1.82v-4.227h.769v1.61zm0 .601v1.414h1.05c.277 0 .48-.066.612-.199s.197-.298.197-.496c0-.192-.066-.36-.199-.504s-.336-.215-.61-.215h-1.05zm9.086 2.016h-3.531v-.527l1.785-2.13c.317-.385.533-.692.646-.92s.17-.457.17-.689c0-.262-.077-.478-.23-.646s-.366-.252-.637-.252c-.336 0-.592.102-.767.308s-.264.462-.264.77h-.742l-.008-.023c-.013-.464.141-.857.465-1.178s.761-.483 1.316-.483c.508 0 .907.141 1.2.422s.437.645.437 1.09c0 .3-.083.593-.248.879s-.417.646-.756 1.078l-1.434 1.68.008.02h2.59v.6zm4.449-2.008c0 .644-.163 1.152-.49 1.527s-.767.563-1.318.563c-.55 0-.99-.188-1.319-.563s-.494-.883-.494-1.527v-1.672c0-.637.163-1.145.49-1.523s.765-.567 1.315-.567c.552 0 .993.189 1.322.567s.494.886.494 1.523v1.672zm-.77-1.832c0-.41-.09-.731-.273-.969s-.44-.355-.773-.355c-.331 0-.586.118-.766.355s-.27.56-.27.97v1.987c0 .41.092.734.276.973s.44.36.768.36c.333 0 .59-.12.77-.358s.269-.563.269-.975v-1.988zm3.985 3.84h-.773v-4.977l-1.239.012v-.594l2.012-.21v5.769zm5.676-4.234c0 .296-.083.557-.25.783s-.388.393-.664.506c.323.112.582.29.777.535s.293.527.293.847c0 .524-.17.93-.51 1.215s-.772.43-1.299.43c-.557 0-1.012-.144-1.365-.43s-.529-.691-.529-1.215c0-.32.1-.602.299-.847s.468-.425.806-.54c-.292-.109-.522-.276-.691-.501s-.254-.487-.254-.783c0-.498.16-.878.479-1.141s.735-.395 1.248-.395c.484 0 .882.132 1.193.397s.467.643.467 1.139zm-.61 2.656a1.032 1.032 0 0 0-1.05-1.067c-.324 0-.59.101-.801.301s-.317.456-.317.766c0 .32.105.577.315.77s.48.288.81.288c.297 0 .545-.096.745-.29s.298-.45.298-.768zm-.16-2.645c0-.273-.085-.499-.256-.675s-.381-.266-.634-.266c-.279 0-.508.085-.688.256s-.27.4-.27.685c0 .29.091.524.274.703s.413.27.691.27c.253 0 .463-.09.631-.27s.252-.414.252-.703z" fill="#535454"/><path d="M449.553 173.231h.785v.602h-.785v1.312h-.766v-1.312h-2.441v-.434l2.394-3.941h.813v3.773zm-2.383 0h1.617v-2.668l-.023-.004-.075.195-1.52 2.477zm7.46-.094c0 .644-.162 1.153-.49 1.528s-.766.562-1.318.562c-.55 0-.989-.187-1.318-.562s-.494-.884-.494-1.528v-1.672c0-.637.163-1.145.49-1.523s.765-.567 1.314-.567c.552 0 .994.189 1.323.567s.494.886.494 1.523v1.672zm-.769-1.832c0-.409-.09-.731-.273-.969s-.44-.355-.774-.355c-.33 0-.585.118-.765.355s-.27.56-.27.97v1.987c0 .41.092.734.276.973s.44.36.767.36c.333 0 .59-.12.77-.358s.27-.563.27-.975v-1.988zm3.606-.754c0-.33.106-.61.32-.836s.5-.34.856-.34.641.113.855.338.32.505.32.838v.301c0 .331-.106.608-.318.832s-.495.336-.85.336c-.359 0-.646-.112-.86-.336s-.323-.5-.323-.832v-.3zm.57.301c0 .192.053.356.158.49s.257.201.455.201c.19 0 .337-.066.442-.199s.156-.297.156-.492v-.3c0-.193-.053-.358-.158-.495s-.255-.205-.447-.205c-.196 0-.345.068-.45.205s-.156.302-.156.494v.301zm.813 3.863l-.426-.261 2.777-4.446.426.262-2.777 4.445zm1.37-.965c0-.33.107-.608.321-.833s.499-.338.855-.338c.355 0 .64.112.854.338s.322.502.322.833v.305c0 .333-.106.612-.32.836s-.496.336-.848.336c-.36 0-.646-.112-.861-.336s-.322-.503-.322-.836v-.305zm.571.305c0 .195.053.36.158.494s.257.201.455.201c.19 0 .337-.067.442-.2s.156-.3.156-.495v-.305c0-.192-.054-.356-.16-.492s-.255-.203-.446-.203c-.192 0-.341.068-.447.203s-.158.3-.158.492v.305zm-10.781-35.791c0 .297-.083.558-.25.783s-.388.394-.664.506c.323.113.582.29.777.535s.293.528.293.848c0 .523-.17.929-.51 1.215s-.772.43-1.299.43c-.557 0-1.012-.144-1.365-.43s-.53-.692-.53-1.215c0-.32.1-.603.3-.848s.467-.424.806-.539c-.292-.11-.522-.276-.691-.502s-.254-.486-.254-.783c0-.497.16-.878.479-1.14s.735-.395 1.248-.395c.484 0 .881.132 1.193.396s.467.644.467 1.14zm-.61 2.656a1.032 1.032 0 0 0-1.05-1.066c-.324 0-.59.1-.801.3s-.317.457-.317.766c0 .32.105.578.315.77s.48.289.81.289c.297 0 .545-.097.745-.291s.298-.45.298-.768zm-.16-2.644c0-.274-.085-.5-.256-.676s-.381-.266-.634-.266c-.279 0-.508.085-.688.256s-.27.4-.27.686c0 .289.091.523.274.703s.413.27.691.27c.253 0 .463-.09.631-.27s.252-.414.252-.703zm5.39 2.214c0 .644-.162 1.153-.49 1.528s-.766.563-1.318.563c-.55 0-.989-.188-1.318-.563s-.494-.884-.494-1.527v-1.672c0-.638.163-1.146.49-1.524s.765-.566 1.314-.566c.552 0 .994.188 1.323.566s.494.886.494 1.524v1.672zm-.769-1.831c0-.41-.09-.732-.273-.97s-.44-.355-.774-.355c-.33 0-.585.119-.765.356s-.27.56-.27.969v1.988c0 .41.092.733.276.973s.44.359.767.359c.333 0 .59-.12.77-.357s.27-.564.27-.975v-1.988zm3.606-.754c0-.331.106-.61.32-.836s.5-.34.856-.34.641.112.855.338.32.505.32.838v.3c0 .332-.106.609-.318.833s-.495.336-.85.336c-.359 0-.646-.113-.86-.336s-.323-.501-.323-.832v-.301zm.57.3c0 .193.053.357.158.49s.257.202.455.202c.19 0 .337-.066.442-.2s.156-.296.156-.491v-.301c0-.193-.053-.358-.158-.494s-.255-.205-.447-.205c-.196 0-.345.068-.45.205s-.156.301-.156.494v.3zm.813 3.864l-.426-.262 2.777-4.445.426.262-2.777 4.445zm1.37-.965c0-.331.107-.608.321-.834s.499-.338.855-.338c.355 0 .64.112.854.338s.322.503.322.834v.305c0 .333-.106.612-.32.836s-.496.336-.848.336c-.36 0-.646-.113-.861-.336s-.322-.503-.322-.836v-.305zm.571.305c0 .195.053.36.158.494s.257.201.455.201c.19 0 .337-.067.442-.201s.156-.299.156-.494v-.305c0-.192-.054-.356-.16-.492s-.255-.203-.446-.203c-.192 0-.341.067-.447.203s-.158.3-.158.492v.305zm-10.609-96.851h-3.532v-.527l1.786-2.13c.317-.384.533-.691.646-.92s.17-.457.17-.689c0-.263-.077-.478-.23-.646s-.367-.252-.637-.252c-.336 0-.592.103-.768.309s-.263.462-.263.77h-.743l-.007-.024c-.013-.464.141-.856.464-1.178s.762-.482 1.317-.482c.508 0 .907.14 1.199.421s.437.645.437 1.09c0 .3-.083.593-.248.88s-.417.645-.755 1.077l-1.434 1.68.008.02h2.59v.601zm4.448-2.008c0 .643-.162 1.153-.49 1.528s-.766.562-1.318.562c-.55 0-.989-.187-1.318-.562s-.494-.885-.494-1.528v-1.672c0-.638.163-1.146.49-1.523s.765-.566 1.314-.566c.552 0 .994.189 1.323.566s.494.885.494 1.523v1.672zm-.769-1.832c0-.408-.09-.732-.273-.968s-.44-.356-.774-.356c-.33 0-.585.119-.765.356s-.27.56-.27.968v1.989c0 .408.092.732.276.972s.44.36.767.36c.333 0 .59-.12.77-.358s.27-.563.27-.974v-1.989zm5.274 1.832c0 .643-.163 1.153-.49 1.528s-.767.562-1.319.562c-.55 0-.99-.187-1.318-.562s-.494-.885-.494-1.528v-1.672c0-.638.163-1.146.49-1.523s.765-.566 1.314-.566c.552 0 .994.189 1.323.566s.494.885.494 1.523v1.672zm-.77-1.832c0-.408-.09-.732-.273-.968s-.44-.356-.774-.356c-.33 0-.586.119-.765.356s-.27.56-.27.968v1.989c0 .408.092.732.276.972s.439.36.767.36c.333 0 .59-.12.77-.358s.27-.563.27-.974v-1.989zm3.605-.754c0-.33.107-.609.321-.836s.499-.34.855-.34.642.113.856.338.32.505.32.838v.301c0 .33-.106.608-.318.832s-.495.336-.85.336c-.36 0-.646-.112-.861-.336s-.322-.501-.322-.832v-.3zm.571.301c0 .193.053.356.158.49s.257.202.455.202c.19 0 .337-.067.442-.2s.156-.297.156-.492v-.3c0-.194-.053-.358-.158-.495s-.255-.205-.448-.205c-.195 0-.344.068-.449.205s-.156.301-.156.494v.301zm.813 3.863l-.426-.261 2.777-4.446.426.262-2.777 4.445zm1.37-.964c0-.331.107-.61.32-.834s.5-.338.856-.338c.355 0 .64.112.854.338s.322.503.322.834v.304c0 .334-.106.612-.32.836s-.496.336-.848.336c-.36 0-.646-.112-.861-.336s-.322-.502-.322-.836v-.304zm.57.304c0 .196.054.36.16.494s.256.202.454.202c.19 0 .337-.067.442-.202s.156-.298.156-.494v-.304c0-.193-.054-.357-.16-.493s-.255-.203-.446-.203c-.192 0-.341.068-.447.203s-.158.3-.158.493v.304zm-16.456 33.737h-.774v-4.977l-1.238.012v-.594l2.012-.21v5.769zm4.234-5.77c.224 0 .446.022.664.066s.4.1.543.168l-.164.59a2.394 2.394 0 0 0-1.043-.219c-.356 0-.646.153-.869.458s-.334.69-.334 1.156v.441a1.782 1.782 0 0 1 1.266-.512c.489 0 .877.165 1.162.493s.428.759.428 1.293c0 .583-.16 1.048-.479 1.396s-.749.522-1.29.522c-.527 0-.967-.2-1.321-.6s-.531-.946-.531-1.639V73.74c0-.667.189-1.218.568-1.653s.846-.652 1.4-.652zm-.183 2.723c-.243 0-.45.051-.623.154s-.306.242-.397.416v.395c0 .481.105.862.315 1.142s.466.42.771.42c.32 0 .567-.122.74-.365s.26-.56.26-.951c0-.37-.093-.664-.28-.883s-.447-.328-.786-.328zm6.246 1.039c0 .643-.163 1.152-.49 1.527s-.767.563-1.319.563c-.55 0-.99-.188-1.318-.563s-.494-.884-.494-1.527v-1.672c0-.638.163-1.146.49-1.524s.765-.566 1.314-.566c.552 0 .994.189 1.323.566s.494.886.494 1.524v1.672zm-.77-1.832c0-.409-.09-.732-.273-.969s-.44-.355-.774-.355c-.33 0-.586.118-.765.355s-.27.56-.27.969v1.988c0 .409.092.733.276.973s.439.36.767.36c.333 0 .59-.12.77-.358s.27-.563.27-.975v-1.988zm3.605-.755c0-.33.107-.609.321-.835s.499-.34.855-.34.642.113.856.338.32.504.32.838v.3c0 .331-.106.609-.318.833s-.495.336-.85.336c-.36 0-.646-.112-.861-.336s-.322-.502-.322-.832v-.301zm.571.302c0 .192.053.356.158.49s.257.201.455.201c.19 0 .337-.066.442-.2s.156-.296.156-.491v-.301c0-.193-.053-.358-.158-.494s-.255-.205-.448-.205c-.195 0-.344.068-.449.205s-.156.301-.156.494v.3zm.813 3.863l-.426-.262 2.777-4.445.426.262-2.777 4.445zm1.37-.965c0-.33.107-.609.32-.834s.5-.338.856-.338c.355 0 .64.113.854.338s.322.503.322.834v.305c0 .333-.106.612-.32.836s-.496.336-.848.336c-.36 0-.646-.112-.861-.336s-.322-.503-.322-.836v-.305zm.57.305c0 .195.054.36.16.494s.256.201.454.201c.19 0 .337-.067.442-.201s.156-.299.156-.494v-.305c0-.193-.054-.357-.16-.492s-.255-.203-.446-.203c-.192 0-.341.068-.447.203s-.158.3-.158.492v.305zm-16.456 33.735h-.774v-4.976l-1.238.011v-.593l2.012-.211v5.77zm5.848 0h-3.532v-.527l1.785-2.13c.318-.385.534-.692.647-.92s.17-.457.17-.689c0-.262-.077-.478-.23-.646s-.367-.252-.637-.252c-.336 0-.592.103-.768.309s-.264.462-.264.77h-.742l-.008-.024c-.012-.464.142-.857.465-1.178s.762-.482 1.317-.482c.507 0 .907.14 1.199.421s.437.645.437 1.09c0 .3-.083.593-.248.88s-.417.645-.756 1.077l-1.433 1.68.008.02h2.59v.601zm4.449-2.008c0 .644-.163 1.153-.49 1.528s-.767.562-1.319.562c-.55 0-.99-.187-1.318-.562s-.494-.884-.494-1.528v-1.672c0-.637.163-1.145.49-1.523s.765-.566 1.314-.566c.552 0 .994.188 1.323.566s.494.886.494 1.523v1.672zm-.77-1.832c0-.409-.09-.731-.273-.968s-.44-.356-.774-.356c-.33 0-.586.118-.765.356s-.27.56-.27.968V108c0 .409.092.733.276.972s.439.36.767.36c.333 0 .59-.12.77-.358s.27-.563.27-.974v-1.989zm3.605-.754c0-.33.107-.609.321-.836s.499-.34.855-.34.642.113.856.338.32.505.32.838v.301c0 .331-.106.609-.318.832s-.495.336-.85.336c-.36 0-.646-.112-.861-.336s-.322-.5-.322-.832v-.3zm.571.301c0 .193.053.357.158.49s.257.202.455.202c.19 0 .337-.067.442-.2s.156-.297.156-.492v-.3c0-.193-.053-.358-.158-.495s-.255-.205-.448-.205c-.195 0-.344.068-.449.205s-.156.302-.156.494v.301zm.813 3.863l-.426-.261 2.777-4.446.426.262-2.777 4.445zm1.37-.964c0-.331.107-.609.32-.834s.5-.338.856-.338c.355 0 .64.112.854.338s.322.503.322.834v.304c0 .333-.106.613-.32.836s-.496.336-.848.336c-.36 0-.646-.112-.861-.336s-.322-.503-.322-.836v-.304zm.57.304c0 .196.054.36.16.494s.256.202.454.202c.19 0 .337-.068.442-.202s.156-.298.156-.494v-.304c0-.193-.054-.357-.16-.493s-.255-.203-.446-.203c-.192 0-.341.068-.447.203s-.158.3-.158.493v.304z" fill="#F59900"/><path fill="none" stroke="#E3E3E3" stroke-width=".35" stroke-miterlimit="10" d="M20.115 43.663h4.937M22.43 76.144h2.622m-2.622 32.482h2.622m-3.022 32.481h3.022m-3.022 32.481h3.022m-5.244 32.481h5.244"/><path fill="#6E9ED4" d="M16.406 205.786c0 .643-.163 1.152-.49 1.527s-.767.562-1.318.562c-.55 0-.99-.187-1.319-.562s-.494-.884-.494-1.527v-1.672c0-.638.163-1.146.49-1.524s.765-.566 1.315-.566c.552 0 .993.188 1.322.566s.494.886.494 1.524v1.672zm-.77-1.832c0-.41-.09-.732-.273-.97s-.44-.355-.773-.355c-.331 0-.586.119-.766.356s-.27.56-.27.969v1.988c0 .41.092.733.276.973s.44.359.768.359c.333 0 .59-.12.77-.357s.269-.564.269-.975v-1.988zM5.188 172.618l.328-3.16h2.847v.683H6.164l-.184 1.637c.123-.091.258-.166.407-.225s.317-.089.508-.092c.526-.004.938.16 1.236.495s.447.794.447 1.377c0 .57-.153 1.028-.459 1.375s-.752.52-1.338.52c-.481 0-.883-.133-1.203-.395s-.474-.65-.46-1.16l.007-.024h.695c0 .31.09.55.268.72s.41.256.693.256c.325 0 .578-.114.758-.343s.27-.543.27-.942c0-.362-.091-.655-.272-.879s-.433-.336-.756-.336c-.302 0-.52.046-.656.137s-.235.232-.3.422l-.638-.066zm6.214-2.067c0-.33.107-.61.32-.836s.5-.34.856-.34.642.113.856.338.32.505.32.838v.301c0 .331-.107.608-.318.832s-.496.336-.85.336c-.36 0-.647-.112-.861-.336s-.323-.5-.323-.832v-.3zm.57.301c0 .192.053.356.159.49s.257.201.455.201c.19 0 .337-.066.441-.199s.157-.297.157-.492v-.3c0-.193-.053-.358-.159-.495s-.254-.205-.447-.205c-.195 0-.345.068-.45.205s-.155.302-.155.494v.301zm.813 3.863l-.426-.261 2.778-4.446.426.262-2.778 4.445zm1.371-.965c0-.33.107-.608.32-.833s.5-.338.856-.338c.355 0 .639.112.854.338s.322.502.322.833v.305c0 .333-.107.612-.32.836s-.497.336-.848.336c-.36 0-.647-.112-.861-.336s-.323-.503-.323-.836v-.305zm.57.305c0 .195.053.36.159.494s.257.201.455.201c.19 0 .337-.067.441-.2s.156-.3.156-.495v-.305c0-.192-.053-.356-.16-.492s-.255-.203-.445-.203c-.192 0-.342.068-.447.203s-.158.3-.158.492v.305zM3.64 142.499h-.773v-4.977l-1.238.012v-.594l2.012-.211v5.77zm5.794-2.009c0 .644-.163 1.153-.49 1.528s-.767.563-1.319.563c-.55 0-.99-.188-1.318-.563s-.495-.884-.495-1.527v-1.672c0-.638.164-1.146.49-1.524s.765-.566 1.315-.566c.552 0 .993.188 1.322.566s.495.886.495 1.524v1.672zm-.77-1.831c0-.41-.09-.732-.273-.97s-.44-.355-.774-.355c-.33 0-.586.119-.765.356s-.27.56-.27.969v1.988c0 .41.092.733.275.973s.44.359.768.359c.333 0 .59-.12.77-.357s.27-.564.27-.975v-1.988zm3.449 2.308c0-.317.092-.595.276-.834s.458-.477.822-.716c-.203-.258-.355-.488-.453-.69s-.149-.41-.149-.623c0-.44.127-.78.381-1.018s.604-.357 1.05-.357c.41 0 .745.118 1.003.355s.387.523.387.856c0 .255-.069.476-.205.662s-.34.377-.608.572l-.426.313 1.329 1.597c.106-.168.19-.356.25-.562s.09-.423.09-.652h.687c0 .343-.05.66-.152.953s-.25.553-.442.785l.723.871-.008.02h-.895l-.332-.399c-.208.156-.438.275-.691.358s-.515.123-.785.123c-.566 0-1.015-.15-1.35-.45s-.502-.687-.502-1.164zm1.852 1.012c.187 0 .372-.032.555-.096s.354-.155.515-.275l-1.41-1.7-.156.114c-.238.177-.394.347-.471.508s-.115.307-.115.437c0 .294.093.536.277.727s.453.285.805.285zm-.586-3.883c0 .138.035.282.105.432s.176.313.317.49l.539-.371c.148-.099.249-.206.303-.322s.08-.244.08-.385c0-.16-.064-.3-.19-.422s-.29-.184-.494-.184c-.21 0-.374.074-.488.221s-.172.327-.172.541zM4.117 44.558H.586v-.527L2.37 41.9c.317-.384.533-.691.647-.92s.17-.457.17-.689c0-.263-.078-.478-.231-.646s-.366-.252-.637-.252c-.336 0-.591.103-.767.309s-.264.462-.264.77H.547l-.008-.024c-.013-.464.142-.856.465-1.178s.762-.482 1.316-.482c.508 0 .908.14 1.2.421s.437.645.437 1.09c0 .3-.083.593-.248.88s-.417.645-.756 1.077l-1.433 1.68.007.02h2.59v.601zm1.071-2.528l.328-3.16h2.847v.684H6.164l-.184 1.637c.123-.091.258-.166.407-.225s.317-.089.508-.091c.526-.006.938.16 1.236.494s.447.793.447 1.377c0 .57-.153 1.028-.459 1.375s-.752.52-1.338.52c-.481 0-.883-.132-1.203-.395s-.474-.65-.46-1.16l.007-.024h.695c0 .31.09.55.268.72s.41.257.693.257c.325 0 .578-.115.758-.344s.27-.543.27-.942c0-.361-.091-.654-.272-.878s-.433-.336-.756-.336c-.302 0-.52.045-.656.136s-.235.232-.3.422l-.638-.066zm6.214-2.066c0-.33.107-.609.32-.836s.5-.34.856-.34.642.113.856.338.32.505.32.838v.301c0 .33-.107.608-.318.832s-.496.336-.85.336c-.36 0-.647-.112-.861-.336s-.323-.501-.323-.832v-.3zm.57.301c0 .193.053.356.159.49s.257.202.455.202c.19 0 .337-.067.441-.2s.157-.297.157-.492v-.3c0-.194-.053-.358-.159-.495s-.254-.205-.447-.205c-.195 0-.345.068-.45.205s-.155.301-.155.494v.301zm.813 3.863l-.426-.261 2.778-4.446.425.262-2.777 4.445zm1.371-.964c0-.331.107-.61.32-.834s.5-.338.856-.338c.355 0 .639.112.854.338s.322.503.322.834v.304c0 .334-.107.612-.32.836s-.497.336-.848.336c-.36 0-.647-.112-.861-.336s-.323-.502-.323-.836v-.304zm.57.304c0 .196.053.36.159.494s.257.202.455.202c.19 0 .337-.067.441-.202s.156-.298.156-.494v-.304c0-.193-.053-.357-.16-.493s-.255-.203-.445-.203c-.192 0-.342.068-.447.203s-.158.3-.158.493v.304zM4.117 77.205H.586v-.528l1.785-2.129c.317-.385.533-.692.647-.92s.17-.457.17-.689c0-.263-.078-.479-.231-.647s-.366-.251-.637-.251c-.336 0-.591.103-.767.308s-.264.463-.264.77H.547l-.008-.024c-.013-.463.142-.856.465-1.178s.762-.482 1.316-.482c.508 0 .908.14 1.2.422s.437.644.437 1.09c0 .3-.083.592-.248.879s-.417.646-.756 1.078l-1.433 1.68.007.019h2.59v.602zm4.449-2.008c0 .643-.163 1.152-.49 1.527s-.766.563-1.318.563c-.55 0-.99-.188-1.319-.563s-.494-.884-.494-1.527v-1.672c0-.638.163-1.146.49-1.524s.765-.566 1.315-.566c.552 0 .993.189 1.322.566s.494.886.494 1.524v1.672zm-.77-1.832c0-.409-.09-.732-.273-.969s-.44-.355-.773-.355c-.331 0-.586.118-.766.355s-.27.56-.27.969v1.988c0 .409.093.733.276.973s.44.36.768.36c.333 0 .59-.12.77-.358s.269-.563.269-.975v-1.988zm3.606-.755c0-.33.107-.609.32-.835s.5-.34.856-.34.642.113.856.338.32.504.32.838v.3c0 .331-.107.609-.318.833s-.496.336-.85.336c-.36 0-.647-.112-.861-.336s-.323-.502-.323-.832v-.301zm.57.302c0 .192.053.356.159.49s.257.201.455.201c.19 0 .337-.066.441-.2s.157-.296.157-.491v-.301c0-.193-.053-.358-.159-.494s-.254-.205-.447-.205c-.195 0-.345.068-.45.205s-.155.301-.155.494v.3zm.813 3.863l-.426-.262 2.778-4.445.425.262-2.777 4.445zm1.371-.965c0-.33.107-.609.32-.834s.5-.338.856-.338c.355 0 .639.113.854.338s.322.503.322.834v.305c0 .333-.107.612-.32.836s-.497.336-.848.336c-.36 0-.647-.112-.861-.336s-.323-.503-.323-.836v-.305zm.57.305c0 .195.053.36.159.494s.257.201.455.201c.19 0 .337-.067.441-.201s.156-.299.156-.494v-.305c0-.193-.053-.357-.16-.492s-.255-.203-.445-.203c-.192 0-.342.068-.447.203s-.158.3-.158.492v.305zM2.773 109.85H2v-4.976l-1.238.011v-.593l2.011-.211v5.77zm2.415-2.527l.328-3.16h2.847v.683H6.164l-.184 1.637c.123-.09.258-.166.407-.225s.317-.089.508-.091c.526-.005.938.159 1.236.494s.447.794.447 1.377c0 .57-.153 1.028-.459 1.375s-.752.52-1.338.52c-.481 0-.883-.133-1.203-.395s-.474-.65-.46-1.16l.007-.024h.695c0 .31.09.55.268.72s.41.257.693.257c.325 0 .578-.115.758-.344s.27-.543.27-.942c0-.362-.091-.655-.272-.878s-.433-.336-.756-.336c-.302 0-.52.045-.656.136s-.235.232-.3.422l-.638-.066zm6.214-2.067c0-.33.107-.609.32-.836s.5-.34.856-.34.642.113.856.338.32.505.32.838v.301c0 .331-.107.609-.318.832s-.496.336-.85.336c-.36 0-.647-.112-.861-.336s-.323-.5-.323-.832v-.3zm.57.301c0 .193.053.357.159.49s.257.202.455.202c.19 0 .337-.067.441-.2s.157-.297.157-.492v-.3c0-.193-.053-.358-.159-.495s-.254-.205-.447-.205c-.195 0-.345.068-.45.205s-.155.302-.155.494v.301zm.813 3.863l-.426-.261 2.778-4.446.426.262-2.778 4.445zm1.371-.964c0-.331.107-.609.32-.834s.5-.338.856-.338c.355 0 .639.112.854.338s.322.503.322.834v.304c0 .333-.107.613-.32.836s-.497.336-.848.336c-.36 0-.647-.112-.861-.336s-.323-.503-.323-.836v-.304zm.57.304c0 .196.053.36.159.494s.257.202.455.202c.19 0 .337-.068.441-.202s.156-.298.156-.494v-.304c0-.193-.053-.357-.16-.493s-.255-.203-.445-.203c-.192 0-.342.068-.447.203s-.158.3-.158.493v.304z"/><path fill="none" stroke="#535454" stroke-width=".35" stroke-miterlimit="10" d="M23.633 226.631H31.5m48.688 0h7.866m11.974 0h5.062m55.188 0h4.835m11.973 0h10.489m43.622 0h10.489m105.657 0h13.111m38.864 0h13.11m11.974 0h5.245m-175.502 0h15.733m49.759 0h15.733"/><path fill="none" stroke="#F59900" stroke-width="1.5" stroke-linecap="round" stroke-linejoin="round" stroke-miterlimit="10" d="M25.052 192.295l2.852-2.361 2.684 2.754 2.852-11.413 2.684 4.198 2.852 2.493 2.852-3.936 2.684.131 2.852-21.514 2.684-3.28 2.852.394 2.852 2.1 2.684 12.33 2.852-11.937 2.684-9.84 2.852.92 2.852 6.034 2.684-3.018 2.852-1.05 2.685 3.15 2.851 2.492 2.852-6.297 2.685-16.53 2.852 2.1 2.684-18.104 2.852-3.804 2.852 7.215 2.684-20.465 2.852-34.37 2.852 20.596 2.684-3.28 2.852 8.79 2.684 15.61 2.852-3.935 2.852-10.888 2.684 17.84 2.852-10.625 2.684 21.777 2.852 8.264 2.852 1.574 2.684 12.2 2.852-10.232 2.684 10.626 2.852.656 2.852-10.495 2.684-9.183 2.852 5.641 2.684-7.346 2.852-1.837 2.852 11.545 2.684 3.148 2.852-2.886 2.852 7.74 2.684 1.443 2.852 4.591 2.684-.262 2.852-.262 2.852-8.396 2.684-10.889 2.852-10.494 2.684-.656 2.852-8.265 2.852 13.25 2.684-7.215 2.852.393 2.685-19.94 2.851 1.706 2.852.393 2.685-8.396 2.851 7.347 2.685 8.264 2.852 5.772 2.851-.393 2.685-3.28 2.852 4.067 2.684-7.215 2.852-2.1 2.852-6.165 2.684-8.395 2.852 3.935 2.852-22.039 2.684-6.69h2.852v1.574l2.684-4.067 2.852 7.74 2.852 10.626 2.684-18.89 2.852.262 2.684-3.017 2.852 8.527 2.852 2.36 2.684-5.771 2.852 1.574 2.684 3.017 2.852 23.089 2.852-.787 2.684 1.574 2.852 3.148 2.684-2.23 2.852-4.198 2.852 5.641 2.684 1.837 2.852 9.183 2.852.655 2.684-2.36 2.852 1.705 2.684 10.757 2.852-11.413 2.852 6.428 2.684-6.035 2.852 6.166 2.684 1.312 2.852-2.755v1.443l2.852-3.41 2.684 1.573 2.852 6.822 2.685-3.936 2.852.919 2.851-1.443 2.685-4.854 2.852-1.837 2.684 2.1 2.852-4.068 2.852-13.118 2.684 1.05 2.852 4.722 2.684-.656 2.852-3.017 2.852-3.41 2.684-5.117 2.852 3.673 2.852-.393 2.684 4.853 2.852-2.099 2.684-8.527 2.852-13.118 2.852 2.23 2.684-2.755 2.852-3.28 2.684-.13 2.852-6.69 2.852 10.363 2.684-2.755 2.852 3.017 2.684.525 2.852 3.41 2.852 2.1 2.684-4.723 2.852 3.542"/><path fill="none" stroke="#6E9ED4" stroke-width="1.5" stroke-linecap="round" stroke-linejoin="round" stroke-miterlimit="10" d="M25.052 205.634l2.746-10.253 2.907 8.056 2.746-.244 2.746-1.343 2.746 1.221 2.745-1.587 2.746-.366 2.746 3.052 2.746-13.915 2.907-.976 2.746-2.93 2.746-3.295 2.746 1.586 2.745-.122 2.746-5.98 2.746 1.22 2.746-1.098 2.907-1.953 2.746-2.32 2.746-1.22 2.745-.244 2.746-5.493 2.746-5.492 2.746-.123h2.746l2.907-.976 2.746-1.83 2.746.976 2.745-1.71 2.746-1.708 2.746-6.225 2.746-2.807 2.907-.244 2.746-5.249 2.746-1.098 2.746 2.197 2.745-.977 2.746 2.93 2.746-1.465 2.746-3.418 2.907-2.197 2.746-3.662 2.746 2.808 2.746-1.343 2.745-1.343h2.746l2.746 3.784 2.746-.854 2.907-.977 2.746 1.465 2.746-1.342 2.745 2.929 2.746-.977h2.746l2.746-3.051 2.907-2.93 2.746 2.93 2.746.732 2.746 2.808 2.745-1.099 2.746 1.22 2.746.855 2.746-.854 2.907-.122 2.746-.122 2.746-2.808 2.746.977 2.745 1.586 2.746 4.395 2.746-1.831 2.746-1.831 2.907-1.465 2.746-.976 2.746 1.342 2.746-.488 2.745 1.587 2.746-.61 2.746 2.075 2.746.366 2.907 1.098 2.746 3.418 2.746 2.197h2.745v-3.174l2.746-1.342 2.746 1.098 2.746-.366 2.907-.366 2.746 2.807 2.746 6.958 2.746-2.075 2.745-4.883 2.746 6.591 2.746-.488 2.746-1.464 2.907-13.305 2.746-.732 2.746-3.784 2.746-3.662 2.745 2.441 2.746-.976 2.746-3.296 2.746-2.44 2.907-13.915 2.746-1.831 2.746.976 2.745-5.492 2.746-10.864 2.746 14.281 2.746-6.225 2.746 3.296 2.907-8.422 2.746 1.587h2.746v6.225l2.745-.61 2.746-4.029 2.746-11.595 2.746-14.891 2.907-5.737 2.746 9.643 2.746-.489 2.746 6.714 2.745-1.831 2.746 7.201h2.746l2.746-2.441 2.907-.244 2.746-1.099 2.746 5.615 2.746-1.587 2.745 6.47 2.746-2.93 2.746-.244 2.746-7.202 2.907 3.418 2.746 4.76 2.746-.244 2.745-.366 2.746 2.807 2.746 1.343 2.746-1.343 2.746 2.075 2.907-1.586 2.746-.367 2.746-.854 2.745-.488 2.746-.733 2.746 1.099 2.746 4.76 2.907-.366"/></svg>