<svg xmlns="http://www.w3.org/2000/svg" viewBox="0 0 475.107 230.358"><g fill="none" stroke="#E3E3E3" stroke-width=".35" stroke-miterlimit="10"><path d="M25.052 157.335h19.117v16.236H25.052z"/><path d="M44.168 157.335h19.117v16.236H44.168z"/><path d="M63.284 157.335h19.117v16.236H63.284z"/><path d="M82.4 157.335h19.117v16.236H82.4z"/><path d="M101.516 157.335h19.117v16.236h-19.117z"/><path d="M120.631 157.335h19.117v16.236h-19.117z"/><path d="M139.747 157.335h19.117v16.236h-19.117z"/><path d="M158.863 157.335h19.117v16.236h-19.117z"/><path d="M177.979 157.335h19.117v16.236h-19.117z"/><path d="M197.095 157.335h19.117v16.236h-19.117z"/><path d="M216.211 157.335h19.117v16.236h-19.117z"/><path d="M235.327 157.335h19.117v16.236h-19.117z"/><path d="M254.442 157.335h19.117v16.236h-19.117z"/><path d="M273.558 157.335h19.117v16.236h-19.117z"/><path d="M292.674 157.335h19.117v16.236h-19.117z"/><path d="M311.79 157.335h19.117v16.236H311.79z"/><path d="M330.906 157.335h19.117v16.236h-19.117z"/><path d="M350.022 157.335h19.117v16.236h-19.117z"/><path d="M369.138 157.335h19.117v16.236h-19.117z"/><path d="M388.254 157.335h19.117v16.236h-19.117z"/><path d="M407.37 157.335h19.117v16.236H407.37z"/><path d="M426.485 157.335h10.922v16.236h-10.922zM25.052 141.096h19.117v16.236H25.052z"/><path d="M44.168 141.096h19.117v16.236H44.168z"/><path d="M63.284 141.096h19.117v16.236H63.284z"/><path d="M82.4 141.096h19.117v16.236H82.4z"/><path d="M101.516 141.096h19.117v16.236h-19.117z"/><path d="M120.631 141.096h19.117v16.236h-19.117z"/><path d="M139.747 141.096h19.117v16.236h-19.117z"/><path d="M158.863 141.096h19.117v16.236h-19.117z"/><path d="M177.979 141.096h19.117v16.236h-19.117z"/><path d="M197.095 141.096h19.117v16.236h-19.117z"/><path d="M216.211 141.096h19.117v16.236h-19.117z"/><path d="M235.327 141.096h19.117v16.236h-19.117z"/><path d="M254.442 141.096h19.117v16.236h-19.117z"/><path d="M273.558 141.096h19.117v16.236h-19.117z"/><path d="M292.674 141.096h19.117v16.236h-19.117z"/><path d="M311.79 141.096h19.117v16.236H311.79z"/><path d="M330.906 141.096h19.117v16.236h-19.117z"/><path d="M350.022 141.096h19.117v16.236h-19.117z"/><path d="M369.138 141.096h19.117v16.236h-19.117z"/><path d="M388.254 141.096h19.117v16.236h-19.117z"/><path d="M407.37 141.096h19.117v16.236H407.37z"/><path d="M426.485 141.096h10.922v16.236h-10.922zM25.052 189.814h19.117v16.236H25.052z"/><path d="M44.168 189.814h19.117v16.236H44.168z"/><path d="M63.284 189.814h19.117v16.236H63.284z"/><path d="M82.4 189.814h19.117v16.236H82.4z"/><path d="M101.516 189.814h19.117v16.236h-19.117z"/><path d="M120.631 189.814h19.117v16.236h-19.117z"/><path d="M139.747 189.814h19.117v16.236h-19.117z"/><path d="M158.863 189.814h19.117v16.236h-19.117z"/><path d="M177.979 189.814h19.117v16.236h-19.117z"/><path d="M197.095 189.814h19.117v16.236h-19.117z"/><path d="M216.211 189.814h19.117v16.236h-19.117z"/><path d="M235.327 189.814h19.117v16.236h-19.117z"/><path d="M254.442 189.814h19.117v16.236h-19.117z"/><path d="M273.558 189.814h19.117v16.236h-19.117z"/><path d="M292.674 189.814h19.117v16.236h-19.117z"/><path d="M311.79 189.814h19.117v16.236H311.79z"/><path d="M330.906 189.814h19.117v16.236h-19.117z"/><path d="M350.022 189.814h19.117v16.236h-19.117z"/><path d="M369.138 189.814h19.117v16.236h-19.117z"/><path d="M388.254 189.814h19.117v16.236h-19.117z"/><path d="M407.37 189.814h19.117v16.236H407.37z"/><path d="M426.485 189.814h10.922v16.236h-10.922zm-401.433-16.24h19.117v16.236H25.052z"/><path d="M44.168 173.574h19.117v16.236H44.168z"/><path d="M63.284 173.574h19.117v16.236H63.284z"/><path d="M82.4 173.574h19.117v16.236H82.4z"/><path d="M101.516 173.574h19.117v16.236h-19.117z"/><path d="M120.631 173.574h19.117v16.236h-19.117z"/><path d="M139.747 173.574h19.117v16.236h-19.117z"/><path d="M158.863 173.574h19.117v16.236h-19.117z"/><path d="M177.979 173.574h19.117v16.236h-19.117z"/><path d="M197.095 173.574h19.117v16.236h-19.117z"/><path d="M216.211 173.574h19.117v16.236h-19.117z"/><path d="M235.327 173.574h19.117v16.236h-19.117z"/><path d="M254.442 173.574h19.117v16.236h-19.117z"/><path d="M273.558 173.574h19.117v16.236h-19.117z"/><path d="M292.674 173.574h19.117v16.236h-19.117z"/><path d="M311.79 173.574h19.117v16.236H311.79z"/><path d="M330.906 173.574h19.117v16.236h-19.117z"/><path d="M350.022 173.574h19.117v16.236h-19.117z"/><path d="M369.138 173.574h19.117v16.236h-19.117z"/><path d="M388.254 173.574h19.117v16.236h-19.117z"/><path d="M407.37 173.574h19.117v16.236H407.37z"/><path d="M426.485 173.574h10.922v16.236h-10.922zM25.052 92.378h19.117v16.236H25.052z"/><path d="M44.168 92.378h19.117v16.236H44.168z"/><path d="M63.284 92.378h19.117v16.236H63.284z"/><path d="M82.4 92.378h19.117v16.236H82.4z"/><path d="M101.516 92.378h19.117v16.236h-19.117z"/><path d="M120.631 92.378h19.117v16.236h-19.117z"/><path d="M139.747 92.378h19.117v16.236h-19.117z"/><path d="M158.863 92.378h19.117v16.236h-19.117z"/><path d="M177.979 92.378h19.117v16.236h-19.117z"/><path d="M197.095 92.378h19.117v16.236h-19.117z"/><path d="M216.211 92.378h19.117v16.236h-19.117z"/><path d="M235.327 92.378h19.117v16.236h-19.117z"/><path d="M254.442 92.378h19.117v16.236h-19.117z"/><path d="M273.558 92.378h19.117v16.236h-19.117z"/><path d="M292.674 92.378h19.117v16.236h-19.117z"/><path d="M311.79 92.378h19.117v16.236H311.79z"/><path d="M330.906 92.378h19.117v16.236h-19.117z"/><path d="M350.022 92.378h19.117v16.236h-19.117z"/><path d="M369.138 92.378h19.117v16.236h-19.117z"/><path d="M388.254 92.378h19.117v16.236h-19.117z"/><path d="M407.37 92.378h19.117v16.236H407.37z"/><path d="M426.485 92.378h10.922v16.236h-10.922zM25.052 76.138h19.117v16.236H25.052z"/><path d="M44.168 76.138h19.117v16.236H44.168z"/><path d="M63.284 76.138h19.117v16.236H63.284z"/><path d="M82.4 76.138h19.117v16.236H82.4z"/><path d="M101.516 76.138h19.117v16.236h-19.117z"/><path d="M120.631 76.138h19.117v16.236h-19.117z"/><path d="M139.747 76.138h19.117v16.236h-19.117z"/><path d="M158.863 76.138h19.117v16.236h-19.117z"/><path d="M177.979 76.138h19.117v16.236h-19.117z"/><path d="M197.095 76.138h19.117v16.236h-19.117z"/><path d="M216.211 76.138h19.117v16.236h-19.117z"/><path d="M235.327 76.138h19.117v16.236h-19.117z"/><path d="M254.442 76.138h19.117v16.236h-19.117z"/><path d="M273.558 76.138h19.117v16.236h-19.117z"/><path d="M292.674 76.138h19.117v16.236h-19.117z"/><path d="M311.79 76.138h19.117v16.236H311.79z"/><path d="M330.906 76.138h19.117v16.236h-19.117z"/><path d="M350.022 76.138h19.117v16.236h-19.117z"/><path d="M369.138 76.138h19.117v16.236h-19.117z"/><path d="M388.254 76.138h19.117v16.236h-19.117z"/><path d="M407.37 76.138h19.117v16.236H407.37z"/><path d="M426.485 76.138h10.922v16.236h-10.922zM25.052 59.903h19.117v16.236H25.052z"/><path d="M44.168 59.903h19.117v16.236H44.168z"/><path d="M63.284 59.903h19.117v16.236H63.284z"/><path d="M82.4 59.903h19.117v16.236H82.4z"/><path d="M101.516 59.903h19.117v16.236h-19.117z"/><path d="M120.631 59.903h19.117v16.236h-19.117z"/><path d="M139.747 59.903h19.117v16.236h-19.117z"/><path d="M158.863 59.903h19.117v16.236h-19.117z"/><path d="M177.979 59.903h19.117v16.236h-19.117z"/><path d="M197.095 59.903h19.117v16.236h-19.117z"/><path d="M216.211 59.903h19.117v16.236h-19.117z"/><path d="M235.327 59.903h19.117v16.236h-19.117z"/><path d="M254.442 59.903h19.117v16.236h-19.117z"/><path d="M273.558 59.903h19.117v16.236h-19.117z"/><path d="M292.674 59.903h19.117v16.236h-19.117z"/><path d="M311.79 59.903h19.117v16.236H311.79z"/><path d="M330.906 59.903h19.117v16.236h-19.117z"/><path d="M350.022 59.903h19.117v16.236h-19.117z"/><path d="M369.138 59.903h19.117v16.236h-19.117z"/><path d="M388.254 59.903h19.117v16.236h-19.117z"/><path d="M407.37 59.903h19.117v16.236H407.37z"/><path d="M426.485 59.903h10.922v16.236h-10.922zM25.052 43.663h19.117v16.236H25.052z"/><path d="M44.168 43.663h19.117v16.236H44.168z"/><path d="M63.284 43.663h19.117v16.236H63.284z"/><path d="M82.4 43.663h19.117v16.236H82.4z"/><path d="M101.516 43.663h19.117v16.236h-19.117z"/><path d="M120.631 43.663h19.117v16.236h-19.117z"/><path d="M139.747 43.663h19.117v16.236h-19.117z"/><path d="M158.863 43.663h19.117v16.236h-19.117z"/><path d="M177.979 43.663h19.117v16.236h-19.117z"/><path d="M197.095 43.663h19.117v16.236h-19.117z"/><path d="M216.211 43.663h19.117v16.236h-19.117z"/><path d="M235.327 43.663h19.117v16.236h-19.117z"/><path d="M254.442 43.663h19.117v16.236h-19.117z"/><path d="M273.558 43.663h19.117v16.236h-19.117z"/><path d="M292.674 43.663h19.117v16.236h-19.117z"/><path d="M311.79 43.663h19.117v16.236H311.79z"/><path d="M330.906 43.663h19.117v16.236h-19.117z"/><path d="M350.022 43.663h19.117v16.236h-19.117z"/><path d="M369.138 43.663h19.117v16.236h-19.117z"/><path d="M388.254 43.663h19.117v16.236h-19.117z"/><path d="M407.37 43.663h19.117v16.236H407.37z"/><path d="M426.485 43.663h10.922v16.236h-10.922zM25.052 124.856h19.117v16.236H25.052z"/><path d="M44.168 124.856h19.117v16.236H44.168z"/><path d="M63.284 124.856h19.117v16.236H63.284z"/><path d="M82.4 124.856h19.117v16.236H82.4z"/><path d="M101.516 124.856h19.117v16.236h-19.117z"/><path d="M120.631 124.856h19.117v16.236h-19.117z"/><path d="M139.747 124.856h19.117v16.236h-19.117z"/><path d="M158.863 124.856h19.117v16.236h-19.117z"/><path d="M177.979 124.856h19.117v16.236h-19.117z"/><path d="M197.095 124.856h19.117v16.236h-19.117z"/><path d="M216.211 124.856h19.117v16.236h-19.117z"/><path d="M235.327 124.856h19.117v16.236h-19.117z"/><path d="M254.442 124.856h19.117v16.236h-19.117z"/><path d="M273.558 124.856h19.117v16.236h-19.117z"/><path d="M292.674 124.856h19.117v16.236h-19.117z"/><path d="M311.79 124.856h19.117v16.236H311.79z"/><path d="M330.906 124.856h19.117v16.236h-19.117z"/><path d="M350.022 124.856h19.117v16.236h-19.117z"/><path d="M369.138 124.856h19.117v16.236h-19.117z"/><path d="M388.254 124.856h19.117v16.236h-19.117z"/><path d="M407.37 124.856h19.117v16.236H407.37z"/><path d="M426.485 124.856h10.922v16.236h-10.922zM25.052 108.617h19.117v16.236H25.052z"/><path d="M44.168 108.617h19.117v16.236H44.168z"/><path d="M63.284 108.617h19.117v16.236H63.284z"/><path d="M82.4 108.617h19.117v16.236H82.4z"/><path d="M101.516 108.617h19.117v16.236h-19.117z"/><path d="M120.631 108.617h19.117v16.236h-19.117z"/><path d="M139.747 108.617h19.117v16.236h-19.117z"/><path d="M158.863 108.617h19.117v16.236h-19.117z"/><path d="M177.979 108.617h19.117v16.236h-19.117z"/><path d="M197.095 108.617h19.117v16.236h-19.117z"/><path d="M216.211 108.617h19.117v16.236h-19.117z"/><path d="M235.327 108.617h19.117v16.236h-19.117z"/><path d="M254.442 108.617h19.117v16.236h-19.117z"/><path d="M273.558 108.617h19.117v16.236h-19.117z"/><path d="M292.674 108.617h19.117v16.236h-19.117z"/><path d="M311.79 108.617h19.117v16.236H311.79z"/><path d="M330.906 108.617h19.117v16.236h-19.117z"/><path d="M350.022 108.617h19.117v16.236h-19.117z"/><path d="M369.138 108.617h19.117v16.236h-19.117z"/><path d="M388.254 108.617h19.117v16.236h-19.117z"/><path d="M407.37 108.617h19.117v16.236H407.37z"/><path d="M426.485 108.617h10.922v16.236h-10.922z"/></g><path fill="none" stroke="#E3E3E3" stroke-width=".35" stroke-miterlimit="10" d="M63.284 206.028v2.468m-19.116-2.468v2.468m-19.116 0v-2.468m57.348 0v2.468m19.116-2.468v2.468m19.115-2.468v2.468m19.116-2.468v2.468m19.116-2.468v2.468m19.116-2.468v2.468m19.116-2.468v2.468m19.116-2.468v2.468m19.116-2.468v2.468m19.116-2.468v2.468m19.115-2.468v2.468m19.116-2.468v2.468m19.116-2.468v2.468m19.116-2.468v2.468m19.116-2.468v2.468m19.116-2.468v2.468m19.116-2.468v2.468m19.116-2.468v2.468m19.115-2.468v2.468m10.922-2.468v2.468m0-164.833h4.938m-4.938 32.481h2.622m-2.622 32.482h2.622m-2.622 32.481h3.022m-3.022 32.481h3.022m-3.022 32.481h5.244"/><text transform="translate(446.064 207.793)" fill="#F59900" font-family="'Roboto-Regular'" font-size="8">0</text><text transform="translate(22.8 218.319)" fill="#535454" font-family="'Roboto-Regular'" font-size="8">8</text><text transform="translate(38.771 218.319)" fill="#535454" font-family="'Roboto-Regular'" font-size="8">15</text><text transform="translate(55.844 219.308)"><tspan x="-23.467" y="8.882" fill="#535454" font-family="'Roboto-Regular'" font-size="8">январь 2018</tspan></text><text transform="translate(132.684 219.308)"><tspan x="-26.795" y="8.882" fill="#535454" font-family="'Roboto-Regular'" font-size="8">февраль 2018</tspan></text><text transform="translate(209.386 219.308)"><tspan x="-19.465" y="8.882" fill="#535454" font-family="'Roboto-Regular'" font-size="8">ма</tspan><tspan x="-9.098" y="8.882" fill="#535454" font-family="'Roboto-Regular'" font-size="8">р</tspan><tspan x="-4.633" y="8.882" fill="#535454" font-family="'Roboto-Regular'" font-size="8">т 2018</tspan></text><text transform="translate(294.758 219.308)"><tspan x="-23.229" y="8.882" fill="#535454" font-family="'Roboto-Regular'" font-size="8">апрель 2018</tspan></text><text transform="translate(379.886 219.308)"><tspan x="-17.459" y="8.882" fill="#535454" font-family="'Roboto-Regular'" font-size="8">май 2018</tspan></text><text transform="translate(59.077 218.319)" fill="#535454" font-family="'Roboto-Regular'" font-size="8">22</text><text transform="translate(79.385 218.319)" fill="#535454" font-family="'Roboto-Regular'" font-size="8">29</text><text transform="translate(99.86 218.319)" fill="#535454" font-family="'Roboto-Regular'" font-size="8">5</text><text transform="translate(115.83 218.319)" fill="#535454" font-family="'Roboto-Regular'" font-size="8">12</text><text transform="translate(136.137 218.319)" fill="#535454" font-family="'Roboto-Regular'" font-size="8">19</text><text transform="translate(156.443 218.319)" fill="#535454" font-family="'Roboto-Regular'" font-size="8">26</text><text transform="translate(176.917 218.319)" fill="#535454" font-family="'Roboto-Regular'" font-size="8">5</text><text transform="translate(192.89 218.319)" fill="#535454" font-family="'Roboto-Regular'" font-size="8">12</text><text transform="translate(213.194 218.319)" fill="#535454" font-family="'Roboto-Regular'" font-size="8">19</text><text transform="translate(233.501 218.319)" fill="#535454" font-family="'Roboto-Regular'" font-size="8">26</text><text transform="translate(253.977 218.319)" fill="#535454" font-family="'Roboto-Regular'" font-size="8">2</text><text transform="translate(270.115 218.319)" fill="#535454" font-family="'Roboto-Regular'" font-size="8">9</text><text transform="translate(286.088 218.319)" fill="#535454" font-family="'Roboto-Regular'" font-size="8">16</text><text transform="translate(306.395 218.319)" fill="#535454" font-family="'Roboto-Regular'" font-size="8">23</text><text transform="translate(326.7 218.319)" fill="#535454" font-family="'Roboto-Regular'" font-size="8">30</text><text transform="translate(347.176 218.319)" fill="#535454" font-family="'Roboto-Regular'" font-size="8">7</text><text transform="translate(363.146 218.319)" fill="#535454" font-family="'Roboto-Regular'" font-size="8">14</text><text transform="translate(383.452 218.319)" fill="#535454" font-family="'Roboto-Regular'" font-size="8">21</text><text transform="translate(403.759 218.319)" fill="#535454" font-family="'Roboto-Regular'" font-size="8">28</text><text transform="translate(424.233 218.319)" fill="#535454" font-family="'Roboto-Regular'" font-size="8">4</text><text transform="translate(435.154 218.319)" fill="#535454" font-family="'Roboto-Regular'" font-size="8">8</text><text transform="translate(25.053 13.696)"><tspan x="0" y="0" fill="#535454" font-family="'DINPro-Medium'" font-size="16">Г</tspan><tspan x="8.4" y="0" fill="#535454" font-family="'DINPro-Medium'" font-size="16">рафик </tspan><tspan x="58.463" y="0" fill="#535454" font-family="'DINPro-Medium'" font-size="16">д</tspan><tspan x="67.312" y="0" fill="#535454" font-family="'DINPro-Medium'" font-size="16">охо</tspan><tspan x="91.583" y="0" fill="#535454" font-family="'DINPro-Medium'" font-size="16">дно</tspan><tspan x="118.351" y="0" fill="#535454" font-family="'DINPro-Medium'" font-size="16">с</tspan><tspan x="126.19" y="0" fill="#535454" font-family="'DINPro-Medium'" font-size="16">ти фо</tspan><tspan x="166.285" y="0" fill="#535454" font-family="'DINPro-Medium'" font-size="16">н</tspan><tspan x="175.294" y="0" fill="#535454" font-family="'DINPro-Medium'" font-size="16">да</tspan><tspan x="0" y="18.83" fill="#6E9ED4" font-family="'Roboto-Regular'" font-size="12">°</tspan><tspan x="4.471" y="15.83" fill="#6E9ED4" font-family="'Roboto-Regular'" font-size="12"> USD </tspan><tspan x="42.967" y="18.83" fill="#F59900" font-family="'Roboto-Regular'" font-size="12">°</tspan><tspan x="47.438" y="15.83" fill="#F59900" font-family="'Roboto-Regular'" font-size="12"> Bitcoin</tspan></text><text transform="translate(435.135 219.308)"><tspan x="0" y="8.882" fill="#535454" font-family="'Roboto-Regular'" font-size="8">июнь 2018</tspan></text><text transform="translate(446.064 175.145)" fill="#F59900" font-family="'Roboto-Regular'" font-size="8">40 %</text><text transform="translate(446.064 142.499)" fill="#F59900" font-family="'Roboto-Regular'" font-size="8">80 %</text><text transform="translate(446.064 44.558)" fill="#F59900" font-family="'Roboto-Regular'" font-size="8">200 %</text><text transform="translate(446.064 77.205)" fill="#F59900" font-family="'Roboto-Regular'" font-size="8">160 %</text><text transform="translate(446.064 109.85)" fill="#F59900" font-family="'Roboto-Regular'" font-size="8">120 %</text><path fill="none" stroke="#E3E3E3" stroke-width=".35" stroke-miterlimit="10" d="M20.115 43.663h4.937M22.43 76.144h2.622m-2.622 32.482h2.622m-3.022 32.481h3.022m-3.022 32.481h3.022m-5.244 32.481h5.244"/><text transform="translate(12.344 207.793)" fill="#6E9ED4" font-family="'Roboto-Regular'" font-size="8">0</text><text transform="translate(4.504 175.145)" fill="#6E9ED4" font-family="'Roboto-Regular'" font-size="8">5 %</text><text transform="translate(0 142.499)" fill="#6E9ED4" font-family="'Roboto-Regular'" font-size="8">10 %</text><text transform="translate(0 44.558)" fill="#6E9ED4" font-family="'Roboto-Regular'" font-size="8">25 %</text><text transform="translate(0 77.205)" fill="#6E9ED4" font-family="'Roboto-Regular'" font-size="8">20 %</text><text transform="translate(0 109.85)" fill="#6E9ED4" font-family="'Roboto-Regular'" font-size="8">15 %</text><path fill="none" stroke="#535454" stroke-width=".35" stroke-miterlimit="10" d="M23.633 226.631H31.5m48.688 0h7.866m11.974 0h5.062m55.188 0h4.835m11.973 0h10.489m43.622 0h10.489m105.657 0h13.111m38.864 0h13.11m11.974 0h5.245m-175.502 0h15.733m49.759 0h15.733"/><path fill="none" stroke="#F59900" stroke-width="1.5" stroke-linecap="round" stroke-linejoin="round" stroke-miterlimit="10" d="M25.052 192.295l2.852-2.361 2.684 2.754 2.852-11.413 2.684 4.198 2.852 2.493 2.852-3.936 2.684.131 2.852-21.514 2.684-3.28 2.852.394 2.852 2.1 2.684 12.33 2.852-11.937 2.684-9.84 2.852.92 2.852 6.034 2.684-3.018 2.852-1.05 2.685 3.15 2.851 2.492 2.852-6.297 2.685-16.53 2.852 2.1 2.684-18.104 2.852-3.804 2.852 7.215 2.684-20.465 2.852-34.37 2.852 20.596 2.684-3.28 2.852 8.79 2.684 15.61 2.852-3.935 2.852-10.888 2.684 17.84 2.852-10.625 2.684 21.777 2.852 8.264 2.852 1.574 2.684 12.2 2.852-10.232 2.684 10.626 2.852.656 2.852-10.495 2.684-9.183 2.852 5.641 2.684-7.346 2.852-1.837 2.852 11.545 2.684 3.148 2.852-2.886 2.852 7.74 2.684 1.443 2.852 4.591 2.684-.262 2.852-.262 2.852-8.396 2.684-10.889 2.852-10.494 2.684-.656 2.852-8.265 2.852 13.25 2.684-7.215 2.852.393 2.685-19.94 2.851 1.706 2.852.393 2.685-8.396 2.851 7.347 2.685 8.264 2.852 5.772 2.851-.393 2.685-3.28 2.852 4.067 2.684-7.215 2.852-2.1 2.852-6.165 2.684-8.395 2.852 3.935 2.852-22.039 2.684-6.69h2.852v1.574l2.684-4.067 2.852 7.74 2.852 10.626 2.684-18.89 2.852.262 2.684-3.017 2.852 8.527 2.852 2.36 2.684-5.771 2.852 1.574 2.684 3.017 2.852 23.089 2.852-.787 2.684 1.574 2.852 3.148 2.684-2.23 2.852-4.198 2.852 5.641 2.684 1.837 2.852 9.183 2.852.655 2.684-2.36 2.852 1.705 2.684 10.757 2.852-11.413 2.852 6.428 2.684-6.035 2.852 6.166 2.684 1.312 2.852-2.755v1.443l2.852-3.41 2.684 1.573 2.852 6.822 2.685-3.936 2.852.919 2.851-1.443 2.685-4.854 2.852-1.837 2.684 2.1 2.852-4.068 2.852-13.118 2.684 1.05 2.852 4.722 2.684-.656 2.852-3.017 2.852-3.41 2.684-5.117 2.852 3.673 2.852-.393 2.684 4.853 2.852-2.099 2.684-8.527 2.852-13.118 2.852 2.23 2.684-2.755 2.852-3.28 2.684-.13 2.852-6.69 2.852 10.363 2.684-2.755 2.852 3.017 2.684.525 2.852 3.41 2.852 2.1 2.684-4.723 2.852 3.542"/><path fill="none" stroke="#6E9ED4" stroke-width="1.5" stroke-linecap="round" stroke-linejoin="round" stroke-miterlimit="10" d="M25.052 205.634l2.746-10.253 2.907 8.056 2.746-.244 2.746-1.343 2.746 1.221 2.745-1.587 2.746-.366 2.746 3.052 2.746-13.915 2.907-.976 2.746-2.93 2.746-3.295 2.746 1.586 2.745-.122 2.746-5.98 2.746 1.22 2.746-1.098 2.907-1.953 2.746-2.32 2.746-1.22 2.745-.244 2.746-5.493 2.746-5.492 2.746-.123h2.746l2.907-.976 2.746-1.83 2.746.976 2.745-1.71 2.746-1.708 2.746-6.225 2.746-2.807 2.907-.244 2.746-5.249 2.746-1.098 2.746 2.197 2.745-.977 2.746 2.93 2.746-1.465 2.746-3.418 2.907-2.197 2.746-3.662 2.746 2.808 2.746-1.343 2.745-1.343h2.746l2.746 3.784 2.746-.854 2.907-.977 2.746 1.465 2.746-1.342 2.745 2.929 2.746-.977h2.746l2.746-3.051 2.907-2.93 2.746 2.93 2.746.732 2.746 2.808 2.745-1.099 2.746 1.22 2.746.855 2.746-.854 2.907-.122 2.746-.122 2.746-2.808 2.746.977 2.745 1.586 2.746 4.395 2.746-1.831 2.746-1.831 2.907-1.465 2.746-.976 2.746 1.342 2.746-.488 2.745 1.587 2.746-.61 2.746 2.075 2.746.366 2.907 1.098 2.746 3.418 2.746 2.197h2.745v-3.174l2.746-1.342 2.746 1.098 2.746-.366 2.907-.366 2.746 2.807 2.746 6.958 2.746-2.075 2.745-4.883 2.746 6.591 2.746-.488 2.746-1.464 2.907-13.305 2.746-.732 2.746-3.784 2.746-3.662 2.745 2.441 2.746-.976 2.746-3.296 2.746-2.44 2.907-13.915 2.746-1.831 2.746.976 2.745-5.492 2.746-10.864 2.746 14.281 2.746-6.225 2.746 3.296 2.907-8.422 2.746 1.587h2.746v6.225l2.745-.61 2.746-4.029 2.746-11.595 2.746-14.891 2.907-5.737 2.746 9.643 2.746-.489 2.746 6.714 2.745-1.831 2.746 7.201h2.746l2.746-2.441 2.907-.244 2.746-1.099 2.746 5.615 2.746-1.587 2.745 6.47 2.746-2.93 2.746-.244 2.746-7.202 2.907 3.418 2.746 4.76 2.746-.244 2.745-.366 2.746 2.807 2.746 1.343 2.746-1.343 2.746 2.075 2.907-1.586 2.746-.367 2.746-.854 2.745-.488 2.746-.733 2.746 1.099 2.746 4.76 2.907-.366"/></svg>