<svg xmlns="http://www.w3.org/2000/svg" viewBox="0 0 475.107 230.358"><path fill="none" stroke="#F59900" stroke-width="1.5" stroke-linecap="round" stroke-linejoin="round" stroke-miterlimit="10" d="M25.052 192.295l2.852-2.361 2.684 2.754 2.852-11.413 2.684 4.198 2.852 2.493 2.852-3.936 2.684.131 2.852-21.514 2.684-3.28 2.852.394 2.852 2.1 2.684 12.33 2.852-11.937 2.684-9.84 2.852.92 2.852 6.034 2.684-3.018 2.852-1.05 2.685 3.15 2.851 2.492 2.852-6.297 2.685-16.53 2.852 2.1 2.684-18.104 2.852-3.804 2.852 7.215 2.684-20.465 2.852-34.37 2.852 20.596 2.684-3.28 2.852 8.79 2.684 15.61 2.852-3.935 2.852-10.888 2.684 17.84 2.852-10.625 2.684 21.777 2.852 8.264 2.852 1.574 2.684 12.2 2.852-10.232 2.684 10.626 2.852.656 2.852-10.495 2.684-9.183 2.852 5.641 2.684-7.346 2.852-1.837 2.852 11.545 2.684 3.148 2.852-2.886 2.852 7.74 2.684 1.443 2.852 4.591 2.684-.262 2.852-.262 2.852-8.396 2.684-10.889 2.852-10.494 2.684-.656 2.852-8.265 2.852 13.25 2.684-7.215 2.852.393 2.685-19.94 2.851 1.706 2.852.393 2.685-8.396 2.851 7.347 2.685 8.264 2.852 5.772 2.851-.393 2.685-3.28 2.852 4.067 2.684-7.215 2.852-2.1 2.852-6.165 2.684-8.395 2.852 3.935 2.852-22.039 2.684-6.69h2.852v1.574l2.684-4.067 2.852 7.74 2.852 10.626 2.684-18.89 2.852.262 2.684-3.017 2.852 8.527 2.852 2.36 2.684-5.771 2.852 1.574 2.684 3.017 2.852 23.089 2.852-.787 2.684 1.574 2.852 3.148 2.684-2.23 2.852-4.198 2.852 5.641 2.684 1.837 2.852 9.183 2.852.655 2.684-2.36 2.852 1.705 2.684 10.757 2.852-11.413 2.852 6.428 2.684-6.035 2.852 6.166 2.684 1.312 2.852-2.755v1.443l2.852-3.41 2.684 1.573 2.852 6.822 2.685-3.936 2.852.919 2.851-1.443 2.685-4.854 2.852-1.837 2.684 2.1 2.852-4.068 2.852-13.118 2.684 1.05 2.852 4.722 2.684-.656 2.852-3.017 2.852-3.41 2.684-5.117 2.852 3.673 2.852-.393 2.684 4.853 2.852-2.099 2.684-8.527 2.852-13.118 2.852 2.23 2.684-2.755 2.852-3.28 2.684-.13 2.852-6.69 2.852 10.363 2.684-2.755 2.852 3.017 2.684.525 2.852 3.41 2.852 2.1 2.684-4.723 2.852 3.542"/><path fill="none" stroke="#6E9ED4" stroke-width="1.5" stroke-linecap="round" stroke-linejoin="round" stroke-miterlimit="10" d="M25.052 205.634l2.746-10.253 2.907 8.056 2.746-.244 2.746-1.343 2.746 1.221 2.745-1.587 2.746-.366 2.746 3.052 2.746-13.915 2.907-.976 2.746-2.93 2.746-3.295 2.746 1.586 2.745-.122 2.746-5.98 2.746 1.22 2.746-1.098 2.907-1.953 2.746-2.32 2.746-1.22 2.745-.244 2.746-5.493 2.746-5.492 2.746-.123h2.746l2.907-.976 2.746-1.83 2.746.976 2.745-1.71 2.746-1.708 2.746-6.225 2.746-2.807 2.907-.244 2.746-5.249 2.746-1.098 2.746 2.197 2.745-.977 2.746 2.93 2.746-1.465 2.746-3.418 2.907-2.197 2.746-3.662 2.746 2.808 2.746-1.343 2.745-1.343h2.746l2.746 3.784 2.746-.854 2.907-.977 2.746 1.465 2.746-1.342 2.745 2.929 2.746-.977h2.746l2.746-3.051 2.907-2.93 2.746 2.93 2.746.732 2.746 2.808 2.745-1.099 2.746 1.22 2.746.855 2.746-.854 2.907-.122 2.746-.122 2.746-2.808 2.746.977 2.745 1.586 2.746 4.395 2.746-1.831 2.746-1.831 2.907-1.465 2.746-.976 2.746 1.342 2.746-.488 2.745 1.587 2.746-.61 2.746 2.075 2.746.366 2.907 1.098 2.746 3.418 2.746 2.197h2.745v-3.174l2.746-1.342 2.746 1.098 2.746-.366 2.907-.366 2.746 2.807 2.746 6.958 2.746-2.075 2.745-4.883 2.746 6.591 2.746-.488 2.746-1.464 2.907-13.305 2.746-.732 2.746-3.784 2.746-3.662 2.745 2.441 2.746-.976 2.746-3.296 2.746-2.44 2.907-13.915 2.746-1.831 2.746.976 2.745-5.492 2.746-10.864 2.746 14.281 2.746-6.225 2.746 3.296 2.907-8.422 2.746 1.587h2.746v6.225l2.745-.61 2.746-4.029 2.746-11.595 2.746-14.891 2.907-5.737 2.746 9.643 2.746-.489 2.746 6.714 2.745-1.831 2.746 7.201h2.746l2.746-2.441 2.907-.244 2.746-1.099 2.746 5.615 2.746-1.587 2.745 6.47 2.746-2.93 2.746-.244 2.746-7.202 2.907 3.418 2.746 4.76 2.746-.244 2.745-.366 2.746 2.807 2.746 1.343 2.746-1.343 2.746 2.075 2.907-1.586 2.746-.367 2.746-.854 2.745-.488 2.746-.733 2.746 1.099 2.746 4.76 2.907-.366"/></svg>