<svg xmlns="http://www.w3.org/2000/svg" xmlns:xlink="http://www.w3.org/1999/xlink" viewBox="0 0 474.138 290.885"><path fill="#ECECEC" d="M467.614 263.875c0 .644-.163 1.152-.49 1.527s-.767.563-1.318.563c-.55 0-.99-.188-1.319-.563s-.494-.883-.494-1.527v-1.672c0-.638.163-1.145.49-1.523s.765-.567 1.315-.567c.552 0 .993.189 1.322.567s.494.885.494 1.523v1.672zm-.77-1.832c0-.41-.09-.731-.273-.969s-.44-.355-.773-.355c-.331 0-.586.118-.766.355s-.27.56-.27.969v1.988c0 .41.092.734.276.973s.44.36.768.36c.333 0 .59-.12.77-.358s.269-.564.269-.975v-1.988zM3.945 275.398v4.227h-.77v-1.64H2.134l-1 1.64H.305l1.07-1.754c-.269-.097-.475-.249-.62-.457s-.216-.45-.216-.723c0-.38.144-.69.432-.931s.684-.362 1.19-.362h1.784zM1.313 276.7c0 .188.063.348.19.48s.32.2.575.2h1.098v-1.383H2.16c-.278 0-.49.07-.633.21s-.214.303-.214.493zm7.21 2.925h-.77v-1.797H5.872v1.797h-.77v-4.227h.77v1.829h1.883v-1.829h.77v4.227zm1.129 0v-4.227h1.668c.558 0 .99.097 1.297.291s.461.486.461.873c0 .199-.06.375-.18.53s-.289.272-.507.353c.262.066.467.187.615.366s.22.381.22.61c0 .396-.143.696-.431.9s-.69.304-1.205.304H9.652zm.77-2.441h.902c.325 0 .572-.048.737-.145s.248-.242.248-.437c0-.2-.083-.352-.25-.454s-.413-.152-.739-.152h-.898v1.188zm0 .59v1.257h1.168c.284 0 .499-.053.644-.162s.22-.264.22-.467c0-.2-.074-.355-.22-.465s-.36-.164-.644-.164h-1.168zm6.371 1.851c-.026-.128-.046-.24-.06-.338s-.023-.196-.026-.295c-.144.203-.33.373-.56.51s-.479.205-.745.205c-.44 0-.775-.112-1.006-.338s-.345-.536-.345-.932c0-.403.163-.72.49-.947s.77-.342 1.33-.342h.836v-.418c0-.247-.075-.443-.227-.587s-.364-.217-.64-.217c-.25 0-.452.062-.606.187s-.23.275-.23.45l-.73.007-.008-.023c-.019-.308.126-.589.431-.844s.701-.383 1.186-.383c.48 0 .864.122 1.156.366s.438.594.438 1.052v2.035c0 .152.007.297.023.438s.044.278.086.414h-.793zm-1.277-.563c.278 0 .53-.07.754-.214s.37-.308.437-.493v-.687h-.863c-.31 0-.558.078-.744.234s-.28.34-.28.551c0 .188.059.336.176.445s.29.164.52.164zm6.679-1.39c0 .61-.145 1.1-.437 1.474s-.695.561-1.207.561c-.261 0-.49-.044-.686-.13s-.364-.219-.502-.393v2.066h-.77v-5.852h.59l.122.547c.137-.203.31-.358.515-.465s.446-.16.72-.16c.523 0 .93.208 1.22.623s.435.964.435 1.647v.082zm-.77-.082c0-.48-.094-.873-.282-1.182s-.467-.463-.834-.463c-.222 0-.41.05-.567.15s-.282.238-.379.413v2.043c.097.175.223.31.38.408s.347.146.573.146c.365 0 .641-.133.829-.4s.28-.611.28-1.033v-.082zm2.525-.582H25c.5 0 .889.12 1.166.36s.416.55.416.933c0 .386-.14.702-.42.951s-.667.373-1.162.373h-1.82v-4.227h.77v1.61zm0 .601v1.414H25c.276 0 .48-.066.611-.199s.198-.298.198-.496c0-.192-.067-.36-.2-.504s-.336-.215-.609-.215h-1.05zM8.574 288.717H5.043v-.528l1.785-2.128c.318-.386.533-.693.647-.92s.17-.458.17-.69c0-.263-.078-.478-.23-.646s-.367-.252-.638-.252c-.336 0-.591.102-.767.308s-.264.462-.264.77h-.742l-.008-.024c-.013-.463.142-.856.465-1.177s.762-.483 1.316-.483c.508 0 .908.14 1.2.422s.437.645.437 1.09c0 .3-.083.593-.248.879s-.417.645-.756 1.078l-1.433 1.68.007.02h2.59v.6zm4.449-2.008c0 .644-.163 1.152-.49 1.527s-.766.563-1.318.563c-.55 0-.99-.188-1.319-.563s-.494-.883-.494-1.527v-1.672c0-.638.163-1.145.49-1.523s.765-.567 1.315-.567c.552 0 .993.189 1.322.567s.494.885.494 1.523v1.672zm-.77-1.832c0-.41-.09-.731-.273-.969s-.44-.355-.773-.355c-.331 0-.586.118-.766.355s-.27.56-.27.969v1.988c0 .41.093.734.276.973s.44.36.768.36c.333 0 .59-.12.77-.358s.269-.564.269-.975v-1.988zm3.985 3.84h-.773v-4.977l-1.238.012v-.594l2.011-.21v5.769zm5.883-5.082c-.719.854-1.204 1.608-1.457 2.261s-.379 1.387-.379 2.2v.62h-.77v-.62c0-.86.159-1.634.475-2.323s.775-1.4 1.373-2.138h-3.015v-.606h3.773v.606zm11.566-6.045c0-.68.145-1.228.435-1.645s.697-.625 1.22-.625c.23 0 .437.036.622.108s.347.176.484.314v-2.21h.77v2.273c.143-.16.313-.28.51-.362s.42-.123.67-.123c.52 0 .926.208 1.216.623s.436.964.436 1.647v.082c0 .61-.146 1.1-.438 1.474s-.694.561-1.207.561c-.253 0-.477-.039-.676-.117s-.368-.193-.511-.344v2.004h-.77v-1.965c-.14.14-.302.246-.486.317s-.393.105-.627.105c-.516 0-.919-.186-1.211-.56s-.437-.866-.437-1.475v-.082zm.77.082c0 .427.087.772.263 1.037s.446.396.81.396c.211 0 .392-.046.541-.14s.276-.226.377-.395v-2.132c-.101-.16-.227-.285-.377-.375s-.327-.137-.533-.137c-.367 0-.64.155-.816.467s-.266.71-.266 1.197v.082zm4.823-.082c0-.482-.094-.88-.283-1.194s-.467-.47-.834-.47c-.222 0-.41.052-.566.154s-.283.243-.38.42v2.05c.097.176.223.311.38.409s.347.146.574.146c.364 0 .64-.132.828-.398s.281-.61.281-1.035v-.082zm3.465 2.117c-.606 0-1.08-.194-1.42-.582s-.51-.898-.51-1.531v-.172c0-.607.175-1.109.526-1.506s.778-.596 1.283-.596c.565 0 .99.176 1.272.528s.423.819.423 1.402v.406h-2.703l-.012.02c0 .425.094.768.282 1.033s.473.396.86.396c.26 0 .488-.037.685-.11s.365-.178.506-.307l.3.5c-.151.145-.35.268-.597.369s-.546.15-.895.15zm-.121-3.781c-.269 0-.49.103-.666.31s-.283.472-.322.795l.008.02h1.906v-.063c0-.307-.075-.561-.227-.761s-.384-.301-.699-.301zm2.563 3.699v-4.227h1.667c.558 0 .99.097 1.297.291s.461.486.461.873c0 .199-.06.375-.18.53s-.288.272-.507.353c.262.066.468.187.615.366s.22.381.22.61c0 .396-.143.696-.43.9s-.69.304-1.206.304h-1.937zm.77-2.441h.901c.326 0 .572-.048.737-.145s.248-.242.248-.437c0-.2-.083-.352-.25-.454s-.413-.152-.739-.152h-.898v1.188zm0 .59v1.257h1.167c.284 0 .499-.053.645-.162s.218-.264.218-.467c0-.2-.073-.355-.218-.465s-.36-.164-.645-.164h-1.168zm7.374-.102c0 .61-.145 1.1-.437 1.474s-.695.561-1.207.561c-.261 0-.49-.044-.686-.13s-.364-.219-.502-.393v2.066h-.77v-5.852h.59l.121.547c.138-.203.31-.358.516-.465s.445-.16.719-.16c.523 0 .93.208 1.22.623s.436.964.436 1.647v.082zm-.77-.082c0-.48-.094-.873-.283-1.182s-.466-.463-.834-.463c-.221 0-.41.05-.566.15s-.282.238-.379.413v2.043c.097.175.223.31.379.408s.348.146.574.146c.364 0 .64-.133.828-.4s.282-.611.282-1.033v-.082zm4.313 2.035c-.026-.128-.046-.24-.06-.338s-.023-.196-.026-.295c-.143.203-.33.373-.56.51s-.479.205-.745.205c-.44 0-.775-.112-1.005-.338s-.346-.536-.346-.932c0-.403.163-.72.49-.947s.77-.342 1.33-.342h.836v-.418c0-.247-.075-.443-.226-.587s-.365-.217-.641-.217c-.25 0-.452.062-.606.187s-.23.275-.23.45l-.73.007-.008-.023c-.019-.308.126-.589.431-.844s.701-.383 1.186-.383c.48 0 .864.122 1.156.366s.438.594.438 1.052v2.035c0 .152.007.297.023.438s.044.278.086.414h-.793zm-1.277-.563c.278 0 .53-.07.754-.214s.37-.308.437-.493v-.687h-.863c-.31 0-.558.078-.744.234s-.28.34-.28.551c0 .188.059.336.176.445s.29.164.52.164zm6.503-3.664v4.227h-.769v-3.617h-1.43v1.195c0 .833-.11 1.445-.332 1.836s-.598.586-1.132.586h-.22l.016-.656.16-.004c.274 0 .464-.134.573-.4s.162-.721.162-1.362v-1.805H62.1zm1.81 1.61h1.05c.5 0 .889.12 1.166.36s.416.55.416.933c0 .386-.14.702-.42.951s-.667.373-1.162.373h-1.82v-4.227h.77v1.61zm0 .601v1.414h1.05c.276 0 .48-.066.611-.199s.198-.298.198-.496c0-.192-.067-.36-.2-.504s-.336-.215-.609-.215h-1.05zm16.32 1.008h.024l1.383-3.219h.96v4.227h-.769v-2.934l-.023-.007-1.297 2.941h-.531l-1.32-3.008-.024.008v3h-.77v-4.227h.992l1.375 3.22zm6.16 1.008c-.026-.128-.045-.24-.06-.338s-.022-.196-.025-.295c-.144.203-.33.373-.56.51s-.48.205-.745.205c-.44 0-.775-.112-1.006-.338s-.346-.536-.346-.931c0-.404.164-.72.49-.948s.771-.342 1.33-.342h.837v-.418c0-.247-.076-.443-.227-.587s-.364-.217-.64-.217c-.25 0-.453.062-.606.187s-.23.275-.23.45l-.73.007-.009-.023c-.018-.308.126-.589.432-.844s.701-.383 1.185-.383c.48 0 .865.122 1.157.366s.437.594.437 1.052v2.035c0 .152.008.297.024.438s.044.278.086.414h-.793zm-1.277-.563c.279 0 .53-.07.754-.214s.37-.308.438-.493v-.687h-.864c-.31 0-.557.078-.744.234s-.279.34-.279.551c0 .188.059.336.176.445s.29.164.52.164zm6.68-1.39c0 .61-.146 1.1-.438 1.474s-.694.561-1.207.561c-.26 0-.489-.044-.685-.13s-.364-.219-.502-.393v2.066h-.77v-5.852h.59l.121.547c.138-.203.31-.358.516-.465s.445-.16.719-.16c.523 0 .93.208 1.22.623s.436.964.436 1.647v.082zm-.77-.082c0-.48-.094-.873-.283-1.182s-.467-.463-.834-.463c-.221 0-.41.05-.566.15s-.282.238-.38.413v2.043c.098.175.224.31.38.408s.347.146.574.146c.364 0 .64-.133.828-.4s.281-.611.281-1.033v-.082zm4.891-1.594H94.52v3.629h-.77v-3.629h-1.375v-.598h3.54v.598zm17.377 3.629c-.026-.128-.046-.24-.06-.338s-.023-.196-.026-.295c-.143.203-.33.373-.56.51s-.479.205-.745.205c-.44 0-.775-.112-1.005-.338s-.346-.536-.346-.932c0-.403.163-.72.49-.947s.77-.342 1.33-.342h.836v-.418c0-.247-.075-.443-.226-.587s-.365-.217-.641-.217c-.25 0-.452.062-.606.187s-.23.275-.23.45l-.73.007-.008-.023c-.019-.308.126-.589.431-.844s.701-.383 1.186-.383c.48 0 .864.122 1.156.366s.438.594.438 1.052v2.035c0 .152.007.297.023.438s.044.278.086.414h-.793zm-1.277-.563c.278 0 .53-.07.754-.214s.37-.308.437-.493v-.687h-.863c-.31 0-.558.078-.744.234s-.28.34-.28.551c0 .188.059.336.176.445s.29.164.52.164zm6.504.563h-.77v-3.617h-1.887v3.617h-.77v-4.227h3.427v4.227zm4.722-1.953c0 .61-.145 1.1-.437 1.474s-.695.561-1.207.561c-.261 0-.49-.044-.686-.13s-.364-.219-.502-.393v2.066h-.77v-5.852h.59l.122.547c.137-.203.31-.358.515-.465s.446-.16.719-.16c.523 0 .93.208 1.22.623s.436.964.436 1.647v.082zm-.77-.082c0-.48-.094-.873-.283-1.182s-.466-.463-.833-.463c-.222 0-.41.05-.567.15s-.282.238-.379.413v2.043c.097.175.223.31.38.408s.347.146.573.146c.365 0 .641-.133.828-.4s.282-.611.282-1.033v-.082zm3.466 2.117c-.607 0-1.08-.194-1.42-.582s-.51-.898-.51-1.531v-.172c0-.607.175-1.109.525-1.506s.779-.596 1.283-.596c.566 0 .99.176 1.272.528s.424.819.424 1.402v.406h-2.703l-.012.02c0 .425.094.768.281 1.033s.474.396.86.396c.26 0 .489-.037.685-.11s.365-.178.506-.307l.3.5c-.15.145-.35.268-.597.369s-.546.15-.894.15zm-.122-3.781c-.268 0-.49.103-.666.31s-.283.472-.322.795l.008.02h1.906v-.063c0-.307-.075-.561-.226-.761s-.384-.301-.7-.301zm5.985-.528v4.227h-.77v-3.617h-1.43v1.195c0 .833-.11 1.445-.331 1.836s-.6.586-1.133.586h-.219l.016-.656.16-.004c.273 0 .464-.134.572-.4s.162-.721.162-1.362v-1.805h2.973zm1.808 1.61h1.051c.5 0 .889.12 1.166.36s.416.55.416.933c0 .386-.14.702-.42.951s-.667.373-1.162.373h-1.82v-4.227h.77v1.61zm0 .601v1.414h1.051c.277 0 .48-.066.612-.199s.197-.298.197-.496c0-.192-.067-.36-.2-.504s-.335-.215-.609-.215h-1.05zm21.893 1.008h.023l1.383-3.219h.961v4.227h-.77v-2.934l-.023-.007-1.297 2.941h-.53l-1.321-3.008-.024.008v3h-.77v-4.227h.993l1.375 3.22zm6.16 1.008c-.026-.128-.046-.24-.06-.338s-.023-.196-.026-.295c-.143.203-.33.373-.56.51s-.479.205-.744.205c-.44 0-.776-.112-1.006-.338s-.346-.536-.346-.932c0-.403.163-.72.49-.947s.77-.342 1.33-.342h.836v-.418c0-.247-.075-.443-.226-.587s-.365-.217-.641-.217c-.25 0-.452.062-.605.187s-.23.275-.23.45l-.731.007-.008-.023c-.019-.308.126-.589.431-.844s.702-.383 1.186-.383c.48 0 .864.122 1.156.366s.438.594.438 1.052v2.035c0 .152.008.297.023.438s.044.278.086.414h-.793zm-1.277-.563c.278 0 .53-.07.754-.214s.37-.308.437-.493v-.687h-.863c-.31 0-.558.078-.744.234s-.28.34-.28.551c0 .188.06.336.176.445s.29.164.52.164zm5.734-3.664h.77v4.227h-.77v-3l-.023-.008-1.867 3.008h-.766v-4.227h.766v3l.023.008 1.867-3.008zm.203-1.738l.008.024c.01.301-.09.547-.3.738s-.496.285-.852.285c-.36 0-.645-.095-.856-.285s-.31-.437-.297-.738l.008-.024h.59c0 .172.044.312.133.418s.23.16.422.16c.187 0 .327-.053.418-.162s.136-.247.136-.416h.59zm23.534 1.738h.77v4.227h-.77v-3l-.023-.008-1.867 3.008h-.766v-4.227h.766v3l.023.008 1.867-3.008zm2.7 1.786h1c.051-.552.244-1.001.576-1.346s.765-.518 1.299-.518c.586 0 1.049.202 1.388.606s.51.919.51 1.547v.086c0 .63-.169 1.145-.508 1.546s-.8.602-1.382.602c-.547 0-.988-.178-1.323-.533s-.522-.819-.564-1.389h-.996v1.84h-.77v-4.227h.77v1.786zm1.758.375c0 .448.094.817.283 1.109s.47.437.842.437c.367 0 .645-.145.835-.437s.286-.661.286-1.11v-.085c0-.443-.096-.812-.287-1.106s-.472-.441-.842-.441c-.367 0-.646.147-.834.441s-.283.663-.283 1.106v.086zm7.382 2.066h-.77v-1.797h-1.882v1.797h-.77v-4.227h.77v1.829h1.883v-1.829h.77v4.227zm1.934-2.617h1.05c.5 0 .89.12 1.167.36s.416.55.416.933c0 .386-.14.702-.42.951s-.667.373-1.162.373h-1.82v-4.227h.769v1.61zm0 .601v1.414h1.05c.277 0 .48-.066.612-.199s.197-.298.197-.496c0-.192-.066-.36-.199-.504s-.336-.215-.61-.215h-1.05zm22.945-2.211h.77v4.227h-.77v-3l-.023-.008-1.867 3.008h-.766v-4.227h.766v3l.023.008 1.867-3.008zm2.699 1.786h1c.052-.552.245-1.001.577-1.346s.764-.518 1.298-.518c.586 0 1.05.202 1.39.606s.509.919.509 1.547v.086c0 .63-.169 1.145-.508 1.546s-.8.602-1.383.602c-.547 0-.987-.178-1.322-.533s-.522-.819-.564-1.389h-.997v1.84h-.77v-4.227h.77v1.786zm1.758.375c0 .448.095.817.283 1.109s.47.437.842.437c.367 0 .646-.145.836-.437s.285-.661.285-1.11v-.085c0-.443-.095-.812-.287-1.106s-.471-.441-.842-.441c-.367 0-.645.147-.834.441s-.283.663-.283 1.106v.086zm7.336-2.161v4.227h-.77v-3.617h-1.429v1.195c0 .833-.11 1.445-.332 1.836s-.599.586-1.133.586h-.219l.016-.656.16-.004c.274 0 .464-.134.572-.4s.163-.721.163-1.362v-1.805h2.972zm1.809 1.61h1.05c.5 0 .89.12 1.167.36s.416.55.416.933c0 .386-.14.702-.42.951s-.667.373-1.162.373h-1.82v-4.227h.769v1.61zm0 .601v1.414h1.05c.277 0 .48-.066.612-.199s.197-.298.197-.496c0-.192-.066-.36-.199-.504s-.336-.215-.61-.215h-1.05zM21.293 13.696V3.853h-4.61v9.843h-1.729V2.3h8.067v11.396h-1.728zm10.239-.624c-.447.448-1.136.72-1.969.72-.864 0-1.536-.208-2.128-.928v4.114h-1.632V5.58h1.6v.864c.609-.736 1.28-.96 2.145-.96.832 0 1.537.272 1.984.72.785.8.913 2.097.913 3.426 0 1.328-.128 2.64-.913 3.441zm-2.4-6.13c-1.488 0-1.697 1.248-1.697 2.689 0 1.44.209 2.705 1.697 2.705 1.472 0 1.68-1.265 1.68-2.705 0-1.441-.208-2.69-1.68-2.69zm10.624 6.754V8.11l-3.474 5.586H34.65V5.581h1.632v5.506l3.474-5.506h1.633v8.115h-1.633zm4.446-1.584c-.384-.817-.48-2.225-.48-3.586 0-3.521.192-4.418 1.216-5.298 1.04-.912 2.673-.96 4.867-1.024v1.44c-1.057.096-2.705-.016-3.634.625-.769.512-.977 1.232-.977 2.384.353-.64 1.25-1.056 2.226-1.056.784 0 1.504.24 1.984.688.721.673 1.057 1.889 1.057 3.33 0 1.616-.288 2.545-.992 3.265-.56.576-1.41.912-2.337.912-1.345 0-2.434-.592-2.93-1.68zm4.113-.273c.337-.4.513-1.072.513-2.16s-.144-1.777-.496-2.177c-.305-.336-.752-.512-1.217-.512-.496 0-.928.16-1.232.512-.336.384-.544 1.072-.544 2.144 0 1.153.208 1.777.576 2.193.304.32.72.48 1.2.48.448 0 .897-.143 1.2-.48zm8.08 1.857h-3.761V5.581h1.632v3.057h2.129c1.569 0 2.641 1.025 2.641 2.53 0 1.504-1.072 2.528-2.641 2.528zm-.272-3.713h-1.857v2.385h1.857c.816 0 1.296-.449 1.296-1.2 0-.737-.48-1.185-1.296-1.185zm4.033 3.713V5.581h1.633v8.115h-1.633zm8.99 0v-6.69h-2.352v2.352c0 3.442-1.009 4.338-2.593 4.338h-.768v-1.44h.255c.705 0 1.538-.16 1.538-3.298V5.581h5.553v8.115h-1.633zm8.017 0h-3.777V5.581h1.632v3.057h2.145c1.568 0 2.625 1.025 2.625 2.53 0 1.504-1.057 2.528-2.625 2.528zm-.272-3.713h-1.873v2.385h1.873c.816 0 1.28-.449 1.28-1.2 0-.737-.464-1.185-1.28-1.185zm9.649 3.713V10.24h-3.234v3.457h-1.632V5.581h1.632v3.233h3.233V5.581h1.633v8.115h-1.633zm9.648-.864c-.529.544-1.329.96-2.433.96s-1.889-.416-2.417-.96c-.769-.8-.961-1.825-.961-3.201 0-1.361.192-2.385.96-3.186.53-.544 1.313-.96 2.418-.96s1.904.416 2.433.96c.768.8.96 1.825.96 3.186 0 1.376-.192 2.4-.96 3.201zm-1.233-5.426c-.304-.304-.72-.465-1.2-.465s-.881.16-1.185.465c-.496.496-.56 1.344-.56 2.225s.064 1.728.56 2.224c.304.305.704.48 1.185.48.48 0 .896-.175 1.2-.48.496-.496.56-1.344.56-2.224s-.064-1.73-.56-2.225zm7.6 6.386c-1.826 0-3.618-1.12-3.618-4.161 0-3.042 1.792-4.146 3.618-4.146 1.12 0 1.904.32 2.673 1.137l-1.12 1.088c-.513-.56-.914-.769-1.553-.769-.624 0-1.153.257-1.505.72-.353.449-.48 1.025-.48 1.97 0 .944.127 1.536.48 1.984.352.465.88.72 1.505.72.64 0 1.04-.208 1.552-.768l1.12 1.073c-.768.816-1.552 1.152-2.672 1.152zm7.727-6.787v6.691h-1.633v-6.69h-2.577V5.58h6.692v1.424h-2.482zm7.728 6.691h-3.777V5.581h1.632v3.057h2.146c1.568 0 2.625 1.025 2.625 2.53 0 1.504-1.057 2.528-2.625 2.528zm-.272-3.713h-1.873v2.385h1.873c.817 0 1.28-.449 1.28-1.2 0-.737-.463-1.185-1.28-1.185zm15.058 3.713V8.494l-1.873 3.714h-1.025l-1.905-3.714v5.202h-1.632V5.581h1.617l2.432 4.834 2.417-4.834h1.602v8.115h-1.633zm8.606 0v-.736c-.591.592-1.152.832-2.16.832-1.009 0-1.68-.24-2.178-.736-.416-.432-.64-1.056-.64-1.744 0-1.361.945-2.337 2.818-2.337h2.128v-.577c0-1.04-.496-1.52-1.776-1.52-.865 0-1.313.224-1.777.8l-1.056-1.009c.752-.896 1.537-1.184 2.897-1.184 2.24 0 3.345.96 3.345 2.785v5.426h-1.6zm-.032-3.585h-1.872c-.992 0-1.49.416-1.49 1.168s.466 1.153 1.538 1.153c.576 0 1.04-.064 1.473-.464.255-.24.351-.625.351-1.2v-.657zm9.248 3.585V8.11l-3.473 5.586h-1.632V5.581h1.632v5.506l3.473-5.506h1.633v8.115h-1.633zm-1.728-9.252c-1.297 0-2.385-.576-2.465-2.16h1.297c.063.752.496 1.088 1.168 1.088s1.104-.336 1.169-1.088h1.295c-.063 1.584-1.167 2.16-2.464 2.16zm10.816 9.252V10.24h-3.233v3.457h-1.632V5.581h1.632v3.233h3.233V5.581h1.633v8.115h-1.633zm9.328 0V8.11l-3.473 5.586h-1.632V5.581h1.632v5.506l3.473-5.506h1.633v8.115h-1.633zm9.088 0V10.24h-3.233v3.457h-1.632V5.581h1.632v3.233h3.233V5.581h1.633v8.115h-1.633zm5.919-6.691v6.691h-1.633V5.581h5.267v1.424h-3.634zm9.329 6.691v-.736c-.592.592-1.152.832-2.16.832-1.009 0-1.68-.24-2.178-.736-.416-.432-.64-1.056-.64-1.744 0-1.361.945-2.337 2.818-2.337h2.129v-.577c0-1.04-.497-1.52-1.777-1.52-.865 0-1.313.224-1.777.8l-1.056-1.009c.751-.896 1.536-1.184 2.897-1.184 2.24 0 3.345.96 3.345 2.785v5.426h-1.6zm-.031-3.585h-1.873c-.992 0-1.49.416-1.49 1.168s.465 1.153 1.538 1.153c.576 0 1.04-.064 1.472-.464.256-.24.353-.625.353-1.2v-.657z"/><path fill="#F59900" d="M14.216 25.481c0-.414.148-.772.445-1.075s.65-.454 1.06-.454c.403 0 .75.152 1.04.454s.437.661.437 1.075c0 .422-.144.779-.433 1.07s-.637.436-1.043.436c-.414 0-.769-.145-1.064-.436s-.442-.648-.442-1.07zm.767 0a.722.722 0 0 0 .739.744c.203 0 .374-.07.512-.21s.208-.319.208-.534-.07-.395-.21-.542-.311-.22-.51-.22a.744.744 0 0 0-.738.762zm7.805 3.223h4.77v.902h-6.07v-.855l4.558-6.768h-4.494v-.908h5.812v.826l-4.576 6.803zm8.543.123c.356 0 .666-.118.932-.354s.398-.527.398-.87h1.043l.018.035c.015.547-.22 1.032-.703 1.456s-1.047.635-1.688.635c-.89 0-1.578-.302-2.062-.908s-.727-1.36-.727-2.261v-.247c0-.894.243-1.645.73-2.252s1.172-.912 2.06-.912c.706 0 1.285.22 1.736.657s.67.974.654 1.611l-.012.035h-1.049c0-.387-.126-.716-.378-.987s-.57-.407-.952-.407c-.566 0-.98.22-1.24.659s-.389.971-.389 1.596v.247c0 .636.128 1.173.384 1.61s.67.657 1.245.657zm7.659.779c-.04-.191-.07-.36-.092-.506s-.034-.294-.038-.443c-.214.305-.495.56-.84.765s-.718.307-1.117.307c-.66 0-1.163-.168-1.508-.506s-.519-.804-.519-1.398c0-.605.245-1.079.735-1.42s1.156-.513 1.995-.513h1.254v-.627c0-.371-.113-.665-.34-.882s-.546-.325-.96-.325c-.375 0-.678.093-.909.28s-.345.413-.345.675l-1.096.011-.012-.035c-.027-.46.189-.883.648-1.265s1.051-.575 1.778-.575c.719 0 1.297.183 1.734.548s.657.892.657 1.58v3.052c0 .227.011.445.035.656s.066.418.129.621h-1.19zm-1.917-.843c.418 0 .795-.108 1.131-.323s.555-.46.656-.738v-1.031h-1.295c-.464 0-.836.117-1.116.351s-.419.51-.419.827c0 .28.088.504.264.668s.435.246.78.246zm8.303-.862c0-.254-.097-.46-.29-.62s-.56-.302-1.099-.423c-.746-.16-1.319-.384-1.72-.673s-.6-.676-.6-1.16c0-.516.22-.958.66-1.325s1.008-.55 1.707-.55c.719 0 1.301.195 1.746.585s.658.846.639 1.366l-.012.035h-1.101c0-.274-.12-.522-.36-.744s-.545-.334-.912-.334c-.406 0-.71.091-.911.275s-.302.402-.302.656c0 .25.087.444.261.58s.532.262 1.075.375c.778.164 1.367.397 1.77.698s.603.693.603 1.177c0 .563-.227 1.022-.682 1.377s-1.05.533-1.785.533c-.808 0-1.445-.205-1.91-.615s-.685-.888-.662-1.435l.012-.035h1.101c.02.41.172.71.458.899s.619.284 1.001.284c.41 0 .732-.087.964-.26s.349-.396.349-.666zm3.744-3.785c.219-.304.487-.542.806-.712s.67-.255 1.057-.255c.676 0 1.203.204 1.58.61s.565 1.031.565 1.875v3.972h-1.154v-3.984c0-.523-.113-.91-.337-1.16s-.56-.375-1.005-.375c-.344 0-.643.067-.897.202s-.459.323-.615.565v4.752h-1.154v-9.14h1.154v3.65z"/><path fill="#6E9ED4" d="M63.646 25.481c0-.414.148-.772.445-1.075s.65-.454 1.06-.454c.403 0 .75.152 1.04.454s.437.661.437 1.075c0 .422-.145.779-.434 1.07s-.636.436-1.043.436c-.414 0-.768-.145-1.063-.436s-.442-.648-.442-1.07zm.767 0c0 .215.071.393.214.534s.317.21.524.21c.203 0 .374-.07.513-.21s.208-.319.208-.534-.07-.395-.21-.542-.311-.22-.51-.22a.744.744 0 0 0-.738.762zm11.162 2.526h.035l2.725-6.932h1.436v8.531h-1.155v-6.392l-.035-.006-2.584 6.398h-.803l-2.66-6.609-.035.006v6.603h-1.154v-8.53h1.517l2.713 6.93zm5.765-1.629c0-.938.255-1.71.763-2.317s1.197-.912 2.068-.912c.879 0 1.573.303 2.083.909s.765 1.379.765 2.32v.129c0 .945-.254 1.719-.762 2.32s-1.2.902-2.074.902-1.568-.301-2.078-.905-.764-1.376-.764-2.317v-.13zm1.155.129c0 .672.142 1.226.425 1.664s.704.656 1.263.656c.55 0 .968-.219 1.254-.656s.427-.992.427-1.664v-.13c0-.663-.143-1.216-.43-1.657s-.708-.662-1.263-.662c-.55 0-.968.22-1.251.662s-.425.994-.425 1.658v.129zm6.967-3.24l.082.943c.21-.336.476-.597.794-.782s.68-.279 1.087-.279c.683 0 1.213.2 1.588.601s.562 1.019.562 1.854v4.002h-1.154v-3.978c0-.559-.11-.955-.331-1.19s-.558-.351-1.01-.351c-.356 0-.658.071-.906.214s-.445.343-.589.6v4.705h-1.154v-6.34h1.03zm8.414 6.463c-.91 0-1.62-.292-2.13-.874s-.765-1.347-.765-2.296v-.258c0-.91.263-1.663.789-2.259s1.167-.894 1.924-.894c.848 0 1.484.264 1.908.791s.635 1.229.635 2.104v.61h-4.054l-.018.029c0 .636.14 1.153.422 1.55s.71.594 1.289.594c.39 0 .733-.056 1.028-.167s.548-.264.76-.46l.45.75c-.226.219-.525.404-.896.554s-.819.225-1.342.225zm-.182-5.672c-.402 0-.735.155-.999.465s-.424.708-.483 1.193l.012.03h2.859v-.095c0-.46-.113-.841-.34-1.142s-.576-.451-1.049-.451zm6.838.228l-.592-.035c-.304 0-.561.072-.77.217s-.37.347-.483.61v4.528h-1.155v-6.34h1.031l.112.926c.18-.328.401-.584.665-.767s.567-.276.911-.276a1.512 1.512 0 0 1 .44.064l-.159 1.073zm.815 2.092c0-.938.254-1.71.761-2.317s1.198-.912 2.069-.912c.879 0 1.573.303 2.083.909s.764 1.379.764 2.32v.129c0 .945-.253 1.719-.761 2.32s-1.2.902-2.075.902-1.567-.301-2.077-.905-.764-1.376-.764-2.317v-.13zm1.154.129c0 .672.142 1.226.425 1.664s.704.656 1.262.656c.551 0 .97-.219 1.254-.656s.428-.992.428-1.664v-.13c0-.663-.143-1.216-.43-1.657s-.709-.662-1.263-.662c-.551 0-.968.22-1.251.662s-.425.994-.425 1.658v.129z"/><path fill="#2DB7BC" d="M121.296 25.481c0-.414.148-.772.445-1.075s.65-.454 1.06-.454c.403 0 .75.152 1.04.454s.437.661.437 1.075c0 .422-.144.779-.433 1.07s-.637.436-1.043.436c-.414 0-.769-.145-1.064-.436s-.442-.648-.442-1.07zm.767 0a.722.722 0 0 0 .739.744c.203 0 .374-.07.512-.21s.208-.319.208-.534-.07-.395-.21-.542-.311-.22-.51-.22a.744.744 0 0 0-.738.762zm6.932 4.125v-8.53h2.783c.89 0 1.588.192 2.092.576s.756.962.756 1.732c0 .367-.113.696-.34.987s-.527.513-.902.665c.558.078 1 .32 1.327.727s.49.884.49 1.435c0 .781-.255 1.378-.763 1.79s-1.195.618-2.062.618h-3.38zm1.154-4.904h1.87c.43 0 .779-.118 1.048-.354s.405-.566.405-.988c0-.46-.146-.805-.437-1.034s-.71-.343-1.257-.343h-1.629v2.72zm0 .902v3.1h2.227c.527 0 .936-.13 1.228-.39s.436-.627.436-1.104c0-.473-.148-.854-.445-1.143s-.698-.443-1.201-.463h-2.245zm7.565-3.96h-1.154v-1.178h1.154v1.178zm0 7.962h-1.154v-6.34h1.154v6.34zm3.381-7.869v1.53h1.2v.855h-1.2v3.85c0 .297.061.506.184.627s.286.181.49.181a1.557 1.557 0 0 0 .428-.082l.157.791c-.085.07-.212.128-.38.173s-.334.067-.498.067c-.47 0-.842-.141-1.12-.424s-.416-.728-.416-1.333v-3.85h-1.007v-.855h1.007v-1.53h1.155zm4.957 7.09c.355 0 .666-.118.931-.354s.399-.527.399-.87h1.043l.017.035c.016.547-.218 1.032-.703 1.456s-1.047.635-1.687.635c-.89 0-1.578-.302-2.063-.908s-.726-1.36-.726-2.261v-.247c0-.894.243-1.645.73-2.252s1.172-.912 2.059-.912c.707 0 1.286.22 1.737.657s.669.974.653 1.611l-.011.035h-1.05c0-.387-.125-.716-.377-.987s-.57-.407-.952-.407c-.567 0-.98.22-1.24.659s-.39.971-.39 1.596v.247c0 .636.129 1.173.385 1.61s.67.657 1.245.657zm3.492-2.449c0-.938.254-1.71.762-2.317s1.197-.912 2.068-.912c.879 0 1.573.303 2.083.909s.765 1.379.765 2.32v.129c0 .945-.254 1.719-.762 2.32s-1.2.902-2.074.902-1.568-.301-2.077-.905-.765-1.376-.765-2.317v-.13zm1.154.129c0 .672.142 1.226.425 1.664s.704.656 1.263.656c.55 0 .968-.219 1.254-.656s.427-.992.427-1.664v-.13c0-.663-.143-1.216-.43-1.657s-.708-.662-1.263-.662c-.55 0-.968.22-1.251.662s-.425.994-.425 1.658v.129zm7.184-4.863h-1.154v-1.178h1.154v1.178zm0 7.962h-1.154v-6.34h1.154v6.34zm2.806-6.339l.083.943c.21-.336.475-.597.793-.782s.681-.279 1.087-.279c.684 0 1.213.2 1.588.601s.563 1.019.563 1.854v4.002h-1.155v-3.978c0-.559-.11-.955-.33-1.19s-.558-.351-1.011-.351c-.356 0-.658.071-.906.214s-.444.343-.588.6v4.705h-1.155v-6.34h1.031z"/><path fill="#94A6B0" d="M175.337 25.481c0-.414.148-.772.445-1.075s.65-.454 1.06-.454c.403 0 .75.152 1.04.454s.437.661.437 1.075c0 .422-.144.779-.433 1.07s-.637.436-1.043.436c-.414 0-.769-.145-1.064-.436s-.442-.648-.442-1.07zm.767 0a.722.722 0 0 0 .739.744c.203 0 .374-.07.512-.21s.208-.319.208-.534-.07-.395-.21-.542-.311-.22-.51-.22a.744.744 0 0 0-.738.762zm11.59.17h-3.504v3.053h4.102v.902h-5.256v-8.53h5.192v.907h-4.038v2.76h3.504v.908zm3.41-3.914v1.53h1.202v.855h-1.202v3.85c0 .297.062.506.185.627s.286.181.49.181a1.557 1.557 0 0 0 .428-.082l.157.791c-.086.07-.213.128-.38.173s-.335.067-.499.067c-.468 0-.841-.141-1.119-.424s-.416-.728-.416-1.333v-3.85h-1.008v-.855h1.008v-1.53h1.154zm3.592 2.379c.219-.304.488-.542.806-.712s.67-.255 1.058-.255c.675 0 1.202.204 1.579.61s.565 1.031.565 1.875v3.972h-1.154v-3.984c0-.523-.112-.91-.337-1.16s-.56-.375-1.005-.375c-.344 0-.643.067-.896.202s-.46.323-.616.565v4.752h-1.154v-9.14h1.154v3.65zm8.291 5.614c-.91 0-1.62-.292-2.13-.874s-.764-1.347-.764-2.296v-.258c0-.91.262-1.663.788-2.259s1.167-.894 1.925-.894c.847 0 1.483.264 1.907.791s.636 1.229.636 2.104v.61h-4.055l-.018.029c0 .636.141 1.153.422 1.55s.711.594 1.29.594c.39 0 .733-.056 1.028-.167s.547-.264.758-.46l.452.75c-.227.219-.526.404-.897.554s-.818.225-1.342.225zm-.181-5.672c-.403 0-.736.155-1 .465s-.424.708-.483 1.193l.012.03h2.86v-.095c0-.46-.114-.841-.34-1.142s-.577-.451-1.05-.451zm6.838.228l-.592-.035c-.305 0-.562.072-.77.217s-.37.347-.484.61v4.528h-1.154v-6.34h1.03l.112.926c.18-.328.402-.584.665-.767s.568-.276.911-.276a1.512 1.512 0 0 1 .44.064l-.158 1.073zm3.714 5.444c-.91 0-1.62-.292-2.13-.874s-.764-1.347-.764-2.296v-.258c0-.91.263-1.663.788-2.259s1.167-.894 1.925-.894c.847 0 1.483.264 1.907.791s.636 1.229.636 2.104v.61h-4.055l-.018.029c0 .636.141 1.153.422 1.55s.711.594 1.29.594c.39 0 .733-.056 1.028-.167s.548-.264.759-.46l.45.75c-.226.219-.525.404-.896.554s-.818.225-1.342.225zm-.181-5.672c-.403 0-.736.155-1 .465s-.424.708-.483 1.193l.012.03h2.86v-.095c0-.46-.114-.841-.34-1.142s-.577-.451-1.05-.451zm7.863 4.611c-.2.34-.455.602-.768.785s-.673.275-1.084.275c-.69 0-1.23-.22-1.617-.662s-.58-1.129-.58-2.062v-3.738h1.155v3.75c0 .675.1 1.14.298 1.394s.51.381.932.381c.41 0 .749-.083 1.017-.249s.47-.401.606-.706v-4.57h1.154v6.34h-1.037l-.076-.938zm3.826-5.402l.082.832c.207-.301.47-.535.788-.7s.689-.25 1.11-.25.785.098 1.088.293.53.489.682.88c.203-.364.468-.65.794-.86s.708-.313 1.146-.313c.644 0 1.154.222 1.529.665s.562 1.11.562 2.001v3.791h-1.154v-3.802c0-.625-.107-1.068-.322-1.327s-.535-.39-.961-.39c-.395 0-.714.137-.958.41s-.388.62-.43 1.037v4.072h-1.16v-3.802c0-.594-.111-1.029-.332-1.304s-.538-.413-.952-.413c-.352 0-.64.072-.867.217s-.4.347-.522.61v4.692h-1.154v-6.34h1.031z"/><path fill="#816070" d="M243.183 25.481c0-.414.148-.772.445-1.075s.65-.454 1.06-.454c.403 0 .75.152 1.04.454s.437.661.437 1.075c0 .422-.144.779-.434 1.07s-.636.436-1.043.436c-.414 0-.768-.145-1.063-.436s-.442-.648-.442-1.07zm.767 0c0 .215.071.393.214.534s.317.21.524.21c.204 0 .375-.07.513-.21s.208-.319.208-.534-.07-.395-.21-.542-.311-.22-.51-.22a.744.744 0 0 0-.738.762zm8.086 3.223h4.16v.902h-5.314v-8.53h1.154v7.628zm6.534-7.06h-1.155v-1.178h1.154v1.178zm0 7.962h-1.155v-6.34h1.154v6.34zm3.38-7.869v1.53h1.201v.855h-1.2v3.85c0 .297.06.506.184.627s.286.181.489.181a1.515 1.515 0 0 0 .428-.082l.158.791c-.086.07-.213.128-.38.173s-.335.067-.499.067c-.469 0-.842-.141-1.12-.424s-.415-.728-.415-1.333v-3.85h-1.008v-.855h1.008v-1.53h1.154zm5.063 7.993c-.91 0-1.62-.292-2.13-.874s-.765-1.347-.765-2.296v-.258c0-.91.263-1.663.788-2.259s1.167-.894 1.925-.894c.848 0 1.483.264 1.907.791s.636 1.229.636 2.104v.61h-4.055l-.017.029c0 .636.14 1.153.422 1.55s.71.594 1.289.594c.39 0 .733-.056 1.028-.167s.548-.264.759-.46l.451.75c-.227.219-.525.404-.897.554s-.818.225-1.341.225zm-.182-5.672c-.402 0-.735.155-.999.465s-.425.708-.483 1.193l.011.03h2.86v-.095c0-.46-.114-.841-.34-1.142s-.576-.451-1.049-.451zm6.357 4.769c.356 0 .666-.118.932-.354s.399-.527.399-.87h1.043l.017.035c.016.547-.219 1.032-.703 1.456s-1.047.635-1.688.635c-.89 0-1.578-.302-2.062-.908s-.727-1.36-.727-2.261v-.247c0-.894.244-1.645.73-2.252s1.173-.912 2.06-.912c.707 0 1.286.22 1.737.657s.669.974.653 1.611l-.012.035h-1.048c0-.387-.126-.716-.378-.987s-.57-.407-.953-.407c-.566 0-.979.22-1.239.659s-.39.971-.39 1.596v.247c0 .636.129 1.173.384 1.61s.671.657 1.245.657zm3.492-2.449c0-.938.255-1.71.762-2.317s1.198-.912 2.069-.912c.879 0 1.573.303 2.083.909s.764 1.379.764 2.32v.129c0 .945-.254 1.719-.761 2.32s-1.2.902-2.075.902-1.567-.301-2.077-.905-.764-1.376-.764-2.317v-.13zm1.155.129c0 .672.142 1.226.425 1.664s.704.656 1.262.656c.551 0 .97-.219 1.254-.656s.428-.992.428-1.664v-.13c0-.663-.143-1.216-.43-1.657s-.709-.662-1.263-.662c-.551 0-.968.22-1.251.662s-.425.994-.425 1.658v.129zm7.184-4.863h-1.155v-1.178h1.155v1.178zm0 7.962h-1.155v-6.34h1.155v6.34zm2.806-6.339l.082.943c.211-.336.476-.597.794-.782s.68-.279 1.087-.279c.684 0 1.213.2 1.588.601s.562 1.019.562 1.854v4.002h-1.154v-3.978c0-.559-.11-.955-.33-1.19s-.558-.351-1.012-.351c-.355 0-.657.071-.905.214s-.444.343-.589.6v4.705h-1.154v-6.34h1.031z"/><path d="M260.786 279.625c-.026-.128-.046-.24-.06-.338s-.023-.196-.026-.295c-.143.203-.33.373-.56.51s-.479.205-.744.205c-.44 0-.776-.112-1.006-.338s-.346-.536-.346-.932c0-.403.163-.72.49-.947s.77-.342 1.33-.342h.836v-.418c0-.247-.075-.443-.226-.587s-.365-.217-.641-.217c-.25 0-.452.062-.605.187s-.23.275-.23.45l-.731.007-.008-.023c-.019-.308.126-.589.431-.844s.702-.383 1.186-.383c.48 0 .864.122 1.156.366s.438.594.438 1.052v2.035c0 .152.008.297.023.438s.044.278.086.414h-.793zm-1.277-.563c.278 0 .53-.07.754-.214s.37-.308.437-.493v-.687h-.863c-.31 0-.558.078-.744.234s-.28.34-.28.551c0 .188.06.336.176.445s.29.164.52.164zm3.081.563v-4.227h1.669c.557 0 .989.097 1.297.291s.46.486.46.873c0 .199-.059.375-.18.53s-.288.272-.507.353c.263.066.468.187.615.366s.221.381.221.61c0 .396-.144.696-.432.9s-.69.304-1.205.304h-1.937zm.77-2.441h.903c.325 0 .571-.048.736-.145s.248-.242.248-.437c0-.2-.083-.352-.25-.454s-.413-.152-.738-.152h-.899v1.188zm0 .59v1.257h1.168c.285 0 .5-.053.645-.162s.219-.264.219-.467c0-.2-.074-.355-.22-.465s-.36-.164-.644-.164h-1.168zm6.461-1.766h-1.918v3.617h-.77v-4.227h2.688v.61zm1.922 2.051l.137.53h.023l1.04-3.19h.855l-1.777 4.874c-.107.285-.26.532-.46.743s-.467.316-.806.316a2.486 2.486 0 0 1-.46-.063l.077-.605c-.016-.003.03 0 .139.008s.177.012.205.012c.164 0 .298-.074.402-.22s.192-.307.262-.484l.183-.44-1.57-4.142h.86l.89 2.66zm4.36 1.046c.237 0 .444-.079.62-.236s.266-.35.266-.58h.696l.011.024c.011.364-.145.688-.468.97s-.699.424-1.125.424c-.594 0-1.052-.202-1.375-.605s-.485-.907-.485-1.508v-.164c0-.597.162-1.097.486-1.502s.783-.608 1.374-.608c.471 0 .857.146 1.158.438s.446.65.435 1.074l-.008.023h-.699c0-.257-.084-.477-.252-.658s-.38-.271-.634-.271c-.378 0-.654.146-.827.44s-.26.647-.26 1.064v.164c0 .425.086.782.256 1.074s.448.437.83.437zm5.765-3.109h-1.394v3.629h-.77v-3.629h-1.375v-.598h3.54v.598zm9.484 3.109c.237 0 .444-.079.62-.236s.266-.35.266-.58h.696l.011.024c.011.364-.145.688-.468.97s-.699.424-1.125.424c-.594 0-1.052-.202-1.375-.605s-.485-.907-.485-1.508v-.164c0-.597.162-1.097.487-1.502s.782-.608 1.373-.608c.471 0 .857.146 1.158.438s.446.65.435 1.074l-.007.023h-.7c0-.257-.084-.477-.252-.658s-.38-.271-.634-.271c-.378 0-.654.146-.827.44s-.26.647-.26 1.064v.164c0 .425.086.782.256 1.074s.448.437.83.437zm4.258.602c-.607 0-1.08-.194-1.42-.582s-.51-.898-.51-1.531v-.172c0-.607.174-1.109.525-1.506s.778-.596 1.283-.596c.566 0 .99.176 1.272.528s.424.819.424 1.402v.406h-2.704l-.011.02c0 .425.093.768.281 1.033s.474.396.86.396c.26 0 .489-.037.685-.11s.365-.178.506-.307l.3.5c-.15.145-.35.268-.597.369s-.546.15-.895.15zm-.122-3.781c-.268 0-.49.103-.666.31s-.283.472-.322.795l.008.02h1.906v-.063c0-.307-.075-.561-.226-.761s-.384-.301-.7-.301zm5.981 3.699h-.77v-1.797h-1.883v1.797h-.77v-4.227h.77v1.829h1.883v-1.829h.77v4.227zm4.383-3.629h-1.395v3.629h-.77v-3.629h-1.375v-.598h3.54v.598zm4.222-.598v4.227h-.77v-1.64h-1.042l-1 1.64h-.828l1.07-1.754c-.269-.097-.475-.249-.62-.457s-.216-.45-.216-.723c0-.38.144-.69.432-.931s.684-.362 1.19-.362h1.784zm-2.633 1.301c0 .188.064.348.192.48s.32.2.574.2h1.098v-1.383h-1.016c-.278 0-.49.07-.633.21s-.215.303-.215.493zm5.649-1.379c.539 0 .965.202 1.277.606s.469.919.469 1.547v.086c0 .63-.169 1.145-.508 1.546s-.8.602-1.383.602-1.045-.201-1.384-.603-.51-.917-.51-1.545v-.139c0-.015 0-.03.004-.049v-.918c0-.802.16-1.392.482-1.771s.795-.585 1.42-.62c.36-.018.637-.063.832-.134s.293-.195.293-.37h.59l.008.024c.012.411-.124.7-.41.865s-.703.253-1.247.264c-.395.01-.713.12-.953.328s-.355.517-.347.926l.011.02c.154-.196.351-.355.59-.48s.495-.185.766-.185zm-.152.606c-.368 0-.645.147-.833.441s-.28.663-.28 1.106v.086c0 .448.093.817.28 1.109s.468.437.84.437c.368 0 .646-.145.836-.437s.285-.661.285-1.11v-.085c0-.443-.095-.812-.287-1.106s-.471-.441-.841-.441zm6.253 1.746c0 .61-.145 1.1-.437 1.474s-.694.561-1.207.561c-.26 0-.49-.044-.686-.13s-.364-.219-.502-.393v2.066h-.77v-5.852h.59l.122.547c.137-.203.31-.358.515-.465s.446-.16.72-.16c.523 0 .93.208 1.22.623s.435.964.435 1.647v.082zm-.77-.082c0-.48-.094-.873-.282-1.182s-.467-.463-.834-.463c-.222 0-.41.05-.567.15s-.282.238-.379.413v2.043c.097.175.223.31.38.408s.347.146.574.146c.364 0 .64-.133.828-.4s.28-.611.28-1.033v-.082zm2.524-.582h1.051c.5 0 .889.12 1.166.36s.416.55.416.933c0 .386-.14.702-.42.951s-.667.373-1.162.373h-1.82v-4.227h.77v1.61zm0 .601v1.414h1.051c.276 0 .48-.066.611-.199s.198-.298.198-.496c0-.192-.067-.36-.2-.504s-.335-.215-.609-.215h-1.05zm7.18-.136c0-.625.169-1.14.508-1.545s.798-.608 1.379-.608c.586 0 1.049.202 1.388.606s.51.919.51 1.547v.086c0 .63-.169 1.145-.508 1.546s-.8.602-1.382.602-1.045-.201-1.385-.603-.51-.917-.51-1.545v-.086zm.77.086c0 .448.094.817.283 1.109s.47.437.842.437c.367 0 .645-.145.835-.437s.286-.661.286-1.11v-.085c0-.443-.096-.812-.287-1.106s-.472-.441-.842-.441c-.367 0-.646.147-.834.441s-.283.663-.283 1.106v.086zm5.16.273h-.395v1.793h-.77v-4.227h.77v1.786h.328l1.512-1.786h.902l.008.02-1.754 2.008 1.887 2.18-.008.019h-.945l-1.535-1.793zm6.429-1.836h-1.394v3.629h-.77v-3.629h-1.375v-.598h3.54v.598zm4.223-.598v4.227h-.77v-1.64h-1.042l-1 1.64h-.829l1.07-1.754c-.268-.097-.474-.249-.618-.457s-.217-.45-.217-.723c0-.38.143-.69.431-.931s.685-.362 1.19-.362h1.785zm-2.633 1.301c0 .188.064.348.192.48s.319.2.574.2h1.098v-1.383h-1.016c-.278 0-.49.07-.633.21s-.215.303-.215.493zm5.649-1.379c.539 0 .965.202 1.277.606s.469.919.469 1.547v.086c0 .63-.17 1.145-.508 1.546s-.8.602-1.383.602-1.045-.201-1.385-.603-.51-.917-.51-1.545v-.139c0-.015.002-.03.005-.049v-.918c0-.802.16-1.392.482-1.771s.795-.585 1.42-.62c.36-.018.637-.063.832-.134s.293-.195.293-.37h.59l.008.024c.012.411-.125.7-.41.865s-.703.253-1.247.264c-.395.01-.714.12-.953.328s-.355.517-.348.926l.012.02c.154-.196.35-.355.59-.48s.495-.185.766-.185zm-.153.606c-.367 0-.644.147-.832.441s-.281.663-.281 1.106v.086c0 .448.094.817.281 1.109s.468.437.84.437c.367 0 .646-.145.836-.437s.285-.661.285-1.11v-.085c0-.443-.095-.812-.287-1.106s-.472-.441-.842-.441zm6.254 1.746c0 .61-.145 1.1-.437 1.474s-.695.561-1.207.561c-.261 0-.49-.044-.686-.13s-.364-.219-.502-.393v2.066h-.77v-5.852h.59l.122.547c.137-.203.31-.358.515-.465s.446-.16.719-.16c.523 0 .93.208 1.22.623s.436.964.436 1.647v.082zm-.77-.082c0-.48-.094-.873-.283-1.182s-.466-.463-.833-.463c-.222 0-.41.05-.567.15s-.282.238-.379.413v2.043c.097.175.223.31.38.408s.347.146.573.146c.365 0 .64-.133.828-.4s.282-.611.282-1.033v-.082zm2.524-.582h1.05c.5 0 .89.12 1.167.36s.416.55.416.933c0 .386-.14.702-.42.951s-.667.373-1.162.373h-1.82v-4.227h.77v1.61zm0 .601v1.414h1.05c.277 0 .48-.066.612-.199s.197-.298.197-.496c0-.192-.066-.36-.199-.504s-.336-.215-.61-.215h-1.05zm14.742 2.016h-.77v-1.797h-1.883v1.797h-.77v-4.227h.77v1.829h1.883v-1.829h.77v4.227zm.945-2.152c0-.625.169-1.14.507-1.545s.798-.608 1.38-.608c.585 0 1.048.202 1.388.606s.51.919.51 1.547v.086c0 .63-.17 1.145-.508 1.546s-.8.602-1.383.602-1.045-.201-1.385-.603-.51-.917-.51-1.545v-.086zm.77.086c0 .448.094.817.282 1.109s.47.437.842.437c.367 0 .646-.145.836-.437s.285-.661.285-1.11v-.085c0-.443-.095-.812-.287-1.106s-.472-.441-.842-.441c-.367 0-.645.147-.834.441s-.283.663-.283 1.106v.086zm7.343-2.161v4.227h-.77v-1.64h-1.043l-1 1.64h-.828l1.07-1.754c-.268-.097-.474-.249-.619-.457s-.216-.45-.216-.723c0-.38.143-.69.431-.931s.685-.362 1.19-.362h1.785zm-2.633 1.301c0 .188.064.348.192.48s.319.2.574.2h1.097v-1.383h-1.015c-.279 0-.49.07-.633.21s-.215.303-.215.493zm5.649-1.379c.539 0 .964.202 1.277.606s.469.919.469 1.547v.086c0 .63-.17 1.145-.508 1.546s-.8.602-1.383.602-1.045-.201-1.385-.603-.51-.917-.51-1.545v-.139c0-.015.001-.03.004-.049v-.918c0-.802.162-1.392.483-1.771s.795-.585 1.42-.62c.36-.018.636-.063.832-.134s.293-.195.293-.37h.59l.007.024c.013.411-.124.7-.41.865s-.702.253-1.246.264c-.395.01-.714.12-.953.328s-.355.517-.348.926l.012.02c.153-.196.35-.355.59-.48s.495-.185.766-.185zm-.153.606c-.367 0-.644.147-.832.441s-.281.663-.281 1.106v.086c0 .448.094.817.281 1.109s.468.437.84.437c.367 0 .646-.145.836-.437s.285-.661.285-1.11v-.085c0-.443-.096-.812-.287-1.106s-.472-.441-.842-.441zm6.254 1.746c0 .61-.145 1.1-.437 1.474s-.695.561-1.207.561c-.261 0-.49-.044-.686-.13s-.364-.219-.502-.393v2.066h-.77v-5.852h.59l.121.547c.138-.203.31-.358.516-.465s.445-.16.719-.16c.523 0 .93.208 1.22.623s.436.964.436 1.647v.082zm-.77-.082c0-.48-.094-.873-.283-1.182s-.466-.463-.834-.463c-.221 0-.41.05-.566.15s-.282.238-.379.413v2.043c.097.175.223.31.379.408s.348.146.574.146c.364 0 .64-.133.828-.4s.282-.611.282-1.033v-.082zm2.524-.582h1.05c.5 0 .89.12 1.167.36s.416.55.416.933c0 .386-.14.702-.42.951s-.667.373-1.162.373h-1.82v-4.227h.769v1.61zm0 .601v1.414h1.05c.277 0 .48-.066.612-.199s.197-.298.197-.496c0-.192-.066-.36-.199-.504s-.336-.215-.61-.215h-1.05zm11.209 1.414c.203 0 .35-.167.443-.502s.16-.845.202-1.533l.101-1.59h2.805v3.625h.558v2h-.77v-1.398h-2.984v1.398h-.77v-2h.415zm1.418-2.035c-.031.497-.073.908-.127 1.233s-.134.592-.24.802h1.73v-2.941h-1.308l-.055.906zm5.274 2.719c-.607 0-1.08-.194-1.42-.582s-.51-.898-.51-1.531v-.172c0-.607.175-1.109.525-1.506s.778-.596 1.283-.596c.566 0 .99.176 1.272.528s.424.819.424 1.402v.406h-2.703l-.012.02c0 .425.094.768.281 1.033s.474.396.86.396c.26 0 .489-.037.685-.11s.365-.178.506-.307l.3.5c-.15.145-.35.268-.597.369s-.546.15-.895.15zm-.122-3.781c-.268 0-.49.103-.666.31s-.283.472-.322.795l.008.02h1.906v-.063c0-.307-.075-.561-.226-.761s-.384-.301-.7-.301zm3.762 1.906h-.394v1.793h-.77v-4.227h.77v1.786h.328l1.511-1.786h.903l.008.02-1.754 2.008 1.886 2.18-.007.019h-.946l-1.535-1.793zm5.77 1.793c-.027-.128-.046-.24-.061-.338s-.022-.196-.025-.295c-.144.203-.33.373-.56.51s-.48.205-.745.205c-.44 0-.775-.112-1.006-.338s-.346-.536-.346-.932c0-.403.163-.72.49-.947s.771-.342 1.33-.342h.837v-.418c0-.247-.076-.443-.227-.587s-.364-.217-.64-.217c-.25 0-.453.062-.606.187s-.23.275-.23.45l-.731.007-.008-.023c-.018-.308.126-.589.432-.844s.701-.383 1.185-.383c.48 0 .865.122 1.157.366s.437.594.437 1.052v2.035c0 .152.008.297.024.438s.044.278.086.414h-.793zm-1.278-.563c.279 0 .53-.07.754-.214s.37-.308.438-.493v-.687h-.864c-.31 0-.557.078-.744.234s-.28.34-.28.551c0 .188.06.336.177.445s.29.164.52.164zm4.938-3.742c.539 0 .965.202 1.277.606s.469.919.469 1.547v.086c0 .63-.17 1.145-.508 1.546s-.8.602-1.383.602-1.045-.201-1.385-.603-.51-.917-.51-1.545v-.139c0-.015.002-.03.005-.049v-.918c0-.802.16-1.392.482-1.771s.795-.585 1.42-.62c.36-.018.637-.063.832-.134s.293-.195.293-.37h.59l.008.024c.012.411-.124.7-.41.865s-.703.253-1.247.264c-.395.01-.714.12-.953.328s-.355.517-.347.926l.011.02c.154-.196.35-.355.59-.48s.495-.185.766-.185zm-.153.606c-.367 0-.644.147-.832.441s-.28.663-.28 1.106v.086c0 .448.093.817.28 1.109s.468.437.84.437c.367 0 .646-.145.836-.437s.285-.661.285-1.11v-.085c0-.443-.095-.812-.287-1.106s-.471-.441-.842-.441zm6.254 1.746c0 .61-.145 1.1-.437 1.474s-.695.561-1.207.561c-.261 0-.49-.044-.686-.13s-.364-.219-.502-.393v2.066h-.77v-5.852h.59l.122.547c.137-.203.31-.358.515-.465s.446-.16.719-.16c.523 0 .93.208 1.22.623s.436.964.436 1.647v.082zm-.77-.082c0-.48-.094-.873-.282-1.182s-.467-.463-.834-.463c-.222 0-.41.05-.567.15s-.282.238-.379.413v2.043c.097.175.223.31.38.408s.347.146.573.146c.365 0 .641-.133.829-.4s.28-.611.28-1.033v-.082zm2.524-.582h1.051c.5 0 .889.12 1.166.36s.416.55.416.933c0 .386-.14.702-.42.951s-.667.373-1.162.373h-1.82v-4.227h.77v1.61zm0 .601v1.414h1.051c.276 0 .48-.066.611-.199s.198-.298.198-.496c0-.192-.067-.36-.2-.504s-.336-.215-.609-.215h-1.05zm14.452-2.211v4.227h-.77v-1.64h-1.042l-1 1.64h-.828l1.07-1.754c-.269-.097-.475-.249-.62-.457s-.216-.45-.216-.723c0-.38.144-.69.432-.931s.684-.362 1.19-.362h1.784zm-2.632 1.301c0 .188.063.348.19.48s.32.2.575.2h1.098v-1.383h-1.016c-.278 0-.49.07-.633.21s-.214.303-.214.493zm7.21 2.926h-.77v-1.797h-1.882v1.797h-.77v-4.227h.77v1.829h1.883v-1.829h.77v4.227zm1.129 0v-4.227h1.668c.558 0 .99.097 1.297.291s.461.486.461.873c0 .199-.06.375-.18.53s-.289.272-.507.353c.262.066.467.187.615.366s.22.381.22.61c0 .396-.143.696-.431.9s-.69.304-1.205.304h-1.938zm.77-2.441h.902c.325 0 .572-.048.737-.145s.248-.242.248-.437c0-.2-.083-.352-.25-.454s-.413-.152-.739-.152h-.898v1.188zm0 .59v1.257h1.168c.284 0 .499-.053.644-.162s.22-.264.22-.467c0-.2-.074-.355-.22-.465s-.36-.164-.644-.164h-1.168zm6.371 1.851c-.026-.128-.046-.24-.06-.338s-.023-.196-.026-.295c-.143.203-.33.373-.56.51s-.479.205-.745.205c-.44 0-.775-.112-1.005-.338s-.346-.536-.346-.932c0-.403.163-.72.49-.947s.77-.342 1.33-.342h.836v-.418c0-.247-.075-.443-.226-.587s-.365-.217-.641-.217c-.25 0-.452.062-.606.187s-.23.275-.23.45l-.73.007-.008-.023c-.019-.308.126-.589.431-.844s.701-.383 1.186-.383c.48 0 .864.122 1.156.366s.438.594.438 1.052v2.035c0 .152.007.297.023.438s.044.278.086.414h-.793zm-1.277-.563c.278 0 .53-.07.754-.214s.37-.308.437-.493v-.687h-.863c-.31 0-.558.078-.744.234s-.28.34-.28.551c0 .188.059.336.176.445s.29.164.52.164zm6.679-1.39c0 .61-.145 1.1-.437 1.474s-.694.561-1.207.561c-.26 0-.49-.044-.686-.13s-.364-.219-.502-.393v2.066h-.77v-5.852h.59l.122.547c.137-.203.31-.358.515-.465s.446-.16.72-.16c.523 0 .93.208 1.22.623s.435.964.435 1.647v.082zm-.77-.082c0-.48-.094-.873-.282-1.182s-.467-.463-.834-.463c-.222 0-.41.05-.567.15s-.282.238-.379.413v2.043c.097.175.223.31.38.408s.347.146.573.146c.365 0 .641-.133.829-.4s.28-.611.28-1.033v-.082zm2.524-.582h1.051c.5 0 .889.12 1.166.36s.416.55.416.933c0 .386-.14.702-.42.951s-.667.373-1.162.373h-1.82v-4.227h.77v1.61zm0 .601v1.414h1.051c.276 0 .48-.066.611-.199s.198-.298.198-.496c0-.192-.067-.36-.2-.504s-.336-.215-.609-.215h-1.05zm-15.375 11.108h-3.531v-.528l1.785-2.128c.318-.386.533-.693.647-.92s.17-.458.17-.69c0-.263-.078-.478-.23-.646s-.367-.252-.638-.252c-.336 0-.591.102-.767.308s-.264.462-.264.77h-.742l-.008-.024c-.013-.463.142-.856.465-1.177s.762-.483 1.316-.483c.508 0 .908.14 1.2.422s.437.645.437 1.09c0 .3-.083.593-.248.879s-.417.645-.756 1.078l-1.433 1.68.007.02h2.59v.6zm4.449-2.008c0 .644-.163 1.152-.49 1.527s-.766.563-1.318.563c-.55 0-.99-.188-1.318-.563s-.495-.883-.495-1.527v-1.672c0-.638.163-1.145.49-1.523s.765-.567 1.315-.567c.552 0 .993.189 1.322.567s.494.885.494 1.523v1.672zm-.77-1.832c0-.41-.09-.731-.272-.969s-.44-.355-.774-.355c-.331 0-.586.118-.766.355s-.27.56-.27.969v1.988c0 .41.093.734.276.973s.44.36.768.36c.333 0 .59-.12.77-.358s.269-.564.269-.975v-1.988zm3.985 3.84h-.773v-4.977l-1.238.012v-.594l2.011-.21v5.769zm5.676-4.235c0 .297-.083.558-.25.784s-.388.393-.664.505c.323.113.582.29.777.536s.293.527.293.847c0 .524-.17.929-.51 1.215s-.772.43-1.298.43c-.558 0-1.013-.144-1.365-.43s-.53-.691-.53-1.215c0-.32.1-.602.299-.847s.468-.425.807-.54c-.292-.109-.523-.276-.692-.501s-.254-.487-.254-.784c0-.497.16-.878.479-1.14s.735-.395 1.248-.395c.484 0 .882.132 1.193.397s.467.643.467 1.138zm-.61 2.657a1.032 1.032 0 0 0-1.05-1.067c-.323 0-.59.1-.8.301s-.317.456-.317.766c0 .32.104.577.314.77s.48.288.81.288c.298 0 .546-.096.745-.29s.299-.45.299-.768zm-.16-2.645c0-.273-.084-.499-.255-.676s-.382-.265-.635-.265c-.278 0-.508.085-.688.256s-.27.399-.27.685c0 .29.092.524.274.703s.413.27.692.27c.253 0 .463-.09.63-.27s.253-.414.253-.703zm6.888-44.249c0 .644-.163 1.152-.49 1.527s-.767.563-1.318.563c-.55 0-.99-.188-1.319-.563s-.494-.883-.494-1.527v-1.672c0-.637.163-1.145.49-1.523s.765-.567 1.315-.567c.552 0 .993.189 1.322.567s.494.886.494 1.523v1.672zm-.77-1.832c0-.41-.09-.731-.273-.969s-.44-.355-.773-.355c-.331 0-.586.118-.766.355s-.27.56-.27.97v1.987c0 .41.092.734.276.973s.44.36.768.36c.333 0 .59-.12.77-.358s.269-.563.269-.975v-1.988zm2.442 3.652l-.586 1.196h-.457l.274-1.235v-.636h.77v.675zm3.121.188h-.773v-4.977l-1.238.012v-.594l2.011-.21v5.769zm-4.793-25.305c0 .644-.163 1.153-.49 1.528s-.767.562-1.318.562c-.55 0-.99-.187-1.319-.562s-.494-.884-.494-1.528v-1.672c0-.637.163-1.145.49-1.523s.765-.566 1.315-.566c.552 0 .993.188 1.322.566s.494.886.494 1.523v1.672zm-.77-1.832c0-.409-.09-.731-.273-.969s-.44-.355-.773-.355c-.331 0-.586.118-.766.355s-.27.56-.27.97v1.987c0 .41.092.734.276.973s.44.36.768.36c.333 0 .59-.12.77-.358s.269-.563.269-.975v-1.988zm2.442 3.653l-.586 1.195h-.457l.274-1.235v-.636h.77v.676zm4.465.187h-3.531v-.527l1.785-2.13c.317-.385.533-.692.646-.92s.17-.457.17-.689c0-.262-.077-.478-.23-.646s-.366-.252-.637-.252c-.336 0-.592.103-.767.309s-.264.461-.264.77h-.742l-.008-.024c-.013-.464.141-.857.465-1.178s.761-.482 1.316-.482c.508 0 .907.14 1.2.421s.437.645.437 1.09c0 .3-.083.593-.248.88s-.417.645-.756 1.077l-1.434 1.68.008.02h2.59v.601zm-6.137-25.305c0 .644-.163 1.153-.49 1.528s-.767.562-1.318.562c-.55 0-.99-.187-1.319-.562s-.494-.884-.494-1.528v-1.672c0-.637.163-1.145.49-1.523s.765-.566 1.315-.566c.552 0 .993.188 1.322.566s.494.886.494 1.523v1.672zm-.77-1.832c0-.409-.09-.731-.273-.968s-.44-.356-.773-.356c-.331 0-.586.118-.766.356s-.27.56-.27.968v1.989c0 .409.092.733.276.972s.44.36.768.36c.333 0 .59-.12.77-.358s.269-.563.269-.974v-1.989zm2.442 3.653l-.586 1.195h-.457l.274-1.234v-.637h.77v.676zm1.031-2.34l.329-3.16h2.847v.683h-2.2l-.183 1.637c.122-.09.258-.166.407-.225s.317-.088.507-.091c.527-.005.939.159 1.237.494s.447.794.447 1.377c0 .57-.153 1.028-.459 1.375s-.752.52-1.338.52c-.481 0-.883-.133-1.203-.395s-.474-.65-.46-1.16l.007-.024h.695c0 .31.09.55.268.72s.409.257.693.257c.325 0 .578-.115.758-.344s.27-.543.27-.942c0-.362-.091-.655-.272-.878s-.433-.336-.756-.336c-.302 0-.52.046-.656.136s-.235.232-.3.422l-.638-.066zm-2.648-21.054h-3.531v-.527l1.785-2.13c.317-.385.533-.692.646-.919s.17-.458.17-.69c0-.262-.077-.478-.23-.646s-.366-.252-.637-.252c-.336 0-.592.103-.768.309s-.263.462-.263.77h-.742l-.008-.024c-.013-.464.141-.857.465-1.178s.761-.482 1.316-.482c.508 0 .907.14 1.2.421s.437.645.437 1.09c0 .3-.083.593-.248.88s-.417.645-.756 1.077l-1.434 1.68.008.02h2.59v.601zm-1.856-27.1c.344 0 .587-.085.729-.256s.213-.41.213-.717c0-.286-.077-.517-.233-.693s-.384-.264-.689-.264c-.297 0-.542.092-.736.276s-.291.413-.291.69h-.735l-.011-.024c-.013-.428.148-.792.484-1.094s.766-.453 1.289-.453c.528 0 .942.133 1.242.4s.45.66.45 1.178c0 .266-.07.508-.21.727s-.334.389-.584.511c.287.115.505.289.655.522s.224.515.224.845c0 .521-.165.93-.494 1.225s-.757.443-1.283.443c-.484 0-.911-.142-1.28-.427s-.545-.662-.532-1.131l.007-.024h.735c0 .276.1.509.299.698s.456.283.771.283c.313 0 .559-.097.738-.291s.27-.447.27-.76c0-.357-.083-.623-.248-.8s-.425-.266-.78-.266h-.632v-.598h.632zm3.473 3.047l-.586 1.195h-.457l.274-1.234v-.637h.77v.676zm1.031-2.34l.329-3.16h2.847v.683h-2.2l-.183 1.637c.122-.091.258-.166.407-.224s.317-.09.507-.092c.527-.006.939.16 1.237.494s.447.793.447 1.377c0 .57-.153 1.029-.459 1.375s-.752.52-1.338.52c-.481 0-.883-.132-1.203-.395s-.474-.65-.46-1.16l.007-.024h.695c0 .31.09.55.268.721s.409.256.693.256c.325 0 .578-.115.758-.344s.27-.543.27-.941c0-.362-.091-.655-.272-.88s-.433-.335-.756-.335c-.302 0-.52.045-.656.137s-.235.232-.3.421l-.638-.066zm-6.082-23.77l.328-3.16h2.848v.683h-2.2l-.183 1.637c.122-.092.258-.166.407-.225s.317-.09.507-.092c.527-.005.939.16 1.237.494s.447.794.447 1.377c0 .57-.153 1.03-.459 1.375s-.752.52-1.338.52c-.481 0-.883-.131-1.203-.395s-.474-.65-.461-1.16l.008-.023h.695c0 .31.089.55.268.72s.409.256.693.256c.325 0 .578-.114.758-.343s.27-.543.27-.942c0-.362-.091-.655-.272-.879s-.433-.336-.756-.336c-.302 0-.52.046-.656.137s-.236.232-.3.422l-.638-.066zm3.434-67.878h-3.531v-.527l1.785-2.13c.317-.384.533-.691.646-.92s.17-.457.17-.689c0-.263-.077-.478-.23-.646s-.366-.252-.637-.252c-.336 0-.592.103-.768.309s-.263.462-.263.77h-.742l-.008-.024c-.013-.464.141-.856.465-1.178s.761-.482 1.316-.482c.508 0 .907.14 1.2.421s.437.645.437 1.09c0 .3-.083.593-.248.88s-.417.645-.756 1.077l-1.434 1.68.008.02h2.59v.601zm4.449-2.007c0 .642-.163 1.152-.49 1.527s-.767.562-1.318.562c-.55 0-.99-.187-1.319-.562s-.494-.885-.494-1.528v-1.672c0-.638.163-1.146.49-1.523s.765-.566 1.315-.566c.552 0 .993.189 1.322.566s.494.885.494 1.523v1.672zm-.77-1.833c0-.408-.09-.732-.273-.968s-.44-.356-.773-.356c-.331 0-.586.119-.766.356s-.27.56-.27.968v1.989c0 .408.092.732.276.972s.44.36.768.36c.333 0 .59-.12.77-.358s.269-.563.269-.974v-1.989zm-5.023 27.308h-.773v-4.977l-1.239.012v-.594l2.012-.21v5.769zm2.415-2.527l.327-3.16h2.848v.683h-2.2l-.183 1.637c.122-.092.258-.166.406-.225s.318-.09.508-.092c.527-.005.939.16 1.237.494s.447.794.447 1.377c0 .57-.153 1.03-.46 1.375s-.751.52-1.337.52c-.481 0-.883-.131-1.203-.395s-.474-.65-.461-1.16l.008-.023h.695c0 .31.089.55.268.72s.409.256.693.256c.325 0 .578-.114.758-.343s.27-.543.27-.942c0-.362-.091-.655-.272-.879s-.433-.336-.756-.336c-.302 0-.52.046-.656.137s-.236.232-.301.422l-.637-.066zm-2.415 25.996h-.773v-4.977l-1.239.012v-.594l2.012-.21v5.769zm5.793-2.008c0 .643-.163 1.152-.49 1.527s-.767.563-1.318.563c-.55 0-.99-.188-1.319-.563s-.494-.884-.494-1.527v-1.672c0-.638.163-1.146.49-1.523s.765-.567 1.315-.567c.552 0 .993.19 1.322.567s.494.885.494 1.523v1.672zm-.77-1.832c0-.409-.09-.732-.273-.969s-.44-.355-.773-.355c-.331 0-.586.118-.766.355s-.27.56-.27.969v1.988c0 .409.092.733.276.973s.44.36.768.36c.333 0 .59-.12.77-.358s.269-.563.269-.975v-1.988z" fill="#ECECEC"/><g fill="none" stroke="#E3E3E3" stroke-width=".247" stroke-miterlimit="10"><path d="M13.465 269.185v-5.576h36.631v5.576"/><path d="M50.096 269.185v-5.576h36.632v5.576m0 0v-5.576h36.632v5.576m0 0v-5.576h36.632v5.576m0 0v-5.576h36.632v5.576m0 0v-5.576h36.632v5.576m0 0v-5.576h36.632v5.576m0 0v-5.576h36.631v5.576m.001 0v-5.576h36.631v5.576m0 0v-5.576h36.632v5.576m0 0v-5.576h36.632v5.576m0 0v-5.576h36.632v5.576"/></g><path fill="none" stroke="#E3E3E3" stroke-width=".35" stroke-miterlimit="10" d="M457.174 263.609h-4.127m4.127-23.429h-4.127m4.127-23.429h-4.127m4.127-23.481h-4.127m4.127-23.646h-4.127m4.127-23.688h-4.127m4.127-23.627h-4.127m4.127-23.582h-4.127m4.089-23.496h-4.127m4.165-23.549h-4.127"/><defs><path id="id-479a" d="M453.047 198.334s-36.835 7.203-109.895 4.076c-30.587-1.31-67.525-3.374-110.767-3.374-36.632 0-109.025 5.235-145.126 5.235-37.154 0-73.794-5.235-73.794-5.235v64.573h439.582v-65.275z"/></defs><clipPath id="id-480b"><use xlink:href="#id-479a" overflow="visible"/></clipPath><g clip-path="url(#id-480b)" fill="none" stroke="#E3E3E3" stroke-width=".35" stroke-miterlimit="10"><path d="M13.465 240.191h36.632v23.419H13.465zm0-23.419h36.632v23.419H13.465z"/><path d="M13.465 193.353h36.632v23.419H13.465zm36.631 46.838h36.632v23.419H50.096z"/><path d="M50.096 216.772h36.632v23.419H50.096z"/><path d="M50.096 193.353h36.632v23.419H50.096zm36.632 46.838h36.632v23.419H86.728zm0-23.419h36.632v23.419H86.728z"/><path d="M86.728 193.353h36.632v23.419H86.728zm36.632 46.838h36.632v23.419H123.36zm0-23.419h36.632v23.419H123.36z"/><path d="M123.36 193.353h36.632v23.419H123.36zm36.632 46.838h36.632v23.419h-36.632zm0-23.419h36.632v23.419h-36.632z"/><path d="M159.992 193.353h36.632v23.419h-36.632zm36.632 46.838h36.632v23.419h-36.632zm0-23.419h36.632v23.419h-36.632z"/><path d="M196.624 193.353h36.632v23.419h-36.632zm36.632 46.838h36.632v23.419h-36.632z"/><path d="M233.256 216.772h36.632v23.419h-36.632z"/><path d="M233.256 193.353h36.632v23.419h-36.632zm36.632 46.838h36.632v23.419h-36.632zm0-23.419h36.632v23.419h-36.632z"/><path d="M269.888 193.353h36.632v23.419h-36.632zm36.631 46.838h36.632v23.419h-36.632z"/><path d="M306.519 216.772h36.632v23.419h-36.632z"/><path d="M306.519 193.353h36.632v23.419h-36.632zm36.632 46.838h36.632v23.419h-36.632zm0-23.419h36.632v23.419h-36.632z"/><path d="M343.151 193.353h36.632v23.419h-36.632zm36.632 46.838h36.632v23.419h-36.632zm0-23.419h36.632v23.419h-36.632z"/><path d="M379.783 193.353h36.632v23.419h-36.632zm36.632 46.838h36.632v23.419h-36.632zm0-23.419h36.632v23.419h-36.632z"/><path d="M416.415 193.353h36.632v23.419h-36.632z"/></g><use xlink:href="#id-479a" overflow="visible" fill="none" stroke="#E3E3E3" stroke-width=".35" stroke-miterlimit="10"/><path clip-rule="evenodd" fill="none" stroke="#816070" stroke-width="1.5" stroke-linecap="round" stroke-linejoin="round" stroke-miterlimit="10" d="M13.465 257.579l2.2-.1 1.796-.58.893 1.175 1.467-.099.978.595 1.956-.496.978-.694 4.197 1.216 3.87.47.544.21 1.428-.046 1.26.152 1.223-.053 1.361.554 2.497-.173 1.712.347 4.4.05 1.467-.347 1.467.05 3.668.247 3.422.199.881-.938 1.075.045 3.179.694 3.028-.075 1.617-.222 1.109-.114 4.758.312 1.712-.148.733.446 3.794-.634 2.677-.27 2.086.854 1.395-.38 1.947.005 1.7-.042 1.804-.079 1.44-.408 1.666.035.56.225.49-.149.978-.149.733.248 2.816-.485 2.712-.543 1.094-.095.798.68 1.038.357 2.055.235 1.956-1.029.66.573 1.785-.189.978.447 1.956-.062 1.894-.087 1.442-.622 1.064-2.016 1.406-1.526 2.262-1.215.988-1.42.959-.44 1.72.397.492-1.647.364-.93.337-1.006 1.056.04.316 1.139.613 2.206h.245l2.2-.397.733.843h.245l1.56-2.418 1.002-.783 1.994-.076 2.045-.094.734-1.996.408-1.164.857-.159.266 1.252.398 1.872.515 2.426h.245l.995-.075.41.582.306.683 1.223 1.388.978-2.537 2.933-1.727.734 1.14h.244l1.1-.99.608 1.023.982 1.703 1.24-1.124.96-.66.873-.646.823-1.459 1.357-.533.804-1.726 1.087-.534.68 1.377h.244l.249-1.259.24-1.22 1.71.248.282-1.065 1.448-.883.698 1.368.996.73 1.231-2.496 1.743-.212.394 1.159.605 1.152 3.361 4.213.847 1.066 1.598 2.008.581-1.964.642-.515 1.222.694.605-1.022 1.145-.121.695.548.978.645h.244l1.379-1.094.987-.788 1.593-.778.686 1.28.674 1.98.793 1.928.49-1.19 1.706-.23.724-.844 1.481 1.174h.244l1.597-1.845 1.425.617.646 1.277h.244l.836-.74.885-1.193 1.692.932 1.538-.486 2.384-.446.27-1.013.288-1.98.434-3.195.185-1.362 1.027-.316.363 1.123.367.956 1.222 1.436.978 2.02 1.222 2.033 1.845-7.017.356-1.77.927-.492.552-.654.709-1.054 1.124.663.6 1.494 1.466 3.922.443-1.57 1.758.678.679-.872 1.118.102.953.919.673 1.1.733 1.031h.244l.978-3.42 2.354.389.58 1.098 1.53 1.373.915-1.36.502-1.467 1.994-3.575.361-1.21 1.183-.1.988 1.202.35.824 1.712 3.123h.245l.427-1.294 1.885.806 1.11 2.174.28-.813.403-1.173 1.097.213.42.88 2.69 3.024 1.222-1.081.374-.799 1.22.105.607 1.346.244.637.734.437 1.344-.397 1.061.507 1.262.931 1.728-.245.363 1.14.598 1.435 2.69.198.799.31 1.665.295 2.335.567.824.96 1.213-.942 2.21.496 2.933-.644.533.032.527-.201 1.526-.585 3.003.102 1.746.057 2.372.705.806.98 1.223-.396.977.396.978-.67 1.162-.668 1.356.233.487-.428.907-.128.755.012.21-.127.705-.43 2.486-.173 2.69.396.733-1.397.734-.388 1.658-.001 1.459 1.34 1.283 1.041.585-1.927.328-1.08.898-.139 1.323 1.025 1.222.946.779 1.274 1.33-1.694.87-.636.978.744h.244l1.5-.448.383 1.602.807 2.415h.244l.845-.388 1.672-.134 1.456.659.917.473 1.956 2.018 1.955-.199 1.345-.594 1.345.793 1.569-.574.876 1.466h.244v-.05l3.182.241 3.42-.29.977-.843 1.467.694h.245l2.933.1 1.1.297.696.299 1.066.097.683.174.785.021 1.11-.492.917.397 1.458-.248.922.406 1.984-.243 1.412-.188.798-.647 1.005-.592.83-.382 1.806-.326 1.348 1.142.956.06.561.266.856.454h.244l1.467-.595 1.956.645 2.934.148 2.2-.099 1.711-.198.734.248.733-.347 2.635.58 1.285.23 1.214.33.978-.93 1.977.003.713.53 1.956-.644 3.169-.892 1.82.546 1.005-.298 1.585 1.437h.244l.45-.35 2.484.003 1.222-1.636 2.327-.446 1.52.732 1.211.918.493-.104 1.28-.355 2.215-.398.616-.377 1.08-1.094 2.46.232 1.703-.843.481 1.248.75 1.875h.245l2.65-2.085 1.261-.592 1.956-.743.734 1.09.397.944 1.812-.002 1.703 1.14 1.772-1.735.978-1.289.672-1.733.245-.795.484-.972 1.431 1.104 1.019.86 1.231-.645 1.702.595 3.482-.551 1.06.913 1.057.858 1.61-.229 1.837 1.19 2.575-.237 1.031.535.55.595 1.284.247.428.174 2.445.868 1.222-.893h1.223l.309-.204 1.402-.44"/><path clip-rule="evenodd" fill="none" stroke="#94A6B0" stroke-width="1.5" stroke-linecap="round" stroke-linejoin="round" stroke-miterlimit="10" d="M13.465 253.354l1.212.104 2.182-1.767h.728l1.212.312v.208l2.91.935v-.104h.97v-.104l3.879.832v.208l.485.104v.104h2.182v.104l2.425.104 1.697-.52.242-.208h.728l1.454.312.243-.208h3.394v.104h.485v.104h1.94v.104h.97v.104h1.212v.104h.727v.104h.243v-.104h.727v-.104h4.85v-.104l2.182.104v-.104h.485l.242-.208h.485v-.104l.97-.104.97.52h3.879l.243.208 1.454.208v.104l1.455-.104 2.425.104.97-.624h.484l.485-.312h1.698v.104l1.212.104v.104h.727v.104h1.213v.104h1.454l2.91.312v-.104h.97v-.104h.727v-.104h2.667v-.104l3.395-.936 1.212-1.56 1.212-.311v-.104l1.94.104.727.624 1.698-.104v.104l1.212.104 1.697 1.351h.485v-.104l1.212-.728.485-.103v-.208h.243l.242-.416h.243l.242-.52h.243v-.312h.242v-.52h.243v-.52h.242l.242-1.04h.243v-.415l.485-.104v-.208l.727-.208v-.208l1.212-.415.485-2.495h.243v-1.144h.242v-1.04h.243v-.831l1.212-2.08h.97l.727 3.431h.485l1.455-1.351h1.212l.485.104 1.213.831.242.416h.243l.242.312h.242l.728-1.143.242-.832 1.213-1.767h.727v.104l1.212 1.04.485.103.485.624.97.104 2.182-.624v.104h.727l.97 1.351 1.455-.104 2.425.832 1.212 1.872 1.212-.312 1.213 1.04h.485l.242.207 1.94-.104v.104l.97.104.484.312 1.213.104v.104l.97-.104 1.212-2.08h.97l.97 1.352 2.667-.104v.104H141v.104h3.152v.104l1.454.208v.104h.485v.104h.485l.243.312 1.454.312.243-.312h.242v-.208h.243l.97-.208v.104l1.697.104 1.455-2.08h.242v-.415h.243v-.312h.242v-.416h.243l.242-.208h.485v-.104l.727-.208.243-.52h.242v-.311h.243v-.312h.242v-.312h.243v-.312h.242v-.312h.242l.243-.728h.242v-.103h.728l.485.207v.208h.242l.97.208.97-2.495.485-.104v-.208h.242l.485-.623 1.94.311v-.103l1.212-.208 1.697 1.87v.417h.243l.242.727h.243v-.207l.485-.416h.97l2.182.727.97.52.484.104v.208l.97.624 1.455.104 1.455.416.242-.312h.243v-.208h.242v-.312h.243v-.208h.242l.243-1.247 1.454-3.327.485-1.56h.243v-.311h.242v-.208h.243v-.208l.485-.104v-.208h.242l.97-5.822h.242v-.52h.243l.242-.415h.243v-.312h.242v-.208h.243l.97-4.263 1.212-1.87h.97l.485 1.247v.831h.242v.728h.243v.728h.242v1.04l.242.207v1.56h.243l.242 1.975.243 1.04.485-2.392h.485l.727-.415h.243v-1.04l.484-1.767h.243v-.936h.242v-.936h.243l.97-3.742h.97l.727 2.599v.936h.242v.623h.243v.416h.242l1.455 1.144h.243l1.212-1.768h.242v-.208h.243v-.207h.242v-.312l.728-.208v-.208h.242l.243-.208h.97l.242.312.485.104v.208l.485.104.485.623h.242l1.697-3.534 2.667-11.436 1.94-.416 1.455 3.95v1.456h.242v1.56h.243l.485 2.599.485-1.144 1.454.208v.104l1.698-.104v.104l1.697 1.663v.52l1.455 3.223.242 1.975 1.212 1.351h1.455l.728.832v.312h.242v.208h.242v.624h.243v.727l1.455 3.743v.936h.242v.831h.243v.832h.242v.624h.242l.485 1.04.728-4.16 2.182-.727 2.425 5.51 1.454-.832h.728l.485.312h.242v.208l.727.208v.208h.243v.208h.242v.208h.243v.208l1.697.623.243.52h.242l.243.416h.242l.242.52h.243v.312h.242v.312h.243v.208h.242v.208l1.213.311v.312h.242v.832l1.455 3.639.485 1.455h.242v-.208l1.697-.416v-.104h.728l.242.312.485.104v.208l.485.104v.208h.243v.312h.242v.312h.242v.207h.243l.242.728h.243v.52h.242l.485 1.144v-.104h.243l.242-.728h.243v-.52l.97-1.663v-.52l1.212-1.247h.97l.97.935 1.454-.208.243-.208h1.212v.104l2.182-.104 1.94 2.287 1.455-.104v.104l2.182 1.04 1.455-.312.484.208v.208l.485.104v.208l.728.208 2.182-.52.242-.208 1.455.104v-.104l.97-.832h.242v-.312h.243v-.208h.242v-.311h.243l.242-.416 2.425-.936v-.208l5.577-1.351.97 1.143h1.454v.208l.485.208h.243l.97-1.143h.727v.104l1.455-.104v-.104h.97l1.212 1.663.485-.104.97-1.351h.97v.208l1.939.52 1.697-.209.97 1.976h.242l.485.415h.485l.728-.415h.242l.243-.416.485-.104v-.208l1.697-.624v-.208l.485-.104v-.208l.485-.104v-.311h.242l.727-.832 2.183.312 1.454 1.975v.208h.243v.208h.242v.208l.485.104v.208l1.455.935.243.104.97-1.767h.727l1.212.624.485.104v.207l.727.208v.312h.243v.312h.242v.312l.728.728 3.637.312.484.623h.243v.208l.485.104.242.52h.243l.485.624h.242l.485.312h.243v-.104l1.697-.416.485.104h.242v-.416h.243l.484-1.144 1.698.312v.104l1.455-.104.97.624v.208l.484.104v.52h.243v.52h.242v.52h.243l.485.83 3.879-1.247h1.455v-.104h.485l.485-.311 1.697.104v-.104l1.697-.208.727.416h1.94l2.667.415 3.152-.727h.97l.485.312h.485l.242.103v-.103h1.698v-.104h1.454v-.104l.97-.208.243-.312h.242l1.455-.624.727.52.728-.104v-.416l5.819-.728.97.832 2.182.208 1.697-.416v.104l.727.104.243-.208h.485v-.104l6.061.208 2.667.104.728-.416 2.182-.312.97.312v-.104l.727-.208 2.425.104v-.104l.97-.727 1.94.312.242.207 2.182.312.727-.415h.243v-.208l.485-.104 2.424-1.04h2.91l.97-.936 1.454.208v.104l2.425-.208.485-.416h.242v-.207l.485-.104.243-.416.485-.104 1.454-1.663 1.455.104 2.182-1.144v-.104l1.698.104v.104l1.212 1.56 1.94-.313 1.212-1.143h.485v-.104h.485l.242-.312h.243l.97-1.352h.727l.485.416h.485l.97-.623v-.312h.242l.243-.416h.242v-.312l1.212-.416v-.104h.97l.97 1.352.727-.104.728-2.495v-.832h.242v-.728h.243v-.623h.242l.728-2.391 1.212-2.08h.97l.727 2.703h.243v-.208h.242l.242-.623h.97l.97 1.455h.243v-.104l.485-1.351h.242v-1.144h.242v-1.04h.243l.242-1.767 1.455.104v.208l1.697-.208.243 1.456h.242v1.04h.243v.935h.242l.485 1.767.97.208.727 1.56.485 1.143v-.208l.485-.416.485-.104v-.208l.728-.208v-.208l.727-.104v-.103l1.212-.208.97 1.559.727-1.144v-.104h.728l1.455 1.456h.485l.727-.728h.242v-.935h.485"/><defs><path id="id-481c" d="M196.624 122.145c-17.306 0-52.347 8.058-73.264 8.058-20.917 0-54.088-7.894-73.263-7.894-19.166 0-36.615-2.037-36.632-2.04v75.357s36.64 5.236 73.795 5.236c36.1 0 108.493-5.236 145.125-5.236 43.243 0 80.181 2.065 110.77 3.375 73.051 3.126 109.885-4.075 109.892-4.076V117.6s-36.632 9.264-109.896 9.264c-73.263 0-72.541-4.719-146.527-4.719z"/></defs><clipPath id="id-482d"><use xlink:href="#id-481c" overflow="visible"/></clipPath><g clip-path="url(#id-482d)" fill="none" stroke="#E3E3E3" stroke-width=".35" stroke-miterlimit="10"><path d="M13.465 185.392h36.632v7.885H13.465zm0-7.885h36.632v7.885H13.465zm36.632 7.885h36.632v7.885H50.097zm0-7.885h36.632v7.885H50.097zm36.632 7.885h36.632v7.885H86.729zm0-7.885h36.632v7.885H86.729zm36.632 7.885h36.632v7.885h-36.632zm0-7.885h36.632v7.885h-36.632zm36.632 7.885h36.632v7.885h-36.632zm0-7.885h36.632v7.885h-36.632z"/><path d="M196.624 185.392h36.632v7.885h-36.632zm0-7.885h36.632v7.885h-36.632z"/><path d="M233.256 185.392h36.632v7.885h-36.632zm0-7.885h36.632v7.885h-36.632zm36.632 7.885h36.632v7.885h-36.632zm0-7.885h36.632v7.885h-36.632zm36.632 7.885h36.632v7.885H306.52zm0-7.885h36.632v7.885H306.52zm36.632 7.885h36.632v7.885h-36.632zm0-7.885h36.632v7.885h-36.632z"/><path d="M379.783 185.392h36.632v7.885h-36.632zm0-7.885h36.632v7.885h-36.632zm36.632 7.885h36.632v7.885h-36.632zm0-7.885h36.632v7.885h-36.632zm-402.95 23.654h36.632v7.885H13.465z"/><path d="M13.465 193.277h36.632v7.885H13.465zm36.632 7.884h36.632v7.885H50.097z"/><path d="M50.097 193.277h36.632v7.885H50.097zm36.632 7.884h36.632v7.885H86.729z"/><path d="M86.729 193.277h36.632v7.885H86.729zm36.632 7.884h36.632v7.885h-36.632z"/><path d="M123.361 193.277h36.632v7.885h-36.632zm36.632 7.884h36.632v7.885h-36.632z"/><path d="M159.993 193.277h36.632v7.885h-36.632z"/><path d="M196.624 201.161h36.632v7.885h-36.632z"/><path d="M196.624 193.277h36.632v7.885h-36.632z"/><path d="M233.256 201.161h36.632v7.885h-36.632z"/><path d="M233.256 193.277h36.632v7.885h-36.632zm36.632 7.884h36.632v7.885h-36.632z"/><path d="M269.888 193.277h36.632v7.885h-36.632zm36.632 7.884h36.632v7.885H306.52z"/><path d="M306.52 193.277h36.632v7.885H306.52zm36.632 7.884h36.632v7.885h-36.632z"/><path d="M343.152 193.277h36.632v7.885h-36.632z"/><path d="M379.783 201.161h36.632v7.885h-36.632z"/><path d="M379.783 193.277h36.632v7.885h-36.632zm36.632 7.884h36.632v7.885h-36.632z"/><path d="M416.415 193.277h36.632v7.885h-36.632zm-402.95-23.653h36.632v7.885H13.465z"/><path d="M13.465 161.74h36.632v7.885H13.465zm0-7.885h36.632v7.885H13.465zm36.632 15.769h36.632v7.885H50.097z"/><path d="M50.097 161.74h36.632v7.885H50.097zm0-7.885h36.632v7.885H50.097zm36.632 15.769h36.632v7.885H86.729z"/><path d="M86.729 161.74h36.632v7.885H86.729zm0-7.885h36.632v7.885H86.729zm36.632 15.769h36.632v7.885h-36.632z"/><path d="M123.361 161.74h36.632v7.885h-36.632zm0-7.885h36.632v7.885h-36.632zm36.632 15.769h36.632v7.885h-36.632z"/><path d="M159.993 161.74h36.632v7.885h-36.632zm0-7.885h36.632v7.885h-36.632z"/><path d="M196.624 169.624h36.632v7.885h-36.632z"/><path d="M196.624 161.74h36.632v7.885h-36.632zm0-7.885h36.632v7.885h-36.632z"/><path d="M233.256 169.624h36.632v7.885h-36.632z"/><path d="M233.256 161.74h36.632v7.885h-36.632zm0-7.885h36.632v7.885h-36.632zm36.632 15.769h36.632v7.885h-36.632z"/><path d="M269.888 161.74h36.632v7.885h-36.632zm0-7.885h36.632v7.885h-36.632zm36.632 15.769h36.632v7.885H306.52z"/><path d="M306.52 161.74h36.632v7.885H306.52zm0-7.885h36.632v7.885H306.52zm36.632 15.769h36.632v7.885h-36.632z"/><path d="M343.152 161.74h36.632v7.885h-36.632zm0-7.885h36.632v7.885h-36.632z"/><path d="M379.783 169.624h36.632v7.885h-36.632z"/><path d="M379.783 161.74h36.632v7.885h-36.632zm0-7.885h36.632v7.885h-36.632zm36.632 15.769h36.632v7.885h-36.632z"/><path d="M416.415 161.74h36.632v7.885h-36.632zm0-7.885h36.632v7.885h-36.632zm-402.95-7.885h36.632v7.885H13.465zm36.632 0h36.632v7.885H50.097zm36.632 0h36.632v7.885H86.729zm36.632 0h36.632v7.885h-36.632zm36.632 0h36.632v7.885h-36.632z"/><path d="M196.624 145.97h36.632v7.885h-36.632z"/><path d="M233.256 145.97h36.632v7.885h-36.632zm36.632 0h36.632v7.885h-36.632zm36.632 0h36.632v7.885H306.52zm36.632 0h36.632v7.885h-36.632z"/><path d="M379.783 145.97h36.632v7.885h-36.632zm36.632 0h36.632v7.885h-36.632zm-402.95-7.882h36.632v7.885H13.465zm0-7.885h36.632v7.885H13.465zm0-7.885h36.632v7.885H13.465zm36.632 15.77h36.632v7.885H50.097zm0-7.885h36.632v7.885H50.097zm0-7.885h36.632v7.885H50.097zm36.632 15.77h36.632v7.885H86.729zm0-7.885h36.632v7.885H86.729zm0-7.885h36.632v7.885H86.729zm36.632 15.77h36.632v7.885h-36.632zm0-7.885h36.632v7.885h-36.632zm0-7.885h36.632v7.885h-36.632zm36.632 15.77h36.632v7.885h-36.632zm0-7.885h36.632v7.885h-36.632zm0-7.885h36.632v7.885h-36.632z"/><path d="M196.624 138.088h36.632v7.885h-36.632zm0-7.885h36.632v7.885h-36.632zm0-7.885h36.632v7.885h-36.632z"/><path d="M233.256 138.088h36.632v7.885h-36.632zm0-7.885h36.632v7.885h-36.632zm0-7.885h36.632v7.885h-36.632zm36.632 15.77h36.632v7.885h-36.632zm0-7.885h36.632v7.885h-36.632zm0-7.885h36.632v7.885h-36.632zm36.632 15.77h36.632v7.885H306.52zm0-7.885h36.632v7.885H306.52zm0-7.885h36.632v7.885H306.52zm36.632 15.77h36.632v7.885h-36.632zm0-7.885h36.632v7.885h-36.632zm0-7.885h36.632v7.885h-36.632z"/><path d="M379.783 138.088h36.632v7.885h-36.632zm0-7.885h36.632v7.885h-36.632zm0-7.885h36.632v7.885h-36.632zm36.632 15.77h36.632v7.885h-36.632zm0-7.885h36.632v7.885h-36.632zm0-7.885h36.632v7.885h-36.632zm-402.95-7.904h36.632v7.885H13.465z"/><path d="M13.465 106.53h36.632v7.885H13.465zm36.632 7.884h36.632v7.885H50.097z"/><path d="M50.097 106.53h36.632v7.885H50.097zm36.632 7.884h36.632v7.885H86.729z"/><path d="M86.729 106.53h36.632v7.885H86.729zm36.632 7.884h36.632v7.885h-36.632z"/><path d="M123.361 106.53h36.632v7.885h-36.632zm36.632 7.884h36.632v7.885h-36.632z"/><path d="M159.993 106.53h36.632v7.885h-36.632z"/><path d="M196.624 114.414h36.632v7.885h-36.632z"/><path d="M196.624 106.53h36.632v7.885h-36.632z"/><path d="M233.256 114.414h36.632v7.885h-36.632z"/><path d="M233.256 106.53h36.632v7.885h-36.632zm36.632 7.884h36.632v7.885h-36.632z"/><path d="M269.888 106.53h36.632v7.885h-36.632zm36.632 7.884h36.632v7.885H306.52z"/><path d="M306.52 106.53h36.632v7.885H306.52zm36.632 7.884h36.632v7.885h-36.632z"/><path d="M343.152 106.53h36.632v7.885h-36.632z"/><path d="M379.783 114.414h36.632v7.885h-36.632z"/><path d="M379.783 106.53h36.632v7.885h-36.632zm36.632 7.884h36.632v7.885h-36.632z"/><path d="M416.415 106.53h36.632v7.885h-36.632z"/></g><use xlink:href="#id-481c" overflow="visible" fill="none" stroke="#E3E3E3" stroke-width=".35" stroke-miterlimit="10"/><defs><path id="id-483e" d="M123.36 126.793c20.917 0 55.768-8.057 73.264-8.057 73.264 0 73.264 4.718 146.527 4.718 73.261 0 109.893-9.263 109.896-9.264V51.682H13.465v65.178c.017.002 17.466 2.04 36.632 2.04 19.175 0 52.346 7.893 73.263 7.893z"/></defs><clipPath id="id-484f"><use xlink:href="#id-483e" overflow="visible"/></clipPath><g clip-path="url(#id-484f)" fill="none" stroke="#E3E3E3" stroke-width=".35" stroke-miterlimit="10"><path d="M13.465 94.064h36.632v4.709H13.465z"/><path d="M13.465 89.355h36.632v4.709H13.465zm0-4.709h36.632v4.709H13.465zm0-4.709h36.632v4.709H13.465zm0-4.709h36.632v4.709H13.465z"/><path d="M13.465 70.519h36.632v4.709H13.465zm36.632 23.545h36.632v4.709H50.097zm0-4.709h36.632v4.709H50.097zm0-4.709h36.632v4.709H50.097zm0-4.709h36.632v4.709H50.097zm0-4.709h36.632v4.709H50.097z"/><path d="M50.097 70.519h36.632v4.709H50.097zm36.632 23.545h36.632v4.709H86.729zm0-4.709h36.632v4.709H86.729zm0-4.709h36.632v4.709H86.729zm0-4.709h36.632v4.709H86.729zm0-4.709h36.632v4.709H86.729z"/><path d="M86.729 70.519h36.632v4.709H86.729zm36.632 23.545h36.632v4.709h-36.632zm0-4.709h36.632v4.709h-36.632zm0-4.709h36.632v4.709h-36.632zm0-4.709h36.632v4.709h-36.632zm0-4.709h36.632v4.709h-36.632z"/><path d="M123.361 70.519h36.632v4.709h-36.632zm36.632 23.545h36.632v4.709h-36.632zm0-4.709h36.632v4.709h-36.632zm0-4.709h36.632v4.709h-36.632zm0-4.709h36.632v4.709h-36.632zm0-4.709h36.632v4.709h-36.632z"/><path d="M159.993 70.519h36.632v4.709h-36.632zm36.631 23.545h36.632v4.709h-36.632z"/><path d="M196.624 89.355h36.632v4.709h-36.632zm0-4.709h36.632v4.709h-36.632zm0-4.709h36.632v4.709h-36.632zm0-4.709h36.632v4.709h-36.632z"/><path d="M196.624 70.519h36.632v4.709h-36.632zm36.632 23.545h36.632v4.709h-36.632z"/><path d="M233.256 89.355h36.632v4.709h-36.632zm0-4.709h36.632v4.709h-36.632zm0-4.709h36.632v4.709h-36.632zm0-4.709h36.632v4.709h-36.632z"/><path d="M233.256 70.519h36.632v4.709h-36.632zm36.632 23.545h36.632v4.709h-36.632zm0-4.709h36.632v4.709h-36.632zm0-4.709h36.632v4.709h-36.632zm0-4.709h36.632v4.709h-36.632zm0-4.709h36.632v4.709h-36.632z"/><path d="M269.888 70.519h36.632v4.709h-36.632zm36.632 23.545h36.632v4.709H306.52zm0-4.709h36.632v4.709H306.52zm0-4.709h36.632v4.709H306.52zm0-4.709h36.632v4.709H306.52zm0-4.709h36.632v4.709H306.52z"/><path d="M306.52 70.519h36.632v4.709H306.52zm36.632 23.545h36.632v4.709h-36.632zm0-4.709h36.632v4.709h-36.632zm0-4.709h36.632v4.709h-36.632zm0-4.709h36.632v4.709h-36.632zm0-4.709h36.632v4.709h-36.632z"/><path d="M343.152 70.519h36.632v4.709h-36.632zm36.631 23.545h36.632v4.709h-36.632z"/><path d="M379.783 89.355h36.632v4.709h-36.632zm0-4.709h36.632v4.709h-36.632zm0-4.709h36.632v4.709h-36.632zm0-4.709h36.632v4.709h-36.632z"/><path d="M379.783 70.519h36.632v4.709h-36.632zm36.632 23.545h36.632v4.709h-36.632zm0-4.709h36.632v4.709h-36.632zm0-4.709h36.632v4.709h-36.632zm0-4.709h36.632v4.709h-36.632zm0-4.709h36.632v4.709h-36.632z"/><path d="M416.415 70.519h36.632v4.709h-36.632zM13.465 65.81h36.632v4.709H13.465zm0-4.71h36.632v4.709H13.465zm36.632 4.71h36.632v4.709H50.097zm0-4.71h36.632v4.709H50.097zm36.632 4.71h36.632v4.709H86.729zm0-4.71h36.632v4.709H86.729zm36.632 4.71h36.632v4.709h-36.632zm0-4.71h36.632v4.709h-36.632zm36.632 4.71h36.632v4.709h-36.632zm0-4.71h36.632v4.709h-36.632z"/><path d="M196.624 65.81h36.632v4.709h-36.632zm0-4.71h36.632v4.709h-36.632z"/><path d="M233.256 65.81h36.632v4.709h-36.632zm0-4.71h36.632v4.709h-36.632zm36.632 4.71h36.632v4.709h-36.632zm0-4.71h36.632v4.709h-36.632zm36.632 4.71h36.632v4.709H306.52zm0-4.71h36.632v4.709H306.52zm36.632 4.71h36.632v4.709h-36.632zm0-4.71h36.632v4.709h-36.632z"/><path d="M379.783 65.81h36.632v4.709h-36.632zm0-4.71h36.632v4.709h-36.632zm36.632 4.71h36.632v4.709h-36.632zm0-4.71h36.632v4.709h-36.632zm-402.95-4.709h36.632V61.1H13.465z"/><path d="M13.465 51.682h36.632v4.709H13.465zm36.632 4.709h36.632V61.1H50.097zm0-4.709h36.632v4.709H50.097zm36.632 4.709h36.632V61.1H86.729zm0-4.709h36.632v4.709H86.729zm36.632 4.709h36.632V61.1h-36.632zm0-4.709h36.632v4.709h-36.632zm36.632 4.709h36.632V61.1h-36.632zm0-4.709h36.632v4.709h-36.632z"/><path d="M196.624 56.391h36.632V61.1h-36.632z"/><path d="M196.624 51.682h36.632v4.709h-36.632z"/><path d="M233.256 56.391h36.632V61.1h-36.632z"/><path d="M233.256 51.682h36.632v4.709h-36.632zm36.632 4.709h36.632V61.1h-36.632zm0-4.709h36.632v4.709h-36.632zm36.632 4.709h36.632V61.1H306.52zm0-4.709h36.632v4.709H306.52zm36.632 4.709h36.632V61.1h-36.632zm0-4.709h36.632v4.709h-36.632z"/><path d="M379.783 56.391h36.632V61.1h-36.632z"/><path d="M379.783 51.682h36.632v4.709h-36.632zm36.632 4.709h36.632V61.1h-36.632zm0-4.709h36.632v4.709h-36.632zM13.465 117.6h36.632v4.709H13.465zm36.632 0h36.632v4.709H50.097zm36.632 0h36.632v4.709H86.729zm36.632 0h36.632v4.709h-36.632zm36.632 0h36.632v4.709h-36.632z"/><path d="M196.624 117.6h36.632v4.709h-36.632z"/><path d="M233.256 117.6h36.632v4.709h-36.632zm36.632 0h36.632v4.709h-36.632zm36.632 0h36.632v4.709H306.52zm36.632 0h36.632v4.709h-36.632z"/><path d="M379.783 117.6h36.632v4.709h-36.632zm36.632 0h36.632v4.709h-36.632zm-402.95-4.709h36.632v4.709H13.465zm0-4.71h36.632v4.709H13.465zm36.632 4.71h36.632v4.709H50.097zm0-4.71h36.632v4.709H50.097zm36.632 4.71h36.632v4.709H86.729zm0-4.71h36.632v4.709H86.729zm36.632 4.71h36.632v4.709h-36.632zm0-4.71h36.632v4.709h-36.632zm36.632 4.71h36.632v4.709h-36.632zm0-4.71h36.632v4.709h-36.632z"/><path d="M196.624 112.891h36.632v4.709h-36.632zm0-4.71h36.632v4.709h-36.632z"/><path d="M233.256 112.891h36.632v4.709h-36.632zm0-4.71h36.632v4.709h-36.632zm36.632 4.71h36.632v4.709h-36.632zm0-4.71h36.632v4.709h-36.632zm36.632 4.71h36.632v4.709H306.52zm0-4.71h36.632v4.709H306.52zm36.632 4.71h36.632v4.709h-36.632zm0-4.71h36.632v4.709h-36.632z"/><path d="M379.783 112.891h36.632v4.709h-36.632zm0-4.71h36.632v4.709h-36.632zm36.632 4.71h36.632v4.709h-36.632zm0-4.71h36.632v4.709h-36.632zm-402.95-4.708h36.632v4.709H13.465zm0-4.71h36.632v4.709H13.465zm36.632 4.71h36.632v4.709H50.097zm0-4.71h36.632v4.709H50.097zm36.632 4.71h36.632v4.709H86.729zm0-4.71h36.632v4.709H86.729zm36.632 4.71h36.632v4.709h-36.632zm0-4.71h36.632v4.709h-36.632zm36.632 4.71h36.632v4.709h-36.632zm0-4.71h36.632v4.709h-36.632z"/><path d="M196.624 103.473h36.632v4.709h-36.632zm0-4.71h36.632v4.709h-36.632z"/><path d="M233.256 103.473h36.632v4.709h-36.632zm0-4.71h36.632v4.709h-36.632zm36.632 4.71h36.632v4.709h-36.632zm0-4.71h36.632v4.709h-36.632zm36.632 4.71h36.632v4.709H306.52zm0-4.71h36.632v4.709H306.52zm36.632 4.71h36.632v4.709h-36.632zm0-4.71h36.632v4.709h-36.632z"/><path d="M379.783 103.473h36.632v4.709h-36.632zm0-4.71h36.632v4.709h-36.632zm36.632 4.71h36.632v4.709h-36.632zm0-4.71h36.632v4.709h-36.632zm-402.95 28.255h36.632v4.709H13.465zm0-4.709h36.632v4.709H13.465zm36.632 4.709h36.632v4.709H50.097zm0-4.709h36.632v4.709H50.097zm36.632 4.709h36.632v4.709H86.729zm0-4.709h36.632v4.709H86.729zm36.632 4.709h36.632v4.709h-36.632zm0-4.709h36.632v4.709h-36.632zm36.632 4.709h36.632v4.709h-36.632zm0-4.709h36.632v4.709h-36.632z"/><path d="M196.624 127.018h36.632v4.709h-36.632zm0-4.709h36.632v4.709h-36.632z"/><path d="M233.256 127.018h36.632v4.709h-36.632zm0-4.709h36.632v4.709h-36.632zm36.632 4.709h36.632v4.709h-36.632zm0-4.709h36.632v4.709h-36.632zm36.632 4.709h36.632v4.709H306.52zm0-4.709h36.632v4.709H306.52zm36.632 4.709h36.632v4.709h-36.632zm0-4.709h36.632v4.709h-36.632z"/><path d="M379.783 127.018h36.632v4.709h-36.632zm0-4.709h36.632v4.709h-36.632zm36.632 4.709h36.632v4.709h-36.632zm0-4.709h36.632v4.709h-36.632z"/></g><use xlink:href="#id-483e" overflow="visible" fill="none" stroke="#E3E3E3" stroke-width=".35" stroke-miterlimit="10"/><path d="M42.688 122.35l-.28.422-.094-.421m4.533-.001l-1.253 4.768-1.309-4.767m13.028-.001l-1.13.945-1.163 2.328-1.657-3.272m30.442-.001l-2.076 12.347-1.102 2.014-1.53-2.94-1.686 1.825-1.36 6.69-.683-7.692-1.548 1.577-1.872.618-1.587-3.144-1.237-8.643-1.613 3.926-.984 2.486-.866 1.673-.495 1.394-1.393-4.429-1.575-2.262-.495 5.018-1.91-9.565-.83-.892m36.602-.001l-.22 2.095-2.329-1.521-.22-.573m242.272-.001l-.512.98-1.856 1.115-1.608 2.788-1.287-4.882m-1.793-.001l-.746 4.281-1.442-.183-.916 4.13-1.732 3.903h-.247l-.91-7.18-1.658-.776-.617-4.174m61.42-.001l-2.382 2.774-6.198.935-3.396-3.287-.742 6.133h-.248l-.494-3.903-1.175.837-1.629-2.262-4.035 3.032-1.077 6.2-1.732-6.134-1.535 4.47-3.238 1.002-1.714 2.52-.632-4.275-1.028-1.469-3.232 5h-.248l-.247-2.23-2.103-2.23-.37-2.23-.09-1.76-1.033-.997-.815-2.125m50.215-.001l-.04.422-.11-.421" fill="none" stroke="#F59900" stroke-width="1.5" stroke-linecap="round" stroke-linejoin="round" stroke-miterlimit="10"/><g fill="none" stroke="#F59900" stroke-width="1.5" stroke-linecap="round" stroke-linejoin="round" stroke-miterlimit="10"><path d="M341.771 122.318l-1.155-1.04-1.511-2.858-2.857 1.916-1.18 1.982m-5.263 0l-.877-.54-.916.54m63.824 0l-1.869-2.039-.742-1.998-1.508 2.707-.618.828-1.337.295-2.66-1-1.05.583-.888.624m-288.368 0l-.79-1.206-2.35-1.5-1.979-.582-1.352.416-1.184.282-.87 1.6-.466.99m-39.52 0l-.393-.54-1.204.54m57.632-8.121l-.522 2.252-1.895 2.103-2.338 3.766m224.179 0l-.216-.207-1.464-.417-.751-1.137-1.196-.435-1.104-1.009-.618-1.165-.866-1.499-2.969 1.665-1.979-1.918-.927-2.411-1.064-3.53-1.34-.113-.627 2.81-1.979-.999-1.484 1.665-3.04-1.47-1.907 3.968-3.103-1.193-1.103-1.305-2.72 2.998-.99-.833-1.484.5-2.474.832-1.833-3.397-1.398-.433-.8-1.433-2.4-1.231-1.469 3.35-.758 1.396-1.548.169-1.389 1.87-1.108-.103-1.026.562-1.732 1.082-.866 1.166-1.484-.667-3.093-.19-2.102-1.641-1.23-1.887-1.253-.5-.733-1.11-3.084.843-.997-.843-.696.44-1.53 2.058-2.598 4.995-1.67-4.163-1.464-2.405-2.308.907-1.839-7.868M53.363 122.318l-.107-.09-1.943-1.616-1.979 1-2.325.365-.162.34m12.117.001h-1.651m388.728-23.051l2.06-.302 1.93.13m-19.886.859l.597-1.822 2.763.833 1.732-4.996 1.565-3.13 2.03-6.398 1.105 2.359.438 2.883.551 7.617 1.492-3.284.734 4.616.142.754M100.32 114.197l.592-1.411 1.617-4.058.98-3.477 2.474-1.457 1.979-1.166 1.979 1.665 2.844-2.164 2.598 2.33h.247l1.52-3.363 2.183-2.19 1.492-2.855 1.704.819.707 4.524 2.408-.764.87 3.174.476 1.077 1.133-.588 1.415-.398 1.127 1.817 3.518.413.99 1.998 1.57-3.335 3.826.449 1.283 2.22 1.237-1.498 2.185 1.165 2.268-.832 3.215 1.998 1.98-4.33 2.475-4.51 1.522-7.109 1.692-1.067.742 3.86h.247l1.237-.832.626 2.81.996-.256 1.594-2.22 1.608 1.665 1.299.666.35 1.33.701 2.833 2.226.333 1.566-.449.87 4.1 1.33.244 1.227 1.445 1.686-.262.99-1.748 1.484-.833.495-1.332 1.175-2.997 1.018-7.95 1.197-18.447.815-12.568 2.505 4.496.711 2.914.742 5.911.897 6.574.587 7.913.458-3.845 1.521 1.514h.248l1.979-10.657 1.237.333.676-4.917 1.305-4.045.492 3.979.495 4.484h.248l1.979-1 .927-1.207 2.086.097 1.687 3.941.52-5.917.207-4.729 1.747 1.321 1.2-3.583.531-2.035.742-5.566.742-3.47.99 2.394.99 5.933.484-3.265.983 2.578 1.006 4.683 1.26-1.509.472 3.174h.247l.655-3.391 1.088-.868.456 2.761 1.635 7.326 1.856 6.328 1.979 6.595.989 8.558 1.484-2.997 2.227 2.664 1.237 4.33 4.452 3.996h.248l1.731-2.665 1.598 3.025 2.855 3.803.635 1.457m-228.466 9.866l2.287-2.907 2.66 1.075 1.485-1 .726 1.956.201.558m21.49 4.688l-.648-.873-2.056.545-2.315-1.538-3.545.91-1.643-1.294-1.326-2.12-2.72 2.997-.874-.702-1.485.023-1.365-.048-.977-2.27-1.484 1.665-1.052-1.983m409.321-17.676l-.017.101-.828 3.96-.602 3.352-.536 2.27-1.336 1.817-3.958-1.666h-.247l-1.68-1.225-1.784 3.39-1.777-1.781-2.675 3.113h-.248l-1.237-2.997-.742-.666-1.237-.5-1.298 1.165-2.569 1.717-.701 1.294-1.554.529-3.03 2.955-2.289.25-.927.083-.928-.416-3.256 2.201-1.506.213-.247 1.16-.95 2.045"/><path d="M446.041 99.267l-.568 1.402-2.18-1.283m9.754-.421l-.742 2.165-2.274-2.035"/></g><path clip-rule="evenodd" fill="none" stroke="#2DB7BC" stroke-width="1.5" stroke-linecap="round" stroke-linejoin="round" stroke-miterlimit="10" d="M13.465 188.641l.725-1.844.43-.377.96.817 1.92-.817 1.042 1.87 1.523-.41.895 1.58 1.458-1.725.4 1.644.656-.08.38-1.564 1.132.428 1.052 2.816.967-.233.967 1.052.72-1.857 1.94 1.155 3.143-.467 2.119-1.563 1.448.744 1.753.234.967 1.754.634-1.139.907-.147.307.29 1.993.6 2.204.045 1.482-.773.936.89 2.84-1.783.726 1.081.642-1.593.984-.173.853 1.65 1.45-.468.726.818.937-2.043 1.722 1.459 1.505-.384.913 1.436 2.418-.702.967-.35.968.409 1.706.224 2.646-.984 1.693 1.17.954-1.384 2 .448 1.337-1.052 1.082-.702 2.538.682 1.254.364.481.56 2.685-1.138 2.841-1.432.752 1.589.76-.975 1.45.35 1.978.018.682 1.268h.242l2.418-.935 2.901.935 1.303-1.52 1.348.52 1.325-.164 1.168.907 1.143 1.894 1.692-.818.726.818 1.35-.982 2.212.452.817.296.986.077.921 1.56.726-1.754 1.632 1.17.88-1.52 1.527.432 1.522-.199.967 1.052 2.418-1.286 2.176.819.593-1.476.783-.278.69.451 1.153-.568 1.344 1.021.64.313.342-.826 1.19.03 2.243-.141.739.443 1.164.563 1.711-1.276 2.883 1.51 1.043-1.403 2.342.702 2.1-1.286.802 1.402 1.45-.35.726.818.604-1.929.68-.993 1.343.92 1.12.482 1.647-.696 2.102 1.047.85-.718 1.084-1.152 1.68-.05 1.463-2.055.726 2.222h.242l.585-1.178.422-.186 1.41.194 1.574-.831.844.715 1.451-.351.79.434.752-1.724.966-.226 1.119 1.516 1.585.039 1.317.78.585-1.882.382-2.093 1.45 1.52h.242l.877-2.456 1.783 1.988 1.693-2.222 1.262-.593 1.616-.62.748-1.358 1.35.702.794 1.459 1.374.571.714 1.242.779-1.045 2.002-1.526.474 1.138.69-1.175 1.253-.782.726 1.17.295-1.723 1.398-1.317.483 1.87.484 1.87 1.934-.467.252-.865.352-1.532.359-1.559 1.61 2.143.45 1.112 1.012-.216 1.043.333 1.45-.936.726 1.17h.242l1.747-.776 1.127 1.567 1.505 1.456 1.465.295 1.651-.36 1.155-.187.513.546 1.123-2.351 1.078-.308 1.209.936.604.584.968.526.818.834.753.978.336-1.298.384-1.487 1.698 2.2 1.45-1.987.968 2.105.388-2.412 1.485.73 2.815 2.467 1.957-.378.85.528 1.261-1.386 1.283-.307.358.407.726.234.258.624.467 1.13 1.542-2.806.876 3.156h.242l.967-.701 1.178 1.006.333.63.907.818 1.693-.35 1.692 1.87.867-1.885 1.793.365 1.54-1.954 2.57-.851 1.245.63 1.38.436.61.913 2.568-.226h1.693l1.45.234 1.872-.584.788.467 1.451-.35.484.467 1.345-1.514.889-.198.743.318 1.867-.599 1.926-1.397.967.935 2.418-2.046 2.203-1.502 1.092-.553.555-1.742.578-.82 1.375.935.29-1.211.399-1.674 1.506 1.708.484 1.972.176.85.472.225.88.186.387.75.927-1.67 1.491.384.813-6.426.143-2.278.828-.18.15.68.242 3.397.726 3.638.351-3.314.131-1.232.73-.643 1.492-.752 1.165 1.245.725 2.825.732-3.78 1.061-1.072.867 2.514 2.66-.234.866 2.514.781.292 1.496-.117.876-.935.976.617.566 2.305h.241l1.451-1.753.726.76.483.877 1.693 2.922.387-1.686.52-2.264 1.753 1.216 1.826 3.494.814 1.77 1.099-.706.8-.889 1.658.433 1.056 1.905.914-2.688 1.262 2.455h.242l1.613-.853.563 2.84h.242l.223-1.238.251-1.398 1.776 1.878 1.135-.762.457-.71 1.72-.459 1.972-1.923 1.05 1.777.846 1.432.726-2.476 1.324-1.493 1.526.855 1.26 2.997.967-2.572 1.783-.935.514.526.99.587 1.708.165.665-.742.727-.222 1.071-.708.81-.612.452-1.836.54-2.198 1.137-.688.726 1.753 1.541-1.052 1.36 3.39 1.693.351.483-1.695.482-1.686 1.266.817.67 1.863 1.4-1.619 1.047-.226 1.144 1.038.762.69.931-.65 1.245.767.725.79.242 1.508.967 3.196 1.39-7.398.26-1.975.837.069.657 3.063.483 1.158.242.803.242.656h.241l.526-2.728.979-2.299.913 1.17 1.21 1.52.483-2.222.242-1.344.242-1.345 1.463 2.283 1.196 1.926.841-3.801.758-.408.385.844.434 2.079h.242l.666-2.145.956.533 1.28 4.418 1.18-8.982.232-2.227 1.973-.832.967 5.026.384-2.693.417-.697.9.637.595 1.508.968.485 1.33 2.28h.242l1.03-1.795.489-2.126 1.149-.733.475 1.615.423 1.052 1.028 2.338.324-1.775.384-2.107 1.213.542.739 2.054.967-2.221 1.04-1.107.79-3.152.92-.417.877.818.51-2.742.865-.765.641 1.253.68.496.438-1.483 1.702 1.955.581-4.03.628-.997 1.209 1.52.967-.818.846-.936 1.088-2.134.605-5.581.719-5.853.108-1.881 1.03-.191.58 1.87.252 1.348 1.058 6.11.726-6.196 1.45.117.498-3.907.334-2.622.324-1.07.764 1.751.257 1.522.967 3.157.483-1.592.484-1.681 1.49-4.466 1.23.959.423 1.77.726 3.715.725 4.802h.242l1.028-5.378.515-2.332 1.334-1.613.828.92.405 2.92.242 3.035.484 2.243.483 2.601.726 2.531.725 2.788.604-3.718.318-1.962 1.98-.515.967 3.857.408-1.874 1.06-.227.23 1.507.39 2.565.564 3.708 2.184 2.738"/><path clip-rule="evenodd" fill="none" stroke="#6E9ED4" stroke-width="1.5" stroke-linecap="round" stroke-linejoin="round" stroke-miterlimit="10" d="M13.465 171.825l3.838-1.806 1.618.234 1.3 3.834 2.49 1.738.62-1.66 1.879-.728.5 2.217.812 1.664 1.437 1.553 1.25-2.03 1.249 2.15h.25l2-.479 2.998-1.791 1.25.836.75 1.553 1.906-2.46 2.592 1.385 1.74-1.314 1.378.642.88-.224 2.395-.18 1.442-.238.661.955 1.562-1.672 1.437 2.27 1.25-.359 2.499.12.75.716 1.749-.209 3.748 1.523 1.092-1.461 1.907.028 2.767-1.768 1.607 2.365.814.449 2.31.029 1.999 1.672 2.748 1.433 1.5-2.27 2.999 1.553 2.943-4.578 1.305-.557.5-.836.91-1.296 1.83-2.168.759 2.15 1 2.516 1.249 1.664.74-.708 1-.247.884-.717.75-1.433 1.35-2.585 2.523 1.51 2.624-6.568 2.124-5.106 1.259-.866 1.17.859 1.237 2.473.995 1.986 2.12-2.543 1.775 1.477 1.066 3.033.624.777 1.5 1.015h.25l2.187-3.231 2.043.506 2.017 2.128h.25l2.762-.8.987 2.83h.25l2.077-.008.903 1.64 1.268 2.548h2.25l2.748-1.911 1.662-2.333.626-1.115.683-2.45 1.615-.193 1.616-.477 2.295 1.671 1.312-1.074.937 1.433h.25l1.5-.956.944 1.129 1.18-.472 1.374-.537.75 1.075 2.499-3.105 1.374.597 1.125-.418 1.187-1.135 3.575-5.31 1.485-.542.807 1.35 3.956 1.059 1.86 2.368 2.874-1.284 1 1.523 1.365-2.088 1.728-3.234 2.611-1.582 1.304-3.598.257-4.962.981-9.084.554-9.504.194-3.061 1.182 1.868.32 4.857 1.999 16.88v2.162l.435 3.526.564 3.043h.25l2.5-8.002 1.499.359.75-3.464.99-1.552 1.235 1.983 1.235 3.86 1.792.707.614-2.345.89-6.174.481-6.095.259-3.272 1.092 1.17.658 1.209.538 2.63.753 2.43.848.22.777-2.507 1.266.378 2.315 6.761.875.836.449 1.909.408 2.407 1.017-1.012 3.249-6.05 2.076 3.882 2.172 5.074h.25l2.5-1.433 1.091 3.026 1.119 1.337 1.288 4.236h.25l1.361-2.819 1.218.564 2.17 5.599 2.56-.776 2.937.537 1.009-.717 1.253 1.062 1.112 1.566 1.968 2.336 1.062 3.45 2.463-.65 1.018 2.865 1.423 1.434 1.687 2.269 1-3.105 1.827.152.594-.663.578-.086 1.731-1.134 3.267-.897 2.249 1.792 1.75-.478 2.248.12 1.75 1.79 1.531-1.375 2.467-.416 1.375-1.91 1.624-2.03 1.75.477 4.273 1.474 1.276.4 1.077-1.038 2.87 1.553 3.252-.135.496-1.896.5-1.91 1.5.358 2.249-17.795 2.749 2.986.75-4.073.684-4.822.397-1.993 1.17-2.211.247 2.947.249 2.967.501 5.871.315-2.11.98-1.15 1.245 2.28.709 1.697.335-2.507.397-2.976 2.274.555.24 2.76 1.002 3.72 1.25 2.586 1.5 3.505h.249l.75-2.389 2.153.695 1.105 2.405.95 2.066 1.305.09.984.716 1.49-.597.519.929.552 1.978.167.598.77.197 1.25 3.583h.25l.486-1.858 1.514.902h.25l1.305-1.968 1.693-.42 1.026.935 1.286 2.648 1.817 1.12 1.869-1.24 1.75-.716 2.998-.836.741 2.006 2.008-1.41 2.75 2.867h.249l1.312-.478.687 1.075h.25l1.824-1.075 2.674 1.553 3-1.075.999 1.553.694-1.495 2.45-.894 2.729.02 1.124 1.413h.25l3.645-1.2 2.287 1.05 1.619-.027 1.196 1.371 1.633.12 3.365-.299 3.124-.298 1.124-1.314 4.499-2.15.725-2.795.274-.788 1.25-.238.458-1.643 1.996-1.216 1.294 1.784h.25l1.125-1.672.875.955h.25l1.749-3.463 1.232 1.884 1.517 1.22.75-.87 2.498-1.876 1.57-.75 1.11-2.442 2.818-.63 1.828-.485.796.605.68-.796.695-2.787 1.158-2.018 1.485-.587 1.105 2.008 1.13-.69 1.037-.963 1.582-.975.5 1.434 1.537-8.827.462-2.758 1.25 1.553.5 4.792.749 4.881h.25l1.814-2.16.935 3.593h.25l.5-1.85.5-1.805.874-4.286 1.375-3.643 1.752-1.893.45 2.85 1.546 6.448h.25l2.25-3.548.749-2.305 1-5.851.765-2.48.396-2.37.838.192.5 7.218.75 7.471 1.264-.808.233 2.19.502 4.71h.25l.999-2.031 1-1.796 1.374-2.026.875 2.687 1.5 3.971 1.249 4.807h.25l.5-.836 1.749.359"/></svg>