<svg xmlns="http://www.w3.org/2000/svg" xmlns:xlink="http://www.w3.org/1999/xlink" viewBox="0 0 459.085 217.155"><defs><path id="id-36a" d="M2.777 193.566v-75.915c14.633 0 43.898 7.591 87.794 7.591s117.057-7.591 190.219-7.591 148.152 7.593 148.152 7.593l.001 68.36-426.166-.038z"/></defs><clipPath id="id-37b"><use xlink:href="#id-36a" overflow="visible"/></clipPath><g clip-path="url(#id-37b)" fill="none" stroke="#ECECEC" stroke-width=".35" stroke-miterlimit="10"><path d="M2.777 170.807H17.41v7.592H2.777z"/><path d="M17.409 170.807h14.633v7.592H17.409zm14.633 0h14.633v7.592H32.042z"/><path d="M46.674 170.807h14.633v7.592H46.674z"/><path d="M61.306 170.807h14.633v7.592H61.306z"/><path d="M75.938 170.807h14.633v7.592H75.938z"/><path d="M90.57 170.807h14.633v7.592H90.57zm14.633 0h14.633v7.592h-14.633z"/><path d="M119.835 170.807h14.633v7.592h-14.633z"/><path d="M134.467 170.807H149.1v7.592h-14.633z"/><path d="M149.099 170.807h14.633v7.592h-14.633z"/><path d="M163.731 170.807h14.633v7.592h-14.633zm14.633 0h14.633v7.592h-14.633z"/><path d="M192.996 170.807h14.633v7.592h-14.633z"/><path d="M207.628 170.807h14.633v7.592h-14.633z"/><path d="M222.26 170.807h14.633v7.592H222.26z"/><path d="M236.892 170.807h14.633v7.592h-14.633zm14.633 0h14.633v7.592h-14.633z"/><path d="M266.157 170.807h14.633v7.592h-14.633z"/><path d="M280.789 170.807h14.633v7.592h-14.633z"/><path d="M295.421 170.807h14.633v7.592h-14.633zM2.777 163.214H17.41v7.592H2.777z"/><path d="M17.409 163.214h14.633v7.592H17.409zm14.633 0h14.633v7.592H32.042z"/><path d="M46.674 163.214h14.633v7.592H46.674z"/><path d="M61.306 163.214h14.633v7.592H61.306z"/><path d="M75.938 163.214h14.633v7.592H75.938z"/><path d="M90.57 163.214h14.633v7.592H90.57zm14.633 0h14.633v7.592h-14.633z"/><path d="M119.835 163.214h14.633v7.592h-14.633z"/><path d="M134.467 163.214H149.1v7.592h-14.633z"/><path d="M149.099 163.214h14.633v7.592h-14.633z"/><path d="M163.731 163.214h14.633v7.592h-14.633zm14.633 0h14.633v7.592h-14.633z"/><path d="M192.996 163.214h14.633v7.592h-14.633z"/><path d="M207.628 163.214h14.633v7.592h-14.633z"/><path d="M222.26 163.214h14.633v7.592H222.26z"/><path d="M236.892 163.214h14.633v7.592h-14.633zm14.633 0h14.633v7.592h-14.633z"/><path d="M266.157 163.214h14.633v7.592h-14.633z"/><path d="M280.789 163.214h14.633v7.592h-14.633z"/><path d="M295.421 163.214h14.633v7.592h-14.633zM2.777 185.994H17.41v7.592H2.777z"/><path d="M17.409 185.994h14.633v7.592H17.409zm14.633 0h14.633v7.592H32.042z"/><path d="M46.674 185.994h14.633v7.592H46.674z"/><path d="M61.306 185.994h14.633v7.592H61.306z"/><path d="M75.938 185.994h14.633v7.592H75.938z"/><path d="M90.57 185.994h14.633v7.592H90.57zm14.633 0h14.633v7.592h-14.633z"/><path d="M119.835 185.994h14.633v7.592h-14.633z"/><path d="M134.467 185.994H149.1v7.592h-14.633z"/><path d="M149.099 185.994h14.633v7.592h-14.633z"/><path d="M163.731 185.994h14.633v7.592h-14.633zm14.633 0h14.633v7.592h-14.633z"/><path d="M192.996 185.994h14.633v7.592h-14.633z"/><path d="M207.628 185.994h14.633v7.592h-14.633z"/><path d="M222.26 185.994h14.633v7.592H222.26z"/><path d="M236.892 185.994h14.633v7.592h-14.633zm14.633 0h14.633v7.592h-14.633z"/><path d="M266.157 185.994h14.633v7.592h-14.633z"/><path d="M280.789 185.994h14.633v7.592h-14.633z"/><path d="M295.421 185.994h14.633v7.592h-14.633zM2.777 178.401H17.41v7.592H2.777z"/><path d="M17.409 178.401h14.633v7.592H17.409zm14.633 0h14.633v7.592H32.042z"/><path d="M46.674 178.401h14.633v7.592H46.674z"/><path d="M61.306 178.401h14.633v7.592H61.306z"/><path d="M75.938 178.401h14.633v7.592H75.938z"/><path d="M90.57 178.401h14.633v7.592H90.57zm14.633 0h14.633v7.592h-14.633z"/><path d="M119.835 178.401h14.633v7.592h-14.633z"/><path d="M134.467 178.401H149.1v7.592h-14.633z"/><path d="M149.099 178.401h14.633v7.592h-14.633z"/><path d="M163.731 178.401h14.633v7.592h-14.633zm14.633 0h14.633v7.592h-14.633z"/><path d="M192.996 178.401h14.633v7.592h-14.633z"/><path d="M207.628 178.401h14.633v7.592h-14.633z"/><path d="M222.26 178.401h14.633v7.592H222.26z"/><path d="M236.892 178.401h14.633v7.592h-14.633zm14.633 0h14.633v7.592h-14.633z"/><path d="M266.157 178.401h14.633v7.592h-14.633z"/><path d="M280.789 178.401h14.633v7.592h-14.633z"/><path d="M295.421 178.401h14.633v7.592h-14.633zM2.777 87.28H17.41v15.184H2.777z"/><path d="M17.409 87.28h14.633v15.184H17.409zm14.633 0h14.633v15.184H32.042z"/><path d="M46.674 87.28h14.633v15.184H46.674z"/><path d="M61.306 87.28h14.633v15.184H61.306z"/><path d="M75.938 87.28h14.633v15.184H75.938z"/><path d="M90.57 87.28h14.633v15.184H90.57zm14.633 0h14.633v15.184h-14.633z"/><path d="M119.835 87.28h14.633v15.184h-14.633z"/><path d="M134.467 87.28H149.1v15.184h-14.633z"/><path d="M149.099 87.28h14.633v15.184h-14.633z"/><path d="M163.731 87.28h14.633v15.184h-14.633zm14.633 0h14.633v15.184h-14.633z"/><path d="M192.996 87.28h14.633v15.184h-14.633z"/><path d="M207.628 87.28h14.633v15.184h-14.633z"/><path d="M222.26 87.28h14.633v15.184H222.26z"/><path d="M236.892 87.28h14.633v15.184h-14.633zm14.633 0h14.633v15.184h-14.633z"/><path d="M266.157 87.28h14.633v15.184h-14.633z"/><path d="M280.789 87.28h14.633v15.184h-14.633z"/><path d="M295.421 87.28h14.633v15.184h-14.633zM2.777 72.093H17.41v15.184H2.777z"/><path d="M17.409 72.093h14.633v15.184H17.409zm14.633 0h14.633v15.184H32.042z"/><path d="M46.674 72.093h14.633v15.184H46.674z"/><path d="M61.306 72.093h14.633v15.184H61.306z"/><path d="M75.938 72.093h14.633v15.184H75.938z"/><path d="M90.57 72.093h14.633v15.184H90.57zm14.633 0h14.633v15.184h-14.633z"/><path d="M119.835 72.093h14.633v15.184h-14.633z"/><path d="M134.467 72.093H149.1v15.184h-14.633z"/><path d="M149.099 72.093h14.633v15.184h-14.633z"/><path d="M163.731 72.093h14.633v15.184h-14.633zm14.633 0h14.633v15.184h-14.633z"/><path d="M192.996 72.093h14.633v15.184h-14.633z"/><path d="M207.628 72.093h14.633v15.184h-14.633z"/><path d="M222.26 72.093h14.633v15.184H222.26z"/><path d="M236.892 72.093h14.633v15.184h-14.633zm14.633 0h14.633v15.184h-14.633z"/><path d="M266.157 72.093h14.633v15.184h-14.633z"/><path d="M280.789 72.093h14.633v15.184h-14.633z"/><path d="M295.421 72.093h14.633v15.184h-14.633zM2.777 56.909H17.41v15.184H2.777z"/><path d="M17.409 56.909h14.633v15.184H17.409zm14.633 0h14.633v15.184H32.042z"/><path d="M46.674 56.909h14.633v15.184H46.674z"/><path d="M61.306 56.909h14.633v15.184H61.306z"/><path d="M75.938 56.909h14.633v15.184H75.938z"/><path d="M90.57 56.909h14.633v15.184H90.57zm14.633 0h14.633v15.184h-14.633z"/><path d="M119.835 56.909h14.633v15.184h-14.633z"/><path d="M134.467 56.909H149.1v15.184h-14.633z"/><path d="M149.099 56.909h14.633v15.184h-14.633z"/><path d="M163.731 56.909h14.633v15.184h-14.633zm14.633 0h14.633v15.184h-14.633z"/><path d="M192.996 56.909h14.633v15.184h-14.633z"/><path d="M207.628 56.909h14.633v15.184h-14.633z"/><path d="M222.26 56.909h14.633v15.184H222.26z"/><path d="M236.892 56.909h14.633v15.184h-14.633zm14.633 0h14.633v15.184h-14.633z"/><path d="M266.157 56.909h14.633v15.184h-14.633z"/><path d="M280.789 56.909h14.633v15.184h-14.633z"/><path d="M295.421 56.909h14.633v15.184h-14.633zM2.777 41.722H17.41v15.184H2.777z"/><path d="M17.409 41.722h14.633v15.184H17.409zm14.633 0h14.633v15.184H32.042z"/><path d="M46.674 41.722h14.633v15.184H46.674z"/><path d="M61.306 41.722h14.633v15.184H61.306z"/><path d="M75.938 41.722h14.633v15.184H75.938z"/><path d="M90.57 41.722h14.633v15.184H90.57zm14.633 0h14.633v15.184h-14.633z"/><path d="M119.835 41.722h14.633v15.184h-14.633z"/><path d="M134.467 41.722H149.1v15.184h-14.633z"/><path d="M149.099 41.722h14.633v15.184h-14.633z"/><path d="M163.731 41.722h14.633v15.184h-14.633zm14.633 0h14.633v15.184h-14.633z"/><path d="M192.996 41.722h14.633v15.184h-14.633z"/><path d="M207.628 41.722h14.633v15.184h-14.633z"/><path d="M222.26 41.722h14.633v15.184H222.26z"/><path d="M236.892 41.722h14.633v15.184h-14.633zm14.633 0h14.633v15.184h-14.633z"/><path d="M266.157 41.722h14.633v15.184h-14.633z"/><path d="M280.789 41.722h14.633v15.184h-14.633z"/><path d="M295.421 41.722h14.633v15.184h-14.633zM2.777 155.62H17.41v7.592H2.777z"/><path d="M17.409 155.62h14.633v7.592H17.409zm14.633 0h14.633v7.592H32.042z"/><path d="M46.674 155.62h14.633v7.592H46.674z"/><path d="M61.306 155.62h14.633v7.592H61.306z"/><path d="M75.938 155.62h14.633v7.592H75.938z"/><path d="M90.57 155.62h14.633v7.592H90.57zm14.633 0h14.633v7.592h-14.633z"/><path d="M119.835 155.62h14.633v7.592h-14.633z"/><path d="M134.467 155.62H149.1v7.592h-14.633z"/><path d="M149.099 155.62h14.633v7.592h-14.633z"/><path d="M163.731 155.62h14.633v7.592h-14.633zm14.633 0h14.633v7.592h-14.633z"/><path d="M192.996 155.62h14.633v7.592h-14.633z"/><path d="M207.628 155.62h14.633v7.592h-14.633z"/><path d="M222.26 155.62h14.633v7.592H222.26z"/><path d="M236.892 155.62h14.633v7.592h-14.633zm14.633 0h14.633v7.592h-14.633z"/><path d="M266.157 155.62h14.633v7.592h-14.633z"/><path d="M280.789 155.62h14.633v7.592h-14.633z"/><path d="M295.421 155.62h14.633v7.592h-14.633zM2.777 102.467H17.41v15.184H2.777z"/><path d="M17.409 102.467h14.633v15.184H17.409zm14.633 0h14.633v15.184H32.042z"/><path d="M46.674 102.467h14.633v15.184H46.674z"/><path d="M61.306 102.467h14.633v15.184H61.306z"/><path d="M75.938 102.467h14.633v15.184H75.938z"/><path d="M90.57 102.467h14.633v15.184H90.57zm14.633 0h14.633v15.184h-14.633z"/><path d="M119.835 102.467h14.633v15.184h-14.633z"/><path d="M134.467 102.467H149.1v15.184h-14.633z"/><path d="M149.099 102.467h14.633v15.184h-14.633z"/><path d="M163.731 102.467h14.633v15.184h-14.633zm14.633 0h14.633v15.184h-14.633z"/><path d="M192.996 102.467h14.633v15.184h-14.633z"/><path d="M207.628 102.467h14.633v15.184h-14.633z"/><path d="M222.26 102.467h14.633v15.184H222.26z"/><path d="M236.892 102.467h14.633v15.184h-14.633zm14.633 0h14.633v15.184h-14.633z"/><path d="M266.157 102.467h14.633v15.184h-14.633z"/><path d="M280.789 102.467h14.633v15.184h-14.633z"/><path d="M295.421 102.467h14.633v15.184h-14.633zm14.633 68.34h14.633v7.592h-14.633z"/><path d="M324.686 170.807h14.633v7.592h-14.633zm14.633 0h14.633v7.592h-14.633z"/><path d="M353.951 170.807h14.633v7.592h-14.633z"/><path d="M368.583 170.807h14.633v7.592h-14.633z"/><path d="M383.215 170.807h14.633v7.592h-14.633z"/><path d="M397.847 170.807h14.633v7.592h-14.633zm-87.793-7.593h14.633v7.592h-14.633z"/><path d="M324.686 163.214h14.633v7.592h-14.633zm14.633 0h14.633v7.592h-14.633z"/><path d="M353.951 163.214h14.633v7.592h-14.633z"/><path d="M368.583 163.214h14.633v7.592h-14.633z"/><path d="M383.215 163.214h14.633v7.592h-14.633z"/><path d="M397.847 163.214h14.633v7.592h-14.633zm-87.793 22.78h14.633v7.592h-14.633z"/><path d="M324.686 185.994h14.633v7.592h-14.633zm14.633 0h14.633v7.592h-14.633z"/><path d="M353.951 185.994h14.633v7.592h-14.633z"/><path d="M368.583 185.994h14.633v7.592h-14.633z"/><path d="M383.215 185.994h14.633v7.592h-14.633z"/><path d="M397.847 185.994h14.633v7.592h-14.633zm-87.793-7.593h14.633v7.592h-14.633z"/><path d="M324.686 178.401h14.633v7.592h-14.633zm14.633 0h14.633v7.592h-14.633z"/><path d="M353.951 178.401h14.633v7.592h-14.633z"/><path d="M368.583 178.401h14.633v7.592h-14.633z"/><path d="M383.215 178.401h14.633v7.592h-14.633z"/><path d="M397.847 178.401h14.633v7.592h-14.633zM310.054 87.28h14.633v15.184h-14.633z"/><path d="M324.686 87.28h14.633v15.184h-14.633zm14.633 0h14.633v15.184h-14.633z"/><path d="M353.951 87.28h14.633v15.184h-14.633z"/><path d="M368.583 87.28h14.633v15.184h-14.633z"/><path d="M383.215 87.28h14.633v15.184h-14.633z"/><path d="M397.847 87.28h14.633v15.184h-14.633zm-87.793-15.187h14.633v15.184h-14.633z"/><path d="M324.686 72.093h14.633v15.184h-14.633zm14.633 0h14.633v15.184h-14.633z"/><path d="M353.951 72.093h14.633v15.184h-14.633z"/><path d="M368.583 72.093h14.633v15.184h-14.633z"/><path d="M383.215 72.093h14.633v15.184h-14.633z"/><path d="M397.847 72.093h14.633v15.184h-14.633zm-87.793-15.184h14.633v15.184h-14.633z"/><path d="M324.686 56.909h14.633v15.184h-14.633zm14.633 0h14.633v15.184h-14.633z"/><path d="M353.951 56.909h14.633v15.184h-14.633z"/><path d="M368.583 56.909h14.633v15.184h-14.633z"/><path d="M383.215 56.909h14.633v15.184h-14.633z"/><path d="M397.847 56.909h14.633v15.184h-14.633zm-87.793-15.187h14.633v15.184h-14.633z"/><path d="M324.686 41.722h14.633v15.184h-14.633zm14.633 0h14.633v15.184h-14.633z"/><path d="M353.951 41.722h14.633v15.184h-14.633z"/><path d="M368.583 41.722h14.633v15.184h-14.633z"/><path d="M383.215 41.722h14.633v15.184h-14.633z"/><path d="M397.847 41.722h14.633v15.184h-14.633zM310.054 155.62h14.633v7.592h-14.633z"/><path d="M324.686 155.62h14.633v7.592h-14.633zm14.633 0h14.633v7.592h-14.633z"/><path d="M353.951 155.62h14.633v7.592h-14.633z"/><path d="M368.583 155.62h14.633v7.592h-14.633z"/><path d="M383.215 155.62h14.633v7.592h-14.633z"/><path d="M397.847 155.62h14.633v7.592h-14.633zm-87.793-53.153h14.633v15.184h-14.633z"/><path d="M324.686 102.467h14.633v15.184h-14.633zm14.633 0h14.633v15.184h-14.633z"/><path d="M353.951 102.467h14.633v15.184h-14.633z"/><path d="M368.583 102.467h14.633v15.184h-14.633z"/><path d="M383.215 102.467h14.633v15.184h-14.633z"/><path d="M397.847 102.467h14.633v15.184h-14.633zm14.633 68.34h14.633v7.592H412.48zm0-7.593h14.633v7.592H412.48zm0 22.78h14.633v7.592H412.48zm0-7.593h14.633v7.592H412.48zm0-91.121h14.633v15.184H412.48zm0-15.187h14.633v15.184H412.48zm0-15.184h14.633v15.184H412.48zm0-15.187h14.633v15.184H412.48zm0 113.898h14.633v7.592H412.48zM2.777 132.838H17.41v7.592H2.777z"/><path d="M17.409 132.838h14.633v7.592H17.409zm14.633 0h14.633v7.592H32.042z"/><path d="M46.674 132.838h14.633v7.592H46.674z"/><path d="M61.306 132.838h14.633v7.592H61.306z"/><path d="M75.938 132.838h14.633v7.592H75.938z"/><path d="M90.57 132.838h14.633v7.592H90.57zm14.633 0h14.633v7.592h-14.633z"/><path d="M119.835 132.838h14.633v7.592h-14.633z"/><path d="M134.467 132.838H149.1v7.592h-14.633z"/><path d="M149.099 132.838h14.633v7.592h-14.633z"/><path d="M163.731 132.838h14.633v7.592h-14.633zm14.633 0h14.633v7.592h-14.633z"/><path d="M192.996 132.838h14.633v7.592h-14.633z"/><path d="M207.628 132.838h14.633v7.592h-14.633z"/><path d="M222.26 132.838h14.633v7.592H222.26z"/><path d="M236.892 132.838h14.633v7.592h-14.633zm14.633 0h14.633v7.592h-14.633z"/><path d="M266.157 132.838h14.633v7.592h-14.633z"/><path d="M280.789 132.838h14.633v7.592h-14.633z"/><path d="M295.421 132.838h14.633v7.592h-14.633zM2.777 125.244H17.41v7.592H2.777z"/><path d="M17.409 125.244h14.633v7.592H17.409zm14.633 0h14.633v7.592H32.042z"/><path d="M46.674 125.244h14.633v7.592H46.674z"/><path d="M61.306 125.244h14.633v7.592H61.306z"/><path d="M75.938 125.244h14.633v7.592H75.938z"/><path d="M90.57 125.244h14.633v7.592H90.57zm14.633 0h14.633v7.592h-14.633z"/><path d="M119.835 125.244h14.633v7.592h-14.633z"/><path d="M134.467 125.244H149.1v7.592h-14.633z"/><path d="M149.099 125.244h14.633v7.592h-14.633z"/><path d="M163.731 125.244h14.633v7.592h-14.633zm14.633 0h14.633v7.592h-14.633z"/><path d="M192.996 125.244h14.633v7.592h-14.633z"/><path d="M207.628 125.244h14.633v7.592h-14.633z"/><path d="M222.26 125.244h14.633v7.592H222.26z"/><path d="M236.892 125.244h14.633v7.592h-14.633zm14.633 0h14.633v7.592h-14.633z"/><path d="M266.157 125.244h14.633v7.592h-14.633z"/><path d="M280.789 125.244h14.633v7.592h-14.633z"/><path d="M295.421 125.244h14.633v7.592h-14.633zM2.777 148.025H17.41v7.592H2.777z"/><path d="M17.409 148.025h14.633v7.592H17.409zm14.633 0h14.633v7.592H32.042z"/><path d="M46.674 148.025h14.633v7.592H46.674z"/><path d="M61.306 148.025h14.633v7.592H61.306z"/><path d="M75.938 148.025h14.633v7.592H75.938z"/><path d="M90.57 148.025h14.633v7.592H90.57zm14.633 0h14.633v7.592h-14.633z"/><path d="M119.835 148.025h14.633v7.592h-14.633z"/><path d="M134.467 148.025H149.1v7.592h-14.633z"/><path d="M149.099 148.025h14.633v7.592h-14.633z"/><path d="M163.731 148.025h14.633v7.592h-14.633zm14.633 0h14.633v7.592h-14.633z"/><path d="M192.996 148.025h14.633v7.592h-14.633z"/><path d="M207.628 148.025h14.633v7.592h-14.633z"/><path d="M222.26 148.025h14.633v7.592H222.26z"/><path d="M236.892 148.025h14.633v7.592h-14.633zm14.633 0h14.633v7.592h-14.633z"/><path d="M266.157 148.025h14.633v7.592h-14.633z"/><path d="M280.789 148.025h14.633v7.592h-14.633z"/><path d="M295.421 148.025h14.633v7.592h-14.633zM2.777 140.431H17.41v7.592H2.777z"/><path d="M17.409 140.431h14.633v7.592H17.409zm14.633 0h14.633v7.592H32.042z"/><path d="M46.674 140.431h14.633v7.592H46.674z"/><path d="M61.306 140.431h14.633v7.592H61.306z"/><path d="M75.938 140.431h14.633v7.592H75.938z"/><path d="M90.57 140.431h14.633v7.592H90.57zm14.633 0h14.633v7.592h-14.633z"/><path d="M119.835 140.431h14.633v7.592h-14.633z"/><path d="M134.467 140.431H149.1v7.592h-14.633z"/><path d="M149.099 140.431h14.633v7.592h-14.633z"/><path d="M163.731 140.431h14.633v7.592h-14.633zm14.633 0h14.633v7.592h-14.633z"/><path d="M192.996 140.431h14.633v7.592h-14.633z"/><path d="M207.628 140.431h14.633v7.592h-14.633z"/><path d="M222.26 140.431h14.633v7.592H222.26z"/><path d="M236.892 140.431h14.633v7.592h-14.633zm14.633 0h14.633v7.592h-14.633z"/><path d="M266.157 140.431h14.633v7.592h-14.633z"/><path d="M280.789 140.431h14.633v7.592h-14.633z"/><path d="M295.421 140.431h14.633v7.592h-14.633zM2.777 117.651H17.41v7.592H2.777z"/><path d="M17.409 117.651h14.633v7.592H17.409zm14.633 0h14.633v7.592H32.042z"/><path d="M46.674 117.651h14.633v7.592H46.674z"/><path d="M61.306 117.651h14.633v7.592H61.306z"/><path d="M75.938 117.651h14.633v7.592H75.938z"/><path d="M90.57 117.651h14.633v7.592H90.57zm14.633 0h14.633v7.592h-14.633z"/><path d="M119.835 117.651h14.633v7.592h-14.633z"/><path d="M134.467 117.651H149.1v7.592h-14.633z"/><path d="M149.099 117.651h14.633v7.592h-14.633z"/><path d="M163.731 117.651h14.633v7.592h-14.633zm14.633 0h14.633v7.592h-14.633z"/><path d="M192.996 117.651h14.633v7.592h-14.633z"/><path d="M207.628 117.651h14.633v7.592h-14.633z"/><path d="M222.26 117.651h14.633v7.592H222.26z"/><path d="M236.892 117.651h14.633v7.592h-14.633zm14.633 0h14.633v7.592h-14.633z"/><path d="M266.157 117.651h14.633v7.592h-14.633z"/><path d="M280.789 117.651h14.633v7.592h-14.633z"/><path d="M295.421 117.651h14.633v7.592h-14.633zm14.633 15.187h14.633v7.592h-14.633z"/><path d="M324.686 132.838h14.633v7.592h-14.633zm14.633 0h14.633v7.592h-14.633z"/><path d="M353.951 132.838h14.633v7.592h-14.633z"/><path d="M368.583 132.838h14.633v7.592h-14.633z"/><path d="M383.215 132.838h14.633v7.592h-14.633z"/><path d="M397.847 132.838h14.633v7.592h-14.633zm-87.793-7.594h14.633v7.592h-14.633z"/><path d="M324.686 125.244h14.633v7.592h-14.633zm14.633 0h14.633v7.592h-14.633z"/><path d="M353.951 125.244h14.633v7.592h-14.633z"/><path d="M368.583 125.244h14.633v7.592h-14.633z"/><path d="M383.215 125.244h14.633v7.592h-14.633z"/><path d="M397.847 125.244h14.633v7.592h-14.633zm-87.793 22.781h14.633v7.592h-14.633z"/><path d="M324.686 148.025h14.633v7.592h-14.633zm14.633 0h14.633v7.592h-14.633z"/><path d="M353.951 148.025h14.633v7.592h-14.633z"/><path d="M368.583 148.025h14.633v7.592h-14.633z"/><path d="M383.215 148.025h14.633v7.592h-14.633z"/><path d="M397.847 148.025h14.633v7.592h-14.633zm-87.793-7.594h14.633v7.592h-14.633z"/><path d="M324.686 140.431h14.633v7.592h-14.633zm14.633 0h14.633v7.592h-14.633z"/><path d="M353.951 140.431h14.633v7.592h-14.633z"/><path d="M368.583 140.431h14.633v7.592h-14.633z"/><path d="M383.215 140.431h14.633v7.592h-14.633z"/><path d="M397.847 140.431h14.633v7.592h-14.633zm-87.793-22.78h14.633v7.592h-14.633z"/><path d="M324.686 117.651h14.633v7.592h-14.633zm14.633 0h14.633v7.592h-14.633z"/><path d="M353.951 117.651h14.633v7.592h-14.633z"/><path d="M368.583 117.651h14.633v7.592h-14.633z"/><path d="M383.215 117.651h14.633v7.592h-14.633z"/><path d="M397.847 117.651h14.633v7.592h-14.633zm14.633 15.187h14.633v7.592H412.48zm0-7.594h14.633v7.592H412.48zm0 22.781h14.633v7.592H412.48zm0-7.594h14.633v7.592H412.48zm0-22.78h14.633v7.592H412.48zm0-15.184h14.633v15.184H412.48zm14.633 68.34h1.829v7.592h-1.829zm0-7.593h1.829v7.592h-1.829zm0 22.78h1.829v7.592h-1.829zm0-7.593h1.829v7.592h-1.829zm0-91.121h1.829v15.184h-1.829zm0-15.187h1.829v15.184h-1.829zm0-15.184h1.829v15.184h-1.829zm0-15.187h1.829v15.184h-1.829zm0 113.898h1.829v7.592h-1.829zm0-22.782h1.829v7.592h-1.829zm0-7.594h1.829v7.592h-1.829zm0 22.781h1.829v7.592h-1.829zm0-7.594h1.829v7.592h-1.829zm0-22.78h1.829v7.592h-1.829zm0-15.184h1.829v15.184h-1.829z"/></g><use xlink:href="#id-36a" overflow="visible" fill="none" stroke="#ECECEC" stroke-width=".35" stroke-miterlimit="10"/><defs><path id="id-38c" d="M2.777 41.703v70.948c14.633 0 43.898 7.591 87.794 7.591s117.057-7.591 190.219-7.591 148.152 7.593 148.152 7.593l.001-78.502-426.166-.039z"/></defs><clipPath id="id-39d"><use xlink:href="#id-38c" overflow="visible"/></clipPath><g clip-path="url(#id-39d)" fill="none" stroke="#ECECEC" stroke-width=".35" stroke-miterlimit="10"><path d="M2.777 170.807H17.41v7.592H2.777z"/><path d="M17.409 170.807h14.633v7.592H17.409zm14.633 0h14.633v7.592H32.042z"/><path d="M46.674 170.807h14.633v7.592H46.674z"/><path d="M61.306 170.807h14.633v7.592H61.306z"/><path d="M75.938 170.807h14.633v7.592H75.938z"/><path d="M90.57 170.807h14.633v7.592H90.57zm14.633 0h14.633v7.592h-14.633z"/><path d="M119.835 170.807h14.633v7.592h-14.633z"/><path d="M134.467 170.807H149.1v7.592h-14.633z"/><path d="M149.099 170.807h14.633v7.592h-14.633z"/><path d="M163.731 170.807h14.633v7.592h-14.633zm14.633 0h14.633v7.592h-14.633z"/><path d="M192.996 170.807h14.633v7.592h-14.633z"/><path d="M207.628 170.807h14.633v7.592h-14.633z"/><path d="M222.26 170.807h14.633v7.592H222.26z"/><path d="M236.892 170.807h14.633v7.592h-14.633zm14.633 0h14.633v7.592h-14.633z"/><path d="M266.157 170.807h14.633v7.592h-14.633z"/><path d="M280.789 170.807h14.633v7.592h-14.633z"/><path d="M295.421 170.807h14.633v7.592h-14.633zM2.777 163.214H17.41v7.592H2.777z"/><path d="M17.409 163.214h14.633v7.592H17.409zm14.633 0h14.633v7.592H32.042z"/><path d="M46.674 163.214h14.633v7.592H46.674z"/><path d="M61.306 163.214h14.633v7.592H61.306z"/><path d="M75.938 163.214h14.633v7.592H75.938z"/><path d="M90.57 163.214h14.633v7.592H90.57zm14.633 0h14.633v7.592h-14.633z"/><path d="M119.835 163.214h14.633v7.592h-14.633z"/><path d="M134.467 163.214H149.1v7.592h-14.633z"/><path d="M149.099 163.214h14.633v7.592h-14.633z"/><path d="M163.731 163.214h14.633v7.592h-14.633zm14.633 0h14.633v7.592h-14.633z"/><path d="M192.996 163.214h14.633v7.592h-14.633z"/><path d="M207.628 163.214h14.633v7.592h-14.633z"/><path d="M222.26 163.214h14.633v7.592H222.26z"/><path d="M236.892 163.214h14.633v7.592h-14.633zm14.633 0h14.633v7.592h-14.633z"/><path d="M266.157 163.214h14.633v7.592h-14.633z"/><path d="M280.789 163.214h14.633v7.592h-14.633z"/><path d="M295.421 163.214h14.633v7.592h-14.633zM2.777 185.994H17.41v7.592H2.777z"/><path d="M17.409 185.994h14.633v7.592H17.409zm14.633 0h14.633v7.592H32.042z"/><path d="M46.674 185.994h14.633v7.592H46.674z"/><path d="M61.306 185.994h14.633v7.592H61.306z"/><path d="M75.938 185.994h14.633v7.592H75.938z"/><path d="M90.57 185.994h14.633v7.592H90.57zm14.633 0h14.633v7.592h-14.633z"/><path d="M119.835 185.994h14.633v7.592h-14.633z"/><path d="M134.467 185.994H149.1v7.592h-14.633z"/><path d="M149.099 185.994h14.633v7.592h-14.633z"/><path d="M163.731 185.994h14.633v7.592h-14.633zm14.633 0h14.633v7.592h-14.633z"/><path d="M192.996 185.994h14.633v7.592h-14.633z"/><path d="M207.628 185.994h14.633v7.592h-14.633z"/><path d="M222.26 185.994h14.633v7.592H222.26z"/><path d="M236.892 185.994h14.633v7.592h-14.633zm14.633 0h14.633v7.592h-14.633z"/><path d="M266.157 185.994h14.633v7.592h-14.633z"/><path d="M280.789 185.994h14.633v7.592h-14.633z"/><path d="M295.421 185.994h14.633v7.592h-14.633zM2.777 178.401H17.41v7.592H2.777z"/><path d="M17.409 178.401h14.633v7.592H17.409zm14.633 0h14.633v7.592H32.042z"/><path d="M46.674 178.401h14.633v7.592H46.674z"/><path d="M61.306 178.401h14.633v7.592H61.306z"/><path d="M75.938 178.401h14.633v7.592H75.938z"/><path d="M90.57 178.401h14.633v7.592H90.57zm14.633 0h14.633v7.592h-14.633z"/><path d="M119.835 178.401h14.633v7.592h-14.633z"/><path d="M134.467 178.401H149.1v7.592h-14.633z"/><path d="M149.099 178.401h14.633v7.592h-14.633z"/><path d="M163.731 178.401h14.633v7.592h-14.633zm14.633 0h14.633v7.592h-14.633z"/><path d="M192.996 178.401h14.633v7.592h-14.633z"/><path d="M207.628 178.401h14.633v7.592h-14.633z"/><path d="M222.26 178.401h14.633v7.592H222.26z"/><path d="M236.892 178.401h14.633v7.592h-14.633zm14.633 0h14.633v7.592h-14.633z"/><path d="M266.157 178.401h14.633v7.592h-14.633z"/><path d="M280.789 178.401h14.633v7.592h-14.633z"/><path d="M295.421 178.401h14.633v7.592h-14.633zM2.777 87.28H17.41v15.184H2.777z"/><path d="M17.409 87.28h14.633v15.184H17.409zm14.633 0h14.633v15.184H32.042z"/><path d="M46.674 87.28h14.633v15.184H46.674z"/><path d="M61.306 87.28h14.633v15.184H61.306z"/><path d="M75.938 87.28h14.633v15.184H75.938z"/><path d="M90.57 87.28h14.633v15.184H90.57zm14.633 0h14.633v15.184h-14.633z"/><path d="M119.835 87.28h14.633v15.184h-14.633z"/><path d="M134.467 87.28H149.1v15.184h-14.633z"/><path d="M149.099 87.28h14.633v15.184h-14.633z"/><path d="M163.731 87.28h14.633v15.184h-14.633zm14.633 0h14.633v15.184h-14.633z"/><path d="M192.996 87.28h14.633v15.184h-14.633z"/><path d="M207.628 87.28h14.633v15.184h-14.633z"/><path d="M222.26 87.28h14.633v15.184H222.26z"/><path d="M236.892 87.28h14.633v15.184h-14.633zm14.633 0h14.633v15.184h-14.633z"/><path d="M266.157 87.28h14.633v15.184h-14.633z"/><path d="M280.789 87.28h14.633v15.184h-14.633z"/><path d="M295.421 87.28h14.633v15.184h-14.633zM2.777 72.093H17.41v15.184H2.777z"/><path d="M17.409 72.093h14.633v15.184H17.409zm14.633 0h14.633v15.184H32.042z"/><path d="M46.674 72.093h14.633v15.184H46.674z"/><path d="M61.306 72.093h14.633v15.184H61.306z"/><path d="M75.938 72.093h14.633v15.184H75.938z"/><path d="M90.57 72.093h14.633v15.184H90.57zm14.633 0h14.633v15.184h-14.633z"/><path d="M119.835 72.093h14.633v15.184h-14.633z"/><path d="M134.467 72.093H149.1v15.184h-14.633z"/><path d="M149.099 72.093h14.633v15.184h-14.633z"/><path d="M163.731 72.093h14.633v15.184h-14.633zm14.633 0h14.633v15.184h-14.633z"/><path d="M192.996 72.093h14.633v15.184h-14.633z"/><path d="M207.628 72.093h14.633v15.184h-14.633z"/><path d="M222.26 72.093h14.633v15.184H222.26z"/><path d="M236.892 72.093h14.633v15.184h-14.633zm14.633 0h14.633v15.184h-14.633z"/><path d="M266.157 72.093h14.633v15.184h-14.633z"/><path d="M280.789 72.093h14.633v15.184h-14.633z"/><path d="M295.421 72.093h14.633v15.184h-14.633zM2.777 56.909H17.41v15.184H2.777z"/><path d="M17.409 56.909h14.633v15.184H17.409zm14.633 0h14.633v15.184H32.042z"/><path d="M46.674 56.909h14.633v15.184H46.674z"/><path d="M61.306 56.909h14.633v15.184H61.306z"/><path d="M75.938 56.909h14.633v15.184H75.938z"/><path d="M90.57 56.909h14.633v15.184H90.57zm14.633 0h14.633v15.184h-14.633z"/><path d="M119.835 56.909h14.633v15.184h-14.633z"/><path d="M134.467 56.909H149.1v15.184h-14.633z"/><path d="M149.099 56.909h14.633v15.184h-14.633z"/><path d="M163.731 56.909h14.633v15.184h-14.633zm14.633 0h14.633v15.184h-14.633z"/><path d="M192.996 56.909h14.633v15.184h-14.633z"/><path d="M207.628 56.909h14.633v15.184h-14.633z"/><path d="M222.26 56.909h14.633v15.184H222.26z"/><path d="M236.892 56.909h14.633v15.184h-14.633zm14.633 0h14.633v15.184h-14.633z"/><path d="M266.157 56.909h14.633v15.184h-14.633z"/><path d="M280.789 56.909h14.633v15.184h-14.633z"/><path d="M295.421 56.909h14.633v15.184h-14.633zM2.777 41.722H17.41v15.184H2.777z"/><path d="M17.409 41.722h14.633v15.184H17.409zm14.633 0h14.633v15.184H32.042z"/><path d="M46.674 41.722h14.633v15.184H46.674z"/><path d="M61.306 41.722h14.633v15.184H61.306z"/><path d="M75.938 41.722h14.633v15.184H75.938z"/><path d="M90.57 41.722h14.633v15.184H90.57zm14.633 0h14.633v15.184h-14.633z"/><path d="M119.835 41.722h14.633v15.184h-14.633z"/><path d="M134.467 41.722H149.1v15.184h-14.633z"/><path d="M149.099 41.722h14.633v15.184h-14.633z"/><path d="M163.731 41.722h14.633v15.184h-14.633zm14.633 0h14.633v15.184h-14.633z"/><path d="M192.996 41.722h14.633v15.184h-14.633z"/><path d="M207.628 41.722h14.633v15.184h-14.633z"/><path d="M222.26 41.722h14.633v15.184H222.26z"/><path d="M236.892 41.722h14.633v15.184h-14.633zm14.633 0h14.633v15.184h-14.633z"/><path d="M266.157 41.722h14.633v15.184h-14.633z"/><path d="M280.789 41.722h14.633v15.184h-14.633z"/><path d="M295.421 41.722h14.633v15.184h-14.633zM2.777 155.62H17.41v7.592H2.777z"/><path d="M17.409 155.62h14.633v7.592H17.409zm14.633 0h14.633v7.592H32.042z"/><path d="M46.674 155.62h14.633v7.592H46.674z"/><path d="M61.306 155.62h14.633v7.592H61.306z"/><path d="M75.938 155.62h14.633v7.592H75.938z"/><path d="M90.57 155.62h14.633v7.592H90.57zm14.633 0h14.633v7.592h-14.633z"/><path d="M119.835 155.62h14.633v7.592h-14.633z"/><path d="M134.467 155.62H149.1v7.592h-14.633z"/><path d="M149.099 155.62h14.633v7.592h-14.633z"/><path d="M163.731 155.62h14.633v7.592h-14.633zm14.633 0h14.633v7.592h-14.633z"/><path d="M192.996 155.62h14.633v7.592h-14.633z"/><path d="M207.628 155.62h14.633v7.592h-14.633z"/><path d="M222.26 155.62h14.633v7.592H222.26z"/><path d="M236.892 155.62h14.633v7.592h-14.633zm14.633 0h14.633v7.592h-14.633z"/><path d="M266.157 155.62h14.633v7.592h-14.633z"/><path d="M280.789 155.62h14.633v7.592h-14.633z"/><path d="M295.421 155.62h14.633v7.592h-14.633zM2.777 102.467H17.41v15.184H2.777z"/><path d="M17.409 102.467h14.633v15.184H17.409zm14.633 0h14.633v15.184H32.042z"/><path d="M46.674 102.467h14.633v15.184H46.674z"/><path d="M61.306 102.467h14.633v15.184H61.306z"/><path d="M75.938 102.467h14.633v15.184H75.938z"/><path d="M90.57 102.467h14.633v15.184H90.57zm14.633 0h14.633v15.184h-14.633z"/><path d="M119.835 102.467h14.633v15.184h-14.633z"/><path d="M134.467 102.467H149.1v15.184h-14.633z"/><path d="M149.099 102.467h14.633v15.184h-14.633z"/><path d="M163.731 102.467h14.633v15.184h-14.633zm14.633 0h14.633v15.184h-14.633z"/><path d="M192.996 102.467h14.633v15.184h-14.633z"/><path d="M207.628 102.467h14.633v15.184h-14.633z"/><path d="M222.26 102.467h14.633v15.184H222.26z"/><path d="M236.892 102.467h14.633v15.184h-14.633zm14.633 0h14.633v15.184h-14.633z"/><path d="M266.157 102.467h14.633v15.184h-14.633z"/><path d="M280.789 102.467h14.633v15.184h-14.633z"/><path d="M295.421 102.467h14.633v15.184h-14.633zm14.633 68.34h14.633v7.592h-14.633z"/><path d="M324.686 170.807h14.633v7.592h-14.633zm14.633 0h14.633v7.592h-14.633z"/><path d="M353.951 170.807h14.633v7.592h-14.633z"/><path d="M368.583 170.807h14.633v7.592h-14.633z"/><path d="M383.215 170.807h14.633v7.592h-14.633z"/><path d="M397.847 170.807h14.633v7.592h-14.633zm-87.793-7.593h14.633v7.592h-14.633z"/><path d="M324.686 163.214h14.633v7.592h-14.633zm14.633 0h14.633v7.592h-14.633z"/><path d="M353.951 163.214h14.633v7.592h-14.633z"/><path d="M368.583 163.214h14.633v7.592h-14.633z"/><path d="M383.215 163.214h14.633v7.592h-14.633z"/><path d="M397.847 163.214h14.633v7.592h-14.633zm-87.793 22.78h14.633v7.592h-14.633z"/><path d="M324.686 185.994h14.633v7.592h-14.633zm14.633 0h14.633v7.592h-14.633z"/><path d="M353.951 185.994h14.633v7.592h-14.633z"/><path d="M368.583 185.994h14.633v7.592h-14.633z"/><path d="M383.215 185.994h14.633v7.592h-14.633z"/><path d="M397.847 185.994h14.633v7.592h-14.633zm-87.793-7.593h14.633v7.592h-14.633z"/><path d="M324.686 178.401h14.633v7.592h-14.633zm14.633 0h14.633v7.592h-14.633z"/><path d="M353.951 178.401h14.633v7.592h-14.633z"/><path d="M368.583 178.401h14.633v7.592h-14.633z"/><path d="M383.215 178.401h14.633v7.592h-14.633z"/><path d="M397.847 178.401h14.633v7.592h-14.633zM310.054 87.28h14.633v15.184h-14.633z"/><path d="M324.686 87.28h14.633v15.184h-14.633zm14.633 0h14.633v15.184h-14.633z"/><path d="M353.951 87.28h14.633v15.184h-14.633z"/><path d="M368.583 87.28h14.633v15.184h-14.633z"/><path d="M383.215 87.28h14.633v15.184h-14.633z"/><path d="M397.847 87.28h14.633v15.184h-14.633zm-87.793-15.187h14.633v15.184h-14.633z"/><path d="M324.686 72.093h14.633v15.184h-14.633zm14.633 0h14.633v15.184h-14.633z"/><path d="M353.951 72.093h14.633v15.184h-14.633z"/><path d="M368.583 72.093h14.633v15.184h-14.633z"/><path d="M383.215 72.093h14.633v15.184h-14.633z"/><path d="M397.847 72.093h14.633v15.184h-14.633zm-87.793-15.184h14.633v15.184h-14.633z"/><path d="M324.686 56.909h14.633v15.184h-14.633zm14.633 0h14.633v15.184h-14.633z"/><path d="M353.951 56.909h14.633v15.184h-14.633z"/><path d="M368.583 56.909h14.633v15.184h-14.633z"/><path d="M383.215 56.909h14.633v15.184h-14.633z"/><path d="M397.847 56.909h14.633v15.184h-14.633zm-87.793-15.187h14.633v15.184h-14.633z"/><path d="M324.686 41.722h14.633v15.184h-14.633zm14.633 0h14.633v15.184h-14.633z"/><path d="M353.951 41.722h14.633v15.184h-14.633z"/><path d="M368.583 41.722h14.633v15.184h-14.633z"/><path d="M383.215 41.722h14.633v15.184h-14.633z"/><path d="M397.847 41.722h14.633v15.184h-14.633zM310.054 155.62h14.633v7.592h-14.633z"/><path d="M324.686 155.62h14.633v7.592h-14.633zm14.633 0h14.633v7.592h-14.633z"/><path d="M353.951 155.62h14.633v7.592h-14.633z"/><path d="M368.583 155.62h14.633v7.592h-14.633z"/><path d="M383.215 155.62h14.633v7.592h-14.633z"/><path d="M397.847 155.62h14.633v7.592h-14.633zm-87.793-53.153h14.633v15.184h-14.633z"/><path d="M324.686 102.467h14.633v15.184h-14.633zm14.633 0h14.633v15.184h-14.633z"/><path d="M353.951 102.467h14.633v15.184h-14.633z"/><path d="M368.583 102.467h14.633v15.184h-14.633z"/><path d="M383.215 102.467h14.633v15.184h-14.633z"/><path d="M397.847 102.467h14.633v15.184h-14.633zm14.633 68.34h14.633v7.592H412.48zm0-7.593h14.633v7.592H412.48zm0 22.78h14.633v7.592H412.48zm0-7.593h14.633v7.592H412.48zm0-91.121h14.633v15.184H412.48zm0-15.187h14.633v15.184H412.48zm0-15.184h14.633v15.184H412.48zm0-15.187h14.633v15.184H412.48zm0 113.898h14.633v7.592H412.48zM2.777 132.838H17.41v7.592H2.777z"/><path d="M17.409 132.838h14.633v7.592H17.409zm14.633 0h14.633v7.592H32.042z"/><path d="M46.674 132.838h14.633v7.592H46.674z"/><path d="M61.306 132.838h14.633v7.592H61.306z"/><path d="M75.938 132.838h14.633v7.592H75.938z"/><path d="M90.57 132.838h14.633v7.592H90.57zm14.633 0h14.633v7.592h-14.633z"/><path d="M119.835 132.838h14.633v7.592h-14.633z"/><path d="M134.467 132.838H149.1v7.592h-14.633z"/><path d="M149.099 132.838h14.633v7.592h-14.633z"/><path d="M163.731 132.838h14.633v7.592h-14.633zm14.633 0h14.633v7.592h-14.633z"/><path d="M192.996 132.838h14.633v7.592h-14.633z"/><path d="M207.628 132.838h14.633v7.592h-14.633z"/><path d="M222.26 132.838h14.633v7.592H222.26z"/><path d="M236.892 132.838h14.633v7.592h-14.633zm14.633 0h14.633v7.592h-14.633z"/><path d="M266.157 132.838h14.633v7.592h-14.633z"/><path d="M280.789 132.838h14.633v7.592h-14.633z"/><path d="M295.421 132.838h14.633v7.592h-14.633zM2.777 125.244H17.41v7.592H2.777z"/><path d="M17.409 125.244h14.633v7.592H17.409zm14.633 0h14.633v7.592H32.042z"/><path d="M46.674 125.244h14.633v7.592H46.674z"/><path d="M61.306 125.244h14.633v7.592H61.306z"/><path d="M75.938 125.244h14.633v7.592H75.938z"/><path d="M90.57 125.244h14.633v7.592H90.57zm14.633 0h14.633v7.592h-14.633z"/><path d="M119.835 125.244h14.633v7.592h-14.633z"/><path d="M134.467 125.244H149.1v7.592h-14.633z"/><path d="M149.099 125.244h14.633v7.592h-14.633z"/><path d="M163.731 125.244h14.633v7.592h-14.633zm14.633 0h14.633v7.592h-14.633z"/><path d="M192.996 125.244h14.633v7.592h-14.633z"/><path d="M207.628 125.244h14.633v7.592h-14.633z"/><path d="M222.26 125.244h14.633v7.592H222.26z"/><path d="M236.892 125.244h14.633v7.592h-14.633zm14.633 0h14.633v7.592h-14.633z"/><path d="M266.157 125.244h14.633v7.592h-14.633z"/><path d="M280.789 125.244h14.633v7.592h-14.633z"/><path d="M295.421 125.244h14.633v7.592h-14.633zM2.777 148.025H17.41v7.592H2.777z"/><path d="M17.409 148.025h14.633v7.592H17.409zm14.633 0h14.633v7.592H32.042z"/><path d="M46.674 148.025h14.633v7.592H46.674z"/><path d="M61.306 148.025h14.633v7.592H61.306z"/><path d="M75.938 148.025h14.633v7.592H75.938z"/><path d="M90.57 148.025h14.633v7.592H90.57zm14.633 0h14.633v7.592h-14.633z"/><path d="M119.835 148.025h14.633v7.592h-14.633z"/><path d="M134.467 148.025H149.1v7.592h-14.633z"/><path d="M149.099 148.025h14.633v7.592h-14.633z"/><path d="M163.731 148.025h14.633v7.592h-14.633zm14.633 0h14.633v7.592h-14.633z"/><path d="M192.996 148.025h14.633v7.592h-14.633z"/><path d="M207.628 148.025h14.633v7.592h-14.633z"/><path d="M222.26 148.025h14.633v7.592H222.26z"/><path d="M236.892 148.025h14.633v7.592h-14.633zm14.633 0h14.633v7.592h-14.633z"/><path d="M266.157 148.025h14.633v7.592h-14.633z"/><path d="M280.789 148.025h14.633v7.592h-14.633z"/><path d="M295.421 148.025h14.633v7.592h-14.633zM2.777 140.431H17.41v7.592H2.777z"/><path d="M17.409 140.431h14.633v7.592H17.409zm14.633 0h14.633v7.592H32.042z"/><path d="M46.674 140.431h14.633v7.592H46.674z"/><path d="M61.306 140.431h14.633v7.592H61.306z"/><path d="M75.938 140.431h14.633v7.592H75.938z"/><path d="M90.57 140.431h14.633v7.592H90.57zm14.633 0h14.633v7.592h-14.633z"/><path d="M119.835 140.431h14.633v7.592h-14.633z"/><path d="M134.467 140.431H149.1v7.592h-14.633z"/><path d="M149.099 140.431h14.633v7.592h-14.633z"/><path d="M163.731 140.431h14.633v7.592h-14.633zm14.633 0h14.633v7.592h-14.633z"/><path d="M192.996 140.431h14.633v7.592h-14.633z"/><path d="M207.628 140.431h14.633v7.592h-14.633z"/><path d="M222.26 140.431h14.633v7.592H222.26z"/><path d="M236.892 140.431h14.633v7.592h-14.633zm14.633 0h14.633v7.592h-14.633z"/><path d="M266.157 140.431h14.633v7.592h-14.633z"/><path d="M280.789 140.431h14.633v7.592h-14.633z"/><path d="M295.421 140.431h14.633v7.592h-14.633zM2.777 117.651H17.41v7.592H2.777z"/><path d="M17.409 117.651h14.633v7.592H17.409zm14.633 0h14.633v7.592H32.042z"/><path d="M46.674 117.651h14.633v7.592H46.674z"/><path d="M61.306 117.651h14.633v7.592H61.306z"/><path d="M75.938 117.651h14.633v7.592H75.938z"/><path d="M90.57 117.651h14.633v7.592H90.57zm14.633 0h14.633v7.592h-14.633z"/><path d="M119.835 117.651h14.633v7.592h-14.633z"/><path d="M134.467 117.651H149.1v7.592h-14.633z"/><path d="M149.099 117.651h14.633v7.592h-14.633z"/><path d="M163.731 117.651h14.633v7.592h-14.633zm14.633 0h14.633v7.592h-14.633z"/><path d="M192.996 117.651h14.633v7.592h-14.633z"/><path d="M207.628 117.651h14.633v7.592h-14.633z"/><path d="M222.26 117.651h14.633v7.592H222.26z"/><path d="M236.892 117.651h14.633v7.592h-14.633zm14.633 0h14.633v7.592h-14.633z"/><path d="M266.157 117.651h14.633v7.592h-14.633z"/><path d="M280.789 117.651h14.633v7.592h-14.633z"/><path d="M295.421 117.651h14.633v7.592h-14.633zm14.633 15.187h14.633v7.592h-14.633z"/><path d="M324.686 132.838h14.633v7.592h-14.633zm14.633 0h14.633v7.592h-14.633z"/><path d="M353.951 132.838h14.633v7.592h-14.633z"/><path d="M368.583 132.838h14.633v7.592h-14.633z"/><path d="M383.215 132.838h14.633v7.592h-14.633z"/><path d="M397.847 132.838h14.633v7.592h-14.633zm-87.793-7.594h14.633v7.592h-14.633z"/><path d="M324.686 125.244h14.633v7.592h-14.633zm14.633 0h14.633v7.592h-14.633z"/><path d="M353.951 125.244h14.633v7.592h-14.633z"/><path d="M368.583 125.244h14.633v7.592h-14.633z"/><path d="M383.215 125.244h14.633v7.592h-14.633z"/><path d="M397.847 125.244h14.633v7.592h-14.633zm-87.793 22.781h14.633v7.592h-14.633z"/><path d="M324.686 148.025h14.633v7.592h-14.633zm14.633 0h14.633v7.592h-14.633z"/><path d="M353.951 148.025h14.633v7.592h-14.633z"/><path d="M368.583 148.025h14.633v7.592h-14.633z"/><path d="M383.215 148.025h14.633v7.592h-14.633z"/><path d="M397.847 148.025h14.633v7.592h-14.633zm-87.793-7.594h14.633v7.592h-14.633z"/><path d="M324.686 140.431h14.633v7.592h-14.633zm14.633 0h14.633v7.592h-14.633z"/><path d="M353.951 140.431h14.633v7.592h-14.633z"/><path d="M368.583 140.431h14.633v7.592h-14.633z"/><path d="M383.215 140.431h14.633v7.592h-14.633z"/><path d="M397.847 140.431h14.633v7.592h-14.633zm-87.793-22.78h14.633v7.592h-14.633z"/><path d="M324.686 117.651h14.633v7.592h-14.633zm14.633 0h14.633v7.592h-14.633z"/><path d="M353.951 117.651h14.633v7.592h-14.633z"/><path d="M368.583 117.651h14.633v7.592h-14.633z"/><path d="M383.215 117.651h14.633v7.592h-14.633z"/><path d="M397.847 117.651h14.633v7.592h-14.633zm14.633 15.187h14.633v7.592H412.48zm0-7.594h14.633v7.592H412.48zm0 22.781h14.633v7.592H412.48zm0-7.594h14.633v7.592H412.48zm0-22.78h14.633v7.592H412.48zm0-15.184h14.633v15.184H412.48zm14.633 68.34h1.829v7.592h-1.829zm0-7.593h1.829v7.592h-1.829zm0 22.78h1.829v7.592h-1.829zm0-7.593h1.829v7.592h-1.829zm0-91.121h1.829v15.184h-1.829zm0-15.187h1.829v15.184h-1.829zm0-15.184h1.829v15.184h-1.829zm0-15.187h1.829v15.184h-1.829zm0 113.898h1.829v7.592h-1.829zm0-22.782h1.829v7.592h-1.829zm0-7.594h1.829v7.592h-1.829zm0 22.781h1.829v7.592h-1.829zm0-7.594h1.829v7.592h-1.829zm0-22.78h1.829v7.592h-1.829zm0-15.184h1.829v15.184h-1.829z"/></g><use xlink:href="#id-38c" overflow="visible" fill="none" stroke="#ECECEC" stroke-width=".35" stroke-miterlimit="10"/><text transform="matrix(.99269 0 0 1 437.89 195.218)" fill="#4F4F4D" font-family="'Roboto'" font-size="8">0</text><text transform="matrix(.99269 0 0 1 .542 205.06)" fill="#4F4F4D" font-family="'Roboto'" font-size="8">8</text><text transform="matrix(.99269 0 0 1 12.94 205.06)" fill="#4F4F4D" font-family="'Roboto'" font-size="8">16</text><path fill="none" d="M1.311 199.144h42.835v18.012H1.311z"/><text transform="translate(22.728 205.987)"><tspan x="-16.668" y="9" fill="#4F4F4D" font-family="'Roboto'" font-size="8">Jan 2018</tspan></text><path fill="none" d="M46.675 199.144h49.748v18.012H46.675z"/><text transform="matrix(.99269 0 0 1 71.549 205.987)"><tspan x="-16.576" y="9" fill="#4F4F4D" font-family="'Roboto'" font-size="8">Feb 2018</tspan></text><path fill="none" d="M96.423 199.144h59.055v18.012H96.423z"/><text transform="matrix(.99269 0 0 1 125.95 205.987)"><tspan x="-17.076" y="9" fill="#4F4F4D" font-family="'Roboto'" font-size="8">Mar 2018</tspan></text><path fill="none" d="M155.478 199.144h53.945v18.012h-53.945z"/><text transform="matrix(.99269 0 0 1 182.45 205.987)"><tspan x="-16.205" y="9" fill="#4F4F4D" font-family="'Roboto'" font-size="8">Apr 2018</tspan></text><path fill="none" d="M213.543 199.144h54.67v18.012h-54.67z"/><text transform="matrix(.99269 0 0 1 240.878 205.987)"><tspan x="-17.688" y="9" fill="#4F4F4D" font-family="'Roboto'" font-size="8">May 2018</tspan></text><text transform="matrix(.99269 0 0 1 27.572 205.06)" fill="#4F4F4D" font-family="'Roboto'" font-size="8">24</text><text transform="matrix(.99269 0 0 1 44.439 205.06)" fill="#4F4F4D" font-family="'Roboto'" font-size="8">1</text><text transform="matrix(.99269 0 0 1 59.072 205.06)" fill="#4F4F4D" font-family="'Roboto'" font-size="8">9</text><text transform="matrix(.99269 0 0 1 71.468 205.06)" fill="#4F4F4D" font-family="'Roboto'" font-size="8">17</text><text transform="matrix(.99269 0 0 1 86.1 205.06)" fill="#4F4F4D" font-family="'Roboto'" font-size="8">25</text><text transform="matrix(.99269 0 0 1 102.968 205.06)" fill="#4F4F4D" font-family="'Roboto'" font-size="8">5</text><text transform="matrix(.99269 0 0 1 115.364 205.06)" fill="#4F4F4D" font-family="'Roboto'" font-size="8">13</text><text transform="matrix(.99269 0 0 1 129.996 205.06)" fill="#4F4F4D" font-family="'Roboto'" font-size="8">21</text><text transform="matrix(.99269 0 0 1 144.63 205.06)" fill="#4F4F4D" font-family="'Roboto'" font-size="8">28</text><text transform="matrix(.99269 0 0 1 159.82 205.06)" fill="#4F4F4D" font-family="'Roboto'" font-size="8">5</text><text transform="matrix(.99269 0 0 1 173.893 205.06)" fill="#4F4F4D" font-family="'Roboto'" font-size="8">13</text><text transform="matrix(.99269 0 0 1 188.526 205.06)" fill="#4F4F4D" font-family="'Roboto'" font-size="8">21</text><text transform="matrix(.99269 0 0 1 203.157 205.06)" fill="#4F4F4D" font-family="'Roboto'" font-size="8">29</text><text transform="matrix(.99269 0 0 1 220.025 205.06)" fill="#4F4F4D" font-family="'Roboto'" font-size="8">7</text><text transform="matrix(.99269 0 0 1 232.423 205.06)" fill="#4F4F4D" font-family="'Roboto'" font-size="8">15</text><text transform="matrix(.99269 0 0 1 247.055 205.06)" fill="#4F4F4D" font-family="'Roboto'" font-size="8">23</text><text transform="matrix(.99269 0 0 1 261.686 205.06)" fill="#4F4F4D" font-family="'Roboto'" font-size="8">31</text><text transform="matrix(.99269 0 0 1 278.554 205.06)" fill="#4F4F4D" font-family="'Roboto'" font-size="8">8</text><text transform="matrix(.99269 0 0 1 290.951 205.06)" fill="#4F4F4D" font-family="'Roboto'" font-size="8">16</text><text transform="matrix(.99269 0 0 1 305.583 205.06)" fill="#4F4F4D" font-family="'Roboto'" font-size="8">24</text><text transform="matrix(.99269 0 0 1 322.452 205.06)" fill="#4F4F4D" font-family="'Roboto'" font-size="8">2</text><text transform="matrix(.99269 0 0 1 334.849 205.06)" fill="#4F4F4D" font-family="'Roboto'" font-size="8">10</text><text transform="matrix(.99269 0 0 1 349.48 205.06)" fill="#4F4F4D" font-family="'Roboto'" font-size="8">18</text><text transform="matrix(.99269 0 0 1 364.113 205.06)" fill="#4F4F4D" font-family="'Roboto'" font-size="8">26</text><text transform="matrix(.99269 0 0 1 380.98 205.06)" fill="#4F4F4D" font-family="'Roboto'" font-size="8">4</text><text transform="matrix(.99269 0 0 1 393.377 205.06)" fill="#4F4F4D" font-family="'Roboto'" font-size="8">12</text><text transform="matrix(.99269 0 0 1 408.009 205.06)" fill="#4F4F4D" font-family="'Roboto'" font-size="8">20</text><text transform="matrix(.99269 0 0 1 422.472 205.06)" fill="#4F4F4D" font-family="'Roboto'" font-size="8">28</text><text transform="matrix(.99269 0 0 1 2.777 13.696)"><tspan x="0" y="0" fill="#4F4F4D" font-family="'DIN Pro'" font-size="16">Crypto Pi Index</tspan><tspan x="0" y="18.806" fill="#F59900" font-family="'Roboto'" font-size="12">°</tspan><tspan x="4.471" y="16" fill="#F59900" font-family="'Roboto'" font-size="12"> Bitcoin</tspan><tspan x="45.093" y="16" fill="#2DB7BC" font-family="'Roboto'" font-size="12"> </tspan><tspan x="54.041" y="18.806" fill="#6E9ED4" font-family="'Roboto'" font-size="12">°</tspan><tspan x="58.512" y="16" fill="#6E9ED4" font-family="'Roboto'" font-size="12"> Euro</tspan></text><path fill="none" d="M267.09 199.144h55.333v18.012H267.09z"/><text transform="matrix(.99269 0 0 1 294.756 205.987)"><tspan x="-16.742" y="9" fill="#4F4F4D" font-family="'Roboto'" font-size="8">Jun 2018</tspan></text><text transform="matrix(.99269 0 0 1 437.89 150.433)" fill="#4F4F4D" font-family="'Roboto'" font-size="8">15 %</text><text transform="matrix(.99269 0 0 1 437.89 135.766)" fill="#4F4F4D" font-family="'Roboto'" font-size="8">20 %</text><text transform="matrix(.99269 0 0 1 437.89 166.1)" fill="#4F4F4D" font-family="'Roboto'" font-size="8">10 %</text><text transform="matrix(.99269 0 0 1 437.89 181.09)" fill="#4F4F4D" font-family="'Roboto'" font-size="8">5 %</text><text transform="matrix(.99269 0 0 1 437.89 119.517)" fill="#4F4F4D" font-family="'Roboto'" font-size="8">25 %</text><text transform="matrix(.99269 0 0 1 437.89 44.558)" fill="#4F4F4D" font-family="'Roboto'" font-size="8">250 %</text><text transform="matrix(.99269 0 0 1 437.89 74.09)" fill="#4F4F4D" font-family="'Roboto'" font-size="8">160 %</text><text transform="matrix(.99269 0 0 1 437.89 59.423)" fill="#4F4F4D" font-family="'Roboto'" font-size="8">205 %</text><text transform="matrix(.99269 0 0 1 437.89 89.129)" fill="#4F4F4D" font-family="'Roboto'" font-size="8">115 %</text><text transform="matrix(.99269 0 0 1 437.89 104.62)" fill="#4F4F4D" font-family="'Roboto'" font-size="8">70 %</text><path fill="none" d="M320.566 199.144h55.333v18.012h-55.333z"/><text transform="matrix(.99269 0 0 1 348.232 205.987)"><tspan x="-15.476" y="9" fill="#4F4F4D" font-family="'Roboto'" font-size="8">Jul 2018</tspan></text><path fill="none" d="M373.609 199.144h55.333v18.012h-55.333z"/><text transform="matrix(.99269 0 0 1 401.275 205.987)"><tspan x="-17.078" y="9" fill="#4F4F4D" font-family="'Roboto'" font-size="8">Aug 2018</tspan></text><g fill="none" stroke-width=".344" stroke-miterlimit="10"><path stroke="#E3E3E3" d="M75.938 193.566v2.308m-14.632-2.308v2.308m-29.264-2.308v2.308m14.632-2.308v2.308m-29.264-2.308v2.308m-14.633 0v-2.308m87.794 0v2.308m14.632-2.308v2.308m14.632-2.308v2.308m14.632-2.308v2.308m14.633-2.308v2.308m14.632-2.308v2.308m14.632-2.308v2.308m14.632-2.308v2.308m14.633-2.308v2.308m14.632-2.308v2.308m14.632-2.308v2.308m14.632-2.308v2.308m14.632-2.308v2.308m14.633-2.308v2.308m14.632-2.308v2.308m14.632-2.308v2.308m14.632-2.308v2.308m14.633-2.308v2.308m14.632-2.308v2.308m14.632-2.308v2.308m14.633-2.308v2.308m14.632-2.308v2.308m14.632-2.308v2.308m14.632-2.308v2.308m1.831-2.308v2.308m0-154.152h5.103m-5.103 30.377h2.71m-2.71 15.178h2.71m-2.71-30.371h2.71m-2.71 45.569h2.71m-2.71 30.377h3.123m-3.123-15.201h5.67m-5.67 45.577h3.123m-3.123-15.203h3.123m-3.123 30.377h3.123m-3.123 15.203h5.42"/><path stroke="#4F4F4D" d="M1.311 212.834h2.835m37.165 0h2.835m2.528 0h5.669m38.411 0h5.669m1.464 0h8.504m38.874 0h8.504m.292 0h7.086m41.771 0h7.087m3.538 0h5.67m43.331 0h5.669m1.331 0h5.669m40.331 0h5.669m1.807 0h5.669m40.331 0h5.67m1.373 0h5.669m40.331 0h5.67"/></g></svg>