<svg xmlns="http://www.w3.org/2000/svg" xmlns:xlink="http://www.w3.org/1999/xlink" viewBox="0 0 459.085 217.155"><defs><path id="id-324a" d="M2.777 193.566v-75.915c14.633 0 43.898 7.591 87.794 7.591s117.057-7.591 190.219-7.591 148.152 7.593 148.152 7.593l.001 68.36-426.166-.038z"/></defs><clipPath id="id-325b"><use xlink:href="#id-324a" overflow="visible"/></clipPath><g clip-path="url(#id-325b)" fill="none" stroke="#ECECEC" stroke-width=".35" stroke-miterlimit="10"><path d="M2.777 170.807H17.41v7.592H2.777z"/><path d="M17.409 170.807h14.633v7.592H17.409zm14.633 0h14.633v7.592H32.042z"/><path d="M46.674 170.807h14.633v7.592H46.674z"/><path d="M61.306 170.807h14.633v7.592H61.306z"/><path d="M75.938 170.807h14.633v7.592H75.938z"/><path d="M90.57 170.807h14.633v7.592H90.57zm14.633 0h14.633v7.592h-14.633z"/><path d="M119.835 170.807h14.633v7.592h-14.633z"/><path d="M134.467 170.807H149.1v7.592h-14.633z"/><path d="M149.099 170.807h14.633v7.592h-14.633z"/><path d="M163.731 170.807h14.633v7.592h-14.633zm14.633 0h14.633v7.592h-14.633z"/><path d="M192.996 170.807h14.633v7.592h-14.633z"/><path d="M207.628 170.807h14.633v7.592h-14.633z"/><path d="M222.26 170.807h14.633v7.592H222.26z"/><path d="M236.892 170.807h14.633v7.592h-14.633zm14.633 0h14.633v7.592h-14.633z"/><path d="M266.157 170.807h14.633v7.592h-14.633z"/><path d="M280.789 170.807h14.633v7.592h-14.633z"/><path d="M295.421 170.807h14.633v7.592h-14.633zM2.777 163.214H17.41v7.592H2.777z"/><path d="M17.409 163.214h14.633v7.592H17.409zm14.633 0h14.633v7.592H32.042z"/><path d="M46.674 163.214h14.633v7.592H46.674z"/><path d="M61.306 163.214h14.633v7.592H61.306z"/><path d="M75.938 163.214h14.633v7.592H75.938z"/><path d="M90.57 163.214h14.633v7.592H90.57zm14.633 0h14.633v7.592h-14.633z"/><path d="M119.835 163.214h14.633v7.592h-14.633z"/><path d="M134.467 163.214H149.1v7.592h-14.633z"/><path d="M149.099 163.214h14.633v7.592h-14.633z"/><path d="M163.731 163.214h14.633v7.592h-14.633zm14.633 0h14.633v7.592h-14.633z"/><path d="M192.996 163.214h14.633v7.592h-14.633z"/><path d="M207.628 163.214h14.633v7.592h-14.633z"/><path d="M222.26 163.214h14.633v7.592H222.26z"/><path d="M236.892 163.214h14.633v7.592h-14.633zm14.633 0h14.633v7.592h-14.633z"/><path d="M266.157 163.214h14.633v7.592h-14.633z"/><path d="M280.789 163.214h14.633v7.592h-14.633z"/><path d="M295.421 163.214h14.633v7.592h-14.633zM2.777 185.994H17.41v7.592H2.777z"/><path d="M17.409 185.994h14.633v7.592H17.409zm14.633 0h14.633v7.592H32.042z"/><path d="M46.674 185.994h14.633v7.592H46.674z"/><path d="M61.306 185.994h14.633v7.592H61.306z"/><path d="M75.938 185.994h14.633v7.592H75.938z"/><path d="M90.57 185.994h14.633v7.592H90.57zm14.633 0h14.633v7.592h-14.633z"/><path d="M119.835 185.994h14.633v7.592h-14.633z"/><path d="M134.467 185.994H149.1v7.592h-14.633z"/><path d="M149.099 185.994h14.633v7.592h-14.633z"/><path d="M163.731 185.994h14.633v7.592h-14.633zm14.633 0h14.633v7.592h-14.633z"/><path d="M192.996 185.994h14.633v7.592h-14.633z"/><path d="M207.628 185.994h14.633v7.592h-14.633z"/><path d="M222.26 185.994h14.633v7.592H222.26z"/><path d="M236.892 185.994h14.633v7.592h-14.633zm14.633 0h14.633v7.592h-14.633z"/><path d="M266.157 185.994h14.633v7.592h-14.633z"/><path d="M280.789 185.994h14.633v7.592h-14.633z"/><path d="M295.421 185.994h14.633v7.592h-14.633zM2.777 178.401H17.41v7.592H2.777z"/><path d="M17.409 178.401h14.633v7.592H17.409zm14.633 0h14.633v7.592H32.042z"/><path d="M46.674 178.401h14.633v7.592H46.674z"/><path d="M61.306 178.401h14.633v7.592H61.306z"/><path d="M75.938 178.401h14.633v7.592H75.938z"/><path d="M90.57 178.401h14.633v7.592H90.57zm14.633 0h14.633v7.592h-14.633z"/><path d="M119.835 178.401h14.633v7.592h-14.633z"/><path d="M134.467 178.401H149.1v7.592h-14.633z"/><path d="M149.099 178.401h14.633v7.592h-14.633z"/><path d="M163.731 178.401h14.633v7.592h-14.633zm14.633 0h14.633v7.592h-14.633z"/><path d="M192.996 178.401h14.633v7.592h-14.633z"/><path d="M207.628 178.401h14.633v7.592h-14.633z"/><path d="M222.26 178.401h14.633v7.592H222.26z"/><path d="M236.892 178.401h14.633v7.592h-14.633zm14.633 0h14.633v7.592h-14.633z"/><path d="M266.157 178.401h14.633v7.592h-14.633z"/><path d="M280.789 178.401h14.633v7.592h-14.633z"/><path d="M295.421 178.401h14.633v7.592h-14.633zM2.777 87.28H17.41v15.184H2.777z"/><path d="M17.409 87.28h14.633v15.184H17.409zm14.633 0h14.633v15.184H32.042z"/><path d="M46.674 87.28h14.633v15.184H46.674z"/><path d="M61.306 87.28h14.633v15.184H61.306z"/><path d="M75.938 87.28h14.633v15.184H75.938z"/><path d="M90.57 87.28h14.633v15.184H90.57zm14.633 0h14.633v15.184h-14.633z"/><path d="M119.835 87.28h14.633v15.184h-14.633z"/><path d="M134.467 87.28H149.1v15.184h-14.633z"/><path d="M149.099 87.28h14.633v15.184h-14.633z"/><path d="M163.731 87.28h14.633v15.184h-14.633zm14.633 0h14.633v15.184h-14.633z"/><path d="M192.996 87.28h14.633v15.184h-14.633z"/><path d="M207.628 87.28h14.633v15.184h-14.633z"/><path d="M222.26 87.28h14.633v15.184H222.26z"/><path d="M236.892 87.28h14.633v15.184h-14.633zm14.633 0h14.633v15.184h-14.633z"/><path d="M266.157 87.28h14.633v15.184h-14.633z"/><path d="M280.789 87.28h14.633v15.184h-14.633z"/><path d="M295.421 87.28h14.633v15.184h-14.633zM2.777 72.093H17.41v15.184H2.777z"/><path d="M17.409 72.093h14.633v15.184H17.409zm14.633 0h14.633v15.184H32.042z"/><path d="M46.674 72.093h14.633v15.184H46.674z"/><path d="M61.306 72.093h14.633v15.184H61.306z"/><path d="M75.938 72.093h14.633v15.184H75.938z"/><path d="M90.57 72.093h14.633v15.184H90.57zm14.633 0h14.633v15.184h-14.633z"/><path d="M119.835 72.093h14.633v15.184h-14.633z"/><path d="M134.467 72.093H149.1v15.184h-14.633z"/><path d="M149.099 72.093h14.633v15.184h-14.633z"/><path d="M163.731 72.093h14.633v15.184h-14.633zm14.633 0h14.633v15.184h-14.633z"/><path d="M192.996 72.093h14.633v15.184h-14.633z"/><path d="M207.628 72.093h14.633v15.184h-14.633z"/><path d="M222.26 72.093h14.633v15.184H222.26z"/><path d="M236.892 72.093h14.633v15.184h-14.633zm14.633 0h14.633v15.184h-14.633z"/><path d="M266.157 72.093h14.633v15.184h-14.633z"/><path d="M280.789 72.093h14.633v15.184h-14.633z"/><path d="M295.421 72.093h14.633v15.184h-14.633zM2.777 56.909H17.41v15.184H2.777z"/><path d="M17.409 56.909h14.633v15.184H17.409zm14.633 0h14.633v15.184H32.042z"/><path d="M46.674 56.909h14.633v15.184H46.674z"/><path d="M61.306 56.909h14.633v15.184H61.306z"/><path d="M75.938 56.909h14.633v15.184H75.938z"/><path d="M90.57 56.909h14.633v15.184H90.57zm14.633 0h14.633v15.184h-14.633z"/><path d="M119.835 56.909h14.633v15.184h-14.633z"/><path d="M134.467 56.909H149.1v15.184h-14.633z"/><path d="M149.099 56.909h14.633v15.184h-14.633z"/><path d="M163.731 56.909h14.633v15.184h-14.633zm14.633 0h14.633v15.184h-14.633z"/><path d="M192.996 56.909h14.633v15.184h-14.633z"/><path d="M207.628 56.909h14.633v15.184h-14.633z"/><path d="M222.26 56.909h14.633v15.184H222.26z"/><path d="M236.892 56.909h14.633v15.184h-14.633zm14.633 0h14.633v15.184h-14.633z"/><path d="M266.157 56.909h14.633v15.184h-14.633z"/><path d="M280.789 56.909h14.633v15.184h-14.633z"/><path d="M295.421 56.909h14.633v15.184h-14.633zM2.777 41.722H17.41v15.184H2.777z"/><path d="M17.409 41.722h14.633v15.184H17.409zm14.633 0h14.633v15.184H32.042z"/><path d="M46.674 41.722h14.633v15.184H46.674z"/><path d="M61.306 41.722h14.633v15.184H61.306z"/><path d="M75.938 41.722h14.633v15.184H75.938z"/><path d="M90.57 41.722h14.633v15.184H90.57zm14.633 0h14.633v15.184h-14.633z"/><path d="M119.835 41.722h14.633v15.184h-14.633z"/><path d="M134.467 41.722H149.1v15.184h-14.633z"/><path d="M149.099 41.722h14.633v15.184h-14.633z"/><path d="M163.731 41.722h14.633v15.184h-14.633zm14.633 0h14.633v15.184h-14.633z"/><path d="M192.996 41.722h14.633v15.184h-14.633z"/><path d="M207.628 41.722h14.633v15.184h-14.633z"/><path d="M222.26 41.722h14.633v15.184H222.26z"/><path d="M236.892 41.722h14.633v15.184h-14.633zm14.633 0h14.633v15.184h-14.633z"/><path d="M266.157 41.722h14.633v15.184h-14.633z"/><path d="M280.789 41.722h14.633v15.184h-14.633z"/><path d="M295.421 41.722h14.633v15.184h-14.633zM2.777 155.62H17.41v7.592H2.777z"/><path d="M17.409 155.62h14.633v7.592H17.409zm14.633 0h14.633v7.592H32.042z"/><path d="M46.674 155.62h14.633v7.592H46.674z"/><path d="M61.306 155.62h14.633v7.592H61.306z"/><path d="M75.938 155.62h14.633v7.592H75.938z"/><path d="M90.57 155.62h14.633v7.592H90.57zm14.633 0h14.633v7.592h-14.633z"/><path d="M119.835 155.62h14.633v7.592h-14.633z"/><path d="M134.467 155.62H149.1v7.592h-14.633z"/><path d="M149.099 155.62h14.633v7.592h-14.633z"/><path d="M163.731 155.62h14.633v7.592h-14.633zm14.633 0h14.633v7.592h-14.633z"/><path d="M192.996 155.62h14.633v7.592h-14.633z"/><path d="M207.628 155.62h14.633v7.592h-14.633z"/><path d="M222.26 155.62h14.633v7.592H222.26z"/><path d="M236.892 155.62h14.633v7.592h-14.633zm14.633 0h14.633v7.592h-14.633z"/><path d="M266.157 155.62h14.633v7.592h-14.633z"/><path d="M280.789 155.62h14.633v7.592h-14.633z"/><path d="M295.421 155.62h14.633v7.592h-14.633zM2.777 102.467H17.41v15.184H2.777z"/><path d="M17.409 102.467h14.633v15.184H17.409zm14.633 0h14.633v15.184H32.042z"/><path d="M46.674 102.467h14.633v15.184H46.674z"/><path d="M61.306 102.467h14.633v15.184H61.306z"/><path d="M75.938 102.467h14.633v15.184H75.938z"/><path d="M90.57 102.467h14.633v15.184H90.57zm14.633 0h14.633v15.184h-14.633z"/><path d="M119.835 102.467h14.633v15.184h-14.633z"/><path d="M134.467 102.467H149.1v15.184h-14.633z"/><path d="M149.099 102.467h14.633v15.184h-14.633z"/><path d="M163.731 102.467h14.633v15.184h-14.633zm14.633 0h14.633v15.184h-14.633z"/><path d="M192.996 102.467h14.633v15.184h-14.633z"/><path d="M207.628 102.467h14.633v15.184h-14.633z"/><path d="M222.26 102.467h14.633v15.184H222.26z"/><path d="M236.892 102.467h14.633v15.184h-14.633zm14.633 0h14.633v15.184h-14.633z"/><path d="M266.157 102.467h14.633v15.184h-14.633z"/><path d="M280.789 102.467h14.633v15.184h-14.633z"/><path d="M295.421 102.467h14.633v15.184h-14.633zm14.633 68.34h14.633v7.592h-14.633z"/><path d="M324.686 170.807h14.633v7.592h-14.633zm14.633 0h14.633v7.592h-14.633z"/><path d="M353.951 170.807h14.633v7.592h-14.633z"/><path d="M368.583 170.807h14.633v7.592h-14.633z"/><path d="M383.215 170.807h14.633v7.592h-14.633z"/><path d="M397.847 170.807h14.633v7.592h-14.633zm-87.793-7.593h14.633v7.592h-14.633z"/><path d="M324.686 163.214h14.633v7.592h-14.633zm14.633 0h14.633v7.592h-14.633z"/><path d="M353.951 163.214h14.633v7.592h-14.633z"/><path d="M368.583 163.214h14.633v7.592h-14.633z"/><path d="M383.215 163.214h14.633v7.592h-14.633z"/><path d="M397.847 163.214h14.633v7.592h-14.633zm-87.793 22.78h14.633v7.592h-14.633z"/><path d="M324.686 185.994h14.633v7.592h-14.633zm14.633 0h14.633v7.592h-14.633z"/><path d="M353.951 185.994h14.633v7.592h-14.633z"/><path d="M368.583 185.994h14.633v7.592h-14.633z"/><path d="M383.215 185.994h14.633v7.592h-14.633z"/><path d="M397.847 185.994h14.633v7.592h-14.633zm-87.793-7.593h14.633v7.592h-14.633z"/><path d="M324.686 178.401h14.633v7.592h-14.633zm14.633 0h14.633v7.592h-14.633z"/><path d="M353.951 178.401h14.633v7.592h-14.633z"/><path d="M368.583 178.401h14.633v7.592h-14.633z"/><path d="M383.215 178.401h14.633v7.592h-14.633z"/><path d="M397.847 178.401h14.633v7.592h-14.633zM310.054 87.28h14.633v15.184h-14.633z"/><path d="M324.686 87.28h14.633v15.184h-14.633zm14.633 0h14.633v15.184h-14.633z"/><path d="M353.951 87.28h14.633v15.184h-14.633z"/><path d="M368.583 87.28h14.633v15.184h-14.633z"/><path d="M383.215 87.28h14.633v15.184h-14.633z"/><path d="M397.847 87.28h14.633v15.184h-14.633zm-87.793-15.187h14.633v15.184h-14.633z"/><path d="M324.686 72.093h14.633v15.184h-14.633zm14.633 0h14.633v15.184h-14.633z"/><path d="M353.951 72.093h14.633v15.184h-14.633z"/><path d="M368.583 72.093h14.633v15.184h-14.633z"/><path d="M383.215 72.093h14.633v15.184h-14.633z"/><path d="M397.847 72.093h14.633v15.184h-14.633zm-87.793-15.184h14.633v15.184h-14.633z"/><path d="M324.686 56.909h14.633v15.184h-14.633zm14.633 0h14.633v15.184h-14.633z"/><path d="M353.951 56.909h14.633v15.184h-14.633z"/><path d="M368.583 56.909h14.633v15.184h-14.633z"/><path d="M383.215 56.909h14.633v15.184h-14.633z"/><path d="M397.847 56.909h14.633v15.184h-14.633zm-87.793-15.187h14.633v15.184h-14.633z"/><path d="M324.686 41.722h14.633v15.184h-14.633zm14.633 0h14.633v15.184h-14.633z"/><path d="M353.951 41.722h14.633v15.184h-14.633z"/><path d="M368.583 41.722h14.633v15.184h-14.633z"/><path d="M383.215 41.722h14.633v15.184h-14.633z"/><path d="M397.847 41.722h14.633v15.184h-14.633zM310.054 155.62h14.633v7.592h-14.633z"/><path d="M324.686 155.62h14.633v7.592h-14.633zm14.633 0h14.633v7.592h-14.633z"/><path d="M353.951 155.62h14.633v7.592h-14.633z"/><path d="M368.583 155.62h14.633v7.592h-14.633z"/><path d="M383.215 155.62h14.633v7.592h-14.633z"/><path d="M397.847 155.62h14.633v7.592h-14.633zm-87.793-53.153h14.633v15.184h-14.633z"/><path d="M324.686 102.467h14.633v15.184h-14.633zm14.633 0h14.633v15.184h-14.633z"/><path d="M353.951 102.467h14.633v15.184h-14.633z"/><path d="M368.583 102.467h14.633v15.184h-14.633z"/><path d="M383.215 102.467h14.633v15.184h-14.633z"/><path d="M397.847 102.467h14.633v15.184h-14.633zm14.633 68.34h14.633v7.592H412.48zm0-7.593h14.633v7.592H412.48zm0 22.78h14.633v7.592H412.48zm0-7.593h14.633v7.592H412.48zm0-91.121h14.633v15.184H412.48zm0-15.187h14.633v15.184H412.48zm0-15.184h14.633v15.184H412.48zm0-15.187h14.633v15.184H412.48zm0 113.898h14.633v7.592H412.48zM2.777 132.838H17.41v7.592H2.777z"/><path d="M17.409 132.838h14.633v7.592H17.409zm14.633 0h14.633v7.592H32.042z"/><path d="M46.674 132.838h14.633v7.592H46.674z"/><path d="M61.306 132.838h14.633v7.592H61.306z"/><path d="M75.938 132.838h14.633v7.592H75.938z"/><path d="M90.57 132.838h14.633v7.592H90.57zm14.633 0h14.633v7.592h-14.633z"/><path d="M119.835 132.838h14.633v7.592h-14.633z"/><path d="M134.467 132.838H149.1v7.592h-14.633z"/><path d="M149.099 132.838h14.633v7.592h-14.633z"/><path d="M163.731 132.838h14.633v7.592h-14.633zm14.633 0h14.633v7.592h-14.633z"/><path d="M192.996 132.838h14.633v7.592h-14.633z"/><path d="M207.628 132.838h14.633v7.592h-14.633z"/><path d="M222.26 132.838h14.633v7.592H222.26z"/><path d="M236.892 132.838h14.633v7.592h-14.633zm14.633 0h14.633v7.592h-14.633z"/><path d="M266.157 132.838h14.633v7.592h-14.633z"/><path d="M280.789 132.838h14.633v7.592h-14.633z"/><path d="M295.421 132.838h14.633v7.592h-14.633zM2.777 125.244H17.41v7.592H2.777z"/><path d="M17.409 125.244h14.633v7.592H17.409zm14.633 0h14.633v7.592H32.042z"/><path d="M46.674 125.244h14.633v7.592H46.674z"/><path d="M61.306 125.244h14.633v7.592H61.306z"/><path d="M75.938 125.244h14.633v7.592H75.938z"/><path d="M90.57 125.244h14.633v7.592H90.57zm14.633 0h14.633v7.592h-14.633z"/><path d="M119.835 125.244h14.633v7.592h-14.633z"/><path d="M134.467 125.244H149.1v7.592h-14.633z"/><path d="M149.099 125.244h14.633v7.592h-14.633z"/><path d="M163.731 125.244h14.633v7.592h-14.633zm14.633 0h14.633v7.592h-14.633z"/><path d="M192.996 125.244h14.633v7.592h-14.633z"/><path d="M207.628 125.244h14.633v7.592h-14.633z"/><path d="M222.26 125.244h14.633v7.592H222.26z"/><path d="M236.892 125.244h14.633v7.592h-14.633zm14.633 0h14.633v7.592h-14.633z"/><path d="M266.157 125.244h14.633v7.592h-14.633z"/><path d="M280.789 125.244h14.633v7.592h-14.633z"/><path d="M295.421 125.244h14.633v7.592h-14.633zM2.777 148.025H17.41v7.592H2.777z"/><path d="M17.409 148.025h14.633v7.592H17.409zm14.633 0h14.633v7.592H32.042z"/><path d="M46.674 148.025h14.633v7.592H46.674z"/><path d="M61.306 148.025h14.633v7.592H61.306z"/><path d="M75.938 148.025h14.633v7.592H75.938z"/><path d="M90.57 148.025h14.633v7.592H90.57zm14.633 0h14.633v7.592h-14.633z"/><path d="M119.835 148.025h14.633v7.592h-14.633z"/><path d="M134.467 148.025H149.1v7.592h-14.633z"/><path d="M149.099 148.025h14.633v7.592h-14.633z"/><path d="M163.731 148.025h14.633v7.592h-14.633zm14.633 0h14.633v7.592h-14.633z"/><path d="M192.996 148.025h14.633v7.592h-14.633z"/><path d="M207.628 148.025h14.633v7.592h-14.633z"/><path d="M222.26 148.025h14.633v7.592H222.26z"/><path d="M236.892 148.025h14.633v7.592h-14.633zm14.633 0h14.633v7.592h-14.633z"/><path d="M266.157 148.025h14.633v7.592h-14.633z"/><path d="M280.789 148.025h14.633v7.592h-14.633z"/><path d="M295.421 148.025h14.633v7.592h-14.633zM2.777 140.431H17.41v7.592H2.777z"/><path d="M17.409 140.431h14.633v7.592H17.409zm14.633 0h14.633v7.592H32.042z"/><path d="M46.674 140.431h14.633v7.592H46.674z"/><path d="M61.306 140.431h14.633v7.592H61.306z"/><path d="M75.938 140.431h14.633v7.592H75.938z"/><path d="M90.57 140.431h14.633v7.592H90.57zm14.633 0h14.633v7.592h-14.633z"/><path d="M119.835 140.431h14.633v7.592h-14.633z"/><path d="M134.467 140.431H149.1v7.592h-14.633z"/><path d="M149.099 140.431h14.633v7.592h-14.633z"/><path d="M163.731 140.431h14.633v7.592h-14.633zm14.633 0h14.633v7.592h-14.633z"/><path d="M192.996 140.431h14.633v7.592h-14.633z"/><path d="M207.628 140.431h14.633v7.592h-14.633z"/><path d="M222.26 140.431h14.633v7.592H222.26z"/><path d="M236.892 140.431h14.633v7.592h-14.633zm14.633 0h14.633v7.592h-14.633z"/><path d="M266.157 140.431h14.633v7.592h-14.633z"/><path d="M280.789 140.431h14.633v7.592h-14.633z"/><path d="M295.421 140.431h14.633v7.592h-14.633zM2.777 117.651H17.41v7.592H2.777z"/><path d="M17.409 117.651h14.633v7.592H17.409zm14.633 0h14.633v7.592H32.042z"/><path d="M46.674 117.651h14.633v7.592H46.674z"/><path d="M61.306 117.651h14.633v7.592H61.306z"/><path d="M75.938 117.651h14.633v7.592H75.938z"/><path d="M90.57 117.651h14.633v7.592H90.57zm14.633 0h14.633v7.592h-14.633z"/><path d="M119.835 117.651h14.633v7.592h-14.633z"/><path d="M134.467 117.651H149.1v7.592h-14.633z"/><path d="M149.099 117.651h14.633v7.592h-14.633z"/><path d="M163.731 117.651h14.633v7.592h-14.633zm14.633 0h14.633v7.592h-14.633z"/><path d="M192.996 117.651h14.633v7.592h-14.633z"/><path d="M207.628 117.651h14.633v7.592h-14.633z"/><path d="M222.26 117.651h14.633v7.592H222.26z"/><path d="M236.892 117.651h14.633v7.592h-14.633zm14.633 0h14.633v7.592h-14.633z"/><path d="M266.157 117.651h14.633v7.592h-14.633z"/><path d="M280.789 117.651h14.633v7.592h-14.633z"/><path d="M295.421 117.651h14.633v7.592h-14.633zm14.633 15.187h14.633v7.592h-14.633z"/><path d="M324.686 132.838h14.633v7.592h-14.633zm14.633 0h14.633v7.592h-14.633z"/><path d="M353.951 132.838h14.633v7.592h-14.633z"/><path d="M368.583 132.838h14.633v7.592h-14.633z"/><path d="M383.215 132.838h14.633v7.592h-14.633z"/><path d="M397.847 132.838h14.633v7.592h-14.633zm-87.793-7.594h14.633v7.592h-14.633z"/><path d="M324.686 125.244h14.633v7.592h-14.633zm14.633 0h14.633v7.592h-14.633z"/><path d="M353.951 125.244h14.633v7.592h-14.633z"/><path d="M368.583 125.244h14.633v7.592h-14.633z"/><path d="M383.215 125.244h14.633v7.592h-14.633z"/><path d="M397.847 125.244h14.633v7.592h-14.633zm-87.793 22.781h14.633v7.592h-14.633z"/><path d="M324.686 148.025h14.633v7.592h-14.633zm14.633 0h14.633v7.592h-14.633z"/><path d="M353.951 148.025h14.633v7.592h-14.633z"/><path d="M368.583 148.025h14.633v7.592h-14.633z"/><path d="M383.215 148.025h14.633v7.592h-14.633z"/><path d="M397.847 148.025h14.633v7.592h-14.633zm-87.793-7.594h14.633v7.592h-14.633z"/><path d="M324.686 140.431h14.633v7.592h-14.633zm14.633 0h14.633v7.592h-14.633z"/><path d="M353.951 140.431h14.633v7.592h-14.633z"/><path d="M368.583 140.431h14.633v7.592h-14.633z"/><path d="M383.215 140.431h14.633v7.592h-14.633z"/><path d="M397.847 140.431h14.633v7.592h-14.633zm-87.793-22.78h14.633v7.592h-14.633z"/><path d="M324.686 117.651h14.633v7.592h-14.633zm14.633 0h14.633v7.592h-14.633z"/><path d="M353.951 117.651h14.633v7.592h-14.633z"/><path d="M368.583 117.651h14.633v7.592h-14.633z"/><path d="M383.215 117.651h14.633v7.592h-14.633z"/><path d="M397.847 117.651h14.633v7.592h-14.633zm14.633 15.187h14.633v7.592H412.48zm0-7.594h14.633v7.592H412.48zm0 22.781h14.633v7.592H412.48zm0-7.594h14.633v7.592H412.48zm0-22.78h14.633v7.592H412.48zm0-15.184h14.633v15.184H412.48zm14.633 68.34h1.829v7.592h-1.829zm0-7.593h1.829v7.592h-1.829zm0 22.78h1.829v7.592h-1.829zm0-7.593h1.829v7.592h-1.829zm0-91.121h1.829v15.184h-1.829zm0-15.187h1.829v15.184h-1.829zm0-15.184h1.829v15.184h-1.829zm0-15.187h1.829v15.184h-1.829zm0 113.898h1.829v7.592h-1.829zm0-22.782h1.829v7.592h-1.829zm0-7.594h1.829v7.592h-1.829zm0 22.781h1.829v7.592h-1.829zm0-7.594h1.829v7.592h-1.829zm0-22.78h1.829v7.592h-1.829zm0-15.184h1.829v15.184h-1.829z"/></g><use xlink:href="#id-324a" overflow="visible" fill="none" stroke="#ECECEC" stroke-width=".35" stroke-miterlimit="10"/><defs><path id="id-326c" d="M2.777 41.703v70.948c14.633 0 43.898 7.591 87.794 7.591s117.057-7.591 190.219-7.591 148.152 7.593 148.152 7.593l.001-78.502-426.166-.039z"/></defs><clipPath id="id-327d"><use xlink:href="#id-326c" overflow="visible"/></clipPath><g clip-path="url(#id-327d)" fill="none" stroke="#ECECEC" stroke-width=".35" stroke-miterlimit="10"><path d="M2.777 170.807H17.41v7.592H2.777z"/><path d="M17.409 170.807h14.633v7.592H17.409zm14.633 0h14.633v7.592H32.042z"/><path d="M46.674 170.807h14.633v7.592H46.674z"/><path d="M61.306 170.807h14.633v7.592H61.306z"/><path d="M75.938 170.807h14.633v7.592H75.938z"/><path d="M90.57 170.807h14.633v7.592H90.57zm14.633 0h14.633v7.592h-14.633z"/><path d="M119.835 170.807h14.633v7.592h-14.633z"/><path d="M134.467 170.807H149.1v7.592h-14.633z"/><path d="M149.099 170.807h14.633v7.592h-14.633z"/><path d="M163.731 170.807h14.633v7.592h-14.633zm14.633 0h14.633v7.592h-14.633z"/><path d="M192.996 170.807h14.633v7.592h-14.633z"/><path d="M207.628 170.807h14.633v7.592h-14.633z"/><path d="M222.26 170.807h14.633v7.592H222.26z"/><path d="M236.892 170.807h14.633v7.592h-14.633zm14.633 0h14.633v7.592h-14.633z"/><path d="M266.157 170.807h14.633v7.592h-14.633z"/><path d="M280.789 170.807h14.633v7.592h-14.633z"/><path d="M295.421 170.807h14.633v7.592h-14.633zM2.777 163.214H17.41v7.592H2.777z"/><path d="M17.409 163.214h14.633v7.592H17.409zm14.633 0h14.633v7.592H32.042z"/><path d="M46.674 163.214h14.633v7.592H46.674z"/><path d="M61.306 163.214h14.633v7.592H61.306z"/><path d="M75.938 163.214h14.633v7.592H75.938z"/><path d="M90.57 163.214h14.633v7.592H90.57zm14.633 0h14.633v7.592h-14.633z"/><path d="M119.835 163.214h14.633v7.592h-14.633z"/><path d="M134.467 163.214H149.1v7.592h-14.633z"/><path d="M149.099 163.214h14.633v7.592h-14.633z"/><path d="M163.731 163.214h14.633v7.592h-14.633zm14.633 0h14.633v7.592h-14.633z"/><path d="M192.996 163.214h14.633v7.592h-14.633z"/><path d="M207.628 163.214h14.633v7.592h-14.633z"/><path d="M222.26 163.214h14.633v7.592H222.26z"/><path d="M236.892 163.214h14.633v7.592h-14.633zm14.633 0h14.633v7.592h-14.633z"/><path d="M266.157 163.214h14.633v7.592h-14.633z"/><path d="M280.789 163.214h14.633v7.592h-14.633z"/><path d="M295.421 163.214h14.633v7.592h-14.633zM2.777 185.994H17.41v7.592H2.777z"/><path d="M17.409 185.994h14.633v7.592H17.409zm14.633 0h14.633v7.592H32.042z"/><path d="M46.674 185.994h14.633v7.592H46.674z"/><path d="M61.306 185.994h14.633v7.592H61.306z"/><path d="M75.938 185.994h14.633v7.592H75.938z"/><path d="M90.57 185.994h14.633v7.592H90.57zm14.633 0h14.633v7.592h-14.633z"/><path d="M119.835 185.994h14.633v7.592h-14.633z"/><path d="M134.467 185.994H149.1v7.592h-14.633z"/><path d="M149.099 185.994h14.633v7.592h-14.633z"/><path d="M163.731 185.994h14.633v7.592h-14.633zm14.633 0h14.633v7.592h-14.633z"/><path d="M192.996 185.994h14.633v7.592h-14.633z"/><path d="M207.628 185.994h14.633v7.592h-14.633z"/><path d="M222.26 185.994h14.633v7.592H222.26z"/><path d="M236.892 185.994h14.633v7.592h-14.633zm14.633 0h14.633v7.592h-14.633z"/><path d="M266.157 185.994h14.633v7.592h-14.633z"/><path d="M280.789 185.994h14.633v7.592h-14.633z"/><path d="M295.421 185.994h14.633v7.592h-14.633zM2.777 178.401H17.41v7.592H2.777z"/><path d="M17.409 178.401h14.633v7.592H17.409zm14.633 0h14.633v7.592H32.042z"/><path d="M46.674 178.401h14.633v7.592H46.674z"/><path d="M61.306 178.401h14.633v7.592H61.306z"/><path d="M75.938 178.401h14.633v7.592H75.938z"/><path d="M90.57 178.401h14.633v7.592H90.57zm14.633 0h14.633v7.592h-14.633z"/><path d="M119.835 178.401h14.633v7.592h-14.633z"/><path d="M134.467 178.401H149.1v7.592h-14.633z"/><path d="M149.099 178.401h14.633v7.592h-14.633z"/><path d="M163.731 178.401h14.633v7.592h-14.633zm14.633 0h14.633v7.592h-14.633z"/><path d="M192.996 178.401h14.633v7.592h-14.633z"/><path d="M207.628 178.401h14.633v7.592h-14.633z"/><path d="M222.26 178.401h14.633v7.592H222.26z"/><path d="M236.892 178.401h14.633v7.592h-14.633zm14.633 0h14.633v7.592h-14.633z"/><path d="M266.157 178.401h14.633v7.592h-14.633z"/><path d="M280.789 178.401h14.633v7.592h-14.633z"/><path d="M295.421 178.401h14.633v7.592h-14.633zM2.777 87.28H17.41v15.184H2.777z"/><path d="M17.409 87.28h14.633v15.184H17.409zm14.633 0h14.633v15.184H32.042z"/><path d="M46.674 87.28h14.633v15.184H46.674z"/><path d="M61.306 87.28h14.633v15.184H61.306z"/><path d="M75.938 87.28h14.633v15.184H75.938z"/><path d="M90.57 87.28h14.633v15.184H90.57zm14.633 0h14.633v15.184h-14.633z"/><path d="M119.835 87.28h14.633v15.184h-14.633z"/><path d="M134.467 87.28H149.1v15.184h-14.633z"/><path d="M149.099 87.28h14.633v15.184h-14.633z"/><path d="M163.731 87.28h14.633v15.184h-14.633zm14.633 0h14.633v15.184h-14.633z"/><path d="M192.996 87.28h14.633v15.184h-14.633z"/><path d="M207.628 87.28h14.633v15.184h-14.633z"/><path d="M222.26 87.28h14.633v15.184H222.26z"/><path d="M236.892 87.28h14.633v15.184h-14.633zm14.633 0h14.633v15.184h-14.633z"/><path d="M266.157 87.28h14.633v15.184h-14.633z"/><path d="M280.789 87.28h14.633v15.184h-14.633z"/><path d="M295.421 87.28h14.633v15.184h-14.633zM2.777 72.093H17.41v15.184H2.777z"/><path d="M17.409 72.093h14.633v15.184H17.409zm14.633 0h14.633v15.184H32.042z"/><path d="M46.674 72.093h14.633v15.184H46.674z"/><path d="M61.306 72.093h14.633v15.184H61.306z"/><path d="M75.938 72.093h14.633v15.184H75.938z"/><path d="M90.57 72.093h14.633v15.184H90.57zm14.633 0h14.633v15.184h-14.633z"/><path d="M119.835 72.093h14.633v15.184h-14.633z"/><path d="M134.467 72.093H149.1v15.184h-14.633z"/><path d="M149.099 72.093h14.633v15.184h-14.633z"/><path d="M163.731 72.093h14.633v15.184h-14.633zm14.633 0h14.633v15.184h-14.633z"/><path d="M192.996 72.093h14.633v15.184h-14.633z"/><path d="M207.628 72.093h14.633v15.184h-14.633z"/><path d="M222.26 72.093h14.633v15.184H222.26z"/><path d="M236.892 72.093h14.633v15.184h-14.633zm14.633 0h14.633v15.184h-14.633z"/><path d="M266.157 72.093h14.633v15.184h-14.633z"/><path d="M280.789 72.093h14.633v15.184h-14.633z"/><path d="M295.421 72.093h14.633v15.184h-14.633zM2.777 56.909H17.41v15.184H2.777z"/><path d="M17.409 56.909h14.633v15.184H17.409zm14.633 0h14.633v15.184H32.042z"/><path d="M46.674 56.909h14.633v15.184H46.674z"/><path d="M61.306 56.909h14.633v15.184H61.306z"/><path d="M75.938 56.909h14.633v15.184H75.938z"/><path d="M90.57 56.909h14.633v15.184H90.57zm14.633 0h14.633v15.184h-14.633z"/><path d="M119.835 56.909h14.633v15.184h-14.633z"/><path d="M134.467 56.909H149.1v15.184h-14.633z"/><path d="M149.099 56.909h14.633v15.184h-14.633z"/><path d="M163.731 56.909h14.633v15.184h-14.633zm14.633 0h14.633v15.184h-14.633z"/><path d="M192.996 56.909h14.633v15.184h-14.633z"/><path d="M207.628 56.909h14.633v15.184h-14.633z"/><path d="M222.26 56.909h14.633v15.184H222.26z"/><path d="M236.892 56.909h14.633v15.184h-14.633zm14.633 0h14.633v15.184h-14.633z"/><path d="M266.157 56.909h14.633v15.184h-14.633z"/><path d="M280.789 56.909h14.633v15.184h-14.633z"/><path d="M295.421 56.909h14.633v15.184h-14.633zM2.777 41.722H17.41v15.184H2.777z"/><path d="M17.409 41.722h14.633v15.184H17.409zm14.633 0h14.633v15.184H32.042z"/><path d="M46.674 41.722h14.633v15.184H46.674z"/><path d="M61.306 41.722h14.633v15.184H61.306z"/><path d="M75.938 41.722h14.633v15.184H75.938z"/><path d="M90.57 41.722h14.633v15.184H90.57zm14.633 0h14.633v15.184h-14.633z"/><path d="M119.835 41.722h14.633v15.184h-14.633z"/><path d="M134.467 41.722H149.1v15.184h-14.633z"/><path d="M149.099 41.722h14.633v15.184h-14.633z"/><path d="M163.731 41.722h14.633v15.184h-14.633zm14.633 0h14.633v15.184h-14.633z"/><path d="M192.996 41.722h14.633v15.184h-14.633z"/><path d="M207.628 41.722h14.633v15.184h-14.633z"/><path d="M222.26 41.722h14.633v15.184H222.26z"/><path d="M236.892 41.722h14.633v15.184h-14.633zm14.633 0h14.633v15.184h-14.633z"/><path d="M266.157 41.722h14.633v15.184h-14.633z"/><path d="M280.789 41.722h14.633v15.184h-14.633z"/><path d="M295.421 41.722h14.633v15.184h-14.633zM2.777 155.62H17.41v7.592H2.777z"/><path d="M17.409 155.62h14.633v7.592H17.409zm14.633 0h14.633v7.592H32.042z"/><path d="M46.674 155.62h14.633v7.592H46.674z"/><path d="M61.306 155.62h14.633v7.592H61.306z"/><path d="M75.938 155.62h14.633v7.592H75.938z"/><path d="M90.57 155.62h14.633v7.592H90.57zm14.633 0h14.633v7.592h-14.633z"/><path d="M119.835 155.62h14.633v7.592h-14.633z"/><path d="M134.467 155.62H149.1v7.592h-14.633z"/><path d="M149.099 155.62h14.633v7.592h-14.633z"/><path d="M163.731 155.62h14.633v7.592h-14.633zm14.633 0h14.633v7.592h-14.633z"/><path d="M192.996 155.62h14.633v7.592h-14.633z"/><path d="M207.628 155.62h14.633v7.592h-14.633z"/><path d="M222.26 155.62h14.633v7.592H222.26z"/><path d="M236.892 155.62h14.633v7.592h-14.633zm14.633 0h14.633v7.592h-14.633z"/><path d="M266.157 155.62h14.633v7.592h-14.633z"/><path d="M280.789 155.62h14.633v7.592h-14.633z"/><path d="M295.421 155.62h14.633v7.592h-14.633zM2.777 102.467H17.41v15.184H2.777z"/><path d="M17.409 102.467h14.633v15.184H17.409zm14.633 0h14.633v15.184H32.042z"/><path d="M46.674 102.467h14.633v15.184H46.674z"/><path d="M61.306 102.467h14.633v15.184H61.306z"/><path d="M75.938 102.467h14.633v15.184H75.938z"/><path d="M90.57 102.467h14.633v15.184H90.57zm14.633 0h14.633v15.184h-14.633z"/><path d="M119.835 102.467h14.633v15.184h-14.633z"/><path d="M134.467 102.467H149.1v15.184h-14.633z"/><path d="M149.099 102.467h14.633v15.184h-14.633z"/><path d="M163.731 102.467h14.633v15.184h-14.633zm14.633 0h14.633v15.184h-14.633z"/><path d="M192.996 102.467h14.633v15.184h-14.633z"/><path d="M207.628 102.467h14.633v15.184h-14.633z"/><path d="M222.26 102.467h14.633v15.184H222.26z"/><path d="M236.892 102.467h14.633v15.184h-14.633zm14.633 0h14.633v15.184h-14.633z"/><path d="M266.157 102.467h14.633v15.184h-14.633z"/><path d="M280.789 102.467h14.633v15.184h-14.633z"/><path d="M295.421 102.467h14.633v15.184h-14.633zm14.633 68.34h14.633v7.592h-14.633z"/><path d="M324.686 170.807h14.633v7.592h-14.633zm14.633 0h14.633v7.592h-14.633z"/><path d="M353.951 170.807h14.633v7.592h-14.633z"/><path d="M368.583 170.807h14.633v7.592h-14.633z"/><path d="M383.215 170.807h14.633v7.592h-14.633z"/><path d="M397.847 170.807h14.633v7.592h-14.633zm-87.793-7.593h14.633v7.592h-14.633z"/><path d="M324.686 163.214h14.633v7.592h-14.633zm14.633 0h14.633v7.592h-14.633z"/><path d="M353.951 163.214h14.633v7.592h-14.633z"/><path d="M368.583 163.214h14.633v7.592h-14.633z"/><path d="M383.215 163.214h14.633v7.592h-14.633z"/><path d="M397.847 163.214h14.633v7.592h-14.633zm-87.793 22.78h14.633v7.592h-14.633z"/><path d="M324.686 185.994h14.633v7.592h-14.633zm14.633 0h14.633v7.592h-14.633z"/><path d="M353.951 185.994h14.633v7.592h-14.633z"/><path d="M368.583 185.994h14.633v7.592h-14.633z"/><path d="M383.215 185.994h14.633v7.592h-14.633z"/><path d="M397.847 185.994h14.633v7.592h-14.633zm-87.793-7.593h14.633v7.592h-14.633z"/><path d="M324.686 178.401h14.633v7.592h-14.633zm14.633 0h14.633v7.592h-14.633z"/><path d="M353.951 178.401h14.633v7.592h-14.633z"/><path d="M368.583 178.401h14.633v7.592h-14.633z"/><path d="M383.215 178.401h14.633v7.592h-14.633z"/><path d="M397.847 178.401h14.633v7.592h-14.633zM310.054 87.28h14.633v15.184h-14.633z"/><path d="M324.686 87.28h14.633v15.184h-14.633zm14.633 0h14.633v15.184h-14.633z"/><path d="M353.951 87.28h14.633v15.184h-14.633z"/><path d="M368.583 87.28h14.633v15.184h-14.633z"/><path d="M383.215 87.28h14.633v15.184h-14.633z"/><path d="M397.847 87.28h14.633v15.184h-14.633zm-87.793-15.187h14.633v15.184h-14.633z"/><path d="M324.686 72.093h14.633v15.184h-14.633zm14.633 0h14.633v15.184h-14.633z"/><path d="M353.951 72.093h14.633v15.184h-14.633z"/><path d="M368.583 72.093h14.633v15.184h-14.633z"/><path d="M383.215 72.093h14.633v15.184h-14.633z"/><path d="M397.847 72.093h14.633v15.184h-14.633zm-87.793-15.184h14.633v15.184h-14.633z"/><path d="M324.686 56.909h14.633v15.184h-14.633zm14.633 0h14.633v15.184h-14.633z"/><path d="M353.951 56.909h14.633v15.184h-14.633z"/><path d="M368.583 56.909h14.633v15.184h-14.633z"/><path d="M383.215 56.909h14.633v15.184h-14.633z"/><path d="M397.847 56.909h14.633v15.184h-14.633zm-87.793-15.187h14.633v15.184h-14.633z"/><path d="M324.686 41.722h14.633v15.184h-14.633zm14.633 0h14.633v15.184h-14.633z"/><path d="M353.951 41.722h14.633v15.184h-14.633z"/><path d="M368.583 41.722h14.633v15.184h-14.633z"/><path d="M383.215 41.722h14.633v15.184h-14.633z"/><path d="M397.847 41.722h14.633v15.184h-14.633zM310.054 155.62h14.633v7.592h-14.633z"/><path d="M324.686 155.62h14.633v7.592h-14.633zm14.633 0h14.633v7.592h-14.633z"/><path d="M353.951 155.62h14.633v7.592h-14.633z"/><path d="M368.583 155.62h14.633v7.592h-14.633z"/><path d="M383.215 155.62h14.633v7.592h-14.633z"/><path d="M397.847 155.62h14.633v7.592h-14.633zm-87.793-53.153h14.633v15.184h-14.633z"/><path d="M324.686 102.467h14.633v15.184h-14.633zm14.633 0h14.633v15.184h-14.633z"/><path d="M353.951 102.467h14.633v15.184h-14.633z"/><path d="M368.583 102.467h14.633v15.184h-14.633z"/><path d="M383.215 102.467h14.633v15.184h-14.633z"/><path d="M397.847 102.467h14.633v15.184h-14.633zm14.633 68.34h14.633v7.592H412.48zm0-7.593h14.633v7.592H412.48zm0 22.78h14.633v7.592H412.48zm0-7.593h14.633v7.592H412.48zm0-91.121h14.633v15.184H412.48zm0-15.187h14.633v15.184H412.48zm0-15.184h14.633v15.184H412.48zm0-15.187h14.633v15.184H412.48zm0 113.898h14.633v7.592H412.48zM2.777 132.838H17.41v7.592H2.777z"/><path d="M17.409 132.838h14.633v7.592H17.409zm14.633 0h14.633v7.592H32.042z"/><path d="M46.674 132.838h14.633v7.592H46.674z"/><path d="M61.306 132.838h14.633v7.592H61.306z"/><path d="M75.938 132.838h14.633v7.592H75.938z"/><path d="M90.57 132.838h14.633v7.592H90.57zm14.633 0h14.633v7.592h-14.633z"/><path d="M119.835 132.838h14.633v7.592h-14.633z"/><path d="M134.467 132.838H149.1v7.592h-14.633z"/><path d="M149.099 132.838h14.633v7.592h-14.633z"/><path d="M163.731 132.838h14.633v7.592h-14.633zm14.633 0h14.633v7.592h-14.633z"/><path d="M192.996 132.838h14.633v7.592h-14.633z"/><path d="M207.628 132.838h14.633v7.592h-14.633z"/><path d="M222.26 132.838h14.633v7.592H222.26z"/><path d="M236.892 132.838h14.633v7.592h-14.633zm14.633 0h14.633v7.592h-14.633z"/><path d="M266.157 132.838h14.633v7.592h-14.633z"/><path d="M280.789 132.838h14.633v7.592h-14.633z"/><path d="M295.421 132.838h14.633v7.592h-14.633zM2.777 125.244H17.41v7.592H2.777z"/><path d="M17.409 125.244h14.633v7.592H17.409zm14.633 0h14.633v7.592H32.042z"/><path d="M46.674 125.244h14.633v7.592H46.674z"/><path d="M61.306 125.244h14.633v7.592H61.306z"/><path d="M75.938 125.244h14.633v7.592H75.938z"/><path d="M90.57 125.244h14.633v7.592H90.57zm14.633 0h14.633v7.592h-14.633z"/><path d="M119.835 125.244h14.633v7.592h-14.633z"/><path d="M134.467 125.244H149.1v7.592h-14.633z"/><path d="M149.099 125.244h14.633v7.592h-14.633z"/><path d="M163.731 125.244h14.633v7.592h-14.633zm14.633 0h14.633v7.592h-14.633z"/><path d="M192.996 125.244h14.633v7.592h-14.633z"/><path d="M207.628 125.244h14.633v7.592h-14.633z"/><path d="M222.26 125.244h14.633v7.592H222.26z"/><path d="M236.892 125.244h14.633v7.592h-14.633zm14.633 0h14.633v7.592h-14.633z"/><path d="M266.157 125.244h14.633v7.592h-14.633z"/><path d="M280.789 125.244h14.633v7.592h-14.633z"/><path d="M295.421 125.244h14.633v7.592h-14.633zM2.777 148.025H17.41v7.592H2.777z"/><path d="M17.409 148.025h14.633v7.592H17.409zm14.633 0h14.633v7.592H32.042z"/><path d="M46.674 148.025h14.633v7.592H46.674z"/><path d="M61.306 148.025h14.633v7.592H61.306z"/><path d="M75.938 148.025h14.633v7.592H75.938z"/><path d="M90.57 148.025h14.633v7.592H90.57zm14.633 0h14.633v7.592h-14.633z"/><path d="M119.835 148.025h14.633v7.592h-14.633z"/><path d="M134.467 148.025H149.1v7.592h-14.633z"/><path d="M149.099 148.025h14.633v7.592h-14.633z"/><path d="M163.731 148.025h14.633v7.592h-14.633zm14.633 0h14.633v7.592h-14.633z"/><path d="M192.996 148.025h14.633v7.592h-14.633z"/><path d="M207.628 148.025h14.633v7.592h-14.633z"/><path d="M222.26 148.025h14.633v7.592H222.26z"/><path d="M236.892 148.025h14.633v7.592h-14.633zm14.633 0h14.633v7.592h-14.633z"/><path d="M266.157 148.025h14.633v7.592h-14.633z"/><path d="M280.789 148.025h14.633v7.592h-14.633z"/><path d="M295.421 148.025h14.633v7.592h-14.633zM2.777 140.431H17.41v7.592H2.777z"/><path d="M17.409 140.431h14.633v7.592H17.409zm14.633 0h14.633v7.592H32.042z"/><path d="M46.674 140.431h14.633v7.592H46.674z"/><path d="M61.306 140.431h14.633v7.592H61.306z"/><path d="M75.938 140.431h14.633v7.592H75.938z"/><path d="M90.57 140.431h14.633v7.592H90.57zm14.633 0h14.633v7.592h-14.633z"/><path d="M119.835 140.431h14.633v7.592h-14.633z"/><path d="M134.467 140.431H149.1v7.592h-14.633z"/><path d="M149.099 140.431h14.633v7.592h-14.633z"/><path d="M163.731 140.431h14.633v7.592h-14.633zm14.633 0h14.633v7.592h-14.633z"/><path d="M192.996 140.431h14.633v7.592h-14.633z"/><path d="M207.628 140.431h14.633v7.592h-14.633z"/><path d="M222.26 140.431h14.633v7.592H222.26z"/><path d="M236.892 140.431h14.633v7.592h-14.633zm14.633 0h14.633v7.592h-14.633z"/><path d="M266.157 140.431h14.633v7.592h-14.633z"/><path d="M280.789 140.431h14.633v7.592h-14.633z"/><path d="M295.421 140.431h14.633v7.592h-14.633zM2.777 117.651H17.41v7.592H2.777z"/><path d="M17.409 117.651h14.633v7.592H17.409zm14.633 0h14.633v7.592H32.042z"/><path d="M46.674 117.651h14.633v7.592H46.674z"/><path d="M61.306 117.651h14.633v7.592H61.306z"/><path d="M75.938 117.651h14.633v7.592H75.938z"/><path d="M90.57 117.651h14.633v7.592H90.57zm14.633 0h14.633v7.592h-14.633z"/><path d="M119.835 117.651h14.633v7.592h-14.633z"/><path d="M134.467 117.651H149.1v7.592h-14.633z"/><path d="M149.099 117.651h14.633v7.592h-14.633z"/><path d="M163.731 117.651h14.633v7.592h-14.633zm14.633 0h14.633v7.592h-14.633z"/><path d="M192.996 117.651h14.633v7.592h-14.633z"/><path d="M207.628 117.651h14.633v7.592h-14.633z"/><path d="M222.26 117.651h14.633v7.592H222.26z"/><path d="M236.892 117.651h14.633v7.592h-14.633zm14.633 0h14.633v7.592h-14.633z"/><path d="M266.157 117.651h14.633v7.592h-14.633z"/><path d="M280.789 117.651h14.633v7.592h-14.633z"/><path d="M295.421 117.651h14.633v7.592h-14.633zm14.633 15.187h14.633v7.592h-14.633z"/><path d="M324.686 132.838h14.633v7.592h-14.633zm14.633 0h14.633v7.592h-14.633z"/><path d="M353.951 132.838h14.633v7.592h-14.633z"/><path d="M368.583 132.838h14.633v7.592h-14.633z"/><path d="M383.215 132.838h14.633v7.592h-14.633z"/><path d="M397.847 132.838h14.633v7.592h-14.633zm-87.793-7.594h14.633v7.592h-14.633z"/><path d="M324.686 125.244h14.633v7.592h-14.633zm14.633 0h14.633v7.592h-14.633z"/><path d="M353.951 125.244h14.633v7.592h-14.633z"/><path d="M368.583 125.244h14.633v7.592h-14.633z"/><path d="M383.215 125.244h14.633v7.592h-14.633z"/><path d="M397.847 125.244h14.633v7.592h-14.633zm-87.793 22.781h14.633v7.592h-14.633z"/><path d="M324.686 148.025h14.633v7.592h-14.633zm14.633 0h14.633v7.592h-14.633z"/><path d="M353.951 148.025h14.633v7.592h-14.633z"/><path d="M368.583 148.025h14.633v7.592h-14.633z"/><path d="M383.215 148.025h14.633v7.592h-14.633z"/><path d="M397.847 148.025h14.633v7.592h-14.633zm-87.793-7.594h14.633v7.592h-14.633z"/><path d="M324.686 140.431h14.633v7.592h-14.633zm14.633 0h14.633v7.592h-14.633z"/><path d="M353.951 140.431h14.633v7.592h-14.633z"/><path d="M368.583 140.431h14.633v7.592h-14.633z"/><path d="M383.215 140.431h14.633v7.592h-14.633z"/><path d="M397.847 140.431h14.633v7.592h-14.633zm-87.793-22.78h14.633v7.592h-14.633z"/><path d="M324.686 117.651h14.633v7.592h-14.633zm14.633 0h14.633v7.592h-14.633z"/><path d="M353.951 117.651h14.633v7.592h-14.633z"/><path d="M368.583 117.651h14.633v7.592h-14.633z"/><path d="M383.215 117.651h14.633v7.592h-14.633z"/><path d="M397.847 117.651h14.633v7.592h-14.633zm14.633 15.187h14.633v7.592H412.48zm0-7.594h14.633v7.592H412.48zm0 22.781h14.633v7.592H412.48zm0-7.594h14.633v7.592H412.48zm0-22.78h14.633v7.592H412.48zm0-15.184h14.633v15.184H412.48zm14.633 68.34h1.829v7.592h-1.829zm0-7.593h1.829v7.592h-1.829zm0 22.78h1.829v7.592h-1.829zm0-7.593h1.829v7.592h-1.829zm0-91.121h1.829v15.184h-1.829zm0-15.187h1.829v15.184h-1.829zm0-15.184h1.829v15.184h-1.829zm0-15.187h1.829v15.184h-1.829zm0 113.898h1.829v7.592h-1.829zm0-22.782h1.829v7.592h-1.829zm0-7.594h1.829v7.592h-1.829zm0 22.781h1.829v7.592h-1.829zm0-7.594h1.829v7.592h-1.829zm0-22.78h1.829v7.592h-1.829zm0-15.184h1.829v15.184h-1.829z"/></g><use xlink:href="#id-326c" overflow="visible" fill="none" stroke="#ECECEC" stroke-width=".35" stroke-miterlimit="10"/><text transform="matrix(.99269 0 0 1 437.89 195.218)" fill="#4F4F4D" font-family="'Roboto'" font-size="8">0</text><text transform="matrix(.99269 0 0 1 .542 205.06)" fill="#4F4F4D" font-family="'Roboto'" font-size="8">8</text><text transform="matrix(.99269 0 0 1 12.94 205.06)" fill="#4F4F4D" font-family="'Roboto'" font-size="8">16</text><path fill="none" d="M1.311 199.144h42.835v18.012H1.311z"/><text transform="translate(22.728 205.987)"><tspan x="-16.914" y="9" fill="#4F4F4D" font-family="'Roboto'" font-size="8">Янв 2018</tspan></text><path fill="none" d="M46.675 199.144h49.748v18.012H46.675z"/><text transform="matrix(.99269 0 0 1 71.549 205.987)"><tspan x="-17.179" y="9" fill="#4F4F4D" font-family="'Roboto'" font-size="8">Фев 2018</tspan></text><path fill="none" d="M96.423 199.144h59.055v18.012H96.423z"/><text transform="matrix(.99269 0 0 1 125.95 205.987)"><tspan x="-17.95" y="9" fill="#4F4F4D" font-family="'Roboto'" font-size="8">Мар 2018</tspan></text><path fill="none" d="M155.478 199.144h53.945v18.012h-53.945z"/><text transform="matrix(.99269 0 0 1 182.45 205.987)"><tspan x="-17.078" y="9" fill="#4F4F4D" font-family="'Roboto'" font-size="8">Апр 2018</tspan></text><path fill="none" d="M213.543 199.144h54.67v18.012h-54.67z"/><text transform="matrix(.99269 0 0 1 240.878 205.987)"><tspan x="-17.95" y="9" fill="#4F4F4D" font-family="'Roboto'" font-size="8">Май 2018</tspan></text><text transform="matrix(.99269 0 0 1 27.572 205.06)" fill="#4F4F4D" font-family="'Roboto'" font-size="8">24</text><text transform="matrix(.99269 0 0 1 44.439 205.06)" fill="#4F4F4D" font-family="'Roboto'" font-size="8">1</text><text transform="matrix(.99269 0 0 1 59.072 205.06)" fill="#4F4F4D" font-family="'Roboto'" font-size="8">9</text><text transform="matrix(.99269 0 0 1 71.468 205.06)" fill="#4F4F4D" font-family="'Roboto'" font-size="8">17</text><text transform="matrix(.99269 0 0 1 86.1 205.06)" fill="#4F4F4D" font-family="'Roboto'" font-size="8">25</text><text transform="matrix(.99269 0 0 1 102.968 205.06)" fill="#4F4F4D" font-family="'Roboto'" font-size="8">5</text><text transform="matrix(.99269 0 0 1 115.364 205.06)" fill="#4F4F4D" font-family="'Roboto'" font-size="8">13</text><text transform="matrix(.99269 0 0 1 129.996 205.06)" fill="#4F4F4D" font-family="'Roboto'" font-size="8">21</text><text transform="matrix(.99269 0 0 1 144.63 205.06)" fill="#4F4F4D" font-family="'Roboto'" font-size="8">28</text><text transform="matrix(.99269 0 0 1 159.82 205.06)" fill="#4F4F4D" font-family="'Roboto'" font-size="8">5</text><text transform="matrix(.99269 0 0 1 173.893 205.06)" fill="#4F4F4D" font-family="'Roboto'" font-size="8">13</text><text transform="matrix(.99269 0 0 1 188.526 205.06)" fill="#4F4F4D" font-family="'Roboto'" font-size="8">21</text><text transform="matrix(.99269 0 0 1 203.157 205.06)" fill="#4F4F4D" font-family="'Roboto'" font-size="8">29</text><text transform="matrix(.99269 0 0 1 220.025 205.06)" fill="#4F4F4D" font-family="'Roboto'" font-size="8">7</text><text transform="matrix(.99269 0 0 1 232.423 205.06)" fill="#4F4F4D" font-family="'Roboto'" font-size="8">15</text><text transform="matrix(.99269 0 0 1 247.055 205.06)" fill="#4F4F4D" font-family="'Roboto'" font-size="8">23</text><text transform="matrix(.99269 0 0 1 261.686 205.06)" fill="#4F4F4D" font-family="'Roboto'" font-size="8">31</text><text transform="matrix(.99269 0 0 1 278.554 205.06)" fill="#4F4F4D" font-family="'Roboto'" font-size="8">8</text><text transform="matrix(.99269 0 0 1 290.951 205.06)" fill="#4F4F4D" font-family="'Roboto'" font-size="8">16</text><text transform="matrix(.99269 0 0 1 305.583 205.06)" fill="#4F4F4D" font-family="'Roboto'" font-size="8">24</text><text transform="matrix(.99269 0 0 1 322.452 205.06)" fill="#4F4F4D" font-family="'Roboto'" font-size="8">2</text><text transform="matrix(.99269 0 0 1 334.849 205.06)" fill="#4F4F4D" font-family="'Roboto'" font-size="8">10</text><text transform="matrix(.99269 0 0 1 349.48 205.06)" fill="#4F4F4D" font-family="'Roboto'" font-size="8">18</text><text transform="matrix(.99269 0 0 1 364.113 205.06)" fill="#4F4F4D" font-family="'Roboto'" font-size="8">26</text><text transform="matrix(.99269 0 0 1 380.98 205.06)" fill="#4F4F4D" font-family="'Roboto'" font-size="8">4</text><text transform="matrix(.99269 0 0 1 393.377 205.06)" fill="#4F4F4D" font-family="'Roboto'" font-size="8">12</text><text transform="matrix(.99269 0 0 1 408.009 205.06)" fill="#4F4F4D" font-family="'Roboto'" font-size="8">20</text><text transform="matrix(.99269 0 0 1 422.472 205.06)" fill="#4F4F4D" font-family="'Roboto'" font-size="8">28</text><text transform="matrix(.99269 0 0 1 2.777 13.696)"><tspan x="0" y="0" fill="#4F4F4D" font-family="'DIN Pro'" font-size="16">График доходности Crypto Pi</tspan><tspan x="0" y="18.806" fill="#F59900" font-family="'Roboto'" font-size="12">°</tspan><tspan x="4.471" y="16" fill="#F59900" font-family="'Roboto'" font-size="12"> Bitcoin</tspan><tspan x="45.093" y="16" fill="#2DB7BC" font-family="'Roboto'" font-size="12"> </tspan><tspan x="54.041" y="18.806" fill="#6E9ED4" font-family="'Roboto'" font-size="12">°</tspan><tspan x="58.512" y="16" fill="#6E9ED4" font-family="'Roboto'" font-size="12"> Euro</tspan></text><path fill="none" d="M267.09 199.144h55.333v18.012H267.09z"/><text transform="matrix(.99269 0 0 1 294.756 205.987)"><tspan x="-18.351" y="9" fill="#4F4F4D" font-family="'Roboto'" font-size="8">Июн 2018</tspan></text><text transform="matrix(.99269 0 0 1 437.89 150.433)" fill="#4F4F4D" font-family="'Roboto'" font-size="8">15 %</text><text transform="matrix(.99269 0 0 1 437.89 135.766)" fill="#4F4F4D" font-family="'Roboto'" font-size="8">20 %</text><text transform="matrix(.99269 0 0 1 437.89 166.1)" fill="#4F4F4D" font-family="'Roboto'" font-size="8">10 %</text><text transform="matrix(.99269 0 0 1 437.89 181.09)" fill="#4F4F4D" font-family="'Roboto'" font-size="8">5 %</text><text transform="matrix(.99269 0 0 1 437.89 119.517)" fill="#4F4F4D" font-family="'Roboto'" font-size="8">25 %</text><text transform="matrix(.99269 0 0 1 437.89 44.558)" fill="#4F4F4D" font-family="'Roboto'" font-size="8">250 %</text><text transform="matrix(.99269 0 0 1 437.89 74.09)" fill="#4F4F4D" font-family="'Roboto'" font-size="8">160 %</text><text transform="matrix(.99269 0 0 1 437.89 59.423)" fill="#4F4F4D" font-family="'Roboto'" font-size="8">205 %</text><text transform="matrix(.99269 0 0 1 437.89 89.129)" fill="#4F4F4D" font-family="'Roboto'" font-size="8">115 %</text><text transform="matrix(.99269 0 0 1 437.89 104.62)" fill="#4F4F4D" font-family="'Roboto'" font-size="8">70 %</text><path fill="none" d="M320.566 199.144h55.333v18.012h-55.333z"/><text transform="matrix(.99269 0 0 1 348.232 205.987)"><tspan x="-18.291" y="9" fill="#4F4F4D" font-family="'Roboto'" font-size="8">Июл 2018</tspan></text><path fill="none" d="M373.609 199.144h55.333v18.012h-55.333z"/><text transform="matrix(.99269 0 0 1 401.275 205.987)"><tspan x="-16.462" y="9" fill="#4F4F4D" font-family="'Roboto'" font-size="8">Авг 2018</tspan></text><g fill="none" stroke-width=".344" stroke-miterlimit="10"><path stroke="#E3E3E3" d="M75.938 193.566v2.308m-14.632-2.308v2.308m-29.264-2.308v2.308m14.632-2.308v2.308m-29.264-2.308v2.308m-14.633 0v-2.308m87.794 0v2.308m14.632-2.308v2.308m14.632-2.308v2.308m14.632-2.308v2.308m14.633-2.308v2.308m14.632-2.308v2.308m14.632-2.308v2.308m14.632-2.308v2.308m14.633-2.308v2.308m14.632-2.308v2.308m14.632-2.308v2.308m14.632-2.308v2.308m14.632-2.308v2.308m14.633-2.308v2.308m14.632-2.308v2.308m14.632-2.308v2.308m14.632-2.308v2.308m14.633-2.308v2.308m14.632-2.308v2.308m14.632-2.308v2.308m14.633-2.308v2.308m14.632-2.308v2.308m14.632-2.308v2.308m14.632-2.308v2.308m1.831-2.308v2.308m0-154.152h5.103m-5.103 30.377h2.71m-2.71 15.178h2.71m-2.71-30.371h2.71m-2.71 45.569h2.71m-2.71 30.377h3.123m-3.123-15.201h5.67m-5.67 45.577h3.123m-3.123-15.203h3.123m-3.123 30.377h3.123m-3.123 15.203h5.42"/><path stroke="#4F4F4D" d="M1.311 212.834h2.835m37.165 0h2.835m2.528 0h5.669m38.411 0h5.669m1.464 0h8.504m38.874 0h8.504m.292 0h7.086m41.771 0h7.087m3.538 0h5.67m43.331 0h5.669m1.331 0h5.669m40.331 0h5.669m1.807 0h5.669m40.331 0h5.67m1.373 0h5.669m40.331 0h5.67"/></g><defs><path id="id-328e" d="M0 117.651h43.75v75.915H0z"/></defs><clipPath id="id-329f"><use xlink:href="#id-328e" overflow="visible"/></clipPath><g clip-path="url(#id-329f)" fill="none" stroke="#F59900" stroke-width="1.5" stroke-linecap="round" stroke-linejoin="round" stroke-miterlimit="10"><path d="M2.74 139.639l1.854-7.91 1.853 10.786 1.852-43.143 1.853 15.819 1.853 10.067 1.853-16.538 1.668 1.438 1.853-89.16 1.853-5.753 1.852-1.438 1.853 11.505 1.853 47.456 1.853-44.58 1.853-36.671 1.668 3.596 1.853 23.727 1.852-12.223 1.853-5.033 1.853 14.38 1.853 12.224 1.853-25.885 1.668-58.242 1.853 5.752 1.852-66.151 1.853-17.257 1.853 23.728 1.853-74.06 1.853-127.27 1.853 78.375 1.667-17.257 1.853 57.523 1.853 33.795 1.853-14.381 1.853-40.985 1.853 67.59 1.853-28.762 1.853 69.027 1.667 31.638 1.853 5.752L75.93-25.02l1.853-35.952 1.853 39.547 1.853 2.157 1.853-38.828 1.667-35.233 1.853 22.29 1.853-28.043 1.853-7.19 1.853 43.142 1.853 12.943 1.853-11.504 1.853 29.48 1.667 5.033L101.5-9.921h1.853l1.853-.72 1.853-33.074 1.853-40.986 1.853-38.827 1.853-2.877 1.667-31.637 1.853 50.332 1.853-26.604 1.853 1.438 1.853-74.78 1.853 5.034 1.853 2.876 1.667-30.2 1.853 27.324 1.853 30.918 1.853 20.853 1.853-1.44 1.853-12.941 1.853 15.1 1.852-27.324 1.668-6.471 1.853-24.448 1.853-30.918 1.853 15.1 1.853-81.97 1.852-26.605 1.853 7.19 1.853-15.099 1.668 29.48 1.853 38.829 1.853-69.747h1.853l1.852-11.505 1.853 32.357 1.853 9.348 1.668-22.29 1.853 8.628 1.853 10.785 1.853 83.408 1.852-3.595 1.853 7.91 1.853 26.604 1.853-23.009 1.668-15.1 1.853 20.852 1.853 7.19 1.852 33.076 1.853 2.157 1.853-7.91 1.853 11.505 1.853 42.423 1.668-64.713 1.853 43.143 1.852-30.2 1.853 32.357 1.853-3.596 1.853-9.347 1.853-7.91 1.668 7.91 1.853 25.166 1.852-15.82 1.853 5.035 1.853-5.034 1.853-18.695 1.853-7.19 1.853 7.19 1.668-15.1 1.852-48.894 1.853 2.876 1.853 18.695 1.853-4.314 1.853-10.786 1.853-12.942 1.853-18.695 1.667 13.661 1.853-.719 1.853 17.976 1.853-6.47 1.853-33.795 1.853-49.614 1.853 7.91 1.667-8.629 1.853-11.504 1.853-.72 1.853-25.885 1.853 38.828 1.853-9.347 1.853 10.785 1.853 2.157 1.667 11.505 1.853 8.629 1.853-17.257 1.853 12.942 1.853 2.157 1.853 5.753 1.853-9.348 1.667-5.033 1.853-83.409 1.853 17.976 1.853-36.67 1.853-35.233 1.853 45.3 1.853-30.92 1.853 14.382 1.667-1.438 1.853 30.198 1.853 6.472 1.853.72 1.853-3.596 1.853-82.689 1.853 23.728 1.852-.72 1.668 15.1 1.853-30.918 1.853 6.472 1.853-35.233 1.853 51.052 1.853 27.323 1.852-5.752 1.668 35.951 1.853-10.067 1.853 10.067 1.853-2.876 1.853 8.628L332-352.182l1.852-10.785 1.853 1.438 1.668-43.861 1.853 14.38 1.853-17.975 1.853-5.033 1.853 5.033 1.852 14.38 1.853 46.019 1.853 52.489 1.668 10.067 1.853 8.628 1.853-3.595 1.852 6.471 1.853-5.752 1.853 29.48 1.853 48.895 1.668-20.133 1.853-20.853 1.853 22.291m.001 0l1.852 4.314 1.853-1.438 1.853-4.314 1.853-40.266 1.853-8.628 1.668-4.315 1.853-12.942 1.852-45.3 1.853 2.877 1.853-4.315 1.853-27.323 1.853-58.96 1.853 36.67 1.668-57.523 1.852 25.167 1.853 11.504 1.853-4.314 1.853-10.786 1.853 13.662 1.853 5.033 1.668 30.918 1.852-23.728 1.853 13.662 1.853-28.761 1.853 22.29 1.853-10.067 1.853 23.728 1.853 18.695 1.667 5.033 1.853-3.595 1.853 17.257 1.853 12.224 1.853-10.067"/></g><defs><path id="id-330g" d="M1.667 41.723h428.666v75.928H1.667z"/></defs><clipPath id="id-331h"><use xlink:href="#id-330g" overflow="visible"/></clipPath><g clip-path="url(#id-331h)" fill="none" stroke="#F59900" stroke-width="1.5" stroke-linecap="round" stroke-linejoin="round" stroke-miterlimit="10"><path d="M2.74 120.091l1.854-.878 1.853 1.197 1.852-4.788 1.853 1.756 1.853 1.117 1.853-1.836 1.668.16 1.853-9.896 1.853-.638 1.852-.16 1.853 1.277 1.853 5.267 1.853-4.948 1.853-4.07 1.668.4 1.853 2.633 1.852-1.357 1.853-.558 1.853 1.596 1.853 1.356 1.853-2.873 1.668-6.464 1.853.639 1.852-7.343 1.853-1.915L50.36 92.4l1.853-8.22 1.853-14.126 1.853 8.7 1.667-1.916 1.853 6.384 1.853 3.751 1.853-1.596 1.853-4.549 1.853 7.502 1.853-3.193 1.853 7.662 1.667 3.511 1.853.639 1.853 4.868 1.853-3.99 1.853 4.389 1.853.24 1.853-4.31 1.667-3.91 1.853 2.473 1.853-3.112 1.853-.798 1.853 4.788 1.853 1.437 1.853-1.277 1.853 3.272 1.667.558 1.853 1.916h1.853l1.853-.08 1.853-3.671 1.853-4.55 1.853-4.309 1.853-.319 1.667-3.511 1.853 5.586 1.853-2.953 1.853.16 1.853-8.3 1.853.559 1.853.32 1.667-3.353 1.853 3.033 1.853 3.431 1.853 2.315 1.853-.16 1.853-1.436 1.853 1.676 1.852-3.033 1.668-.718 1.853-2.714 1.853-3.431 1.853 1.676 1.853-9.098 1.852-2.953 1.853.798 1.853-1.676 1.668 3.272 1.853 4.31 1.853-7.741h1.853l1.852-1.277 1.853 3.591 1.853 1.038 1.668-2.474 1.853.957 1.853 1.197 1.853 9.258 1.852-.4 1.853.879 1.853 2.952 1.853-2.553 1.668-1.676 1.853 2.314 1.853.798 1.852 3.671 1.853.24 1.853-.878 1.853 1.276 1.853 4.709 1.668-7.182 1.853 4.788 1.852-3.352 1.853 3.591 1.853-.399 1.853-1.037 1.853-.878 1.668.878 1.853 2.793 1.852-1.756 1.853.559 1.853-.559 1.853-2.075 1.853-.798 1.853.798 1.668-1.676 1.852-5.426 1.853.319 1.853 2.075 1.853-.479 1.853-1.197 1.853-1.437 1.853-2.075 1.667 1.517 1.853-.08 1.853 1.995 1.853-.718 1.853-3.75 1.853-5.508 1.853.878 1.667-.957 1.853-1.277 1.853-.08 1.853-2.873 1.853 4.31 1.853-1.038 1.853 1.197 1.853.24 1.667 1.276 1.853.958 1.853-1.915 1.853 1.436 1.853.24 1.853.638 1.853-1.037 1.667-.559 1.853-9.257 1.853 1.995 1.853-4.07 1.853-3.91 1.853 5.027 1.853-3.432 1.853 1.596 1.667-.16 1.853 3.353 1.853.718 1.853.08 1.853-.4 1.853-9.177 1.853 2.634 1.852-.08 1.668 1.676 1.853-3.432 1.853.718 1.853-3.91 1.853 5.666 1.853 3.033 1.852-.639 1.668 3.99 1.853-1.117 1.853 1.118 1.853-.32 1.853.958L332 65.504l1.852-1.197 1.853.16 1.668-4.868 1.853 1.596 1.853-1.995 1.853-.559 1.853.559 1.852 1.596 1.853 5.108 1.853 5.825 1.668 1.118 1.853.957 1.853-.399 1.852.718 1.853-.638 1.853 3.272 1.853 5.427 1.668-2.235 1.853-2.314 1.853 2.474m.001 0l1.852.479 1.853-.16 1.853-.479 1.853-4.469 1.853-.958 1.668-.478 1.853-1.437 1.852-5.028 1.853.32 1.853-.48 1.853-3.032 1.853-6.544 1.853 4.07 1.668-6.384 1.852 2.793 1.853 1.277 1.853-.479 1.853-1.197 1.853 1.516 1.853.559 1.668 3.432 1.852-2.634 1.853 1.516 1.853-3.192 1.853 2.474 1.853-1.117 1.853 2.633 1.853 2.075 1.667.559 1.853-.4 1.853 1.916 1.853 1.357 1.853-1.117"/></g><path d="M2.777 188.4l1.81 3.788 1.811-.137 1.81-.62 1.992.55 1.81-.757 1.81-.138 1.811 1.447 1.81-6.614 1.81-.482 1.811-1.378 1.81-1.584 1.811.827 1.992-.07 1.81-2.892 1.81.55 1.81-.62 1.811-.964 1.81-1.102 1.81-.62 1.811-.138 1.81-2.549 1.811-2.686 1.992-.138 1.81-.138 1.81-.344 1.81-.896 1.811.413 1.81-.62 1.81-.826 1.811-2.756 1.81-1.309 1.811-.069 1.991-2.48 1.81-.55 1.811.895 1.81-.551 1.811 1.17 1.81-.826 1.81-1.446 1.811-1.034 1.81-1.79 1.992 1.377 1.81-.482 1.81-.551 1.811-.07 1.81 1.86 1.811-.344 1.81-.482 1.81.689 1.811-.482 1.81 1.515 1.992-.689 1.81-.137 1.81-1.378 1.811-1.447 1.81 1.378 1.811.138 1.81 1.378 1.81-.276 1.811.551 1.81.413 1.992-.413 1.81-.138 1.81-.206 1.811-1.24 1.81.62 1.81.757 1.811 2.136 1.81-.896 1.811-.964 1.992-.413 1.81-.758 1.81.689 1.81-.345 1.811.758 1.81-.275 1.81.757 1.811.276 1.81.758 1.811 1.653 1.991.964 1.81-1.446 1.811-.69 1.81.62 1.811-.137 1.81-.207 1.81 1.447 1.811 3.238 1.81-1.034 1.811-2.342 1.991 3.1 1.81-.344 1.811-.69 1.81-6.268 1.811-.344 1.81-1.86 1.81-1.723 1.811 1.034 1.81-.414 1.811-1.584 1.991-1.102 1.81-6.476 1.811-.826h1.81l1.811.688 1.81-2.617 1.81-4.891 1.811 6.957 1.81-3.03 1.992 1.515 1.81-3.927 1.81.965 1.811 2.962 1.81-1.722 1.81-5.512 1.811-6.82 1.81-2.617 1.811 4.478 1.81-.07 1.992 3.376 1.81-.758 1.81 2.963 1.811-.138 1.81-1.102 1.81-.138 1.811-.345 1.81 2.963 1.811-.62 1.81 3.03 1.992-1.308 1.81-.07 1.81-3.306 1.811 1.516 1.81 2.204 1.81.276 1.811-.276 1.81 1.585 1.811.62 1.991-.62 1.81 1.033 1.811-.344 1.81-.69 1.811-.482 1.81-.137 1.81-.345 1.811.551 1.81 1.998 1.811-.275 1.991-.69 1.81.758 1.811-.62 1.81 2.825 1.811 1.378 1.81 1.446 1.81 2.618 1.811-.275 1.81.344 1.81.964 1.992-.206 1.81 1.722 1.811-1.653 1.81 1.033 1.811-.344 1.81.344 1.81 4.753 1.811 2.067h1.81l1.992-.138 1.81-1.447 1.81-.275 1.811 2.411 1.81-.758 1.81.276 1.811.482 1.81-.689 1.811 1.378 1.81-.069 1.992 1.447 1.81-.138h1.81l1.811-1.585 1.81 2.274 1.81 1.998 1.811.895 1.81.965 1.811-.345 1.81.482 1.992-.137 1.81-1.654 1.81-6.2 1.811 1.93 1.81-.896 1.81 4.34 1.811-.552 1.81-1.722 1.811-1.378 1.991-5.304 1.81-.138 1.811.276h1.81m.001 0h3.62l1.81-.207 1.811.069 1.81 1.584 1.811 1.31 1.991.068h3.621l1.81 2.618 1.811-.138h1.81l1.81.207 1.811.344 1.81 3.79h1.81l1.992 1.653 1.81-.552 1.811.69 1.81-.552 1.81-1.998 1.811.552h1.81l1.811 1.722 1.81-3.582 1.992 2.755 1.81-.138 1.81-1.102 1.811-.207 1.81.138 1.81-2.755 1.811-3.17 1.81-10.844" fill="none" stroke="#6E9ED4" stroke-width="1.5" stroke-linecap="round" stroke-linejoin="round" stroke-miterlimit="10"/></svg>