<svg xmlns="http://www.w3.org/2000/svg" viewBox="0 0 475.107 230.358"><path fill="none" stroke="#F59900" stroke-width="1.5" stroke-linecap="round" stroke-linejoin="round" stroke-miterlimit="10" d="M25.052 192.295l2.852-2.361 2.684 2.755 2.852-11.413 2.684 4.198 2.852 2.492 2.852-3.935 2.684.13 2.852-21.513 2.684-3.28 2.852.394 2.852 2.099 2.684 12.33 2.852-11.937 2.684-9.839 2.852.919 2.852 6.034 2.684-3.017 2.852-1.05 2.685 3.149 2.851 2.492 2.852-6.297 2.685-16.529 2.852 2.1 2.684-18.104 2.852-3.805 2.852 7.216 2.684-20.465 2.852-34.37 2.852 20.596 2.684-3.28 2.852 8.79 2.684 15.61 2.852-3.935 2.852-10.889 2.684 17.841 2.852-10.625 2.684 21.776 2.852 8.265 2.852 1.574 2.684 12.2 2.852-10.232 2.684 10.625 2.852.657 2.852-10.495 2.684-9.183 2.852 5.64 2.684-7.346 2.852-1.836 2.852 11.544 2.684 3.148 2.852-2.886 2.852 7.74 2.684 1.443 2.852 4.592 2.684-.263 2.852-.262 2.852-8.396 2.684-10.888 2.852-10.495 2.684-.656 2.852-8.264 2.852 13.25 2.684-7.216 2.852.394 2.685-19.94 2.851 1.705 2.852.394 2.685-8.396 2.851 7.346 2.685 8.265 2.852 5.772 2.851-.394 2.685-3.28 2.852 4.068 2.684-7.216 2.852-2.099 2.852-6.165 2.684-8.396 2.852 3.936 2.852-22.04 2.684-6.69h2.852v1.574l2.684-4.066 2.852 7.74 2.852 10.625 2.684-18.89 2.852.262 2.684-3.017 2.852 8.527 2.852 2.361 2.684-5.772 2.852 1.575 2.684 3.017 2.852 23.088 2.852-.787 2.684 1.574 2.852 3.149 2.684-2.23 2.852-4.198 2.852 5.64 2.684 1.837 2.852 9.183 2.852.656 2.684-2.361 2.852 1.705 2.684 10.757 2.852-11.413 2.852 6.428 2.684-6.034 2.852 6.165 2.684 1.312 2.852-2.755v1.443l2.852-3.41 2.684 1.574 2.852 6.821 2.685-3.935 2.852.918 2.851-1.443 2.685-4.854 2.852-1.836 2.684 2.099 2.852-4.067 2.852-13.119 2.684 1.05 2.852 4.723 2.684-.656 2.852-3.018 2.852-3.41 2.684-5.117 2.852 3.674 2.852-.394 2.684 4.854 2.852-2.1 2.684-8.526 2.852-13.119 2.852 2.23 2.684-2.754 2.852-3.28 2.684-.131 2.852-6.69 2.852 10.363 2.684-2.755 2.852 3.017 2.684.525 2.852 3.411 2.852 2.099 2.684-4.723 2.852 3.542"/><path fill="none" stroke="#6E9ED4" stroke-width="1.5" stroke-linecap="round" stroke-linejoin="round" stroke-miterlimit="10" d="M25.052 205.635l2.746-10.253 2.907 8.056 2.746-.244 2.746-1.343 2.746 1.22 2.745-1.586 2.746-.366 2.746 3.051 2.746-13.915 2.907-.976 2.746-2.93 2.746-3.295 2.746 1.587 2.745-.122 2.746-5.981 2.746 1.22 2.746-1.098 2.907-1.953 2.746-2.32 2.746-1.22 2.745-.244 2.746-5.492 2.746-5.493 2.746-.122h2.746l2.907-.976 2.746-1.831 2.746.976 2.745-1.709 2.746-1.709 2.746-6.225 2.746-2.807 2.907-.244 2.746-5.248 2.746-1.099 2.746 2.197 2.745-.976 2.746 2.93 2.746-1.466 2.746-3.417 2.907-2.197 2.746-3.662 2.746 2.807 2.746-1.342 2.745-1.343h2.746l2.746 3.784 2.746-.855 2.907-.976 2.746 1.465 2.746-1.343 2.745 2.93 2.746-.977h2.746l2.746-3.051 2.907-2.93 2.746 2.93 2.746.732 2.746 2.807 2.745-1.098 2.746 1.22 2.746.855 2.746-.855 2.907-.122 2.746-.122 2.746-2.807 2.746.976 2.745 1.587 2.746 4.394 2.746-1.83 2.746-1.832 2.907-1.464 2.746-.977 2.746 1.343 2.746-.488 2.745 1.586 2.746-.61 2.746 2.075 2.746.366 2.907 1.099 2.746 3.417 2.746 2.197h2.745v-3.173l2.746-1.343 2.746 1.099 2.746-.366 2.907-.367 2.746 2.808 2.746 6.957 2.746-2.075 2.745-4.882 2.746 6.59 2.746-.487 2.746-1.465 2.907-13.304 2.746-.733 2.746-3.784 2.746-3.661 2.745 2.44 2.746-.976 2.746-3.295 2.746-2.441 2.907-13.915 2.746-1.83 2.746.976 2.745-5.493 2.746-10.863 2.746 14.28 2.746-6.224 2.746 3.295 2.907-8.422 2.746 1.587h2.746v6.225l2.745-.61 2.746-4.028 2.746-11.596 2.746-14.89 2.907-5.738 2.746 9.643 2.746-.488 2.746 6.713 2.745-1.83 2.746 7.2h2.746l2.746-2.44 2.907-.245 2.746-1.098 2.746 5.614 2.746-1.586 2.745 6.469 2.746-2.93 2.746-.244 2.746-7.201 2.907 3.417 2.746 4.76 2.746-.243 2.745-.367 2.746 2.808 2.746 1.342 2.746-1.342 2.746 2.075 2.907-1.587 2.746-.366 2.746-.855 2.745-.488 2.746-.732 2.746 1.098 2.746 4.76 2.907-.365"/></svg>