<svg xmlns="http://www.w3.org/2000/svg" xmlns:xlink="http://www.w3.org/1999/xlink" viewBox="0 0 459.884 214.313"><defs><path id="id-1226a" d="M.446 125.364H431.64V39.358H.446v86.006z"/></defs><clipPath id="id-1227b"><use xlink:href="#id-1226a" overflow="visible"/></clipPath><g clip-path="url(#id-1227b)" fill="none" stroke="#F59A00" stroke-width="1.5" stroke-linecap="round" stroke-linejoin="round" stroke-miterlimit="10"><path d="M284.31 86.78l-1.084-3.402-1.479-2.766-1.293.57-1.479-.652-1.479.326-1.293-.814-1.479-.976-1.478-4.882-1.294-4.313-1.479-1.383-1.478-.488-1.479.488-1.294 1.709-1.478-1.384-1.479 4.15-1.294-.163-1.478 1.058-1.479-1.871-1.294-.896-1.478.326-1.479-.976-1.478.976L251.99 68l-1.479.488-1.478-2.523-1.294-4.882-1.479 3.418-1.478-.651-1.479 2.929-1.294-1.465-1.478.163-1.479-2.278-1.294 7.811-1.478.326-1.479-.082-1.294-.57-1.478-2.929-1.479.163-1.478-1.383-1.294 3.01-1.479-4.393-1.478 3.417-1.294 3.418-1.479-1.71-1.478 7.894-1.294.488-1.479.895-1.478-.57-1.479-.244-1.293-1.22-1.479 1.708-1.479-.895-1.294-1.058-1.478-.162-1.479-1.058-1.478.895-1.294-3.662-1.478 2.441h-1.479l-1.294 1.14-1.479.813-1.478-.732-1.294 4.638-1.478 3.255-1.479.57-1.478-1.628h-1.294l-1.479-1.302-1.478 1.79-1.294 1.22-1.479 1.059-1.478.325-1.294-1.709-1.479-.325-1.478 4.638-1.479 1.465-1.294-.733-1.478.651-1.479 1.79-1.294.488-1.478-.488-1.479 1.465-1.479-2.36-1.293-.65-1.479.65-1.478.895-1.294.326-1.479-3.011-1.478 2.848-1.294-4.069-1.479 6.103-1.478-3.987-1.479-1.14-1.294.815-1.478-.244-1.479-3.093-1.294-.732-1.478-1.953-1.479 1.465-1.294 2.116-1.478-2.523-1.479-.65-1.478.325-1.294-7.893-1.479-.976-1.478-.896-1.294 2.197-1.479-.976-1.478-3.01-1.479 1.057h-1.294l-1.478 6.591-1.479-3.662-1.294-2.766-1.478 1.383-1.479-.65-1.293 2.522-1.479 7.73-1.479-1.384-1.478 2.848-1.294 2.279-1.479.65-1.478 2.604-1.294-1.383-1.478 1.14-1.48.162-1.293-1.953-1.478-2.93-1.48-2.603-1.478 2.848-1.293-.244-1.48-.488-1.478 6.997-1.293-.081-1.479 2.522-1.479-4.72-1.478 2.93-1.294.326-1.479 3.661-1.478 3.825-1.294 3.092-1.479.081H81.03l-1.294-1.546-1.478-.57-1.479-2.766-1.479 1.058-1.293-1.22-1.479-3.988-1.479.651-1.293 2.604-1.479-2.034-1.479 3.336-1.293 3.661-1.479-.244-1.479-3.743-1.478 3.418-1.294-4.15-1.478-.57-1.479-3.01-1.294-6.428-1.478 2.685-1.479-6.428-1.479 3.905-1.293 1.384-1.479-3.255-1.479-5.37-1.293 1.627-1.479-7.405-1.479 11.962-1.293 7.079-1.479-2.279-1.478 1.628-1.479 6.265-1.294-.57-1.478 5.533-1.479 2.442-1.294-1.14-1.478-1.383-1.479.407-1.294 1.22-1.478-2.278-1.479-.325-1.478 3.417-1.294 4.231-1.479-4.475-1.478-1.058-1.294.082-1.479.57-1.478 8.462-1.479-.163-1.294 1.546-1.478-.977-1.479-1.464-1.096 3.447m-.198.621l.197-.62-.963.114zm-.766-.506l-.713-.47-1.479.732m284.814-34.012l-1.479-2.116-1.294 2.035-.36.455m-1.118 1.416l1.119-1.416-1.513.18zm49.902-11.554l1.294-.977.969-.373-3.086.716zm-45.651 9.764l1.478.407 1.294-.081 1.478-.489.35-.904m44.16-10.243h1.142l1.294 1.302 1.478 1.383 1.48-.732 1.293.732 1.332-4.545m84.241-19.54l-1.478-.407-1.479.651-1.294-.488-1.478 1.302-1.479.081-1.479.163-1.293.65-1.479.082-1.478-.244-1.294-.081h-1.479l-1.478.325-1.294-.325-1.479-.489-1.478.163-1.479 1.872-1.294.162-1.478.082-1.479-.082-1.294-.732-1.478.244-1.479.651-1.294-.57-1.478 3.58-1.479-.894-1.479.244h-1.293l-1.479-.407-1.478.57-1.294-.57-1.479-1.383-1.478 1.22-1.479.651-1.294.57-1.478-.244-1.479 1.058-1.294 1.627-1.478-2.522-1.479.244-1.294 2.278-1.478.976-1.479.244-1.478-.162-1.294-.082-1.479-.895-1.478-.65h-1.294l-1.479 1.87-1.478-.08h-1.479l-1.294.08-1.478 1.628-1.479.326-1.294.08h-1.478l-1.479-.487-1.293 2.44-1.479 1.628-1.479 3.092-.146.5m-11.951 2.772l-.655-.505-1.48-1.628-1.478.326-1.293-.488-1.479-1.79-1.479-2.197-1.293.976-1.479-2.116-1.479 2.685-1.478-1.22-1.294 2.197-1.479-2.93-1.478-.488-1.294-1.22-1.478.976-1.48.407-1.293-1.058-1.478-2.36-1.48 5.371-1.478-3.417-1.293 5.533-1.479 2.522-1.479.488-1.293-.244-1.479 4.231-1.479 1.14-1.293.488-1.479.732-1.129 2.92m43.314-10.047l.846-.196h-.337z"/></g><defs><path id="id-1228c" d="M.446 191.267h430.987v-73.062H.446v73.062z"/></defs><clipPath id="id-1229d"><use xlink:href="#id-1228c" overflow="visible"/></clipPath><path clip-path="url(#id-1229d)" fill="none" stroke="#6F9ED4" stroke-width="1.5" stroke-linecap="round" stroke-linejoin="round" stroke-miterlimit="10" d="M4.055 187.09l1.444 3.05 1.444-.133 1.444-.464 1.444.398 1.263-.597 1.444-.132 1.444 1.193 1.444-5.37 1.443-.332 1.444-1.127 1.444-1.26 1.444.663 1.263-.066 1.444-2.32 1.444.464 1.444-.53 1.444-.73 1.444-.928 1.443-.464 1.444-.133 1.444-2.055 1.263-2.122 1.444-.132 1.444-.067 1.444-.331 1.444-.663 1.444.331 1.444-.53 1.443-.663 1.444-2.188 1.264-1.06 1.443-.067 1.444-1.989 1.444-.398 1.444.663 1.444-.464 1.444.928 1.444-.663 1.443-1.127 1.264-.862 1.444-1.392 1.443 1.127 1.444-.398 1.444-.397 1.444-.133 1.444 1.525 1.444-.265 1.443-.398 1.264.53 1.444-.398 1.443 1.26 1.444-.597 1.444-.066 1.444-1.127 1.444-1.193 1.444 1.127 1.263.132 1.444 1.061 1.444-.199 1.444.464 1.444.332 1.443-.332 1.444-.132 1.444-.133 1.444-1.06 1.263.53 1.444.663 1.444 1.657 1.444-.663 1.444-.795 1.443-.398 1.444-.597 1.444.597 1.444-.265 1.263.596 1.444-.265 1.444.597 1.444.265 1.444.597 1.443 1.326 1.444.795 1.444-1.193 1.444-.53 1.263.464 1.444-.067 1.444-.199 1.444 1.194 1.444 2.585 1.444-.795 1.444-1.923 1.443 2.52 1.444-.266 1.264-.596 1.443-5.04 1.444-.264 1.444-1.459 1.444-1.392 1.444.795 1.444-.331 1.443-1.26 1.264-.862 1.444-5.171 1.443-.73h1.444l1.444.597 1.444-2.121 1.444-3.912 1.444 5.57 1.444-2.387 1.263 1.193 1.444-3.182 1.444.795 1.443 2.387 1.444-1.392 1.444-4.442 1.444-5.437 1.444-2.122 1.444 3.58 1.263-.066 1.444 2.785 1.444-.663 1.444 2.387 1.443-.067 1.444-.928 1.444-.066 1.444-.332 1.444 2.387 1.263-.464 1.444 2.387 1.444-.995 1.444-.132 1.444-2.586 1.443 1.193 1.444 1.79 1.444.2 1.444-.2 1.263 1.194 1.444.53 1.444-.53 1.444.862 1.444-.265 1.443-.53 1.444-.399 1.444-.066 1.263-.331 1.444.397 1.444 1.592 1.444-.133 1.444-.597 1.444.597 1.444-.464 1.443 2.254 1.444 1.127 1.264 1.127 1.443 2.122 1.444-.265 1.444.331 1.444.73 1.444-.133 1.444 1.326 1.443-1.26 1.444.796 1.264-.265 1.444.265 1.443 3.779 1.444 1.657h1.444l1.444-.066 1.444-1.193 1.444-.2 1.443 1.923 1.264-.596 1.444.265 1.443.398 1.444-.597 1.444 1.06h1.444l1.444 1.194 1.444-.132h1.444l1.263-1.326 1.444 1.856 1.444 1.591 1.443.73 1.444.795 1.444-.332 1.444.398 1.444-.066 1.444-1.326 1.263-5.039 1.444 1.591 1.444-.729 1.444 3.514 1.443-.464 1.444-1.392 1.444-1.127 1.444-4.177 1.263-.133 1.444.199h1.444m0 0h2.888l1.443-.133h1.444l1.444 1.326 1.444.995 1.263.066h2.888l1.444 2.122 1.444-.133h1.444l1.443.2 1.444.198 1.444 3.116h1.263l1.444 1.326 1.444-.464 1.444.53 1.444-.398 1.444-1.657 1.444.464h1.443l1.444 1.392 1.264-2.85 1.443 2.188 1.444-.067 1.444-.928 1.444-.199 1.444.133 1.444-2.254 1.444-2.52 1.443-1.724 1.264-.132 1.444-1.127 1.443-1.79 1.444.795 1.444-1.459 1.444-.861 1.444 8.552 1.444-2.387 1.263-1.127 1.444 1.592 1.444-.862 1.443-2.719 1.444.597 1.444-2.85 1.444-11.868 1.444-.332 1.444-1.591 1.263 1.525 1.444 4.707 1.444-3.646 1.444-.53 1.443-1.923 1.444-11.006 1.444 2.32 1.444-.397 1.444 2.254 1.263-.796 1.444-1.79 1.444-1.326 1.444-2.254 1.444-1.79h1.443l1.444-.53 1.444 1.458 1.444-1.724 1.263.332 1.444-.2h1.444l1.444.664 1.444-1.724 1.443-.066 1.444 5.635 1.444 5.636 1.444.199 1.263-2.387h1.444l1.444-9.879 1.444-.597 1.444.929 1.444 1.989 1.443-5.37 1.444-1.857 1.264 1.326 1.443 1.591 1.444-.398 1.444-.596 1.444 1.458 1.444-.132 1.444-.266 1.444-1.856 1.443 6.166 1.264-.398 1.444-5.039 1.443-.928 1.444-2.055 1.444 1.79"/></svg>