<svg xmlns="http://www.w3.org/2000/svg" xmlns:xlink="http://www.w3.org/1999/xlink" viewBox="0 0 459.085 217.155"><defs><path id="id-16a" d="M0 117.651h43.75v75.915H0z"/></defs><clipPath id="id-17b"><use xlink:href="#id-16a" overflow="visible"/></clipPath><g clip-path="url(#id-17b)" fill="none" stroke="#F59900" stroke-width="1.5" stroke-linecap="round" stroke-linejoin="round" stroke-miterlimit="10"><path d="M2.74 139.639l1.854-7.91 1.853 10.786 1.852-43.143 1.853 15.819 1.853 10.067 1.853-16.538 1.668 1.438 1.853-89.16 1.853-5.753 1.852-1.438 1.853 11.505 1.853 47.456 1.853-44.58 1.853-36.671 1.668 3.596 1.853 23.727 1.852-12.223 1.853-5.033 1.853 14.38 1.853 12.224 1.853-25.885 1.668-58.242 1.853 5.752 1.852-66.151 1.853-17.257 1.853 23.728 1.853-74.06 1.853-127.27 1.853 78.375 1.667-17.257 1.853 57.523 1.853 33.795 1.853-14.381 1.853-40.985 1.853 67.59 1.853-28.762 1.853 69.027 1.667 31.638 1.853 5.752L75.93-25.02l1.853-35.952 1.853 39.547 1.853 2.157 1.853-38.828 1.667-35.233 1.853 22.29 1.853-28.043 1.853-7.19 1.853 43.142 1.853 12.943 1.853-11.504 1.853 29.48 1.667 5.033L101.5-9.921h1.853l1.853-.72 1.853-33.074 1.853-40.986 1.853-38.827 1.853-2.877 1.667-31.637 1.853 50.332 1.853-26.604 1.853 1.438 1.853-74.78 1.853 5.034 1.853 2.876 1.667-30.2 1.853 27.324 1.853 30.918 1.853 20.853 1.853-1.44 1.853-12.941 1.853 15.1 1.852-27.324 1.668-6.471 1.853-24.448 1.853-30.918 1.853 15.1 1.853-81.97 1.852-26.605 1.853 7.19 1.853-15.099 1.668 29.48 1.853 38.829 1.853-69.747h1.853l1.852-11.505 1.853 32.357 1.853 9.348 1.668-22.29 1.853 8.628 1.853 10.785 1.853 83.408 1.852-3.595 1.853 7.91 1.853 26.604 1.853-23.009 1.668-15.1 1.853 20.852 1.853 7.19 1.852 33.076 1.853 2.157 1.853-7.91 1.853 11.505 1.853 42.423 1.668-64.713 1.853 43.143 1.852-30.2 1.853 32.357 1.853-3.596 1.853-9.347 1.853-7.91 1.668 7.91 1.853 25.166 1.852-15.82 1.853 5.035 1.853-5.034 1.853-18.695 1.853-7.19 1.853 7.19 1.668-15.1 1.852-48.894 1.853 2.876 1.853 18.695 1.853-4.314 1.853-10.786 1.853-12.942 1.853-18.695 1.667 13.661 1.853-.719 1.853 17.976 1.853-6.47 1.853-33.795 1.853-49.614 1.853 7.91 1.667-8.629 1.853-11.504 1.853-.72 1.853-25.885 1.853 38.828 1.853-9.347 1.853 10.785 1.853 2.157 1.667 11.505 1.853 8.629 1.853-17.257 1.853 12.942 1.853 2.157 1.853 5.753 1.853-9.348 1.667-5.033 1.853-83.409 1.853 17.976 1.853-36.67 1.853-35.233 1.853 45.3 1.853-30.92 1.853 14.382 1.667-1.438 1.853 30.198 1.853 6.472 1.853.72 1.853-3.596 1.853-82.689 1.853 23.728 1.852-.72 1.668 15.1 1.853-30.918 1.853 6.472 1.853-35.233 1.853 51.052 1.853 27.323 1.852-5.752 1.668 35.951 1.853-10.067 1.853 10.067 1.853-2.876 1.853 8.628L332-352.182l1.852-10.785 1.853 1.438 1.668-43.861 1.853 14.38 1.853-17.975 1.853-5.033 1.853 5.033 1.852 14.38 1.853 46.019 1.853 52.489 1.668 10.067 1.853 8.628 1.853-3.595 1.852 6.471 1.853-5.752 1.853 29.48 1.853 48.895 1.668-20.133 1.853-20.853 1.853 22.291m.001 0l1.852 4.314 1.853-1.438 1.853-4.314 1.853-40.266 1.853-8.628 1.668-4.315 1.853-12.942 1.852-45.3 1.853 2.877 1.853-4.315 1.853-27.323 1.853-58.96 1.853 36.67 1.668-57.523 1.852 25.167 1.853 11.504 1.853-4.314 1.853-10.786 1.853 13.662 1.853 5.033 1.668 30.918 1.852-23.728 1.853 13.662 1.853-28.761 1.853 22.29 1.853-10.067 1.853 23.728 1.853 18.695 1.667 5.033 1.853-3.595 1.853 17.257 1.853 12.224 1.853-10.067"/></g><defs><path id="id-18c" d="M1.667 41.723h428.666v75.928H1.667z"/></defs><clipPath id="id-19d"><use xlink:href="#id-18c" overflow="visible"/></clipPath><g clip-path="url(#id-19d)" fill="none" stroke="#F59900" stroke-width="1.5" stroke-linecap="round" stroke-linejoin="round" stroke-miterlimit="10"><path d="M2.74 120.091l1.854-.878 1.853 1.197 1.852-4.788 1.853 1.756 1.853 1.117 1.853-1.836 1.668.16 1.853-9.896 1.853-.638 1.852-.16 1.853 1.277 1.853 5.267 1.853-4.948 1.853-4.07 1.668.4 1.853 2.633 1.852-1.357 1.853-.558 1.853 1.596 1.853 1.356 1.853-2.873 1.668-6.464 1.853.639 1.852-7.343 1.853-1.915L50.36 92.4l1.853-8.22 1.853-14.126 1.853 8.7 1.667-1.916 1.853 6.384 1.853 3.751 1.853-1.596 1.853-4.549 1.853 7.502 1.853-3.193 1.853 7.662 1.667 3.511 1.853.639 1.853 4.868 1.853-3.99 1.853 4.389 1.853.24 1.853-4.31 1.667-3.91 1.853 2.473 1.853-3.112 1.853-.798 1.853 4.788 1.853 1.437 1.853-1.277 1.853 3.272 1.667.558 1.853 1.916h1.853l1.853-.08 1.853-3.671 1.853-4.55 1.853-4.309 1.853-.319 1.667-3.511 1.853 5.586 1.853-2.953 1.853.16 1.853-8.3 1.853.559 1.853.32 1.667-3.353 1.853 3.033 1.853 3.431 1.853 2.315 1.853-.16 1.853-1.436 1.853 1.676 1.852-3.033 1.668-.718 1.853-2.714 1.853-3.431 1.853 1.676 1.853-9.098 1.852-2.953 1.853.798 1.853-1.676 1.668 3.272 1.853 4.31 1.853-7.741h1.853l1.852-1.277 1.853 3.591 1.853 1.038 1.668-2.474 1.853.957 1.853 1.197 1.853 9.258 1.852-.4 1.853.879 1.853 2.952 1.853-2.553 1.668-1.676 1.853 2.314 1.853.798 1.852 3.671 1.853.24 1.853-.878 1.853 1.276 1.853 4.709 1.668-7.182 1.853 4.788 1.852-3.352 1.853 3.591 1.853-.399 1.853-1.037 1.853-.878 1.668.878 1.853 2.793 1.852-1.756 1.853.559 1.853-.559 1.853-2.075 1.853-.798 1.853.798 1.668-1.676 1.852-5.426 1.853.319 1.853 2.075 1.853-.479 1.853-1.197 1.853-1.437 1.853-2.075 1.667 1.517 1.853-.08 1.853 1.995 1.853-.718 1.853-3.75 1.853-5.508 1.853.878 1.667-.957 1.853-1.277 1.853-.08 1.853-2.873 1.853 4.31 1.853-1.038 1.853 1.197 1.853.24 1.667 1.276 1.853.958 1.853-1.915 1.853 1.436 1.853.24 1.853.638 1.853-1.037 1.667-.559 1.853-9.257 1.853 1.995 1.853-4.07 1.853-3.91 1.853 5.027 1.853-3.432 1.853 1.596 1.667-.16 1.853 3.353 1.853.718 1.853.08 1.853-.4 1.853-9.177 1.853 2.634 1.852-.08 1.668 1.676 1.853-3.432 1.853.718 1.853-3.91 1.853 5.666 1.853 3.033 1.852-.639 1.668 3.99 1.853-1.117 1.853 1.118 1.853-.32 1.853.958L332 65.504l1.852-1.197 1.853.16 1.668-4.868 1.853 1.596 1.853-1.995 1.853-.559 1.853.559 1.852 1.596 1.853 5.108 1.853 5.825 1.668 1.118 1.853.957 1.853-.399 1.852.718 1.853-.638 1.853 3.272 1.853 5.427 1.668-2.235 1.853-2.314 1.853 2.474m.001 0l1.852.479 1.853-.16 1.853-.479 1.853-4.469 1.853-.958 1.668-.478 1.853-1.437 1.852-5.028 1.853.32 1.853-.48 1.853-3.032 1.853-6.544 1.853 4.07 1.668-6.384 1.852 2.793 1.853 1.277 1.853-.479 1.853-1.197 1.853 1.516 1.853.559 1.668 3.432 1.852-2.634 1.853 1.516 1.853-3.192 1.853 2.474 1.853-1.117 1.853 2.633 1.853 2.075 1.667.559 1.853-.4 1.853 1.916 1.853 1.357 1.853-1.117"/></g><path d="M2.777 188.4l1.81 3.788 1.811-.137 1.81-.62 1.992.55 1.81-.757 1.81-.138 1.811 1.447 1.81-6.614 1.81-.482 1.811-1.378 1.81-1.584 1.811.827 1.992-.07 1.81-2.892 1.81.55 1.81-.62 1.811-.964 1.81-1.102 1.81-.62 1.811-.138 1.81-2.549 1.811-2.686 1.992-.138 1.81-.138 1.81-.344 1.81-.896 1.811.413 1.81-.62 1.81-.826 1.811-2.756 1.81-1.309 1.811-.069 1.991-2.48 1.81-.55 1.811.895 1.81-.551 1.811 1.17 1.81-.826 1.81-1.446 1.811-1.034 1.81-1.79 1.992 1.377 1.81-.482 1.81-.551 1.811-.07 1.81 1.86 1.811-.344 1.81-.482 1.81.689 1.811-.482 1.81 1.515 1.992-.689 1.81-.137 1.81-1.378 1.811-1.447 1.81 1.378 1.811.138 1.81 1.378 1.81-.276 1.811.551 1.81.413 1.992-.413 1.81-.138 1.81-.206 1.811-1.24 1.81.62 1.81.757 1.811 2.136 1.81-.896 1.811-.964 1.992-.413 1.81-.758 1.81.689 1.81-.345 1.811.758 1.81-.275 1.81.757 1.811.276 1.81.758 1.811 1.653 1.991.964 1.81-1.446 1.811-.69 1.81.62 1.811-.137 1.81-.207 1.81 1.447 1.811 3.238 1.81-1.034 1.811-2.342 1.991 3.1 1.81-.344 1.811-.69 1.81-6.268 1.811-.344 1.81-1.86 1.81-1.723 1.811 1.034 1.81-.414 1.811-1.584 1.991-1.102 1.81-6.476 1.811-.826h1.81l1.811.688 1.81-2.617 1.81-4.891 1.811 6.957 1.81-3.03 1.992 1.515 1.81-3.927 1.81.965 1.811 2.962 1.81-1.722 1.81-5.512 1.811-6.82 1.81-2.617 1.811 4.478 1.81-.07 1.992 3.376 1.81-.758 1.81 2.963 1.811-.138 1.81-1.102 1.81-.138 1.811-.345 1.81 2.963 1.811-.62 1.81 3.03 1.992-1.308 1.81-.07 1.81-3.306 1.811 1.516 1.81 2.204 1.81.276 1.811-.276 1.81 1.585 1.811.62 1.991-.62 1.81 1.033 1.811-.344 1.81-.69 1.811-.482 1.81-.137 1.81-.345 1.811.551 1.81 1.998 1.811-.275 1.991-.69 1.81.758 1.811-.62 1.81 2.825 1.811 1.378 1.81 1.446 1.81 2.618 1.811-.275 1.81.344 1.81.964 1.992-.206 1.81 1.722 1.811-1.653 1.81 1.033 1.811-.344 1.81.344 1.81 4.753 1.811 2.067h1.81l1.992-.138 1.81-1.447 1.81-.275 1.811 2.411 1.81-.758 1.81.276 1.811.482 1.81-.689 1.811 1.378 1.81-.069 1.992 1.447 1.81-.138h1.81l1.811-1.585 1.81 2.274 1.81 1.998 1.811.895 1.81.965 1.811-.345 1.81.482 1.992-.137 1.81-1.654 1.81-6.2 1.811 1.93 1.81-.896 1.81 4.34 1.811-.552 1.81-1.722 1.811-1.378 1.991-5.304 1.81-.138 1.811.276h1.81m.001 0h3.62l1.81-.207 1.811.069 1.81 1.584 1.811 1.31 1.991.068h3.621l1.81 2.618 1.811-.138h1.81l1.81.207 1.811.344 1.81 3.79h1.81l1.992 1.653 1.81-.552 1.811.69 1.81-.552 1.81-1.998 1.811.552h1.81l1.811 1.722 1.81-3.582 1.992 2.755 1.81-.138 1.81-1.102 1.811-.207 1.81.138 1.81-2.755 1.811-3.17 1.81-10.844" fill="none" stroke="#6E9ED4" stroke-width="1.5" stroke-linecap="round" stroke-linejoin="round" stroke-miterlimit="10"/></svg>