<svg xmlns="http://www.w3.org/2000/svg" xmlns:xlink="http://www.w3.org/1999/xlink" viewBox="0 0 481.313 288.298"><defs><path id="id-438a" d="M13.857 51.8v97.335c21.727 0 41.98-14.468 85.435-14.468 31.616 0 44.93 7.968 88.407 7.968 43.433 0 88.026-15.463 130.344-15.463 63.85 0 130.366 8.497 130.366 8.497V51.8H13.857z"/></defs><clipPath id="id-439b"><use xlink:href="#id-438a" overflow="visible"/></clipPath><g clip-path="url(#id-439b)" fill="none" stroke="#E3E3E3" stroke-width=".35" stroke-miterlimit="10"><path d="M13.857 80.09h43.455v4.715H13.857zm0-4.715h43.455v4.715H13.857zm0-4.715h43.455v4.715H13.857zm0-9.43h43.455v4.715H13.857z"/><path d="M13.857 56.515h43.455v4.715H13.857zm0-4.715h43.455v4.715H13.857zm0 14.145h43.455v4.715H13.857zM57.312 80.09h43.455v4.715H57.312zm0-4.715h43.455v4.715H57.312zm0-4.715h43.455v4.715H57.312zm0-9.43h43.455v4.715H57.312z"/><path d="M57.312 56.515h43.455v4.715H57.312zm0-4.715h43.455v4.715H57.312zm0 14.145h43.455v4.715H57.312zm43.455 14.145h43.455v4.715h-43.455zm0-4.715h43.455v4.715h-43.455zm0-4.715h43.455v4.715h-43.455z"/><path d="M100.767 61.23h43.455v4.715h-43.455z"/><path d="M100.767 56.515h43.455v4.715h-43.455zm0-4.715h43.455v4.715h-43.455zm0 14.145h43.455v4.715h-43.455zm43.455 14.145h43.455v4.715h-43.455zm0-4.715h43.455v4.715h-43.455zm0-4.715h43.455v4.715h-43.455zm0-9.43h43.455v4.715h-43.455z"/><path d="M144.222 56.515h43.455v4.715h-43.455zm0-4.715h43.455v4.715h-43.455zm0 14.145h43.455v4.715h-43.455zm43.456 14.145h43.455v4.715h-43.455zm0-4.715h43.455v4.715h-43.455zm0-4.715h43.455v4.715h-43.455zm0-9.43h43.455v4.715h-43.455z"/><path d="M187.678 56.515h43.455v4.715h-43.455zm0-4.715h43.455v4.715h-43.455zm0 14.145h43.455v4.715h-43.455zm43.455 14.145h43.455v4.715h-43.455zm0-4.715h43.455v4.715h-43.455zm0-4.715h43.455v4.715h-43.455zm0-9.43h43.455v4.715h-43.455z"/><path d="M231.133 56.515h43.455v4.715h-43.455zm0-4.715h43.455v4.715h-43.455zm0 14.145h43.455v4.715h-43.455zm43.455 14.145h43.455v4.715h-43.455zm0-4.715h43.455v4.715h-43.455zm0-4.715h43.455v4.715h-43.455zm0-9.43h43.455v4.715h-43.455z"/><path d="M274.588 56.515h43.455v4.715h-43.455zm0-4.715h43.455v4.715h-43.455zm0 14.145h43.455v4.715h-43.455zm43.455 14.145h43.455v4.715h-43.455zm0-4.715h43.455v4.715h-43.455zm0-4.715h43.455v4.715h-43.455zm0-9.43h43.455v4.715h-43.455z"/><path d="M318.043 56.515h43.455v4.715h-43.455zm0-4.715h43.455v4.715h-43.455zm0 14.145h43.455v4.715h-43.455zm43.455 14.145h43.455v4.715h-43.455zm0-4.715h43.455v4.715h-43.455zm0-4.715h43.455v4.715h-43.455zm0-9.43h43.455v4.715h-43.455z"/><path d="M361.498 56.515h43.455v4.715h-43.455zm0-4.715h43.455v4.715h-43.455zm0 14.145h43.455v4.715h-43.455zm43.455 14.145h43.455v4.715h-43.455zm0-4.715h43.455v4.715h-43.455zm0-4.715h43.455v4.715h-43.455zm0-9.43h43.455v4.715h-43.455z"/><path d="M404.953 56.515h43.455v4.715h-43.455zm0-4.715h43.455v4.715h-43.455zm0 14.145h43.455v4.715h-43.455zM13.857 113.092h43.455v4.715H13.857zm0-4.715h43.455v4.715H13.857z"/><path d="M13.857 103.662h43.455v4.715H13.857zm0-9.43h43.455v4.715H13.857zm0-4.715h43.455v4.715H13.857z"/><path d="M13.857 84.802h43.455v4.715H13.857zm0 14.145h43.455v4.715H13.857zm43.455 14.145h43.455v4.715H57.312zm0-4.715h43.455v4.715H57.312z"/><path d="M57.312 103.662h43.455v4.715H57.312zm0-9.43h43.455v4.715H57.312zm0-4.715h43.455v4.715H57.312z"/><path d="M57.312 84.802h43.455v4.715H57.312zm0 14.145h43.455v4.715H57.312zm43.455 14.145h43.455v4.715h-43.455zm0-4.715h43.455v4.715h-43.455z"/><path d="M100.767 103.662h43.455v4.715h-43.455zm0-9.43h43.455v4.715h-43.455zm0-4.715h43.455v4.715h-43.455z"/><path d="M100.767 84.802h43.455v4.715h-43.455zm0 14.145h43.455v4.715h-43.455zm43.455 14.145h43.455v4.715h-43.455zm0-4.715h43.455v4.715h-43.455z"/><path d="M144.222 103.662h43.455v4.715h-43.455zm0-9.43h43.455v4.715h-43.455zm0-4.715h43.455v4.715h-43.455z"/><path d="M144.222 84.802h43.455v4.715h-43.455zm0 14.145h43.455v4.715h-43.455zm43.456 14.145h43.455v4.715h-43.455zm0-4.715h43.455v4.715h-43.455z"/><path d="M187.678 103.662h43.455v4.715h-43.455zm0-9.43h43.455v4.715h-43.455zm0-4.715h43.455v4.715h-43.455z"/><path d="M187.678 84.802h43.455v4.715h-43.455zm0 14.145h43.455v4.715h-43.455zm43.455 14.145h43.455v4.715h-43.455zm0-4.715h43.455v4.715h-43.455z"/><path d="M231.133 103.662h43.455v4.715h-43.455zm0-9.43h43.455v4.715h-43.455zm0-4.715h43.455v4.715h-43.455z"/><path d="M231.133 84.802h43.455v4.715h-43.455zm0 14.145h43.455v4.715h-43.455zm43.455 14.145h43.455v4.715h-43.455zm0-4.715h43.455v4.715h-43.455z"/><path d="M274.588 103.662h43.455v4.715h-43.455zm0-9.43h43.455v4.715h-43.455zm0-4.715h43.455v4.715h-43.455z"/><path d="M274.588 84.802h43.455v4.715h-43.455zm0 14.145h43.455v4.715h-43.455zm43.455 14.145h43.455v4.715h-43.455zm0-4.715h43.455v4.715h-43.455z"/><path d="M318.043 103.662h43.455v4.715h-43.455zm0-9.43h43.455v4.715h-43.455zm0-4.715h43.455v4.715h-43.455z"/><path d="M318.043 84.802h43.455v4.715h-43.455zm0 14.145h43.455v4.715h-43.455zm43.455 14.145h43.455v4.715h-43.455zm0-4.715h43.455v4.715h-43.455z"/><path d="M361.498 103.662h43.455v4.715h-43.455zm0-9.43h43.455v4.715h-43.455zm0-4.715h43.455v4.715h-43.455z"/><path d="M361.498 84.802h43.455v4.715h-43.455zm0 14.145h43.455v4.715h-43.455zm43.455 14.145h43.455v4.715h-43.455zm0-4.715h43.455v4.715h-43.455z"/><path d="M404.953 103.662h43.455v4.715h-43.455zm0-9.43h43.455v4.715h-43.455zm0-4.715h43.455v4.715h-43.455z"/><path d="M404.953 84.802h43.455v4.715h-43.455zm0 14.145h43.455v4.715h-43.455zm-391.096 47.15h43.455v4.715H13.857zm0-4.715h43.455v4.715H13.857zm0-4.715h43.455v4.715H13.857zm0-9.43h43.455v4.715H13.857z"/><path d="M13.857 122.522h43.455v4.715H13.857zm0-4.715h43.455v4.715H13.857zm0 14.145h43.455v4.715H13.857zm43.455 14.145h43.455v4.715H57.312zm0-4.715h43.455v4.715H57.312zm0-4.715h43.455v4.715H57.312zm0-9.43h43.455v4.715H57.312z"/><path d="M57.312 122.522h43.455v4.715H57.312zm0-4.715h43.455v4.715H57.312zm0 14.145h43.455v4.715H57.312zm43.455 14.145h43.455v4.715h-43.455zm0-4.715h43.455v4.715h-43.455zm0-4.715h43.455v4.715h-43.455z"/><path d="M100.767 127.237h43.455v4.715h-43.455z"/><path d="M100.767 122.522h43.455v4.715h-43.455zm0-4.715h43.455v4.715h-43.455zm0 14.145h43.455v4.715h-43.455zm43.455 14.145h43.455v4.715h-43.455zm0-4.715h43.455v4.715h-43.455zm0-4.715h43.455v4.715h-43.455zm0-9.43h43.455v4.715h-43.455z"/><path d="M144.222 122.522h43.455v4.715h-43.455zm0-4.715h43.455v4.715h-43.455zm0 14.145h43.455v4.715h-43.455zm43.456 14.145h43.455v4.715h-43.455zm0-4.715h43.455v4.715h-43.455zm0-4.715h43.455v4.715h-43.455zm0-9.43h43.455v4.715h-43.455z"/><path d="M187.678 122.522h43.455v4.715h-43.455zm0-4.715h43.455v4.715h-43.455zm0 14.145h43.455v4.715h-43.455zm43.455 14.145h43.455v4.715h-43.455zm0-4.715h43.455v4.715h-43.455zm0-4.715h43.455v4.715h-43.455zm0-9.43h43.455v4.715h-43.455z"/><path d="M231.133 122.522h43.455v4.715h-43.455zm0-4.715h43.455v4.715h-43.455zm0 14.145h43.455v4.715h-43.455zm43.455 14.145h43.455v4.715h-43.455zm0-4.715h43.455v4.715h-43.455zm0-4.715h43.455v4.715h-43.455zm0-9.43h43.455v4.715h-43.455z"/><path d="M274.588 122.522h43.455v4.715h-43.455zm0-4.715h43.455v4.715h-43.455zm0 14.145h43.455v4.715h-43.455zm43.455 14.145h43.455v4.715h-43.455zm0-4.715h43.455v4.715h-43.455zm0-4.715h43.455v4.715h-43.455zm0-9.43h43.455v4.715h-43.455z"/><path d="M318.043 122.522h43.455v4.715h-43.455zm0-4.715h43.455v4.715h-43.455zm0 14.145h43.455v4.715h-43.455zm43.455 14.145h43.455v4.715h-43.455zm0-4.715h43.455v4.715h-43.455zm0-4.715h43.455v4.715h-43.455zm0-9.43h43.455v4.715h-43.455z"/><path d="M361.498 122.522h43.455v4.715h-43.455zm0-4.715h43.455v4.715h-43.455zm0 14.145h43.455v4.715h-43.455zm43.455 14.145h43.455v4.715h-43.455zm0-4.715h43.455v4.715h-43.455zm0-4.715h43.455v4.715h-43.455zm0-9.43h43.455v4.715h-43.455z"/><path d="M404.953 122.522h43.455v4.715h-43.455zm0-4.715h43.455v4.715h-43.455zm0 14.145h43.455v4.715h-43.455z"/></g><use xlink:href="#id-438a" overflow="visible" fill="none" stroke="#E3E3E3" stroke-width=".35" stroke-miterlimit="10"/><text transform="translate(458.793 263.558)" fill="#ECECEC" font-family="'Roboto'" font-size="8">0</text><text transform="matrix(.95 0 0 1 .033 277.143)"><tspan x="0" y="0" fill="#ECECEC" font-family="'Roboto'" font-size="8">January </tspan><tspan x="5.543" y="8.987" fill="#ECECEC" font-family="'Roboto'" font-size="8">2017</tspan></text><text transform="matrix(.95 0 0 1 46.443 277.143)" fill="#ECECEC" font-family="'Roboto'" font-size="8">March</text><text transform="matrix(.95 0 0 1 93.466 277.143)" fill="#ECECEC" font-family="'Roboto'" font-size="8">May</text><text transform="matrix(.95 0 0 1 137.11 277.143)" fill="#ECECEC" font-family="'Roboto'" font-size="8">July</text><text transform="matrix(.95 0 0 1 307.173 277.143)" fill="#ECECEC" font-family="'Roboto'" font-size="8">March</text><text transform="matrix(.95 0 0 1 354.197 277.143)" fill="#ECECEC" font-family="'Roboto'" font-size="8">May</text><text transform="matrix(.95 0 0 1 397.84 277.143)" fill="#ECECEC" font-family="'Roboto'" font-size="8">July</text><text transform="matrix(.95 0 0 1 429.867 277.143)"><tspan x="0" y="0" fill="#ECECEC" font-family="'Roboto'" font-size="8">September </tspan><tspan x="10.51" y="8.987" fill="#ECECEC" font-family="'Roboto'" font-size="8">2018</tspan></text><text transform="translate(13.856 13.696)"><tspan x="0" y="0" fill="#ECECEC" font-family="'DIN Pro'" font-size="16">Graph</tspan><tspan x="0" y="18.729" fill="#F59900" font-family="'Roboto'" font-size="12">°</tspan><tspan x="4.471" y="15.729" fill="#F59900" font-family="'Roboto'" font-size="12"> Bitc</tspan><tspan x="28.43" y="15.729" fill="#F59900" font-family="'Roboto'" font-size="12">o</tspan><tspan x="35.25" y="15.729" fill="#F59900" font-family="'Roboto'" font-size="12">in </tspan><tspan x="51.059" y="15.729" fill="#D9DADA" font-family="'Roboto'" font-size="12"> </tspan><tspan x="54.041" y="18.729" fill="#6E9ED4" font-family="'Roboto'" font-size="12">°</tspan><tspan x="58.512" y="15.729" fill="#6E9ED4" font-family="'Roboto'" font-size="12"> Dash</tspan><tspan x="89.314" y="15.729" fill="#D9DADA" font-family="'Roboto'" font-size="12"> </tspan><tspan x="98.262" y="18.729" fill="#2DB7BC" font-family="'Roboto'" font-size="12">°</tspan><tspan x="102.732" y="15.729" fill="#2DB7BC" font-family="'Roboto'" font-size="12"> Etherium</tspan><tspan x="154.014" y="15.729" fill="#D9DADA" font-family="'Roboto'" font-size="12"> </tspan><tspan x="162.961" y="18.729" fill="#94A6B0" font-family="'Roboto'" font-size="12">°</tspan><tspan x="167.432" y="15.729" fill="#94A6B0" font-family="'Roboto'" font-size="12"> Litecoin </tspan><tspan x="222.252" y="18.729" fill="#816070" font-family="'Roboto'" font-size="12">°</tspan><tspan x="226.723" y="15.729" fill="#816070" font-family="'Roboto'" font-size="12"> NEM</tspan></text><text transform="matrix(.95 0 0 1 168.532 277.144)" fill="#ECECEC" font-family="'Roboto'" font-size="8">September</text><text transform="matrix(.95 0 0 1 212.956 277.143)" fill="#ECECEC" font-family="'Roboto'" font-size="8">November</text><text transform="matrix(.95 0 0 1 260.085 277.143)"><tspan x="0" y="0" fill="#ECECEC" font-family="'Roboto'" font-size="8">January </tspan><tspan x="6.377" y="8.987" fill="#ECECEC" font-family="'Roboto'" font-size="8">2018</tspan></text><text transform="translate(458.793 194.88)" fill="#ECECEC" font-family="'Roboto'" font-size="8">500</text><text transform="translate(458.793 221.14)" fill="#ECECEC" font-family="'Roboto'" font-size="8">2</text><text transform="translate(458.793 242.206)" fill="#ECECEC" font-family="'Roboto'" font-size="8">1</text><text transform="translate(457.532 167.94)" fill="#ECECEC" font-family="'Roboto'" font-size="8">1000</text><text transform="translate(458.793 141.03)" fill="#ECECEC" font-family="'Roboto'" font-size="8">1500</text><text transform="translate(458.793 100.353)" fill="#ECECEC" font-family="'Roboto'" font-size="8">10000</text><text transform="translate(458.793 76.537)" fill="#ECECEC" font-family="'Roboto'" font-size="8">15000</text><text transform="translate(458.793 124.167)" fill="#ECECEC" font-family="'Roboto'" font-size="8">5000</text><text transform="translate(458.793 52.954)" fill="#ECECEC" font-family="'Roboto'" font-size="8">20000</text><text transform="translate(446.014 44.941)" fill="#ECECEC" font-family="'Roboto'" font-size="8">$</text><path fill="none" stroke="#E3E3E3" stroke-width=".247" stroke-miterlimit="10" d="M13.857 266.824v-5.512h43.455v5.512m0 0v-5.512h43.455v5.512m0 0v-5.512h43.455v5.512m0 0v-5.512h43.455v5.512m0 0v-5.512h43.455v5.512m0 0v-5.512h43.455v5.512m0 0v-5.512h43.455v5.512m0 0v-5.512h43.455v5.512m0 0v-5.512h43.456v5.512m0 0v-5.512h43.455v5.512"/><g fill="none" stroke="#E3E3E3" stroke-width=".35" stroke-miterlimit="10"><path d="M452.489 219.41h-4.08v-13.397m0 0v-13.397m2.956 0h-2.956v-13.398m0 0v-13.397m2.956 0h-2.956v-13.397m0 0v-13.397m0-4.715v-11.787h4.08"/><path d="M451.365 139.027h-2.956v-4.715m5.203-11.787h-5.203v-11.788m0 0V98.95h4.08m-4.08-11.788V75.375h4.08m1.123 0h-5.203V63.587m0 0V51.8h5.203m0 47.15h-5.203V87.162"/></g><defs><path id="id-440c" d="M448.408 220.7v9.944-91.617s-63.17-8.075-130.365-8.075c-48.935 0-100.005 15.145-130.366 15.145-43.455 0-43.455-7.262-88.12-7.262-42.245 0-64.412 13.59-85.7 13.59v66.985c173.82 0 239.29-5.699 260.731-5.699 63.545 0 146.526 6.988 173.82 6.988z"/></defs><clipPath id="id-441d"><use xlink:href="#id-440c" overflow="visible"/></clipPath><g clip-path="url(#id-441d)" fill="none" stroke="#E3E3E3" stroke-width=".35" stroke-miterlimit="10"><path d="M13.857 206.013h43.455v13.397H13.857zm0-13.397h43.455v13.397H13.857zm0-13.398h43.455v13.397H13.857zm0-13.397h43.455v13.397H13.857zm0-13.397h43.455v13.397H13.857zm0-13.397h43.455v13.397H13.857z"/></g><g clip-path="url(#id-441d)" fill="none" stroke="#E3E3E3" stroke-width=".35" stroke-miterlimit="10"><path d="M57.312 206.013h43.455v13.397H57.312zm0-13.397h43.455v13.397H57.312zm0-13.398h43.455v13.397H57.312zm0-13.397h43.455v13.397H57.312zm0-13.397h43.455v13.397H57.312zm0-13.397h43.455v13.397H57.312z"/></g><g clip-path="url(#id-441d)" fill="none" stroke="#E3E3E3" stroke-width=".35" stroke-miterlimit="10"><path d="M100.767 206.013h43.455v13.397h-43.455zm0-13.397h43.455v13.397h-43.455zm0-13.398h43.455v13.397h-43.455zm0-13.397h43.455v13.397h-43.455zm0-13.397h43.455v13.397h-43.455zm0-13.397h43.455v13.397h-43.455z"/></g><g clip-path="url(#id-441d)" fill="none" stroke="#E3E3E3" stroke-width=".35" stroke-miterlimit="10"><path d="M144.222 206.013h43.455v13.397h-43.455zm0-13.397h43.455v13.397h-43.455zm0-13.398h43.455v13.397h-43.455zm0-13.397h43.455v13.397h-43.455zm0-13.397h43.455v13.397h-43.455zm0-13.397h43.455v13.397h-43.455z"/></g><g clip-path="url(#id-441d)" fill="none" stroke="#E3E3E3" stroke-width=".35" stroke-miterlimit="10"><path d="M187.677 206.013h43.455v13.397h-43.455zm0-13.397h43.455v13.397h-43.455zm0-13.398h43.455v13.397h-43.455zm0-13.397h43.455v13.397h-43.455zm0-13.397h43.455v13.397h-43.455zm0-13.397h43.455v13.397h-43.455z"/></g><g clip-path="url(#id-441d)" fill="none" stroke="#E3E3E3" stroke-width=".35" stroke-miterlimit="10"><path d="M231.133 206.013h43.455v13.397h-43.455zm0-13.397h43.455v13.397h-43.455zm0-13.398h43.455v13.397h-43.455zm0-13.397h43.455v13.397h-43.455zm0-13.397h43.455v13.397h-43.455zm0-13.397h43.455v13.397h-43.455z"/></g><g clip-path="url(#id-441d)" fill="none" stroke="#E3E3E3" stroke-width=".35" stroke-miterlimit="10"><path d="M274.588 206.013h43.455v13.397h-43.455zm0-13.397h43.455v13.397h-43.455zm0-13.398h43.455v13.397h-43.455zm0-13.397h43.455v13.397h-43.455zm0-13.397h43.455v13.397h-43.455zm0-13.397h43.455v13.397h-43.455z"/></g><g clip-path="url(#id-441d)" fill="none" stroke="#E3E3E3" stroke-width=".35" stroke-miterlimit="10"><path d="M318.043 206.013h43.455v13.397h-43.455zm0-13.397h43.455v13.397h-43.455zm0-13.398h43.455v13.397h-43.455zm0-13.397h43.455v13.397h-43.455zm0-13.397h43.455v13.397h-43.455zm0-13.397h43.455v13.397h-43.455z"/></g><g clip-path="url(#id-441d)" fill="none" stroke="#E3E3E3" stroke-width=".35" stroke-miterlimit="10"><path d="M361.498 206.013h43.455v13.397h-43.455zm0-13.397h43.455v13.397h-43.455zm0-13.398h43.455v13.397h-43.455zm0-13.397h43.455v13.397h-43.455zm0-13.397h43.455v13.397h-43.455zm0-13.397h43.455v13.397h-43.455z"/></g><g clip-path="url(#id-441d)" fill="none" stroke="#E3E3E3" stroke-width=".35" stroke-miterlimit="10"><path d="M404.954 206.013h43.455v13.397h-43.455zm0-13.397h43.455v13.397h-43.455zm0-13.398h43.455v13.397h-43.455zm0-13.397h43.455v13.397h-43.455zm0-13.397h43.455v13.397h-43.455zm0-13.397h43.455v13.397h-43.455z"/></g><path clip-path="url(#id-441d)" fill="none" stroke="#E3E3E3" stroke-width=".35" stroke-miterlimit="10" d="M13.857 125.63h43.455v13.397H13.857z"/><path clip-path="url(#id-441d)" fill="none" stroke="#E3E3E3" stroke-width=".35" stroke-miterlimit="10" d="M13.857 112.233h43.455v13.397H13.857zm43.455 13.397h43.455v13.397H57.312zm0-13.397h43.455v13.397H57.312z"/><path clip-path="url(#id-441d)" fill="none" stroke="#E3E3E3" stroke-width=".35" stroke-miterlimit="10" d="M100.767 125.63h43.455v13.397h-43.455z"/><path clip-path="url(#id-441d)" fill="none" stroke="#E3E3E3" stroke-width=".35" stroke-miterlimit="10" d="M100.767 112.233h43.455v13.397h-43.455zm43.455 13.397h43.455v13.397h-43.455zm0-13.397h43.455v13.397h-43.455zm43.455 13.397h43.455v13.397h-43.455zm0-13.397h43.455v13.397h-43.455zm43.456 13.397h43.455v13.397h-43.455zm0-13.397h43.455v13.397h-43.455zm43.455 13.397h43.455v13.397h-43.455zm0-13.397h43.455v13.397h-43.455zm43.455 13.397h43.455v13.397h-43.455zm0-13.397h43.455v13.397h-43.455zm43.455 13.397h43.455v13.397h-43.455zm0-13.397h43.455v13.397h-43.455zm43.456 13.397h43.455v13.397h-43.455zm0-13.397h43.455v13.397h-43.455z"/><use xlink:href="#id-440c" overflow="visible" fill="none" stroke="#E3E3E3" stroke-width=".35" stroke-miterlimit="10"/><defs><path id="id-442e" d="M13.857 222.767c173.82 0 242.288-5.632 260.731-5.632 43.454 0 86.91 6.921 173.82 6.921V261.3H13.858v-38.532z"/></defs><clipPath id="id-443f"><use xlink:href="#id-442e" overflow="visible"/></clipPath><path clip-path="url(#id-443f)" fill="none" stroke="#E3E3E3" stroke-width=".35" stroke-miterlimit="10" d="M13.857 240.354h43.455v20.945H13.857zm0-20.944h43.455v20.944H13.857zm43.455 20.944h43.455v20.945H57.312zm0-20.944h43.455v20.944H57.312z"/><path clip-path="url(#id-443f)" fill="none" stroke="#E3E3E3" stroke-width=".35" stroke-miterlimit="10" d="M100.767 240.354h43.455v20.945h-43.455zm0-20.944h43.455v20.944h-43.455zm43.455 20.944h43.455v20.945h-43.455zm0-20.944h43.455v20.944h-43.455zm43.455 20.944h43.455v20.945h-43.455zm0-20.944h43.455v20.944h-43.455zm43.456 20.944h43.455v20.945h-43.455zm0-20.944h43.455v20.944h-43.455zm43.455 20.944h43.455v20.945h-43.455zm0-20.944h43.455v20.944h-43.455zm43.455 20.944h43.455v20.945h-43.455zm0-20.944h43.455v20.944h-43.455zm43.455 20.944h43.455v20.945h-43.455zm0-20.944h43.455v20.944h-43.455zm43.456 20.944h43.455v20.945h-43.455zm0-20.944h43.455v20.944h-43.455zM13.857 198.466h43.455v20.944H13.857zm43.455 0h43.455v20.944H57.312z"/><path clip-path="url(#id-443f)" fill="none" stroke="#E3E3E3" stroke-width=".35" stroke-miterlimit="10" d="M100.767 198.466h43.455v20.944h-43.455zm43.455 0h43.455v20.944h-43.455zm43.455 0h43.455v20.944h-43.455zm43.456 0h43.455v20.944h-43.455zm43.455 0h43.455v20.944h-43.455zm43.455 0h43.455v20.944h-43.455zm43.455 0h43.455v20.944h-43.455zm43.456 0h43.455v20.944h-43.455z"/><use xlink:href="#id-442e" overflow="visible" fill-rule="evenodd" clip-rule="evenodd" fill="none" stroke="#E3E3E3" stroke-width=".35" stroke-miterlimit="10"/><path clip-rule="evenodd" fill="none" stroke="#816070" stroke-width="1.5" stroke-linecap="round" stroke-linejoin="round" stroke-miterlimit="10" d="M448.408 259.146c-.102-.075-.085-.049-.324-.09v-.03h-.323v-.03a7.489 7.489 0 0 0-.81-.059v-.03c-.492-.027-.727.12-.97.15h-.324v.03l-.647.03v.03h-1.294v.03l-.97.059v.03l-.648-.03v-.03h-1.132c-.178-.069-.382-.097-.486-.18-.352.015-.458.02-.647.06-.31-.047-.563-.152-.647-.239h-.323l-.486.3-.809-.03v-.03c-.838-.049-1.384.053-1.941-.06h-.97c-.598-.049-1.164-.223-1.295-.359-.457.022-.465.053-.809.09l-.485-.27-.81-.119-.161-.06h-.324v-.03h-.323v-.03h-.81l-.484-.12-.971-.059-.162-.06h-.324l-.161-.06h-.324v-.03h-.323v-.03l-.324-.03v-.059l-.324-.03v-.06h-.161l-.486-.12c-.147-.015-1.637-.077-1.941-.059v.03l-.647.03v-.03c-.2-.013-.957-.057-1.295-.03l-.161.06h-.324l-.162.06-.647.03v.03c-.652.044-.839-.036-1.294.06-.212-.04-.62-.334-.647-.42-.573-.01-.786-.042-1.294-.06l-.486.12h-.162v.06h-.161c-.376.125-.595.33-1.133.419v.03h-.485c-.517.043-.791.091-1.618.09-.125-.102-.375-.138-.485-.24-.457.023-.465.054-.81.09-.307-.128-.878-.376-1.455-.449l-.971-.06v-.03h-.324v-.03h-1.941v.03h-.324v.03l-.97-.06c-.025.106-.398.43-.647.48-.195.055-.454.063-.648.119h-.323c-.2.138-.788.19-.97.329h-.324c-.112-.082-.22-.068-.324-.15l-.97.06-.163-.06c-.34-.04-.244.015-.485-.06-.457.023-.465.054-.809.09l-.485-.269c-.352.014-.459.019-.647.06h-.162l-.162-.18h-.162v-.09h-.161v-.089h-.162v-.09h-.162v-.09h-.162l-.485-.119c-.27-.035-.372 0-.647-.06-.64-.002-1.012-.001-1.295.06h-1.78l-.16-.09-.324-.03v-.06h-.324c-.074.116-.264.124-.324.24h-.323c-.14-.11-.422-.159-.647-.24v-.06h-.162v-.089c-.18-.082-.437-.152-.485-.269-.418.02-.465.03-.648.09-.362-.072-.136-.189-.323-.3h-.162v-.149h-.162v-.12l-.323-.029v-.06h-.162l-.162-.09c-.332-.006-1.188-.066-1.294-.06l-.485.12h-1.295l-.485-.299h-1.294c-.126.105-.414.163-.647.24v.06l-.324.03v.059c-.196.051-.584.077-.809.15h-1.132c-.077.064-.104.084-.324.119v.06h-.162l-.162-.21h-.161v-.149h-.162v-.12l-.97-.149h-.324l-.162-.06c-.336-.058-.624-.124-1.133-.15-.076.066-.103.086-.323.12v.06h-.162l-.162-.21h-.162v-.149h-.161v-.12h-.162l-.162-.268h-.162l-.162-.27-.323-.03c-.215-.048-.562-.143-.647-.208h-.324c-.041.08-.26.199-.485.239v.06c-.3-.026-.422-.046-.81-.06-.103.07-.045.056-.323.09v.06h-.161l-.162-.21h-.162v-.12h-.162v-.12l-.97-.149c-.21-.06-.031-.132-.162-.209-.226-.133-.487-.31-.486-.478h-.323c-.105.087-.282.158-.486.239h-.161c-.395.182-.152.465-.971.568-.097.06.022.026-.162.06-.23-.207-.638-.408-.97-.598l-.162-.3c-.129-.075-.31-.16-.324-.268h-.809c-.154-.144-.548-.266-.809-.389v-.09c-.616-.29-1.116-.644-2.912-.717-.178.265-1.205.424-1.456.658h-.647c-.064-.188-.45-.29-.485-.479-1.427.068-.996.385-1.456.628h-.162v.12h-.162v.06c-.247-.044-.458-.183-.485-.27h-.324l-.323.419c-.213-.044-.444-.422-.486-.508v-.24h-.162v-.268h-.161c-.326.16-.381.405-.648.568v.179h-.161v.06l-.486.03-.161.06c-.287.034-.36 0-.648.06-.226-.043-.64-.381-.647-.479h-.323l-.647.538h-.162l-.162.09-.324.03-.161.239c-.288.16-.642.335-.647.538h-.162v-.03h-.324c-.21-.025-.504-.328-.809-.389v-.03h-.162c-.215.399-.43.798-.647 1.196-.273.158-.725.316-.809.508-.3.026-.422.046-.809.06-.215.24-.43.479-.647.718l-.323.03v.06l-.324.03v.059h-.162l-.161.09c-.72-.037-.578-.115-1.295-.15-.04.08-.26.2-.485.24-.123.08-.038.067-.485.09v.029s-1.03-.057-1.456-.06c-.05-.182-.389-.336-.648-.478-.174-.096.006-.173-.323-.24v-.03h-.162v.18c-.307.184-.556.665-1.132.777-.139.034.021.005-.162.03l-.324-.179-1.618-.03-.647-.628c-.352.014-.458.02-.647.06-.444-.07-.402-.188-.647-.299-.315-.143-.908-.36-.97-.538h-.324c-.125.101-.375.137-.486.24-.206-.02-.345-.03-.485-.06-.235-.042-.619-.272-.647-.36-.434.02-.765.059-.97.12h-.163l-.485-.299h-.323l-.162.09h-.162v.06l-.324.03-.161.12c-.17.057-.477.119-.647.179-.183.025-.026-.004-.162.03-.371-.076-.135-.271-.324-.39-.278-.173-.373-.426-.647-.597v-.21c-.217-.134-.42-.344-.647-.478v-.149h-.162v-.12h-.162v-.09h-.161v-.119h-.162v-.18h-.162l-.162-.776h-.162l-.161-.658h-.324l-.647 1.704h-.162l-.162.269c-.203.118-.473.224-.485.389h-.809c-.074.115-.264.123-.324.239h-.323l-.324-.18h-.323l-.647.778h-.324c-.06-.245-.427-.422-.809-.598l-.162-.18-.809-.12-.161-.119h-.162l-.324-.18h-.161v-.089h-.162l-.162-.12h-.162v-.09c-.34-.142-.778-.337-.809-.537h-.323c-.151.135-.56.268-1.133.329v.03c-.257-.022-.668-.076-.809-.12-.418.02-.464.03-.647.09-.392-.019-.356-.032-.647-.06-.243-.23-.64-.496-.647-.748-.457.023-.465.054-.809.09l-.162-.09h-.162v-.06h-.161v-.06h-.162v-.059h-.162v-.06h-.162v-.12h-.162v-.089h-.161v-.12h-.162l-.162-.508h-.162c-.281-.182.209-.57-.323-.687v-.3h-.162c-.145.067-.209.135-.485.18v.03h-.162l-.485-1.584h-.324l-.162.448h-.162v.27h-.161v.268h-.162c-.151.1.133.206-.162.27v.059c-.434-.09-.105-.31-.324-.448h-.161v-.18h-.162v-.09h-.162v-.09h-.162l-.161-.179h-.162v-.03h-.162l-.485.957c-.49-.09-.484-.353-.971-.448v-.03c-.276.055-.499.42-.485.538-.537-.1-.092-.209-.324-.359h-.162v-.239h-.162v-.21h-.161v-.059h-.162v-.09h-.162l-.162-.15h-.161v-.029h-.162c-.016.23-.198.473-.486.658v.239h-.161v.12h-.162v.119h-.162l-.324.299h-.161v.03h-.162l-.162-.15h-.162v-.09h-.161v-.03h-.162l-.324 1.256c-.698-.13-.002-.417-.323-.627h-.162v-.509h-.162v-.478h-.162v-.329h-.162v-.329h-.161v-.328h-.162c-.267-.174.182-.547-.324-.658v-.3h-.161c-.305.149-.501.494-.486.688-.507-.1-.077-.257-.323-.418h-.162l-.162-.448v-.33h-.162v-.717h-.161v-.747c-.277-.181.035-.465-.162-.688-.129-.145-.174-.376-.162-.568l-.647-.03-.162-.597h-.162v-.479h-.162v-.448h-.161v-.329l-.162-.598h-.162v-.448h-.162v-.33l-.161-.657h-.162v-.508h-.162v-.389h-.162v-.15h-.162v-.149h-.161c-.183-.108.028-.224-.324-.298v-.06h-.162l-.485 3.318c-.391-.082.029-.264-.162-.389h-.162v-.388h-.161v-.3h-.162v-.119h-.162v-.12h-.162v-.089h-.162v-.12h-.161l-.162-.209h-.162v-.03c-.276.055-.499.42-.485.538h-.162c-.157-.077-.028-.153-.162-.239h-.162v-.21h-.161v-.268h-.162v-.359h-.162v-.359h-.162v-.328c-.037-.042-.099.01-.162-.03v-.389h-.161v-.478h-.162l-.162-.628v-.329h-.162v-.478h-.161l-.162-.807h-.324l-.485 2.212h-.162v.359c-.282.184-.48.466-.485.687h-.162l-.162-.21h-.162v-.089h-.161v-.03h-.162l-.324.807c-.274-.058-.161-.222-.162-.328v-.837c-.48-.317-.071-.796-.161-1.166l-.324-1.585c-.001-.31.23-.728-.162-.986v-.897c0-.106.111-.27-.161-.329v-.956h-.162l-.486.478c-.597-.125.118-.475-.161-.658-.27-.176.113-.477-.162-.657-.282-.185.126-.5-.162-.688h-.162v-.448h-.323c-.018.152-.142.3-.324.418v.27h-.162v.238h-.161l-.648 2.362c-.32-.068 0-.194-.161-.299-.229-.15-.15-.401-.162-.598l-.485-2.093c-.222-.145.088-.403-.162-.567h-.162v-.33l-.162-.747h-.162v-.448h-.161v-.478h-.162l-.162-.598v-.568c-.354-.233-.16-.613-.162-.897v-.27c-.367-.24-.16-.633-.162-.926v-.269c-.328-.216-.161-.57-.161-.837l-.162-1.106h-.324l-.809 3.767-.485.538h-.162l-.323-.538h-.162v-.36c-.25-.162.115-.446-.162-.627-.27-.176.114-.477-.162-.658-.249-.162.115-.446-.161-.627h-.162v-.449h-.324l-.485 12.107c-.417.275-.161.718-.162 1.047v.299h-.162l-.161.597v.33h-.162v.448h-.162l-.162.867c-.366-.075-.136-.217-.323-.33h-.162v-.179h-.162v-.06h-.162c.01.545-.259 1.076-.323 1.585-.02.152.2.61-.162.688v.03h-.162l-.323-2.123h-.324l-.809 2.481c-.367-.074-.139-.217-.324-.329h-.161v-.209h-.162v-.239h-.162v-.269c-.193-.124-.339-.284-.323-.448-1.125-.004-.688-.045-1.295-.12v-.06h-.323l-.162.688h-.162v.388h-.162l-.161.778h-.162l-.162.597v.33c-.234.153.1.425-.162.597-.237.156-.17.424-.162.628-.552-.117.118-.564-.161-.747-.342-.225-.16-.592-.162-.867v-.27c-.328-.215-.162-.57-.162-.836l-.162-1.136h-.323l-.647 1.524-.971-.06-.162.688h-.162v.389h-.161v.388h-.162v.658h-.162v.807h-.162v.718l-.485 1.464h-.162v.18h-.162v.18h-.161v.268h-.162v.329h-.162c-.172.112.176.256-.162.329v.329h-.162c-.203-.084-.449-.211-.809-.27v-.03h-.161l-.162.868h-.162v.478h-.162c-.218.145.294.381-.161.478v.06c-.29-.028-.252-.043-.648-.06-.061.199-.385.403-.647.568l-.485 2.033c-.378-.078-.134-.24-.324-.359h-.161v-.18h-.162v-.178h-.162v-.39h-.162v-.866h-.162v-.867c-.279-.183-.146-.485-.161-.717v-.15h-.162v-.598h-.324l-.161 3.438h-.162v1.405c0 .214.088.493-.162.658v1.494c0 .143.232.454-.162.539v.06h-.162c-.03-.292-.274-.528-.647-.748v-.15c-.194-.112-.458-.236-.485-.388h-.324l-.97.538h-.162v.06h-.162l-.162.209h-.162v.09h-.161l-.162.209h-.162v.06h-.162v.09h-.161l-.324.179h-.162v.06h-.162v.06h-.161c-.183.06-.039.071-.324.119v.03h-.485c-.008-.104-.252-.401-.486-.449v-.149h-.161c-.468.213-.573.491-1.456.628v.03c-.555-.028-.417-.064-.971-.09-.194.156-.788.247-.97.389h-.324l-.324-.09-1.132.06c-.125-.102-.375-.138-.486-.24h-.323c-.158.142-.901.414-1.618.449v.03c-.313.022-.873-.088-.971-.12-.72.037-.577.115-1.294.15v.03l-.97-.06c-.099.07-.386.14-.648.18-.138.033.022.004-.162.03-.181-.073-.392-.12-.485-.21h-.647v-.03c-.224-.044-.653-.49-.647-.598h-.162l-.486.299v.12h-.161v.12c-.213.107-.676.175-.81.298h-.323c-.112-.081-.22-.067-.323-.15h-.324c-.126.093-.78.276-1.132.33v.03h-.81v.03c-.582.04-.887.008-1.294.089-.334-.064-.148-.145-.323-.24h-.162v-.119h-.162v-.12h-.162v-.06h-.161l-.324-.179h-1.294v.03h-.324v.03h-.97l-1.618-.269-.324-.09h-.323c-.074.116-.265.124-.324.24h-.324c-.073-.116-.264-.124-.323-.24-1.151.007-1.867.015-2.265-.119-.747 0-1 .022-1.456.06-.178-.07-.382-.098-.486-.18h-.323c-.177.143-.655.216-.809.36-.336-.028-.813-.097-1.456-.06v.03l-.485.03-.486-.12c-.088-.006-.98.053-1.294.06-.09.145-.419.212-.485.358h-.648c-.09-.146-.418-.212-.485-.359-1.346.01-2.026.027-2.265-.179l-.647-.03v-.03l-.324-.03v-.06l-.323-.03v-.06l-.324-.03v-.059c-.232-.073-.538-.103-.647-.21h-.323c-.115.083-.311.11-.486.18-1.083-.008-1.506-.088-2.427-.12-.041.09-.225.223-.485.27-.097.06.023.025-.162.06-.111-.082-.219-.068-.323-.15h-.324c-.042.09-.225.222-.485.27v.059c-.342-.036-.35-.069-.809-.09-.095.067-.134.076-.324.12h-.161v.06h-.162l-.324.09h-.323v.03c-.334-.065-.149-.145-.324-.24h-.162v-.12h-.161v-.12l-.486-.059c-.353-.07-.697-.19-.809-.299h-.323c-.102.284-.797.486-.81.777-.485-.042-.87-.098-1.455-.12l-.162.45h-.162c-.15.098.137.206-.162.268v.03h-.161l-.648-1.106c-.215-.128-.577-.259-.647-.418-.591-.025-.956-.08-1.456-.12l-.485-.299-.97-.03c-.141-.062-.365-.153-.486-.21v-.089h-.162v-.09l-.323-.03v-.06h-.162l-.162-.089h-.324c-.091.16-.766.427-1.294.508v.03h-.162l-.485-.747h-.162c-.21.092-.439.18-.485.299-.428-.087-.11-.223-.324-.359h-.162v-.21h-.161c.024-.18-.217-.267-.971-.298-.04.154-.284.297-.485.418l-.324.449h-.162v.09h-.161l-.324.179-.809.12c-.348.064-.397.12-.97.149v.03c-.486.043-.85-.079-1.295-.06v.03l-.647.03-.485.448h-.162c-.112-.081-.22-.067-.324-.15h-1.132c-.09-.145-.42-.212-.486-.358h-.323c-.158.252-.908.425-1.133.658-1.13-.012-.844-.14-1.456-.24v-.06h-.323l-.324.09c-.442.023-.48-.075-.647-.09h-.809l-.485-.268h-.162v-.09c-.317-.133-.74-.298-.809-.478l-.97.06c-.083.134-.4.223-.648.328l-.485.03c-.234-.076-.605-.156-1.133-.18l-.647.838c-.185.107-.46.213-.485.359-.234.018-.473.07-.809.06v-.03l-.647-.03-.162.06h-.324v.03l-.485.03c-.009.15-.15.276-.323.388v.21h-.162v.208h-.162v.12h-.162v.09h-.162l-.161.179-.648.06-.808-.18c-.418.02-.465.031-.648.09-.554-.028-.416-.064-.97-.09-.041.08-.261.2-.486.24v.06c-.328-.03-.767-.07-.97-.12v-.06l-.486-.06v-.06c-.352.014-.458.02-.647.06-.31-.048-.563-.152-.647-.239h-.324l-.485.688c-.45-.05-.55-.123-1.132-.15-.019.09-.276.376-.486.419v.15h-.161c-.112-.082-.22-.069-.324-.15l-.97-.06c-.003.11-.268.553-.486.598v.18h-.162l-.162-.09-.323-.03-.162-.12-.485-.06c-.592-.111-1.26-.237-1.456-.418h-.324c-.042.09-.226.222-.485.269-.139.033.021.004-.162.03-.13-.105-.43-.162-.647-.24v-.06h-.162v-.089h-.162v-.09h-.162v-.09h-.161v-.09l-.648-.089v-.03h-.808v-.03l-.324-.03v-.06l-.485-.059v-.06l-.486-.06c-.358-.07-.689-.19-.809-.299h-.323l-.486.3h-.161v.09h-.162v.059h-.162v.09h-.162c-.28.105-.364.225-.809.298-.097.06.023.026-.161.06-.21-.092-.44-.18-.486-.299h-.809c-.125-.1-.374-.137-.485-.239-.758.037-1.172.146-1.78.21l-.485-.27-.809-.12v-.089c-.187-.081-.437-.153-.485-.269-.468.02-.947.085-1.295.03-.323-.018-.139.004-.323-.03-.235-.041-.619-.272-.647-.359h-.324c-.194.157-.787.247-.97.389-.72-.037-.578-.115-1.295-.15-.04.081-.26.2-.485.24v.06c-.614-.054-.864-.126-1.294-.21l-.324-.03v-.06l-.485-.06v-.06h-.324c-.076.066-.103.086-.323.12-.098.06.022.026-.162.06-.21-.092-.44-.18-.486-.299h-.323l-.324.36h-.162l-.485-.48c-.504.02-.722.052-1.294.06-.104.071-.046.057-.324.09v.06c-.251-.048-.64-.401-.647-.508h-.97l-.486.418h-.162v.03l-.809.03c-.124-.101-.374-.137-.485-.239h-.97c-.065.246-.533.69-1.295.807v.06c-.252-.048-.64-.401-.647-.508h-.324c-.154.113-.593.194-.97.269l-.324.03c-.187.05.002.068-.323.12-.098.059.022.025-.162.059l-.97-.538v-.299h-.163c-.239-.155.131-.468-.323-.568.035-.196-.157-.295-.971-.329l-.162.09h-.162v.06l-.323.03v.06l-.485.06v.059l-.486.06-.162.179h-.161l-.162.18h-.162v.06h-.162l-.162.089c-.554-.028-.416-.064-.97-.09l-.486 1.913h-.161l-.162.27c-.183.078-.417.083-.486.209h-.323c-.16-.272-1.06-.303-1.618-.479h-.97c-.187.162-.652.256-.81.419l-.485-.03v-.03h-.323v-.03h-.324v-.03l-.324-.03c-.237-.056.167-.03-.323-.09v-.059h-.324c-.077.112-.308.159-.485.24v.089h-.162v.06h-.162v.09c-.311.15-.643.367-.647.567H103v.03h-.647v.03c-.545.075-.984.184-1.132.329h-1.78v.03l-.97.06v.03l-.971-.03v-.03l-.647.03v.03l-.971-.06-.162.15h-.162v.089h-.161v.06c-.206.051-.903.062-1.295.09v.03H92.97v-.03h-.324v-.03c-.396-.013-.563.062-.809.09v.029l-.485-.03v-.03c-.297-.01-1.946.123-2.265.15v.03h-.97v.03h-.486v.03h-1.78v.03h-.323v.03l-.97-.06v.03h-.486v.03h-1.133v.029h-.323v.03c-1.164.076-2.446-.111-3.236-.06v.03h-.324v.03h-.97v.03H77.6v.03h-6.147c-.309-.019-.827-.1-1.456-.06v.03h-.324v.03h-.97v.03h-.324v.03h-5.5v.03h-.324v.03h-1.942v-.03h-.323v-.03h-2.265v.03h-.486v.03h-2.427v.03h-.485v.03H52.2v-.03h-.323v-.03l-.81.03v.03h-2.588v-.03h-.485v-.03h-2.912v.03l-.97.03v-.03c-.226-.016-.92-.055-1.295-.03v.03h-.324v.03h-1.941v-.03l-.647-.03v.03c-.314.019-.962.058-1.456.03-.31-.02-.826-.101-1.456-.06v.03h-.324v.03H30.52v.029h-.323v.03h-16.34v.06"/><path clip-rule="evenodd" fill="none" stroke="#94A6B0" stroke-width="1.5" stroke-linecap="round" stroke-linejoin="round" stroke-miterlimit="10" d="M448.408 216.025c-.13-.088-.89-.11-1.117-.185h-.319c-.186.122-1.182.199-1.436.317-.316-.012-.818-.043-1.435-.026v.013l-.639.013c-.096.031-.38.063-.638.08v.013c-.546-.013-.41-.028-.957-.04l-.319.119h-.16c-.158-.065-.453-.123-.478-.198l-1.117.026c-.012-.052-.375-.215-.638-.238v-.013c-.406.037-.117.115-.319.172h-.16v.08h-.159v.092h-.16v.026h-.159l-.319.04h-.957c-.242-.093-1.02-.171-1.117-.265h-.319c-.11.036-.216.03-.319.066-.574-.012-.669-.044-1.117-.066-.063-.083-.444-.128-.478-.211-.412.009-.458.013-.638.04-.355-.032-.135-.084-.32-.133h-.159v-.066h-.16l-.159-.119h-.16v-.053h-.159v-.053h-.16c-.19-.048.045-.084-.319-.119-.022-.063-.334-.094-.957-.105-.103.031-.045.024-.319.04v.026c-.248-.021-.631-.178-.638-.225-.71.016-.57.05-1.276.066l-.16-.04h-.16v-.026l-.318-.013v-.027l-.32-.013v-.026h-.159v-.04h-.16v-.04h-.159v-.04h-.16v-.039l-.318-.013c-.214-.022-.551-.064-.639-.093h-.957v-.013l-.638-.013s-.405.036-.478.04a605.56 605.56 0 0 0-.16-.04h-.16v-.027h-.159v-.026h-.16v-.026h-.16v-.027h-.159v-.04h-.16v-.04h-.159l-.16-.078h-.159v-.014h-.16c-.003.103-.19.22-.478.304v.106h-.16v.013h-.318l-.16-.026c-.34-.026-.61-.055-1.117-.066-.102.031-.044.025-.319.04v.026c-.27-.022-.632-.15-.638-.198-1.026-.019-.954-.087-1.595-.133v-.026h-.32l-.797.41h-.16l-.318.185h-.16l-.319.092-1.436-.04v-.012c-.327-.022-.483-.043-.957-.053-.075.028-.102.037-.319.053-.096.026.022.01-.16.026-.138-.027-.36-.068-.478-.093v-.04h-.16v-.039h-.159v-.04l-.319-.013-.16-.04h-.16l-.637-.185h-.32c-.122.045-.369.061-.478.106l-.797-.013a4.447 4.447 0 0 1-.639-.119l-.638.013v.013l-.957-.026-.797.278c-.337-.016-.346-.03-.798-.04-.157.059-.582.103-.798.159-.186.048.03.099-.319.132v.013c-.239-.02-.79-.23-.797-.278h-.32c-.013.04-.09.087-.319.106v.066h-.16c-.258-.055-.478-.154-.478-.224-.45.01-.458.023-.797.04-.516-.094-1.22-.16-1.596-.265v-.159h-.16v-.158h-.159c-.18-.053.194-.124-.16-.16.018-.176-.566-.126-1.275-.224h-1.277c-.018.042-.247.139-.478.159-.096.026.022.011-.16.026l-.319-.08h-.319c-.103.032-.045.026-.319.04v.027h-.16l-.159-.093h-.16v-.04h-.159v-.052h-.16l-.159-.093h-.16v-.013c-.427.04-.104.137-.319.198h-.16v.093h-.159v.013h-.16l-.956-.608-.798.013v.014h-.16c-.523-.063-.017-.243-.319-.331h-.16v-.145h-.159v-.106h-.16v-.04h-.159v-.04h-.16v-.04h-.159v-.039l-.319-.013v-.026h-.16l-.159-.04c-1.036 0-1.21-.014-1.914-.027-.073.051-.26.055-.32.106-.233-.02-.642-.24-.637-.29h-.32c-.098.029-.13.033-.318.052h-.16l-.16.04-.319.013-.478.185h-.16l-.319.08h-.16v.026h-.159l-.319.04h-.319c-.15-.054-.503-.066-.638-.12h-.319l-.479.37c-.198-.017-.489-.217-.478-.264-.69-.012-1.025-.044-1.595-.066-.265-.054-.584-.132-.639-.198h-.319l-.319.172h-.16v-.093h-.159v-.132h-.16v-.132h-.159v-.106h-.16v-.053h-.159v-.053h-.16v-.052h-.159v-.053h-.16v-.053h-.159v-.066h-.16v-.066h-.159v-.08c-.163-.044-.328-.08-.319-.145h-.32l-.478.238c-.337-.016-.345-.03-.797-.04l-.638.159h-.16v-.08c-.234-.063-.484-.158-.478-.238h-.639l-.16-.132h-.159v-.119c-.19-.055-.327-.125-.319-.198h-.319c-.132.046-.417.071-.638.106v.026h-.16v.027h-.159l-.16.079c-.356.074-.797.16-.797.264h-.16v-.105h-.16v-.16h-.159v-.144h-.16v-.133c-.33-.094-.455-.223-.797-.317l-.16-.145h-.159l-.319-.08h-.16l-.159-.105h-.16v-.08h-.16v-.066h-.159v-.092h-.16v-.106h-.159l-.16-.212h-.159v-.079h-.16v-.066h-.159v-.053h-.16v-.053h-.159v-.066h-.16c-.172-.043.002-.076-.318-.106v-.013h-.16c-.025.118-.14.259-.478.357v.132h-.16v.106h-.16v.106h-.16v.105h-.159v.106h-.16l-.478.503-.957.238h-.478c-.128-.028-.045-.05-.16-.08h-.16v-.08c-.145-.039-.318-.073-.319-.131h-.319l-.16.04h-.159v.026l-.319.013-.638.278h-.16l-.318-.252h-.16v-.092h-.16v-.013h-.159l-.319.317c-.43-.04.048-.137-.16-.198-.232-.068.101-.188-.16-.265-.231-.068.101-.188-.159-.264h-.16v-.185h-.318c-.034.089-.219.202-.479.277v.106h-.16v.106h-.159v.106h-.16v.092h-.159c-.202.058.085.133-.319.172v.08h-.16c-.1-.037-.361-.064-.478-.093l-.479-.397h-.319c-.034.115-.305.237-.638.33v.093h-.16v.08h-.159v.079h-.16v.08c-.386.108-.41.257-.797.37v.118h-.16v.106h-.16v.066h-.159l-.16.093h-.159v.013h-.16a3.776 3.776 0 0 0-.797-.172v-.013h-.16v.08c-.304.082-.472.2-.637.29-.319.008-.138-.002-.32.013-.327-.028-.146-.063-.319-.105h-.16v-.053h-.159v-.053h-.16v-.013h-.159l-.797.608c-.237.066-.605.144-.638.224-.204-.008-.34-.012-.479-.026-.231-.018-.61-.12-.638-.159h-.32c-.1.03-.13.034-.318.053h-.16l-.16.04-.318.013-.32.12c-.268-.024-.643-.224-.637-.278l-.639.013c-.175-.04.02-.106-.16-.159h-.159v-.145h-.16v-.133h-.159v-.145h-.16c-.052-.08-.106-.159-.159-.238h-.319l-.478.727h-.16l-.16.172c-.12.031-.296.058-.318.106h-.16c-.135-.045-.845-.125-1.276-.146v-.026h-.32l-.159.093h-.16v.026h-.159l-.478-.833h-.16v-.053h-.16v-.04h-.159v-.052h-.16v-.066h-.16v-.106h-.159v-.12h-.16l-.159-.224h-.16v-.119h-.159v-.132h-.16v-.159h-.159v-.158h-.16c-.052-.093-.106-.185-.159-.278-.434.01-.36.018-.797.026.007-.094-.071-.19-.32-.264-.156-.047.157-.102-.159-.132v-.12h-.16c-.314.063-.776.162-.797.239-.325-.026-.63-.171-.638-.225h-.957c-.024.095-.211.2-.479.278v.105c-.216.063-.42.152-.638.212v.08h-.16c-.233.063.064.116-.478.158-.137.015.021.002-.16.013-.175-.039.02-.106-.16-.158h-.159v-.16h-.16l-.159-.264-.957-.026c-.06.05-.294.071-.479.106v.04h-.16v.013h-.159l-.478-.74h-.16v-.027h-.16l-.478-.12v-.145h-.16v-.145h-.159c-.17-.05.173-.113-.16-.145v-.146h-.159c-.155.067-.259.162-.479.225v.106c-.2.057-.331.12-.319.198-.531-.043-.09-.093-.319-.159h-.16l-.159-.211h-.319c.001.075-.117.178-.319.238-.156.046.156.102-.16.132v.013h-.159c-.022-.122-.133-.257-.478-.357v-.105h-.16v-.093h-.16v-.093h-.159v-.105h-.16v-.093h-.16v-.132h-.159l-.478-.687c-.207-.057-.568-.115-.638-.186h-.32c-.041.042-.207.11-.478.133v.026h-.16l-.638-.159h-.319c-.063.082-.396.148-.638.212l-.319.278c-.526-.049-.064-.19-.319-.265h-.16v-.172h-.159v-.132c-.256-.06-.802-.112-.957-.185h-.957l-.638.635h-.638l-.639.608c-.295-.028-.067-.086-.16-.132-.036-.019-.097.004-.159-.014v-.238h-.16l-.159-.33v-.146c-.218-.064.088-.178-.16-.25-.218-.065.088-.18-.159-.252h-.16l-.159-.423h-.319l-1.276.714c-.364-.034.02-.107-.16-.159h-.16v-.211h-.159l-.16-.357-.956.026c-.02.096-.204.211-.479.291l-.16.198c-.394.112-.57.258-.957.37l-.319 1.64-.16.7c0 .062.168.233-.159.265v.159h-.16c-.074-.03-.101-.038-.318-.053v-.014h-.16l-.478.609h-.16l-.16-.093h-.159v-.053h-.16v-.053h-.159v-.079h-.16v-.119h-.16v-.119c-.179-.052-.328-.132-.318-.198h-.32l-.159.317h-.16v.185h-.159v.185h-.16v.159h-.159c-.273.08.201.267-.319.317v.159h-.16a3.713 3.713 0 0 0-.797-.172v-.013h-.16l-.319.634h-.16v-.106c-.27-.078.114-.21-.159-.29h-.16v-.304h-.159v-.252h-.16v-.185h-.159v-.185h-.16c-.052-.106-.106-.211-.159-.317h-.319l-.797 1.362c-.494-.047-.064-.216-.32-.291h-.16v-.185h-.159v-.278h-.16v-.29h-.159v-.278h-.16v-.212h-.159v-.04h-.16v-.04h-.159v-.039h-.16v-.066h-.159v-.132h-.16v-.12h-.159l-.16-.264h-.159v-.119h-.16v-.158h-.159v-.185h-.16v-.199h-.159l-.16-.317h-.319l-.478.7h-.16v.12h-.16v.092c-.165.047-.316.093-.318.159h-.16v-.04h-.16l-.159-.053h-.16v-.04c-.213-.037-.665-.056-.797-.105h-.32c-.072.05-.26.055-.318.106h-.32c-.098-.037-.361-.063-.478-.093l-.478-.37h-.16v-.093h-.16v-.145h-.159v-.264c-.232-.068.1-.189-.16-.265-.231-.068.1-.188-.159-.264h-.16v-.185h-.319l-.16.41h-.159c-.245.072.059.186-.16.25v.239h-.159v.119h-.16l-.318.158h-.16c-.191.025-.446.029-.638.053h-.319l-.16.12c-.584-.053-.319-.223-.319-.318l-.16-.793c-.105-.463-.212-.926-.318-1.388h-.16v-.053h-.16v-.053h-.159v-.053h-.16v-.106h-.159v-.198h-.16v-.198h-.159v-.199h-.16v-.198h-.159l-.16-.33h-.318l-.479 1.123h-.16v.172c-.236.07-.324.162-.319.251-.406-.038-.093-.16-.16-.225-.025-.025-.159-.026-.159-.026l-.16-.423c0-.059.195-.177-.159-.212v-.237h-.16l-.797.158v.027h-.16c-.025-.094-.21-.2-.478-.278v-.145h-.16v-.238h-.159v-.252h-.16l-.16-.436h-.159l-.478-.344h-.32v.212h-.159v.317h-.16c-.282.084.117.223-.159.304v.318h-.16v.317h-.159v.304s-.133.001-.16.026c-.07.066.071.149-.318.185v.067h-.16c-.314-.14-.492-.307-.957-.437-.201-.056.071-.12-.32-.158v-.027h-.159c-.004.323-.317.646-.638.952l-.16.304c-.001.047.111.12-.159.146-.202.044-.246-.033-.319-.04h-.16v-.013h-.159l-.319.687c-.543-.051.097-.189-.16-.264-.26-.077-.158-.206-.16-.304l-.159-.318v-.238h-.16v-.33c-.361-.103-.591-.24-.956-.344v-.119h-.16v-.211h-.16l-.159-.423h-.16l-.159-.278v-.145h-.16v-.199h-.159l-.16-.343h-.319l-.638.925-.638-.026c-.273-.031-.002-.075-.16-.12-.236-.066-.483-.17-.478-.25h-.319l-.319.713c-.304-.029-.16-.12-.16-.172v-.476c-.467-.137-.159-.425-.16-.594v-.186c-.448-.132-.159-.345-.159-.502l-.16-.806h-.318c-.09.035-.164.05-.479.066v.026h-.16l-.478-1.19-.16-.78h-.159v-.198h-.16v-.198h-.159l-.16-.317h-.319l-.16.542c0 .121.178.284-.159.383v.132c0 .137.228.322-.16.436v.556c-.263.078.112.21-.159.29h-.16v.172h-.159v.159h-.16v.159c-.337.1-.26.252-.478.357l-.638-.014c.01.162-.164.328-.319.476-.067.064.247.186-.16.225v.013h-.159l-.16-.343c-.002-.05.13-.132-.16-.16v-.197h-.159l-.16.04h-.159v.026h-.16v.026h-.159v.027h-.16v.026h-.159v.026h-.16c-.052.45-.106.9-.159 1.349v.515h-.16v.728l-.159 1.374-.798 3.795h-.159c-.211-.03.05-.085-.32-.12v-.026h-.159l-.16.463h-.159c-.245.073.058.187-.16.251-.245.073.059.187-.159.251v.172l-.16.33h-.159v.331h-.16v.357h-.159l-.16.516c0 .058.195.177-.159.211v.027h-.16l-.159-.08h-.16v-.04h-.159v-.039h-.16v-.04h-.16v-.04h-.159v-.039h-.16v-.026h-.159v-.04c-.171-.035-.433-.056-.478-.106h-.32l-.478.185-1.436.106-.16.185h-.159v.106h-.16v.106h-.159v.105h-.16c-.272.08.162.15-.478.199v.026h-.16c.008-.095-.07-.19-.318-.264-.166-.05.178-.114-.16-.146v-.119h-.16l-1.116.265v.053h-.16l-.16.092h-.159v.013h-.16l-.159-.079h-.16v-.04H249v-.013h-.16l-.318.397h-.16v.145h-.16v.093h-.159l-.319.211h-.16c-.187.054-.323.027-.638.066h-.319c-.103.032-.045.025-.319.04-.096.026.022.011-.16.026l-.478-.119c-.657.014-.62.04-.957.08l-.479.026v.027l-.478.026a1.269 1.269 0 0 0-.32.106h-.159l-.478-.12v-.039h-.16v-.013h-.16c-.018.102-.193.209-.478.29l-.16.133-.478.013c-.053.01-.106.018-.16.027h-.319v.013c-.58.04-.867.077-.957.159h-.16c-.213-.043-.433-.09-.478-.146h-.319c-.098.04-.324.084-.638.106v.026c-.25-.021-.644-.213-.638-.264h-.32l-.159.04h-.16v.026l-.318.013v.04h-.16v.026h-.16v.04h-.159v.026h-.16l-.797.318c-.98 0-1.419-.028-1.755-.08h-.319v.014l-.957.066-.16.04h-.16c-.095.026.023.01-.159.026l-.478-.146-1.915-.052c-.04.035-.257.088-.478.105v.014h-.16l-.319-.04-1.914-.053c-.271.027-.362.011-.638.026v.014c-.237.015-.278.02-.638.026l-.16-.04h-.16l-.159-.04-.319-.012c-.368-.044-.98-.129-1.117-.186-.387.006-.485.02-.797.027l-.479-.053a6.37 6.37 0 0 0-.957.066h-.16l-.319-.211h-.16v-.066l-.318-.014v-.026h-.16l-.16-.04h-.318c-.154.057-.582.096-.798.146v.053h-.16l-.319.132h-.159c-.096.026.022.011-.16.026-.11-.036-.216-.03-.319-.066h-.319l-.638.529-1.436.026c-.088-.064-.413-.094-.478-.158l-3.031.105c-.282-.04-2.505-.226-3.031-.238-.042.04-.223.099-.479.12-.136.014.022.001-.16.013-.153-.062-.706-.131-1.275-.159v-.026h-.32l-.478.238h-.798c-.018.04-.271.166-.478.185v.066h-.16c-.17-.03-.294-.05-.638-.066v-.027h-.319c-.149.056-.52.09-.798.132-.18.012-.024-.001-.16.014-.214-.02-.642-.231-.637-.278-.44-.01-.582-.025-.957-.04-.234-.05-.403-.164-.798-.198v-.013c-.205.018-.643.243-.638.29-.64-.03-.604-.041-1.755-.039l-.319.264c-.268-.025-.135-.087-.16-.132v-.04h-.159v-.224h-.16v-.225h-.16v-.172h-.159v-.066h-.16l-.159-.119h-.16v-.053l-.318-.013c-.216-.022-.55-.063-.638-.093-.412.01-.458.014-.638.04h-.16l-.16-.08h-.16v-.052h-.159v-.04h-.16v-.026h-.159v-.04h-.16v-.026h-.159v-.053h-.16v-.053h-.159v-.066h-.16v-.066h-.159c-.17-.043-.012-.09-.319-.12-.022-.063-.334-.093-.957-.105l-.479.397h-.16c-.199.057.078.147-.318.185v.079h-.16l-.478-.238v-.106c-.175-.05-.322-.119-.32-.185h-.637l-.639-.436h-.319l-.16.317h-.159v.199h-.16v.185h-.159v.105h-.16v.066h-.159v.053h-.16v.066h-.159l-.319.16h-.16l-.159.052h-.16l-.159.053-.319.013v.027l-.32.013v.026l-.318.013v.027l-.32.013v.066c-.354.094-.454.223-.797.317v.08l-1.117.105h-.159l-.16-.079h-.16v-.053h-.159v-.04h-.16v-.013c-.359.032-.128.084-.318.133-.254.065-.622.155-.638.238h-.16c-.11-.036-.216-.03-.319-.067h-.319c-.171.065-.63.098-.957.146h-.32c-.17-.03-.293-.05-.637-.066v-.027h-.32c-.088.065-.412.094-.478.159-.882.002-.811.026-1.436.04-.15-.053-.503-.066-.638-.12-.457 0-1.004.002-1.276-.013l-.638-.066c-.372.01-.745.018-1.117.027l-.16-.04-.318-.013v-.027l-.32-.013v-.026h-.159l-.16-.04h-.319l-.478.185h-.16v.013h-.478v.014c-.616-.014-.501-.04-1.117-.053l-.478.185c-.925.002-1.032.027-1.596.053-.175-.03-.376-.043-.478-.08-.822.017-1.298.113-1.436.186-.865-.04-.584-.065-1.595-.027-.175-.03-.377-.043-.479-.08-.598-.01-.893-.027-1.755-.026-.088-.064-.413-.094-.478-.158-1.109-.002-.678-.02-1.276-.053v-.027c-.872.02-.954.089-1.915.106-.018.04-.271.166-.478.185v.027c-.258-.02-.453-.093-.479-.133-.57.013-.702.042-1.276.053-.225.069-.866.1-.957.185h-.16a4.797 4.797 0 0 0-1.117-.29c-.28-.043-.807-.08-.957-.133h-.319l-.478.172c-.18-.011-.025.002-.16-.013-.65-.032-.503-.073-.798-.132h-.16v-.04h-.159v-.026h-.16v-.04h-.159l-.478-.132h-.32l-.318.185h-.32l-.318-.185-.479-.027c-.372-.044-.975-.127-1.117-.185h-.319c-.028.108-.168.254-.478.344v.132h-.16v.08h-.16v.066h-.159l-.16.132c-.225.055-.72.105-.797.172h-.32l-.318-.08c-.86-.014-.618-.027-.957-.079h-.16l-.16-.053h-.318c-.094.03-.133.034-.32.053h-.159l-.16.04-.319.013v.026h-.16c-.152.017-.113.026-.318.04l-.479-.119-.797-.053-.798-.211-.957-.027-.32.08h-.318c-.154-.064-.872-.144-1.596-.16-.018.043-.247.14-.478.16-.096.026.022.01-.16.026-.083-.034-.214-.06-.478-.08v-.013h-.16l-.638.688c-.263.07-.712.14-.798.225-.966-.005-.564-.023-1.116-.053v-.027h-.32c-.075.03-.101.038-.318.053-.096.027.022.012-.16.027-.221-.09-.712-.168-.797-.265h-.32l-.478.225-1.436-.04c-.096.032-.38.063-.638.08-.136.015.021.002-.16.013-.178-.032-.386-.053-.478-.093h-.957c-.04.036-.257.088-.479.106-.16.049-.515.044-.797.08l-.639-.014v-.013l-.957.026c-.216.07-.896.092-1.276.146h-.319c-.11-.036-.216-.03-.32-.066h-.318c-.172.064-.63.097-.957.145h-.32l-.159-.053-.319-.013-.16-.053h-.159v-.04h-.16v-.04h-.159v-.039h-.16v-.053h-.16l-.159-.158c-.15-.042-.317-.088-.319-.146h-.319a.994.994 0 0 1-.319.106h-.16v.026h-.159l-.797.357h-.16c-.205-.063-.79-.102-.957-.171-1.32-.004-.974-.058-1.914-.08-.131.095-.758.155-.958.238h-.319c-.268-.095-1.062-.163-1.276-.264h-.957c-.103.031-.045.025-.32.04-.095.026.023.01-.159.026l-.478-.146-1.117-.079c-.245-.022-.121-.034-.478-.053v-.026h-.32l-.478.238h-.16l-.319-.08h-.319c-.1.03-.13.034-.319.053h-.16l-.159.04-.319.013-.638.159h-.16l-.16.04-.318.013v.026h-.16l-.319.08h-.16l-.159.105h-.16v.053c-.191.047-.458.095-.478.159-.462-.017-.566-.031-1.117-.013v.013h-.957v.013l-.797.053v.013h-.16v-.013h-.319v-.013h-.957v-.014h-.32v-.013l-.797.013v.014c-.429.008-.724-.02-1.116-.027l-.479.053h-.16l-.478.132-.32.014-1.116.105c-.372-.008-.376-.012-.638-.026v-.013c-.614-.024-1.095.014-1.595-.027-1.094-.003-1.698-.004-2.074.053l-1.117-.026c-.123.044-.37.06-.478.105-.228-.008-.469-.031-.798-.026v.013l-.638.013-.16-.026c-.654-.032-.653-.023-1.276 0a24.56 24.56 0 0 0-1.117-.106v-.026h-.319c-.186.074-.625.134-.957.198-.315.005-.319.013-.319.013h-.957l-.638.066h-.479v.014c-.564-.006-.626-.019-1.116-.027l-.479.185H65.065v-.013l-.638-.013v.013c-.457.014-1.503.06-2.234.04v-.014h-.319v-.013H56.45V219h-.319v.014c-.674.019-1.262-.018-1.595-.027h-3.829V219h-.319v.014h-2.552V219h-.32v-.013h-1.914V219h-.319v.014h-3.03c-.503 0-.764-.001-1.117-.014v-.013h-7.02V219h-.319v.014c-.753.02-1.145-.033-1.595-.027V219h-.478v.014h-3.35V219h-.32v-.013h-7.497v-.013l-.798-.013v.013h-.319v.013h-1.595V219l-.957.014V219l-.958-.026v-.013h-2.073v.026"/><path clip-rule="evenodd" fill="none" stroke="#2DB7BC" stroke-width="1.5" stroke-linecap="round" stroke-linejoin="round" stroke-miterlimit="10" d="M448.248 204.152h.16c-.13-.34-.89-.42-1.118-.715h-.319c-.125.18-.424.276-.639.409v.102h-.16v.153h-.159l-.16.205h-.16v.153h-.159v.051h-.16c-.407-.136-.619-.299-1.277-.358-.152.2-.777.422-1.277.511v.051h-.16l-.478-.562h-.32l-.319.46h-.16v-.306c-.267-.28-.496-.724-.478-1.073-.503.042-.579.117-1.118.153-.009-.338-.233-.656-.479-.92v-.306h-.16v-.051h-.16a1.9 1.9 0 0 1-.478 1.226v.409h-.16v.204l-.32.051c-.358.18-.299.215-.957.307v.05h-.16l-.16-.152-.319-.052-.638-1.941h-.798c-.163-.245-.569-.41-.799-.613l-.638-1.84h-.32c-.075.112-.101.145-.319.205v.102c-.387-.13-.121-.302-.319-.51-.371-.393-.56-.894-.958-1.278-.17-.164-.012-.344-.32-.46-.047-.264-.339-.248-.638-.409h-.798l-.479-.51c-.574.05-.67.17-1.117.255-.489-.336-.904-.74-1.278-1.124l-.478-1.277-.32-.051-.16-.205h-.16c-.172-.078-.249-.144-.318-.255-.65-.048-.944-.163-1.597-.204-.04.137-.257.34-.479.408v.051h-.16c-.244-.329-1.063-.522-1.277-.868h-.319c-.002.194-.255.992-.479 1.073v.357h-.16l-.319-.306c-.571-.049-.702-.16-1.277-.205l-.32.46c-.399-.126-.131-.218-.318-.408h-.16v-.256h-.16v-.204h-.16v-.102h-.159v-.154h-.16v-.102h-.16c-.052-.12-.106-.238-.159-.358h-.16v-.204h-.16v-.153h-.159v-.205h-.16l-.16-.357h-.159v-.051h-.16l-.638 1.481h-.16l-.319 1.175c-.258.28-.63.626-.638.971-.671-.005-1.14-.01-1.437.102-.21-.068-.613-.569-.639-.715h-.32l-.318.46c-.472-.167-.08-.703-.32-.97h-.16v-.512h-.159v-.408h-.16l-.798-.818h-.958c-.018.163-.247.535-.479.613-.048.264-.34.248-.638.409h-1.118c-.103.12-.045.096-.319.153v.102c-.485-.154-.356-.606-.798-.766v-.051h-.16l-.32.97h-.159v.358h-.16v.051l-.957-.102-.958 1.533h-.16l-.479-.92h-.32l-.638.613h-.16v-.408h-.159l-.32-1.124c-.412.033-.458.052-.638.153-.272-.09-.631-.687-.638-.869h-.32c-.123.173-.37.235-.479.41h-.319l-.479-3.27h-.16v-.103h-.16a.953.953 0 0 1-.318-.409l-.958-.102c-.12.337-.501.642-.798.92l-.32.664c-.144.148-.317.295-.32.51h-.159v.052h-.638c-.073.197-.261.211-.32.409-.353-.124-.137-.322-.319-.511h-.16v-.307h-.16v-.306h-.159v-.256h-.16v-.306h-.16v-.051h-.159l-.479 2.197c-.352-.118-.137-.272-.319-.46h-.16v-.307h-.16v-.51h-.159v-.46h-.16l-.16-.87h-.318c-.106.133-.164.148-.48.205v.102c-.69-.222 0-.713-.319-1.072-.478-.542.002-1.351-.479-1.89v-.716l-.319-.051v-.102l-.32-.051v-.103l-.318-.05v-.103h-.16l-.16-.153c-.846-.03-1.185-.157-1.915-.205l-.32.665c-.329-.11-.658-1.063-.638-1.329h-.32c-.045.473-.414.989-.798 1.38v.255h-.16v.205h-.16v.102h-.159v.153h-.16v.102l-.798.205-.479.97h-.16c-.15-.205-.503-.253-.638-.46h-.32c-.052.273-.106.545-.159.818-.007.163.083.372-.16.46v.766h-.159c-.24-.205.072-.556-.16-.817h-.16v-.767h-.159v-.562c-.25-.274-.605-.583-.639-.92l-.957.103c-.295-.24-.64-.767-.639-1.073h-.32l-.319 1.073c-.386-.14.03-.451-.16-.664h-.159l-.16-1.124v-.562h-.16v-.716h-.159v-.51h-.16v-.511h-.16v-.511h-.159v-.511h-.16v-.511h-.159v-.46c-.269-.293-.628-.657-.639-1.022h-.319c-.033.455-.424.825-.638 1.226l-.639.051-.639 1.073h-.16v-.357h-.159l-.32-1.43-.797.05-.48-1.175c-.564-.02-.775-.072-1.276-.102l-.64 2.555-.478.05-.479-2.35h-.16l-.798-1.481c-.967.087-.257.219-1.277.051l-.32-1.328h-.159v-.562h-.16v-.41h-.16v-.255h-.159v-.204h-.16v-.204h-.16v-.256h-.159c-.17-.165.003-.294-.319-.408v-.052h-.16l-.638 1.993-.32.051v.102l-.319.051v.869c-.618.704.141 1.749-.479 2.452v.767l-.16.97h-.159v.102h-.16l-.16.307h-.159v.102h-.16v.153h-.16v.052h-.478l-.48-.971h-.318c-.054.05-.107.102-.16.153h-.16v.102l-.319.051-.798 1.89c-.372-.126-.128-.274-.32-.46h-.16v-.203h-.159v-.103h-.16l-.319 1.635c-.408-.147.039-.49-.16-.715-.265-.301.113-.816-.159-1.124-.266-.301.112-.816-.16-1.124h-.16v-.766h-.319l-.16.868h-.159v.562h-.16v.511h-.16v.511h-.159v.562h-.16v.358h-.16v.306h-.159v.307h-.16v.306h-.159v.256h-.16c-.17.165.003.294-.319.408v.052h-.16l-.16-.307h-.159v-.153h-.16v-.051h-.16c-.015.437-.16.92-.478 1.277v.46h-.16v.46h-.16v.408h-.159v.511h-.16v.562h-.16v.511h-.159v.562h-.16v.358h-.16v.306h-.159v.307h-.16v.255h-.16l-.957-.92v-.204h-.16c-.174-.165.004-.293-.319-.408v-.052h-.16l-.638 1.89-.32.052c-.352.172-.187.201-.957.255l-.958 3.628h-.16v.204c-.386.35-.942.825-.958 1.277-.296-.043-.416-.078-.798-.102l-.798.818h-.16v.204H344c-.174.165.005.294-.319.409v.05c-.244-.074-.452-.312-.479-.459-.412.034-.458.052-.638.153h-.16v-.357c-.36-.39-.435-.939-.798-1.329v-.357h-.16v-.051h-.16a1.91 1.91 0 0 1-.478 1.226c-.256.29.224.504-.48.664v.102c-.3-.092-.606-.483-.638-.664h-1.277l-.16.204h-.319l-.479-3.065-.638-.051c-.32-.58-.64-1.158-.958-1.737l-.16-.869h-.16l-.319-1.43c-.412.033-.458.052-.638.153h-.16l-.479-1.277c-.503.042-.578.117-1.118.153l-.478-.97c-.65.047-.944.162-1.597.204l-.638.868h-.16c-.263-.203-.435-.491-.639-.715v-.664h-.16v-.665h-.159v-.664h-.16v-.51h-.16v-.154c-.17-.141-.427-.26-.478-.46h-.958l-.639-4.19h-.16l-.319-.306h-.16l-.638-1.38h-.32l-.638 1.789h-.16l-.319-1.073c-.049-.179.113-.408-.16-.51v-.614h-.159c-.224.373-.493.797-.479 1.226h-.16v-.408h-.16v-.665h-.159v-.715h-.16v-.664h-.16v-.562h-.159v-.613h-.16v-.613h-.159v-.562h-.16v-.613h-.16v-.562h-.159v-.409h-.16v-.46h-.16v-.409l-.797-1.379h-.32c-.046.159-.387.533-.638.613v.051l-.799.051c-.063-.32-.444-.496-.478-.817h-.32c-.012.141-.107.387-.319.46v.204h-.16c-.238-.194-.462-.522-.479-.766-.57.048-.702.16-1.277.204l-.479 1.482h-.16c-.173.15.031.155-.319.255v.102h-.16l-.319-.766h-.16v-.307h-.159v-.05h-.16c.003.46-.152.957-.478 1.328-.15.169.132.352-.16.46v.46h-.16c-.275-.48-.233-1.126-.638-1.585v-.613h-.16v-.613h-.16v-.613h-.16v-.562c-.026-.098-.159-.102-.159-.102v-.715h-.16v-.767h-.16v-.204c-.012-.175.098-.414-.159-.51v-.665h-.16c-.126.104-.044.19-.16.306h-.159v.256c-.19.188-.46.409-.479.664-.409-.147.039-.491-.16-.715h-.159v-.818h-.16l-.16-1.38h-.319l-.16.818h-.159v.46h-.16v.511h-.16v.256h-.159v.204h-.16v.153h-.159v.205l-1.118.306-.478 3.73c-.406-.145-.119-.444-.32-.664h-.16v-.358h-.159v-.102h-.16l-.479 2.759c-.396-.142-.12-.495-.319-.716-.507-.56-.45-1.284-.958-1.839-.206-.226.079-.563-.319-.715v-.102h-.16l-1.117 6.59h-.16l-.32-.817h-.159v-.256h-.16v-.306h-.16v-.102h-.159l-.319 3.218c-.406-.148.038-.49-.16-.715-.298-.34-.155-.903-.16-1.328l-.159-1.686v-.358h-.16v-.05c-.29-.559.265-1.256-.16-1.738l-.478-7.255h-.32l-.638 2.044c-.356-.13-.16-.592-.16-.818l-.16-2.043h-.159v-1.533h-.16v-1.38c-.264-.3.112-.815-.16-1.123-.264-.302.112-.816-.159-1.124-.265-.302.112-.816-.16-1.124h-.16v-.767h-.318l-.32 1.482h-.16v-.358h-.159l-.16-1.175v-.562h-.16v-.562l-.159-1.175h-.16v-.92h-.16v-.92c-.218-.248.088-.69-.159-.97h-.16l-.16-1.584h-.318l-.16 1.635c-.002.426.138.988-.16 1.328v1.789h-.16v1.737h-.159c-.283.323.116.86-.16 1.175v.562l-.16 1.226h-.159c-.227.26.311.693-.16.869v.255c-.243-.03-.26-.04-.638-.051-.234-.193-.403-.635-.798-.766v-.103h-.16c.01.705-.145 1.401-.32 2.044-.071.265.286.807-.159.97v1.074h-.16a4.71 4.71 0 0 0-.479-.613v-.41h-.16v-.459h-.159v-.46h-.16v-.409h-.16v-.46h-.159v-.715h-.16l-.16-2.656c-.266-.303-.105-.791-.159-1.175-.042-.302-.171-.697-.16-1.073h-.319l-.479 5.569h-.16v.817h-.159l-.32 1.43c-.358-.121-.133-.322-.318-.51-.196-.2-.467-.46-.48-.716l-.638.051-.32-4.955v-2.861h-.159v-3.424h-.16v-1.686l-.638-4.649h-.16l-.798-1.481h-.32l-.159 1.43c-.004.41.127.951-.16 1.277v1.635h-.16v1.635h-.159v1.635c-.343.392-.093 1.004-.16 1.482v.153h-.16v.613c0 .405-.069.843-.159 1.175-.591-.214.146-1.135-.16-1.481h-.16v-1.533c-.277-.315.125-.853-.159-1.175h-.16v-.511h-.159v-.46h-.16l-.16-.817h-.319v.92h-.16v.204c-.027.382.105.875-.159 1.175v1.38h-.16v1.379h-.16v1.379h-.159v1.38h-.16v.561h-.16v.205h-.159v.153h-.16v.204h-.159c-.265.282.088.793-.16 1.073l-.479 5.263h-.16v.562h-.159v.562h-.16v.562h-.16v.306h-.159v.205h-.16v.204h-.16l-.318.562h-.799v.817h-.16c-.271.31.086.795-.159 1.073-.271.309.105.823-.16 1.124-.272.31.085.795-.16 1.073v1.329h-.159v1.43h-.16v1.43h-.16v1.431h-.159v.562h-.16v.102h-.16c-.052.103-.106.205-.159.307h-.16v.102h-.159v.153h-.16v.511h-.16v.767h-.159c-.199.226.242.564-.16.715v.102h-.16v-.664s-.133-.006-.159-.102c-.048-.177.12-.41-.16-.511v-.613h-.16c-.204.174-.338.709-.638.817v.051c-.326-.11-.15-.246-.319-.409h-.16v-.255h-.16v-.204h-.159v-.205h-.16v-.204h-.16v-.153h-.159l-.16-.358h-.16v-.051h-.159l-.32 1.533h-.159v.562h-.16v.613h-.159c-.288.329.226 1.125-.32 1.328v.664h-.159c-.2-.142-.443-.36-.798-.46v-.05h-.16l-.32 1.634c-.27-.1-.159-.38-.159-.562v-1.38c-.219-.42-.16-1.029-.16-1.532v-.613c-.411-.47-.153-1.226-.16-1.788a59.086 59.086 0 0 0-.159-.562v-1.277h-.16v-.103h-.159v-.102a4.066 4.066 0 0 0-1.596-.51c-.054.313-.407.569-.639.817v.766h-.16v1.022h-.16v.664l-.159 1.38h-.16v.51h-.16v.358h-.159v.307c-.283.31-.12.452-.958.613-.136.057.022.008-.16.05-.325-.262-.514-.587-1.436-.663l-.16 1.328h-.16v.766h-.16v.767h-.159l-1.437 10.627c-.432-.158-.042-.704-.478-.869v-.46h-.16l-1.756 2.606c-.319-.03-.138.007-.32-.051-.469-.167-.077-.752-.319-1.022h-.16v-.51h-.16v-.41c-.208-.218-.576-.442-.638-.715-.535.044-1.352.319-1.596.46h-.32c-.11-.14-.216-.116-.319-.256h-.319c-.011.26-.141.516-.32.716v.357h-.159v.41h-.16c-.221.194-.214.34-.638.459v.05h-.16l-.479-2.196h-.16c-.196-.141-.38-.258-.478-.409-.535.044-1.352.319-1.597.46h-.319c-.11-.139-.216-.115-.32-.255h-.319l-.16 1.481h-.159v.818h-.16v.868h-.16v.46h-.159v.358h-.16v.306h-.16v.358h-.159v.204h-.16v.205h-.159v.204h-.16l-.16.358h-.159c-.096.102.022.044-.16.102l-.319-.307h-.32l-.478.716h-.16l-.319.306h-.16v.102h-.16v.154h-.159v.102h-.16v.153c-.172.135-.427.217-.479.409h-1.277v-.051c-.312-.07-.364-.116-.798-.154l-.798 1.124c-.155.137-.426.216-.479.41h-.32l-.319-.307h-.319l-.32.613h-.318l-.64-1.022h-.318c-.074.2-.304.317-.48.46v.153h-.159l-.16.46c-.12.12-.303.224-.319.408h-.16c-.11-.139-.216-.115-.319-.255l-.798.051v.051h-.32l-.159-.102c-.38-.11-.718-.259-1.277-.307l-.479.869c-.453-.029-.567-.059-.798-.153h-.16v-.205c-.2-.177-.472-.368-.479-.613a4485.8 4485.8 0 0 1-.638-.05v-.052l-.958.102c-.102.155-.484.425-.798.511v.051c-.375.012-.29-.181-.799-.153v.051h-.319v.051c-.752.08-1.401-.069-1.916-.102-.041.153-.223.38-.479.46-.136.057.022.008-.16.05l-.319-.306-.319-.05v-.103h-.16l-.16-.153c-.981-.075-2.038-.486-2.234-.818-.347-.024-.453-.032-.639-.102-.25-.077-.925-.844-.958-1.022-.422-.03-1.314-.222-1.596-.204v.051l-.639.051c-.077.634-.802 1.143-.798 1.788h-.16v.051h-.638v.052l-.958.255h-.16c-.183-.277-.643-.437-.798-.715l-.638-.051c-.182-.058.001-.022-.32-.051-.23.126-.627.21-.798.357v.205h-.16v.153h-.16v.204h-.159c-.229.096-.439.103-.638.205h-.799c-.207-.035-1.054-.598-1.117-.716-.498.034-.713.088-1.277.102-.073.198-.261.211-.32.41h-.319c-.129-.339-.767-.515-.958-.818h-.319l-.798 1.073h-.16c-.11-.14-.216-.116-.32-.256h-.318l-.48.664c-.337-.062-.345-.117-.798-.153-.046.249-.284.43-.479.613v.205h-.16v.204c-.108.103-.347.259-.478.358-.18.043-.025-.007-.16.05h-.16l-.478-1.328h-.799c-.102-.166-.654-.628-.957-.715v-.051h-.16l-.32 1.533h-.159c-.247.283.255.526-.32.715-.182.086-.096.071-.478.102-.11-.14-.217-.115-.32-.255h-.319l-.638 1.583c-.34-.123.009-.37-.16-.562h-.16v-.664h-.16v-.715h-.159v-.562h-.16v-.255h-.16c-.167-.164-.01-.347-.319-.46-.028-.226-.132-.202-.478-.307l-.16-.102h-.479v-.051h-.479l-.16-.102c-.324-.094-.594-.173-1.117-.205l-.16-.51h-.16v-.358c-.176-.195-.322-.46-.319-.715-.571-.05-.702-.16-1.277-.205l-.958 1.942c-.364-.131.02-.412-.16-.613h-.159v-.767h-.16l-.16-1.277c-.512.044-.564.13-.957.204-.191-.163.032-.447-.16-.664h-.16v-.613h-.16c-.052-.358-.106-.715-.159-1.073h-.319v.051l-1.277.358-.16.204h-.16v.102h-.16l-.318.307h-.16l-.479 1.277-.798-.05c-.019.162-.248.534-.48.612-.085.379-.44.254-1.117.409l-.319.153-.32.051v.154h-.159v.102h-.16v.153h-.16v.102h-.159l-.32.153h-.318c-.15-.205-.504-.253-.639-.46h-.32l-.638 1.329-.32.051v.102c-.062.03-.213.04-.318.102l-.48.052a2.29 2.29 0 0 0-.798-.307v-.102l-.957-.102-.32.613h-.319l-.32-.511-1.117.102-.479-.51-.958-.103c-.045.159-.387.533-.638.613-.203.103-.53.174-.958.204-.184-.068-.29-.08-.639-.102l-.638 1.43-.32.052-.16.153h-.159v.102h-.16v.102l-.319.052-.16.204-.319.051-.479 1.737c-.434-.035-.36-.07-.798-.102-.11.139-.216.115-.319.255-.548-.051-.527-.17-.958-.255v-.102h-.32l-.638 1.43-.319.051c-.096.102.022.044-.16.103l-.479-.562h-.319c-.213.22-.426.442-.638.664h-.32l-.32-.46h-1.436l-.798-1.226c-.856-.064-.848-.244-1.597-.307-.018.163-.247.535-.478.613-.096.102.022.044-.16.102-.15-.207-.508-.301-.639-.51h-.319l-.32 1.226h-.319l-.319-1.226h-.32l-.638 2.299h-.16l-.159.562c-.184.198-.421.484-.479.715h-.16l-.16-.358h-.159v-.204h-.16v-.358h-.16v-.357h-.159v-.358h-.16v-.307h-.16l-.318-.306h-.16l-.639-1.175h-.319c-.05.642-.649 1.18-.798 1.788h-.16l-.16-.358h-.159v-.255h-.16v-.46h-.16v-.46h-.159v-.46h-.16v-.357h-.16v-.102h-.159v-.154h-.16l-.16-.255h-.318c-.097.121-.38.241-.639.306v.052h-.16l-.479-1.482-.957.102c-.224-.089-.166-.012-.32-.051l-.32-.153h-.159v-.102l-.479-.103c-.337-.152-.301-.251-.957-.306-.01.19-.214.774-.48.868v.051c-.362-.128-.13-.37-.319-.562h-.16v-.255l-.319-.051-.16-.204-.319-.052v-.102h-.16l-.159-.51h-.16v-.358h-.16c-.207-.226.08-.563-.318-.716v-.05h-.16l-.798 2.554c-.133.148-.299.37-.32.562h-.16l-.319-.715h-.16v-.256c-.377-.385-.59-.89-.957-1.277v-.358c-.253-.276-.493-.678-.479-1.022-.347.025-.452.033-.639.103h-.957v-.051c-.375-.13-.132-.413-.32-.614h-.16v-.306h-.159v-.256c-.2-.187-.583-.361-.639-.613h-.319c-.075.112-.102.145-.32.205-.095.102.023.044-.159.102-.281-.195-.737-.47-.798-.715h-.32l-.638.97h-.16v.103h-.16v.153h-.159v.102c-.048.025-.221.042-.32.102h-.318l-.16-.817h-.16v-.46h-.16v-.409h-.159v-.409h-.16c.035-.334-.154-.503-.957-.562l-.639 2.81h-.16v.154h-.16v.153h-.159v.153h-.16v.358c-.45.5-.348 1.185-.798 1.686v.409c-.246.275-.38.652-.638.92-.233.24.124.32-.48.46-.095.101.023.043-.159.101l-.479-.562h-.32l-.797 1.124h-.799l-.638 1.38c-.53.035-1.03.128-1.277.255-.389-.105-.354-.265-.639-.409l-.32-.05v-.103h-.159l-.16-.153h-.319l-.16.817h-.16c-.052.307-.106.613-.159.92-.294.328-.49.755-.798 1.073v.255c-.187.194-.411.638-.798.767v.102h-.16c-.106-.059-.464-.144-.479-.153v-.205h-.16v-.204h-.16v-.204h-.159v-.205c-.284-.25-.879-.505-.958-.817h-.319c-.08.365-.479.687-.798.97v.205h-.16v.153h-.16l-.159.358h-.16v.102h-.16v.153h-.159v.102h-.16c-.106.205-.212.41-.319.613-.192.181-.459.366-.479.613-.296-.043-.416-.078-.798-.102-.011.257-.147.473-.32.664v.358c-.255.285-.345.645-.957.818v.05h-.48v.052c-.445-.036-.606-.093-.797-.205l-.639.051v.052h-.958l-.16.102h-.319c-.094.02-.124.069-.319.102l-.479-.204c-.347.024-.452.032-.638.102h-1.757l-.16-.154-.319-.05v-.103l-.638-.05v-.052c-.414-.044-.487.129-.639.153h-.319c-.17-.118-.294-.191-.639-.255v-.102h-.319c-.042.16-.208.425-.479.51-.055.33-.64.333-1.117.511-.565-.019-.775-.072-1.277-.102-.04.138-.258.34-.48.409v.051c-.246.007-.375-.137-.478-.153h-.32l-.638.613h-.16v.102l-.32.051-.159.205h-.16l-.638.255h-1.437v.051h-.479v.051h-1.756v.051h-.319v.051l-.958-.05v-.052l-.638.051v.051H88.09v.051l-.958.052v-.052l-.638-.05c-.041.004-.711.276-.958.306-.976.119-2.19-.135-2.874.102h-1.117l-.48-.204c-.348-.037-.926.195-1.596.102l-.16-.102-.478-.051v-.051h-.32v-.052h-.319v-.05h-.958v-.052h-.319v-.05c-1.193-.133-1.895.245-2.554.204v-.052h-.32v-.05h-1.117v-.052c-.311-.068-.364-.116-.798-.153-.089.25-.414.363-.48.613h-.159v.051c-.517.027-.702.063-1.277 0v-.05h-1.597c-.083.129-.214.234-.478.306-.137.057.021.008-.16.05-.15-.205-.504-.252-.639-.46h-.958c-.126.35-.741.554-1.117.818h-1.118c-.316.426-2.167.561-3.352.716l-.479-.205h-1.916v.051h-.319v.051c-.434.029-.832-.177-1.596-.102v.051l-.958.051v.052h-.32v.05h-.957v.052h-.32v.05h-2.554v.052h-.32v.051h-4.15v-.051h-.32v-.051h-1.596v.05h-.479v.052h-7.503v.051h-.32v.051h-8.3v-.05h-.32v-.052l-.798.051v.051H16.25v-.05l-.638-.052v.051h-.48c-.428.052-.675.133-1.276.153v.103"/><path clip-rule="evenodd" fill="none" stroke="#6E9ED4" stroke-width="1.5" stroke-linecap="round" stroke-linejoin="round" stroke-miterlimit="10" d="M448.408 209.506c-.172-.248-1.27-.74-1.966-.8-.05.144-.169.329-.327.457h-.164v.114h-.164l-.491 2.173c-.388-.037-.307-.016-.492-.114-1.054-.001-1.926.177-2.293.4-.637-.062-.568-.166-1.474-.171-.091-.28-.424-.407-.491-.687l-1.147.115-.491-.8h-.328l-.491.8c-.304-.048-.428-.088-.82-.115l-.49.744h-.165l-.163-.172h-.164v-.114h-.164l-.164-.4h-.164l-.49-.744h-.984v-.057c-.327-.034-.14.008-.327-.057-.215-.076-.629-.637-.655-.8h-.328c-.075.22-.268.236-.328.457h-.327l-.655-.686h-.164v-.172h-.164v-.172h-.164v-.171h-.164v-.172l-.327-.057v-.114h-.164l-.164-.172h-.327c-.078.125-.105.162-.328.229-.099.114.023.05-.164.114-.212-.175-.444-.344-.491-.571l-1.147.114-.491-.572c-.356.027-.464.037-.655.114-.337-.124-.151-.275-.328-.457h-.164v-.229h-.163v-.228h-.164c-.197-.12-.357-.197-.82-.23h-.49c-.265-.047-.662-.387-1.147-.342v.057l-.492.114v.057h-.163v-.057h-.328c-.131-.026-.613-.428-.655-.514h-.328c-.041.154-.264.38-.491.457v.057h-.164c-.279-.213-.943-.567-1.638-.629-.075.22-.267.236-.328.458h-.163c-.177-.344-.397-.82-1.147-.972-.186-.065.002-.025-.328-.058-.272.115-.545.23-.818.343h-.164l-.164.344h-.164v.171h-.164v.172h-.163v.171h-.164l-.164.4h-.164v.23h-.164l-.163.228h-.164l-.164.229-.328.057-1.146.457h-.328c-.113-.155-.222-.129-.327-.286-.283-.02-.675-.048-.82-.114l-.163-.286h-.164v-.114h-.164v-.172h-.164l-.163-.286h-.164v-.114h-.164v-.172l-.328-.057v-.114h-.163l-.164-.172c-.53.047-.915.196-1.147.343-.717-.009-.897-.067-1.146-.228-.463.042-.47.102-.82.171-.183-.138-.397-.23-.49-.4h-.328l-.655.686h-.164v.057c-.259-.044-.35-.086-.492-.171-1.481.133-.748.624-1.474.915v.114c-.215-.071-.463-.309-.491-.457l-.983-.058c-.23-.171-.541-.307-.655-.514-.39.03-.512.067-.82.114-.179-.132-.386-.186-.49-.343h-.328c-.075.22-.268.236-.328.458-.453-.174-.229-.798-.655-.973-.029-.403-.567-.387-.983-.629-.423.038-.47.059-.655.172-.379-.037-.386-.052-.655-.114v-.058h-.983v-.057l-.655-.057c-.1.17-.332.361-.655.457-.099.115.023.05-.164.115-.174-.15-.36-.467-.655-.572v-.057c-.37.144-.138.414-.328.629h-.164v.343h-.163v.114h-.164l-.164-.4c-.264-.252-.76-.536-.819-.858l-.983.115c-.37-.34-.348-.855-.655-1.201v-.286h-.164v-.172h-.163v-.171h-.164v-.172h-.164v-.171l-.328-.058v-.114h-.163l-.164-.172-.655.058v.057c-.296.029-1.188-.108-1.802-.115l-.492-.8h-.327l-.492.572-.819.228-.49.572h-.984c-.084-.152-.407-.486-.655-.572v-.057h-.164l-.327 1.201h-.328l-.327-1.03-.328-.056-.164-.172h-.164l-.982-1.144c-.605-.05-.867-.178-1.31 0h-.165l-.163-.4h-.164v-.229c-.395-.404-.45-1.003-.82-1.43v-.342c-.269-.256-.828-.486-.982-.8h-.327c-.043.179-.214.475-.492.571-.098.114.023.05-.164.114l-.327-.343h-.328c-.077.125-.104.162-.327.229v.114c-.404-.15-.125-.393-.328-.629h-.164v-.343h-.164v-.286h-.163v-.228c-.197-.202-.476-.41-.492-.687-.58-.021-.795-.08-1.31-.114l-.655.972h-.164v.114h-.164v.172h-.164v.114h-.164l-.327.572c-.4-.144-.128-.338-.328-.572h-.164v-.4h-.163v-.286h-.164v-.286h-.164v-.228h-.164v-.23h-.164v-.285c-.124-.135-.315-.25-.327-.458-.423.038-.47.059-.655.172h-.164l-.164-.343h-.164v-.229c-.596-.612-.599-1.489-1.146-2.116-.203-.232.065-.468-.328-.629v-.343h-.164c-.322.268-.796.696-.819 1.03h-.327l-.328-.515h-.327l-.492.8h-.164l-.163.23h-.164v.113h-.164v.115c-.056.03-.224.045-.328.114h-.163v.057c-.29-.098-.974-1.081-.983-1.315h-.983c-.003.169-.108.602-.328.686v.343h-.163c-.272-.257-.286-1.165-.656-1.315v-.057h-.163l-.328 1.544h-.164l-.327-1.43c-.027-.208.123-.51-.164-.629v-.686h-.164c-.14.119-.37.294-.491.4v.172h-.164v.172h-.164v.171h-.164v.172h-.163v.4h-.164v.515h-.164v.514h-.164v.515h-.164v.4h-.163v.286h-.164v.343h-.164v.115c-.338-.126-.146-.277-.328-.458h-.163v-.229h-.164v-.057h-.164c-.023.43-.203.857-.491 1.201l-.164.572h-.164v.114l-.328.058-.163.228-.328.057v.572h-.164v.8h-.164v.744h-.163v.8h-.164v.172h-.492c-.024-.2-.402-.82-.655-.915v-.057l-.819 1.487c-.327.02-.655.038-.982.057v-.057l-.656-.057-.327 1.715h-.164v.63h-.164v.343h-.164v.114h-.163v.171h-.164v.115c-.185-.05-.026.008-.164-.057h-.328c-.148-.03-.932-.641-.982-.744h-.328c-.157.486-.875.844-.983 1.315h-.164c-.22-.182-.445-.39-.49-.629l-.656.058c-.16-.153.006-.419-.164-.63h-.164v-.514h-.164c-.163-.202.156-.442-.163-.572v-.457h-.164l-.82.972v.228c-.314.324-.742.75-.818 1.144h-.164l-.164-.286h-.163v-.171l-.328-.057v-.115l-.328-.057v-.114h-.163v-.23h-.164v-.228h-.164v-.229h-.164v-.228h-.164l-.819-1.258h-.655c-.398-.723-.404-1.625-.983-2.288l-.327-.915h-.164v-.114h-.164l-.327-.343-.328-.057-.164-.23-.327-.056-.164-.229h-.328c-.013.158-.11.434-.327.515v.228h-.164c-.266-.24-.491-.669-.491-.972h-.328l-.164.172h-.164v.114l-.327.057v.23h-.164v.228h-.164v.229h-.164v.228h-.163l-.328.744h-.164c-.022.337-.321.32-.655.514H329l-.491-1.83c-.561.054-.421.122-.983.172v-.114l-.327-.058v-.285h-.164v-.801h-.164v-.8h-.164l-.164-1.43h-.163v-.115h-.164v-.171h-.164l-.164-.229h-.164l-.163-.343h-.164v-.4h-.164v-.4h-.164c-.21-.253.08-.633-.327-.801v-.115h-.164l-.492 2.63c-.25-.083-.463-.349-.49-.514-.424.038-.471.059-.656.172h-.164l-.491-.686h-.164l-.164-.63h-.164v-.571l-.163-1.258h-.164l-.164-1.659h-.164v-.4h-.164v-.343h-.163v-.4h-.164v-.286h-.164v-.172c-.177-.158-.438-.291-.491-.514h-.328l-.164.171h-.164v.114l-.327.058c-.292.161-.262.337-.655.457-.099.114.022.05-.164.114l-.492-.514v-.172h-.163v-.057c-.44.172-.108.592-.328.858h-.164v.4h-.164v.057c-.418-.161-.117-.497-.327-.743h-.164v-.286h-.164v-.172h-.164v-.171h-.163l-.164-.343h-.164v-.057h-.164c-.022.686-.351 1.378-.655 2.001h-.655l-.655-2.173c-.273.02-.546.038-.82.057a2.068 2.068 0 0 0-.49-1.2v-.4c-.218-.258-.434-.66-.656-.916v-.343h-.164v-.4h-.163v-.4h-.164v-.4h-.164v-.401h-.164c-.21-.252.08-.633-.327-.8v-.058h-.164l-.328 1.544c-.499-.188-.18-.648-.327-.972-.176-.384-.353-.871-.328-1.315h-.328l-.655 2.516-.655.057c-.13.2-.43.31-.655.457v.115h-.164v.114h-.164l-.491 4.175c-.416-.162-.121-.497-.328-.744h-.163v-.4h-.164v-.057h-.164c.01.237-.047.977-.328 1.086v.515h-.163c-.228-.426-.164-1.03-.492-1.43v-.514l-.327-.057v-.115h-.164l-.164-.171h-.328c-.026.254-.174.394-.327.571v.344c-.241.284-.42.687-.655.972v.857h-.164v1.03c-.225.278.09.773-.164 1.086h-.164v1.03h-.164v.228l-.655-.057-.327 2.745h-.164v-.4c-.295-.355.13-.952-.164-1.316h-.164v-1.029l-1.146-6.004h-.328l-.491 1.715c-.381-.149-.138-.458-.328-.686-.376-.45-.255-1.166-.491-1.658v-1.03h-.164c-.247-.304.34-.82-.164-1.029v-.915h-.164c-.255.227-.492.563-.491.858-.555-.22-.038-1.07-.328-1.43h-.163v-.743h-.164v-.8h-.164v-.744h-.164v-.743h-.164v-.63h-.163c-.283-.347.21-1.092-.328-1.315v-.686h-.164c-.148.139-.004.377-.164.572-.402.492-.322 1.205-.819 1.658-.184.05-.025-.007-.163.057-.278-.093-.65-.65-.656-.857-.651.061-.794.237-1.31.343l-.491 1.658-.492.057v-.228h-.164v-.858h-.163v-.858h-.164v-.858h-.164v-1.029h-.164l-.163-2.745h-.164v-1.372h-.164v-.915h-.328l-.655 4.574h-.164l-.163.458c-1.045 1.03-1.686 2.38-1.638 3.774-.362-.144-.164-1.133-.164-1.43l-.164-3.716c-.306-.38-.164-1.011-.164-1.487l-.164-2.002v-1.2h-.163v-.687h-.164v-.629c-.027-.11-.164-.114-.164-.114v-.686h-.164v-.801h-.164l-.163-1.2v-.63h-.164v-.915h-.164v-.915h-.164l-.164-1.544h-.327c-.055 1.559-1.024 3.021-.983 4.632-.557-.22.1-.818-.164-1.143h-.164v-1.602c-.284-.352-.134-.927-.163-1.372v-.229h-.164v-1.144h-.983l-.655 1.544c-.535-.21.09-.773-.164-1.086-.252-.311.116-.855-.164-1.2-.238-.296.103-.815-.163-1.145h-.164v-.857l-.983.114-.491 3.889c-.486-.19-.08-.785-.328-1.087h-.164v-.4h-.164v-.229h-.163v-.229h-.164v-.228h-.164v-.286c-.233-.261-.418-.647-.655-.915l-.328-.915h-.164v-.115h-.163l-.492 7.206h-.164v.686h-.163v.171h-.164v.172h-.164v.171h-.164l-.327 2.345c-.385-.152-.162-.71-.164-.972l-.164-1.487v-.858h-.164v-1.887h-.164v-1.372h-.163c-.103-.053-.301-.101-.328-.115v-.114l-.491-.114-.328-1.258H272v-.515h-.163v-.515h-.164v-.629h-.164l-.328-1.6h-.327l-.655 4.345c-.327-.034-.141.008-.328-.057-.455-.177-.093-.8-.328-1.087h-.163v-.571h-.164v-.572h-.164l-.164-.915h-.327l-.328 2.802c-.34-.136-.164-.93-.164-1.201l-.164-3.26-.327-9.035h-.164v-.857h-.164v-.915h-.164l-.163-1.373h-.328l-.164 4.003c0 .713.322 1.68-.164 2.288v1.029c0 .907.224 1.992-.163 2.802v2.745c0 .273.235.868-.164 1.029v1.03c-.4-.083-.456-.183-.983-.23l-.164 1.373h-.163v.572l-.164 1.03h-.164l-1.147 9.377h-.163v-.457c-.162-.193-.332-.494-.328-.743h-.328l-.491 2.458h-.164v-.457h-.164v-.515h-.163v-.457c-.18-.217-.338-.517-.328-.8h-.328l-.491 8.234h-.164v1.487c-.236.294.102.813-.164 1.143-.236.295.102.814-.163 1.144-.215.267-.168.729-.164 1.086-.197-.072-.486-.637-.492-.8l-.982.114-.82 2.116h-.49l-.165-1.258h-.163v-.972h-.164v-.63l-.164-1.2h-.164v-.572h-.163v-.515h-.164c-.164-.202.155-.441-.164-.571v-.458h-.164c-.27.223-.598.466-.655.744l-.819-.172-.819-1.487v-.057h-.164l-.491 1.83h-.164v1.03h-.164v1.257h-.164v.8l-.163 1.716h-.164v.801h-.164v.629h-.164c-.173.215.178.49-.164.63v.628h-.163c-.113-.174-.276-.198-.328-.4-.494.043-.77.15-.983.286-.497-.173-.365-.679-.819-.858v-.114h-.164l-.163 1.83h-.164v.972h-.164v.457c-.003.35-.07.613-.328.858-.184.049-.025-.008-.163.057-.335-.123-.155-.275-.328-.457h-.164v-.286h-.163v-.23h-.164v-.113h-.164l-.655 3.66c-.318-.125-.325-.863-.328-1.144l-.327-2.23h-.328v1.2h-.164v.343c-.008.444.116 1.023-.164 1.373v1.773h-.163c-.32.4.456 1.465-.164 1.715v.229h-.164l-.164-.286h-.164v-.057l-.819 1.715c-.655.023-.997.098-1.474.172-.385-.235-.424-.203-1.146-.172l-.656-4.117h-.327l-.82 7.891h-.163v.63c-.177.206-.457.406-.491.686-.304.048-.428.088-.82.114-.048.144-.17.33-.327.457h-.164v.115h-.163v.286h-.164v.343h-.164v.343h-.164v.343h-.164v.229h-.163v.229h-.164l-.164.4h-.164v.057h-.491v.057c-1.082-.045-.955-.264-1.802-.343l-.491.744h-.164c-.347-.452-1.659-.562-1.966-1.087l-.982.114c-.075.22-.268.237-.328.458h-.328l-.327-.343-.492-.057v-.058h-.327l-.164-.114h-.819l-.164-.172h-.164l-.163-.171h-.328l-.491.8-.492.058c-.186.064.002.024-.327.057v-.057h-.328l-.164-.115h-.164l-.163-.228-.328-.058-.164-.228-.327-.058v-.114h-.164l-.164-.171a8.567 8.567 0 0 1-2.948-.801c-.28-.14-.249-.249-.655-.343v-.115h-.328c-.113.168-.283.302-.491.458h-.164l-.492.858h-.163c-.114-.156-.222-.13-.328-.286-.918.084-1.038.385-1.638.572v.114c-.38-.137-.14-.308-.328-.515h-.163v-.286h-.164v-.228h-.164v-.115h-.164l-.327-.343h-.328c-.116.158-.315.209-.491.343l-1.802.23c-.106.134-.046.106-.328.17-.098.115.023.05-.163.115l-.492-.515h-.164v-.114h-.163v-.172h-.164v-.114h-.164v-.172h-.164v-.228h-.164l-.327-.572-1.147.114c-.248-.402-1.047-.74-1.146-1.143h-.328c-.075.22-.267.236-.328.457h-.327l-.328-.343h-.327c-.111.336-.576.52-.655.858-.334-.113-.648-.74-.656-.972h-.327c-.225.334-.89.538-.983.915h-.328l-.327-.344h-.328c-.061.214-.302.307-.491.458v.171h-.164c-.099.115.023.05-.164.115l-.491-.458v-.171h-.164v-.057c-.384.146-.135.461-.328.686h-.163v.343h-.164v.343h-.164v.229h-.164v.171h-.164v.172h-.163v.171h-.164v.172h-.164v.172h-.164l-.164.343h-.163l-.328 1.2c-.19.229-.344.489-.328.801-.566-.22-.045-.855-.327-1.2h-.164v-.801h-.164v-.63h-.163l-.492-1.429h-.327l-.328.343h-.328l-.327-.343c-1.154-.01-1.11-.198-1.802-.343l-.491-.8-.983-.115-.492 1.2c-.154.169-.434.3-.49.515-.439-.163-.11-.428-.329-.686h-.163l-.492-1.372h-.327c-.125.155-.04.13-.492.171l-.163-1.315h-.164c-.17-.214.183-.49-.164-.629v-.572h-.164l-.491.515v.229h-.164v.228h-.164l-.327.344h-.164l-.328.343-.327.057v.114c-.187.111-.497.218-.82.286-.14.065.023.009-.163.057l-.655-.457-.492-1.601h-.327l-.656 4.46c-.218.02-.436.038-.655.057l-.819 1.03c-.304.048-.427.087-.819.114-.074.22-.267.236-.327.457h-.328c-.075-.22-.267-.236-.327-.457h-.328l-.164.171h-.164v.115l-.327.057v.457h-.164v.515h-.164v.572h-.164c-.25.309.16.887-.327 1.087v.514h-.164c-.112-.174-.276-.198-.328-.4l-.982.114c-.022.358-.254.744-.492 1.03v.4h-.164c-.17.243-.73.359-1.474.4-.126-.194-.38-.262-.491-.457h-.983c-.116.157-.315.208-.491.343-1.105-.014-1.003-.158-1.802-.229-.127.176-.79.527-1.147.629v.057c-.315-.04-.425-.085-.819-.114-.094.134-.233.213-.491.286v.057h-.819l-.164.114h-.327v.058l-.492.057c-.188-.077-.298-.09-.655-.115-.116.166-.622.435-.983.515-.098.114.023.05-.164.114l-.49-.629-.984-.057c-.23-.172-.541-.307-.655-.515l-.983.115c-.14-.058-.281-.08-.491-.115l-.491-.571h-.328c-.105.173-.497.475-.819.571v.058c-.253.008-.385-.153-.491-.172h-.328c-.075.22-.268.236-.328.458h-.327l-.328-.344h-.327l-.492 2.06c-.388-.038-.307-.017-.491-.115h-.328l-.819.343h-.164l-.49 1.03h-.165c-.104-.16-.365-.274-.491-.401v-.286h-.164v-.286h-.164v-.286h-.163v-.229h-.164l-.164-.286h-.164v-.114h-.164v-.171l-.327-.058c-.218-.092-.567-.275-.655-.4h-.328c-.02.182-.254.599-.491.686-.099.114.022.05-.164.115l-.655-.687-.328-.915h-.164v-.171c-.177-.157-.442-.291-.491-.515h-.328c-.061.214-.302.307-.491.458v.171h-.164c-.098.114.023.05-.164.115-.163-.281-.465-.534-.491-.858l-.983.114c-.038.352-.248.69-.491.972-.145.168.073.328-.164.458l-.655.171v.115l-.492.114v.115l-.491.114v.171h-.164l-.164.286h-.163c-.144-.236-.434-.418-.492-.686-1.138-.007-.695-.084-1.31-.229v-.114c-.631.057-.706.163-.983.343h-.164v.172h-.164l-.163.228h-.164v.172h-.164c-.14.064.022.009-.164.057l-.164-.171h-.163v-.115l-.328-.057c-.342-.18-.919-.604-.983-.858-.497.05-.624.136-.982.23v.056c-.273.02-.547.038-.82.057-.07-.222-.301-.356-.49-.514v-.172l-.328-.057v-.114h-.164l-.164-.172h-.328c-.1.152-.295.318-.491.458h-.164v.171h-.164v.115h-.163l-.164.285h-.164v.172h-.164v.114h-.164l-.163.343h-.164v.115h-.164v.171h-.164l-.491.23h-.492v-.058c-.244-.09-.668-1.029-.655-1.258h-.164c-.22.182-.445.391-.49.629h-.165c-.18-.318-.486-.604-.491-.972h-.328l-.819 2.058-.819-.057c-.313.185-.817.272-.982.515h-.328c-.113-.156-.222-.13-.328-.286l-.491.057v.057h-.328l-.163.115-.983-.115v.058h-.328v.057h-.983l-.49.572h-1.148c-.1.294-.587.643-.982.857l-.328.057v.172h-.164v.114h-.163v.172h-.164v.114h-.164l-.328.172h-.327c-.152-.22-.415-.247-.655-.4v-.115h-.164l-.328-.343h-.164l-.655-1.372h-.327l-.164.171h-.164v.115l-.328.057-.163.514h-.164l-.164.515h-.164l-.491.8-.82-.056v-.058c-1.15.106-1.338.62-2.128.858-.278.103-1.282-.272-1.475-.4l-.655.057v.057h-.983v.057l-.491.058c-.583-.348-.988-.131-2.293-.115l-1.147-.915h-.327c-.201.273-.795.362-1.147.572h-1.802c-.094.134-.233.214-.491.286v.057c-.937-.108-1.381-.473-2.457-.572-.065.36-.456.555-.491.915h-.82c-.093.134-.233.214-.49.286v.057h-.82v.058h-.491v.057h-2.457v.057h-.328v.057h-1.31v-.057l-.983-.114v-.058l-.655.058v.057h-.983l-.491.229-1.147-.115c-.388.228-.97.37-1.146.686-1.1-.18-1.88-.358-3.604-.343-.18-.132-.386-.186-.491-.343h-.328l-1.146.458-.492.114v.114h-.164c-.156.07-.122.11-.327.172l-.492-.515-.655-.171v-.057l-.327-.058v-.114l-.328-.057v-.115l-.327-.057v-.114h-.164l-.164-.172c-.74-.034-1.178-.184-1.638 0-.315-.091-.57-.29-.655-.457-.636-.006-.82-.017-1.147-.115l-.164-.114-.982-.057v-.057c-.92 0-.963.067-1.475.171v.057h-.163v-.057h-.328c-.131-.026-.613-.428-.655-.514-.58-.022-.795-.081-1.31-.115-.08.28-.697.892-1.147 1.03-.14.064.022.008-.164.057-.113-.156-.222-.13-.327-.286-.632.054-.708.164-.983.343h-.164v.171h-.164l-.491.515c-.304-.048-.428-.088-.82-.114-.168.102-.358.17-.654.229l-.492 1.086h-.164v.057h-.655c-.126.194-.38.263-.491.458-.304-.058-.634-.127-.82-.23-.918.002-.962.069-1.473.172v.058c-.48-.083-.907-.18-1.147-.343-.53.046-.915.195-1.146.343h-.82c-.14.229-.706.616-1.146.743-.52.16-1.71-.037-2.457.057v.057h-.327v.058h-.328v.057l-.983.114v.057c-.787.1-1.64-.137-1.965-.114v.057h-.328v.057h-.983v.058h-.327v.057h-1.966v.057h-.328v.057H34.331c-2.024.223-5.458.114-8.026.114h-1.474v.058l-.491.057h-3.113v.057c-.218.02-.436.038-.655.057v-.057h-.327v-.057h-3.276v-.057l-.983-.115v-.057c-.426-.027-.305.076-.491.114l-.492.058v.057h-1.146"/><path d="M15.45 157.61c-.13 2.53-.42 4.092-.638 6.231l-.955 1.385 2.301-1.683-.39-5.932h-.318zm.708 5.933l.247 3.76.478 1.384v1.385c.068.43.21.553.319 1.384.32-.607.811-2.272 1.433-1.384v.692l.797.692v-.692l.796-.692.478 6.923h.16c.136-.692.982-2.98 1.274-2.77v.693h.478v.692c.536.706 1.072-.426 1.433-.692.22-1.752.507-2.642.637-4.846.59.518 1.636 2.768 2.55 1.384v-.692l.796-.692h1.433v.692c.293.525.96 1.333 1.434.692v-.692h.478v-.692h3.026l.478-2.77c.213-.23.425-.46.637-.692v-.692h1.115c.318-.443.8-2.265 1.434-1.384v.692l.637.692v-.692h.319v-.692c.576-1.03 1.153-1.315 1.911-1.385.458 3.571 1.595 2.843 2.868 2.77.797-.047.789-.686 1.274-1.385h.956v-.693h.318v-.692h1.115v-.692l.797-.692v.692h.318v.692c.23.179.513-2.41.638-2.77h.318v-.691h.319v-.693h1.115v-.692c.25-.875.386-1.842.478-3.461.715.636.956 2.351 1.752 2.769.27-1.158.735-1.335 1.115-2.077v-.692h.956v-.693h.318v-.692l.956-.692v-.692l.637-.693v-.692h2.549c.303 2.27.781 3.29.956 6.23.546-.603.41-1.431.955-2.076.208 1.65.476 2.934.956 3.461l.956-4.846h1.115v-.692l1.434-.692.159 2.076h.16v1.385l.318.692v1.385h.16v1.384h.158v1.385h.16v1.385h.159v1.384l.478 1.385.16 2.076h.318c.474-3.33 1.313-2.82 1.593-7.615.871 1.005.958 4.576 1.911 5.539.102 1.899.303 2.554.478 4.153l.478-.692v-.692h1.115v-.693c.25-.875.387-1.841.478-3.46h2.549v-.693l.955-1.385v-.692h.956l.16-1.385h.318l.16-1.384h1.433l.478-2.77c.676-1.392 1.416 1.165 1.752 1.385l.478-2.769h2.549l.477 2.77.478-.693v-.692h1.912v-.693l.956-1.384v-.692h1.115l.478-2.77h.318v-.692l.956-1.384v-.693h1.911v-.692l1.434-2.077v-.692l.797-.692v.692l.637.692v-.692h.318v-.692h.797c.059-.137.323-1.846.532-3.354" clip-rule="evenodd" fill="none" stroke="#F59900" stroke-width="1.5" stroke-linecap="round" stroke-linejoin="round" stroke-miterlimit="10"/><g clip-rule="evenodd" fill="none" stroke="#F59900" stroke-width="1.5" stroke-linecap="round" stroke-linejoin="round" stroke-miterlimit="10"><path d="M135.933 133.479c.098.05.174.108.26.18.708-.073.514-.177 1.593-.183.16.284.32.568.478.852h1.115l.319.366h.319c.058-.236.246-.253.318-.488h.956c.25.155.573.14.956.244v.061l.637.183v.121l.318.061v.122h.16v-.06c.287-.097.136-.122.318-.244h.16v-.122l.478-.122 1.115-.487c.266-.07.362 0 .637-.122h.956c.134.246.487.303.637.548h.318c.103-.167.209-.138.319-.304h.318l.16.182h.159v.122l.319.061v.183h.159v.182c.119.114.34.3.478.427l.796.06v-.06c.25-.077.387-.162.478-.305l.956.122.478.609h.159l.319.548h.159c.31.296.093.51.796.67.135.07-.02.009.16.06l.478-1.278h.159c.201-.169.367-.307.478-.487.437.039.587.116.955.183v-.122c.336-.148-.007-.442.16-.67h.16v-.73c.256-.354.32-.835.318-1.28h.159v.061c.23.093.46.537.478.73h.318l.319-.73h.319v.122c.362.08.6.225.796.365.299-.05.417-.09.797-.122-.008.37.458 1.038 1.115 1.158v-.061c.374-.127.385-.307.637-.488.271-.194.649-.352.796-.609h.319c.102.167.208.14.318.305h.319c.36-.236 1.066-.373 1.274-.67h.319c.02.128.471.633.637.67h.319v.06h.159v-.06c.203-.065.166-.107.319-.183h.159v-.122l.956-.304v-.122h.159l.314-1.159m-68.915 7.624c.133-.085.244-.163.264-.192 1.1-.095.757-.354 2.23-.366.208.146.476.258.956.305.352-.226.957-.202 1.274-.366v-.121l.319-.061v-.122l.319-.061.637-.304.637-.061v-.061c.326-.101.484-.196.956-.244.091.182.299.28.478.426.718-.176 1.439-.59 2.23-.06.726-.125 1.868-.537 2.07-.853.704-.051 1.12-.232 1.275-.487l1.115.122.478-.244h.159l.478-.853.318-.06.16-.244.318-.061.16-.244h.318l.956 1.097h.16v.121h.159c.28.245.157.513.637.67v-.06c.73-.16 1.182-.58 1.274-.975.45.04.6.113.797.244l.477-.061c.102-.074.263-.088.319-.122v-.122h.16v-.122l.318-.06v-.122h.16v-.122h.158v-.122h.16v-.122h.16v-.122h.158v-.121h.16l.478-.244h.318v-.06h.319v-.062l.318-.06.018-.028m5.558-.338h.159v-.03l-.16.01v.02zm269.063-17.327l.142.885h.159v-.061c.217-.071.243-.111.318-.244h.797c.251-.176.65-.278.796-.487h.32c.03.215.336.682.636.792v-.122c.274-.069.216-.039.319-.183h.318c.031.2.563 1.005.797 1.096l.478-1.461c.151-.184.354-.368.496-.573M432 114.435v.04h.16v.427h.16l.318 1.279h.16c.105-.305.212-.61.318-.914h.318l.478 1.827h.16c.416-.275 1.057-.414 1.274-.791h.318v.121c.42.114.765.494 1.275.366.355-.08 1.285-.407 1.433-.548v-.305h.16v-.304h.159c.183-.227-.032-.46.319-.61v.062h.159v.182h.16v.244h.158l.16.365h.159c.207-.145.476-.258.956-.304l.318.791h.319l.319-.791h.318l.319.365h.318c.096-.214.425-.332.637-.487v-.122h.16v-.183h.159v-.182h.16v-.183h.159v-.183l.637-.182v-.061c.22-.026.635.094.796.122l.16-.305h.159l.16-.365c.104-.092.22-.187.337-.284m-34.586 2.224v.07h.16c.18.22-.049.4.318.547v-.121c.274-.069.216-.039.319-.183h.318l.478.609.478.06v.062l.956-.061v-.061c.422-.144.414-.315.637-.548h.16v-.487h.159v-.143m-218.391 14.697h.16l.145-.669-.41.027.105.642zm-66.361 3.62c.123.37.4.735.573 1.07l.478.06v-.06c.428-.138 1.29-.784 1.433-1.036h.319c.091.182.3.28.478.426.181-.069.063 0 .159-.121.31-.078.618-.358.8-.612m276.529-17.788v-.235h-.16v-.244h-.159v-.304h-.159c-.031-.305-.972-.675-1.593-.731-.092.395-.544.816-1.274.974v.061c-.546-.057-.41-.13-.956-.182-.102.144-.045.114-.318.182-.096.122.022.053-.16.122-.178-.147-.386-.244-.478-.426h-.318c-.052.21-.544.93-.797 1.035v.122c-.336-.074-.345-.14-.796-.183a.98.98 0 0 1-.141.28M432 114.435v-.142h-.159v-.183h-.159v-.182h-.16v-.183h-.159l-.159-.366-.319-.06v-.122h-.159l-.16-.183h-.636v-.06h-.16v-.488h-.159v-.426h-.16v-.488h-.158v-.365l-.319-.06-.16-.244-.318-.061v-.122h-.16v-.122l-.318-.06v-.123l-.318-.06-.16-.244h-.159l-.16-.244h-.159l-.637-2.314-.955-.06v-.062l-.956-.121v.06l-.637.183-.478 1.036h-.16v-.244h-.159v-.183h-.16v-.182h-.158l-.16-.427h-.159l-.16-.487h-.158c-.177-.197.002-.347-.32-.487v-.122h-.159c-.052.508-.106 1.015-.159 1.523h-.159v.791h-.16v.792h-.159v.487h-.159v.426h-.16c-.187.245.047.63-.318.792v.06l-.955-.12c-.103.143-.045.113-.32.182-.095.121.023.052-.158.122l-.478-.548h-.319c-.169.262-1.04.612-1.593.73l-.318 1.827h-.16v.67h-.159v.548h-.16v.487h-.158v.284"/><path d="M448.408 113.38c-.152-.219-.498-.268-.637-.488l-.956-.122c-.087.28-.35.525-.618.752m-47.471 3.053l-.336-2.1c-.427-.039-.753-.118-.956-.243-.648.057-.941.194-1.593.244l-.478 1.278c-.533-.047-.612-.136-1.115-.182-.075.132-.102.172-.318.243v.122c-.26-.102-.644-.917-.638-1.157h-.318l-.478 1.462h-.16l-.159-.366h-.159v-.182h-.16v-.183h-.159v-.244h-.159v-.426h-.16v-.365c-.153-.197-.321-.468-.318-.731h-.318c-.076.132-.102.172-.319.243v.061h-.16l-.477-3.227-.319-.061-.159-.244-.319-.06-.159-.244-.318-.061v-.122h-.16l-.159-.183c-.752.081-.736.296-1.593.366-.101.182-.319.328-.637.426v.122c-.248-.097-.63-.817-.637-1.035h-.319l-.16.182h-.158v.122l-.319.061v.183h-.16v.121h-.159c-.199.17.042.181-.318.305v.06l-.956.062c-.083.155-.214.28-.478.365v.061h-.16c-.11-.166-.215-.138-.318-.304h-.318l-.478 1.522c-.239-.088-.767-.726-.797-.914h-.796l-.478-.608h-.16v-.122h-.159l-.318-.366c-.615.066-.5.183-1.115.244-.023-.598-.108-1.272-.478-1.766v-.548h-.16v-.487h-.159l-.318-1.34h-.16v-.122h-.159v-.183h-.16l-.158-.304h-.319l-.796 1.34h-.797l-.319.609h-.159l-.478-1.097-.318-.06-.16-.244-.318-.06v-.123h-.16v-.122h-.159v-.243c-.194-.216-.456-.437-.478-.73h-.955c-.036.294-.28.513-.478.73v.243h-.16l-.159.122h-.318v.061h-.16c-.33-.664-.164-1.56-.637-2.192v-.61c-.292-.387-.625-.936-.637-1.4h-.319c-.072.235-.26.252-.318.487h-.319c-.106-.314-.562-.53-.796-.791l-.319-.975h-.16v-.304c-.241-.289-.61-.605-.636-.974h-.319c-.088.297-.412.432-.478.73-.396-.084-.61-.198-1.115-.243l-.478 2.314c-.162.212-.421.473-.478.73h-.318l-.319-.608h-.16v-.122c-.26-.193-.661-.351-.796-.61-.511.053-.563.157-.955.244l-.16.914h-.159c-.147.201.134.42-.16.548v.122h-.158l-.319-1.28h-.319l-.637 1.645c-.386-.165.029-.538-.16-.792h-.158v-.913h-.16l-.159-1.522h-.319l-.159 1.4h-.16v.792h-.158v.852h-.16v.366h-.159v.183h-.16v.182h-.159c-.096.122.022.053-.159.122-.15-.245-.503-.302-.637-.548-.512.052-.563.156-.956.244l-.637 2.923h-.16l-.318.365h-.16l-.636 1.096h-.319c-.2-.687-.967-1.356-.956-2.131h-.318c-.007.338-.131.602-.319.852v.427h-.16v.426h-.158v.183h-.16c-.21.157-.31.317-.637.426v.06c-.306-.042-.413-.09-.796-.121l-.638 4.628h-.159l-.318.366h-.16l-.637.304c-.198-.08-.63-.964-.637-1.157h-.319a1.182 1.182 0 0 1-.318.487h-.16v.122h-.159l-.478 1.218h-.159c-.149-.248-.507-.36-.637-.609l-.637-.06-.16-.975H342v-.731h-.16c-.175-.242.2-.573-.158-.73v-.732h-.16c-.356.729-.476 1.633-1.115 2.254v.182h-.16l-.158.366h-.16c-.136.068.022.01-.159.06l-.319-.365h-.318c-.103.144-.045.114-.319.183v.122c-.352-.148-.135-.383-.318-.61h-.16v-.304h-.159v-.365h-.16v-.67h-.159v-.67h-.159v-.609h-.16c-.264-.355.182-1.111-.318-1.34v-.548h-.159c-.207.187-.432.367-.478.61-.421-.177-.109-.456-.318-.731h-.16v-.427c-.259-.34-.376-.823-.637-1.157l-.16-.67-.955-.304v-.122h-.16v-.487h-.159c-.206-.27.076-.733-.318-.914v-.426h-.16c-.24.228-.46.496-.477.792h-.319l-.318-.61c-.564-.022-.774-.085-1.275-.121l-.637 1.827h-.16c-.105.467-.212.934-.318 1.4h-.16l-.636 1.462c-.31-.122-.651-1.228-.638-1.522-.716 0-.872.04-1.274.121-.228-.234-.308-.813-.318-1.096v-.487h-.16v-.73h-.159v-.731h-.16c-.052-.447-.105-.894-.159-1.34l-.637.06c-.132-.133-.015-.356-.16-.547h-.158v-.488c-.157-.208-.316-.523-.319-.791h-.319l-.477 3.045c-.39-.163-.123-.418-.319-.67h-.16v-.366h-.159v-.304h-.159v-.305l-.319-.06v-.122l-.318-.061v-.305h-.16l-.159-1.461h-.159v-.731h-.16v-.792h-.159v-.913h-.159v-.974h-.16v-.914h-.158v-.853c-.456-.612-.336-1.458-.797-2.07l-.16-.974h-.158c-.187-.16-.39-.32-.478-.488-.512.053-.563.156-.956.244l-.637 2.07h-.16v.122l-.318.061-.16.244-.318.06-.478 2.437c-.262-.108-.491-.802-.478-1.036h-.318c-.025.484-.34.952-.638 1.34v.487h-.159v.61h-.16v.547h-.158c-.233.313.127.957-.319 1.157v.548c-.18-.052-.025.009-.16-.06-.717-.193-.195-.535-.477-.914h-.16v-.548h-.159c-.161-.215.147-.469-.159-.609v-.548h-.16c-.297.296-.488.835-.477 1.218h-.16l-.796-2.07v-.61h-.16v-.913h-.159v-.913h-.159l-.16-1.584c-.51.053-.562.156-.955.244l-.478 2.923h-.16v-.487h-.158v-.548h-.16v-.488c-.174-.23-.327-.55-.318-.852h-.319l-.478 3.897h-.159v.487h-.16v.183h-.159v.183h-.159v.183h-.16v.487h-.158v.67h-.16v.609h-.159l-.16 1.34h-.159v.73h-.159v.73h-.16v.732h-.159l-.159 1.096c-.19-.079-.481-1.02-.478-1.218h-.318l-.478 3.227c-.32-.136 0-.394-.16-.609h-.159v-.609h-.159v-.487l-.319-.06c-.215-.103-.549-.29-.637-.427h-.318a1.615 1.615 0 0 1-.319.914v.548h-.16v.487h-.159l-.477 2.984c-.434-.047-.363-.015-.478-.183h-.319l-.637 2.74c-.288-.126-.158-.504-.16-.73l-.159-1.584-.637-4.689-.16-1.4c0-.228.126-.603-.158-.731v-1.096h-.16l-.637 1.522h-.16l-.158-.426h-.16v-.244h-.159v-.243h-.16v-.548c-.246-.332.114-.91-.159-1.28-.245-.33.114-.91-.159-1.278-.245-.332.113-.91-.16-1.279h-.159v-.913h-.318c-.096.121.022.052-.16.121-.136.069.022.01-.159.061v-.122h-.159v-1.217c-.23-.314.1-.867-.16-1.218-.23-.314.1-.867-.159-1.218h-.159V93.16h-.16v-.487h-.158v-.487h-.16V91.7h-.159c-.216-.289.103-.786-.319-.975v-.487h-.159c-.158.16-.026.312-.16.487h-.159v.488h-.159v.426h-.159v.487h-.16v.426h-.159v.488c-.185.245-.329.518-.318.852-.18-.052-.025.008-.16-.06a1.384 1.384 0 0 1-.637-.366v-.244h-.159v-.182h-.16v-.183h-.159l-.159-.426h-.16v-.061h-.158l-.638 2.923h-.318v-.183h-.16v-.852h-.159v-.914h-.16v-.852h-.158v-.914h-.16l-.159-1.888h-.16v-.974h-.159v-.975h-.159l-.16-1.583h-.318v1.035h-.159v1.462h-.16v1.522h-.159v1.462h-.159v.853H288v.487h-.159c-.15.201.13.42-.159.548v.487c-.18-.052-.025.008-.159-.061-.268-.07-.222-.037-.319-.183-.372.035-.595.087-.796.183h-.16l-.637-11.875-.637.06c-.218-.468-.153-1.139-.478-1.582-.177-.242.198-.573-.16-.731v-.67h-.158c-.183.18-.333.493-.478.67v.304c-.587.72-1.002 1.808-.956 2.74-.579-.252.138-1.3-.16-1.704h-.158v-1.888c-.287-.389-.156-1.033-.16-1.523l-.159-1.705h-.319l-.478 1.705h-.159v-.426c-.256-.334-.382-.816-.637-1.157v-.73h-.16v-1.523h-.159v-1.523c-.285-.387.045-.988-.159-1.461-.036-.085-.098.022-.16-.061v-1.4h-.158v-1.097h-.16l-.16-1.522c-.003-.23.127-.602-.158-.731v-.975h-.16c-.276.279-.411.697-.637.975v.304h-.159v1.096h-.16v1.34h-.159l-.16 1.949v.852c-.264.36.113.972-.158 1.34h-.16v1.4h-.159v.366h-.637l-.478 1.827h-.16l-.477 6.03c-.367-.15-.138-.327-.319-.549h-.159v-.305h-.16v-.304h-.159v-.304h-.159v-.122h-.16l-.318 4.628c-.335-.146-.056-.491-.16-.73-.135-.316-.158-.81-.158-1.219l-.319-4.932-.637-.061v-.244h-.16v-.853h-.159v-.852h-.159v-.792h-.16v-.852h-.158l-.16-1.523c-.278-.37-.596-.907-.637-1.34h-.319l-.637 9.866h-.16l-.158.365c-.406-.169-.119-.53-.319-.791h-.16v-.427h-.158V80.8c-.152-.199-.32-.465-.32-.73h-.318l-.318 2.679c-.254-.111-.16-.404-.16-.61v-1.887h-.159l-.16-5.115-.158-.914c-.04-.638.233-1.477-.16-2.01v-.608l-.16-1.218h-.158v-.914h-.16v-.852h-.159v-.731h-.16v-.731h-.158v-.73h-.16v-.732h-.16v-.73h-.158l-.638-7.978-.637-.06-.637-1.158h-.318l-.16 2.07h-.16c-.271.37.086.948-.158 1.28v.791l-.16 1.766h-.159l-.16 2.68c-.275.375.124 1.016-.158 1.4-.277.376.123 1.017-.16 1.401-.276.376.123 1.017-.16 1.4h-.158v.61h-.16l-.159.426c-.355-.155-.05-.54-.16-.792l-.318-1.218c-.027-.233.138-.596-.16-.73v-.792h-.158c-.136.126-.36.313-.478.426v.183h-.16v.183h-.159v.182h-.16v.183h-.158v1.522h-.16v2.07h-.16v2.132h-.158v2.07h-.16v.914c-.163.218-.316.428-.318.731-.362-.157.019-.49-.16-.73h-.159l-.16-1.219v-.61h-.158l-.16-1.218v-.609h-.16l-.158-1.218v-.608h-.16v-.975h-.159l-.16-1.583h-.318l-.637 16.138c-.323.44-.158 1.162-.16 1.705v.548c-.322.44-.157 1.162-.158 1.705v.548c-.391.533-.12 1.371-.16 2.01l-.16.913h-.955c-.061 1.21-.8 2.4-1.274 3.471l-.637.061-.797 4.324h-.16v.365H252l-.16.305h-.318c-.073-.235-.26-.252-.319-.487h-.318c-.091.325-.417.59-.638.852v.305c-.383.472-.59 1.109-.955 1.583l-.16 1.218h-.16v.61h-.158v.669h-.16v.609h-.159v.67h-.16v.67h-.158v.67h-.16v.426h-.16v.243h-.158v.244h-.16v.06c-.221-.085-.767-.843-.796-1.034h-.319c-.072.235-.26.251-.318.487h-.319c-.073-.235-.26-.252-.318-.487h-.32l-.318.609h-.159v.243h-.16v.183h-.158l-.32.67h-.158v.243h-.16c-.224.249-.013.327-.477.488-.096.121.021.052-.16.121-.082-.168-.414-.76-.637-.852v-.122h-.16c-.016.482-.03 1.013-.318 1.4v.731h-.16v.731h-.158v.61h-.16v.547h-.16v.487h-.158l-.319 1.584h-.16v.243h-.158l-.32.366h-.158l-.478 2.436c-.298-.127-.009-.348-.16-.548h-.159v-.61h-.16v-.426h-.159v-.182h-.159v-.244h-.16v-.183h-.158v-.182h-.16v-.244h-.159v-.365h-.16c-.158-.853-.318-1.706-.477-2.558-.308-.405-.647-.966-.637-1.462h-.319c-.02.578-.507 1.874-1.274 2.132v.122h-.16l-.477-1.827h-.956l-.637 1.218-.478.121-.16.183-.318.061-.319.974c-.388.494-.564 1.152-.955 1.645v.365h-.16v.426h-.159v.366h-.16v.426h-.159v.06l-.955-.12c-.01.424-.218.988-.478 1.339v.487h-.16c-.18.068.002.026-.318.06-.25-.205-.58-.4-.637-.669h-.319c-.131.213-.417.329-.637.487v.122h-.16v.122h-.159l-.318.73c-.424-.174-.11-.455-.319-.73h-.16v-.487h-.158v-.366l-.319-.06v-.122h-.16l-.159-.183c-.395-.016-1.071-.138-1.274-.122v.061l-.637.06-.637 1.523h-.16l-.318.427-.797-.061v-.061c-.23-.085-.609-.554-.637-.731-.45.046-.457.109-.796.183l-.478-.548h-.319l-1.593 1.827v.548h-.159v.73h-.16c-.278.375.206 1.224-.318 1.462-.04.277-.225.26-.478.426h-1.115l-1.274 1.705-.319.061v.122c-.24.128-.723.165-.955.305h-.319c-.11.165-.216.137-.319.304h-.318c-.205-.291-.79-.472-.956-.792h-1.274v.061l-.637.183-.478.853c-.496-.086-.92-.13-1.753-.122l-.477 1.4-.797-.06c-.018.184-.27.766-.478.852v.305h-.159c-.15-.245-.503-.302-.637-.549h-.319l-.478.853h-.478c-.277-.27-.617-.885-.637-1.218l-.955-.06c-.234-.23-.402-.758-.797-.914v-.061h-.16a2.525 2.525 0 0 1-.477 1.4v.488h-.16c-.172.048-.987.005-1.592 0l-.173.792m-67.049 3.958c-.096.144-.38.287-.637.365v.031l1.02-.065a1.107 1.107 0 0 1-.064-.331h-.319zm-.797.406c-.01-.271-.247-1.16-.477-1.259v-.426h-.16l-.637.67c-.815.01-1.043.097-1.752.121-.073.235-.26.252-.319.488h-.159l-.478-.853h-.318c-.048.313-.281.558-.478.792v.304h-.16v.122h-.159v.122l-.318.06-.142.217m72.993-4.695l-.055-.332h-.159v-.67h-.16v-.609c-.278-.367-.633-.96-.636-1.4l-.478-.062v-.06h-.319l-.159-.122-.637-.061v-.061l-.319-.06c-.234-.117.163-.064-.318-.184v-.121h-.797l-.796-1.462-.956.122-.956 1.583h-.16l-.796-1.583c-.411.04-.457.062-.637.183-.396-.17-.118-.59-.318-.853h-.16v-.426h-.159v-.427h-.16l-.477.488v.182h-.16v.244h-.159v.122h-.159v.121c-.217.156-.53.273-.637.488-.296-.052-.416-.094-.797-.122-.018.194-.247.638-.478.73-.051.357-.434.284-.796.488h-.956v-.061l-.637-.061v.06l-.637.062-.797.974-.318.061c-.318.135-.668.285-.797.487h-.318c-.216-.32-.895-.421-1.275-.67-.41.04-.457.063-.637.183h-.159l-1.115-1.279h-.319c-.108.358-.56.554-.637.914h-.16l-.477-.488v-.182h-.16v-.061c-.354.146-.134.384-.318.609h-.16v.304h-.158v.305h-.16v.304h-.159v.244h-.16v.244h-.159v.243h-.159l-.16.365h-.158v.183h-.16v.183h-.16v.183h-.158v.182h-.16v.244h-.159c-.192.225.044.389-.319.548-.017.313-.205.308-.477.487h-.319c-.11-.166-.216-.138-.319-.304-.496.04-.71.104-1.274.121l-.478.853c-.295-.051-.415-.094-.796-.122l-.164.607m-32.651 1.829h-.318a.951.951 0 0 1-.156.302l.851-.055a1.558 1.558 0 0 0-.377-.125v-.122z"/></g></svg>