<svg xmlns="http://www.w3.org/2000/svg" xmlns:xlink="http://www.w3.org/1999/xlink" viewBox="0 0 482.042 288.298"><defs><path id="id-318a" d="M14.586 51.8v82.733c72.425-13.397 107.093-3.098 144.078 4.494s73.198 10.7 145.623 10.7c72.426 0 144.851-20.586 144.851-20.586V51.8H14.586z"/></defs><clipPath id="id-319b"><use xlink:href="#id-318a" overflow="visible"/></clipPath><g clip-path="url(#id-319b)" fill="none" stroke="#E3E3E3" stroke-width=".35" stroke-miterlimit="10"><path d="M14.586 80.09h36.213v4.715H14.586zm0-4.715h36.213v4.715H14.586zm0-4.715h36.213v4.715H14.586zm0-9.43h36.213v4.715H14.586z"/><path d="M14.586 56.515h36.213v4.715H14.586zm0-4.715h36.213v4.715H14.586zm0 14.145h36.213v4.715H14.586zM50.799 80.09h36.213v4.715H50.799zm0-4.715h36.213v4.715H50.799zm0-4.715h36.213v4.715H50.799zm0-9.43h36.213v4.715H50.799z"/><path d="M50.799 56.515h36.213v4.715H50.799zm0-4.715h36.213v4.715H50.799zm0 14.145h36.213v4.715H50.799zM87.011 80.09h36.213v4.715H87.011zm0-4.715h36.213v4.715H87.011zm0-4.715h36.213v4.715H87.011z"/><path d="M87.011 61.23h36.213v4.715H87.011z"/><path d="M87.011 56.515h36.213v4.715H87.011zm0-4.715h36.213v4.715H87.011zm0 14.145h36.213v4.715H87.011zm36.213 14.145h36.213v4.715h-36.213zm0-4.715h36.213v4.715h-36.213zm0-4.715h36.213v4.715h-36.213zm0-9.43h36.213v4.715h-36.213z"/><path d="M123.224 56.515h36.213v4.715h-36.213zm0-4.715h36.213v4.715h-36.213zm0 14.145h36.213v4.715h-36.213zm36.213 14.145h36.213v4.715h-36.213zm0-4.715h36.213v4.715h-36.213zm0-4.715h36.213v4.715h-36.213zm0-9.43h36.213v4.715h-36.213z"/><path d="M159.437 56.515h36.213v4.715h-36.213zm0-4.715h36.213v4.715h-36.213zm0 14.145h36.213v4.715h-36.213zm36.212 14.145h36.213v4.715h-36.213zm0-4.715h36.213v4.715h-36.213zm0-4.715h36.213v4.715h-36.213z"/><path d="M195.649 61.23h36.213v4.715h-36.213z"/><path d="M195.649 56.515h36.213v4.715h-36.213zm0-4.715h36.213v4.715h-36.213zm0 14.145h36.213v4.715h-36.213zm36.213 14.145h36.213v4.715h-36.213zm0-4.715h36.213v4.715h-36.213zm0-4.715h36.213v4.715h-36.213zm0-9.43h36.213v4.715h-36.213z"/><path d="M231.862 56.515h36.213v4.715h-36.213zm0-4.715h36.213v4.715h-36.213zm0 14.145h36.213v4.715h-36.213zm36.213 14.145h36.213v4.715h-36.213zm0-4.715h36.213v4.715h-36.213zm0-4.715h36.213v4.715h-36.213zm0-9.43h36.213v4.715h-36.213z"/><path d="M268.075 56.515h36.213v4.715h-36.213zm0-4.715h36.213v4.715h-36.213zm0 14.145h36.213v4.715h-36.213zm36.213 14.145h36.213v4.715h-36.213zm0-4.715h36.213v4.715h-36.213zm0-4.715h36.213v4.715h-36.213zm0-9.43h36.213v4.715h-36.213z"/><path d="M304.288 56.515h36.213v4.715h-36.213zm0-4.715h36.213v4.715h-36.213zm0 14.145h36.213v4.715h-36.213zM340.5 80.09h36.213v4.715H340.5zm0-4.715h36.213v4.715H340.5zm0-4.715h36.213v4.715H340.5z"/><path d="M340.5 61.23h36.213v4.715H340.5z"/><path d="M340.5 56.515h36.213v4.715H340.5zm0-4.715h36.213v4.715H340.5zm0 14.145h36.213v4.715H340.5zm36.213 14.145h36.213v4.715h-36.213zm0-4.715h36.213v4.715h-36.213zm0-4.715h36.213v4.715h-36.213zm0-9.43h36.213v4.715h-36.213z"/><path d="M376.713 56.515h36.213v4.715h-36.213zm0-4.715h36.213v4.715h-36.213zm0 14.145h36.213v4.715h-36.213zm36.213 14.145h36.213v4.715h-36.213zm0-4.715h36.213v4.715h-36.213zm0-4.715h36.213v4.715h-36.213z"/><path d="M412.926 61.23h36.213v4.715h-36.213z"/><path d="M412.926 56.515h36.213v4.715h-36.213zm0-4.715h36.213v4.715h-36.213zm0 14.145h36.213v4.715h-36.213zm-398.34 47.147h36.213v4.715H14.586zm0-4.715h36.213v4.715H14.586z"/><path d="M14.586 103.662h36.213v4.715H14.586zm0-9.43h36.213v4.715H14.586zm0-4.715h36.213v4.715H14.586z"/><path d="M14.586 84.802h36.213v4.715H14.586zm0 14.145h36.213v4.715H14.586zm36.213 14.145h36.213v4.715H50.799zm0-4.715h36.213v4.715H50.799z"/><path d="M50.799 103.662h36.213v4.715H50.799zm0-9.43h36.213v4.715H50.799zm0-4.715h36.213v4.715H50.799z"/><path d="M50.799 84.802h36.213v4.715H50.799zm0 14.145h36.213v4.715H50.799zm36.212 14.145h36.213v4.715H87.011zm0-4.715h36.213v4.715H87.011z"/><path d="M87.011 103.662h36.213v4.715H87.011zm0-9.43h36.213v4.715H87.011zm0-4.715h36.213v4.715H87.011z"/><path d="M87.011 84.802h36.213v4.715H87.011zm0 14.145h36.213v4.715H87.011zm36.213 14.145h36.213v4.715h-36.213zm0-4.715h36.213v4.715h-36.213z"/><path d="M123.224 103.662h36.213v4.715h-36.213zm0-9.43h36.213v4.715h-36.213zm0-4.715h36.213v4.715h-36.213z"/><path d="M123.224 84.802h36.213v4.715h-36.213zm0 14.145h36.213v4.715h-36.213zm36.213 14.145h36.213v4.715h-36.213zm0-4.715h36.213v4.715h-36.213z"/><path d="M159.437 103.662h36.213v4.715h-36.213zm0-9.43h36.213v4.715h-36.213zm0-4.715h36.213v4.715h-36.213z"/><path d="M159.437 84.802h36.213v4.715h-36.213zm0 14.145h36.213v4.715h-36.213zm36.212 14.145h36.213v4.715h-36.213zm0-4.715h36.213v4.715h-36.213z"/><path d="M195.649 103.662h36.213v4.715h-36.213zm0-9.43h36.213v4.715h-36.213zm0-4.715h36.213v4.715h-36.213z"/><path d="M195.649 84.802h36.213v4.715h-36.213zm0 14.145h36.213v4.715h-36.213zm36.213 14.145h36.213v4.715h-36.213zm0-4.715h36.213v4.715h-36.213z"/><path d="M231.862 103.662h36.213v4.715h-36.213zm0-9.43h36.213v4.715h-36.213zm0-4.715h36.213v4.715h-36.213z"/><path d="M231.862 84.802h36.213v4.715h-36.213zm0 14.145h36.213v4.715h-36.213zm36.213 14.145h36.213v4.715h-36.213zm0-4.715h36.213v4.715h-36.213z"/><path d="M268.075 103.662h36.213v4.715h-36.213zm0-9.43h36.213v4.715h-36.213zm0-4.715h36.213v4.715h-36.213z"/><path d="M268.075 84.802h36.213v4.715h-36.213zm0 14.145h36.213v4.715h-36.213zm36.213 14.145h36.213v4.715h-36.213zm0-4.715h36.213v4.715h-36.213z"/><path d="M304.288 103.662h36.213v4.715h-36.213zm0-9.43h36.213v4.715h-36.213zm0-4.715h36.213v4.715h-36.213z"/><path d="M304.288 84.802h36.213v4.715h-36.213zm0 14.145h36.213v4.715h-36.213zm36.212 14.145h36.213v4.715H340.5zm0-4.715h36.213v4.715H340.5z"/><path d="M340.5 103.662h36.213v4.715H340.5zm0-9.43h36.213v4.715H340.5zm0-4.715h36.213v4.715H340.5z"/><path d="M340.5 84.802h36.213v4.715H340.5zm0 14.145h36.213v4.715H340.5zm36.213 14.145h36.213v4.715h-36.213zm0-4.715h36.213v4.715h-36.213z"/><path d="M376.713 103.662h36.213v4.715h-36.213zm0-9.43h36.213v4.715h-36.213zm0-4.715h36.213v4.715h-36.213z"/><path d="M376.713 84.802h36.213v4.715h-36.213zm0 14.145h36.213v4.715h-36.213zm36.213 14.145h36.213v4.715h-36.213zm0-4.715h36.213v4.715h-36.213z"/><path d="M412.926 103.662h36.213v4.715h-36.213zm0-9.43h36.213v4.715h-36.213zm0-4.715h36.213v4.715h-36.213z"/><path d="M412.926 84.802h36.213v4.715h-36.213zm0 14.145h36.213v4.715h-36.213zm-398.34 47.15h36.213v4.715H14.586zm0-4.715h36.213v4.715H14.586zm0-4.715h36.213v4.715H14.586zm0-9.43h36.213v4.715H14.586z"/><path d="M14.586 122.522h36.213v4.715H14.586zm0-4.715h36.213v4.715H14.586zm0 14.145h36.213v4.715H14.586zm36.213 14.145h36.213v4.715H50.799zm0-4.715h36.213v4.715H50.799zm0-4.715h36.213v4.715H50.799zm0-9.43h36.213v4.715H50.799z"/><path d="M50.799 122.522h36.213v4.715H50.799zm0-4.715h36.213v4.715H50.799zm0 14.145h36.213v4.715H50.799zm36.212 14.145h36.213v4.715H87.011zm0-4.715h36.213v4.715H87.011zm0-4.715h36.213v4.715H87.011z"/><path d="M87.011 127.237h36.213v4.715H87.011z"/><path d="M87.011 122.522h36.213v4.715H87.011zm0-4.715h36.213v4.715H87.011zm0 14.145h36.213v4.715H87.011zm36.213 14.145h36.213v4.715h-36.213zm0-4.715h36.213v4.715h-36.213zm0-4.715h36.213v4.715h-36.213zm0-9.43h36.213v4.715h-36.213z"/><path d="M123.224 122.522h36.213v4.715h-36.213zm0-4.715h36.213v4.715h-36.213zm0 14.145h36.213v4.715h-36.213zm36.213 14.145h36.213v4.715h-36.213zm0-4.715h36.213v4.715h-36.213zm0-4.715h36.213v4.715h-36.213zm0-9.43h36.213v4.715h-36.213z"/><path d="M159.437 122.522h36.213v4.715h-36.213zm0-4.715h36.213v4.715h-36.213zm0 14.145h36.213v4.715h-36.213zm36.212 14.145h36.213v4.715h-36.213zm0-4.715h36.213v4.715h-36.213zm0-4.715h36.213v4.715h-36.213z"/><path d="M195.649 127.237h36.213v4.715h-36.213z"/><path d="M195.649 122.522h36.213v4.715h-36.213zm0-4.715h36.213v4.715h-36.213zm0 14.145h36.213v4.715h-36.213zm36.213 14.145h36.213v4.715h-36.213zm0-4.715h36.213v4.715h-36.213zm0-4.715h36.213v4.715h-36.213zm0-9.43h36.213v4.715h-36.213z"/><path d="M231.862 122.522h36.213v4.715h-36.213zm0-4.715h36.213v4.715h-36.213zm0 14.145h36.213v4.715h-36.213zm36.213 14.145h36.213v4.715h-36.213zm0-4.715h36.213v4.715h-36.213zm0-4.715h36.213v4.715h-36.213zm0-9.43h36.213v4.715h-36.213z"/><path d="M268.075 122.522h36.213v4.715h-36.213zm0-4.715h36.213v4.715h-36.213zm0 14.145h36.213v4.715h-36.213zm36.213 14.145h36.213v4.715h-36.213zm0-4.715h36.213v4.715h-36.213zm0-4.715h36.213v4.715h-36.213zm0-9.43h36.213v4.715h-36.213z"/><path d="M304.288 122.522h36.213v4.715h-36.213zm0-4.715h36.213v4.715h-36.213zm0 14.145h36.213v4.715h-36.213zm36.212 14.145h36.213v4.715H340.5zm0-4.715h36.213v4.715H340.5zm0-4.715h36.213v4.715H340.5z"/><path d="M340.5 127.237h36.213v4.715H340.5z"/><path d="M340.5 122.522h36.213v4.715H340.5zm0-4.715h36.213v4.715H340.5zm0 14.145h36.213v4.715H340.5zm36.213 14.145h36.213v4.715h-36.213zm0-4.715h36.213v4.715h-36.213zm0-4.715h36.213v4.715h-36.213zm0-9.43h36.213v4.715h-36.213z"/><path d="M376.713 122.522h36.213v4.715h-36.213zm0-4.715h36.213v4.715h-36.213zm0 14.145h36.213v4.715h-36.213zm36.213 14.145h36.213v4.715h-36.213zm0-4.715h36.213v4.715h-36.213zm0-4.715h36.213v4.715h-36.213z"/><path d="M412.926 127.237h36.213v4.715h-36.213z"/><path d="M412.926 122.522h36.213v4.715h-36.213zm0-4.715h36.213v4.715h-36.213zm0 14.145h36.213v4.715h-36.213z"/></g><use xlink:href="#id-318a" overflow="visible" fill="none" stroke="#E3E3E3" stroke-width=".35" stroke-miterlimit="10"/><text transform="translate(459.522 263.558)" fill="#ECECEC" font-family="'Roboto'" font-size="8">0</text><text transform="translate(.035 277.143)"><tspan x="0" y="0" fill="#ECECEC" font-family="'Roboto'" font-size="8">January </tspan><tspan x="5.543" y="8.987" fill="#ECECEC" font-family="'Roboto'" font-size="8">2017</tspan></text><text transform="translate(34.94 277.143)" fill="#ECECEC" font-family="'Roboto'" font-size="8">February</text><text transform="translate(75.57 277.143)" fill="#ECECEC" font-family="'Roboto'" font-size="8">March</text><text transform="translate(114.012 277.143)" fill="#ECECEC" font-family="'Roboto'" font-size="8">April</text><text transform="translate(151.751 277.143)" fill="#ECECEC" font-family="'Roboto'" font-size="8">May</text><text transform="translate(186.815 277.143)" fill="#ECECEC" font-family="'Roboto'" font-size="8">June</text><text transform="translate(224.376 277.143)" fill="#ECECEC" font-family="'Roboto'" font-size="8">July</text><text transform="translate(14.586 13.696)"><tspan x="0" y="0" fill="#ECECEC" font-family="'DIN Pro'" font-size="16">Graph</tspan><tspan x="0" y="18.729" fill="#F59900" font-family="'Roboto'" font-size="12">°</tspan><tspan x="4.471" y="15.729" fill="#F59900" font-family="'Roboto'" font-size="12"> Bitcoin </tspan><tspan x="51.059" y="15.729" fill="#D9DADA" font-family="'Roboto'" font-size="12"> </tspan><tspan x="54.041" y="18.729" fill="#6E9ED4" font-family="'Roboto'" font-size="12">°</tspan><tspan x="58.512" y="15.729" fill="#6E9ED4" font-family="'Roboto'" font-size="12"> Dash</tspan><tspan x="89.314" y="15.729" fill="#D9DADA" font-family="'Roboto'" font-size="12"> </tspan><tspan x="98.262" y="18.729" fill="#2DB7BC" font-family="'Roboto'" font-size="12">°</tspan><tspan x="102.732" y="15.729" fill="#2DB7BC" font-family="'Roboto'" font-size="12"> Etherium</tspan><tspan x="154.014" y="15.729" fill="#D9DADA" font-family="'Roboto'" font-size="12"> </tspan><tspan x="162.961" y="18.729" fill="#94A6B0" font-family="'Roboto'" font-size="12">°</tspan><tspan x="167.432" y="15.729" fill="#94A6B0" font-family="'Roboto'" font-size="12"> Litecoin </tspan><tspan x="222.252" y="18.729" fill="#816070" font-family="'Roboto'" font-size="12">°</tspan><tspan x="226.723" y="15.729" fill="#816070" font-family="'Roboto'" font-size="12"> NEM</tspan></text><text transform="translate(254.291 277.143)" fill="#ECECEC" font-family="'Roboto'" font-size="8">August</text><text transform="translate(283.776 277.144)" fill="#ECECEC" font-family="'Roboto'" font-size="8">September</text><text transform="translate(325.298 277.143)" fill="#ECECEC" font-family="'Roboto'" font-size="8">October</text><text transform="translate(357.26 277.143)" fill="#ECECEC" font-family="'Roboto'" font-size="8">November</text><text transform="translate(394.672 277.143)" fill="#ECECEC" font-family="'Roboto'" font-size="8">December</text><text transform="translate(433.594 277.143)"><tspan x="0" y="0" fill="#ECECEC" font-family="'Roboto'" font-size="8">January </tspan><tspan x="6.537" y="8.987" fill="#ECECEC" font-family="'Roboto'" font-size="8">2018</tspan></text><text transform="translate(459.522 194.88)" fill="#ECECEC" font-family="'Roboto'" font-size="8">500</text><text transform="translate(459.522 221.14)" fill="#ECECEC" font-family="'Roboto'" font-size="8">1</text><text transform="translate(459.522 242.206)" fill="#ECECEC" font-family="'Roboto'" font-size="8">0.5</text><text transform="translate(458.262 167.94)" fill="#ECECEC" font-family="'Roboto'" font-size="8">1000</text><text transform="translate(459.522 141.03)" fill="#ECECEC" font-family="'Roboto'" font-size="8">1500</text><text transform="translate(459.522 100.353)" fill="#ECECEC" font-family="'Roboto'" font-size="8">10000</text><text transform="translate(459.522 76.537)" fill="#ECECEC" font-family="'Roboto'" font-size="8">15000</text><text transform="translate(459.522 124.167)" fill="#ECECEC" font-family="'Roboto'" font-size="8">5000</text><text transform="translate(459.522 52.954)" fill="#ECECEC" font-family="'Roboto'" font-size="8">20000</text><text transform="translate(446.743 44.941)" fill="#ECECEC" font-family="'Roboto'" font-size="8">$</text><g fill="none" stroke="#E3E3E3" stroke-width=".247" stroke-miterlimit="10"><path d="M14.586 266.824v-5.512H50.8v5.512"/><path d="M50.799 266.824v-5.512H87.01v5.512m.001 0v-5.512h36.213v5.512m0 0v-5.512h36.213v5.512m0 0v-5.512h36.212v5.512m.001 0v-5.512h36.212v5.512"/><path d="M231.862 266.824v-5.512h36.213v5.512m0 0v-5.512h36.213v5.512m0 0v-5.512H340.5v5.512m0 0v-5.512h36.213v5.512m0 0v-5.512h36.213v5.512"/><path d="M412.926 266.824v-5.512h36.212v5.512"/></g><path d="M453.218 219.41h-4.08v-13.397m0 0v-13.397m2.957 0h-2.957v-13.398m0 0v-13.397m2.957 0h-2.957v-13.397m0 0v-13.397m0-4.715v-11.787h4.08m-1.123 16.502h-2.957v-4.715m5.203-11.787h-5.203v-11.788m0 0V98.95h4.08m-4.08-11.788V75.375h4.08m1.123 0h-5.203V63.587m0 0V51.8h5.203m0 47.15h-5.203V87.162" fill="none" stroke="#E3E3E3" stroke-width=".35" stroke-miterlimit="10"/><defs><path id="id-320c" d="M449.138 214.7v15.944-95.212s-72.425 16.093-144.85 16.093c-72.426 0-108.639-4.906-145.624-12.498s-71.653-14.296-144.078-.899v81.282s226.157.157 289.702.157c63.545 0 117.555-4.868 144.85-4.868z"/></defs><clipPath id="id-321d"><use xlink:href="#id-320c" overflow="visible"/></clipPath><g clip-path="url(#id-321d)" fill="none" stroke="#E3E3E3" stroke-width=".35" stroke-miterlimit="10"><path d="M14.586 206.013h36.213v13.397H14.586zm0-13.397h36.213v13.397H14.586zm0-13.398h36.213v13.397H14.586zm0-13.397h36.213v13.397H14.586zm0-13.397h36.213v13.397H14.586zm0-13.397h36.213v13.397H14.586zm36.213 66.986h36.213v13.397H50.799zm0-13.397h36.213v13.397H50.799zm0-13.398h36.213v13.397H50.799zm0-13.397h36.213v13.397H50.799zm0-13.397h36.213v13.397H50.799zm0-13.397h36.213v13.397H50.799z"/><path d="M87.011 206.013h36.213v13.397H87.011zm0-13.397h36.213v13.397H87.011zm0-13.398h36.213v13.397H87.011zm0-13.397h36.213v13.397H87.011zm0-13.397h36.213v13.397H87.011zm0-13.397h36.213v13.397H87.011zm36.213 66.986h36.213v13.397h-36.213zm0-13.397h36.213v13.397h-36.213zm0-13.398h36.213v13.397h-36.213zm0-13.397h36.213v13.397h-36.213zm0-13.397h36.213v13.397h-36.213zm0-13.397h36.213v13.397h-36.213zm36.213 66.986h36.213v13.397h-36.213zm0-13.397h36.213v13.397h-36.213zm0-13.398h36.213v13.397h-36.213zm0-13.397h36.213v13.397h-36.213zm0-13.397h36.213v13.397h-36.213zm0-13.397h36.213v13.397h-36.213z"/><path d="M195.649 206.013h36.213v13.397h-36.213zm0-13.397h36.213v13.397h-36.213zm0-13.398h36.213v13.397h-36.213zm0-13.397h36.213v13.397h-36.213zm0-13.397h36.213v13.397h-36.213zm0-13.397h36.213v13.397h-36.213zm36.213 66.986h36.213v13.397h-36.213zm0-13.397h36.213v13.397h-36.213zm0-13.398h36.213v13.397h-36.213zm0-13.397h36.213v13.397h-36.213zm0-13.397h36.213v13.397h-36.213zm0-13.397h36.213v13.397h-36.213zm36.213 66.986h36.213v13.397h-36.213zm0-13.397h36.213v13.397h-36.213zm0-13.398h36.213v13.397h-36.213zm0-13.397h36.213v13.397h-36.213zm0-13.397h36.213v13.397h-36.213zm0-13.397h36.213v13.397h-36.213zm36.213 66.986h36.213v13.397h-36.213zm0-13.397h36.213v13.397h-36.213zm0-13.398h36.213v13.397h-36.213zm0-13.397h36.213v13.397h-36.213zm0-13.397h36.213v13.397h-36.213zm0-13.397h36.213v13.397h-36.213z"/><path d="M340.5 206.013h36.213v13.397H340.5zm0-13.397h36.213v13.397H340.5zm0-13.398h36.213v13.397H340.5zm0-13.397h36.213v13.397H340.5zm0-13.397h36.213v13.397H340.5zm0-13.397h36.213v13.397H340.5zm36.213 66.986h36.213v13.397h-36.213zm0-13.397h36.213v13.397h-36.213zm0-13.398h36.213v13.397h-36.213zm0-13.397h36.213v13.397h-36.213zm0-13.397h36.213v13.397h-36.213zm0-13.397h36.213v13.397h-36.213z"/><path d="M412.926 206.013h36.213v13.397h-36.213zm0-13.397h36.213v13.397h-36.213zm0-13.398h36.213v13.397h-36.213zm0-13.397h36.213v13.397h-36.213zm0-13.397h36.213v13.397h-36.213zm0-13.397h36.213v13.397h-36.213zM14.586 125.63h36.213v13.397H14.586z"/><path d="M14.586 112.233h36.213v13.397H14.586zm36.213 13.397h36.213v13.397H50.799zm0-13.397h36.213v13.397H50.799z"/><path d="M87.011 125.63h36.213v13.397H87.011z"/><path d="M87.011 112.233h36.213v13.397H87.011zm36.213 13.397h36.213v13.397h-36.213zm0-13.397h36.213v13.397h-36.213zm36.213 13.397h36.213v13.397h-36.213zm0-13.397h36.213v13.397h-36.213z"/><path d="M195.649 125.63h36.213v13.397h-36.213z"/><path d="M195.649 112.233h36.213v13.397h-36.213zm36.213 13.397h36.213v13.397h-36.213zm0-13.397h36.213v13.397h-36.213zm36.213 13.397h36.213v13.397h-36.213zm0-13.397h36.213v13.397h-36.213zm36.213 13.397h36.213v13.397h-36.213zm0-13.397h36.213v13.397h-36.213z"/><path d="M340.5 125.63h36.213v13.397H340.5z"/><path d="M340.5 112.233h36.213v13.397H340.5zm36.213 13.397h36.213v13.397h-36.213zm0-13.397h36.213v13.397h-36.213z"/><path d="M412.926 125.63h36.213v13.397h-36.213z"/><path d="M412.926 112.233h36.213v13.397h-36.213z"/></g><use xlink:href="#id-320c" overflow="visible" fill="none" stroke="#E3E3E3" stroke-width=".35" stroke-miterlimit="10"/><defs><path id="id-322e" d="M14.586 222.767s226.157-2.09 289.702-2.09c63.545 0 117.555-2.62 144.85-2.62v43.242H14.586v-38.532z"/></defs><clipPath id="id-323f"><use xlink:href="#id-322e" overflow="visible"/></clipPath><g clip-path="url(#id-323f)" fill="none" stroke="#E3E3E3" stroke-width=".35" stroke-miterlimit="10"><path d="M14.586 240.354h36.213v20.945H14.586zm0-20.944h36.213v20.944H14.586zm36.213 20.944h36.213v20.945H50.799zm0-20.944h36.213v20.944H50.799z"/><path d="M87.011 240.354h36.213v20.945H87.011zm0-20.944h36.213v20.944H87.011zm36.213 20.944h36.213v20.945h-36.213zm0-20.944h36.213v20.944h-36.213zm36.213 20.944h36.213v20.945h-36.213zm0-20.944h36.213v20.944h-36.213z"/><path d="M195.649 240.354h36.213v20.945h-36.213zm0-20.944h36.213v20.944h-36.213zm36.213 20.944h36.213v20.945h-36.213zm0-20.944h36.213v20.944h-36.213zm36.213 20.944h36.213v20.945h-36.213zm0-20.944h36.213v20.944h-36.213zm36.213 20.944h36.213v20.945h-36.213zm0-20.944h36.213v20.944h-36.213z"/><path d="M340.5 240.354h36.213v20.945H340.5zm0-20.944h36.213v20.944H340.5zm36.213 20.944h36.213v20.945h-36.213zm0-20.944h36.213v20.944h-36.213z"/><path d="M412.926 240.354h36.213v20.945h-36.213zm0-20.944h36.213v20.944h-36.213z"/></g><use xlink:href="#id-322e" overflow="visible" fill-rule="evenodd" clip-rule="evenodd" fill="none" stroke="#E3E3E3" stroke-width=".35" stroke-miterlimit="10"/><path fill="none" stroke="#F59900" stroke-width="1.5" stroke-linecap="round" stroke-linejoin="round" stroke-miterlimit="10" d="M158.745 139.027l-.446 2.165h-.486v.787l-1.459 1.574v.788l-4.134.787v.787h-.73v.787h-.729v.787l-6.809.788v.787h-.729v.787h-1.945v.787h-1.216v.787l-4.62-.787v-.787h-.73v-.787l-4.134.787v.787l-3.404-.787v.787l-.973.787v.787h-2.432V153l-.972.787v.787h-2.675v.787l-2.189.787h-2.675l-.73 3.15h-1.701v.786l-1.702-2.361-.244-1.575h-1.459v-.787l-.972-1.574-.243-.787v.787l-.973 1.574v.787l-2.432 2.362-3.404-10.233v-.788l-4.62 2.362v.787L95.075 153l-.972-2.362v-.787h-.244v.787l-.972.787-.486-2.361h-.487v-.787h-.486v-.788h-3.161l-1.703-.787v.787h-.972v.788h-.73v.787h-.73v.787h-2.431l-2.675 1.574v-.787L75.865 153l-2.432 1.574v.787H70.03v.787l-5.107 1.575-2.188-.787-2.189.787-.243-1.575h-.486v-.787l-2.432 1.575-2.918-.788-4.62 2.362v.787h-.487l-.243 1.575h-5.35v.787l-4.133-1.575-2.189.788v.787h-3.647l-.487-.787v.787h-.486l-.486 2.361-3.405.788-.73-.788v.788h-1.215l-.486.787-1.703-4.723v.787h-3.647l-3.161-7.872-.182-.587-.062-.2-3.16 4.723m405.605-86.922v.1h.243v.974h.244v1.17h.243l.486 3.413.73-.098.698-6.018m11.703-2.034v.253l1.216 3.314v1.17H436v1.56h.244l.243 1.95.486 1.755.973-2.047.486.78v.487h.243l.244.878.972.975h.243v-1.658l.244-1.755h.243v-1.755h.243V72.46h.243v-1.755h.243v.098l.487.78h.243v.39h.243v.39h.243v.39l1.459 3.607v.878h.243l.243.487.487.098v.195h.243v1.072h.243v1.658h.243v1.56h.243v.097l.244 1.56.972-4.192h.243l.973 1.56.737-3.769m-290.475 61.463l.122-.073h.486v-.098h2.918v-.097h.73v-.098h1.459l1.216-.585h.486v-.097h.486l.243-.195.973-.098.243-.195h.487v-.097l.73-.098v.098l.729.487.73-.097v-.098h.485v-.097l3.891.39.487-.293h.486l.486-.292 1.216-.39.243-.195h.487l.243-.195.972-.098v-.097h1.46l3.16-1.853h.244v.098l1.216.39v.097l1.459.293.73.682h.486l1.945-.975 1.702.293 3.405-1.365 1.945-.098.243-.292.486-.098v-.195l.487-.097v-.195l1.216-.878.243.195 1.215.78.973-.487 1.216-.098.486-.292h.487v-.098l1.459-.195v.098h.243v.195h.243l.973 1.072v-.097l.973-.098v.098l2.431 1.17.973-.195 1.216-.878.243.195.73.39 1.215-.195 1.216-.78.973.195.243.195.73-.097v-.098h.486v-.097l.973.097 1.702.78 2.431.488 2.432-.585v.097h.973v.098l.973.097.243.195.972.098v.097h.243v-.097l.973-.293v-.097l1.216-.098v-.097h.486v-.098l3.405-.097 1.459.39.73-.195v.097l3.647 1.073 2.431-.195.487.292h.243v.195l.486.098.244.39 1.459.975h.243l.243-.488h.243l1.945-1.17v-.097h.244v.097h.972l.973-2.925h.486l.973.878 1.216-.585 1.216.487 1.459-.097v.097l1.216.975h.73l2.43-1.17.244.098.973.39 1.215-.195 1.216-.683.243.098 1.946.682.486-.097 1.946-.683.972-1.852 1.459.195v-.098l1.216-.78h.973l1.702.293v-.098l1.945-1.267h.243v-.195h.244v-.195h.243l.486-.585h.243v-.292h.244v-.195h.243l.243-.488h.243v-.292h.243l.973-1.073.243.195.73.39h.486l.973-.877.243.097 2.431 1.268 2.918.292v.098h.487v.097h.243v-.097l2.189-.585v-.195l1.215-.683h.487v-.097h.486v-.098l.486.098 2.918-.098 1.46-.975 1.458-.097.487-.585h.243l.243-.39.973-.683.243.195 1.216 1.365h1.459l.973 1.365.486-.097 1.702-1.268h1.46l1.215 1.365 1.459.195.486.293h.487v.097h1.215v.098l1.216.097 1.216 1.463v.487h.243v.585h.244l.486 1.17v-.195h.243v-.487l.486-.878 2.675.195 1.216-2.242h.243l1.216 1.267 1.216.098v.195h.243v.195h.243v.292h.243l.487.488h.73l1.215-.975 1.46.487.972-.975 1.216.098.972-1.463 2.432.195 3.89-1.072.973.195 1.703.487.243-.195h.486l.243-.195.973-.097v-.098l.973-.195.73-.682.485-.098.244-.39.972-.585 2.189-.097.243-.78.973-1.755v-.488h.243v-.195h.243v-.195h.243v-.195h.243v-.195h.244v-.195h.243v-.195l.486-.097v-.195h.243l.487-.293 1.702.488.73-.195v.097l2.188.683 1.459-.78 1.945-1.17 1.702.097 1.216.585h.243v.293h.244v.292h.243l.243.683h.243v-.098l1.216-.975h.243v-.195l.486-.195 2.432.585.973-1.755 1.459.098.973-1.17v-.39h.243v-.293h.243v-.292h.243v-.293h.243l.243-.585h.244v-.195h.243l.486-.877h.243v-.195l1.216-.39.973-1.365 1.945.195.973 1.462.243-.097 1.216-1.268.73-.78h.243l1.702 2.048.73 2.242h.242v.293h.244l.243.39h.243v.195h.243v.292h.243v.39l.73.975h.243l.486-2.145 1.216-.39v-.195h.243l.243-1.267 1.703-3.608v-.487h.243l.243-.585.243.195.973.683 1.459-.78h.243v-.293h.243l1.702-1.56.243.195.973.39.243-.097.73-.39.243.195.973.682.243-.097.73-.683h.242v-.487h.244v-.488h.243v-.487l2.432-4.388v-.39l1.945-1.56v-.097l1.216.195v-.098l.972-.292.244-1.17.972-2.535v-.585l1.216-.293.243-.682h.243v-.293h.244l.486-1.072h.243l.243-.683h.243v-.39h.244l.243-.39h.243v-.097l.73-.098v-.585h.243l.73-7.41.242-2.242h.243v-2.827h.244V74.8h.243v-2.827l.087-.806m2.101-.366v-.68h-.243v-.78h-.243l-.486-1.463v-.585l-.73.098-.243 2.34-.156 1.436m16.448-2.859v-.82h-.243l-.243-2.925h-.243v-1.462h-.243v-1.365h-.244v-1.17h-.243v-1.17h-.243v-1.17h-.243l-.243-2.048h-1.216l-1.702-1.462v-.195h-.243l-.243 3.217h-.244v1.658h-.243v1.657h-.243v1.56h-.243v1.268h-.243v1.072h-.243v.975h-.244v.975h-.243v.098l-.73 1.462-.242.195-1.216-1.657v-.098h-.244l-.243.293h-.243v.195h-.243l-.486.585h-.244l-.274 2.366"/><path clip-rule="evenodd" fill="none" stroke="#94A6B0" stroke-width="1.5" stroke-linecap="round" stroke-linejoin="round" stroke-miterlimit="10" d="M14.586 219.1l4.135-.022 4.621.043v-.021h1.217v-.022l1.459.022v.02h16.296v.022l3.892-.021H90.96l12.161-.021v.02h8.513v-.02h.973v.02l5.351-.042.973-.17 1.216.02v.022l4.865-.107.973-.171 1.46.085.972.022v.021l1.946-.043.243.043h.487v.022l2.432-.022 1.703-.107.973.043v-.021h.486v-.022l5.594.022v.021l1.216.021.973-.042v-.022h.487v-.021l1.46-.171.972-.043v-.021l1.216.021 2.19-.021v.021l3.161.043.73-.086 1.216.022 1.216-.022v-.02l1.216.02v-.02h.244l.486-.215h.243v-.085l1.703-.128h.486l.244-.043 1.216-.086v-.042h.243l.973-.107h.73l.972.064.73-.235h.73l1.946.128 1.46.171 2.431-.064 1.946.278h.243v-.022l1.946-.235 1.46.086 1.702.021.73.086h.486v.021l.73.043.73-.257v-.085l.73-.043v-.043l.486-.021.243-.064h.243v.021l1.216.342 2.433.257.486-.022 2.19-.107.972.064v-.02l1.703-.15 1.946-.022v.021h.486v.022l.486-.022h.487v-.02l1.46-.108v-.043h1.945l.487.065 1.216-.065 2.675.043.973-.256.244.042h.243v.064h.243l.487.172.972-.086 1.703.086v.021l.973-.021.73-.193h.243l1.216-.727h.486l1.217.107.73-.17 2.432.149 1.945-.086v.022h.73v.021h.243l.973.15v.043h.243l.244.042h.486v.022l1.703.106.486-.064h.487l.73-.085h.729l2.432.107v.042l.487.043h.243l.973-.15v-.042h.243l.243-.128h.244v-.043h.243v-.086l1.216-.491h.486l1.946.192.73.043.73.192.243-.043.973-.192h.243v.021h.243v.043l.487.022v.042l.486.022 1.46.256h.73l.972-.192h.243v.021l3.406.428h.486l.486-.107 3.163-.128.486.128h.486l.487-.214 1.702-.021v-.022l1.46-.064 2.432.107v.043l.973.085v.022h1.703v.021h.973l.243.043h.486v.021l1.703-.021.243.043h.486l2.676-.15.73.064 2.432-.064.973-.171 1.216.021v.022l1.46-.022.972-.17 1.703.085v.021h.486v.022l1.946-.022.243.043h.487v.021l2.919.022v.042l.973.086 2.432-.064.73-.128h.73l.972.085v-.021l2.432-.129.73.065 1.216-.364.243.021.973.15 2.19-.064 1.216-.492h.486l.73-.085h.486l1.46-.15.486-.021v-.086h.243v-.064h.243v-.085h.244v-.086h.243v-.107h.243v-.15h.243v-.149h.244v-.17h.243v-.15h.243l.487-.236 1.216.577h1.459l.73.342.243.15h.243l.73-.214.973-.427 1.702.064.973.385 1.216.085 1.217.214 1.459-.043.73.107h.243v.043l.486.021v.043h.244l.486.128h.243v.15h.244v.17h.243v.172h.243l.486.256.487-.213 2.432.042 1.216-.299.244.021.972.171 1.703.107.973.236h.486l2.19-.15.972.064.73-.235 1.46.021.972-.278 2.433.214.243-.021.73-.086 1.945.022.73.085h.487l.243.043.973.021v.022h.486v.021h.973v-.021l2.432-.022 1.946-.064.973.171 1.703-.021.486-.129.973-.406h.73l.73.043v-.021l2.918-.3 1.216.043.73.278h.487l.972-.043v.022l1.217.043v-.022l1.216-.021 3.891.278 5.108.021.973-.128 2.919.085v.022l1.702.085 1.46-.107v-.021h.73l2.918.085.973-.256v-.064h.243l.973-.128 1.946-.086.73.235 1.216-.128.243.021.973.15h.487l.486-.107 2.432-.107.487-.17v-.086h.243l.486-.171.244.021.973.15h.486l3.648-.257v.043l.73.064h.487l1.946-.15h.243l.243-.128h.243v-.043h.243l.973-.662.73.064h.243l.243.064h.487l2.676-.428 1.216.535.243-.022.243-.064h.243v-.128h.244v-.128l.73-.364h.486v-.021h.486l.243-.043h.487v-.021h.486l1.46-.235.243.021 2.919.427h.486l2.19-2.97h.242v.042l.487.085h.243v.064h.243l.243-.513v-.299h.244v-.705h.243v-.684h.243v-.706h.243v-.427l.244-.684.243-.535.243-1.774.243-.599.243-.855 1.703-.192.243-.022v.235l.73.47.73-.662h1.216l1.216-.812v-.3h.243l.243-.448v-.278l.244-.62h.243v-.45h.243v-.02l.243-.236.487-.021.73.556h.243v.17h.243v.3h.243v.385h.243v.406h.244l.243.556.486.278.973-.107v.47l.244.534v.086h.243v.62h.243v.62h.243l.243.32.73-.705h.243l.487.192v.107h.243l.486.214.487-.021.243-.193h.243v-.192h.244v-.171h.243v-.192h.243l.486-.342.487.491h.243v.15h.243v.171h.244v.15h.243l.486.513h.244v.17h.243v.172h.243v.128h.243v.085h.244v.086h.243v.085h.243v.086h.243l.73 1.304h.486l.487-.556h.243l.973.064v-.043l.145-.165"/><path clip-rule="evenodd" fill="none" stroke="#2DB7BC" stroke-width="1.5" stroke-linecap="round" stroke-linejoin="round" stroke-miterlimit="10" d="M14.586 218.875v-.177l2.915-.118v-.059l3.206.06h15.738v-.06l9.326.06 16.613-.06h3.497v-.059h.583v-.059h2.915v.06l7.577-.06h3.498v-.059h1.166v-.059h2.04v-.058h.583v-.06h1.165v-.058h1.166v-.06l.874.06 3.498-.06v.06h.874v.059h.583v.059l4.955-.295v-.118l1.166-.177v-.059h1.457l2.331-.884 1.458.06v.058l1.166.295.874-.295 4.08.118.583-.118v-.118h.292l.291-.295h.291l.292-.176.874.059.292.117h1.748v.06l1.75.058 1.456-.235 2.04.117v.06h1.166v-.06l1.749.118.874.236 2.623-.059v.06l1.458.058v.059h1.457v-.059h.583v-.059l4.663-.059 1.166-.295.874.06v.058l4.372-.059v-.059h.583v-.059h.291v.06l1.749.058v-.059h.583v-.059l2.04.06v-.06h1.166v-.058l2.914-.06.583-.176h.292l.291-.236 2.04-.766 1.166.118v-.06l1.166-.412 2.914.06.583-.178h.292l1.165-.825.292.118.874.295h.583l.874-.177v.059l2.04.236.292.117h2.915v-.058l1.165.058v.06l4.372-.295v.059l1.749.176 1.166-.353 1.165-1.533 1.166.06v-.06l.583-.589h.292v-.295h.291v-.235h.291l.583-.354h.292l.291-.354h.292v-.176h.291v-.177h.292v-.177h.291v-.177h.292v-.236h.291l.583-.589h.291l1.458.943v.236l1.457.707.583-.059.874-.53h.291v-.354h.292v-.413h.291v-.353h.292v-.413h.291v-.471l.875-1.356h.583l.291.177h.291v.118l.583.059v.118l.583.059.292.176.583-.059 1.748-.53h.292v-.295h.291l.583-.589v-.059h.874v-.059h.292l1.166-1.12.291.118 1.457.472v-.06l.875-.47 1.165-1.003v-.648h.292v-.648h.291v-.649h.292v-.412h.291v-.177h.292l.291-.236h.292l1.166-2.947h.29l1.75.766.291.649h.292v.59h.291l.292.706h.29v-.059l2.041-.943v-.235h.292l.29-.413h.292l1.166.943 1.458-.295v.118l.874.413h.291v.177h.292v.235h.291v.295h.292l.583.59v.059h.874l1.457-.177.874 1.06v.354h.292v.354h.291v.236h.292l.291.53h.292v.295h.291l.583.59.874-1.062v-.471h.292v-.413h.291v-.471h.292l.583-.708.583.708.582 1.06h.292v.177h.291l.292.236h.291v.177h.292v.177l.874.471h.291v-.236l.583-.589 4.664.707v-.059h.874l1.166 1.238.583-.177v-.059h.291v.118l.874.413h.292v.177h.291v.294l1.458 1.71h.291l1.166-1.65h.291l1.458 1.001v.177h.29v.118h.292l.583.354h.292l.291.648 1.166 1.06h.292l.874-1.06v-.413h.291v-.53h.292v-.472h.291v-.471h.292l.583-.884.583.825.582.766.875-1.238h.291l.583.472h.583l.583-.649 1.457.177v.06l1.749.117 1.166 1.238 2.331.059.292.118h.291v.177h.583l.874-.708h.292l.874.59.874-.177h.292v-.354l1.166-1.002 1.748.354.583-.236 1.166.059.874-1.591h.292l.583-.354h.291v-.118l.583-.059v-.118l.874-.117v-.118h.292l.874-1.356 2.04.06.583-.119v-.118h.292v-.177h.291v-.176h.292l.291-.177 1.457.059v.059h.292l.291.294h.292l.291.177 1.166-.059v.06l.874.353.292-.118h.291l.292-.413 3.788.472v-.059l2.624-1.591.291.118.874.353 1.166-.059 1.749-.648h.583v-.06l.874-.117v-.118h.292l.874-.825 1.166.059v-.059l.583-.59h.291v-.353l4.955-1.297.874 2.24.874-.177h.583l.583 1.415.583 1.002 1.457-1.65 2.04.53h.292v.412l.874.885 2.04.235v.06h.875l1.749.235.582.471h.292v.236h.291v.236h.292v.53h.291v.708h.292l.291.707.583-1.12h.583v.118l1.457.177v-.06l.583-.706.874-1.592h.583l1.166.825h1.457l1.166 1.297v-.059l1.749-1.414 1.457.176 1.166-.707 1.166.236v-.118h.291v-.295h.292l.583-.59 2.331.767.292-.059.874-.294 1.457-.06 3.498.708 1.165-.354v-.118h.292v-.176h.291l1.749-.413v-.059h.291v.059h.583v.059h.583l1.166.59h.874l2.332-.295.874-1.71.875-.059v-.059h.583v-.058h.291v.058l2.332.295.582.472h.292v.235h.291v.236h.292l1.166.118v.06l1.165.176v.118l.875.118.291.117h.583v.06l2.623.707.292-.118h.291v-.177h.291l.292-.177 3.206.06.583-.06v.06h.583v.058h.291v-.059l.583-.295h.292v-.117h.29l.292-.118 1.166-.118.292.059 2.914 1.002.292.059.874-.884 2.332.294.291.118 1.457-.059v.06l.875.058v-.059h.291v-.236h.291v-.176h.292v-.177h.291v-.177h.292v-.177h.291v-.177h.292l.291-.294h.292v.117h.291v.295h.292l.582.648v-.058l1.166-.59.292.118.874.295.292-.06 1.748-1.414 1.166.06.291.117h2.332l1.457-1.002h.292v-.118h.291v-.177h.292v-.176h.291v-.177l.874-.413.875.354.291-.118.583-.53h.292v-.295h.291v-.236h.292v-.295h.29v-.235h.292v-.295h.292v-.472h.291v-.884h.292v-.825h.291l.292-1.591h.583v.118l.874.177 2.623-.413v.059l1.166.413h.291l.875 2.003h.29v-.117l.584-.59.874-1.179h.583v.118l.874.177h.583l.583-.118v-.118h.292l.874-.294.291.118.875.412h.291v.118h.292v.177h.291v.353h.292v.53h.291v.531h.292l.291.59.291-.118.583-.707h.292v-.354h.291v-.354h.292v-.235h.291v-.236h.292v-.295h.291l.583-.471.874 1.002.292-1.71h.291l.292-1.12.291-1.296v-1.591h.292v-1.592h.291l.291-2.829h.292v-.766h.291v-.766h.292l.291-1.415h.292l1.457.354h.291v.118h.292l.583.235v-.058l.874-.472h.292l.291-.53h.291v-.236h.292v-.59h.291v-1.001h.292v-1.002h.291v-1.002l.292-.118v-.59h.291l1.166-.943.874.236.583.06v.117l.583.059.292.236h.29v.117h.292v1.356l.292 1.12.291 1.71.292 1.414.291 1.414.292-1.06h.582l.584.412h.29v-.472l.584-1.296h.291v-.649h.292v-.53l.874-1.591h.583l1.457.884v.235h.292l.583.708v-.06h.291v-.235h.292v-.236h.29l.584-.471v.118l.291.589v.059h.292l.583 1.002.583-1.768h.29v-.177h.292l.292-.472h.291v-.648h.292l.291-2.829h.292"/><path clip-rule="evenodd" fill="none" stroke="#6E9ED4" stroke-width="1.5" stroke-linecap="round" stroke-linejoin="round" stroke-miterlimit="10" d="M14.586 218.875l2.68-.093v-.092l1.217-.093v.093H19.7v.092h8.768l4.627-.092h3.166l8.767-.093 2.192.093 6.088-.093v-.092l2.436.092h3.653l.73-.092 6.332.092v-.092h1.218v-.093h3.653v-.092h.974v-.093l.73.093h2.923v-.093h.73v-.092h.731v-.093l5.115-.093.243-.185h.487l1.218-.555h1.461v-.092h.487v-.093h.487v-.092h.244v.092h.73v.093l2.68-.093v-.092l2.435.277 2.191-.463 1.218-1.203h.487v-.092h1.949l.243-.278.487-.092v-.185l1.705-.556 1.705.278.487-.185v-.185h.243l1.461-.648v.093h.975l.243.185 2.192.462h4.14l.244.185 1.46-.092 1.219.555 1.46-.185v.093h.975v.092h.487l.73.37h.488l.487.278 1.46.185.975.463.487-.093h.487l.73-.37 1.705-.37.731.092.487.278 3.897.093 2.435.185.73-.37h.488v-.093l2.435-.093v-.092h.73v-.093h4.14l2.68.093v-.093h1.217v-.092l.731.092h1.705v-.092h2.922l.244-.185 1.948-.185.974-.926 3.897.555v-.092l.974-.093v-.092h2.922v-.093l.974-.092.488-.278.73-.092v.092l4.14.74v-.092l1.462.185v.092l3.896-.277.244.185 1.948.278.487-.278h.487l.73-.37.975-.093v-.092l1.948-.093 4.14-2.036.974 1.203v.185l1.462.463.487.37h.73l.487-.092 2.436-.926v-.185l1.217-.37v-.092l1.461-.093.244-.185 2.68-.278v-.092h1.947v-.093l1.949.278.73-.093v-.092h.487l.244-.185.974-.093v-.092l.974.092v-.092h.244v-.463l.974-1.666h.243l.974 1.11h.244v-.092l.974-.648.244.185 1.46 1.204h.975l.487-.093.487-.278h.244v-.185h.243v-.185h.244v-.185h.243v-.185l.487-.093 2.192-.925 1.705.555h.244v.185h.243l.244.185h.73l1.705-.37v.093l1.218.648 2.435.462.244-.277h.243v-.185h.244l.73-.185v-.093h.73l.244-.093v.093h.487l.244.185 1.948.185v.185h.244l.487.37v-.092l.974-.278v-.185l.974-.277.244-.186 1.217-.185v-.277h.244v-.278h.243v-.278h.244l.974-.555v-.092l1.218-.093.73.926v-.093l.975-.74.243.185 3.653 2.22.974-.925.244.185 1.217.556 1.462.462.243.463h.244v.185h.243v.278h.244v.185h.243l.244.278h.243v-.093l.488-.463h.243v-.185h.244v-.185l1.46-.463 1.218.186.975-2.036 1.704.37.975-.556 1.217.186v-.093l1.218-.555.243.185.975.37v.093h2.435l.974.462h1.461v.093h.244l.73.555 2.436-.648 1.461.093v-.093h.73v-.092h1.462v-.093l.974-.092v-.093l1.461.185.487-.277h.487l1.218-.556 2.435.37 2.436-.462 1.948.462v-.092l1.218-.093v-.092h.243l.974-1.573 2.68.277.973-3.053 1.462-.278.974.37.243-.092.975-.278v-.093l1.217-.185v-.185h.244l.974-.833h.974l1.461-4.904h.244l1.46 2.313.975.185.73-.185v-.092l1.218-.37v-.185l1.218-.37v-.186h.243v-.185h.244v-.185h.243v-.185l.488-.093v-.185h.243v.093h.244l.487 1.48h.243v.556h.244v.463h.243l1.218-.278 1.218 2.036.243-.093 1.218-1.573 1.705.093 1.217.925.975.185v.093h1.46v.092l1.462.278 1.218-.37 1.217 1.48.487 2.221h.244v-.092l.487-1.018h.244v-.37h.243l.244-.37.487-.093v-.185l.487-.093v-.185l.487-.092v-.185l.487-.093 1.461-1.666 1.461.648v-.092l.975-.648 1.46.277.975-.555h.243l.731-.462.244.185.974.925.243-.093.974-.647 1.462.277v-.092l.974-.555.243.185 2.192 1.017 1.461.093 3.166 1.758.73-.092v-.093h.488v-.092l2.192-.093v-.092l1.461-.186v-.092h.244v.092l2.191 1.203 1.218-.277v-.093h.487v-.092l.73-.093v.093l1.218.185 2.192-1.296.73.093v.092h.488l1.461.648h.487v.093l3.41.37 2.191.925h1.705l1.461-.925.731.092.487.278h1.461l1.949.555h.243v-.092l.974-.278v-.092l1.462-.093 3.652 1.11.975-.74 2.679.37.974-.277v-.185l.487-.093.243-.37h.244v-.278h.243v-.277h.244v-.278h.243v-.278h.244v-.185h.244v-.185h.243l.974-.462h.974l1.218-.74 1.218-8.514.73-.093v.648l.244.833.974 2.683h1.461v.093l2.436-.093.243-.092.487-.925h.244v-.37h.243l.244-.463.974.37v-.093l.243-1.388h.244v-1.388h.244v-1.388h.243l.244-2.221.73-.092v.647h.244v.833h.243l.487 1.48.731-3.423h.487l.974 1.203h.244l.487-.093 1.461-4.257h.244l1.217 1.111 1.218-.278v.093l.974.277 1.218-2.498.487-3.054h.243v-.925h.244v-.833l1.217-2.036h.244l1.218 1.48.73.093v.093h.244v-.093l1.218-.37v-.185h.243v.092l.487.833h.244v.463l1.948 4.812h.73l.975-2.036.73-.092v-.093l1.218-.092.244.555h.243v-.463l.244-.925h.243v-.926h.244v-.925h.243l.244-2.036v-1.018h.243l.244-1.758.243-1.85.244-1.76.244-1.943h.243l.73 1.759.488.925.73-1.666.487-.925.975 1.388.243-1.388h.244v-.925h.243v-1.018h.244v-.926h.243v-1.018h.244v-1.018h.243v-1.017h.244v-.926h.243v-.925h.244v-.648l.974-1.85v-.649h.244l.73.278v-.833l.244-3.054h.243v-3.053h.244v-3.054l.243-2.314.244-2.59.73-.093v.555l.488 1.388h.243v.648h.244v.74l.243 2.129h.244v2.96h.243v3.055h.244v2.961h.243v.462l.244 1.296.487-2.499h.243v-.555h.244l1.218 4.072h.73l.244-1.11h.243v-.926h.244v-.833h.243v-.833h.244l.487-1.388.73 1.759v.555h.244v.555h.244v.555h.243v.37h.244v.463h.243v.37h.244v.463h.243v.185l1.218.37v1.018h.244v1.573h.243v.926l.244 2.22h.243v.463h.244l.487-1.85h.243v-.185h.244l.487-.556h.244v-.555h.243l.571-7.588"/><path clip-rule="evenodd" fill="none" stroke="#816070" stroke-width="1.5" stroke-linecap="round" stroke-linejoin="round" stroke-miterlimit="10" d="M14.586 261.25v-.359c1.037.065 2.096.112 3.151.116.99.004 1.89-.093 2.846-.086 1.063.008 2.127.06 3.196.065.515.003 1.037.008 1.552-.001.49-.009 1.065-.1 1.525-.094 0 .153 2.41.127 2.982.09h.596c-.085-.075-.042-.105.128-.09.17-.015.213.015.128.09h.91c2.112 0 4.222-.002 6.333.006 2.06.008 4.126.021 6.183-.028 2.022-.048 3.932.022 6.001.022.89 0 2.467.105 3.28 0 .346.031.53-.029.554-.18h.384c.1-.02.535-.092.639-.09-.335-.007.911.156.852.15.477.051.314.083.735.12.974.086 2.38 0 3.398 0 1.23 0 2.477-.023 3.706 0v-.09c.213-.03.298-.015.256.045.012 0 .754.045 1.022.045.477 0 1.061.032 1.534 0-.155.01.666-.19.511-.18.396-.027.877.003 1.278 0 .255-.002-.03-.093.256-.09 0 .196 1.808.055 2.3.09.256-.03.341 0 .256.09h.511c-.085.095.014.125.298.09h7.158c.824 0 2.22.098 2.982 0 .502-.065.484-.14 1.065-.18.49-.033 1.039.024 1.534 0-.025.001.144-.084.473-.08.14.002.204.075.294.08.556.03 1.276 0 1.84 0 .415 0 1.227.089 1.227-.09.472-.032.27.092.511.09.426-.003.853 0 1.278 0 .759 0 1.597-.098 2.301-.09 0 .26 3.121.008 3.556.008.61 0 1.208.116 1.833.115.638 0 .946-.11 1.598-.183.621-.07.48-.15 1.065-.03h.383l.256.18c.18.027 1.04.017 1.278 0 .422-.03.098-.086.511-.09-.09 0 .253.126.575.09.407-.045.406-.135.874-.18.366-.035.852.101.852-.09.723.021 1.744.118 2.454.072.507.082.797.028.869-.162.18-.03.367-.043.56-.039.453-.012 1.74.33 1.74.13.751.131 1.523.09 2.352.09h1.227c-.085-.09 0-.12.256-.09-.085.124.1.154.554.09h1.107c.433 0 1.662.083 1.662-.09.557-.039 1.098.175 1.65.123.296.012.47-.03.523-.124.066-.113.279-.143.639-.09v-.09c.205-.025.412-.03.621-.016.694-.005 1.194.105 1.935.08.839-.03 1.885.01 2.3-.064 0 .145 3.068.145 3.068 0 .271.024.748.102 1.022.09l.256-.18h.843c.462 0 1.969-.072 1.969.09.515-.013 3.323-.015 3.323-.18.903.106.366.08 1.022-.09-.074.02.807-.093.779-.094.44.026.716.185 1.179.195.313.03.428-.003.343-.1h.511c.36.053.573.023.64-.09.053-.105.237-.135.553-.09.8-.076 1.335-.09 2.29-.09h.863v-.09c.556-.035 1.17.037 1.725 0 .456-.03.53-.088.83-.09v.09h1.79l.256-.18c.354.058.541.037.562-.062a.598.598 0 0 1 .19-.169c.584-.197.912-.3 1.804-.308 0 .255 1.15.053 1.534 0-.086-.095.014-.125.298-.09h.895c.44-.07.639-.055.596.045-.042.073.085.093.382.06.602-.021.844-.228 1.36-.264.6-.041 1.278.111 2.092.159 0-.174.222-.02.512-.09l.255-.18c.323.05.536.027.64-.067.513-.157.619-.249 1.306-.339.61-.08.97-.127 1.377-.313h.256l.085-.21c.122-.131.03-.291.17-.42h.256l.192-.27c.122-.107.169-.093.32-.18.188-.108.243-.18.39-.352.063-.072.229-.337.376-.367.67-.138 1.143.107 1.564.212.267.067.899.201 1.12.238.248.04.464.124.895.022.385-.091.277-.2.532-.34.242-.132.91-.438 1.45-.475.57-.04.561.046.97.124.084.017.252-.027.34-.002.138.039.46.209.542.221.544.083 1.153-.033 1.534.09.423.137.517.288 1.278.36.04-.144.133-.231.256-.36.362.03.447-.037.255-.202v-.203c0-.396.299-.632.384-1.079.035-.188.005-.393.11-.578-.075-.094.017-.126.273-.096v-.45c.234.03.324.006.27-.073.01-.13-.318-.256-.27-.376.568 0 .446-.877 1.022-1.08 1.487.798 3.902-1.337 5.113-1.528.454-.072 1.43-.005 1.8.076.186.023.354.057.5.104-.17.15-.085.21.256.18.29.405.09.872.511 1.169.237.166.256.3.256.54v.269c-.085.09 0 .12.255.09.199.14.27.919 1.279.81.185-.021.616-.264.824-.331.295-.096.872-.338 1.22-.39 1.312-.19 1.84.382 2.301.72.647-.228.927-.674 1.223-.978.111-.113.213-.374.526-.446.162-.038.963-.026 1.233-.015.86.036.58.052 1.26.214 1.678.403 1.418-.577 2.366-.763.547-.108 1.403-.04 1.828.1.56.184.5.653 1.014.704.7.07 1.433-.18 2.227-.072.324.044.517.095.635.177.11.075.011.406.213.45.65.14.638-1.13 1.986-.392.14.076.331.274.494.315.316.08.34.028.743-.028.8-.112.566-.2 1.146-.016.268.085.394.312.71.373.226.043.543-.01.8.017v.09l1.023.09c0-.173.34-.021.594-.141.165-.078-.031-.168.122-.245.397-.198 1.128-.18 1.68-.099.126.019.243.12.403.15.594.106.391.03.75-.063.654-.167.936-.422 1.82-.5 0 .15.513.19.788.303.13.054.208.126.34.177.47.18.077.1.712.185.598.08 1.404.022 1.968.125.482.088.94.32 1.431.468.248.075.679.175.895.27.128.056.027.152.192.225.255.112.617.231.958.224.74-.015 1.23-.435 2.214-.353.42.035.519.171.825.293.44.175.422.157 1.21.226.468.042.746.078 1.056.172.278.083-.066.2.447.202.442 0 .246-.096.449-.206.293-.158.506-.328.837-.48.33-.153.805-.227 1.11-.363.378-.167.547-.6 1.242-.575.45.016.921.403 1.18.473.368.099.989.112 1.395.222.442.12.592.386.944.48.485.128 1.584.05 2.18.16.535.099.744.25 1.064.42.237.125.457.22.59.296.054.03.143.22.128.202-.023-.029.259.092.277.104.232.15.092.387.652.195.227-.079.137-.233.474-.317.812-.203 1.484.271 2.173.422.364.08.763.136 1.144.205.271.05.583.088.822.156.17.048.425.221.593.247.369.057.53.025.677-.187.11-.158.028-.323.162-.48.117-.135.213-.024.375-.165.211-.183.02-.198.49-.27.497-.076 1.244.018 1.6.064.424.056.186.17.658.071.31-.064.23-.234.352-.404.126-.178.438-.62.926-.63.547-.01.493.287 1.023.27 0-.167.85-1.072 1.278-1.169.469-.106.767.085 1.022.135l.128.067c.103.095.316.118.64.068v.09h.51c.415.046.677.047 1.073.127.255.051.41.128.696.172.963.146.937-.15 1.74-.26.661-.089 1.441-.007 2.117-.04.344-.016.675-.068 1.02 0 .64.128.211.273.924.231.177-.01 1.325-.282 1.377-.32.065-.048-.09-.161 0-.203.039-.018.493-.141.511-.157.122-.101-.075-.251 0-.36v-.18h.256c.269-.487.14-1.27 2.152-1.383.436-.025.83.043 1.201.054.041 0 .113.072.17.073.418.013.146-.074.311-.092.454-.052.286.027.64-.09.16-.054.283-.2.383-.27.169-.119.354-.238.51-.36h.257v-.18h.127c.28.015.351-.055.213-.21.092-.098.025-.217.128-.314.164-.155.34-.157.43-.388.084-.216.2-.695 1.147-.526.232.041.291.205.59.255.172.028.248.013.432.015-.494-.005.941-.212.383-.09.163-.036.302-.033.448-.068.118-.028.104-.16.192-.202.358-.17.86-.234 1.278-.27.807-.07 1.088.044 1.533.24.118.052.484.107.512.12v.18l.51.09v.09c-.076.08.01.124.256.134.323.024.408.099.256.225h.256c.28.197.02.169.51.27.259.053-.294.04.256.105.389.045.916.011 1.279.075.245.043.048.172.385.182.21.007.341-.041.534-.05.607-.024.669-.084 1.126.003.452.085.925.32 1.533.404 0-.204 1.342-.474 1.617-.708.198-.17.307-.42.997-.436.523-.013.613.313.965.447.475.182.612.172 1.406.203l.575.022c.484.087.7.048.645-.118.188-.105.165-.26.368-.373.204-.113.449-.167.738-.25.163-.047.51-.175.732-.188.81-.047.963.21 1.552.28.33.04.525-.034.953-.128.614-.134 1.315-.227 1.939-.358.644-.135.824-.208 1.061-.416.221-.195.563-.256.795-.527.254-.296.405-1.039 1.092-1.246 1.37-.414 2.29.482 2.33.804.02.148-.019.496.6.54.634.044.147-.105.535-.2.27-.067.437-.105.783-.135 0 .027.216.241.255.27v.18c.226-.03.328-.004.307.076.147.226-.055.46.46.643.442-.308 1.009-.626 1.972-.752.753-.099.979-.021 1.351.212h.256v.18l.511.09v.18c.028.015.3.047.406.103.02.01-.01.045.004.051.1.044.239.078.357.116v.09h.511c.094.025.114.104.322.154.166.04.374.061.53.107.386.112.529.293.85.384.584.166 1.35.068 2.012.142.798.09 1.03.394 1.271.606.222.196.174.255.383.427.166.137.104.296.256.517.099.144.35.275.386.52.033.22-.086.47.38.65 0-.143.145-.027.257-.09.065-.038.147-.39.127-.36.069-.106.291-.544.512-.63.876-.341 1.266.222 2.172.09.354-.051.815-.764.986-.925.257-.24.36-.63 1.167-.454.378.082.803.34 1.16.46.42.14.868.271 1.23.431.308.136.46.395.764.503.168.06.462.128.828.075.4-.058.19-.115.472-.217.266-.095.496-.208.932-.213.502-.006.514.15.985.145.176-.002.562-.244.765-.335.484-.218.564-.133 1.277-.19.715-.055.603-.259 1.193-.359a77.394 77.394 0 0 1 1.278-.09c0 .187.484.06.852.09.813.066.164.024.604.082.751.1.473.114 1.204-.051.578-.13 1.286-.239 1.81-.138.663.127 1.135.588 1.793.737.343.077.45.058.894.09-.085.12.085.15.512.09v.09c.323-.05.536-.028.639.067l.383.202c-.075-.025.935.118.922.118.377.005.697-.079 1.063-.08h.385c.375-.01.523.037.442.142.593.16 1.03.378 1.79.45 0-.389 1.748-.823 2.81-.72.403.04.577.236 1.128.206.613-.033.462-.199 1.03-.241.606-.046.993.163 1.572.143.644-.023.972-.222 1.46-.332a4.44 4.44 0 0 1 .977-.123c.657.004.602.126 1.184.173.36.03.62-.07.955-.075.615-.01.47.04.855.07h.639c.41-.045.638.015.681.18.38.04 1.534.052 1.534-.09-.104 0 .872.103.767.09.806.103.242.03.798.158.108.062.183.13.224.2.42.059.622.017.607-.124.2-.049.188-.143.48-.191.548-.092 1.95.18 2.492.316.05.134.25.21.602.23.193.022.39.036.592.042.516.03 1.05.016 1.569.003.463-.012.923-.036 1.385-.054.75-.03.906-.05 1.455.075.143.033.74.197.832.25.342.196.22.27.467.443h.255v.27c.09.045 1.028.152 1.223.168.748.059 2.13.013 2.706-.134.672-.171.958-.54 1.999-.553.68-.009 1.116.3 1.77.046.552-.215.415-.469.738-.696.34.03.426-.03.255-.18-.17-.135-.128-.195.128-.18a.81.81 0 0 1 .68-.246c.148.012.383.12.471.165.067.05.107.103.122.158.071.113.286.177.644.193.211.087.034.278.256.36.336.124.59.111.97.188.3.061.381.126.648.191.014.175.212.21.595.107a4.12 4.12 0 0 0 .54-.133c.427-.099.148-.184.739-.208.487-.02.873.16 1.365.124 0-.19.877-.108 1.278-.18.4-.07.106-.208.782-.212.215-.001.341.037.528.063.31.043.492.166.867.152.186-.007.434-.166.635-.212.36-.083.934-.06 1.278-.15.186-.05.403-.242.744-.317.481-.105.824-.158 1.205-.039.427.134.21.236.848.293.375.034 1.037.029 1.037-.117l1.278.18c0-.202 1.156-.32 1.587-.452.566-.173.314-.123.97-.178.492-.04.76-.01 1.15-.09 1.174-.242 1.193-.844 2.684-.989 0 .118.289.363.4.501l.11.129c.342-.03.427.03.256.18h.256l.256.27c.724-.128.826-.317 1.278-.54.451-.023.664-.113.639-.27-.026-.157.187-.247.639-.27-.17-.15-.085-.21.255-.18-.17-.15-.085-.21.256-.18.239-.167.045-.206.256-.382.315-.262.783-.51 1.738-.804.788-.243.802-.515 1.84-.612 0 .153.318.335.39.506.058.141.007.25.122.393h.255v.203c.162.134.27.433.384.607.02.03.218.254.255.36.079.22-.136.36.64.36-.026-1.799.118-3.596.324-5.392.176-1.538-.006-3.053.011-4.59.008-.638.431-1.26.431-1.889 0-.737-.244-1.489-.054-2.224.043-.166.024-.63.674-.53.703.109.404.64.366.831-.123.607.176 1.228.133 1.845-.028.42.24.696.438 1.002.283.439.112.98.163 1.43.056.498.07.993.07 1.49 0 .256.129.267.319.473.23.247-.21.54.703.54-.015-.447.04-.896.307-1.333.24-.395-.01-.798.204-1.186.341.03.426-.03.256-.18v-.36h.256v-.359c.34.03.426-.03.255-.18.33.03.443-.03.34-.18l.171-.36c.141-.046.302-.064.482-.053.45-.112.577 0 .789-.236.148-.165.115-.388.232-.552.259-.366-.107-.788.287-1.136.316.028.443-.029.379-.172a1.5 1.5 0 0 0 .152-.35c.059-.177.074-.355.126-.53.028-.096.077-.614.365-.657.253-.038.823.142 1.023.18 0-.16.156-.028.284-.19.099-.125.076-.27.113-.4l.256-.899c.07-.246.21-.364.37-.534v-.135h.255v-.27h.255c.123-.26.169-.26.384-.45.166-.146.176-.306.383-.45h.128c.29.016.34-.057.146-.218.081-.12.027-.32.036-.436l.092-1.092c.046-.556.138-1.107.245-1.66.098-.509-.273-1.038.12-1.539h.128c.29.015.332-.057.128-.216.064-.125 0-.3 0-.432 0-.358.255-.415.255-.728 0-.583.207-1.037.512-1.52.158-.25-.095-.535 0-.79-.021.055.233-.095.255-.15.025-.062-.04-.252.022-.304.315-.257.571-.095 1.256-.176.697-.083.253.153.52-.202.122-.16.085-.35.177-.516.271-.487.126-.956.326-1.44.06-.146.216-.415.403-.546.642-.45.668.083.718.345.22 1.162.242 2.321.414 3.482.068.457.427.887.397 1.348-.015.223-.217.528-.015.741.403.425.396.048.451-.206.124-.562.577-1.116.7-1.67.073-.337 0-.69 0-1.028 0-.316.255-.446.255-.814 0-.31.255-.426.255-.785 0-.284.004-.653.128-.867.07-.121.127-.678.358-.81.167-.095 1.304-.141 1.304.09l.767-.09c0 .225.657-.009 1.022.09.119.032.126.246.17.3.209.256.135.059.392.348.133.148.089.34.128.494.084.325.332.372.332.747 0 .27.08.286.767.36-.013-.534.125-1.07.371-1.596.102-.218.313-.435.396-.653.11-.286-.17-.607 0-.89.094-.156.36-.322.425-.588.015-.063-.035-.212.066-.266.432-.228.474.024.616.127.302.22.214.612.265.858.071.34.108.68.13 1.02.02.302-.148.669.03.96.041.067-.015.377.513.218.112-.034.034-.454.04-.534l.152-2.029c.016-.22-.176-.778.255-.854.531-.094.545.07.761.166.11.05.492.514.837.373.133-.054-.042-.286 0-.36.146-.256.213-.179 1.023-.179"/></svg>