<svg xmlns="http://www.w3.org/2000/svg" xmlns:xlink="http://www.w3.org/1999/xlink" viewBox="0 0 476.253 290.885"><text transform="translate(465.667 265.883)" fill="#ECECEC" font-family="'Roboto'" font-size="8">0</text><text transform="translate(.035 279.625)"><tspan x="0" y="0" fill="#ECECEC" font-family="'Roboto'" font-size="8">January </tspan><tspan x="6.537" y="9.092" fill="#ECECEC" font-family="'Roboto'" font-size="8">2017</tspan></text><text transform="translate(35.358 279.625)" fill="#ECECEC" font-family="'Roboto'" font-size="8">February</text><text transform="translate(76.408 279.625)" fill="#ECECEC" font-family="'Roboto'" font-size="8">March</text><text transform="translate(116.264 279.625)" fill="#ECECEC" font-family="'Roboto'" font-size="8">April</text><text transform="translate(153.406 279.625)" fill="#ECECEC" font-family="'Roboto'" font-size="8">may</text><text transform="translate(188.911 279.625)" fill="#ECECEC" font-family="'Roboto'" font-size="8">June</text><text transform="translate(227.886 279.625)" fill="#ECECEC" font-family="'Roboto'" font-size="8">July</text><text transform="translate(15.581 13.696)"><tspan x="0" y="0" fill="#ECECEC" font-family="'DIN Pro'" font-size="16">Mining’s efficiency graph in 5 examples</tspan><tspan x="0" y="18.91" fill="#F59900" font-family="'Roboto'" font-size="12">°</tspan><tspan x="4.471" y="15.91" fill="#F59900" font-family="'Roboto'" font-size="12"> Zcash </tspan><tspan x="49.553" y="18.91" fill="#6E9ED4" font-family="'Roboto'" font-size="12">°</tspan><tspan x="54.023" y="15.91" fill="#6E9ED4" font-family="'Roboto'" font-size="12"> Monero </tspan><tspan x="107.32" y="18.91" fill="#2DB7BC" font-family="'Roboto'" font-size="12">°</tspan><tspan x="111.791" y="15.91" fill="#2DB7BC" font-family="'Roboto'" font-size="12"> Bitcoin</tspan><tspan x="152.414" y="15.91" fill="#816070" font-family="'Roboto'" font-size="12"> </tspan><tspan x="161.361" y="18.91" fill="#94A6B0" font-family="'Roboto'" font-size="12">°</tspan><tspan x="165.832" y="15.91" fill="#94A6B0" font-family="'Roboto'" font-size="12"> Ethereum </tspan><tspan x="229.318" y="18.91" fill="#816070" font-family="'Roboto'" font-size="12">°</tspan><tspan x="233.789" y="15.91" fill="#816070" font-family="'Roboto'" font-size="12"> Litecoin</tspan></text><text transform="translate(258.22 279.625)" fill="#ECECEC" font-family="'Roboto'" font-size="8">August</text><text transform="translate(288.123 279.625)" fill="#ECECEC" font-family="'Roboto'" font-size="8">September</text><text transform="translate(330.064 279.625)" fill="#ECECEC" font-family="'Roboto'" font-size="8">October</text><text transform="translate(362.446 279.625)" fill="#ECECEC" font-family="'Roboto'" font-size="8">November</text><text transform="translate(400.276 279.625)" fill="#ECECEC" font-family="'Roboto'" font-size="8">December</text><text transform="translate(439.617 279.625)"><tspan x="0" y="0" fill="#ECECEC" font-family="'Roboto'" font-size="8">January </tspan><tspan x="6.537" y="9.092" fill="#ECECEC" font-family="'Roboto'" font-size="8">2018</tspan></text><text transform="translate(465.667 242.253)" fill="#ECECEC" font-family="'Roboto'" font-size="8">0,1</text><text transform="translate(465.667 218.956)" fill="#ECECEC" font-family="'Roboto'" font-size="8">0,2</text><text transform="translate(465.667 195.66)" fill="#ECECEC" font-family="'Roboto'" font-size="8">0,5</text><text transform="translate(465.667 172.078)" fill="#ECECEC" font-family="'Roboto'" font-size="8">2</text><text transform="translate(465.667 148.212)" fill="#ECECEC" font-family="'Roboto'" font-size="8">3,5</text><text transform="translate(465.667 124.442)" fill="#ECECEC" font-family="'Roboto'" font-size="8">5</text><text transform="translate(465.667 54.037)" fill="#ECECEC" font-family="'Roboto'" font-size="8">20</text><text transform="translate(465.667 77.505)" fill="#ECECEC" font-family="'Roboto'" font-size="8">15</text><text transform="translate(465.667 100.974)" fill="#ECECEC" font-family="'Roboto'" font-size="8">10</text><g fill="none" stroke="#E3E3E3" stroke-width=".247" stroke-miterlimit="10"><path d="M15.58 269.185v-5.576h36.632v5.576m0 0v-5.576h36.632v5.576m0 0v-5.576h36.631v5.576m0 0v-5.576h36.632v5.576m0 0v-5.576h36.632v5.576m.001 0v-5.576h36.63v5.576m0 0v-5.576h36.633v5.576m0 0v-5.576h36.631v5.576m0 0v-5.576h36.632v5.576m0 0v-5.576h36.632v5.576m0 0v-5.576h36.632v5.576"/><path d="M418.53 269.185v-5.576h36.632v5.576"/></g><path fill="none" stroke="#E3E3E3" stroke-width=".35" stroke-miterlimit="10" d="M459.289 263.609h-4.127m4.127-23.429h-4.127m4.127-23.429h-4.127m4.127-23.481h-4.127m4.127-23.646h-4.127m4.127-23.688h-4.127m4.127-23.627h-4.127m4.127-23.582h-4.127m4.089-23.496h-4.127m4.165-23.549h-4.127"/><defs><path id="id-558a" d="M455.162 198.334s-36.835 7.203-109.894 4.076c-30.588-1.31-67.526-3.374-110.768-3.374-36.632 0-109.025 5.235-145.125 5.235-37.155 0-73.795-5.235-73.795-5.235v64.573h439.582v-65.275z"/></defs><clipPath id="id-559b"><use xlink:href="#id-558a" overflow="visible"/></clipPath><g clip-path="url(#id-559b)" fill="none" stroke="#E3E3E3" stroke-width=".35" stroke-miterlimit="10"><path d="M15.58 240.191h36.632v23.419H15.58zm0-23.419h36.632v23.419H15.58z"/><path d="M15.58 193.353h36.632v23.419H15.58zm36.632 46.838h36.632v23.419H52.212zm0-23.419h36.632v23.419H52.212z"/><path d="M52.212 193.353h36.632v23.419H52.212zm36.632 46.838h36.632v23.419H88.844zm0-23.419h36.632v23.419H88.844z"/><path d="M88.844 193.353h36.632v23.419H88.844zm36.631 46.838h36.632v23.419h-36.632z"/><path d="M125.475 216.772h36.632v23.419h-36.632z"/><path d="M125.475 193.353h36.632v23.419h-36.632zm36.632 46.838h36.632v23.419h-36.632zm0-23.419h36.632v23.419h-36.632z"/><path d="M162.107 193.353h36.632v23.419h-36.632zm36.632 46.838h36.632v23.419h-36.632zm0-23.419h36.632v23.419h-36.632z"/><path d="M198.739 193.353h36.632v23.419h-36.632zm36.632 46.838h36.632v23.419h-36.632z"/><path d="M235.371 216.772h36.632v23.419h-36.632z"/><path d="M235.371 193.353h36.632v23.419h-36.632zm36.632 46.838h36.632v23.419h-36.632zm0-23.419h36.632v23.419h-36.632z"/><path d="M272.003 193.353h36.632v23.419h-36.632zm36.631 46.838h36.632v23.419h-36.632z"/><path d="M308.634 216.772h36.632v23.419h-36.632z"/><path d="M308.634 193.353h36.632v23.419h-36.632zm36.632 46.838h36.632v23.419h-36.632zm0-23.419h36.632v23.419h-36.632z"/><path d="M345.266 193.353h36.632v23.419h-36.632zm36.632 46.838h36.632v23.419h-36.632zm0-23.419h36.632v23.419h-36.632z"/><path d="M381.898 193.353h36.632v23.419h-36.632zm36.632 46.838h36.632v23.419H418.53z"/><path d="M418.53 216.772h36.632v23.419H418.53z"/><path d="M418.53 193.353h36.632v23.419H418.53z"/></g><use xlink:href="#id-558a" overflow="visible" fill="none" stroke="#E3E3E3" stroke-width=".35" stroke-miterlimit="10"/><path clip-rule="evenodd" fill="none" stroke="#816070" stroke-width="1.5" stroke-linecap="round" stroke-linejoin="round" stroke-miterlimit="10" d="M15.58 257.579l2.2-.1 1.796-.58.894 1.175 1.467-.099.977.595 1.956-.496.978-.694 4.197 1.216 3.871.47.543.21 1.428-.046 1.261.152 1.222-.053 1.361.554 2.498-.173 1.711.347 4.4.05 1.468-.347 1.467.05 3.667.247 3.423.199.88-.938 1.075.045 3.179.694 3.029-.075 1.616-.222 1.109-.114 4.759.312 1.711-.148.733.446 3.794-.634 2.678-.27 2.085.854 1.395-.38 1.948.005 1.7-.042 1.803-.079 1.44-.408 1.666.035.561.225.49-.149.977-.149.734.248 2.816-.485 2.712-.543 1.093-.095.799.68 1.037.357 2.055.235 1.956-1.029.66.573 1.785-.189.978.447 1.956-.062 1.895-.087 1.442-.622 1.064-2.016 1.405-1.526 2.262-1.215.988-1.42.959-.44 1.72.397.492-1.647.364-.93.338-1.006 1.055.04.316 1.139.613 2.206h.245l2.2-.397.734.843h.244l1.56-2.418 1.003-.783 1.993-.076 2.045-.094.734-1.996.408-1.164.857-.159.266 1.252.398 1.872.516 2.426h.244l.995-.075.41.582.306.683 1.223 1.388.978-2.537 2.934-1.727.733 1.14h.245l1.1-.99.607 1.023.982 1.703 1.24-1.124.96-.66.874-.646.822-1.459 1.358-.533.803-1.726 1.087-.534.68 1.377h.244l.25-1.259.239-1.22 1.711.248.28-1.065 1.45-.883.697 1.368.996.73 1.231-2.496 1.743-.212.394 1.159.605 1.152 3.361 4.213.847 1.066 1.598 2.008.581-1.964.642-.515 1.222.694.605-1.022 1.145-.121.695.548.978.645h.244l1.379-1.094.987-.788 1.593-.778.687 1.28.673 1.98.793 1.928.49-1.19 1.706-.23.724-.844 1.481 1.174h.245l1.596-1.845 1.425.617.646 1.277h.244l.837-.74.884-1.193 1.693.932 1.537-.486 2.384-.446.27-1.013.289-1.98.433-3.195.185-1.362 1.027-.316.363 1.123.367.956 1.222 1.436.978 2.02 1.223 2.033 1.844-7.017.356-1.77.927-.492.552-.654.709-1.054 1.125.663.599 1.494 1.467 3.922.442-1.57 1.758.678.68-.872 1.117.102.953.919.673 1.1.733 1.031h.245l.978-3.42 2.353.389.58 1.098 1.53 1.373.915-1.36.503-1.467 1.993-3.575.362-1.21 1.182-.1.988 1.202.35.824 1.712 3.123h.245l.427-1.294 1.885.806 1.11 2.174.28-.813.404-1.173 1.096.213.42.88 2.69 3.024 1.223-1.081.373-.799 1.22.105.607 1.346.244.637.734.437 1.345-.397 1.06.507 1.262.931 1.728-.245.363 1.14.598 1.435 2.69.198.8.31 1.664.295 2.336.567.823.96 1.213-.942 2.21.496 2.934-.644.532.032.527-.201 1.527-.585 3.002.102 1.746.057 2.373.705.805.98 1.223-.396.978.396.978-.67 1.16-.668 1.357.233.488-.428.906-.128.755.012.21-.127.705-.43 2.487-.173 2.689.396.733-1.397.734-.388 1.658-.001 1.46 1.34 1.283 1.041.584-1.927.328-1.08.898-.139 1.323 1.025 1.222.946.779 1.274 1.331-1.694.87-.636.977.744h.245l1.5-.448.382 1.602.807 2.415h.244l.845-.388 1.672-.134 1.456.659.917.473 1.956 2.018 1.956-.199 1.344-.594 1.345.793 1.569-.574.876 1.466h.244v-.05l3.182.241 3.42-.29.977-.843 1.467.694h.245l2.934.1 1.1.297.695.299 1.066.097.684.174.784.021 1.11-.492.917.397 1.458-.248.922.406 1.985-.243 1.41-.188.799-.647 1.005-.592.831-.382 1.805-.326 1.348 1.142.956.06.562.266.855.454h.244l1.467-.595 1.956.645 2.934.148 2.2-.099 1.712-.198.733.248.733-.347 2.635.58 1.285.23 1.215.33.978-.93 1.976.003.713.53 1.956-.644 3.169-.892 1.82.546 1.005-.298 1.585 1.437h.244l.451-.35 2.483.003 1.223-1.636 2.327-.446 1.519.732 1.211.918.493-.104 1.28-.355 2.215-.398.616-.377 1.08-1.094 2.46.232 1.703-.843.481 1.248.75 1.875h.245l2.651-2.085 1.26-.592 1.956-.743.734 1.09.397.944 1.812-.002 1.703 1.14 1.772-1.735.978-1.289.672-1.733.245-.795.484-.972 1.431 1.104 1.019.86 1.231-.645 1.703.595 3.481-.551 1.06.913 1.058.858 1.608-.229 1.838 1.19 2.575-.237 1.032.535.55.595 1.283.247.428.174 2.445.868 1.222-.893h1.223l.31-.204 1.401-.44"/><path clip-rule="evenodd" fill="none" stroke="#94A6B0" stroke-width="1.5" stroke-linecap="round" stroke-linejoin="round" stroke-miterlimit="10" d="M15.58 253.354l1.212.104 2.183-1.767h.727l1.212.312v.208l2.91.935v-.104h.97v-.104l3.88.832v.208l.484.104v.104h2.182v.104l2.425.104 1.697-.52.242-.208h.728l1.455.312.242-.208h3.395v.104h.484v.104h1.94v.104h.97v.104h1.212v.104h.728v.104h.242v-.104h.728v-.104h4.849v-.104l2.182.104v-.104h.485l.242-.208h.485v-.104l.97-.104.97.52h3.88l.242.208 1.455.208v.104l1.454-.104 2.425.104.97-.624h.485l.485-.312h1.697v.104l1.212.104v.104h.727v.104h1.213v.104h1.455l2.91.312v-.104h.969v-.104h.727v-.104h2.667v-.104l3.395-.936 1.212-1.56 1.212-.311v-.104l1.94.104.728.624 1.697-.104v.104l1.212.104 1.697 1.351h.485v-.104l1.213-.728.484-.103v-.208h.243l.242-.416h.243l.242-.52h.243v-.312h.242v-.52h.243v-.52h.242l.243-1.04h.242v-.415l.485-.104v-.208l.727-.208v-.208l1.213-.415.485-2.495h.242v-1.144h.243v-1.04h.242v-.831l1.212-2.08h.97l.728 3.431h.484l1.455-1.351h1.212l.485.104 1.213.831.242.416h.243l.242.312h.243l.727-1.143.242-.832 1.213-1.767h.727v.104l1.212 1.04.485.103.485.624.97.104 2.182-.624v.104h.728l.97 1.351 1.454-.104 2.425.832 1.212 1.872 1.213-.312 1.212 1.04h.485l.242.207 1.94-.104v.104l.97.104.485.312 1.212.104v.104l.97-.104 1.212-2.08h.97l.97 1.352 2.667-.104v.104h.485v.104h3.152v.104l1.455.208v.104h.484v.104h.485l.243.312 1.455.312.242-.312h.242v-.208h.243l.97-.208v.104l1.697.104 1.455-2.08h.242v-.415h.243v-.312h.242v-.416h.243l.242-.208h.485v-.104l.728-.208.242-.52h.242v-.311h.243v-.312h.242v-.312h.243v-.312h.242v-.312h.243l.242-.728h.243v-.103h.727l.485.207v.208h.242l.97.208.97-2.495.485-.104v-.208h.242l.485-.623 1.94.311v-.103l1.212-.208 1.698 1.87v.417h.242l.243.727h.242v-.207l.485-.416h.97l2.182.727.97.52.485.104v.208l.97.624 1.454.104 1.455.416.243-.312h.242v-.208h.242v-.312h.243v-.208h.242l.243-1.247 1.455-3.327.485-1.56h.242v-.311h.242v-.208h.243v-.208l.485-.104v-.208h.242l.97-5.822h.243v-.52h.242l.243-.415h.242v-.312h.242v-.208h.243l.97-4.263 1.212-1.87h.97l.485 1.247v.831h.242v.728h.243v.728h.242v1.04l.243.207v1.56h.242l.243 1.975.242 1.04.485-2.392h.485l.727-.415h.243v-1.04l.485-1.767h.242v-.936h.243v-.936h.242l.97-3.742h.97l.727 2.599v.936h.243v.623h.242v.416h.243l1.454 1.144h.243l1.212-1.768h.243v-.208h.242v-.207h.242v-.312l.728-.208v-.208h.242l.243-.208h.97l.242.312.485.104v.208l.485.104.485.623h.242l1.698-3.534 2.667-11.436 1.94-.416 1.454 3.95v1.456h.243v1.56h.242l.485 2.599.485-1.144 1.455.208v.104l1.697-.104v.104l1.697 1.663v.52l1.455 3.223.242 1.975 1.213 1.351h1.454l.728.832v.312h.242v.208h.243v.624h.242v.727l1.455 3.743v.936h.242v.831h.243v.832h.242v.624h.243l.485 1.04.727-4.16 2.182-.727 2.425 5.51 1.455-.832h.727l.485.312h.242v.208l.728.208v.208h.242v.208h.243v.208h.242v.208l1.697.623.243.52h.242l.243.416h.242l.243.52h.242v.312h.243v.312h.242v.208h.242v.208l1.213.311v.312h.242v.832l1.455 3.639.485 1.455h.242v-.208l1.698-.416v-.104h.727l.242.312.485.104v.208l.485.104v.208h.243v.312h.242v.312h.243v.207h.242l.243.728h.242v.52h.242l.485 1.144v-.104h.243l.242-.728h.243v-.52l.97-1.663v-.52l1.212-1.247h.97l.97.935 1.454-.208.243-.208h1.212v.104l2.182-.104 1.94 2.287 1.455-.104v.104l2.182 1.04 1.455-.312.485.208v.208l.485.104v.208l.727.208 2.182-.52.243-.208 1.454.104v-.104l.97-.832h.243v-.312h.242v-.208h.243v-.311h.242l.243-.416 2.424-.936v-.208l5.577-1.351.97 1.143h1.454v.208l.485.208h.243l.97-1.143h.727v.104l1.455-.104v-.104h.97l1.212 1.663.485-.104.97-1.351h.97v.208l1.94.52 1.696-.209.97 1.976h.243l.485.415h.484l.728-.415h.242l.243-.416.485-.104v-.208l1.697-.624v-.208l.485-.104v-.208l.485-.104v-.311h.242l.728-.832 2.182.312 1.455 1.975v.208h.242v.208h.243v.208l.484.104v.208l1.455.935.243.104.97-1.767h.727l1.212.624.485.104v.207l.728.208v.312h.242v.312h.242v.312l.728.728 3.637.312.485.623h.242v.208l.485.104.242.52h.243l.485.624h.242l.485.312h.243v-.104l1.697-.416.485.104h.242v-.416h.243l.485-1.144 1.697.312v.104l1.455-.104.97.624v.208l.485.104v.52h.242v.52h.242v.52h.243l.485.83 3.88-1.247h1.454v-.104h.485l.485-.311 1.697.104v-.104l1.697-.208.728.416h1.94l2.666.415 3.152-.727h.97l.485.312h.485l.243.103v-.103h1.697v-.104h1.455v-.104l.97-.208.242-.312h.242l1.455-.624.727.52.728-.104v-.416l5.819-.728.97.832 2.182.208 1.697-.416v.104l.728.104.242-.208h.485v-.104l6.061.208 2.668.104.727-.416 2.182-.312.97.312v-.104l.727-.208 2.425.104v-.104l.97-.727 1.94.312.242.207 2.182.312.727-.415h.243v-.208l.485-.104 2.424-1.04h2.91l.97-.936 1.455.208v.104l2.424-.208.485-.416h.243v-.207l.484-.104.243-.416.485-.104 1.455-1.663 1.454.104 2.183-1.144v-.104l1.697.104v.104l1.212 1.56 1.94-.313 1.212-1.143h.485v-.104h.485l.242-.312h.243l.97-1.352h.727l.485.416h.485l.97-.623v-.312h.242l.243-.416h.242v-.312l1.213-.416v-.104h.97l.97 1.352.727-.104.727-2.495v-.832h.242v-.728h.243v-.623h.242l.728-2.391 1.212-2.08h.97l.727 2.703h.243v-.208h.242l.243-.623h.97l.97 1.455h.242v-.104l.485-1.351h.242v-1.144h.243v-1.04h.242l.243-1.767 1.454.104v.208l1.698-.208.242 1.456h.243v1.04h.242v.935h.242l.485 1.767.97.208.728 1.56.484 1.143v-.208l.485-.416.485-.104v-.208l.728-.208v-.208l.727-.104v-.103l1.212-.208.97 1.559.728-1.144v-.104h.727l1.455 1.456h.485l.727-.728h.243v-.935h.484"/><defs><path id="id-560c" d="M198.74 122.145c-17.307 0-52.348 8.058-73.265 8.058s-54.088-7.894-73.263-7.894c-19.166 0-36.615-2.037-36.632-2.04v75.357s36.64 5.236 73.795 5.236c36.101 0 108.494-5.236 145.125-5.236 43.244 0 80.182 2.065 110.77 3.375 73.051 3.126 109.885-4.075 109.892-4.076V117.6s-36.631 9.264-109.896 9.264c-73.263 0-72.541-4.719-146.526-4.719z"/></defs><clipPath id="id-561d"><use xlink:href="#id-560c" overflow="visible"/></clipPath><g clip-path="url(#id-561d)" fill="none" stroke="#E3E3E3" stroke-width=".35" stroke-miterlimit="10"><path d="M15.58 185.392h36.632v7.885H15.58zm0-7.885h36.632v7.885H15.58zm36.632 7.885h36.632v7.885H52.212zm0-7.885h36.632v7.885H52.212zm36.632 7.885h36.632v7.885H88.844zm0-7.885h36.632v7.885H88.844zm36.632 7.885h36.632v7.885h-36.632zm0-7.885h36.632v7.885h-36.632zm36.632 7.885h36.632v7.885h-36.632zm0-7.885h36.632v7.885h-36.632z"/><path d="M198.739 185.392h36.632v7.885h-36.632zm0-7.885h36.632v7.885h-36.632z"/><path d="M235.371 185.392h36.632v7.885h-36.632zm0-7.885h36.632v7.885h-36.632zm36.632 7.885h36.632v7.885h-36.632zm0-7.885h36.632v7.885h-36.632zm36.632 7.885h36.632v7.885h-36.632zm0-7.885h36.632v7.885h-36.632zm36.632 7.885h36.632v7.885h-36.632zm0-7.885h36.632v7.885h-36.632zm36.632 7.885h36.632v7.885h-36.632zm0-7.885h36.632v7.885h-36.632z"/><path d="M418.53 185.392h36.632v7.885H418.53zm0-7.885h36.632v7.885H418.53zM15.58 201.161h36.632v7.885H15.58z"/><path d="M15.58 193.277h36.632v7.885H15.58zm36.632 7.884h36.632v7.885H52.212z"/><path d="M52.212 193.277h36.632v7.885H52.212zm36.632 7.884h36.632v7.885H88.844z"/><path d="M88.844 193.277h36.632v7.885H88.844zm36.632 7.884h36.632v7.885h-36.632z"/><path d="M125.476 193.277h36.632v7.885h-36.632zm36.632 7.884h36.632v7.885h-36.632z"/><path d="M162.108 193.277h36.632v7.885h-36.632z"/><path d="M198.739 201.161h36.632v7.885h-36.632z"/><path d="M198.739 193.277h36.632v7.885h-36.632z"/><path d="M235.371 201.161h36.632v7.885h-36.632z"/><path d="M235.371 193.277h36.632v7.885h-36.632zm36.632 7.884h36.632v7.885h-36.632z"/><path d="M272.003 193.277h36.632v7.885h-36.632zm36.632 7.884h36.632v7.885h-36.632z"/><path d="M308.635 193.277h36.632v7.885h-36.632zm36.632 7.884h36.632v7.885h-36.632z"/><path d="M345.267 193.277h36.632v7.885h-36.632zm36.632 7.884h36.632v7.885h-36.632z"/><path d="M381.899 193.277h36.632v7.885h-36.632z"/><path d="M418.53 201.161h36.632v7.885H418.53z"/><path d="M418.53 193.277h36.632v7.885H418.53zM15.58 169.624h36.632v7.885H15.58z"/><path d="M15.58 161.74h36.632v7.885H15.58zm0-7.885h36.632v7.885H15.58zm36.632 15.769h36.632v7.885H52.212z"/><path d="M52.212 161.74h36.632v7.885H52.212zm0-7.885h36.632v7.885H52.212zm36.632 15.769h36.632v7.885H88.844z"/><path d="M88.844 161.74h36.632v7.885H88.844zm0-7.885h36.632v7.885H88.844zm36.632 15.769h36.632v7.885h-36.632z"/><path d="M125.476 161.74h36.632v7.885h-36.632zm0-7.885h36.632v7.885h-36.632zm36.632 15.769h36.632v7.885h-36.632z"/><path d="M162.108 161.74h36.632v7.885h-36.632zm0-7.885h36.632v7.885h-36.632z"/><path d="M198.739 169.624h36.632v7.885h-36.632z"/><path d="M198.739 161.74h36.632v7.885h-36.632zm0-7.885h36.632v7.885h-36.632z"/><path d="M235.371 169.624h36.632v7.885h-36.632z"/><path d="M235.371 161.74h36.632v7.885h-36.632zm0-7.885h36.632v7.885h-36.632zm36.632 15.769h36.632v7.885h-36.632z"/><path d="M272.003 161.74h36.632v7.885h-36.632zm0-7.885h36.632v7.885h-36.632zm36.632 15.769h36.632v7.885h-36.632z"/><path d="M308.635 161.74h36.632v7.885h-36.632zm0-7.885h36.632v7.885h-36.632zm36.632 15.769h36.632v7.885h-36.632z"/><path d="M345.267 161.74h36.632v7.885h-36.632zm0-7.885h36.632v7.885h-36.632zm36.632 15.769h36.632v7.885h-36.632z"/><path d="M381.899 161.74h36.632v7.885h-36.632zm0-7.885h36.632v7.885h-36.632z"/><path d="M418.53 169.624h36.632v7.885H418.53z"/><path d="M418.53 161.74h36.632v7.885H418.53zm0-7.885h36.632v7.885H418.53zM15.58 145.97h36.632v7.885H15.58zm36.632 0h36.632v7.885H52.212zm36.632 0h36.632v7.885H88.844zm36.632 0h36.632v7.885h-36.632zm36.632 0h36.632v7.885h-36.632z"/><path d="M198.739 145.97h36.632v7.885h-36.632z"/><path d="M235.371 145.97h36.632v7.885h-36.632zm36.632 0h36.632v7.885h-36.632zm36.632 0h36.632v7.885h-36.632zm36.632 0h36.632v7.885h-36.632zm36.632 0h36.632v7.885h-36.632z"/><path d="M418.53 145.97h36.632v7.885H418.53zm-402.95-7.882h36.632v7.885H15.58zm0-7.885h36.632v7.885H15.58zm0-7.885h36.632v7.885H15.58zm36.632 15.77h36.632v7.885H52.212zm0-7.885h36.632v7.885H52.212zm0-7.885h36.632v7.885H52.212zm36.632 15.77h36.632v7.885H88.844zm0-7.885h36.632v7.885H88.844zm0-7.885h36.632v7.885H88.844zm36.632 15.77h36.632v7.885h-36.632zm0-7.885h36.632v7.885h-36.632zm0-7.885h36.632v7.885h-36.632zm36.632 15.77h36.632v7.885h-36.632zm0-7.885h36.632v7.885h-36.632zm0-7.885h36.632v7.885h-36.632z"/><path d="M198.739 138.088h36.632v7.885h-36.632zm0-7.885h36.632v7.885h-36.632zm0-7.885h36.632v7.885h-36.632z"/><path d="M235.371 138.088h36.632v7.885h-36.632zm0-7.885h36.632v7.885h-36.632zm0-7.885h36.632v7.885h-36.632zm36.632 15.77h36.632v7.885h-36.632zm0-7.885h36.632v7.885h-36.632zm0-7.885h36.632v7.885h-36.632zm36.632 15.77h36.632v7.885h-36.632zm0-7.885h36.632v7.885h-36.632zm0-7.885h36.632v7.885h-36.632zm36.632 15.77h36.632v7.885h-36.632zm0-7.885h36.632v7.885h-36.632zm0-7.885h36.632v7.885h-36.632zm36.632 15.77h36.632v7.885h-36.632zm0-7.885h36.632v7.885h-36.632zm0-7.885h36.632v7.885h-36.632z"/><path d="M418.53 138.088h36.632v7.885H418.53zm0-7.885h36.632v7.885H418.53zm0-7.885h36.632v7.885H418.53zm-402.95-7.904h36.632v7.885H15.58z"/><path d="M15.58 106.53h36.632v7.885H15.58zm36.632 7.884h36.632v7.885H52.212z"/><path d="M52.212 106.53h36.632v7.885H52.212zm36.632 7.884h36.632v7.885H88.844z"/><path d="M88.844 106.53h36.632v7.885H88.844zm36.632 7.884h36.632v7.885h-36.632z"/><path d="M125.476 106.53h36.632v7.885h-36.632zm36.632 7.884h36.632v7.885h-36.632z"/><path d="M162.108 106.53h36.632v7.885h-36.632z"/><path d="M198.739 114.414h36.632v7.885h-36.632z"/><path d="M198.739 106.53h36.632v7.885h-36.632z"/><path d="M235.371 114.414h36.632v7.885h-36.632z"/><path d="M235.371 106.53h36.632v7.885h-36.632zm36.632 7.884h36.632v7.885h-36.632z"/><path d="M272.003 106.53h36.632v7.885h-36.632zm36.632 7.884h36.632v7.885h-36.632z"/><path d="M308.635 106.53h36.632v7.885h-36.632zm36.632 7.884h36.632v7.885h-36.632z"/><path d="M345.267 106.53h36.632v7.885h-36.632zm36.632 7.884h36.632v7.885h-36.632z"/><path d="M381.899 106.53h36.632v7.885h-36.632z"/><path d="M418.53 114.414h36.632v7.885H418.53z"/><path d="M418.53 106.53h36.632v7.885H418.53z"/></g><use xlink:href="#id-560c" overflow="visible" fill="none" stroke="#E3E3E3" stroke-width=".35" stroke-miterlimit="10"/><defs><path id="id-562e" d="M125.475 126.793c20.917 0 55.769-8.057 73.265-8.057 73.263 0 73.263 4.718 146.526 4.718 73.262 0 109.893-9.263 109.896-9.264V51.682H15.58v65.178c.017.002 17.466 2.04 36.632 2.04 19.175 0 52.346 7.893 73.263 7.893z"/></defs><clipPath id="id-563f"><use xlink:href="#id-562e" overflow="visible"/></clipPath><g clip-path="url(#id-563f)" fill="none" stroke="#E3E3E3" stroke-width=".35" stroke-miterlimit="10"><path d="M15.58 94.064h36.632v4.709H15.58z"/><path d="M15.58 89.355h36.632v4.709H15.58zm0-4.709h36.632v4.709H15.58zm0-4.709h36.632v4.709H15.58zm0-4.709h36.632v4.709H15.58z"/><path d="M15.58 70.519h36.632v4.709H15.58zm36.632 23.545h36.632v4.709H52.212zm0-4.709h36.632v4.709H52.212zm0-4.709h36.632v4.709H52.212zm0-4.709h36.632v4.709H52.212zm0-4.709h36.632v4.709H52.212z"/><path d="M52.212 70.519h36.632v4.709H52.212zm36.632 23.545h36.632v4.709H88.844zm0-4.709h36.632v4.709H88.844zm0-4.709h36.632v4.709H88.844zm0-4.709h36.632v4.709H88.844zm0-4.709h36.632v4.709H88.844z"/><path d="M88.844 70.519h36.632v4.709H88.844zm36.632 23.545h36.632v4.709h-36.632zm0-4.709h36.632v4.709h-36.632zm0-4.709h36.632v4.709h-36.632zm0-4.709h36.632v4.709h-36.632zm0-4.709h36.632v4.709h-36.632z"/><path d="M125.476 70.519h36.632v4.709h-36.632zm36.632 23.545h36.632v4.709h-36.632zm0-4.709h36.632v4.709h-36.632zm0-4.709h36.632v4.709h-36.632zm0-4.709h36.632v4.709h-36.632zm0-4.709h36.632v4.709h-36.632z"/><path d="M162.108 70.519h36.632v4.709h-36.632zm36.631 23.545h36.632v4.709h-36.632z"/><path d="M198.739 89.355h36.632v4.709h-36.632zm0-4.709h36.632v4.709h-36.632zm0-4.709h36.632v4.709h-36.632zm0-4.709h36.632v4.709h-36.632z"/><path d="M198.739 70.519h36.632v4.709h-36.632zm36.632 23.545h36.632v4.709h-36.632z"/><path d="M235.371 89.355h36.632v4.709h-36.632zm0-4.709h36.632v4.709h-36.632zm0-4.709h36.632v4.709h-36.632zm0-4.709h36.632v4.709h-36.632z"/><path d="M235.371 70.519h36.632v4.709h-36.632zm36.632 23.545h36.632v4.709h-36.632zm0-4.709h36.632v4.709h-36.632zm0-4.709h36.632v4.709h-36.632zm0-4.709h36.632v4.709h-36.632zm0-4.709h36.632v4.709h-36.632z"/><path d="M272.003 70.519h36.632v4.709h-36.632zm36.632 23.545h36.632v4.709h-36.632zm0-4.709h36.632v4.709h-36.632zm0-4.709h36.632v4.709h-36.632zm0-4.709h36.632v4.709h-36.632zm0-4.709h36.632v4.709h-36.632z"/><path d="M308.635 70.519h36.632v4.709h-36.632zm36.632 23.545h36.632v4.709h-36.632zm0-4.709h36.632v4.709h-36.632zm0-4.709h36.632v4.709h-36.632zm0-4.709h36.632v4.709h-36.632zm0-4.709h36.632v4.709h-36.632z"/><path d="M345.267 70.519h36.632v4.709h-36.632zm36.632 23.545h36.632v4.709h-36.632zm0-4.709h36.632v4.709h-36.632zm0-4.709h36.632v4.709h-36.632zm0-4.709h36.632v4.709h-36.632zm0-4.709h36.632v4.709h-36.632z"/><path d="M381.899 70.519h36.632v4.709h-36.632zm36.631 23.545h36.632v4.709H418.53z"/><path d="M418.53 89.355h36.632v4.709H418.53zm0-4.709h36.632v4.709H418.53zm0-4.709h36.632v4.709H418.53zm0-4.709h36.632v4.709H418.53z"/><path d="M418.53 70.519h36.632v4.709H418.53zM15.58 65.81h36.632v4.709H15.58zm0-4.71h36.632v4.709H15.58zm36.632 4.71h36.632v4.709H52.212zm0-4.71h36.632v4.709H52.212zm36.632 4.71h36.632v4.709H88.844zm0-4.71h36.632v4.709H88.844zm36.632 4.71h36.632v4.709h-36.632zm0-4.71h36.632v4.709h-36.632zm36.632 4.71h36.632v4.709h-36.632zm0-4.71h36.632v4.709h-36.632z"/><path d="M198.739 65.81h36.632v4.709h-36.632zm0-4.71h36.632v4.709h-36.632z"/><path d="M235.371 65.81h36.632v4.709h-36.632zm0-4.71h36.632v4.709h-36.632zm36.632 4.71h36.632v4.709h-36.632zm0-4.71h36.632v4.709h-36.632zm36.632 4.71h36.632v4.709h-36.632zm0-4.71h36.632v4.709h-36.632zm36.632 4.71h36.632v4.709h-36.632zm0-4.71h36.632v4.709h-36.632zm36.632 4.71h36.632v4.709h-36.632zm0-4.71h36.632v4.709h-36.632z"/><path d="M418.53 65.81h36.632v4.709H418.53zm0-4.71h36.632v4.709H418.53zM15.58 56.391h36.632V61.1H15.58z"/><path d="M15.58 51.682h36.632v4.709H15.58zm36.632 4.709h36.632V61.1H52.212zm0-4.709h36.632v4.709H52.212zm36.632 4.709h36.632V61.1H88.844zm0-4.709h36.632v4.709H88.844zm36.632 4.709h36.632V61.1h-36.632zm0-4.709h36.632v4.709h-36.632zm36.632 4.709h36.632V61.1h-36.632zm0-4.709h36.632v4.709h-36.632z"/><path d="M198.739 56.391h36.632V61.1h-36.632z"/><path d="M198.739 51.682h36.632v4.709h-36.632z"/><path d="M235.371 56.391h36.632V61.1h-36.632z"/><path d="M235.371 51.682h36.632v4.709h-36.632zm36.632 4.709h36.632V61.1h-36.632zm0-4.709h36.632v4.709h-36.632zm36.632 4.709h36.632V61.1h-36.632zm0-4.709h36.632v4.709h-36.632zm36.632 4.709h36.632V61.1h-36.632zm0-4.709h36.632v4.709h-36.632zm36.632 4.709h36.632V61.1h-36.632zm0-4.709h36.632v4.709h-36.632z"/><path d="M418.53 56.391h36.632V61.1H418.53z"/><path d="M418.53 51.682h36.632v4.709H418.53zM15.58 117.6h36.632v4.709H15.58zm36.632 0h36.632v4.709H52.212zm36.632 0h36.632v4.709H88.844zm36.632 0h36.632v4.709h-36.632zm36.632 0h36.632v4.709h-36.632z"/><path d="M198.739 117.6h36.632v4.709h-36.632z"/><path d="M235.371 117.6h36.632v4.709h-36.632zm36.632 0h36.632v4.709h-36.632zm36.632 0h36.632v4.709h-36.632zm36.632 0h36.632v4.709h-36.632zm36.632 0h36.632v4.709h-36.632z"/><path d="M418.53 117.6h36.632v4.709H418.53zm-402.95-4.709h36.632v4.709H15.58zm0-4.71h36.632v4.709H15.58zm36.632 4.71h36.632v4.709H52.212zm0-4.71h36.632v4.709H52.212zm36.632 4.71h36.632v4.709H88.844zm0-4.71h36.632v4.709H88.844zm36.632 4.71h36.632v4.709h-36.632zm0-4.71h36.632v4.709h-36.632zm36.632 4.71h36.632v4.709h-36.632zm0-4.71h36.632v4.709h-36.632z"/><path d="M198.739 112.891h36.632v4.709h-36.632zm0-4.71h36.632v4.709h-36.632z"/><path d="M235.371 112.891h36.632v4.709h-36.632zm0-4.71h36.632v4.709h-36.632zm36.632 4.71h36.632v4.709h-36.632zm0-4.71h36.632v4.709h-36.632zm36.632 4.71h36.632v4.709h-36.632zm0-4.71h36.632v4.709h-36.632zm36.632 4.71h36.632v4.709h-36.632zm0-4.71h36.632v4.709h-36.632zm36.632 4.71h36.632v4.709h-36.632zm0-4.71h36.632v4.709h-36.632z"/><path d="M418.53 112.891h36.632v4.709H418.53zm0-4.71h36.632v4.709H418.53zm-402.95-4.708h36.632v4.709H15.58zm0-4.71h36.632v4.709H15.58zm36.632 4.71h36.632v4.709H52.212zm0-4.71h36.632v4.709H52.212zm36.632 4.71h36.632v4.709H88.844zm0-4.71h36.632v4.709H88.844zm36.632 4.71h36.632v4.709h-36.632zm0-4.71h36.632v4.709h-36.632zm36.632 4.71h36.632v4.709h-36.632zm0-4.71h36.632v4.709h-36.632z"/><path d="M198.739 103.473h36.632v4.709h-36.632zm0-4.71h36.632v4.709h-36.632z"/><path d="M235.371 103.473h36.632v4.709h-36.632zm0-4.71h36.632v4.709h-36.632zm36.632 4.71h36.632v4.709h-36.632zm0-4.71h36.632v4.709h-36.632zm36.632 4.71h36.632v4.709h-36.632zm0-4.71h36.632v4.709h-36.632zm36.632 4.71h36.632v4.709h-36.632zm0-4.71h36.632v4.709h-36.632zm36.632 4.71h36.632v4.709h-36.632zm0-4.71h36.632v4.709h-36.632z"/><path d="M418.53 103.473h36.632v4.709H418.53zm0-4.71h36.632v4.709H418.53zM15.58 127.018h36.632v4.709H15.58zm0-4.709h36.632v4.709H15.58zm36.632 4.709h36.632v4.709H52.212zm0-4.709h36.632v4.709H52.212zm36.632 4.709h36.632v4.709H88.844zm0-4.709h36.632v4.709H88.844zm36.632 4.709h36.632v4.709h-36.632zm0-4.709h36.632v4.709h-36.632zm36.632 4.709h36.632v4.709h-36.632zm0-4.709h36.632v4.709h-36.632z"/><path d="M198.739 127.018h36.632v4.709h-36.632zm0-4.709h36.632v4.709h-36.632z"/><path d="M235.371 127.018h36.632v4.709h-36.632zm0-4.709h36.632v4.709h-36.632zm36.632 4.709h36.632v4.709h-36.632zm0-4.709h36.632v4.709h-36.632zm36.632 4.709h36.632v4.709h-36.632zm0-4.709h36.632v4.709h-36.632zm36.632 4.709h36.632v4.709h-36.632zm0-4.709h36.632v4.709h-36.632zm36.632 4.709h36.632v4.709h-36.632zm0-4.709h36.632v4.709h-36.632z"/><path d="M418.53 127.018h36.632v4.709H418.53zm0-4.709h36.632v4.709H418.53z"/></g><use xlink:href="#id-562e" overflow="visible" fill="none" stroke="#E3E3E3" stroke-width=".35" stroke-miterlimit="10"/><path d="M44.803 122.35l-.28.422-.094-.421m4.533-.001l-1.253 4.768-1.309-4.767m13.028-.001l-1.13.945-1.163 2.328-1.657-3.272m30.442-.001l-2.076 12.347-1.102 2.014-1.53-2.94-1.686 1.825-1.36 6.69-.683-7.692-1.547 1.577-1.872.618-1.588-3.144-1.237-8.643-1.613 3.926-.984 2.486-.866 1.673-.495 1.394-1.393-4.429-1.575-2.262-.495 5.018-1.91-9.565-.829-.892m36.601-.001l-.22 2.095-2.328-1.521-.221-.573m242.272-.001l-.512.98-1.856 1.115-1.607 2.788-1.288-4.882m-1.793-.001l-.746 4.281-1.441-.183-.917 4.13-1.731 3.903h-.248l-.91-7.18-1.657-.776-.618-4.174m61.421-.001l-2.383 2.774-6.198.935-3.396-3.287-.742 6.133h-.247l-.495-3.903-1.175.837-1.629-2.262-4.035 3.032-1.077 6.2-1.732-6.134-1.535 4.47-3.238 1.002-1.713 2.52-.633-4.275-1.028-1.469-3.232 5h-.247l-.248-2.23-2.102-2.23-.371-2.23-.09-1.76-1.032-.997-.816-2.125m50.216-.001l-.04.422-.111-.421" fill="none" stroke="#F59900" stroke-width="1.5" stroke-linecap="round" stroke-linejoin="round" stroke-miterlimit="10"/><g fill="none" stroke="#F59900" stroke-width="1.5" stroke-linecap="round" stroke-linejoin="round" stroke-miterlimit="10"><path d="M343.886 122.318l-1.155-1.04-1.511-2.858-2.857 1.916-1.18 1.982m-5.263 0l-.877-.54-.916.54m63.823 0l-1.867-2.039-.743-1.998-1.508 2.707-.618.828-1.337.295-2.66-1-1.05.583-.888.624m-288.369 0l-.789-1.206-2.35-1.5-1.979-.582-1.351.416-1.185.282-.87 1.6-.466.99m-39.52 0l-.393-.54-1.204.54m57.632-8.121l-.521 2.252-1.896 2.103-2.338 3.766m224.18 0l-.217-.207-1.464-.417-.751-1.137-1.195-.435-1.105-1.009-.618-1.165-.866-1.499-2.968 1.665-1.98-1.918-.927-2.411-1.064-3.53-1.34-.113-.626 2.81-1.98-.999-1.483 1.665-3.041-1.47-1.907 3.968-3.103-1.193-1.102-1.305-2.721 2.998-.99-.833-1.484.5-2.474.832-1.833-3.397-1.398-.433-.8-1.433-2.4-1.231-1.468 3.35-.76 1.396-1.547.169-1.389 1.87-1.108-.103-1.026.562-1.732 1.082-.866 1.166-1.484-.667-3.093-.19-2.102-1.641-1.229-1.887-1.253-.5-.733-1.11-3.085.843-.997-.843-.696.44-1.53 2.058-2.598 4.995-1.67-4.163-1.464-2.405-2.308.907-1.839-7.868M55.478 122.318l-.107-.09-1.943-1.616-1.979 1-2.325.365-.162.34m12.117.001h-1.651m388.728-23.051l2.06-.302 1.93.13m-19.886.859l.598-1.822 2.762.833 1.732-4.996 1.566-3.13 2.028-6.398 1.106 2.359.439 2.883.55 7.617 1.492-3.284.735 4.616.14.754"/><path d="M102.435 114.197l.592-1.411 1.617-4.058.98-3.477 2.474-1.457 1.979-1.166 1.98 1.665 2.844-2.164 2.597 2.33h.247l1.52-3.363 2.183-2.19 1.492-2.855 1.704.819.707 4.524 2.409-.764.87 3.174.475 1.077 1.133-.588 1.415-.398 1.127 1.817 3.518.413.99 1.998 1.57-3.335 3.826.449 1.283 2.22 1.237-1.498 2.185 1.165 2.268-.832 3.216 1.998 1.979-4.33 2.475-4.51 1.522-7.109 1.692-1.067.742 3.86h.248l1.236-.832.627 2.81.995-.256 1.594-2.22 1.608 1.665 1.299.666.35 1.33.701 2.833 2.227.333 1.565-.449.87 4.1 1.33.244 1.228 1.445 1.686-.262.99-1.748 1.483-.833.495-1.332 1.175-2.997 1.019-7.95 1.196-18.447.816-12.568 2.504 4.496.711 2.914.743 5.911.896 6.574.588 7.913.457-3.845 1.522 1.514h.247l1.979-10.657 1.237.333.676-4.917 1.305-4.045.493 3.979.494 4.484h.248l1.979-1 .927-1.207 2.086.097 1.687 3.941.52-5.917.207-4.729 1.747 1.321 1.2-3.583.531-2.035.742-5.566.742-3.47.99 2.394.99 5.933.484-3.265.983 2.578 1.006 4.683 1.26-1.509.472 3.174h.247l.655-3.391 1.088-.868.456 2.761 1.635 7.326 1.856 6.328 1.979 6.595.99 8.558 1.483-2.997 2.227 2.664 1.237 4.33 4.453 3.996h.247l1.731-2.665 1.598 3.025 2.855 3.803.635 1.457M15.58 117.948l2.287-2.907 2.66 1.075 1.485-1 .726 1.956.201.558m21.491 4.688l-.65-.873-2.055.545-2.314-1.538-3.546.91-1.643-1.294-1.325-2.12-2.722 2.997-.873-.702-1.484.023-1.366-.048-.977-2.27-1.484 1.665-1.052-1.983M432.26 99.954l-.016.101-.83 3.96-.6 3.352-.536 2.27-1.337 1.817-3.958-1.666h-.247l-1.68-1.225-1.783 3.39-1.778-1.781-2.675 3.113h-.248l-1.236-2.997-.743-.666-1.237-.5-1.297 1.165-2.57 1.717-.701 1.294-1.554.529-3.03 2.955-2.289.25-.927.083-.928-.416-3.256 2.201-1.506.213-.247 1.16-.95 2.045m54.055-23.051l-.568 1.402-2.18-1.283m9.754-.421l-.741 2.165-2.274-2.035"/></g><path clip-rule="evenodd" fill="none" stroke="#2DB7BC" stroke-width="1.5" stroke-linecap="round" stroke-linejoin="round" stroke-miterlimit="10" d="M15.58 188.641l.725-1.844.43-.377.96.817 1.92-.817 1.042 1.87 1.523-.41.895 1.58 1.458-1.725.4 1.644.656-.08.38-1.564 1.133.428 1.051 2.816.967-.233.967 1.052.72-1.857 1.94 1.155 3.143-.467 2.119-1.563 1.448.744 1.753.234.967 1.754.634-1.139.908-.147.306.29 1.994.6 2.203.045 1.482-.773.936.89 2.841-1.783.725 1.081.642-1.593.984-.173.853 1.65 1.45-.468.726.818.937-2.043 1.723 1.459 1.504-.384.914 1.436 2.418-.702.967-.35.967.409 1.706.224 2.646-.984 1.693 1.17.955-1.384 2 .448 1.337-1.052 1.081-.702 2.538.682 1.254.364.481.56 2.685-1.138 2.841-1.432.752 1.589.76-.975 1.45.35 1.978.018.682 1.268h.242l2.418-.935 2.901.935 1.303-1.52 1.348.52 1.326-.164 1.167.907 1.143 1.894 1.693-.818.725.818 1.35-.982 2.213.452.816.296.986.077.922 1.56.725-1.754 1.632 1.17.88-1.52 1.527.432 1.522-.199.967 1.052 2.418-1.286 2.177.819.592-1.476.783-.278.69.451 1.153-.568 1.345 1.021.64.313.341-.826 1.19.03 2.243-.141.74.443 1.163.563 1.711-1.276 2.883 1.51 1.043-1.403 2.342.702 2.101-1.286.801 1.402 1.45-.35.726.818.605-1.929.68-.993 1.342.92 1.121.482 1.646-.696 2.102 1.047.851-.718 1.083-1.152 1.68-.05 1.463-2.055.726 2.222h.242l.585-1.178.422-.186 1.41.194 1.574-.831.845.715 1.45-.351.791.434.75-1.724.967-.226 1.12 1.516 1.584.039 1.317.78.585-1.882.382-2.093 1.45 1.52h.242l.877-2.456 1.783 1.988 1.693-2.222 1.263-.593 1.615-.62.749-1.358 1.35.702.793 1.459 1.374.571.714 1.242.779-1.045 2.002-1.526.474 1.138.691-1.175 1.253-.782.725 1.17.295-1.723 1.398-1.317.483 1.87.484 1.87 1.934-.467.253-.865.352-1.532.358-1.559 1.61 2.143.45 1.112 1.012-.216 1.043.333 1.45-.936.726 1.17h.242l1.747-.776 1.127 1.567 1.506 1.456 1.464.295 1.651-.36 1.156-.187.512.546 1.123-2.351 1.078-.308 1.21.936.604.584.967.526.818.834.753.978.336-1.298.385-1.487 1.697 2.2 1.451-1.987.967 2.105.388-2.412 1.486.73 2.814 2.467 1.957-.378.851.528 1.26-1.386 1.283-.307.359.407.725.234.258.624.467 1.13 1.542-2.806.876 3.156h.242l.967-.701 1.178 1.006.333.63.907.818 1.693-.35 1.692 1.87.867-1.885 1.793.365 1.54-1.954 2.57-.851 1.245.63 1.38.436.61.913 2.569-.226h1.692l1.451.234 1.871-.584.789.467 1.45-.35.484.467 1.345-1.514.89-.198.742.318 1.867-.599 1.926-1.397.967.935 2.418-2.046 2.204-1.502 1.092-.553.554-1.742.578-.82 1.375.935.29-1.211.4-1.674 1.506 1.708.484 1.972.175.85.473.225.879.186.388.75.927-1.67 1.49.384.814-6.426.142-2.278.828-.18.15.68.243 3.397.725 3.638.351-3.314.131-1.232.73-.643 1.493-.752 1.164 1.245.725 2.825.732-3.78 1.061-1.072.867 2.514 2.66-.234.866 2.514.781.292 1.496-.117.876-.935.976.617.566 2.305h.242l1.45-1.753.726.76.483.877 1.693 2.922.387-1.686.52-2.264 1.753 1.216 1.827 3.494.813 1.77 1.1-.706.8-.889 1.657.433 1.057 1.905.913-2.688 1.263 2.455h.241l1.614-.853.563 2.84h.241l.223-1.238.252-1.398 1.775 1.878 1.135-.762.457-.71 1.72-.459 1.972-1.923 1.05 1.777.846 1.432.726-2.476 1.324-1.493 1.526.855 1.26 2.997.967-2.572 1.784-.935.513.526.99.587 1.708.165.665-.742.728-.222 1.07-.708.81-.612.452-1.836.541-2.198 1.137-.688.725 1.753 1.541-1.052 1.36 3.39 1.693.351.484-1.695.48-1.686 1.267.817.67 1.863 1.401-1.619 1.046-.226 1.145 1.038.761.69.931-.65 1.245.767.725.79.242 1.508.967 3.196 1.39-7.398.26-1.975.837.069.657 3.063.483 1.158.242.803.242.656h.242l.525-2.728.98-2.299.913 1.17 1.209 1.52.483-2.222.242-1.344.242-1.345 1.463 2.283 1.197 1.926.84-3.801.758-.408.385.844.435 2.079h.241l.666-2.145.956.533 1.28 4.418 1.18-8.982.232-2.227 1.973-.832.967 5.026.384-2.693.417-.697.9.637.595 1.508.968.485 1.33 2.28h.242l1.03-1.795.489-2.126 1.15-.733.474 1.615.423 1.052 1.028 2.338.324-1.775.385-2.107 1.212.542.739 2.054.967-2.221 1.04-1.107.79-3.152.92-.417.877.818.51-2.742.865-.765.642 1.253.679.496.438-1.483 1.702 1.955.581-4.03.628-.997 1.209 1.52.967-.818.846-.936 1.088-2.134.605-5.581.719-5.853.108-1.881 1.03-.191.58 1.87.252 1.348 1.059 6.11.725-6.196 1.45.117.498-3.907.334-2.622.324-1.07.764 1.751.257 1.522.967 3.157.484-1.592.483-1.681 1.49-4.466 1.23.959.424 1.77.725 3.715.725 4.802h.242l1.028-5.378.515-2.332 1.334-1.613.829.92.405 2.92.242 3.035.483 2.243.484 2.601.725 2.531.725 2.788.604-3.718.318-1.962 1.98-.515.967 3.857.408-1.874 1.061-.227.23 1.507.39 2.565.563 3.708 2.184 2.738"/><path clip-rule="evenodd" fill="none" stroke="#6E9ED4" stroke-width="1.5" stroke-linecap="round" stroke-linejoin="round" stroke-miterlimit="10" d="M15.58 171.825l3.838-1.806 1.618.234 1.3 3.834 2.49 1.738.62-1.66 1.88-.728.5 2.217.811 1.664 1.437 1.553 1.25-2.03 1.25 2.15h.25l1.998-.479 3-1.791 1.249.836.75 1.553 1.906-2.46 2.592 1.385 1.74-1.314 1.379.642.88-.224 2.394-.18 1.442-.238.661.955 1.562-1.672 1.437 2.27 1.25-.359 2.499.12.75.716 1.749-.209 3.749 1.523 1.091-1.461 1.907.028 2.767-1.768 1.607 2.365.814.449 2.31.029 1.999 1.672 2.749 1.433 1.5-2.27 2.998 1.553 2.943-4.578 1.305-.557.5-.836.911-1.296 1.829-2.168.759 2.15 1 2.516 1.249 1.664.74-.708 1-.247.884-.717.75-1.433 1.35-2.585 2.523 1.51 2.624-6.568 2.124-5.106 1.26-.866 1.17.859 1.237 2.473.994 1.986 2.12-2.543 1.775 1.477 1.066 3.033.625.777 1.499 1.015h.25l2.187-3.231 2.043.506 2.018 2.128h.25l2.761-.8.987 2.83h.25l2.077-.008.903 1.64 1.268 2.548h2.25l2.748-1.911 1.662-2.333.626-1.115.683-2.45 1.616-.193 1.615-.477 2.295 1.671 1.312-1.074.937 1.433h.25l1.5-.956.944 1.129 1.18-.472 1.374-.537.75 1.075 2.499-3.105 1.374.597 1.125-.418 1.187-1.135 3.575-5.31 1.486-.542.807 1.35 3.956 1.059 1.86 2.368 2.873-1.284 1 1.523 1.365-2.088 1.728-3.234 2.612-1.582 1.304-3.598.256-4.962.981-9.084.554-9.504.194-3.061 1.182 1.868.32 4.857 1.999 16.88v2.162l.435 3.526.564 3.043h.25l2.5-8.002 1.499.359.75-3.464.99-1.552 1.235 1.983 1.235 3.86 1.792.707.614-2.345.89-6.174.482-6.095.258-3.272 1.092 1.17.658 1.209.538 2.63.753 2.43.848.22.777-2.507 1.266.378 2.316 6.761.874.836.45 1.909.407 2.407 1.017-1.012 3.25-6.05 2.076 3.882 2.172 5.074h.25l2.499-1.433 1.091 3.026 1.119 1.337 1.288 4.236h.25l1.361-2.819 1.218.564 2.17 5.599 2.56-.776 2.937.537 1.01-.717 1.252 1.062 1.112 1.566 1.968 2.336 1.062 3.45 2.463-.65 1.018 2.865 1.423 1.434 1.687 2.269 1-3.105 1.827.152.594-.663.578-.086 1.732-1.134 3.266-.897 2.249 1.792 1.75-.478 2.249.12 1.749 1.79 1.532-1.375 2.466-.416 1.375-1.91 1.624-2.03 1.75.477 4.273 1.474 1.276.4 1.078-1.038 2.869 1.553 3.253-.135.495-1.896.5-1.91 1.5.358 2.249-17.795 2.749 2.986.75-4.073.684-4.822.397-1.993 1.17-2.211.248 2.947.248 2.967.501 5.871.316-2.11.98-1.15 1.244 2.28.71 1.697.334-2.507.397-2.976 2.275.555.24 2.76 1.001 3.72 1.25 2.586 1.5 3.505h.25l.749-2.389 2.154.695 1.104 2.405.95 2.066 1.305.09.984.716 1.49-.597.519.929.552 1.978.167.598.771.197 1.25 3.583h.25l.485-1.858 1.514.902h.25l1.305-1.968 1.694-.42 1.025.935 1.286 2.648 1.817 1.12 1.87-1.24 1.749-.716 2.998-.836.741 2.006 2.008-1.41 2.75 2.867h.25l1.311-.478.688 1.075h.25l1.823-1.075 2.675 1.553 2.999-1.075 1 1.553.693-1.495 2.45-.894 2.729.02 1.124 1.413h.25l3.645-1.2 2.288 1.05 1.618-.027 1.196 1.371 1.633.12 3.365-.299 3.124-.298 1.125-1.314 4.498-2.15.725-2.795.275-.788 1.249-.238.458-1.643 1.996-1.216 1.294 1.784h.25l1.125-1.672.875.955h.25l1.749-3.463 1.232 1.884 1.517 1.22.75-.87 2.499-1.876 1.568-.75 1.111-2.442 2.819-.63 1.827-.485.797.605.68-.796.694-2.787 1.158-2.018 1.485-.587 1.106 2.008 1.129-.69 1.037-.963 1.582-.975.5 1.434 1.538-8.827.461-2.758 1.25 1.553.5 4.792.75 4.881h.25l1.814-2.16.934 3.593h.25l.5-1.85.5-1.805.874-4.286 1.375-3.643 1.752-1.893.45 2.85 1.546 6.448h.25l2.25-3.548.75-2.305.999-5.851.765-2.48.397-2.37.837.192.5 7.218.75 7.471 1.265-.808.233 2.19.5 4.71h.25l1-2.031 1-1.796 1.374-2.026.875 2.687 1.5 3.971 1.249 4.807h.25l.5-.836 1.75.359"/></svg>