<svg xmlns="http://www.w3.org/2000/svg" xmlns:xlink="http://www.w3.org/1999/xlink" viewBox="0 0 474.138 290.885"><text transform="translate(463.552 265.883)" fill="#ECECEC" font-family="'Roboto'" font-size="8">0</text><text transform="translate(0 279.625)"><tspan x="0" y="0" fill="#ECECEC" font-family="'Roboto'" font-size="8">январь </tspan><tspan x="4.457" y="9.092" fill="#ECECEC" font-family="'Roboto'" font-size="8">2017</tspan></text><text transform="translate(33.304 279.625)" fill="#ECECEC" font-family="'Roboto'" font-size="8">февраль</text><text transform="translate(77.225 279.625)" fill="#ECECEC" font-family="'Roboto'" font-size="8">март</text><text transform="translate(110.135 279.625)" fill="#ECECEC" font-family="'Roboto'" font-size="8">апрель</text><text transform="translate(152.535 279.625)" fill="#ECECEC" font-family="'Roboto'" font-size="8">май</text><text transform="translate(186.64 279.625)" fill="#ECECEC" font-family="'Roboto'" font-size="8">июнь</text><text transform="translate(223.333 279.625)" fill="#ECECEC" font-family="'Roboto'" font-size="8">июль</text><text transform="translate(13.466 13.696)"><tspan x="0" y="0" fill="#ECECEC" font-family="'DIN Pro'" font-size="16">Прибыльность майнинга</tspan><tspan x="0" y="18.91" fill="#F59900" font-family="'Roboto'" font-size="12">°</tspan><tspan x="4.471" y="15.91" fill="#F59900" font-family="'Roboto'" font-size="12"> Zcash </tspan><tspan x="49.553" y="18.91" fill="#6E9ED4" font-family="'Roboto'" font-size="12">°</tspan><tspan x="54.023" y="15.91" fill="#6E9ED4" font-family="'Roboto'" font-size="12"> Monero </tspan><tspan x="107.32" y="18.91" fill="#2DB7BC" font-family="'Roboto'" font-size="12">°</tspan><tspan x="111.791" y="15.91" fill="#2DB7BC" font-family="'Roboto'" font-size="12"> Bitcoin</tspan><tspan x="152.414" y="15.91" fill="#816070" font-family="'Roboto'" font-size="12"> </tspan><tspan x="161.361" y="18.91" fill="#94A6B0" font-family="'Roboto'" font-size="12">°</tspan><tspan x="165.832" y="15.91" fill="#94A6B0" font-family="'Roboto'" font-size="12"> Ethereum </tspan><tspan x="229.318" y="18.91" fill="#816070" font-family="'Roboto'" font-size="12">°</tspan><tspan x="233.789" y="15.91" fill="#816070" font-family="'Roboto'" font-size="12"> Litecoin</tspan></text><text transform="translate(257.604 279.625)" fill="#ECECEC" font-family="'Roboto'" font-size="8">август</text><text transform="translate(289.08 279.625)" fill="#ECECEC" font-family="'Roboto'" font-size="8">сентябрь</text><text transform="translate(327.713 279.625)" fill="#ECECEC" font-family="'Roboto'" font-size="8">октябрь</text><text transform="translate(366.306 279.625)" fill="#ECECEC" font-family="'Roboto'" font-size="8">ноябрь</text><text transform="translate(400.741 279.625)" fill="#ECECEC" font-family="'Roboto'" font-size="8">декабрь</text><text transform="translate(439.582 279.625)"><tspan x="0" y="0" fill="#ECECEC" font-family="'Roboto'" font-size="8">январь </tspan><tspan x="4.457" y="9.092" fill="#ECECEC" font-family="'Roboto'" font-size="8">2018</tspan></text><text transform="translate(463.552 242.253)" fill="#ECECEC" font-family="'Roboto'" font-size="8">0,1</text><text transform="translate(463.552 218.956)" fill="#ECECEC" font-family="'Roboto'" font-size="8">0,2</text><text transform="translate(463.552 195.66)" fill="#ECECEC" font-family="'Roboto'" font-size="8">0,5</text><text transform="translate(463.552 172.078)" fill="#ECECEC" font-family="'Roboto'" font-size="8">2</text><text transform="translate(463.552 148.212)" fill="#ECECEC" font-family="'Roboto'" font-size="8">3,5</text><text transform="translate(463.552 124.442)" fill="#ECECEC" font-family="'Roboto'" font-size="8">5</text><text transform="translate(463.552 54.037)" fill="#ECECEC" font-family="'Roboto'" font-size="8">20</text><text transform="translate(463.552 77.505)" fill="#ECECEC" font-family="'Roboto'" font-size="8">15</text><text transform="translate(463.552 100.974)" fill="#ECECEC" font-family="'Roboto'" font-size="8">10</text><g fill="none" stroke="#E3E3E3" stroke-width=".247" stroke-miterlimit="10"><path d="M13.465 269.185v-5.576h36.631v5.576"/><path d="M50.096 269.185v-5.576h36.632v5.576m0 0v-5.576h36.632v5.576m0 0v-5.576h36.632v5.576m0 0v-5.576h36.632v5.576m0 0v-5.576h36.632v5.576m0 0v-5.576h36.632v5.576m0 0v-5.576h36.631v5.576m.001 0v-5.576h36.631v5.576m0 0v-5.576h36.632v5.576m0 0v-5.576h36.632v5.576m0 0v-5.576h36.632v5.576"/></g><path fill="none" stroke="#E3E3E3" stroke-width=".35" stroke-miterlimit="10" d="M457.174 263.609h-4.127m4.127-23.429h-4.127m4.127-23.429h-4.127m4.127-23.481h-4.127m4.127-23.646h-4.127m4.127-23.688h-4.127m4.127-23.627h-4.127m4.127-23.582h-4.127m4.089-23.496h-4.127m4.165-23.549h-4.127"/><defs><path id="id-582a" d="M453.047 198.334s-36.835 7.203-109.895 4.076c-30.587-1.31-67.525-3.374-110.767-3.374-36.632 0-109.025 5.235-145.126 5.235-37.154 0-73.794-5.235-73.794-5.235v64.573h439.582v-65.275z"/></defs><clipPath id="id-583b"><use xlink:href="#id-582a" overflow="visible"/></clipPath><g clip-path="url(#id-583b)" fill="none" stroke="#E3E3E3" stroke-width=".35" stroke-miterlimit="10"><path d="M13.465 240.191h36.632v23.419H13.465zm0-23.419h36.632v23.419H13.465z"/><path d="M13.465 193.353h36.632v23.419H13.465zm36.631 46.838h36.632v23.419H50.096z"/><path d="M50.096 216.772h36.632v23.419H50.096z"/><path d="M50.096 193.353h36.632v23.419H50.096zm36.632 46.838h36.632v23.419H86.728zm0-23.419h36.632v23.419H86.728z"/><path d="M86.728 193.353h36.632v23.419H86.728zm36.632 46.838h36.632v23.419H123.36zm0-23.419h36.632v23.419H123.36z"/><path d="M123.36 193.353h36.632v23.419H123.36zm36.632 46.838h36.632v23.419h-36.632zm0-23.419h36.632v23.419h-36.632z"/><path d="M159.992 193.353h36.632v23.419h-36.632zm36.632 46.838h36.632v23.419h-36.632zm0-23.419h36.632v23.419h-36.632z"/><path d="M196.624 193.353h36.632v23.419h-36.632zm36.632 46.838h36.632v23.419h-36.632z"/><path d="M233.256 216.772h36.632v23.419h-36.632z"/><path d="M233.256 193.353h36.632v23.419h-36.632zm36.632 46.838h36.632v23.419h-36.632zm0-23.419h36.632v23.419h-36.632z"/><path d="M269.888 193.353h36.632v23.419h-36.632zm36.631 46.838h36.632v23.419h-36.632z"/><path d="M306.519 216.772h36.632v23.419h-36.632z"/><path d="M306.519 193.353h36.632v23.419h-36.632zm36.632 46.838h36.632v23.419h-36.632zm0-23.419h36.632v23.419h-36.632z"/><path d="M343.151 193.353h36.632v23.419h-36.632zm36.632 46.838h36.632v23.419h-36.632zm0-23.419h36.632v23.419h-36.632z"/><path d="M379.783 193.353h36.632v23.419h-36.632zm36.632 46.838h36.632v23.419h-36.632zm0-23.419h36.632v23.419h-36.632z"/><path d="M416.415 193.353h36.632v23.419h-36.632z"/></g><use xlink:href="#id-582a" overflow="visible" fill="none" stroke="#E3E3E3" stroke-width=".35" stroke-miterlimit="10"/><path clip-rule="evenodd" fill="none" stroke="#816070" stroke-width="1.5" stroke-linecap="round" stroke-linejoin="round" stroke-miterlimit="10" d="M13.465 257.579l2.2-.1 1.796-.58.893 1.175 1.467-.099.978.595 1.956-.496.978-.694 4.197 1.216 3.87.47.544.21 1.428-.046 1.26.152 1.223-.053 1.361.554 2.497-.173 1.712.347 4.4.05 1.467-.347 1.467.05 3.668.247 3.422.199.881-.938 1.075.045 3.179.694 3.028-.075 1.617-.222 1.109-.114 4.758.312 1.712-.148.733.446 3.794-.634 2.677-.27 2.086.854 1.395-.38 1.947.005 1.7-.042 1.804-.079 1.44-.408 1.666.035.56.225.49-.149.978-.149.733.248 2.816-.485 2.712-.543 1.094-.095.798.68 1.038.357 2.055.235 1.956-1.029.66.573 1.785-.189.978.447 1.956-.062 1.894-.087 1.442-.622 1.064-2.016 1.406-1.526 2.262-1.215.988-1.42.959-.44 1.72.397.492-1.647.364-.93.337-1.006 1.056.04.316 1.139.613 2.206h.245l2.2-.397.733.843h.245l1.56-2.418 1.002-.783 1.994-.076 2.045-.094.734-1.996.408-1.164.857-.159.266 1.252.398 1.872.515 2.426h.245l.995-.075.41.582.306.683 1.223 1.388.978-2.537 2.933-1.727.734 1.14h.244l1.1-.99.608 1.023.982 1.703 1.24-1.124.96-.66.873-.646.823-1.459 1.357-.533.804-1.726 1.087-.534.68 1.377h.244l.249-1.259.24-1.22 1.71.248.282-1.065 1.448-.883.698 1.368.996.73 1.231-2.496 1.743-.212.394 1.159.605 1.152 3.361 4.213.847 1.066 1.598 2.008.581-1.964.642-.515 1.222.694.605-1.022 1.145-.121.695.548.978.645h.244l1.379-1.094.987-.788 1.593-.778.686 1.28.674 1.98.793 1.928.49-1.19 1.706-.23.724-.844 1.481 1.174h.244l1.597-1.845 1.425.617.646 1.277h.244l.836-.74.885-1.193 1.692.932 1.538-.486 2.384-.446.27-1.013.288-1.98.434-3.195.185-1.362 1.027-.316.363 1.123.367.956 1.222 1.436.978 2.02 1.222 2.033 1.845-7.017.356-1.77.927-.492.552-.654.709-1.054 1.124.663.6 1.494 1.466 3.922.443-1.57 1.758.678.679-.872 1.118.102.953.919.673 1.1.733 1.031h.244l.978-3.42 2.354.389.58 1.098 1.53 1.373.915-1.36.502-1.467 1.994-3.575.361-1.21 1.183-.1.988 1.202.35.824 1.712 3.123h.245l.427-1.294 1.885.806 1.11 2.174.28-.813.403-1.173 1.097.213.42.88 2.69 3.024 1.222-1.081.374-.799 1.22.105.607 1.346.244.637.734.437 1.344-.397 1.061.507 1.262.931 1.728-.245.363 1.14.598 1.435 2.69.198.799.31 1.665.295 2.335.567.824.96 1.213-.942 2.21.496 2.933-.644.533.032.527-.201 1.526-.585 3.003.102 1.746.057 2.372.705.806.98 1.223-.396.977.396.978-.67 1.162-.668 1.356.233.487-.428.907-.128.755.012.21-.127.705-.43 2.486-.173 2.69.396.733-1.397.734-.388 1.658-.001 1.459 1.34 1.283 1.041.585-1.927.328-1.08.898-.139 1.323 1.025 1.222.946.779 1.274 1.33-1.694.87-.636.978.744h.244l1.5-.448.383 1.602.807 2.415h.244l.845-.388 1.672-.134 1.456.659.917.473 1.956 2.018 1.955-.199 1.345-.594 1.345.793 1.569-.574.876 1.466h.244v-.05l3.182.241 3.42-.29.977-.843 1.467.694h.245l2.933.1 1.1.297.696.299 1.066.097.683.174.785.021 1.11-.492.917.397 1.458-.248.922.406 1.984-.243 1.412-.188.798-.647 1.005-.592.83-.382 1.806-.326 1.348 1.142.956.06.561.266.856.454h.244l1.467-.595 1.956.645 2.934.148 2.2-.099 1.711-.198.734.248.733-.347 2.635.58 1.285.23 1.214.33.978-.93 1.977.003.713.53 1.956-.644 3.169-.892 1.82.546 1.005-.298 1.585 1.437h.244l.45-.35 2.484.003 1.222-1.636 2.327-.446 1.52.732 1.211.918.493-.104 1.28-.355 2.215-.398.616-.377 1.08-1.094 2.46.232 1.703-.843.481 1.248.75 1.875h.245l2.65-2.085 1.261-.592 1.956-.743.734 1.09.397.944 1.812-.002 1.703 1.14 1.772-1.735.978-1.289.672-1.733.245-.795.484-.972 1.431 1.104 1.019.86 1.231-.645 1.702.595 3.482-.551 1.06.913 1.057.858 1.61-.229 1.837 1.19 2.575-.237 1.031.535.55.595 1.284.247.428.174 2.445.868 1.222-.893h1.223l.309-.204 1.402-.44"/><path clip-rule="evenodd" fill="none" stroke="#94A6B0" stroke-width="1.5" stroke-linecap="round" stroke-linejoin="round" stroke-miterlimit="10" d="M13.465 253.354l1.212.104 2.182-1.767h.728l1.212.312v.208l2.91.935v-.104h.97v-.104l3.879.832v.208l.485.104v.104h2.182v.104l2.425.104 1.697-.52.242-.208h.728l1.454.312.243-.208h3.394v.104h.485v.104h1.94v.104h.97v.104h1.212v.104h.727v.104h.243v-.104h.727v-.104h4.85v-.104l2.182.104v-.104h.485l.242-.208h.485v-.104l.97-.104.97.52h3.879l.243.208 1.454.208v.104l1.455-.104 2.425.104.97-.624h.484l.485-.312h1.698v.104l1.212.104v.104h.727v.104h1.213v.104h1.454l2.91.312v-.104h.97v-.104h.727v-.104h2.667v-.104l3.395-.936 1.212-1.56 1.212-.311v-.104l1.94.104.727.624 1.698-.104v.104l1.212.104 1.697 1.351h.485v-.104l1.212-.728.485-.103v-.208h.243l.242-.416h.243l.242-.52h.243v-.312h.242v-.52h.243v-.52h.242l.242-1.04h.243v-.415l.485-.104v-.208l.727-.208v-.208l1.212-.415.485-2.495h.243v-1.144h.242v-1.04h.243v-.831l1.212-2.08h.97l.727 3.431h.485l1.455-1.351h1.212l.485.104 1.213.831.242.416h.243l.242.312h.242l.728-1.143.242-.832 1.213-1.767h.727v.104l1.212 1.04.485.103.485.624.97.104 2.182-.624v.104h.727l.97 1.351 1.455-.104 2.425.832 1.212 1.872 1.212-.312 1.213 1.04h.485l.242.207 1.94-.104v.104l.97.104.484.312 1.213.104v.104l.97-.104 1.212-2.08h.97l.97 1.352 2.667-.104v.104H141v.104h3.152v.104l1.454.208v.104h.485v.104h.485l.243.312 1.454.312.243-.312h.242v-.208h.243l.97-.208v.104l1.697.104 1.455-2.08h.242v-.415h.243v-.312h.242v-.416h.243l.242-.208h.485v-.104l.727-.208.243-.52h.242v-.311h.243v-.312h.242v-.312h.243v-.312h.242v-.312h.242l.243-.728h.242v-.103h.728l.485.207v.208h.242l.97.208.97-2.495.485-.104v-.208h.242l.485-.623 1.94.311v-.103l1.212-.208 1.697 1.87v.417h.243l.242.727h.243v-.207l.485-.416h.97l2.182.727.97.52.484.104v.208l.97.624 1.455.104 1.455.416.242-.312h.243v-.208h.242v-.312h.243v-.208h.242l.243-1.247 1.454-3.327.485-1.56h.243v-.311h.242v-.208h.243v-.208l.485-.104v-.208h.242l.97-5.822h.242v-.52h.243l.242-.415h.243v-.312h.242v-.208h.243l.97-4.263 1.212-1.87h.97l.485 1.247v.831h.242v.728h.243v.728h.242v1.04l.242.207v1.56h.243l.242 1.975.243 1.04.485-2.392h.485l.727-.415h.243v-1.04l.484-1.767h.243v-.936h.242v-.936h.243l.97-3.742h.97l.727 2.599v.936h.242v.623h.243v.416h.242l1.455 1.144h.243l1.212-1.768h.242v-.208h.243v-.207h.242v-.312l.728-.208v-.208h.242l.243-.208h.97l.242.312.485.104v.208l.485.104.485.623h.242l1.697-3.534 2.667-11.436 1.94-.416 1.455 3.95v1.456h.242v1.56h.243l.485 2.599.485-1.144 1.454.208v.104l1.698-.104v.104l1.697 1.663v.52l1.455 3.223.242 1.975 1.212 1.351h1.455l.728.832v.312h.242v.208h.242v.624h.243v.727l1.455 3.743v.936h.242v.831h.243v.832h.242v.624h.242l.485 1.04.728-4.16 2.182-.727 2.425 5.51 1.454-.832h.728l.485.312h.242v.208l.727.208v.208h.243v.208h.242v.208h.243v.208l1.697.623.243.52h.242l.243.416h.242l.242.52h.243v.312h.242v.312h.243v.208h.242v.208l1.213.311v.312h.242v.832l1.455 3.639.485 1.455h.242v-.208l1.697-.416v-.104h.728l.242.312.485.104v.208l.485.104v.208h.243v.312h.242v.312h.242v.207h.243l.242.728h.243v.52h.242l.485 1.144v-.104h.243l.242-.728h.243v-.52l.97-1.663v-.52l1.212-1.247h.97l.97.935 1.454-.208.243-.208h1.212v.104l2.182-.104 1.94 2.287 1.455-.104v.104l2.182 1.04 1.455-.312.484.208v.208l.485.104v.208l.728.208 2.182-.52.242-.208 1.455.104v-.104l.97-.832h.242v-.312h.243v-.208h.242v-.311h.243l.242-.416 2.425-.936v-.208l5.577-1.351.97 1.143h1.454v.208l.485.208h.243l.97-1.143h.727v.104l1.455-.104v-.104h.97l1.212 1.663.485-.104.97-1.351h.97v.208l1.939.52 1.697-.209.97 1.976h.242l.485.415h.485l.728-.415h.242l.243-.416.485-.104v-.208l1.697-.624v-.208l.485-.104v-.208l.485-.104v-.311h.242l.727-.832 2.183.312 1.454 1.975v.208h.243v.208h.242v.208l.485.104v.208l1.455.935.243.104.97-1.767h.727l1.212.624.485.104v.207l.727.208v.312h.243v.312h.242v.312l.728.728 3.637.312.484.623h.243v.208l.485.104.242.52h.243l.485.624h.242l.485.312h.243v-.104l1.697-.416.485.104h.242v-.416h.243l.484-1.144 1.698.312v.104l1.455-.104.97.624v.208l.484.104v.52h.243v.52h.242v.52h.243l.485.83 3.879-1.247h1.455v-.104h.485l.485-.311 1.697.104v-.104l1.697-.208.727.416h1.94l2.667.415 3.152-.727h.97l.485.312h.485l.242.103v-.103h1.698v-.104h1.454v-.104l.97-.208.243-.312h.242l1.455-.624.727.52.728-.104v-.416l5.819-.728.97.832 2.182.208 1.697-.416v.104l.727.104.243-.208h.485v-.104l6.061.208 2.667.104.728-.416 2.182-.312.97.312v-.104l.727-.208 2.425.104v-.104l.97-.727 1.94.312.242.207 2.182.312.727-.415h.243v-.208l.485-.104 2.424-1.04h2.91l.97-.936 1.454.208v.104l2.425-.208.485-.416h.242v-.207l.485-.104.243-.416.485-.104 1.454-1.663 1.455.104 2.182-1.144v-.104l1.698.104v.104l1.212 1.56 1.94-.313 1.212-1.143h.485v-.104h.485l.242-.312h.243l.97-1.352h.727l.485.416h.485l.97-.623v-.312h.242l.243-.416h.242v-.312l1.212-.416v-.104h.97l.97 1.352.727-.104.728-2.495v-.832h.242v-.728h.243v-.623h.242l.728-2.391 1.212-2.08h.97l.727 2.703h.243v-.208h.242l.242-.623h.97l.97 1.455h.243v-.104l.485-1.351h.242v-1.144h.242v-1.04h.243l.242-1.767 1.455.104v.208l1.697-.208.243 1.456h.242v1.04h.243v.935h.242l.485 1.767.97.208.727 1.56.485 1.143v-.208l.485-.416.485-.104v-.208l.728-.208v-.208l.727-.104v-.103l1.212-.208.97 1.559.727-1.144v-.104h.728l1.455 1.456h.485l.727-.728h.242v-.935h.485"/><defs><path id="id-584c" d="M196.624 122.145c-17.306 0-52.347 8.058-73.264 8.058-20.917 0-54.088-7.894-73.263-7.894-19.166 0-36.615-2.037-36.632-2.04v75.357s36.64 5.236 73.795 5.236c36.1 0 108.493-5.236 145.125-5.236 43.243 0 80.181 2.065 110.77 3.375 73.051 3.126 109.885-4.075 109.892-4.076V117.6s-36.632 9.264-109.896 9.264c-73.263 0-72.541-4.719-146.527-4.719z"/></defs><clipPath id="id-585d"><use xlink:href="#id-584c" overflow="visible"/></clipPath><g clip-path="url(#id-585d)" fill="none" stroke="#E3E3E3" stroke-width=".35" stroke-miterlimit="10"><path d="M13.465 185.392h36.632v7.885H13.465zm0-7.885h36.632v7.885H13.465zm36.632 7.885h36.632v7.885H50.097zm0-7.885h36.632v7.885H50.097zm36.632 7.885h36.632v7.885H86.729zm0-7.885h36.632v7.885H86.729zm36.632 7.885h36.632v7.885h-36.632zm0-7.885h36.632v7.885h-36.632zm36.632 7.885h36.632v7.885h-36.632zm0-7.885h36.632v7.885h-36.632z"/><path d="M196.624 185.392h36.632v7.885h-36.632zm0-7.885h36.632v7.885h-36.632z"/><path d="M233.256 185.392h36.632v7.885h-36.632zm0-7.885h36.632v7.885h-36.632zm36.632 7.885h36.632v7.885h-36.632zm0-7.885h36.632v7.885h-36.632zm36.632 7.885h36.632v7.885H306.52zm0-7.885h36.632v7.885H306.52zm36.632 7.885h36.632v7.885h-36.632zm0-7.885h36.632v7.885h-36.632z"/><path d="M379.783 185.392h36.632v7.885h-36.632zm0-7.885h36.632v7.885h-36.632zm36.632 7.885h36.632v7.885h-36.632zm0-7.885h36.632v7.885h-36.632zm-402.95 23.654h36.632v7.885H13.465z"/><path d="M13.465 193.277h36.632v7.885H13.465zm36.632 7.884h36.632v7.885H50.097z"/><path d="M50.097 193.277h36.632v7.885H50.097zm36.632 7.884h36.632v7.885H86.729z"/><path d="M86.729 193.277h36.632v7.885H86.729zm36.632 7.884h36.632v7.885h-36.632z"/><path d="M123.361 193.277h36.632v7.885h-36.632zm36.632 7.884h36.632v7.885h-36.632z"/><path d="M159.993 193.277h36.632v7.885h-36.632z"/><path d="M196.624 201.161h36.632v7.885h-36.632z"/><path d="M196.624 193.277h36.632v7.885h-36.632z"/><path d="M233.256 201.161h36.632v7.885h-36.632z"/><path d="M233.256 193.277h36.632v7.885h-36.632zm36.632 7.884h36.632v7.885h-36.632z"/><path d="M269.888 193.277h36.632v7.885h-36.632zm36.632 7.884h36.632v7.885H306.52z"/><path d="M306.52 193.277h36.632v7.885H306.52zm36.632 7.884h36.632v7.885h-36.632z"/><path d="M343.152 193.277h36.632v7.885h-36.632z"/><path d="M379.783 201.161h36.632v7.885h-36.632z"/><path d="M379.783 193.277h36.632v7.885h-36.632zm36.632 7.884h36.632v7.885h-36.632z"/><path d="M416.415 193.277h36.632v7.885h-36.632zm-402.95-23.653h36.632v7.885H13.465z"/><path d="M13.465 161.74h36.632v7.885H13.465zm0-7.885h36.632v7.885H13.465zm36.632 15.769h36.632v7.885H50.097z"/><path d="M50.097 161.74h36.632v7.885H50.097zm0-7.885h36.632v7.885H50.097zm36.632 15.769h36.632v7.885H86.729z"/><path d="M86.729 161.74h36.632v7.885H86.729zm0-7.885h36.632v7.885H86.729zm36.632 15.769h36.632v7.885h-36.632z"/><path d="M123.361 161.74h36.632v7.885h-36.632zm0-7.885h36.632v7.885h-36.632zm36.632 15.769h36.632v7.885h-36.632z"/><path d="M159.993 161.74h36.632v7.885h-36.632zm0-7.885h36.632v7.885h-36.632z"/><path d="M196.624 169.624h36.632v7.885h-36.632z"/><path d="M196.624 161.74h36.632v7.885h-36.632zm0-7.885h36.632v7.885h-36.632z"/><path d="M233.256 169.624h36.632v7.885h-36.632z"/><path d="M233.256 161.74h36.632v7.885h-36.632zm0-7.885h36.632v7.885h-36.632zm36.632 15.769h36.632v7.885h-36.632z"/><path d="M269.888 161.74h36.632v7.885h-36.632zm0-7.885h36.632v7.885h-36.632zm36.632 15.769h36.632v7.885H306.52z"/><path d="M306.52 161.74h36.632v7.885H306.52zm0-7.885h36.632v7.885H306.52zm36.632 15.769h36.632v7.885h-36.632z"/><path d="M343.152 161.74h36.632v7.885h-36.632zm0-7.885h36.632v7.885h-36.632z"/><path d="M379.783 169.624h36.632v7.885h-36.632z"/><path d="M379.783 161.74h36.632v7.885h-36.632zm0-7.885h36.632v7.885h-36.632zm36.632 15.769h36.632v7.885h-36.632z"/><path d="M416.415 161.74h36.632v7.885h-36.632zm0-7.885h36.632v7.885h-36.632zm-402.95-7.885h36.632v7.885H13.465zm36.632 0h36.632v7.885H50.097zm36.632 0h36.632v7.885H86.729zm36.632 0h36.632v7.885h-36.632zm36.632 0h36.632v7.885h-36.632z"/><path d="M196.624 145.97h36.632v7.885h-36.632z"/><path d="M233.256 145.97h36.632v7.885h-36.632zm36.632 0h36.632v7.885h-36.632zm36.632 0h36.632v7.885H306.52zm36.632 0h36.632v7.885h-36.632z"/><path d="M379.783 145.97h36.632v7.885h-36.632zm36.632 0h36.632v7.885h-36.632zm-402.95-7.882h36.632v7.885H13.465zm0-7.885h36.632v7.885H13.465zm0-7.885h36.632v7.885H13.465zm36.632 15.77h36.632v7.885H50.097zm0-7.885h36.632v7.885H50.097zm0-7.885h36.632v7.885H50.097zm36.632 15.77h36.632v7.885H86.729zm0-7.885h36.632v7.885H86.729zm0-7.885h36.632v7.885H86.729zm36.632 15.77h36.632v7.885h-36.632zm0-7.885h36.632v7.885h-36.632zm0-7.885h36.632v7.885h-36.632zm36.632 15.77h36.632v7.885h-36.632zm0-7.885h36.632v7.885h-36.632zm0-7.885h36.632v7.885h-36.632z"/><path d="M196.624 138.088h36.632v7.885h-36.632zm0-7.885h36.632v7.885h-36.632zm0-7.885h36.632v7.885h-36.632z"/><path d="M233.256 138.088h36.632v7.885h-36.632zm0-7.885h36.632v7.885h-36.632zm0-7.885h36.632v7.885h-36.632zm36.632 15.77h36.632v7.885h-36.632zm0-7.885h36.632v7.885h-36.632zm0-7.885h36.632v7.885h-36.632zm36.632 15.77h36.632v7.885H306.52zm0-7.885h36.632v7.885H306.52zm0-7.885h36.632v7.885H306.52zm36.632 15.77h36.632v7.885h-36.632zm0-7.885h36.632v7.885h-36.632zm0-7.885h36.632v7.885h-36.632z"/><path d="M379.783 138.088h36.632v7.885h-36.632zm0-7.885h36.632v7.885h-36.632zm0-7.885h36.632v7.885h-36.632zm36.632 15.77h36.632v7.885h-36.632zm0-7.885h36.632v7.885h-36.632zm0-7.885h36.632v7.885h-36.632zm-402.95-7.904h36.632v7.885H13.465z"/><path d="M13.465 106.53h36.632v7.885H13.465zm36.632 7.884h36.632v7.885H50.097z"/><path d="M50.097 106.53h36.632v7.885H50.097zm36.632 7.884h36.632v7.885H86.729z"/><path d="M86.729 106.53h36.632v7.885H86.729zm36.632 7.884h36.632v7.885h-36.632z"/><path d="M123.361 106.53h36.632v7.885h-36.632zm36.632 7.884h36.632v7.885h-36.632z"/><path d="M159.993 106.53h36.632v7.885h-36.632z"/><path d="M196.624 114.414h36.632v7.885h-36.632z"/><path d="M196.624 106.53h36.632v7.885h-36.632z"/><path d="M233.256 114.414h36.632v7.885h-36.632z"/><path d="M233.256 106.53h36.632v7.885h-36.632zm36.632 7.884h36.632v7.885h-36.632z"/><path d="M269.888 106.53h36.632v7.885h-36.632zm36.632 7.884h36.632v7.885H306.52z"/><path d="M306.52 106.53h36.632v7.885H306.52zm36.632 7.884h36.632v7.885h-36.632z"/><path d="M343.152 106.53h36.632v7.885h-36.632z"/><path d="M379.783 114.414h36.632v7.885h-36.632z"/><path d="M379.783 106.53h36.632v7.885h-36.632zm36.632 7.884h36.632v7.885h-36.632z"/><path d="M416.415 106.53h36.632v7.885h-36.632z"/></g><use xlink:href="#id-584c" overflow="visible" fill="none" stroke="#E3E3E3" stroke-width=".35" stroke-miterlimit="10"/><defs><path id="id-586e" d="M123.36 126.793c20.917 0 55.768-8.057 73.264-8.057 73.264 0 73.264 4.718 146.527 4.718 73.261 0 109.893-9.263 109.896-9.264V51.682H13.465v65.178c.017.002 17.466 2.04 36.632 2.04 19.175 0 52.346 7.893 73.263 7.893z"/></defs><clipPath id="id-587f"><use xlink:href="#id-586e" overflow="visible"/></clipPath><g clip-path="url(#id-587f)" fill="none" stroke="#E3E3E3" stroke-width=".35" stroke-miterlimit="10"><path d="M13.465 94.064h36.632v4.709H13.465z"/><path d="M13.465 89.355h36.632v4.709H13.465zm0-4.709h36.632v4.709H13.465zm0-4.709h36.632v4.709H13.465zm0-4.709h36.632v4.709H13.465z"/><path d="M13.465 70.519h36.632v4.709H13.465zm36.632 23.545h36.632v4.709H50.097zm0-4.709h36.632v4.709H50.097zm0-4.709h36.632v4.709H50.097zm0-4.709h36.632v4.709H50.097zm0-4.709h36.632v4.709H50.097z"/><path d="M50.097 70.519h36.632v4.709H50.097zm36.632 23.545h36.632v4.709H86.729zm0-4.709h36.632v4.709H86.729zm0-4.709h36.632v4.709H86.729zm0-4.709h36.632v4.709H86.729zm0-4.709h36.632v4.709H86.729z"/><path d="M86.729 70.519h36.632v4.709H86.729zm36.632 23.545h36.632v4.709h-36.632zm0-4.709h36.632v4.709h-36.632zm0-4.709h36.632v4.709h-36.632zm0-4.709h36.632v4.709h-36.632zm0-4.709h36.632v4.709h-36.632z"/><path d="M123.361 70.519h36.632v4.709h-36.632zm36.632 23.545h36.632v4.709h-36.632zm0-4.709h36.632v4.709h-36.632zm0-4.709h36.632v4.709h-36.632zm0-4.709h36.632v4.709h-36.632zm0-4.709h36.632v4.709h-36.632z"/><path d="M159.993 70.519h36.632v4.709h-36.632zm36.631 23.545h36.632v4.709h-36.632z"/><path d="M196.624 89.355h36.632v4.709h-36.632zm0-4.709h36.632v4.709h-36.632zm0-4.709h36.632v4.709h-36.632zm0-4.709h36.632v4.709h-36.632z"/><path d="M196.624 70.519h36.632v4.709h-36.632zm36.632 23.545h36.632v4.709h-36.632z"/><path d="M233.256 89.355h36.632v4.709h-36.632zm0-4.709h36.632v4.709h-36.632zm0-4.709h36.632v4.709h-36.632zm0-4.709h36.632v4.709h-36.632z"/><path d="M233.256 70.519h36.632v4.709h-36.632zm36.632 23.545h36.632v4.709h-36.632zm0-4.709h36.632v4.709h-36.632zm0-4.709h36.632v4.709h-36.632zm0-4.709h36.632v4.709h-36.632zm0-4.709h36.632v4.709h-36.632z"/><path d="M269.888 70.519h36.632v4.709h-36.632zm36.632 23.545h36.632v4.709H306.52zm0-4.709h36.632v4.709H306.52zm0-4.709h36.632v4.709H306.52zm0-4.709h36.632v4.709H306.52zm0-4.709h36.632v4.709H306.52z"/><path d="M306.52 70.519h36.632v4.709H306.52zm36.632 23.545h36.632v4.709h-36.632zm0-4.709h36.632v4.709h-36.632zm0-4.709h36.632v4.709h-36.632zm0-4.709h36.632v4.709h-36.632zm0-4.709h36.632v4.709h-36.632z"/><path d="M343.152 70.519h36.632v4.709h-36.632zm36.631 23.545h36.632v4.709h-36.632z"/><path d="M379.783 89.355h36.632v4.709h-36.632zm0-4.709h36.632v4.709h-36.632zm0-4.709h36.632v4.709h-36.632zm0-4.709h36.632v4.709h-36.632z"/><path d="M379.783 70.519h36.632v4.709h-36.632zm36.632 23.545h36.632v4.709h-36.632zm0-4.709h36.632v4.709h-36.632zm0-4.709h36.632v4.709h-36.632zm0-4.709h36.632v4.709h-36.632zm0-4.709h36.632v4.709h-36.632z"/><path d="M416.415 70.519h36.632v4.709h-36.632zM13.465 65.81h36.632v4.709H13.465zm0-4.71h36.632v4.709H13.465zm36.632 4.71h36.632v4.709H50.097zm0-4.71h36.632v4.709H50.097zm36.632 4.71h36.632v4.709H86.729zm0-4.71h36.632v4.709H86.729zm36.632 4.71h36.632v4.709h-36.632zm0-4.71h36.632v4.709h-36.632zm36.632 4.71h36.632v4.709h-36.632zm0-4.71h36.632v4.709h-36.632z"/><path d="M196.624 65.81h36.632v4.709h-36.632zm0-4.71h36.632v4.709h-36.632z"/><path d="M233.256 65.81h36.632v4.709h-36.632zm0-4.71h36.632v4.709h-36.632zm36.632 4.71h36.632v4.709h-36.632zm0-4.71h36.632v4.709h-36.632zm36.632 4.71h36.632v4.709H306.52zm0-4.71h36.632v4.709H306.52zm36.632 4.71h36.632v4.709h-36.632zm0-4.71h36.632v4.709h-36.632z"/><path d="M379.783 65.81h36.632v4.709h-36.632zm0-4.71h36.632v4.709h-36.632zm36.632 4.71h36.632v4.709h-36.632zm0-4.71h36.632v4.709h-36.632zm-402.95-4.709h36.632V61.1H13.465z"/><path d="M13.465 51.682h36.632v4.709H13.465zm36.632 4.709h36.632V61.1H50.097zm0-4.709h36.632v4.709H50.097zm36.632 4.709h36.632V61.1H86.729zm0-4.709h36.632v4.709H86.729zm36.632 4.709h36.632V61.1h-36.632zm0-4.709h36.632v4.709h-36.632zm36.632 4.709h36.632V61.1h-36.632zm0-4.709h36.632v4.709h-36.632z"/><path d="M196.624 56.391h36.632V61.1h-36.632z"/><path d="M196.624 51.682h36.632v4.709h-36.632z"/><path d="M233.256 56.391h36.632V61.1h-36.632z"/><path d="M233.256 51.682h36.632v4.709h-36.632zm36.632 4.709h36.632V61.1h-36.632zm0-4.709h36.632v4.709h-36.632zm36.632 4.709h36.632V61.1H306.52zm0-4.709h36.632v4.709H306.52zm36.632 4.709h36.632V61.1h-36.632zm0-4.709h36.632v4.709h-36.632z"/><path d="M379.783 56.391h36.632V61.1h-36.632z"/><path d="M379.783 51.682h36.632v4.709h-36.632zm36.632 4.709h36.632V61.1h-36.632zm0-4.709h36.632v4.709h-36.632zM13.465 117.6h36.632v4.709H13.465zm36.632 0h36.632v4.709H50.097zm36.632 0h36.632v4.709H86.729zm36.632 0h36.632v4.709h-36.632zm36.632 0h36.632v4.709h-36.632z"/><path d="M196.624 117.6h36.632v4.709h-36.632z"/><path d="M233.256 117.6h36.632v4.709h-36.632zm36.632 0h36.632v4.709h-36.632zm36.632 0h36.632v4.709H306.52zm36.632 0h36.632v4.709h-36.632z"/><path d="M379.783 117.6h36.632v4.709h-36.632zm36.632 0h36.632v4.709h-36.632zm-402.95-4.709h36.632v4.709H13.465zm0-4.71h36.632v4.709H13.465zm36.632 4.71h36.632v4.709H50.097zm0-4.71h36.632v4.709H50.097zm36.632 4.71h36.632v4.709H86.729zm0-4.71h36.632v4.709H86.729zm36.632 4.71h36.632v4.709h-36.632zm0-4.71h36.632v4.709h-36.632zm36.632 4.71h36.632v4.709h-36.632zm0-4.71h36.632v4.709h-36.632z"/><path d="M196.624 112.891h36.632v4.709h-36.632zm0-4.71h36.632v4.709h-36.632z"/><path d="M233.256 112.891h36.632v4.709h-36.632zm0-4.71h36.632v4.709h-36.632zm36.632 4.71h36.632v4.709h-36.632zm0-4.71h36.632v4.709h-36.632zm36.632 4.71h36.632v4.709H306.52zm0-4.71h36.632v4.709H306.52zm36.632 4.71h36.632v4.709h-36.632zm0-4.71h36.632v4.709h-36.632z"/><path d="M379.783 112.891h36.632v4.709h-36.632zm0-4.71h36.632v4.709h-36.632zm36.632 4.71h36.632v4.709h-36.632zm0-4.71h36.632v4.709h-36.632zm-402.95-4.708h36.632v4.709H13.465zm0-4.71h36.632v4.709H13.465zm36.632 4.71h36.632v4.709H50.097zm0-4.71h36.632v4.709H50.097zm36.632 4.71h36.632v4.709H86.729zm0-4.71h36.632v4.709H86.729zm36.632 4.71h36.632v4.709h-36.632zm0-4.71h36.632v4.709h-36.632zm36.632 4.71h36.632v4.709h-36.632zm0-4.71h36.632v4.709h-36.632z"/><path d="M196.624 103.473h36.632v4.709h-36.632zm0-4.71h36.632v4.709h-36.632z"/><path d="M233.256 103.473h36.632v4.709h-36.632zm0-4.71h36.632v4.709h-36.632zm36.632 4.71h36.632v4.709h-36.632zm0-4.71h36.632v4.709h-36.632zm36.632 4.71h36.632v4.709H306.52zm0-4.71h36.632v4.709H306.52zm36.632 4.71h36.632v4.709h-36.632zm0-4.71h36.632v4.709h-36.632z"/><path d="M379.783 103.473h36.632v4.709h-36.632zm0-4.71h36.632v4.709h-36.632zm36.632 4.71h36.632v4.709h-36.632zm0-4.71h36.632v4.709h-36.632zm-402.95 28.255h36.632v4.709H13.465zm0-4.709h36.632v4.709H13.465zm36.632 4.709h36.632v4.709H50.097zm0-4.709h36.632v4.709H50.097zm36.632 4.709h36.632v4.709H86.729zm0-4.709h36.632v4.709H86.729zm36.632 4.709h36.632v4.709h-36.632zm0-4.709h36.632v4.709h-36.632zm36.632 4.709h36.632v4.709h-36.632zm0-4.709h36.632v4.709h-36.632z"/><path d="M196.624 127.018h36.632v4.709h-36.632zm0-4.709h36.632v4.709h-36.632z"/><path d="M233.256 127.018h36.632v4.709h-36.632zm0-4.709h36.632v4.709h-36.632zm36.632 4.709h36.632v4.709h-36.632zm0-4.709h36.632v4.709h-36.632zm36.632 4.709h36.632v4.709H306.52zm0-4.709h36.632v4.709H306.52zm36.632 4.709h36.632v4.709h-36.632zm0-4.709h36.632v4.709h-36.632z"/><path d="M379.783 127.018h36.632v4.709h-36.632zm0-4.709h36.632v4.709h-36.632zm36.632 4.709h36.632v4.709h-36.632zm0-4.709h36.632v4.709h-36.632z"/></g><use xlink:href="#id-586e" overflow="visible" fill="none" stroke="#E3E3E3" stroke-width=".35" stroke-miterlimit="10"/><path d="M42.688 122.35l-.28.422-.094-.421m4.533-.001l-1.253 4.768-1.309-4.767m13.028-.001l-1.13.945-1.163 2.328-1.657-3.272m30.442-.001l-2.076 12.347-1.102 2.014-1.53-2.94-1.686 1.825-1.36 6.69-.683-7.692-1.548 1.577-1.872.618-1.587-3.144-1.237-8.643-1.613 3.926-.984 2.486-.866 1.673-.495 1.394-1.393-4.429-1.575-2.262-.495 5.018-1.91-9.565-.83-.892m36.602-.001l-.22 2.095-2.329-1.521-.22-.573m242.272-.001l-.512.98-1.856 1.115-1.608 2.788-1.287-4.882m-1.793-.001l-.746 4.281-1.442-.183-.916 4.13-1.732 3.903h-.247l-.91-7.18-1.658-.776-.617-4.174m61.42-.001l-2.382 2.774-6.198.935-3.396-3.287-.742 6.133h-.248l-.494-3.903-1.175.837-1.629-2.262-4.035 3.032-1.077 6.2-1.732-6.134-1.535 4.47-3.238 1.002-1.714 2.52-.632-4.275-1.028-1.469-3.232 5h-.248l-.247-2.23-2.103-2.23-.37-2.23-.09-1.76-1.033-.997-.815-2.125m50.215-.001l-.04.422-.11-.421" fill="none" stroke="#F59900" stroke-width="1.5" stroke-linecap="round" stroke-linejoin="round" stroke-miterlimit="10"/><g fill="none" stroke="#F59900" stroke-width="1.5" stroke-linecap="round" stroke-linejoin="round" stroke-miterlimit="10"><path d="M341.771 122.318l-1.155-1.04-1.511-2.858-2.857 1.916-1.18 1.982m-5.263 0l-.877-.54-.916.54m63.824 0l-1.869-2.039-.742-1.998-1.508 2.707-.618.828-1.337.295-2.66-1-1.05.583-.888.624m-288.368 0l-.79-1.206-2.35-1.5-1.979-.582-1.352.416-1.184.282-.87 1.6-.466.99m-39.52 0l-.393-.54-1.204.54m57.632-8.121l-.522 2.252-1.895 2.103-2.338 3.766m224.179 0l-.216-.207-1.464-.417-.751-1.137-1.196-.435-1.104-1.009-.618-1.165-.866-1.499-2.969 1.665-1.979-1.918-.927-2.411-1.064-3.53-1.34-.113-.627 2.81-1.979-.999-1.484 1.665-3.04-1.47-1.907 3.968-3.103-1.193-1.103-1.305-2.72 2.998-.99-.833-1.484.5-2.474.832-1.833-3.397-1.398-.433-.8-1.433-2.4-1.231-1.469 3.35-.758 1.396-1.548.169-1.389 1.87-1.108-.103-1.026.562-1.732 1.082-.866 1.166-1.484-.667-3.093-.19-2.102-1.641-1.23-1.887-1.253-.5-.733-1.11-3.084.843-.997-.843-.696.44-1.53 2.058-2.598 4.995-1.67-4.163-1.464-2.405-2.308.907-1.839-7.868M53.363 122.318l-.107-.09-1.943-1.616-1.979 1-2.325.365-.162.34m12.117.001h-1.651m388.728-23.051l2.06-.302 1.93.13m-19.886.859l.597-1.822 2.763.833 1.732-4.996 1.565-3.13 2.03-6.398 1.105 2.359.438 2.883.551 7.617 1.492-3.284.734 4.616.142.754M100.32 114.197l.592-1.411 1.617-4.058.98-3.477 2.474-1.457 1.979-1.166 1.979 1.665 2.844-2.164 2.598 2.33h.247l1.52-3.363 2.183-2.19 1.492-2.855 1.704.819.707 4.524 2.408-.764.87 3.174.476 1.077 1.133-.588 1.415-.398 1.127 1.817 3.518.413.99 1.998 1.57-3.335 3.826.449 1.283 2.22 1.237-1.498 2.185 1.165 2.268-.832 3.215 1.998 1.98-4.33 2.475-4.51 1.522-7.109 1.692-1.067.742 3.86h.247l1.237-.832.626 2.81.996-.256 1.594-2.22 1.608 1.665 1.299.666.35 1.33.701 2.833 2.226.333 1.566-.449.87 4.1 1.33.244 1.227 1.445 1.686-.262.99-1.748 1.484-.833.495-1.332 1.175-2.997 1.018-7.95 1.197-18.447.815-12.568 2.505 4.496.711 2.914.742 5.911.897 6.574.587 7.913.458-3.845 1.521 1.514h.248l1.979-10.657 1.237.333.676-4.917 1.305-4.045.492 3.979.495 4.484h.248l1.979-1 .927-1.207 2.086.097 1.687 3.941.52-5.917.207-4.729 1.747 1.321 1.2-3.583.531-2.035.742-5.566.742-3.47.99 2.394.99 5.933.484-3.265.983 2.578 1.006 4.683 1.26-1.509.472 3.174h.247l.655-3.391 1.088-.868.456 2.761 1.635 7.326 1.856 6.328 1.979 6.595.989 8.558 1.484-2.997 2.227 2.664 1.237 4.33 4.452 3.996h.248l1.731-2.665 1.598 3.025 2.855 3.803.635 1.457m-228.466 9.866l2.287-2.907 2.66 1.075 1.485-1 .726 1.956.201.558m21.49 4.688l-.648-.873-2.056.545-2.315-1.538-3.545.91-1.643-1.294-1.326-2.12-2.72 2.997-.874-.702-1.485.023-1.365-.048-.977-2.27-1.484 1.665-1.052-1.983m409.321-17.676l-.017.101-.828 3.96-.602 3.352-.536 2.27-1.336 1.817-3.958-1.666h-.247l-1.68-1.225-1.784 3.39-1.777-1.781-2.675 3.113h-.248l-1.237-2.997-.742-.666-1.237-.5-1.298 1.165-2.569 1.717-.701 1.294-1.554.529-3.03 2.955-2.289.25-.927.083-.928-.416-3.256 2.201-1.506.213-.247 1.16-.95 2.045"/><path d="M446.041 99.267l-.568 1.402-2.18-1.283m9.754-.421l-.742 2.165-2.274-2.035"/></g><path clip-rule="evenodd" fill="none" stroke="#2DB7BC" stroke-width="1.5" stroke-linecap="round" stroke-linejoin="round" stroke-miterlimit="10" d="M13.465 188.641l.725-1.844.43-.377.96.817 1.92-.817 1.042 1.87 1.523-.41.895 1.58 1.458-1.725.4 1.644.656-.08.38-1.564 1.132.428 1.052 2.816.967-.233.967 1.052.72-1.857 1.94 1.155 3.143-.467 2.119-1.563 1.448.744 1.753.234.967 1.754.634-1.139.907-.147.307.29 1.993.6 2.204.045 1.482-.773.936.89 2.84-1.783.726 1.081.642-1.593.984-.173.853 1.65 1.45-.468.726.818.937-2.043 1.722 1.459 1.505-.384.913 1.436 2.418-.702.967-.35.968.409 1.706.224 2.646-.984 1.693 1.17.954-1.384 2 .448 1.337-1.052 1.082-.702 2.538.682 1.254.364.481.56 2.685-1.138 2.841-1.432.752 1.589.76-.975 1.45.35 1.978.018.682 1.268h.242l2.418-.935 2.901.935 1.303-1.52 1.348.52 1.325-.164 1.168.907 1.143 1.894 1.692-.818.726.818 1.35-.982 2.212.452.817.296.986.077.921 1.56.726-1.754 1.632 1.17.88-1.52 1.527.432 1.522-.199.967 1.052 2.418-1.286 2.176.819.593-1.476.783-.278.69.451 1.153-.568 1.344 1.021.64.313.342-.826 1.19.03 2.243-.141.739.443 1.164.563 1.711-1.276 2.883 1.51 1.043-1.403 2.342.702 2.1-1.286.802 1.402 1.45-.35.726.818.604-1.929.68-.993 1.343.92 1.12.482 1.647-.696 2.102 1.047.85-.718 1.084-1.152 1.68-.05 1.463-2.055.726 2.222h.242l.585-1.178.422-.186 1.41.194 1.574-.831.844.715 1.451-.351.79.434.752-1.724.966-.226 1.119 1.516 1.585.039 1.317.78.585-1.882.382-2.093 1.45 1.52h.242l.877-2.456 1.783 1.988 1.693-2.222 1.262-.593 1.616-.62.748-1.358 1.35.702.794 1.459 1.374.571.714 1.242.779-1.045 2.002-1.526.474 1.138.69-1.175 1.253-.782.726 1.17.295-1.723 1.398-1.317.483 1.87.484 1.87 1.934-.467.252-.865.352-1.532.359-1.559 1.61 2.143.45 1.112 1.012-.216 1.043.333 1.45-.936.726 1.17h.242l1.747-.776 1.127 1.567 1.505 1.456 1.465.295 1.651-.36 1.155-.187.513.546 1.123-2.351 1.078-.308 1.209.936.604.584.968.526.818.834.753.978.336-1.298.384-1.487 1.698 2.2 1.45-1.987.968 2.105.388-2.412 1.485.73 2.815 2.467 1.957-.378.85.528 1.261-1.386 1.283-.307.358.407.726.234.258.624.467 1.13 1.542-2.806.876 3.156h.242l.967-.701 1.178 1.006.333.63.907.818 1.693-.35 1.692 1.87.867-1.885 1.793.365 1.54-1.954 2.57-.851 1.245.63 1.38.436.61.913 2.568-.226h1.693l1.45.234 1.872-.584.788.467 1.451-.35.484.467 1.345-1.514.889-.198.743.318 1.867-.599 1.926-1.397.967.935 2.418-2.046 2.203-1.502 1.092-.553.555-1.742.578-.82 1.375.935.29-1.211.399-1.674 1.506 1.708.484 1.972.176.85.472.225.88.186.387.75.927-1.67 1.491.384.813-6.426.143-2.278.828-.18.15.68.242 3.397.726 3.638.351-3.314.131-1.232.73-.643 1.492-.752 1.165 1.245.725 2.825.732-3.78 1.061-1.072.867 2.514 2.66-.234.866 2.514.781.292 1.496-.117.876-.935.976.617.566 2.305h.241l1.451-1.753.726.76.483.877 1.693 2.922.387-1.686.52-2.264 1.753 1.216 1.826 3.494.814 1.77 1.099-.706.8-.889 1.658.433 1.056 1.905.914-2.688 1.262 2.455h.242l1.613-.853.563 2.84h.242l.223-1.238.251-1.398 1.776 1.878 1.135-.762.457-.71 1.72-.459 1.972-1.923 1.05 1.777.846 1.432.726-2.476 1.324-1.493 1.526.855 1.26 2.997.967-2.572 1.783-.935.514.526.99.587 1.708.165.665-.742.727-.222 1.071-.708.81-.612.452-1.836.54-2.198 1.137-.688.726 1.753 1.541-1.052 1.36 3.39 1.693.351.483-1.695.482-1.686 1.266.817.67 1.863 1.4-1.619 1.047-.226 1.144 1.038.762.69.931-.65 1.245.767.725.79.242 1.508.967 3.196 1.39-7.398.26-1.975.837.069.657 3.063.483 1.158.242.803.242.656h.241l.526-2.728.979-2.299.913 1.17 1.21 1.52.483-2.222.242-1.344.242-1.345 1.463 2.283 1.196 1.926.841-3.801.758-.408.385.844.434 2.079h.242l.666-2.145.956.533 1.28 4.418 1.18-8.982.232-2.227 1.973-.832.967 5.026.384-2.693.417-.697.9.637.595 1.508.968.485 1.33 2.28h.242l1.03-1.795.489-2.126 1.149-.733.475 1.615.423 1.052 1.028 2.338.324-1.775.384-2.107 1.213.542.739 2.054.967-2.221 1.04-1.107.79-3.152.92-.417.877.818.51-2.742.865-.765.641 1.253.68.496.438-1.483 1.702 1.955.581-4.03.628-.997 1.209 1.52.967-.818.846-.936 1.088-2.134.605-5.581.719-5.853.108-1.881 1.03-.191.58 1.87.252 1.348 1.058 6.11.726-6.196 1.45.117.498-3.907.334-2.622.324-1.07.764 1.751.257 1.522.967 3.157.483-1.592.484-1.681 1.49-4.466 1.23.959.423 1.77.726 3.715.725 4.802h.242l1.028-5.378.515-2.332 1.334-1.613.828.92.405 2.92.242 3.035.484 2.243.483 2.601.726 2.531.725 2.788.604-3.718.318-1.962 1.98-.515.967 3.857.408-1.874 1.06-.227.23 1.507.39 2.565.564 3.708 2.184 2.738"/><path clip-rule="evenodd" fill="none" stroke="#6E9ED4" stroke-width="1.5" stroke-linecap="round" stroke-linejoin="round" stroke-miterlimit="10" d="M13.465 171.825l3.838-1.806 1.618.234 1.3 3.834 2.49 1.738.62-1.66 1.879-.728.5 2.217.812 1.664 1.437 1.553 1.25-2.03 1.249 2.15h.25l2-.479 2.998-1.791 1.25.836.75 1.553 1.906-2.46 2.592 1.385 1.74-1.314 1.378.642.88-.224 2.395-.18 1.442-.238.661.955 1.562-1.672 1.437 2.27 1.25-.359 2.499.12.75.716 1.749-.209 3.748 1.523 1.092-1.461 1.907.028 2.767-1.768 1.607 2.365.814.449 2.31.029 1.999 1.672 2.748 1.433 1.5-2.27 2.999 1.553 2.943-4.578 1.305-.557.5-.836.91-1.296 1.83-2.168.759 2.15 1 2.516 1.249 1.664.74-.708 1-.247.884-.717.75-1.433 1.35-2.585 2.523 1.51 2.624-6.568 2.124-5.106 1.259-.866 1.17.859 1.237 2.473.995 1.986 2.12-2.543 1.775 1.477 1.066 3.033.624.777 1.5 1.015h.25l2.187-3.231 2.043.506 2.017 2.128h.25l2.762-.8.987 2.83h.25l2.077-.008.903 1.64 1.268 2.548h2.25l2.748-1.911 1.662-2.333.626-1.115.683-2.45 1.615-.193 1.616-.477 2.295 1.671 1.312-1.074.937 1.433h.25l1.5-.956.944 1.129 1.18-.472 1.374-.537.75 1.075 2.499-3.105 1.374.597 1.125-.418 1.187-1.135 3.575-5.31 1.485-.542.807 1.35 3.956 1.059 1.86 2.368 2.874-1.284 1 1.523 1.365-2.088 1.728-3.234 2.611-1.582 1.304-3.598.257-4.962.981-9.084.554-9.504.194-3.061 1.182 1.868.32 4.857 1.999 16.88v2.162l.435 3.526.564 3.043h.25l2.5-8.002 1.499.359.75-3.464.99-1.552 1.235 1.983 1.235 3.86 1.792.707.614-2.345.89-6.174.481-6.095.259-3.272 1.092 1.17.658 1.209.538 2.63.753 2.43.848.22.777-2.507 1.266.378 2.315 6.761.875.836.449 1.909.408 2.407 1.017-1.012 3.249-6.05 2.076 3.882 2.172 5.074h.25l2.5-1.433 1.091 3.026 1.119 1.337 1.288 4.236h.25l1.361-2.819 1.218.564 2.17 5.599 2.56-.776 2.937.537 1.009-.717 1.253 1.062 1.112 1.566 1.968 2.336 1.062 3.45 2.463-.65 1.018 2.865 1.423 1.434 1.687 2.269 1-3.105 1.827.152.594-.663.578-.086 1.731-1.134 3.267-.897 2.249 1.792 1.75-.478 2.248.12 1.75 1.79 1.531-1.375 2.467-.416 1.375-1.91 1.624-2.03 1.75.477 4.273 1.474 1.276.4 1.077-1.038 2.87 1.553 3.252-.135.496-1.896.5-1.91 1.5.358 2.249-17.795 2.749 2.986.75-4.073.684-4.822.397-1.993 1.17-2.211.247 2.947.249 2.967.501 5.871.315-2.11.98-1.15 1.245 2.28.709 1.697.335-2.507.397-2.976 2.274.555.24 2.76 1.002 3.72 1.25 2.586 1.5 3.505h.249l.75-2.389 2.153.695 1.105 2.405.95 2.066 1.305.09.984.716 1.49-.597.519.929.552 1.978.167.598.77.197 1.25 3.583h.25l.486-1.858 1.514.902h.25l1.305-1.968 1.693-.42 1.026.935 1.286 2.648 1.817 1.12 1.869-1.24 1.75-.716 2.998-.836.741 2.006 2.008-1.41 2.75 2.867h.249l1.312-.478.687 1.075h.25l1.824-1.075 2.674 1.553 3-1.075.999 1.553.694-1.495 2.45-.894 2.729.02 1.124 1.413h.25l3.645-1.2 2.287 1.05 1.619-.027 1.196 1.371 1.633.12 3.365-.299 3.124-.298 1.124-1.314 4.499-2.15.725-2.795.274-.788 1.25-.238.458-1.643 1.996-1.216 1.294 1.784h.25l1.125-1.672.875.955h.25l1.749-3.463 1.232 1.884 1.517 1.22.75-.87 2.498-1.876 1.57-.75 1.11-2.442 2.818-.63 1.828-.485.796.605.68-.796.695-2.787 1.158-2.018 1.485-.587 1.105 2.008 1.13-.69 1.037-.963 1.582-.975.5 1.434 1.537-8.827.462-2.758 1.25 1.553.5 4.792.749 4.881h.25l1.814-2.16.935 3.593h.25l.5-1.85.5-1.805.874-4.286 1.375-3.643 1.752-1.893.45 2.85 1.546 6.448h.25l2.25-3.548.749-2.305 1-5.851.765-2.48.396-2.37.838.192.5 7.218.75 7.471 1.264-.808.233 2.19.502 4.71h.25l.999-2.031 1-1.796 1.374-2.026.875 2.687 1.5 3.971 1.249 4.807h.25l.5-.836 1.749.359"/></svg>