<svg xmlns="http://www.w3.org/2000/svg" xmlns:xlink="http://www.w3.org/1999/xlink" viewBox="0 0 479.817 290.884"><text transform="translate(469.231 265.882)" fill="#ECECEC" font-family="'Roboto'" font-size="8">0</text><text transform="matrix(.95 0 0 1 0 279.625)"><tspan x="0" y="0" fill="#ECECEC" font-family="'Roboto'" font-size="8">September </tspan><tspan x="11.264" y="9.092" fill="#ECECEC" font-family="'Roboto'" font-size="8">2017</tspan></text><text transform="matrix(.95 0 0 1 42.506 279.625)" fill="#ECECEC" font-family="'Roboto'" font-size="8">October</text><text transform="matrix(.95 0 0 1 75.138 279.625)" fill="#ECECEC" font-family="'Roboto'" font-size="8">November</text><text transform="matrix(.95 0 0 1 111.966 279.625)" fill="#ECECEC" font-family="'Roboto'" font-size="8">December</text><text transform="matrix(.95 0 0 1 151.17 279.625)"><tspan x="0" y="0" fill="#ECECEC" font-family="'Roboto'" font-size="8">January </tspan><tspan x="6.377" y="9.092" fill="#ECECEC" font-family="'Roboto'" font-size="8">2017</tspan></text><text transform="matrix(.95 0 0 1 186.597 279.625)" fill="#ECECEC" font-family="'Roboto'" font-size="8">February</text><text transform="matrix(.95 0 0 1 227.313 279.625)" fill="#ECECEC" font-family="'Roboto'" font-size="8">March</text><text transform="translate(19.146 13.696)"><tspan x="0" y="0" fill="#ECECEC" font-family="'DIN Pro'" font-size="16">Mining’s efficiency graph in 5 examples</tspan><tspan x="0" y="18.91" fill="#F59900" font-family="'Roboto'" font-size="12">°</tspan><tspan x="4.471" y="15.91" fill="#F59900" font-family="'Roboto'" font-size="12"> Litecoin</tspan><tspan x="50.344" y="15.91" fill="#94A6B0" font-family="'Roboto'" font-size="12"> </tspan><tspan x="53.326" y="15.91" fill="#6E9ED4" font-family="'Roboto'" font-size="12"> </tspan><tspan x="59.291" y="18.91" fill="#6E9ED4" font-family="'Roboto'" font-size="12">°</tspan><tspan x="63.762" y="15.91" fill="#6E9ED4" font-family="'Roboto'" font-size="12"> Zcash </tspan><tspan x="105.861" y="15.91" fill="#2DB7BC" font-family="'Roboto'" font-size="12"> </tspan><tspan x="108.844" y="18.91" fill="#2DB7BC" font-family="'Roboto'" font-size="12">°</tspan><tspan x="113.314" y="15.91" fill="#2DB7BC" font-family="'Roboto'" font-size="12"> Monero</tspan><tspan x="157.664" y="15.91" fill="#6E9ED4" font-family="'Roboto'" font-size="12"> </tspan><tspan x="160.646" y="15.91" fill="#94A6B0" font-family="'Roboto'" font-size="12"> </tspan><tspan x="166.611" y="18.91" fill="#94A6B0" font-family="'Roboto'" font-size="12">°</tspan><tspan x="171.082" y="15.91" fill="#94A6B0" font-family="'Roboto'" font-size="12"> Bitcoin </tspan><tspan x="220.652" y="18.91" fill="#816070" font-family="'Roboto'" font-size="12">°</tspan><tspan x="225.123" y="15.91" fill="#816070" font-family="'Roboto'" font-size="12"> Ethereum</tspan></text><text transform="matrix(.95 0 0 1 267.005 279.625)" fill="#ECECEC" font-family="'Roboto'" font-size="8">April</text><text transform="matrix(.95 0 0 1 304.067 279.625)" fill="#ECECEC" font-family="'Roboto'" font-size="8">May</text><text transform="matrix(.95 0 0 1 339.647 279.625)" fill="#ECECEC" font-family="'Roboto'" font-size="8">June</text><text transform="matrix(.95 0 0 1 378.466 279.625)" fill="#ECECEC" font-family="'Roboto'" font-size="8">July</text><text transform="matrix(.95 0 0 1 409.229 279.625)" fill="#ECECEC" font-family="'Roboto'" font-size="8">August</text><text transform="matrix(.95 0 0 1 439.582 279.625)"><tspan x="0" y="0" fill="#ECECEC" font-family="'Roboto'" font-size="8">September </tspan><tspan x="11.264" y="9.092" fill="#ECECEC" font-family="'Roboto'" font-size="8">2018</tspan></text><text transform="translate(469.231 238.123)" fill="#ECECEC" font-family="'Roboto'" font-size="8">0,5</text><text transform="translate(469.231 208.716)" fill="#ECECEC" font-family="'Roboto'" font-size="8">1,0</text><text transform="translate(469.231 187.208)" fill="#ECECEC" font-family="'Roboto'" font-size="8">5</text><text transform="translate(469.231 161.376)" fill="#ECECEC" font-family="'Roboto'" font-size="8">10</text><text transform="translate(469.231 134.493)" fill="#ECECEC" font-family="'Roboto'" font-size="8">15</text><text transform="translate(469.231 54.037)" fill="#ECECEC" font-family="'Roboto'" font-size="8">65</text><text transform="translate(469.231 93.973)" fill="#ECECEC" font-family="'Roboto'" font-size="8">40</text><g fill="none" stroke="#E3E3E3" stroke-width=".247" stroke-miterlimit="10"><path d="M19.144 269.185v-5.576h36.632v5.576m0 0v-5.576h36.632v5.576m0 0v-5.576h36.632v5.576m0 0v-5.576h36.632v5.576m0 0v-5.576h36.632v5.576m0 0v-5.576h36.631v5.576m0 0v-5.576h36.632v5.576m0 0v-5.576H312.2v5.576"/><path d="M312.199 269.185v-5.576h36.632v5.576"/><path d="M348.83 269.185v-5.576h36.633v5.576m0 0v-5.576h36.632v5.576m0 0v-5.576h36.631v5.576"/></g><path fill="none" stroke="#E3E3E3" stroke-width=".35" stroke-miterlimit="10" d="M462.853 263.609h-4.127m4.127-28.802h-4.127m4.127-28.801h-4.127m4.127-21.862h-4.127m4.127-26.322h-4.127m4.127-26.361h-4.127m4.089-39.895h-4.127m4.165-39.884h-4.127"/><defs><path id="id-1404a" d="M458.726 214.659s0-8.971-85.68-8.971c-30.63 0-54.778 3.233-98.02 3.233-36.632 0-109.884-2.89-145.985-2.89-37.155 0-109.897 9.49-109.897 9.49v48.088h439.582v-48.95z"/></defs><clipPath id="id-1405b"><use xlink:href="#id-1404a" overflow="visible"/></clipPath><g clip-path="url(#id-1405b)" fill="none" stroke="#E3E3E3" stroke-width=".35" stroke-miterlimit="10"><path d="M19.144 234.82h36.632v28.789H19.144zm0-28.789h36.632v28.789H19.144z"/><path d="M19.144 177.243h36.632v28.789H19.144zm36.632 57.577h36.632v28.789H55.776zm0-28.789h36.632v28.789H55.776z"/><path d="M55.776 177.243h36.632v28.789H55.776zm36.632 57.577h36.632v28.789H92.408zm0-28.789h36.632v28.789H92.408z"/><path d="M92.408 177.243h36.632v28.789H92.408zm36.632 57.577h36.632v28.789H129.04zm0-28.789h36.632v28.789H129.04z"/><path d="M129.04 177.243h36.632v28.789H129.04zm36.632 57.577h36.632v28.789h-36.632zm0-28.789h36.632v28.789h-36.632z"/><path d="M165.672 177.243h36.632v28.789h-36.632zm36.632 57.577h36.632v28.789h-36.632zm0-28.789h36.632v28.789h-36.632z"/><path d="M202.304 177.243h36.632v28.789h-36.632zm36.631 57.577h36.632v28.789h-36.632z"/><path d="M238.935 206.031h36.632v28.789h-36.632z"/><path d="M238.935 177.243h36.632v28.789h-36.632zm36.632 57.577h36.632v28.789h-36.632zm0-28.789h36.632v28.789h-36.632z"/><path d="M275.567 177.243h36.632v28.789h-36.632zm36.632 57.577h36.632v28.789h-36.632zm0-28.789h36.632v28.789h-36.632z"/><path d="M312.199 177.243h36.632v28.789h-36.632zm36.632 57.577h36.632v28.789h-36.632zm0-28.789h36.632v28.789h-36.632z"/><path d="M348.831 177.243h36.632v28.789h-36.632zm36.632 57.577h36.632v28.789h-36.632zm0-28.789h36.632v28.789h-36.632z"/><path d="M385.463 177.243h36.632v28.789h-36.632zm36.632 57.577h36.632v28.789h-36.632zm0-28.789h36.632v28.789h-36.632z"/><path d="M422.095 177.243h36.632v28.789h-36.632z"/></g><use xlink:href="#id-1404a" overflow="visible" fill="none" stroke="#E3E3E3" stroke-width=".35" stroke-miterlimit="10"/><defs><path id="id-1406c" d="M458.726 128.463s-183.159 3-219.79 3c-73.264 0-219.792 8-219.792 8v71.913s72.742-9.49 109.897-9.49c36.1 0 109.353 2.89 145.985 2.89 43.242 0 67.39-3.233 98.02-3.233 85.68 0 85.68 8.971 85.68 8.971v-82.05z"/></defs><clipPath id="id-1407d"><use xlink:href="#id-1406c" overflow="visible"/></clipPath><g clip-path="url(#id-1407d)" fill="none" stroke="#E3E3E3" stroke-width=".35" stroke-miterlimit="10"><path d="M19.144 171.002h36.632v13.182H19.144zm0-13.18h36.632v13.18H19.144zm0-13.181h36.632v13.18H19.144zm36.632 26.361h36.632v13.182H55.776zm0-13.18h36.632v13.18H55.776zm0-13.181h36.632v13.18H55.776zm36.632 26.361h36.632v13.182H92.408zm0-13.18h36.632v13.18H92.408zm0-13.181h36.632v13.18H92.408zm36.632 26.361h36.632v13.182H129.04zm0-13.18h36.632v13.18H129.04zm0-13.181h36.632v13.18H129.04zm36.632 26.361h36.632v13.182h-36.632zm0-13.18h36.632v13.18h-36.632zm0-13.181h36.632v13.18h-36.632zm36.632 26.361h36.632v13.182h-36.632zm0-13.18h36.632v13.18h-36.632zm0-13.181h36.632v13.18h-36.632z"/><path d="M238.935 171.002h36.632v13.182h-36.632zm0-13.18h36.632v13.18h-36.632zm0-13.181h36.632v13.18h-36.632zm36.632 26.361h36.632v13.182h-36.632zm0-13.18h36.632v13.18h-36.632zm0-13.181h36.632v13.18h-36.632zm36.632 26.361h36.632v13.182h-36.632zm0-13.18h36.632v13.18h-36.632zm0-13.181h36.632v13.18h-36.632zm36.632 26.361h36.632v13.182h-36.632zm0-13.18h36.632v13.18h-36.632zm0-13.181h36.632v13.18h-36.632zm36.632 26.361h36.632v13.182h-36.632zm0-13.18h36.632v13.18h-36.632zm0-13.181h36.632v13.18h-36.632zm36.632 26.361h36.632v13.182h-36.632zm0-13.18h36.632v13.18h-36.632zM19.144 197.365h36.632v13.182H19.144zm0-13.181h36.632v13.18H19.144zm36.632 13.181h36.632v13.182H55.776zm0-13.181h36.632v13.18H55.776zm36.632 13.181h36.632v13.182H92.408zm0-13.181h36.632v13.18H92.408zm36.632 13.181h36.632v13.182H129.04zm0-13.181h36.632v13.18H129.04zm36.632 13.181h36.632v13.182h-36.632zm0-13.181h36.632v13.18h-36.632zm36.632 13.181h36.632v13.182h-36.632zm0-13.181h36.632v13.18h-36.632z"/><path d="M238.935 197.365h36.632v13.182h-36.632zm0-13.181h36.632v13.18h-36.632zm36.632 13.181h36.632v13.182h-36.632zm0-13.181h36.632v13.18h-36.632zm36.632 13.181h36.632v13.182h-36.632zm0-13.181h36.632v13.18h-36.632zm36.632 13.181h36.632v13.182h-36.632zm0-13.181h36.632v13.18h-36.632zm36.632 13.181h36.632v13.182h-36.632zm0-13.181h36.632v13.18h-36.632zm36.632 13.181h36.632v13.182h-36.632zm0-13.181h36.632v13.18h-36.632zm0-39.543h36.632v13.18h-36.632zM19.144 131.467h36.632v13.18H19.144zm36.632 0h36.632v13.18H55.776zm36.632 0h36.632v13.18H92.408zm36.632 0h36.632v13.18H129.04zm36.632 0h36.632v13.18h-36.632zm36.632 0h36.632v13.18h-36.632z"/><path d="M238.935 131.467h36.632v13.18h-36.632zm36.632 0h36.632v13.18h-36.632zm36.632 0h36.632v13.18h-36.632zm36.632 0h36.632v13.18h-36.632zm36.632 0h36.632v13.18h-36.632zm36.632 0h36.632v13.18h-36.632zM19.144 118.274h36.632v13.18H19.144zm36.632 0h36.632v13.18H55.776zm36.632 0h36.632v13.18H92.408zm36.632 0h36.632v13.18H129.04zm36.632 0h36.632v13.18h-36.632zm36.632 0h36.632v13.18h-36.632z"/><path d="M238.935 118.274h36.632v13.18h-36.632zm36.632 0h36.632v13.18h-36.632zm36.632 0h36.632v13.18h-36.632zm36.632 0h36.632v13.18h-36.632zm36.632 0h36.632v13.18h-36.632zm36.632 0h36.632v13.18h-36.632zM19.144 105.099h36.632v13.18H19.144zm36.632 0h36.632v13.18H55.776zm36.632 0h36.632v13.18H92.408zm36.632 0h36.632v13.18H129.04zm36.632 0h36.632v13.18h-36.632z"/><path d="M202.304 105.099h36.632v13.18h-36.632z"/><path d="M238.935 105.099h36.632v13.18h-36.632zm36.632 0h36.632v13.18h-36.632zm36.632 0h36.632v13.18h-36.632zm36.632 0h36.632v13.18h-36.632zm36.632 0h36.632v13.18h-36.632zm36.632 0h36.632v13.18h-36.632z"/></g><use xlink:href="#id-1406c" overflow="visible" fill="none" stroke="#E3E3E3" stroke-width=".35" stroke-miterlimit="10"/><defs><path id="id-1408e" d="M19.146 134.556V51.682h439.58v71.874s-183.159 3-219.79 3c-73.253 0-219.743 7.998-219.79 8z"/></defs><clipPath id="id-1409f"><use xlink:href="#id-1408e" overflow="visible"/></clipPath><path clip-path="url(#id-1409f)" fill="none" stroke="#E3E3E3" stroke-width=".35" stroke-miterlimit="10" d="M19.144 99.545h36.632v15.958H19.144zm0-15.957h36.632v15.956H19.144z"/><path clip-path="url(#id-1409f)" fill="none" stroke="#E3E3E3" stroke-width=".35" stroke-miterlimit="10" d="M19.144 67.632h36.632v15.956H19.144zm36.632 31.913h36.632v15.958H55.776zm0-15.957h36.632v15.956H55.776z"/><path clip-path="url(#id-1409f)" fill="none" stroke="#E3E3E3" stroke-width=".35" stroke-miterlimit="10" d="M55.776 67.632h36.632v15.956H55.776zm36.632 31.913h36.632v15.958H92.408zm0-15.957h36.632v15.956H92.408z"/><path clip-path="url(#id-1409f)" fill="none" stroke="#E3E3E3" stroke-width=".35" stroke-miterlimit="10" d="M92.408 67.632h36.632v15.956H92.408zm36.632 31.913h36.632v15.958H129.04zm0-15.957h36.632v15.956H129.04z"/><path clip-path="url(#id-1409f)" fill="none" stroke="#E3E3E3" stroke-width=".35" stroke-miterlimit="10" d="M129.04 67.632h36.632v15.956H129.04zm36.632 31.913h36.632v15.958h-36.632zm0-15.957h36.632v15.956h-36.632z"/><path clip-path="url(#id-1409f)" fill="none" stroke="#E3E3E3" stroke-width=".35" stroke-miterlimit="10" d="M165.672 67.632h36.632v15.956h-36.632zm36.632 31.913h36.632v15.958h-36.632zm0-15.957h36.632v15.956h-36.632z"/><path clip-path="url(#id-1409f)" fill="none" stroke="#E3E3E3" stroke-width=".35" stroke-miterlimit="10" d="M202.304 67.632h36.632v15.956h-36.632zm36.631 31.913h36.632v15.958h-36.632z"/><path clip-path="url(#id-1409f)" fill="none" stroke="#E3E3E3" stroke-width=".35" stroke-miterlimit="10" d="M238.935 83.588h36.632v15.956h-36.632z"/><path clip-path="url(#id-1409f)" fill="none" stroke="#E3E3E3" stroke-width=".35" stroke-miterlimit="10" d="M238.935 67.632h36.632v15.956h-36.632zm36.632 31.913h36.632v15.958h-36.632zm0-15.957h36.632v15.956h-36.632z"/><path clip-path="url(#id-1409f)" fill="none" stroke="#E3E3E3" stroke-width=".35" stroke-miterlimit="10" d="M275.567 67.632h36.632v15.956h-36.632zm36.632 31.913h36.632v15.958h-36.632zm0-15.957h36.632v15.956h-36.632z"/><path clip-path="url(#id-1409f)" fill="none" stroke="#E3E3E3" stroke-width=".35" stroke-miterlimit="10" d="M312.199 67.632h36.632v15.956h-36.632zm36.632 31.913h36.632v15.958h-36.632zm0-15.957h36.632v15.956h-36.632z"/><path clip-path="url(#id-1409f)" fill="none" stroke="#E3E3E3" stroke-width=".35" stroke-miterlimit="10" d="M348.831 67.632h36.632v15.956h-36.632zm36.632 31.913h36.632v15.958h-36.632zm0-15.957h36.632v15.956h-36.632z"/><path clip-path="url(#id-1409f)" fill="none" stroke="#E3E3E3" stroke-width=".35" stroke-miterlimit="10" d="M385.463 67.632h36.632v15.956h-36.632zm36.632 31.913h36.632v15.958h-36.632zM19.144 115.503h36.632v15.958H19.144zm36.632 0h36.632v15.958H55.776zm36.632 0h36.632v15.958H92.408zm36.632 0h36.632v15.958H129.04zm36.632 0h36.632v15.958h-36.632zm36.632 0h36.632v15.958h-36.632z"/><path clip-path="url(#id-1409f)" fill="none" stroke="#E3E3E3" stroke-width=".35" stroke-miterlimit="10" d="M238.935 115.503h36.632v15.958h-36.632zm36.632 0h36.632v15.958h-36.632zm36.632 0h36.632v15.958h-36.632zm36.632 0h36.632v15.958h-36.632zm36.632 0h36.632v15.958h-36.632zm36.632 0h36.632v15.958h-36.632zm0-31.915h36.632v15.956h-36.632z"/><path clip-path="url(#id-1409f)" fill="none" stroke="#E3E3E3" stroke-width=".35" stroke-miterlimit="10" d="M422.095 67.632h36.632v15.956h-36.632zM19.144 51.682h36.632v15.956H19.144zm36.632 0h36.632v15.956H55.776zm36.632 0h36.632v15.956H92.408zm36.632 0h36.632v15.956H129.04zm36.632 0h36.632v15.956h-36.632zm36.632 0h36.632v15.956h-36.632z"/><path clip-path="url(#id-1409f)" fill="none" stroke="#E3E3E3" stroke-width=".35" stroke-miterlimit="10" d="M238.935 51.682h36.632v15.956h-36.632zm36.632 0h36.632v15.956h-36.632zm36.632 0h36.632v15.956h-36.632zm36.632 0h36.632v15.956h-36.632zm36.632 0h36.632v15.956h-36.632zm36.632 0h36.632v15.956h-36.632zM19.144 107.518h36.632v15.958H19.144zm0-15.957h36.632v15.956H19.144zm0-15.956h36.632v15.956H19.144zm36.632 31.913h36.632v15.958H55.776zm0-15.957h36.632v15.956H55.776zm0-15.956h36.632v15.956H55.776zm36.632 31.913h36.632v15.958H92.408zm0-15.957h36.632v15.956H92.408zm0-15.956h36.632v15.956H92.408zm36.632 31.913h36.632v15.958H129.04zm0-15.957h36.632v15.956H129.04zm0-15.956h36.632v15.956H129.04zm36.632 31.913h36.632v15.958h-36.632zm0-15.957h36.632v15.956h-36.632zm0-15.956h36.632v15.956h-36.632zm36.632 31.913h36.632v15.958h-36.632zm0-15.957h36.632v15.956h-36.632zm0-15.956h36.632v15.956h-36.632z"/><path clip-path="url(#id-1409f)" fill="none" stroke="#E3E3E3" stroke-width=".35" stroke-miterlimit="10" d="M238.935 107.518h36.632v15.958h-36.632zm0-15.957h36.632v15.956h-36.632zm0-15.956h36.632v15.956h-36.632zm36.632 31.913h36.632v15.958h-36.632zm0-15.957h36.632v15.956h-36.632zm0-15.956h36.632v15.956h-36.632zm36.632 31.913h36.632v15.958h-36.632zm0-15.957h36.632v15.956h-36.632zm0-15.956h36.632v15.956h-36.632zm36.632 31.913h36.632v15.958h-36.632zm0-15.957h36.632v15.956h-36.632zm0-15.956h36.632v15.956h-36.632zm36.632 31.913h36.632v15.958h-36.632zm0-15.957h36.632v15.956h-36.632zm0-15.956h36.632v15.956h-36.632zm36.632 31.913h36.632v15.958h-36.632zM19.144 123.476h36.632v15.958H19.144zm36.632 0h36.632v15.958H55.776zm36.632 0h36.632v15.958H92.408zm36.632 0h36.632v15.958H129.04zm36.632 0h36.632v15.958h-36.632zm36.632 0h36.632v15.958h-36.632z"/><path clip-path="url(#id-1409f)" fill="none" stroke="#E3E3E3" stroke-width=".35" stroke-miterlimit="10" d="M238.935 123.476h36.632v15.958h-36.632zm36.632 0h36.632v15.958h-36.632zm36.632 0h36.632v15.958h-36.632zm36.632 0h36.632v15.958h-36.632zm36.632 0h36.632v15.958h-36.632zm36.632 0h36.632v15.958h-36.632zm0-31.915h36.632v15.956h-36.632zm0-15.956h36.632v15.956h-36.632zM19.144 59.655h36.632v15.956H19.144zm36.632 0h36.632v15.956H55.776zm36.632 0h36.632v15.956H92.408zm36.632 0h36.632v15.956H129.04zm36.632 0h36.632v15.956h-36.632zm36.632 0h36.632v15.956h-36.632z"/><path clip-path="url(#id-1409f)" fill="none" stroke="#E3E3E3" stroke-width=".35" stroke-miterlimit="10" d="M238.935 59.655h36.632v15.956h-36.632zm36.632 0h36.632v15.956h-36.632zm36.632 0h36.632v15.956h-36.632zm36.632 0h36.632v15.956h-36.632zm36.632 0h36.632v15.956h-36.632zm36.632 0h36.632v15.956h-36.632z"/><use xlink:href="#id-1408e" overflow="visible" fill="none" stroke="#E3E3E3" stroke-width=".35" stroke-miterlimit="10"/><path clip-rule="evenodd" fill="none" stroke="#816070" stroke-width="1.5" stroke-linecap="round" stroke-linejoin="round" stroke-miterlimit="10" d="M458.727 262.245l-1.604-.041c-.444.014-1.885.137-2.567.124v-.042h-1.925l-.642-.124c-.6-.029-1.611.059-1.925.083v.041c-1.284.072-4.201-.075-5.455-.082-.3-.182-.913-.281-.962-.496h-1.284l-.963.496h-.32v.041h-.963v.041c-.875.029-1.172-.046-1.604-.082v-.042l-2.567-.041-.963-.537c-1.198-.039-1.799-.156-2.246-.29h-1.283l-2.246.538c-.942-.013-1.877-.056-2.567-.083h-2.246l-.321-.083h-1.284v-.04h-.641v-.042h-1.926v-.042h-.641v-.04l-6.738-.042v.041h-.321c-.931-.012-1.253-.293-2.888-.207-.01.001-.698.104-.963.124v.042l-.962-.042v-.04h-.642v-.042c-.926-.033-1.761.063-2.567.082-.36-.1-.778-.165-.962-.289-1.62.01-2.954.194-3.53.33h-1.925c-.107-.04-.214-.082-.32-.123-.476-.08-1.203-.11-1.605-.207h-.963v.041l-.962.042-.321-.083h-.642c-.969-.056-1.594-.081-2.246.041-1.747-.058-1.156-.144-1.925-.289h-.321l-.963-.165h-1.283l-.321.206-.642.042-.32.206-.642.042c-.506.099-1.089.246-1.284.372h-1.283v.041c-.96-.014-1.053-.026-1.605-.083v-.04c-.615-.058-.473.02-.962-.084-1.211.008-1.46.038-2.246.083-.578-.135-1.123-.252-1.604-.413l-2.247.041v-.041c-1.763-.058-2.71.05-3.208.165-1.259-.018-1.776-.094-2.246-.207-1.625-.006-2.319-.005-2.888.124-3.351-.052-4.644-.36-7.059-.537-.429-.031-1.91-.175-2.888-.124l-.641.124h-.321v-.041h-2.246v.041l-2.567-.041v.041h-1.284l-.32.083h-.963l-.321.082c-.653.058-.458-.018-.963.083-.984-.032-1.49-.11-2.246-.165h-.641l-.321-.083h-.642v-.041h-1.604l-.321-.083-.963-.082v-.083l-.962-.083v-.041h-.963v-.041h-1.604v.04h-2.246v.042h-.321l-.321-.082h-2.246l-.642-.124h-.962l-.321.082c-.965.08-1.62.082-1.925.248h-.963c-.263-.158-1.09-.362-1.925-.454v-.042h-.963c-.197.1-.338.091-.642.166-.99 0-1.646.012-2.246.04l-.32-.123h-.321v-.083h-.321l-.963-.165c-3.341.017-3.079.262-4.813.455v.04c-.828.036-1.245-.135-1.604-.164h-.642v-.042h-1.283v-.041h-1.284v.041c-.855.08-1.67.176-1.925.33-.967-.03-1.507-.107-1.925-.206h-.963l-1.283.372h-.963v.042h-.641l-.321.082-1.605-.041-.32.124-.642.041v.083h-.321l-.642.124h-.641v.041h-.642v.041h-3.209v.042l-2.246-.042c-.356.206-1.321.287-1.925.455-.234.006-2.706.03-2.888.041l-.32.083c-.733.06-1.335.1-2.247.124v.041h-.32v-.04h-.642l-.321-.084c-1.124-.063-1.417.041-2.246-.082-1.58.014-1.365.083-2.567.124-.653.083-.973-.114-2.246-.083v.041c-1.25.026-1.884-.141-2.567-.206v-.042h-1.284l-.32-.082-.963-.083v-.041h-.642l-.962-.166-1.925-.04c-.045 0-.12.067-.642.04v-.04c-.453-.037-.95-.073-1.284-.125h-1.604l-.642.124-2.246.083c-.693-.203-1.71-.4-3.53-.455-.247-.14-.742-.19-.962-.33-1.085-.04-1.168-.099-2.246-.166v-.041c-.802-.04-1.525.037-1.925.041l-.32-.082c-.877-.042-1.64.026-2.247.04-.35-.081-.948-.167-1.283-.247l-.321-.165-.642-.042v-.082h-.32v-.083h-.322v-.083h-.32v-.082h-.321l-.642-.124c-1.58.014-1.364.083-2.567.124-.36-.1-.778-.166-.963-.29-1.382.01-1.087.026-1.925.083l-.642-.165c-2.276-.007-3.1.069-3.85.248h-.642l-.32-.083h-2.888l-1.925-.62c-.836.01-1.087.013-1.605.041v.042a16.697 16.697 0 0 1-1.604-.124c-1.328-.003-1.643-.017-1.925.124-.76-.027-.601-.012-.963-.083h-.962c-.256.018-1.833.467-1.926.537-.867-.06-1.111-.16-1.925 0h-.32l-.963-.454h-.963c-.247.14-.743.19-.962.33-1.242.018-1.66.072-2.567.124-.304.098-.573.203-.642.331h-.32v-.165h-.322v-.124h-.32v-.207h-.322v-.248h-.32v-.207h-.321v-.248h-.321l-.642-.247h-.32v-.083l-1.284-.124-.321-.62c-.629-.284-.704-.664-.642-1.033h-1.283l-.642.372h-.32c-.478-.27-1.433-.558-1.605-.868h-1.284c-.199.095-.281.1-.641.165h-.321v.124h-.321v.207h-.32v.206h-.322c-.378.157.15.225-.641.331-.275.047.043.006-.321.041-.27-.076-.493-.107-.642-.206-1.382.01-1.087.025-1.925.082-.36-.073-1.008-.125-1.605-.165l-.962-.372v-.165h-.321v-.207c-.508-.203-1.238-.44-1.283-.702h-1.284l-.32.247h-.642c-.194-.082.044-.035-.321-.082v-.041h-.963l-.32.413c-.773-.113.056-.365-.322-.537h-.32v-.496h-.321v-.496h-.321v-.455h-.321c-.498-.226.311-.681-.642-.827.07-.222.107-.33-1.283-.371-.165-.11-.798-.352-1.284-.414v-.041h-.962l-.642.62c-.852-.119-.222-.31-.642-.496h-.32v-.496h-.322v-.496h-.32l-.321-.785h-.963l-1.283 1.612h-.321v.124h-.321v.124l-.642.04v.29c-.385.166-.91.367-.962.579h-1.284c-.331.218-.83.47-1.283.661v.33h-.321v.373h-.321v.413h-.32v.207c-.122.056-.275-.017-.322.04l.321.166h-.32v.207h-.322l-.32.33h-.321v.166h-.321l-.321.29h-.32v.123h-.322l-.641.661h-.321v.166h-.321v.289c-.075.022-.434.002-.642.124h-.963c-.247-.14-.743-.19-.962-.33h-1.284l-.32.247c-.439-.054-.847-.235-.963-.33-2.046.031-2.344.202-3.53.33-.274.047.044.007-.32.042l-.963-.579-1.283-.083-.963-1.24h-2.246v-.04c-.465-.034-.544-.03-1.284-.042l-1.283 1.364h-.32l-.963-.372h-1.284v.124h-.642l-.641-.62h-.963c-.188.205-.836.368-1.283.537l-.321.372h-.321v.165h-.321v.207h-.32v.29h-.322v.247c-.336.145-.654.292-.641.496h-.642c-.22-.126-.54-.143-.642-.29-.361-.034-.05.006-.32-.04-2.394.027-2.001.165-2.888.371h-.321v.083c-.117.024-.44.03-.642.083-.76-.027-.601-.012-.963-.083-1.799.031-.688.011-1.283.165h-.321v.083h-.32v.083h-.322l-.32.082h-.642l-1.284.29h-1.283v.082h-.642l-.642-.372c-2.112-.117-2.106-.102-3.53.083-.52.068-.755.044-.962.165-.512-.025-.76-.038-1.604-.041-.313.181-1.48.44-2.246.579h-.321l-.963.165-1.925.041v-.041l-1.925-.041c-.222.112-.435.093-.642.206-.64.025-.276-.005-.641.042h-3.53v.04l-1.925.208v.082c-.233.038-.66.032-.963.083-1.367-.017-2.535-.1-3.208-.207-1.239.016-1.682.067-1.925.207l-3.85.041v-.041h-1.926v.041h-.642v.042l-.962.04v.042h-.321v-.041H88.13v-.041H84.6l-.32.082c-1.115-.012-1.684-.117-2.567.042l-1.925-.042v-.124l-.963-.041v-.083l-2.246-.041-.642.124h-1.925l-.32.083c-1.163.08-1.055-.067-1.284.165-.416-.034-.382-.028-.642-.083-1.643-.002-2.276.039-2.567.207h-.642l-.32.082c-1.013.056-2.462-.016-3.21.042h-.32l-.32-.083-2.568-.041c-.62.026-1.904.219-2.567.206v-.04c-.748-.015-1.497-.028-2.246-.042v-.042h-1.925v-.04a18.576 18.576 0 0 0-1.925-.042v.041h-.642v.041c-.395-.005-.844-.076-1.604-.04v.04h-.642l-.32.083H47.7v.041l-1.925.083v.041c-.485.048-.561.059-1.283.083l-.963-.372v-.165c-.346-.106-1-.099-1.283-.248l-1.605.041v-.041c-.823-.062-.569-.071-1.925-.083l-.642.372H35.83v.083h-.962c-.442-.214-1.857-.33-2.246-.537-1.746-.028-2.376-.15-3.85-.083l-.963-.372-.642-.041v-.083h-.32c-.53-.078-1.178-.115-1.605-.207h-.963l-.962.372c-.407.026.127.05-.321.042v-.042c-.806-.065-.753-.146-1.284-.248l-.641-.041v-.083h-.321c-.504-.113-.878-.213-.963-.372h-.642"/><g fill="none" stroke="#94A6B0" stroke-width="1.5" stroke-linecap="round" stroke-linejoin="round" stroke-miterlimit="10"><g clip-rule="evenodd"><path d="M413.456 240.535l-.741-.11c.054.204.109.416.162.655.597-.363.333.004.579-.545zm5.392.797l.121.43h1.924v.683h1.603v.683h.962v.683h4.168v.682c.305.432 1.4 2.443 1.924 2.048v-.682c.551-.77.434-.432.641-2.048h1.283l1.282 3.413c.875-.867 1.056-1.729 2.245-2.048.46 2.328.665 3.306 2.244 3.413v-.682c.9-1.044 1.614 1.07 2.244.682l.321-1.365 5.45.683v.682h.321l.32-1.365 1.925.683v-.683h.641v-.683l1.603.683v.683h2.245v.682h.32l.641-2.048h.83m-135.494-19.798a6.48 6.48 0 0 1 .101-.207l-.71-.105c.087.568.183 1.12.289 1.677.365-.777.127-.002.32-1.365zm136.96 20.015l.27 1.149 2.885-.683m-213.125-31.491l.227 1.452h1.283l.962 6.145c.363-.577.046.086.32-.683.632-1.146 1.085-3.442 1.283-5.462h1.282v1.366h.321l.32 2.048h.321l.641 2.048h.642v.683h.641l.32 1.365h1.604v-.683h1.282v1.366c1.11 1.584.302 2.49 2.245 2.73v-.682c.604-.715 1.337.472 1.603.682v-.682c.625-1.143.872-3.186.962-5.462h1.282c.207 1.87.42 1.554.641 3.414l.962.682.321-1.365 1.603-.683c.149 1.633.372 2.147.641 3.414.795-.303 1.177-.628 2.245-.683.461 1.683 1.006 1.903 1.282 4.096.776-1.396.524-2.366 1.924-2.73.22 2.326.715 3.148.962 5.461 1.475-.459.782-.624 1.603-2.048v-.683h1.283l.32 2.048c.432-.482.962-2.22 1.924-1.365l.641 2.048h1.924v1.365c.365-.777.128-.002.32-1.365.552-.77.435-.432.642-2.048 1.602.126 1.686 1.361 2.886 2.048v1.365c.365-.777.127-.002.32-1.365.551-.77.435-.432.642-2.048h.961c.305.298.442 2.629 1.283 2.048v-.683c.632-1.145 1.085-3.442 1.282-5.461h.962v.682h.321l.32 4.78h.321l.641-6.145h.962l.642 4.779h.32c1.057-3.26 1.176-.032 2.245-.683v-.683c.5-.528.768-.621 1.603-.682v.682h.32v2.049h.321v-.683c.514-1.129.638-3.832.641-6.144h1.283c.373 1.854.57 2.853 1.603 3.413v-.683c.448-.816.708-2.212.962-3.413h.962l.641 4.096c1.189-2.14.837-3.352 3.206-3.413.149 1.632.372 2.147.642 3.413.927-1.05 1.398-1.903 2.885-2.048l.642 2.73c.26.484.192-.506.64.683 1.09-.69.602-.849 1.283-2.048v-.682h.962c.366.777.001.272.641.682.07-.66.138-1.322.207-1.983m4.27.631c.072.191.167.405.333.67v.682l1.924-.682.32 2.048h.32c.511 1.207.374 1.503 1.283 2.048.413-1.55.522-1.8 1.604-2.048l.64 4.096h.321l.321-2.048h1.924v-.683c.492-.59.776-.589 1.603-.683l.32 3.414h.642l.32-4.096h1.283v.682c.813 1.285.769 2.699 1.924 3.414l.32-3.414c.364-.576.047.087.321-.682h.962l.641 4.096c.364-.576.047.087.32-.683.366-.778.129-.002.321-1.365h.962v.683c.56 1.03.8 2.93.962 4.779.808-1.399.132-1.648 1.603-2.049.914 2.993 2.51 2.791 4.169 4.097v-1.366c.564-1.021.608-1.845.64-4.096h1.604v2.048c.498.605.672 1.001.962 2.048.49-.394.526-.52 1.282-.682v1.365h.642c.226-2.108.625-2.904 1.603-3.414v-.682h1.282c.077.99 1.05 5.878 1.283 6.144h.962c1.016-2.925 1.007-.683 1.923 0h1.924v.683h.642v.682h2.244v.683l2.244.683c.676-.241 1.124-2.128 2.245-1.366v.683l1.924 1.366.32-1.366h1.924v-.683l1.924-.682.32 1.365.962.683v.683l2.245-.683.64 2.048 2.887-.683.32 1.366c.452.08-.091-.281.32-.683.437-.796.49-1.246.642-2.73 1.32.192 1.132.272 1.924 1.365v.682l2.886-.682v.682l1.282.683 1.283-.683v-.682h3.847s-.013.889.641.682v-.682h1.603l.321 1.365 1.924-.683v.683h.641v.683h.32v-.683h1.925v.683l1.923-.683c.57-.02 1.162-.424 1.283.683h.32c.16-.308.883-4.696.962-5.462 2.588-.11 3.465 1.75 5.13 3.414v-1.366c.219-.45.435-1.334.608-2.332m44.921 6.428h-1.413l1.465.217-.051-.217z"/><path d="M320.203 226.756c-.292-.774-.063-1.028-1.27-1.378-.171 1.207-.006.741-.22 1.158m-.709-.105a30.79 30.79 0 0 1-.354-4.467h-1.282l-.435 4.161m102.915 15.207l-.84-2.983c-1.586.493-1.373 2.379-2.245-.683-1.664.177-1.388 1.18-2.245 2.731-.027.057-.042.094-.062.138m-.741-.11c-.308-1.141-.626-1.852-.8-3.441h-.962a26.251 26.251 0 0 1-.354 3.129m-201.804-29.818c.323 4.376 1.092 8.601 1.765 11.67.407-.475.771-2.025 1.603-1.366v.682l.642.683c.101-3.969 1.056-8.474 2.885-8.875l.962 6.144c.073-2.13.337-3.23.641-4.779h.962l.32 2.049c.366-.778.128-.003.321-1.366.437-.796.49-1.246.642-2.73h1.282v1.365c.364-.577.047.086.32-.683.088-.203.168-.535.244-.934m-162.482-6.149v2.304h.321l.098-2.304m-5.549 0v2.987h.321l.156-2.987m-10.277 0c.06 1.678.12 3.357.182 5.035h.64c.08-1.678.158-3.357.237-5.035m-5.738 0c.052.575.151 1.129.372 1.621l.108-1.621m6.625 0v2.987h.32c.208 1.343.112 2.247.321 3.413.365-.777.128-.002.32-1.365.595-1.082.847-2.87.932-5.035m191.535 0l-.089.939h-.32v.682h-.32l-.128-1.621m6.633 9.727l-.735-4.692-2.565.683-.671-5.718m-4.024 0c-.16 1.733-.39 3.57-.755 4.352-.274.77.043.107-.321.683v-1.366h-1.282c-.2 1.48-.398 2.96-.596 4.44m-4.855-.343c.276-.438.16-.164.209-.343l-.246-.036.037.379zm-21.003-3.477a54.206 54.206 0 0 1-.159-4.033c-1.736.19-1.032.497-1.923 2.048-.274.77.043.106-.321.683a52.54 52.54 0 0 1-.422-2.987m23.79 7.387c-.126-1.29-.45-4.501-.603-5.083h-.321c-.333-.965-.585-1.376-.783-2.304"/><path d="M224.1 206.006c0 .604-.024 1.365-.394 2.304v1.365h-.32c-.108-.682-.215-1.365-.321-2.048h-.962c-.199.25-.418 2.94-.72 4.528m12.904 2.299h.32l.046-.338-.53-.079.164.417zm-.164-.417l-1.44-3.679c-1.134.276-1.258.938-2.244 1.366-.193 1.363.045.587-.32 1.365a4.834 4.834 0 0 0-.112.34"/></g><path d="M27.863 203.88l-1.023-.372h-.962v.064h-.321v.275m-.699-.01a.788.788 0 0 1-.263-.653h-.32v-.064c-1.259.026-1.408.096-1.604.323-1.126-.043-1.166-.082-2.244 0-.109-.358-.64-.511-.641-.905h-.642c.007.52.295.848.642 1.228m5.45.259v-.13h.321v-.048l-.7-.01a.82.82 0 0 0 .38.188zm66.05.905h.32v-.158l-.48-.007c.02.054.048.107.16.166zm-5.43-.239c.528.355.87.747.941 1.21h.641l.488-1.18m-55.73-.781l.415.28h.32l1.924 1.68h.962c.102-.229.421-.255.641-.452h1.604c.221.084.916.176.961.194.287.111.154.243.27.364h.48l.533-.752h.962l.641.647h.641v-.194h.321v-.065h.962l.139.364h1.06l.083-.17h.962v.065h.32v.105h1.894a.46.46 0 0 0 .03-.105c1.12-.042.884-.073 1.924 0l.962-.712h.962v.065h.32l.321.388h.321v.194l.641.065v.105h.477l.165-.3h.32v-.323h.32v-.194h.321c.361-.103.435-.11.642-.258h.962v.064h.32l.32.324h.322v.194h.32v.194h.32v.194h.321v.105h.42l.222-.493h.32c.42-.175.723-.252.962-.453h.962v.065c.448.077.708.21.962.323l1.603-.065.32.13c.416.036.158-.03.321-.065.386-.063.637-.21.962-.259h.642v-.064l.961-.13v-.13c.214-.02.428-.042.642-.064l.26-.353m-40.598-.568l.58.21v.258h.32l.642.647h.32l.73-1.08m208.515 2.091l-.195-.235h-.961c-.057.065-.122.149-.207.235m4.024 0l-.29-.235h-1.283l-.232.235m-207.63-2.066l-.547-.368h-.962l-.232.344m197.598 2.09a.83.83 0 0 1-.179-.105c-1.356.015-1.536.09-2.244-.065-1.59.016-1.526.07-1.53.17"/><path d="M85.856 204.691a6.985 6.985 0 0 0-.983-.537c-1.08.024-1.19.048-1.603.194l-1.924-.582c-1.767.009-2.46.183-2.565.518h-.32c-.346-.19-.371-.643-.962-.776v-.065h-.962c-.05.444-.636.655-.641 1.1-.793-.031-1.175-.063-2.245-.065-.002-.237-.51-.999-.961-1.1v-.064h-.962l-.321.388c-.532-.104-.833-.467-.962-.647h-.962l-1.023 1.393m22.667.317c-.025-.069-.033-.138-.162-.223h-.32v-.517c-.464-.323-.912-.844-.962-1.229h-.962l-.795 1.924m118.044 1.286c-.311-.252-.545-.532-.86-.752-.308-.214.257-.445-.321-.582v-.065h-.962l-.641 1.229c-.694-.145-.235-.38-.642-.517l-1.603-.194-.962-.97h-.962c-.162.183-.4.468-.961.582-.275.072.043.01-.321.064v-.13h-1.283v.066c-.593-.124-1.31-1.253-1.282-1.553h-.962c-.178.316-.83.46-.962.776h-.32c-.54-.272-1.281-.95-1.283-1.293h-.32v-.065h-1.283c-.18-.337-.967-.485-1.603-.711l-1.604-.065-.32.582c-.91-.196-.206-.542-.641-.84h-.321v-.388c-.445-.287-1.169-.69-1.283-1.035-1.372.035-1.333.15-2.244.258-.193.13.045.056-.32.13l-1.604-1.746v-.518h-.32l-.321-.84h-.962v.064h-.32v.194h-.642c-.165-.762-1.426-1.09-2.565-1.617v-.194h-.32v-.194h-.321v-.388c-.487-.328-.976-.741-.962-1.164h-.962l-1.282 2.91h-.642l-.64-.582h-1.283c-.096.967-1.572 1.813-1.924 2.717h-.32l-.321-.388h-.321v-.194h-.32v-.13h-.321l-.32-.905h-.322v-.711h-.32l-.32-1.423h-.963l-.64.711c-.665-.146-.688-.85-.642-1.164h-1.924v.13h-.641l-.642 1.94h-.32l-.641-1.359h-.321v-.388h-.32v-.388h-.321v-.711h-.32v-.905h-.322v-1.035h-.32l-.32-1.035h-.963c-.214.193-.561.337-.962.517h-.32v.453h-.32v.453h-.321v.517h-.321c-.41.286.15.782-.641.97v.065h-.321l-.32-1.681h-.321c-.014-.089.524-.106.32-.26-.656-.494-1.292-1.141-1.282-1.745h-1.283v.064h-.32l-.32.388h-.322v.13h-.32v.582h-.32v.517h-.321c-.307.214.25.444-.321.582v.453h-.32c-.332-.18-.073-.457-.321-.711-.249-.256-.611-.984-.962-1.423h-.962c.001.366-.237.87-.641 1.164-.352.256.403.61-.32.776v.647c-.077-.042-.82-.061-1.283-.065-.45.242.117.658-.321.97h-.32v.84c-1.11-.247-.088-.967-.642-1.357h-.32c-.108-.28-.214-.56-.321-.841-.41-.265-.921-.63-.962-.97h-.962l-.962 4.592h-.32v.323h-.321v.259h-.32v.258h-.321v.259l-.642.065v.129h-.32v.13h-.32l-.322.193h-.64a38.803 38.803 0 0 1-.321-.388h-.321v-.064h-.962l-.641 1.616c-.51-.108-.671-.482-.642-.711h-.961l-.642.711c-.772-.165-.203-.428-.64-.582h-.322v-.064h-.961a.8.8 0 0 1-.642.776v.388h-.32c-.188-.099-.256-.105-.321-.259h-.962c-.433.226-.612.615-.962.84v.324h-.32v.259h-.321v.13h-.32c-.51.197-.925.434-.962.71h-.321l-.641-.84h-.962l-.962 1.293c-.657-.137-.307-.312-.641-.517l-1.283-1.164h-.962l-.962 1.423h-.32v.129h-.321v.065c-.35-.072-.918-.496-.962-.647h-.962l-.32-.194h-.321v-.259h-.32c-.352-.208.01-.372-.642-.517v-.065h-.962l-.32.97c-.434-.095-.983-1.181-.962-1.423-1.669.007-1.252.024-2.245.13l-1.282 3.945h-.32v-.388h-.321l-.642-1.423h-.962l-.64.711c-.388-.082-.915-.733-.963-.905h-.962c-.005.323-.327.49-.64.711-.304.214.272.447-.322.582-.192.13.045.056-.32.13l-1.283-1.423h-.962l-.961 1.293v.453h-.321c-.635-.303-1.288-.615-1.283-1.035h-1.282c.02.292-.038 1.094-.641 1.23v.358"/></g><g clip-rule="evenodd" fill="none" stroke="#2DB7BC" stroke-width="1.5" stroke-linecap="round" stroke-miterlimit="10"><path d="M253.254 205.688l.272 3.016h.32v1.426h.322v2.14h.32c.433 1.752-.088.888.643 2.138v.714h.963v-.714h1.284c.333 3.03 1.27 3.941 1.606 7.13.364-.601.046.091.32-.712h.322V219.4h.32l.322-1.426h.642v-.713l.963-1.426.321-2.14h1.285c.109 3.41.756 6.016 1.284 8.557.9-1.752.666-3.818 2.247-4.278.381 1.49.701 2.453 1.606 2.852h.963l.642 2.139h2.89l.32 1.426h.322v-.713c.552-.803.435-.45.642-2.14h.963v.714c.531.995.795 2.465.963 4.278l.964.713c.256-2.5.569-2.782 1.926-2.852.575 1.973 1.947 3.184 2.89 4.278.037-4.277.534-8.122.963-11.408l.135-11.573m89.846 0l.24 1.59h2.889l.963 3.565h2.89v.713l.963.713h.32v-.713c1.039-2.108.154-3.324 2.248-3.565.304 1.284.445 1.123.642 2.852 1.004.06 2.5 1.473 2.569 1.426 0 0 1.325-3.341 1.605-3.565l3.532.713c.218.954.384.75.642 1.426v1.426h.321v-.713c1.11-1.538.9-3.796 2.569-4.278.706 2.786 2.046 3.965 3.853 4.278.206 1.953.42 1.623.642 3.566l2.247-.714.642-2.139 2.248.713v-.713l1.284-.713v-.713l3.853.713v.713l3.532.713c.285-1.105.588-1.75.844-2.617"/><path d="M422.396 212.976l-1.273-.707v-.713l-1.284-.713v-.713l-1.605-.713-.642-2.139c-.716-.744-2.104.519-2.57.713-.106 1.06-.261 1.77-.44 2.374m7.814 2.611l.012.006v.713l.963.713.642 2.14 1.926.713.321 1.426h.643v.713c.452-.085-.127-.548.32-.713l4.817-.713c.131 3.444.78 4.527.963 7.843.954.485.752 1.217.963 1.426h4.174v.713h.963l.321 1.426h.321v1.427h.321v-.713l4.174-6.418c.678-.419 2.77 2.185 3.21 2.852l.643 2.14h1.926v.712l1.285.714c.448-1.676 1.381-3.688 2.89-2.853v.713h1.605l.32-1.426c.789-1.02 1.426-1.31 2.57-1.426m-240.132-19.416c.101 1.79.325 2.314.614 3.73.364-.603.047.09.321-.714h.321l.302-3.016m-9.853 0l.24 3.73h.321v-2.14h.321a9.571 9.571 0 0 0 .172-1.59m1.297 0c.244 1.772.428 3.124 1.421 3.73l.458-3.73"/><path d="M185.459 199.075v.2h.321c.366.243-.07.498.642.656l.566-.81m156.767 4.819c.204.04.408.082.633.123l.321.131h1.605v.066l1.606.065c.749.11 1.498.22 2.247.328v-.065a3.16 3.16 0 0 0 1.074-.417M19.786 193.982c-.05.511.11.978.644 1.358v.59h.32v.328h.322v.262h.321v.197h.321v.197h.321v.262l1.605.984h.322l.642-.721c1.231.02 1.683.112 2.568.196.009.567 1.393 1.064 1.927 1.574h1.284l.642.263c.364-.056.047.008.321-.066.366-.075.128 0 .321-.131h1.284c.02.317.85 1.099 1.606 1.246.366.075 0 .026.642.066l.642.984h.321v-.132h.321v-.262h.321v-.065h.963l.322.262c.365-.075.127 0 .32-.131l.964-.525h.642v-.066c.426-.06.568-.049 1.284-.065l1.606.459v.262h.32v.197h.322v.262h.32c.394.172.612.304.964.46.645-.038.278.007.642-.066 1.733-.09 1.253-.315 2.248-.46l1.284-.065.32-.13c.498-.095 1.181-.155 1.606-.263h1.285c.135.175.778.622 1.284.721v-.065h.32c.352-.162.752-.263.964-.46h1.284c.348.35 1.383.516 1.606.919 1.032-.05.692-.1 1.926-.131l.642.393c1.328-.248-.026-.332 2.89-.328.217.088.491.086.642.131.609.182.377.265 1.605.328.523-.194 1.184-.302 2.569-.328l.963.525c.172-.433 1.183-.48 1.605-.787h2.89v.066c.45.011-.122-.046.321-.066h1.606l.642.394h.32v-.132l.643-.065v-.066l3.21-.065c.191.086.945.362 1.285.393l2.247-.065v.065c.505.083.78.175.963.328h.643v.131l3.852-.065v-.066c1.742-.108 3.332.11 4.495-.131h.321l.322-.394h.32v-.196h.322v-.197h.32l1.927-.46c.412-.04 1.278-.016 1.284.066h.322v-.13c.69-.165.26-.486.642-.722h.32v-.263l1.285-.13 1.284-1.247h.963c.315.323 1.251.51 1.606.853h.32l.643-.59h.963l.321.327h.321c.077-.404.609-.667.642-1.115h1.285c.406.437 1.746.7 2.568 1.05h.321c.093-.277.521-.562.964-.787.786-.072 1.035-.12 2.247-.132l.321.263h.321c.1-.248.652-.35.963-.525v-.262h.321c.377-.226.261-.457.643-.656l.963-.066v-.065h1.926v-.066c.62-.084.604-.103 1.606-.131l.642.262c.365-.075.128 0 .32-.131h.322l.132-.19m68.898 2.119v.235h.32v.132h.322v.13h.32c.63.223.679.358 2.248.394.201-.201.513-.227.642-.459h1.285v.131h.642l.334-.375m-179.811-5.528l.64.02c.001-.007 0-.013.002-.02h-.642zm321.389 9.97c.304-.062.194-.023.258-.082l-.413-.013.155.095zm-54.261-1.758v.446h.322v.328h.32c.205.153-.375.178-.32.262h.32c.352.347-.232 1.044.643 1.247.214-.315.572-.202 1.284-.394h.321l.963-1.18 2.248.065.32.131.964.066.642.197.963.065v-.065h.322v-.394h.32v-.131h.322v-.262l.448-.061m-13.477 3.194l.455-3.595m-63.539 3.595l.34-.313h.322v-.262h.32v-.263h.322v-.328h.32v-.262h.322v-.328c.337-.127 1.527-.189 2.568-.197.056.17.541.443.964.525.613-.193 1.2-.11 2.247-.066l1.926.853c.877-.104.786-.18 2.248-.197.323.253.94.206 1.284.46h.642c.38-.396 1.367-.734 1.606-1.181h2.247c.166.086.126-.019.321.065v.197h.321v-.066c.746-.166.248-.352.642-.59.449-.27 1.185-.4 1.285-.787h1.284c-.002.348.454.595.963.853.366-.075.128 0 .321-.131.68-.124.925-.408 1.285-.59h.963c.103.291.905.496 1.284.72v.329h.321v.328h.321v.393h.321v.328h.321l.321.262h.321l.321.197h.964c.479-.173 1.346-.301 2.568-.328l.321.197h.321v.131h.321l.05.05m-38.762.001l.505-.379c1.328.036 1.405.142 2.248.263v.065h1.284a.296.296 0 0 0 .028.05m-7.241.001c.022-.092-.13-.09 1.113-.116.071.04.129.079.184.116m-12.11-6.151l.688.984h.321l.964 1.574h.32l.643.656h.32v.197h.322v.328h.321v.328h.321v.328h.321v.131h.321v.328h.321l.321.394h.321v-.066h1.285l.32.197h.322v.13h.32v.132l.643.066v.13l.642.066v.132h.321l.081.116m-21.913-6.282h.32l.119-.229-.642-.02.203.25zm155.406 4.534c-.662-.13-1.312-.243-2.578-.27-.193.13.045.056-.32.13a.505.505 0 0 0-.064.05"/><path d="M361.108 204.474l-.667-.477c-1.226.002-2.012.034-2.89.066-.183-.153-.458-.245-.962-.328v-.065l-1.927-.066s-.38.116-.963.066v-.066c-.628-.08-.589-.11-1.605-.131a3.99 3.99 0 0 1-.853.698m-165.782-5.096v-.193h-.321v-.394h-.321v-.394h-.321v-.459l-.642-.065v-.197h-.321v-.197h-.322v-.197h-.32v-.196h-.322l-.32-.394h-.322v-.065h-.963l-.642 1.115H180l-.321-.46h-.321l-.321-.262h-.321v-.197h-.322l-1.284-3.214h-.963l-.321.919h-.321v.524h-.321v.394c-.156-.085-1.386-.071-1.606 0l-.32.853-1.285 1.246h-.321l-.321-.394c-1.364.018-1.099.035-1.926.131v.066c-.754-.036-.273-.103-1.606-.131l-.963.852-1.605-.065c-.193.13.044.056-.321.131v.066c-.802-.18-.237-.638-.643-.919h-.32v-.393h-.322v-.197h-.32l-.322-.262h-.32l-1.285-2.1h-.963l-.964.854-.642.065v.328c-.43.252-.947.264-.963.656-1.165-.236-.098-.66-.642-1.05h-.321l-.321-1.246h-.963v.197c-.774-.177-.636-1.123-.642-1.508l-.643-3.28h-1.284c-.097.198-.426.437-.642.59v.722h-.321v.525h-.321v.59h-.321v.59h-.321v.263h-.321l.32.327h-.32v.46h-.321v.262c-.496.3-1.214.86-2.248 1.05-.193.13.045.056-.321.13-.371-.385-.762-.882-1.284-1.246l-.321-1.05c-.353-.25-.65-.59-.643-.917h-.963l-.642.852h-.32v.132h-.322v.393h-.321v.262h-.321v.263h-.321v.262h-.321v.46h-.321v.524h-.321l-.643 1.377h-.32v.066h-.322l-.642-1.312h-.963l-.963.918h-.321l-.321-.393s.47-.06.32-.197h-.32v-.525h-.321v-.983h-.321l-.322-1.706h-.963c-.259.143-.034.385-.32.59h-.322v.722h-.321v.525h-.321v.59h-.321c-.493.354.313 1.016-.642 1.246v.066h-.321v-.263h-.321v-.065h-.964c-.17.384-1.125.655-2.568.787v.066h-.321c-.143-.162-.513-.558-.963-.656v-.066h-.964c-.256.233-.953.393-1.284.59v.328h-.321v.328h-.321v.394h-.321l-.189.27m237.163 7.29l.618.442c.44.03.535.09 1.284.065 0 0 .397-.113.963-.065l.963.262c.724.093 1.588.017 2.569.066 0 0 .336.116.963.065v-.065c.638-.08.592-.103 1.605-.131.22.223.716.302.964.524 1.04-.076.81-.04 1.926 0l.082.05m-32.665-1.85l-.166-.102h-.321v-.197h-.321l-.963-.262c-1.383.015-1.088.04-1.927.131l-.32-.197c-1.61-.015-2.53-.08-2.89.197l-1.285-.525c-1.157-.18-2.296-.024-3.21-.327-1.48.016-1.884.103-2.89.196-.567-.249-1.253-.428-2.247-.59v-.066c-.702-.092-1.699.022-2.569-.065l-.963-.263h-.963c-.72-.05-.973-.195-1.285-.328h-1.284l-.642.59h-.321l-.321-.262c-1.5.038-.777.069-1.606.197v.066l-1.605-.066v.066c-.39.058-.386.043-.642.131-.78-.135-.714-.34-1.284-.525l-.642-.065-.322-.197c-1.985-.013-2.61.066-2.89.393-.64-.039-.276.01-.641-.065-.316-.068-1.238-.89-1.285-1.05-1.069.006-1.452.037-2.247.066-.204.216-.97.737-1.605.853-.194.13.044.056-.322.13l-.642-.393h-.963l-.963.59v.263h-.321l-.321.262-.515.07m-103.832-3.191v-.224h-.322v-.59c-.413-.292-.692-.659-.642-1.05h-1.284c-.183.301-.91.487-1.284.722l-.524 1.017m-.642-.02c-.04-.048-.08-.096-.118-.144h-.964l-.076.109m13.515.415l-.275-.393h-.963l-.308.346m87.317 2.684v-.407h-.32v-.852h-.322l-.32-1.771h-1.285l-.373 2.95"/></g><path clip-rule="evenodd" fill="none" stroke="#6E9ED4" stroke-width="1.5" stroke-linecap="round" stroke-linejoin="round" stroke-miterlimit="10" d="M458.727 203.114l-3.209.24v.24h-.962v.239h-.321v-.24c-.85-.333-.539-.409-1.925-.48-.207.568-.09.45-.642.72v.24c-.72-.336-1.416.004-2.246-.24v-.24h-.642v-.24h-.962c-1.804-.537-5.745-.87-7.06.24-1.253-.277-1.06-.688-1.924-1.199v-.24c-1.192-.527-4.646-.657-6.097-.24-.36-.578-.778-.962-.962-1.678-1.664.046-1.25.232-1.926.96-.16.171-.423.15-.641.479-1.281-.087-4.823-.734-5.455-1.199l-.963-.48v-.48h-.641c-.478-1.23-.999-.59-1.605-1.198-.22-.222-.87-1.58-.962-1.918l-1.605.24c-.27-.445-.493-.626-.641-1.2h-1.284l-.962 3.118-.642.24v.48l-.642.239v.48h-.32v.24l-.963-.24v-.48h-1.605v.48h-.32v-.48c-1.54-.291-2.626-1.628-3.209-2.638h-.963l-.962 2.158h-1.284v-.24c-2.067.074-1.377.382-2.246 1.2-.24.225-.658.176-.962.479-2.148-.226-.994-.758-1.925-1.199l-1.926-.24-.641-.719h-.642v-.24l-1.604-.24v-.24c-1.514.122-1.73.897-1.926 1.919-1.168-.086-1.367-.188-1.604-.96l-3.53.24v.24l-1.283.24v.24c-1.583.417-2.894-.59-3.85 0h-.321c-.32-.8-.642-1.599-.963-2.398h-.962l-1.605 1.918h-.641l-.321-.719c-1.497-.063-1.779-.418-2.567-.96l-.32-.479h-.964v-.24c-1.554-.01-2.524.107-3.208.72l-1.604-.24c-.24-.677-.574-.689-.963-1.199-1.738.067-1.033.175-1.925.72-.014.025.017.465-.321.24l-.321-.72-2.567-.24c-.33-.537-.564-1.114-.962-1.678h-.321v-.48h-.321v-.719h-.321v-.48h-.32v-.48h-.322l-.962-.958-1.926.24-.32-.48c-1.255-.327-1.454.435-1.926.72-.27-.446-.493-.626-.641-1.2-1.409.038-1.946.14-2.246-.719-1.443.065-1.595.379-2.567.72l-1.284-2.159h-.962c-.199.306-.312.512-.642.72-.193.479.044.206-.32.48v-.48l-1.926-.24-.321-.72h-.32v-.719l-.643-.24v-.479l-.962-.48-.963-2.157c-1.594-.001-2.028.215-2.567.959-.724-.14-.796-.204-1.283-.48v-.24c-1.106-.526-1.425.068-2.246-.959-2.371.022-2.02.447-3.209 1.2-.24-.678-.573-.69-.962-1.2h-1.926l-.962 4.076c-.88.268-1.46.37-1.925.96-2.005-.386-2.18-1.747-3.209-2.878h-.32l-.963-.959c-2.013.192-.963.673-1.926 1.439-.274.27.044.037-.32.24-.45-.72-1.061-1.29-1.284-2.158-1.172.049-1.256.143-1.925.48v.239h-1.604c-.371.16-.397.98-.642 1.199h-.321v.24c-.505-.18-.766-.217-1.604-.24l-.321.72h-.642l-.32-.48-2.247.24v-.24c-2.093.08-1.209.49-2.246 1.198-.274.27.043.038-.32.24-.455-.738-1.064-1.523-1.284-2.398h-.963l-.32 1.2h-.321c-.464.98-.008 1.52-.963 2.157-.274.27.043.038-.32.24l-.643-.96h-1.283c-.63 1.755-2.69 1.98-3.209 4.077-.677-.197-2.662-.893-3.85-.48l-.321.48c-.664.414-.988.434-2.246.48-.437 1.487-1.727 2.031-2.567 3.117l-4.492.48-.32.479h-.963l-.321-.48c-.808-.38-1.425-.36-1.925-.959-1.004.017-1.542.012-2.246.24v.24h-1.284v.24h-.32v-.24c-.989-.056-1.285.273-1.926.48-.611-.788-1.397-1.482-1.925-2.398-1.082.087-1.192.175-1.605.719h-.32v-.48l-.642-.24v-.24l-1.284-.239-.641-.72c-.67-.316-1.373.01-2.246-.24v-.239h-.642v-.24l-4.492-.48-.642 2.159h-.32c-.682-2.24-3.53-2.468-4.172-4.796-.757.057-.793.102-1.283.24-.413-.66-.862-.999-.963-1.918h-1.283c-.193.479.044.206-.321.48-.274.27.043.037-.321.24-.21-.748-.55-1.07-.642-1.919h-.962c-.21.747-.55 1.07-.642 1.918h-.321l-.642-1.438h-.32v-.48l-.642-.24v-.48h-.321l-.963-2.157-.642-.24-.32-.72h-.321v-.479h-.321v-.72h-.321c-.383-.69.07-.709-.642-1.198v-.24h-.962l-.963 2.398-1.925.48-1.925-3.837c-1.703.077-2.19.432-2.567-.72l-2.888.24-.642-3.117h-1.283v.24h-.321l-.963-4.076c-1.656.072-1.557.51-2.567.96v.479c-.519-.373-.91-1.673-.962-2.398h-1.284v.48h-.32l-.963-2.638c-1.442.002-1.757.158-2.567.48.017 1.972-.488 5.725-1.925 6.473v.24h-.32c-.429-1.758-.857-3.517-1.284-5.275h-.963l-.963 3.597h-.32l-.321.719-.963.48v.719c-.613 1.073-1.457 2.13-1.604 3.597-.64-.145-.276.033-.642-.24h-.32v-1.2h-.322l-.641-5.274c-1.214-.116-1.91-.506-2.567.24h-.321c-.087-1.93-.668-3.334-.642-5.515h-1.283l-.321 1.199h-.642c-.154-.9-.617-1.274-.963-1.919v-.719h-.32v-.72h-.321l-1.284-4.795h-.962l-.642 3.837h-.642c-.193-.479.045-.207-.32-.48v-.24l-1.926-.24v-.24c-1.97.076-1.845.557-2.888 1.2-.266-.525-.03-1.405-.32-2.158h-.321v-2.158l-1.605-5.035h-.962c-.281.497-.719 1.23-.963 1.678v.72h-.32c-.108.319-.215.639-.321.958h-.321v.96h-.321v.479h-.321l-.321 2.398c-.709-.596-.206-2.347-.32-3.357-.054-.47-.322-.48-.322-.48v-2.637h-.32v-3.357h-.321v-2.877h-.321v-3.117h-.321v-3.117h-.321v-1.919h-.32v-.48h-.322v-.479l-.641-.24-.963-6.713h-1.283l-.963 3.836-2.246-1.199-.642-.719h-.962l-.321 1.439h-.321l-.642-3.117h-.963c-.412.831.09 2.27-.32 3.356h-.321v2.638h-.321v2.637h-.321v2.398h-.32v2.158h-.322v2.158h-.32v1.918h-.321v1.439h-.321l-.963 2.158h-.32c-.194.479.044.206-.322.48-.27-.445-.493-.626-.641-1.2h-.963l-.962 5.515h-.321v1.679h-.321c-.604-.94-1.623-1.516-1.925-2.638-1.577.04-2.19.328-2.888-.24h-.963v.24h-.32c-.443.552.2 1.26-.642 1.919v.48c-.513-.147-.76-.222-1.605-.24v.479h-.32l-.963-8.392h-.963l-.32 3.596c-.913-.769.116-2.681-.321-3.836-.468-1.236.202-3.413-.321-4.795-.472-1.246-.353-3.403-.321-5.036-1.462.062-1.37.34-2.246.72-.448 1.713-.642 3.915-1.284 5.514v1.44h-.32v.718h-.321l-.321.96h-.321l-.321 2.157-1.604 4.316h-.642v-.48l-2.246-.239c-.317 2.372-.783 5.544-1.604 7.673l-.642 5.994h-.321v.48h-.32l-.643.72h-.962l-1.925-2.399v-.24h-.963c-.193.48.045.207-.32.48-.275.27.042.037-.322.24-.152-.593-.312-.879-.32-1.679-.362-.204-.05.033-.321-.24h-.963v.24c-.296.238-1.236 3.718-1.283 4.316h-.321c-.306-.562-.784-1.782-1.284-2.158v-.24h-.962c-.428 1.392-1.824 2.038-2.246 3.357h-.642l-.642-2.157h-.32v-.48h-.322l-.641-1.439h-1.284l-.32.72h-.321l-1.605 1.438H121.5l-.963 2.398c-2.03.322-1.91 1.141-2.888 2.158l-.641.24-1.284 1.438c-1.788.082-2.853.86-3.85 0-2.828-.077-3.208.688-3.53 2.398h-1.283c-.222.897-.912 3.369-1.604 3.837-.275.27.043.037-.321.24l-.321-.72h-.321v-.48h-.32v-.959c-.38-.817-.922-1.515-.963-2.637h-.963l-1.283 4.076-2.567.24-.642-.72h-.642v-.24h-.962v.24c-.936.5-1.712 1.13-2.246 1.919l-8.022.24v-.24c-1.091-.362-1.784-.663-3.209-.72l-.32 1.439h-.321c-.275.27.043.037-.321.24l-.321-.96-1.925.24c-.198-.581-.339-.527-.642-.959-1.083.086-1.888.316-2.567.72l-.32.48h-1.605v.239h-.321l-.32 1.439h-.643c-.276-.77-.821-.848-1.283-1.439h-1.283c-.213.72-.612 1.087-.963 1.678l-2.567-.24c-.145.05-1.129.982-1.604 1.2-.873-1.532-1.646-2.58-4.492-2.638l-.642 2.158c-1.003-.606-.516-.976-2.246-.48l-.963-2.397c-1.901-.158-1.426-.817-2.246-1.679l-1.283-.72v-.718c-.486-.89-.982-1.837-.963-3.117h-.32v-.24h-.963l-2.567 5.275-.642.24-.32.48h-1.605l-1.284 1.198c-.586-.373-.274-.48-.641-.96h-.321v-.479h-.321l-.963-.959h-.962l-.963 2.158c-.512-.146-.76-.22-1.604-.24-.33 1.252-1.166 2.382-2.888 2.638l-.962-2.398c-.757.057-.794.102-1.284.24l-1.283-2.158h-1.284c-.12-.389-.647-1.516-.962-1.678h-.963l-.32-.48h-.322l-.32-1.199h-.321v-.48h-.321v-.958l-.642-.24-.32-.96c-2.071.084-2.088.962-3.21 1.68v.239h-.32l-1.605-2.398-.32-1.678h-.321l-.321-1.919c-.472-1.035-.991-2.12-.963-3.596h-.642"/><g fill="none" stroke="#F59900" stroke-width="1.5" stroke-linecap="round" stroke-linejoin="round" stroke-miterlimit="10"><path d="M247.223 131.46l.055.492c.28-.621.16-.224.212-.491m5.83-.001l1.017 9.118h.642c.425-2.963.481-3.691 1.925-3.834.257 4.01 1.037 6.54 1.604 9.585.396-.597.47-1.595.642-1.917l1.925-1.917v-2.875h.321l.321-3.834c2.278.19 2.937 3.537 4.171 6.71l.321 1.916c.283-.22.715-1.906 1.284-.958v.958c.53 1.338.794 3.314.962 5.75h1.605l1.283 11.503c1.09 1.366 4.538 6.815 5.455 4.792.436-1.117.49-1.749.641-3.834 1.173.13 1.263.601 1.926 1.917v.958h1.604l1.604 5.751c.93-1.677 1.367-4.465 2.888-1.917l.32 1.917h1.605c.421.506-.1.455.321.959.07-1.276.741-6.356.963-6.71h.962v.959l1.604.958c.293-1.518.874-4.758 1.926-3.834.163.144.108 2.666.962 1.917l.642-2.875h2.888l.32-1.917h1.605v.959c.678.362 1.294-2.239 2.246-.959l.32 1.917c.583 1.17.808.014 1.926 0v1.917c.487.915.543 1.872.963 2.875.413-2 2.688-4.731 4.17-2.875l.322 1.917s1.514-1.674 1.925-.959c.242.421.556 3.548.642 4.793l.962.958v-.958c.505-1.212.779-2.55.963-4.793h1.283c.624-3.765.673-4.797 2.567-4.792v1.917l1.284 2.875v1.917h.32l.321 1.917h2.246v.959l1.284.958v.959h.962l.963 3.834c.345.341 1.065-2.79 1.925-1.917l.321 1.917 1.925-.959v.959l1.925.958v.958l2.246 1.917c.489-2.696.841-3.683 2.246-3.833l.321 2.875c1.926-.962 2.184-.588 3.53 2.875l.32 1.917h7.06v-.958h.641l.321-1.917 2.888.958.32-1.917c.946-1.162 5.193.243 5.776.959v.958h.642v.959l2.246-.959c.303 1.727.445 1.51.642 3.834l2.888-.958.962 3.834c3.422-.64 6.846-1.278 10.268-1.917l.32 2.875c2.935 1.554 6.027 2.225 8.664 0h3.85l.321-1.917 3.209.959v-.959c.417-.66 1.113-1.512 1.925-.958 0 0 .275 1.36.963.958v-.958h1.283v.958h.642v.959h.642l.32 1.917c.332.32 1.317-1.481 2.247-.959v.959h.32v-.959h2.888v-.958h3.209v-.959l1.604-.958v.958l1.925.959v.958c.954.885 2.301-.227 2.888-.958v-.959h2.246c.27-.331.29-3.053 1.604-1.917v.959c.614.675.913-.228 1.284.958l.32 2.876h.642v-.959h.963l2.567.959c.235-.234.217-2.924 1.283-1.917l.321 1.917c.655.653.963-.959.963-.959h6.738v.959h.963v.958h.641v.959h1.605v.958h.641v.959h.963v.958c.543.328.558-.903.642-.958h5.775v-.959h.963v-.958h.642v-.959l4.492 2.876v-.959h1.925v.959c.452.092-.125-.71.32-.959h5.134v-.958c1.316-1.233 2.095-.561 3.21 0M211.02 136.744c.178-1.76.354-3.522.531-5.283h-2.346l.211 3.366c.88.618.73 1.255 1.605 1.917z"/><path d="M20.614 59.456c.253.836.529 1.622.776 2.341l.321 4.312h.321c.505 1.824-.37 5.15.642 6.303l1.287-12.244m2.242 2.292c0-.606.043-1.21.121-1.789l-.785-.167c.161.892.385 1.66.664 1.956zm-5.589-3.004c-.43-1.422-.792-2.989-.828-4.625h-.642v4.312m8.751 1.862l.875 25.34h.321v-.664l1.284-3.98h.962c.123 1.54.998 4.437 1.605 5.639h.32v.663h.321V89h.321v1.99h.321v1.327h.32V95.3c.615 2.19.91 4.882.963 7.63h.321v-.332h.321v-1.99h.321v-.332h.963l.32 1.99h.321l.642-3.98h.963c.107.756.45 2.34.641 2.985v1.99h.321l.642-4.643h.963c-.034 3.567.696 7.836 1.283 10.947h1.283l.642 1.99 1.605-.332c.267-.624.424-.969.962-1.327v-.995h1.925l.963-5.307h.962l.642 4.312h.642v-.995h1.283l.321.995c.366.378.128.001.321.663h.642l.32.996.642.331v.664h.321v.663h.321c.538 1.246-.162 1.411.963 2.322v.332h.962l.321 1.99h.321l.642-4.312h.962v.332h.321l.321 1.99h.32v-.332c.438-.386.491-.605.643-1.327h.962l.963 4.313h.642c.152-.805.778-2.568 1.283-2.986l.963-.331.962-6.303c.911-2.77 2.213-5.68 2.567-8.957h.963v.332c.791.963.23 3.512.641 4.976h.321v2.322h.321c.243.737-.143 1.224.321 1.659l.963.331 1.283 4.644c.365-.377.128 0 .32-.663.56-.58.8-2.351.964-3.317h.962v.331l1.604 3.981c.366-.378.128-.001.321-.663.437-.387.49-.605.642-1.327h1.283c.054.957.472 2.5.963 2.985.85-1.27.797-.08 1.925-.663.858-.444.114-1.097 1.925-1.327l.321 1.327c.364-.28.047.042.321-.332.437-.386.49-.605.642-1.327 1.56.072 1.086.355 2.246.664.058 1.048.78 4.141 1.283 4.644.403-.633.326-.55 1.284-.664.002.95.111 1.424.32 1.99h.322v-1.99c.403-.453.617-2.442.641-3.317h2.246c.053 1.003.444 2.802.963 3.317.073-1.21.516-2.373.963-3.317h.32l.321-1.658.963-.664.32-1.327h.322v-.995h.32c.585-1.476-.34-2.069 1.605-2.322.667 1.177 1.428 1.47 1.604 3.317h.642l.32-1.658h.963l.963 8.624h.32c.022-1.538.124-1.627 1.605-1.658v.332h.963l1.283-10.616h1.604l.642-3.317h1.284l.962 8.293h.321c.335 1.053-.016 1.95.642 2.654v-.663h.32l.321-1.66h.321v-.33h.963v-.333h.642v-.331h.32v-.332h.321l.321-2.322h.321v-.995h.32c.429-2.764.857-5.53 1.284-8.293 1.654.074 1.567.712 2.567 1.327l.963-5.64h.962v.332c.636.727.35 5.455.321 6.966.619.726.313 3.02.321 4.313l.321 5.307h.32l-.32 2.986h.32v-.332h.322v-2.322h.32v-.995h.321v-1.659h.321v-1.658h.321l.321-2.986h.32v-1.327h.322V98.95h.32v-.995h.322v-.663h.32l1.605-7.63h.962l.963 13.27c.301 1.077.59 2.175.642 3.648h.641l.321-3.317h.963c.287 1.709.61 3.684.642 5.64h.641l1.925-10.948v-2.654h.321v-2.985h.321V89.33h.321v-4.035m12.514 3.372h.32l.12-.615-.575-.122c.044.25.09.498.135.737zm56.978 43.039l.456-1.573h1.284l.641 1.327c.98-.55 1.444-1.165 2.888-1.327.366.377.001.132.642.331.251-1.052.946-1.379 1.283-2.322l1.926-9.62h.962v.332l.642.332v-.332c.51-.45.557-.72.642-1.659h1.283c.113 1.597.765 2.723 1.283 3.981.366-.378.128-.001.321-.663.45-.496.82-2.5.963-3.318h.963c.408 2.43 1.74 4.395 2.246 6.635.875.198 1.876 1.094 2.246.663.822-.548 1.487-2.367 1.604-3.649h1.283v.664c1.106 1.047.331 1.877 2.567 1.99v.332h.963v-.332l3.53.332v-.332c.474-.258.544-.223 1.283-.332l.642 1.99.641.333.321 1.658.642.332v.663h.32l.322 1.659h.32v.995h.321l.294.91h.143c.167-.114-.03.074.205-.246h.32v-.996h.322c.566-1.25-.501-1.084 1.283-1.326.219.456.482.425.642.663.675 1.007.261 1.263 1.925 1.327v-.332h.963l.293.91m-96.91-43.346l1.32 6.278h.321v-.332h.321l.32-1.99h1.284c.23 1.022.984 1.729 1.284 2.654v1.99h.32v1.659h.322v1.99h.32v.663l1.284.996.642 3.317h.32l.321 1.99h.321v.995h.321l.32.996h.322l1.283-5.971h1.284l.962-4.313h.963v.332h.32c.53.986-.391 2.24.642 3.317l.642-6.634h1.284c.5.816.334.203.962.663l.321.664.963.331.32 1.659h.321l.321 1.327h.321l.321 1.99h.32c.384-.92.385-1.185 1.605-1.327l.321 1.659h.32c-.002-1.813.439-3.296.963-4.644.71-.325.905-.552 1.926-.664l1.283 8.625 1.284.664v1.658c.539 1.769.338 4.592.962 6.303l1.284-.995v-.332l3.85.332.642 1.99.641.332c.232.369.285 1.461.642 1.659h1.925c.35-.818.75-1.328.963-2.323h1.283c.054.958.472 2.501.963 2.986.613-.975 1.2-.557 2.246-.332l1.604 3.981v1.327h.321c.22.655.125 1.147.321 1.659.365-.378.128-.002.32-.664h.322v-.995h.962v.332c.502.579.656 5.051.642 6.302h.321v-.331h.32l.322-1.99h.641l.321-.664h1.284l.766 4.227M25.539 60.504c-.211-1.163-.316-2.536-.298-3.351h-.963l-.317 3.015m131.229 26.84l-.201 1.044 1.448.308-.284-1.352h-.963zm-.776.922c-.422-2.34-.833-5.095-1.47-7.225l-.32-3.317-.642-.332-.321-1.326h-1.604c-.015 1.224-.44 3.743-.963 4.312v.332h-.32c-.424-1.088-.87-2.33-.963-3.65h-1.284l-.642 3.981h-.32l-1.284-8.956c-.34-1.246.35-2.839-.32-3.65v-.33h-.963c-.021 2.758-.13 5.672-.642 7.96l.32 1.66h-.32v5.97h-.321v1.936m-114.14-24.29c-.03-.841-.058-1.683-.087-2.525h-.963c-.237.634-.413 1.388-.521 2.191"/></g></svg>