<svg xmlns="http://www.w3.org/2000/svg" xmlns:xlink="http://www.w3.org/1999/xlink" viewBox="0 0 474.963 290.693"><path d="M22.137 263.511v3.206m-19.886 0v-3.206m39.771 0v3.206m19.885-3.206v3.206m19.885-3.206v3.206m19.885-3.206v3.206m19.885-3.206v3.206m19.885-3.206v3.206m19.885-3.206v3.206m19.884-3.206v3.206m19.885-3.206v3.206m19.885-3.206v3.206m19.885-3.206v3.206m19.885-3.206v3.206m19.885-3.206v3.206m19.885-3.206v3.206m19.885-3.206v3.206m19.885-3.206v3.206m19.885-3.206v3.206m19.885-3.206v3.206m19.885-3.206v3.206m19.885-3.206v3.206m19.885-3.206v3.206m0-214.096h5.238m-5.238 39.204h5.238m-5.238 39.176h5.238m-5.238 31.34h3.206m-3.206 25.326h3.206m-3.206 25.327h3.206m-3.206 25.271h3.206m-3.206 25.3h3.206" fill="none" stroke="#E3E3E3" stroke-width=".35" stroke-miterlimit="10"/><text transform="translate(448.906 265.802)" fill="#ECECEC" font-family="'Roboto'" font-size="8">0</text><text transform="translate(0 279.478)" fill="#ECECEC" font-family="'Roboto'" font-size="8">6</text><text transform="translate(17.633 279.478)" fill="#ECECEC" font-family="'Roboto'" font-size="8">13</text><text transform="translate(32.945 279.478)"><tspan x="-22.791" y="9.048" fill="#ECECEC" font-family="'Roboto'" font-size="8">August 2017</tspan></text><text transform="translate(112.67 279.478)"><tspan x="-29.52" y="9.048" fill="#ECECEC" font-family="'Roboto'" font-size="8">September 2017</tspan></text><text transform="translate(202.086 279.478)"><tspan x="-24.211" y="9.048" fill="#ECECEC" font-family="'Roboto'" font-size="8">October 2017</tspan></text><text transform="translate(291.766 279.478)"><tspan x="-28.461" y="9.048" fill="#ECECEC" font-family="'Roboto'" font-size="8">November 2017</tspan></text><text transform="translate(380.376 279.478)"><tspan x="-27.262" y="9.048" fill="#ECECEC" font-family="'Roboto'" font-size="8">December2017</tspan></text><text transform="translate(37.518 279.478)" fill="#ECECEC" font-family="'Roboto'" font-size="8">20</text><text transform="translate(57.403 279.478)" fill="#ECECEC" font-family="'Roboto'" font-size="8">27</text><text transform="translate(79.54 279.478)" fill="#ECECEC" font-family="'Roboto'" font-size="8">3</text><text transform="translate(97.173 279.478)" fill="#ECECEC" font-family="'Roboto'" font-size="8">10</text><text transform="translate(117.058 279.478)" fill="#ECECEC" font-family="'Roboto'" font-size="8">17</text><text transform="translate(136.943 279.478)" fill="#ECECEC" font-family="'Roboto'" font-size="8">24</text><text transform="translate(159.081 279.478)" fill="#ECECEC" font-family="'Roboto'" font-size="8">1</text><text transform="translate(176.713 279.478)" fill="#ECECEC" font-family="'Roboto'" font-size="8">08</text><text transform="translate(196.6 279.478)" fill="#ECECEC" font-family="'Roboto'" font-size="8">15</text><text transform="translate(216.482 279.478)" fill="#ECECEC" font-family="'Roboto'" font-size="8">22</text><text transform="translate(236.367 279.478)" fill="#ECECEC" font-family="'Roboto'" font-size="8">29</text><text transform="translate(258.505 279.478)" fill="#ECECEC" font-family="'Roboto'" font-size="8">5</text><text transform="translate(276.137 279.478)" fill="#ECECEC" font-family="'Roboto'" font-size="8">12</text><text transform="translate(296.022 279.478)" fill="#ECECEC" font-family="'Roboto'" font-size="8">19</text><text transform="translate(315.906 279.478)" fill="#ECECEC" font-family="'Roboto'" font-size="8">26</text><text transform="translate(338.043 279.478)" fill="#ECECEC" font-family="'Roboto'" font-size="8">3</text><text transform="translate(355.679 279.478)" fill="#ECECEC" font-family="'Roboto'" font-size="8">10</text><text transform="translate(375.563 279.478)" fill="#ECECEC" font-family="'Roboto'" font-size="8">17</text><text transform="translate(395.446 279.478)" fill="#ECECEC" font-family="'Roboto'" font-size="8">24</text><text transform="translate(415.332 279.478)" fill="#ECECEC" font-family="'Roboto'" font-size="8">31</text><text transform="translate(2.252 13.696)"><tspan x="0" y="0" fill="#D9DADA" font-family="'DIN Pro'" font-size="16">Graph</tspan><tspan x="0" y="18.834" fill="#F59900" font-family="'Roboto'" font-size="12">°</tspan><tspan x="4.471" y="15.834" fill="#F59900" font-family="'Roboto'" font-size="12"> Bitcoin Cash </tspan><tspan x="84.316" y="18.834" fill="#6E9ED4" font-family="'Roboto'" font-size="12">°</tspan><tspan x="88.787" y="15.834" fill="#6E9ED4" font-family="'Roboto'" font-size="12"> Ethereum Classic </tspan><tspan x="197.314" y="18.834" fill="#2DB7BC" font-family="'Roboto'" font-size="12">°</tspan><tspan x="201.785" y="15.834" fill="#2DB7BC" font-family="'Roboto'" font-size="12"> Zcash </tspan><tspan x="246.867" y="18.834" fill="#94A6B0" font-family="'Roboto'" font-size="12">°</tspan><tspan x="251.338" y="15.834" fill="#94A6B0" font-family="'Roboto'" font-size="12"> Dogecoin </tspan><tspan x="314.262" y="18.834" fill="#816070" font-family="'Roboto'" font-size="12">°</tspan><tspan x="318.732" y="15.834" fill="#816070" font-family="'Roboto'" font-size="12"> ReddCoin</tspan></text><text transform="translate(437.31 279.478)"><tspan x="0" y="0" fill="#ECECEC" font-family="'Roboto'" font-size="8">7 January </tspan><tspan x="0" y="9.048" fill="#ECECEC" font-family="'Roboto'" font-size="8">2018</tspan></text><text transform="translate(448.906 240.524)" fill="#ECECEC" font-family="'Roboto'" font-size="8">1G</text><text transform="translate(448.906 214.935)" fill="#ECECEC" font-family="'Roboto'" font-size="8">2G</text><text transform="translate(448.906 189.345)" fill="#ECECEC" font-family="'Roboto'" font-size="8">3G</text><text transform="translate(448.906 163.756)" fill="#ECECEC" font-family="'Roboto'" font-size="8">4G</text><text transform="translate(448.906 53.783)" fill="#ECECEC" font-family="'Roboto'" font-size="8">60G</text><text transform="translate(448.906 94.122)" fill="#ECECEC" font-family="'Roboto'" font-size="8">40G</text><text transform="translate(448.906 133.14)" fill="#ECECEC" font-family="'Roboto'" font-size="8">20G</text><path fill="none" stroke="#E3E3E3" stroke-width=".35" stroke-miterlimit="10" d="M.746 286.426h9.618m45.16 0h9.617m14.986 0h5.37m54.343 0h5.13m15.08 0h17.633m48.804 0h17.633m94.219 0h17.633m48.805 0h17.632m-162.785 0h9.618m45.042 0h9.618"/><defs><path id="id-1254a" d="M2.251 52.647v109.74s72.912 7.81 145.823 7.81c72.912 0 109.367-2.781 146.6-12.335 37.234-9.553 72.135-17.99 145.046-1.13V52.646H2.251z"/></defs><clipPath id="id-1255b"><use xlink:href="#id-1254a" overflow="visible"/></clipPath><g clip-path="url(#id-1255b)" fill="none" stroke="#E3E3E3" stroke-width=".35" stroke-miterlimit="10"><path d="M2.251 138.836h19.886v7.834H2.251z"/><path d="M22.136 138.836h19.886v7.834H22.136z"/><path d="M42.021 138.836h19.886v7.834H42.021z"/><path d="M61.906 138.836h19.886v7.834H61.906z"/><path d="M81.791 138.836h19.886v7.834H81.791z"/><path d="M101.676 138.836h19.886v7.834h-19.886z"/><path d="M121.561 138.836h19.886v7.834h-19.886z"/><path d="M141.446 138.836h19.886v7.834h-19.886z"/><path d="M161.33 138.836h19.886v7.834H161.33z"/><path d="M181.215 138.836h19.886v7.834h-19.886z"/><path d="M201.1 138.836h19.886v7.834H201.1z"/><path d="M220.985 138.836h19.886v7.834h-19.886z"/><path d="M240.87 138.836h19.886v7.834H240.87z"/><path d="M260.755 138.836h19.886v7.834h-19.886z"/><path d="M280.64 138.836h19.886v7.834H280.64z"/><path d="M300.525 138.836h19.886v7.834h-19.886z"/><path d="M320.41 138.836h19.886v7.834H320.41z"/><path d="M340.295 138.836h19.886v7.834h-19.886z"/><path d="M360.18 138.836h19.886v7.834H360.18z"/><path d="M380.065 138.836h19.886v7.834h-19.886z"/><path d="M399.95 138.836h19.886v7.834H399.95z"/><path d="M419.835 138.836h19.886v7.834h-19.886zM2.251 131.001h19.886v7.834H2.251z"/><path d="M22.136 131.001h19.886v7.834H22.136z"/><path d="M42.021 131.001h19.886v7.834H42.021z"/><path d="M61.906 131.001h19.886v7.834H61.906z"/><path d="M81.791 131.001h19.886v7.834H81.791z"/><path d="M101.676 131.001h19.886v7.834h-19.886z"/><path d="M121.561 131.001h19.886v7.834h-19.886z"/><path d="M141.446 131.001h19.886v7.834h-19.886z"/><path d="M161.33 131.001h19.886v7.834H161.33z"/><path d="M181.215 131.001h19.886v7.834h-19.886z"/><path d="M201.1 131.001h19.886v7.834H201.1z"/><path d="M220.985 131.001h19.886v7.834h-19.886z"/><path d="M240.87 131.001h19.886v7.834H240.87z"/><path d="M260.755 131.001h19.886v7.834h-19.886z"/><path d="M280.64 131.001h19.886v7.834H280.64z"/><path d="M300.525 131.001h19.886v7.834h-19.886z"/><path d="M320.41 131.001h19.886v7.834H320.41z"/><path d="M340.295 131.001h19.886v7.834h-19.886z"/><path d="M360.18 131.001h19.886v7.834H360.18z"/><path d="M380.065 131.001h19.886v7.834h-19.886z"/><path d="M399.95 131.001h19.886v7.834H399.95z"/><path d="M419.835 131.001h19.886v7.834h-19.886zM2.251 154.507h19.886v7.834H2.251z"/><path d="M22.136 154.507h19.886v7.834H22.136z"/><path d="M42.021 154.507h19.886v7.834H42.021z"/><path d="M61.906 154.507h19.886v7.834H61.906z"/><path d="M81.791 154.507h19.886v7.834H81.791z"/><path d="M101.676 154.507h19.886v7.834h-19.886z"/><path d="M121.561 154.507h19.886v7.834h-19.886z"/><path d="M141.446 154.507h19.886v7.834h-19.886z"/><path d="M161.33 154.507h19.886v7.834H161.33z"/><path d="M181.215 154.507h19.886v7.834h-19.886z"/><path d="M201.1 154.507h19.886v7.834H201.1z"/><path d="M220.985 154.507h19.886v7.834h-19.886z"/><path d="M240.87 154.507h19.886v7.834H240.87z"/><path d="M260.755 154.507h19.886v7.834h-19.886z"/><path d="M280.64 154.507h19.886v7.834H280.64z"/><path d="M300.525 154.507h19.886v7.834h-19.886z"/><path d="M320.41 154.507h19.886v7.834H320.41z"/><path d="M340.295 154.507h19.886v7.834h-19.886z"/><path d="M360.18 154.507h19.886v7.834H360.18z"/><path d="M380.065 154.507h19.886v7.834h-19.886z"/><path d="M399.95 154.507h19.886v7.834H399.95z"/><path d="M419.835 154.507h19.886v7.834h-19.886zM2.251 146.672h19.886v7.834H2.251z"/><path d="M22.136 146.672h19.886v7.834H22.136z"/><path d="M42.021 146.672h19.886v7.834H42.021z"/><path d="M61.906 146.672h19.886v7.834H61.906z"/><path d="M81.791 146.672h19.886v7.834H81.791z"/><path d="M101.676 146.672h19.886v7.834h-19.886z"/><path d="M121.561 146.672h19.886v7.834h-19.886z"/><path d="M141.446 146.672h19.886v7.834h-19.886z"/><path d="M161.33 146.672h19.886v7.834H161.33z"/><path d="M181.215 146.672h19.886v7.834h-19.886z"/><path d="M201.1 146.672h19.886v7.834H201.1z"/><path d="M220.985 146.672h19.886v7.834h-19.886z"/><path d="M240.87 146.672h19.886v7.834H240.87z"/><path d="M260.755 146.672h19.886v7.834h-19.886z"/><path d="M280.64 146.672h19.886v7.834H280.64z"/><path d="M300.525 146.672h19.886v7.834h-19.886z"/><path d="M320.41 146.672h19.886v7.834H320.41z"/><path d="M340.295 146.672h19.886v7.834h-19.886z"/><path d="M360.18 146.672h19.886v7.834H360.18z"/><path d="M380.065 146.672h19.886v7.834h-19.886z"/><path d="M399.95 146.672h19.886v7.834H399.95z"/><path d="M419.835 146.672h19.886v7.834h-19.886zM2.251 170.177h19.886v7.834H2.251z"/><path d="M22.136 170.177h19.886v7.834H22.136z"/><path d="M42.021 170.177h19.886v7.834H42.021z"/><path d="M61.906 170.177h19.886v7.834H61.906z"/><path d="M81.791 170.177h19.886v7.834H81.791z"/><path d="M101.676 170.177h19.886v7.834h-19.886z"/><path d="M121.561 170.177h19.886v7.834h-19.886z"/><path d="M141.446 170.177h19.886v7.834h-19.886z"/><path d="M161.33 170.177h19.886v7.834H161.33z"/><path d="M181.215 170.177h19.886v7.834h-19.886z"/><path d="M201.1 170.177h19.886v7.834H201.1z"/><path d="M220.985 170.177h19.886v7.834h-19.886z"/><path d="M240.87 170.177h19.886v7.834H240.87z"/><path d="M260.755 170.177h19.886v7.834h-19.886z"/><path d="M280.64 170.177h19.886v7.834H280.64z"/><path d="M300.525 170.177h19.886v7.834h-19.886z"/><path d="M320.41 170.177h19.886v7.834H320.41z"/><path d="M340.295 170.177h19.886v7.834h-19.886z"/><path d="M360.18 170.177h19.886v7.834H360.18z"/><path d="M380.065 170.177h19.886v7.834h-19.886z"/><path d="M399.95 170.177h19.886v7.834H399.95z"/><path d="M419.835 170.177h19.886v7.834h-19.886zM2.251 162.341h19.886v7.834H2.251z"/><path d="M22.136 162.341h19.886v7.834H22.136z"/><path d="M42.021 162.341h19.886v7.834H42.021z"/><path d="M61.906 162.341h19.886v7.834H61.906z"/><path d="M81.791 162.341h19.886v7.834H81.791z"/><path d="M101.676 162.341h19.886v7.834h-19.886z"/><path d="M121.561 162.341h19.886v7.834h-19.886z"/><path d="M141.446 162.341h19.886v7.834h-19.886z"/><path d="M161.33 162.341h19.886v7.834H161.33z"/><path d="M181.215 162.341h19.886v7.834h-19.886z"/><path d="M201.1 162.341h19.886v7.834H201.1z"/><path d="M220.985 162.341h19.886v7.834h-19.886z"/><path d="M240.87 162.341h19.886v7.834H240.87z"/><path d="M260.755 162.341h19.886v7.834h-19.886z"/><path d="M280.64 162.341h19.886v7.834H280.64z"/><path d="M300.525 162.341h19.886v7.834h-19.886z"/><path d="M320.41 162.341h19.886v7.834H320.41z"/><path d="M340.295 162.341h19.886v7.834h-19.886z"/><path d="M360.18 162.341h19.886v7.834H360.18z"/><path d="M380.065 162.341h19.886v7.834h-19.886z"/><path d="M399.95 162.341h19.886v7.834H399.95z"/><path d="M419.835 162.341h19.886v7.834h-19.886zM2.251 185.848h19.886v7.834H2.251z"/><path d="M22.136 185.848h19.886v7.834H22.136z"/><path d="M42.021 185.848h19.886v7.834H42.021z"/><path d="M61.906 185.848h19.886v7.834H61.906z"/><path d="M81.791 185.848h19.886v7.834H81.791z"/><path d="M101.676 185.848h19.886v7.834h-19.886z"/><path d="M121.561 185.848h19.886v7.834h-19.886z"/><path d="M141.446 185.848h19.886v7.834h-19.886z"/><path d="M161.33 185.848h19.886v7.834H161.33z"/><path d="M181.215 185.848h19.886v7.834h-19.886z"/><path d="M201.1 185.848h19.886v7.834H201.1z"/><path d="M220.985 185.848h19.886v7.834h-19.886z"/><path d="M240.87 185.848h19.886v7.834H240.87z"/><path d="M260.755 185.848h19.886v7.834h-19.886z"/><path d="M280.64 185.848h19.886v7.834H280.64z"/><path d="M300.525 185.848h19.886v7.834h-19.886z"/><path d="M320.41 185.848h19.886v7.834H320.41z"/><path d="M340.295 185.848h19.886v7.834h-19.886z"/><path d="M360.18 185.848h19.886v7.834H360.18z"/><path d="M380.065 185.848h19.886v7.834h-19.886z"/><path d="M399.95 185.848h19.886v7.834H399.95z"/><path d="M419.835 185.848h19.886v7.834h-19.886zM2.251 178.012h19.886v7.834H2.251z"/><path d="M22.136 178.012h19.886v7.834H22.136z"/><path d="M42.021 178.012h19.886v7.834H42.021z"/><path d="M61.906 178.012h19.886v7.834H61.906z"/><path d="M81.791 178.012h19.886v7.834H81.791z"/><path d="M101.676 178.012h19.886v7.834h-19.886z"/><path d="M121.561 178.012h19.886v7.834h-19.886z"/><path d="M141.446 178.012h19.886v7.834h-19.886z"/><path d="M161.33 178.012h19.886v7.834H161.33z"/><path d="M181.215 178.012h19.886v7.834h-19.886z"/><path d="M201.1 178.012h19.886v7.834H201.1z"/><path d="M220.985 178.012h19.886v7.834h-19.886z"/><path d="M240.87 178.012h19.886v7.834H240.87z"/><path d="M260.755 178.012h19.886v7.834h-19.886z"/><path d="M280.64 178.012h19.886v7.834H280.64z"/><path d="M300.525 178.012h19.886v7.834h-19.886z"/><path d="M320.41 178.012h19.886v7.834H320.41z"/><path d="M340.295 178.012h19.886v7.834h-19.886z"/><path d="M360.18 178.012h19.886v7.834H360.18z"/><path d="M380.065 178.012h19.886v7.834h-19.886z"/><path d="M399.95 178.012h19.886v7.834H399.95z"/><path d="M419.835 178.012h19.886v7.834h-19.886zM2.251 107.494h19.886v7.834H2.251z"/><path d="M22.136 107.494h19.886v7.834H22.136z"/><path d="M42.021 107.494h19.886v7.834H42.021z"/><path d="M61.906 107.494h19.886v7.834H61.906z"/><path d="M81.791 107.494h19.886v7.834H81.791z"/><path d="M101.676 107.494h19.886v7.834h-19.886z"/><path d="M121.561 107.494h19.886v7.834h-19.886z"/><path d="M141.446 107.494h19.886v7.834h-19.886z"/><path d="M161.33 107.494h19.886v7.834H161.33z"/><path d="M181.215 107.494h19.886v7.834h-19.886z"/><path d="M201.1 107.494h19.886v7.834H201.1z"/><path d="M220.985 107.494h19.886v7.834h-19.886z"/><path d="M240.87 107.494h19.886v7.834H240.87z"/><path d="M260.755 107.494h19.886v7.834h-19.886z"/><path d="M280.64 107.494h19.886v7.834H280.64z"/><path d="M300.525 107.494h19.886v7.834h-19.886z"/><path d="M320.41 107.494h19.886v7.834H320.41z"/><path d="M340.295 107.494h19.886v7.834h-19.886z"/><path d="M360.18 107.494h19.886v7.834H360.18z"/><path d="M380.065 107.494h19.886v7.834h-19.886z"/><path d="M399.95 107.494h19.886v7.834H399.95z"/><path d="M419.835 107.494h19.886v7.834h-19.886zM2.251 99.658h19.886v7.834H2.251z"/><path d="M22.136 99.658h19.886v7.834H22.136z"/><path d="M42.021 99.658h19.886v7.834H42.021z"/><path d="M61.906 99.658h19.886v7.834H61.906z"/><path d="M81.791 99.658h19.886v7.834H81.791z"/><path d="M101.676 99.658h19.886v7.834h-19.886z"/><path d="M121.561 99.658h19.886v7.834h-19.886z"/><path d="M141.446 99.658h19.886v7.834h-19.886z"/><path d="M161.33 99.658h19.886v7.834H161.33z"/><path d="M181.215 99.658h19.886v7.834h-19.886z"/><path d="M201.1 99.658h19.886v7.834H201.1z"/><path d="M220.985 99.658h19.886v7.834h-19.886z"/><path d="M240.87 99.658h19.886v7.834H240.87z"/><path d="M260.755 99.658h19.886v7.834h-19.886z"/><path d="M280.64 99.658h19.886v7.834H280.64z"/><path d="M300.525 99.658h19.886v7.834h-19.886z"/><path d="M320.41 99.658h19.886v7.834H320.41z"/><path d="M340.295 99.658h19.886v7.834h-19.886z"/><path d="M360.18 99.658h19.886v7.834H360.18z"/><path d="M380.065 99.658h19.886v7.834h-19.886z"/><path d="M399.95 99.658h19.886v7.834H399.95z"/><path d="M419.835 99.658h19.886v7.834h-19.886zM2.251 123.165h19.886v7.834H2.251z"/><path d="M22.136 123.165h19.886v7.834H22.136z"/><path d="M42.021 123.165h19.886v7.834H42.021z"/><path d="M61.906 123.165h19.886v7.834H61.906z"/><path d="M81.791 123.165h19.886v7.834H81.791z"/><path d="M101.676 123.165h19.886v7.834h-19.886z"/><path d="M121.561 123.165h19.886v7.834h-19.886z"/><path d="M141.446 123.165h19.886v7.834h-19.886z"/><path d="M161.33 123.165h19.886v7.834H161.33z"/><path d="M181.215 123.165h19.886v7.834h-19.886z"/><path d="M201.1 123.165h19.886v7.834H201.1z"/><path d="M220.985 123.165h19.886v7.834h-19.886z"/><path d="M240.87 123.165h19.886v7.834H240.87z"/><path d="M260.755 123.165h19.886v7.834h-19.886z"/><path d="M280.64 123.165h19.886v7.834H280.64z"/><path d="M300.525 123.165h19.886v7.834h-19.886z"/><path d="M320.41 123.165h19.886v7.834H320.41z"/><path d="M340.295 123.165h19.886v7.834h-19.886z"/><path d="M360.18 123.165h19.886v7.834H360.18z"/><path d="M380.065 123.165h19.886v7.834h-19.886z"/><path d="M399.95 123.165h19.886v7.834H399.95z"/><path d="M419.835 123.165h19.886v7.834h-19.886zM2.251 115.33h19.886v7.834H2.251z"/><path d="M22.136 115.33h19.886v7.834H22.136z"/><path d="M42.021 115.33h19.886v7.834H42.021z"/><path d="M61.906 115.33h19.886v7.834H61.906z"/><path d="M81.791 115.33h19.886v7.834H81.791z"/><path d="M101.676 115.33h19.886v7.834h-19.886z"/><path d="M121.561 115.33h19.886v7.834h-19.886z"/><path d="M141.446 115.33h19.886v7.834h-19.886z"/><path d="M161.33 115.33h19.886v7.834H161.33z"/><path d="M181.215 115.33h19.886v7.834h-19.886z"/><path d="M201.1 115.33h19.886v7.834H201.1z"/><path d="M220.985 115.33h19.886v7.834h-19.886z"/><path d="M240.87 115.33h19.886v7.834H240.87z"/><path d="M260.755 115.33h19.886v7.834h-19.886z"/><path d="M280.64 115.33h19.886v7.834H280.64z"/><path d="M300.525 115.33h19.886v7.834h-19.886z"/><path d="M320.41 115.33h19.886v7.834H320.41z"/><path d="M340.295 115.33h19.886v7.834h-19.886z"/><path d="M360.18 115.33h19.886v7.834H360.18z"/><path d="M380.065 115.33h19.886v7.834h-19.886z"/><path d="M399.95 115.33h19.886v7.834H399.95z"/><path d="M419.835 115.33h19.886v7.834h-19.886zM2.251 76.154h19.886v7.834H2.251z"/><path d="M22.136 76.154h19.886v7.834H22.136z"/><path d="M42.021 76.154h19.886v7.834H42.021z"/><path d="M61.906 76.154h19.886v7.834H61.906z"/><path d="M81.791 76.154h19.886v7.834H81.791z"/><path d="M101.676 76.154h19.886v7.834h-19.886z"/><path d="M121.561 76.154h19.886v7.834h-19.886z"/><path d="M141.446 76.154h19.886v7.834h-19.886z"/><path d="M161.33 76.154h19.886v7.834H161.33z"/><path d="M181.215 76.154h19.886v7.834h-19.886z"/><path d="M201.1 76.154h19.886v7.834H201.1z"/><path d="M220.985 76.154h19.886v7.834h-19.886z"/><path d="M240.87 76.154h19.886v7.834H240.87z"/><path d="M260.755 76.154h19.886v7.834h-19.886z"/><path d="M280.64 76.154h19.886v7.834H280.64z"/><path d="M300.525 76.154h19.886v7.834h-19.886z"/><path d="M320.41 76.154h19.886v7.834H320.41z"/><path d="M340.295 76.154h19.886v7.834h-19.886z"/><path d="M360.18 76.154h19.886v7.834H360.18z"/><path d="M380.065 76.154h19.886v7.834h-19.886z"/><path d="M399.95 76.154h19.886v7.834H399.95z"/><path d="M419.835 76.154h19.886v7.834h-19.886zM2.251 68.318h19.886v7.834H2.251z"/><path d="M22.136 68.318h19.886v7.834H22.136z"/><path d="M42.021 68.318h19.886v7.834H42.021z"/><path d="M61.906 68.318h19.886v7.834H61.906z"/><path d="M81.791 68.318h19.886v7.834H81.791z"/><path d="M101.676 68.318h19.886v7.834h-19.886z"/><path d="M121.561 68.318h19.886v7.834h-19.886z"/><path d="M141.446 68.318h19.886v7.834h-19.886z"/><path d="M161.33 68.318h19.886v7.834H161.33z"/><path d="M181.215 68.318h19.886v7.834h-19.886z"/><path d="M201.1 68.318h19.886v7.834H201.1z"/><path d="M220.985 68.318h19.886v7.834h-19.886z"/><path d="M240.87 68.318h19.886v7.834H240.87z"/><path d="M260.755 68.318h19.886v7.834h-19.886z"/><path d="M280.64 68.318h19.886v7.834H280.64z"/><path d="M300.525 68.318h19.886v7.834h-19.886z"/><path d="M320.41 68.318h19.886v7.834H320.41z"/><path d="M340.295 68.318h19.886v7.834h-19.886z"/><path d="M360.18 68.318h19.886v7.834H360.18z"/><path d="M380.065 68.318h19.886v7.834h-19.886z"/><path d="M399.95 68.318h19.886v7.834H399.95z"/><path d="M419.835 68.318h19.886v7.834h-19.886zM2.251 91.825h19.886v7.834H2.251z"/><path d="M22.136 91.825h19.886v7.834H22.136z"/><path d="M42.021 91.825h19.886v7.834H42.021z"/><path d="M61.906 91.825h19.886v7.834H61.906z"/><path d="M81.791 91.825h19.886v7.834H81.791z"/><path d="M101.676 91.825h19.886v7.834h-19.886z"/><path d="M121.561 91.825h19.886v7.834h-19.886z"/><path d="M141.446 91.825h19.886v7.834h-19.886z"/><path d="M161.33 91.825h19.886v7.834H161.33z"/><path d="M181.215 91.825h19.886v7.834h-19.886z"/><path d="M201.1 91.825h19.886v7.834H201.1z"/><path d="M220.985 91.825h19.886v7.834h-19.886z"/><path d="M240.87 91.825h19.886v7.834H240.87z"/><path d="M260.755 91.825h19.886v7.834h-19.886z"/><path d="M280.64 91.825h19.886v7.834H280.64z"/><path d="M300.525 91.825h19.886v7.834h-19.886z"/><path d="M320.41 91.825h19.886v7.834H320.41z"/><path d="M340.295 91.825h19.886v7.834h-19.886z"/><path d="M360.18 91.825h19.886v7.834H360.18z"/><path d="M380.065 91.825h19.886v7.834h-19.886z"/><path d="M399.95 91.825h19.886v7.834H399.95z"/><path d="M419.835 91.825h19.886v7.834h-19.886zM2.251 83.989h19.886v7.834H2.251z"/><path d="M22.136 83.989h19.886v7.834H22.136z"/><path d="M42.021 83.989h19.886v7.834H42.021z"/><path d="M61.906 83.989h19.886v7.834H61.906z"/><path d="M81.791 83.989h19.886v7.834H81.791z"/><path d="M101.676 83.989h19.886v7.834h-19.886z"/><path d="M121.561 83.989h19.886v7.834h-19.886z"/><path d="M141.446 83.989h19.886v7.834h-19.886z"/><path d="M161.33 83.989h19.886v7.834H161.33z"/><path d="M181.215 83.989h19.886v7.834h-19.886z"/><path d="M201.1 83.989h19.886v7.834H201.1z"/><path d="M220.985 83.989h19.886v7.834h-19.886z"/><path d="M240.87 83.989h19.886v7.834H240.87z"/><path d="M260.755 83.989h19.886v7.834h-19.886z"/><path d="M280.64 83.989h19.886v7.834H280.64z"/><path d="M300.525 83.989h19.886v7.834h-19.886z"/><path d="M320.41 83.989h19.886v7.834H320.41z"/><path d="M340.295 83.989h19.886v7.834h-19.886z"/><path d="M360.18 83.989h19.886v7.834H360.18z"/><path d="M380.065 83.989h19.886v7.834h-19.886z"/><path d="M399.95 83.989h19.886v7.834H399.95z"/><path d="M419.835 83.989h19.886v7.834h-19.886zM2.251 60.483h19.886v7.834H2.251z"/><path d="M22.136 60.483h19.886v7.834H22.136z"/><path d="M42.021 60.483h19.886v7.834H42.021z"/><path d="M61.906 60.483h19.886v7.834H61.906z"/><path d="M81.791 60.483h19.886v7.834H81.791z"/><path d="M101.676 60.483h19.886v7.834h-19.886z"/><path d="M121.561 60.483h19.886v7.834h-19.886z"/><path d="M141.446 60.483h19.886v7.834h-19.886z"/><path d="M161.33 60.483h19.886v7.834H161.33z"/><path d="M181.215 60.483h19.886v7.834h-19.886z"/><path d="M201.1 60.483h19.886v7.834H201.1z"/><path d="M220.985 60.483h19.886v7.834h-19.886z"/><path d="M240.87 60.483h19.886v7.834H240.87z"/><path d="M260.755 60.483h19.886v7.834h-19.886z"/><path d="M280.64 60.483h19.886v7.834H280.64z"/><path d="M300.525 60.483h19.886v7.834h-19.886z"/><path d="M320.41 60.483h19.886v7.834H320.41z"/><path d="M340.295 60.483h19.886v7.834h-19.886z"/><path d="M360.18 60.483h19.886v7.834H360.18z"/><path d="M380.065 60.483h19.886v7.834h-19.886z"/><path d="M399.95 60.483h19.886v7.834H399.95z"/><path d="M419.835 60.483h19.886v7.834h-19.886zM2.251 52.647h19.886v7.834H2.251z"/><path d="M22.136 52.647h19.886v7.834H22.136z"/><path d="M42.021 52.647h19.886v7.834H42.021z"/><path d="M61.906 52.647h19.886v7.834H61.906z"/><path d="M81.791 52.647h19.886v7.834H81.791z"/><path d="M101.676 52.647h19.886v7.834h-19.886z"/><path d="M121.561 52.647h19.886v7.834h-19.886z"/><path d="M141.446 52.647h19.886v7.834h-19.886z"/><path d="M161.33 52.647h19.886v7.834H161.33z"/><path d="M181.215 52.647h19.886v7.834h-19.886z"/><path d="M201.1 52.647h19.886v7.834H201.1z"/><path d="M220.985 52.647h19.886v7.834h-19.886z"/><path d="M240.87 52.647h19.886v7.834H240.87z"/><path d="M260.755 52.647h19.886v7.834h-19.886z"/><path d="M280.64 52.647h19.886v7.834H280.64z"/><path d="M300.525 52.647h19.886v7.834h-19.886z"/><path d="M320.41 52.647h19.886v7.834H320.41z"/><path d="M340.295 52.647h19.886v7.834h-19.886z"/><path d="M360.18 52.647h19.886v7.834H360.18z"/><path d="M380.065 52.647h19.886v7.834h-19.886z"/><path d="M399.95 52.647h19.886v7.834H399.95z"/><path d="M419.835 52.647h19.886v7.834h-19.886z"/></g><use xlink:href="#id-1254a" overflow="visible" fill="none" stroke="#E3E3E3" stroke-width=".35" stroke-miterlimit="10"/><defs><path id="id-1256c" d="M439.72 162.386c-72.911-16.859-107.812-9.553-145.045 0-37.234 9.554-73.69 11.204-146.6 11.204-72.912 0-145.824-11.204-145.824-11.204V263.54h437.47V162.386z"/></defs><clipPath id="id-1257d"><use xlink:href="#id-1256c" overflow="visible"/></clipPath><g clip-path="url(#id-1257d)" fill="none" stroke="#E3E3E3" stroke-width=".35" stroke-miterlimit="10"><path d="M2.251 225.592h19.886v12.647H2.251z"/><path d="M22.136 225.592h19.886v12.647H22.136z"/><path d="M42.021 225.592h19.886v12.647H42.021z"/><path d="M61.906 225.592h19.886v12.647H61.906z"/><path d="M81.791 225.592h19.886v12.647H81.791z"/><path d="M101.676 225.592h19.886v12.647h-19.886z"/><path d="M121.561 225.592h19.886v12.647h-19.886z"/><path d="M141.446 225.592h19.886v12.647h-19.886z"/><path d="M161.33 225.592h19.886v12.647H161.33z"/><path d="M181.215 225.592h19.886v12.647h-19.886z"/><path d="M201.1 225.592h19.886v12.647H201.1z"/><path d="M220.985 225.592h19.886v12.647h-19.886z"/><path d="M240.87 225.592h19.886v12.647H240.87z"/><path d="M260.755 225.592h19.886v12.647h-19.886z"/><path d="M280.64 225.592h19.886v12.647H280.64z"/><path d="M300.525 225.592h19.886v12.647h-19.886z"/><path d="M320.41 225.592h19.886v12.647H320.41z"/><path d="M340.295 225.592h19.886v12.647h-19.886z"/><path d="M360.18 225.592h19.886v12.647H360.18z"/><path d="M380.065 225.592h19.886v12.647h-19.886z"/><path d="M399.95 225.592h19.886v12.647H399.95z"/><path d="M419.835 225.592h19.886v12.647h-19.886zM2.251 212.942h19.886v12.647H2.251z"/><path d="M22.136 212.942h19.886v12.647H22.136z"/><path d="M42.021 212.942h19.886v12.647H42.021z"/><path d="M61.906 212.942h19.886v12.647H61.906z"/><path d="M81.791 212.942h19.886v12.647H81.791z"/><path d="M101.676 212.942h19.886v12.647h-19.886z"/><path d="M121.561 212.942h19.886v12.647h-19.886z"/><path d="M141.446 212.942h19.886v12.647h-19.886z"/><path d="M161.33 212.942h19.886v12.647H161.33z"/><path d="M181.215 212.942h19.886v12.647h-19.886z"/><path d="M201.1 212.942h19.886v12.647H201.1z"/><path d="M220.985 212.942h19.886v12.647h-19.886z"/><path d="M240.87 212.942h19.886v12.647H240.87z"/><path d="M260.755 212.942h19.886v12.647h-19.886z"/><path d="M280.64 212.942h19.886v12.647H280.64z"/><path d="M300.525 212.942h19.886v12.647h-19.886z"/><path d="M320.41 212.942h19.886v12.647H320.41z"/><path d="M340.295 212.942h19.886v12.647h-19.886z"/><path d="M360.18 212.942h19.886v12.647H360.18z"/><path d="M380.065 212.942h19.886v12.647h-19.886z"/><path d="M399.95 212.942h19.886v12.647H399.95z"/><path d="M419.835 212.942h19.886v12.647h-19.886zM2.251 250.892h19.886v12.647H2.251z"/><path d="M22.136 250.892h19.886v12.647H22.136z"/><path d="M42.021 250.892h19.886v12.647H42.021z"/><path d="M61.906 250.892h19.886v12.647H61.906z"/><path d="M81.791 250.892h19.886v12.647H81.791z"/><path d="M101.676 250.892h19.886v12.647h-19.886z"/><path d="M121.561 250.892h19.886v12.647h-19.886z"/><path d="M141.446 250.892h19.886v12.647h-19.886z"/><path d="M161.33 250.892h19.886v12.647H161.33z"/><path d="M181.215 250.892h19.886v12.647h-19.886z"/><path d="M201.1 250.892h19.886v12.647H201.1z"/><path d="M220.985 250.892h19.886v12.647h-19.886z"/><path d="M240.87 250.892h19.886v12.647H240.87z"/><path d="M260.755 250.892h19.886v12.647h-19.886z"/><path d="M280.64 250.892h19.886v12.647H280.64z"/><path d="M300.525 250.892h19.886v12.647h-19.886z"/><path d="M320.41 250.892h19.886v12.647H320.41z"/><path d="M340.295 250.892h19.886v12.647h-19.886z"/><path d="M360.18 250.892h19.886v12.647H360.18z"/><path d="M380.065 250.892h19.886v12.647h-19.886z"/><path d="M399.95 250.892h19.886v12.647H399.95z"/><path d="M419.835 250.892h19.886v12.647h-19.886zM2.251 238.242h19.886v12.647H2.251z"/><path d="M22.136 238.242h19.886v12.647H22.136z"/><path d="M42.021 238.242h19.886v12.647H42.021z"/><path d="M61.906 238.242h19.886v12.647H61.906z"/><path d="M81.791 238.242h19.886v12.647H81.791z"/><path d="M101.676 238.242h19.886v12.647h-19.886z"/><path d="M121.561 238.242h19.886v12.647h-19.886z"/><path d="M141.446 238.242h19.886v12.647h-19.886z"/><path d="M161.33 238.242h19.886v12.647H161.33z"/><path d="M181.215 238.242h19.886v12.647h-19.886z"/><path d="M201.1 238.242h19.886v12.647H201.1z"/><path d="M220.985 238.242h19.886v12.647h-19.886z"/><path d="M240.87 238.242h19.886v12.647H240.87z"/><path d="M260.755 238.242h19.886v12.647h-19.886z"/><path d="M280.64 238.242h19.886v12.647H280.64z"/><path d="M300.525 238.242h19.886v12.647h-19.886z"/><path d="M320.41 238.242h19.886v12.647H320.41z"/><path d="M340.295 238.242h19.886v12.647h-19.886z"/><path d="M360.18 238.242h19.886v12.647H360.18z"/><path d="M380.065 238.242h19.886v12.647h-19.886z"/><path d="M399.95 238.242h19.886v12.647H399.95z"/><path d="M419.835 238.242h19.886v12.647h-19.886zM2.251 174.992h19.886v12.647H2.251z"/><path d="M22.136 174.992h19.886v12.647H22.136z"/><path d="M42.021 174.992h19.886v12.647H42.021z"/><path d="M61.906 174.992h19.886v12.647H61.906z"/><path d="M81.791 174.992h19.886v12.647H81.791z"/><path d="M101.676 174.992h19.886v12.647h-19.886z"/><path d="M121.561 174.992h19.886v12.647h-19.886z"/><path d="M141.446 174.992h19.886v12.647h-19.886z"/><path d="M161.33 174.992h19.886v12.647H161.33z"/><path d="M181.215 174.992h19.886v12.647h-19.886z"/><path d="M201.1 174.992h19.886v12.647H201.1z"/><path d="M220.985 174.992h19.886v12.647h-19.886z"/><path d="M240.87 174.992h19.886v12.647H240.87z"/><path d="M260.755 174.992h19.886v12.647h-19.886z"/><path d="M280.64 174.992h19.886v12.647H280.64z"/><path d="M300.525 174.992h19.886v12.647h-19.886z"/><path d="M320.41 174.992h19.886v12.647H320.41z"/><path d="M340.295 174.992h19.886v12.647h-19.886z"/><path d="M360.18 174.992h19.886v12.647H360.18z"/><path d="M380.065 174.992h19.886v12.647h-19.886z"/><path d="M399.95 174.992h19.886v12.647H399.95z"/><path d="M419.835 174.992h19.886v12.647h-19.886zM2.251 162.342h19.886v12.647H2.251z"/><path d="M22.136 162.342h19.886v12.647H22.136z"/><path d="M42.021 162.342h19.886v12.647H42.021z"/><path d="M61.906 162.342h19.886v12.647H61.906z"/><path d="M81.791 162.342h19.886v12.647H81.791z"/><path d="M101.676 162.342h19.886v12.647h-19.886z"/><path d="M121.561 162.342h19.886v12.647h-19.886z"/><path d="M141.446 162.342h19.886v12.647h-19.886z"/><path d="M161.33 162.342h19.886v12.647H161.33z"/><path d="M181.215 162.342h19.886v12.647h-19.886z"/><path d="M201.1 162.342h19.886v12.647H201.1z"/><path d="M220.985 162.342h19.886v12.647h-19.886z"/><path d="M240.87 162.342h19.886v12.647H240.87z"/><path d="M260.755 162.342h19.886v12.647h-19.886z"/><path d="M280.64 162.342h19.886v12.647H280.64z"/><path d="M300.525 162.342h19.886v12.647h-19.886z"/><path d="M320.41 162.342h19.886v12.647H320.41z"/><path d="M340.295 162.342h19.886v12.647h-19.886z"/><path d="M360.18 162.342h19.886v12.647H360.18z"/><path d="M380.065 162.342h19.886v12.647h-19.886z"/><path d="M399.95 162.342h19.886v12.647H399.95z"/><path d="M419.835 162.342h19.886v12.647h-19.886zM2.251 149.694h19.886v12.647H2.251z"/><path d="M22.136 149.694h19.886v12.647H22.136z"/><path d="M42.021 149.694h19.886v12.647H42.021z"/><path d="M61.906 149.694h19.886v12.647H61.906z"/><path d="M81.791 149.694h19.886v12.647H81.791z"/><path d="M101.676 149.694h19.886v12.647h-19.886z"/><path d="M121.561 149.694h19.886v12.647h-19.886z"/><path d="M141.446 149.694h19.886v12.647h-19.886z"/><path d="M161.33 149.694h19.886v12.647H161.33z"/><path d="M181.215 149.694h19.886v12.647h-19.886z"/><path d="M201.1 149.694h19.886v12.647H201.1z"/><path d="M220.985 149.694h19.886v12.647h-19.886z"/><path d="M240.87 149.694h19.886v12.647H240.87z"/><path d="M260.755 149.694h19.886v12.647h-19.886z"/><path d="M280.64 149.694h19.886v12.647H280.64z"/><path d="M300.525 149.694h19.886v12.647h-19.886z"/><path d="M320.41 149.694h19.886v12.647H320.41z"/><path d="M340.295 149.694h19.886v12.647h-19.886z"/><path d="M360.18 149.694h19.886v12.647H360.18z"/><path d="M380.065 149.694h19.886v12.647h-19.886z"/><path d="M399.95 149.694h19.886v12.647H399.95z"/><path d="M419.835 149.694h19.886v12.647h-19.886zM2.251 137.044h19.886v12.647H2.251z"/><path d="M22.136 137.044h19.886v12.647H22.136z"/><path d="M42.021 137.044h19.886v12.647H42.021z"/><path d="M61.906 137.044h19.886v12.647H61.906z"/><path d="M81.791 137.044h19.886v12.647H81.791z"/><path d="M101.676 137.044h19.886v12.647h-19.886z"/><path d="M121.561 137.044h19.886v12.647h-19.886z"/><path d="M141.446 137.044h19.886v12.647h-19.886z"/><path d="M161.33 137.044h19.886v12.647H161.33z"/><path d="M181.215 137.044h19.886v12.647h-19.886z"/><path d="M201.1 137.044h19.886v12.647H201.1z"/><path d="M220.985 137.044h19.886v12.647h-19.886z"/><path d="M240.87 137.044h19.886v12.647H240.87z"/><path d="M260.755 137.044h19.886v12.647h-19.886z"/><path d="M280.64 137.044h19.886v12.647H280.64z"/><path d="M300.525 137.044h19.886v12.647h-19.886z"/><path d="M320.41 137.044h19.886v12.647H320.41z"/><path d="M340.295 137.044h19.886v12.647h-19.886z"/><path d="M360.18 137.044h19.886v12.647H360.18z"/><path d="M380.065 137.044h19.886v12.647h-19.886z"/><path d="M399.95 137.044h19.886v12.647H399.95z"/><path d="M419.835 137.044h19.886v12.647h-19.886zM2.251 200.292h19.886v12.647H2.251z"/><path d="M22.136 200.292h19.886v12.647H22.136z"/><path d="M42.021 200.292h19.886v12.647H42.021z"/><path d="M61.906 200.292h19.886v12.647H61.906z"/><path d="M81.791 200.292h19.886v12.647H81.791z"/><path d="M101.676 200.292h19.886v12.647h-19.886z"/><path d="M121.561 200.292h19.886v12.647h-19.886z"/><path d="M141.446 200.292h19.886v12.647h-19.886z"/><path d="M161.33 200.292h19.886v12.647H161.33z"/><path d="M181.215 200.292h19.886v12.647h-19.886z"/><path d="M201.1 200.292h19.886v12.647H201.1z"/><path d="M220.985 200.292h19.886v12.647h-19.886z"/><path d="M240.87 200.292h19.886v12.647H240.87z"/><path d="M260.755 200.292h19.886v12.647h-19.886z"/><path d="M280.64 200.292h19.886v12.647H280.64z"/><path d="M300.525 200.292h19.886v12.647h-19.886z"/><path d="M320.41 200.292h19.886v12.647H320.41z"/><path d="M340.295 200.292h19.886v12.647h-19.886z"/><path d="M360.18 200.292h19.886v12.647H360.18z"/><path d="M380.065 200.292h19.886v12.647h-19.886z"/><path d="M399.95 200.292h19.886v12.647H399.95z"/><path d="M419.835 200.292h19.886v12.647h-19.886zM2.251 187.642h19.886v12.647H2.251z"/><path d="M22.136 187.642h19.886v12.647H22.136z"/><path d="M42.021 187.642h19.886v12.647H42.021z"/><path d="M61.906 187.642h19.886v12.647H61.906z"/><path d="M81.791 187.642h19.886v12.647H81.791z"/><path d="M101.676 187.642h19.886v12.647h-19.886z"/><path d="M121.561 187.642h19.886v12.647h-19.886z"/><path d="M141.446 187.642h19.886v12.647h-19.886z"/><path d="M161.33 187.642h19.886v12.647H161.33z"/><path d="M181.215 187.642h19.886v12.647h-19.886z"/><path d="M201.1 187.642h19.886v12.647H201.1z"/><path d="M220.985 187.642h19.886v12.647h-19.886z"/><path d="M240.87 187.642h19.886v12.647H240.87z"/><path d="M260.755 187.642h19.886v12.647h-19.886z"/><path d="M280.64 187.642h19.886v12.647H280.64z"/><path d="M300.525 187.642h19.886v12.647h-19.886z"/><path d="M320.41 187.642h19.886v12.647H320.41z"/><path d="M340.295 187.642h19.886v12.647h-19.886z"/><path d="M360.18 187.642h19.886v12.647H360.18z"/><path d="M380.065 187.642h19.886v12.647h-19.886z"/><path d="M399.95 187.642h19.886v12.647H399.95z"/><path d="M419.835 187.642h19.886v12.647h-19.886z"/></g><use xlink:href="#id-1256c" overflow="visible" fill="none" stroke="#E3E3E3" stroke-width=".35" stroke-miterlimit="10"/><path clip-rule="evenodd" fill="none" stroke="#F59900" stroke-width="1.5" stroke-linecap="round" stroke-linejoin="round" stroke-miterlimit="10" d="M3.529 162.367c1.659-1.387 2.908-3.373 5.168-3.371 1.252 0 4.207.531 4.878 1.409 2.583-1.105 5.954-1.065 8.37-.646.996.173 3.58.342 4.49.411 1.951.149 4.363.288 6.1-.753 1.491-.893 1.915-3.663 2.539-5.111.86-1.997 1.303-3.577 2.135-5.645.334-.829.637-2.303 1.24-2.959.708-.769 1.044-.564 2.39-.564 1.36 0 1.182-.047 2.034.643.778.631 1.291 2.485 2.214 2.88 1.414.607 3.689-.646 5.107-.635 1.26.01 1.722.517 2.916.696 3.022.455 6.551 1.035 9.36 1.349 1.774.198 2.564.178 3.789.528.771.22 2.04.784 2.954.822 1.788.074 2.992-.703 4.46-1.104 2.022-.552 3.826-.195 5.484-.012 1.833.203 2.896.42 4.088.705 1.532.367 2.462.861 4.185 1.41.324-.854 1.95-2.049 2.708-2.584 1.09-.77 2.373-1.525 4.04-1.41 2.998.209 5.147 2.713 7.285 3.054 1.767.281 4.26-.064 5.662.235 1.186.253 2.098.644 3.447 1.409 1.024.58 2.39 1.582 3.385 2.231.348.228.958.595 1.292.705 1.221.402 1.217.033 2.216-.294.966-.316 3.193-.32 4.185-.528 1.308-.276 1.966-.844 3.602-1.105 1.65-.264 4.248-.867 5.507-.54.485.127 1.272.697 1.846.94.705.3 1.224.722 2.085 1.094 1.575.68 3.04.36 4.976.315 4.961-.112 9.922-.255 14.883-.418 1.624-.053 3.477-.163 4.724.002 2.107.28 3.545.482 5.77.651 2.472.188 5.341 1.39 7.813 2.114.725-1.056 6.317-.44 7.823-.261 1.38.165 2.164 1.01 3.256 1.2 2.805.491 5.957-.165 8.81.194 1.092.137 4.497.688 4.976-.194 1.649.673 5.018.433 6.4.06 1.903-.515 2.64-.723 5.188-.607 1.884.086 3.393.257 5.502.318 1.258.036 5.247.687 5.805-.24 3.137 1.134 7.756.715 11.132.028 4.55-.925 9.41-2.47 13.733-3.434 2.202-.49 4.377-1.203 6.264-3.449.556-.662 1.803-2.978 2.677-3.228.833-.237 2.913.632 3.759.815 1.294.281 1.802.211 3.106.051 2.181-.267 4.192.487 6.4-.03.874-.204.995-.327 1.87-.532 1.89-.441 1.65-.068 2.59-1.59 1.118-1.812 2.023-3.583 2.585-5.753 1.014-3.919 2.266-7.85 2.821-11.819.3-2.148.937-4.201 1.176-6.35.123-1.103.62-6.158 1.45-6.69 1.199-.767 1.685 4.035 1.867 4.91.259 1.24.752 5.081 1.72 5.588.535.28 2.324-.2 2.828-.107.26.048 1.446.533 1.866.79 1.263.77 1.872 2.55 2.319 3.672.178.448.31.725.492 1.175.55 1.364.182 1.776 1.673 1.818 1.719.047 2.19-1.842 2.512-2.64.518-1.283.703-4.719 2.546-4.14.983.31 1.428 2.082 2.378 2.495.927.404 2.994 0 4.011 0 2.107 0 3.777-.47 4.546-2.414.663-1.674.882-3.232 1.29-4.455.812-2.433 2.022-4.668 3.2-7.105 1.457-3.011 1.958-.357 3.94.587 2.418 1.152 3.465-1.441 5.77-1.449 1.255-.004 2.213 2.278 3.092 3.093.622.576 2.379 1.141 3.078 1.88.578.61 1.067 2.216 1.746 3.43.853 1.527.468 1.394 2.044 1.118 1.506-.264 1.748-.788 2.734-1.73.34-.326 1.178-.777 1.477-1.175.42-.56.838-1.34 1.354-1.879 1.826-1.912 3.559-1.155 5.93-.744 2.044.355 3.075 1.807 4.437 3.267.648.695 1.698 2.763 2.557 2.527.484-.133 1.31-1.966 1.724-2.466.55-.665.357-.697 1.45-.94 1.44-.32 2.402-.06 3.104.705.625.681 1.715 2.194 2.093 3.288 1.136-.867 2.44-1.749 3.138-2.818.676-1.036 1.486-2.447 2.4-3.289 1.057-.97 2.399-2.027 2.96-3.366.49-1.17.626-1.857.918-2.74.16-.481 1.028-4.233 1.662-4.463.835-.303 1.391.693 1.846 1.175.865.916.718 1.004 1.728.878.816-.101 1.486-.91 1.965-1.113 1.247-.529 2.43-.803 3.447-2.055.882-1.088 2.118-2.964 2.507-4.441.901-3.416 1.88-7.301 2.448-10.789.443-2.72.177-5.585.572-8.577.719-5.442 1.163-11.496 1.425-17.137.122-2.636.35-5.13.556-7.473.107-1.212-.035-7.686 1.263-7 .945.5 1.669 3.837 2.168 4.825.19.379.655.733.771 1.217.692 2.889.703 6.655.906 9.153.192 2.352.619 4.813.8 6.968.141 1.662-.168 3.548.374 5.164.575 1.714.656.763.9-.632l1.185-6.78c.106-.61.104-3.79 1.499-2.762.267.196.895 2.485 1.005 2.725.544 1.196.407 1.72.927 2.958 1.384 3.297 4.298.127 6.666.345.022.002 2.52.558 2.713.726.823.717 1.037 4.153 1.297 5.195l1.16 4.648 3.2-1.644c.693 2.204 1.3 3.23 1.97 4.932.162.412.492 1.627.902 1.88.423.259 4.292.172 4.685 0 1.269-.56 2.079-2.924 2.906-3.994 1.41-1.822 1.794-2.855 3.816-4.462.777 1.73 2.596 8.607 5.68 6.42 1.363-.966 2.333-2.87 2.936-3.837.345-.551 1.197-3.58 2.462-3.523"/><path clip-rule="evenodd" fill="none" stroke="#6E9ED4" stroke-width="1.5" stroke-linecap="round" stroke-linejoin="round" stroke-miterlimit="10" d="M2.252 225.996c1.048.237 2.245.4 3.166.659.532-.382 2.384-.36 3.167-.494 1.026-.174 1.171-.441 2.612-.3 2.432.24 4.312.86 6.157 1.123.76.108 1.666.014 2.318.262.706.27 1.28.971 1.944 1.302.943.47.824.437 2.003.576 1.65.194 1.347.025 2.625.659.63.312 1.277.868 2.273.953 1.886.16 4.33-.883 6.245-.935 2.01-.054 5.41 1.317 7.68.476.793-.294 1.286-1.005 2.11-1.144 2.338-.392 2.428.438 3.736-.832.473-.459 1.027-1.26 1.583-1.564.972-.531 3.116-.59 4.02-.576 1.558.026 3.68.703 5.115.494 1.37-.2 2.133-1.246 3.365-1.482 2.753-.526 5.76.034 8.746-.653 2.52-.58 2.109-1.68 2.864-3.302.452-.969.948-2.337 1.482-3.48.367-.787 1.142-1.316 1.568-1.948.329-.49.309-.83.83-1.452 1.278-1.521 1.855-.378 3.189.629 1.606 1.212 2.392 3.15 3.225 4.438.451.7 1.02 1.19 1.768 1.817 1.029.865.826 1.59 2.012.335.653-.692.81-1.67 1.556-2.314.7-.605.495-.3 1.592-.703 1.05-.386 1.699-.637 2.833-.061 2.476 1.255 3.66 3.757 5.404 5.377 1.02.947 1.733 1.66 3.064 1.976.882.209 2.295-.006 3.233-.086 1.646-.14 1.33-.251 2.228.25 1.5.837 2.938 2.892 3.654 3.787 1.638 2.048 3.076 4.096 4.384 6.75.663-.278 1.107-.54 1.705-.7 1.605-.429 1.213-.178 3.066.171 1.119.21-.159.257.992.056 1.427-.25 2.913-1.037 4.224-1.503.517.53 3.346.495 4.141.74.933.288 2.223.936 3.167 1.4.459.226 1.085.855 1.948 1.152 1.551.535 1.964.382 3.757.098 1.38-.218 3.055-.244 4.54-.722 2.646-.85 4.555-2.934 7.002-4.283.619-.34 1.7-1.548 2.483-1.678.614-.101 2.376.514 2.679.494 1.047-.07 2.123-.842 3.166-.823 1.229.022 2.747.93 3.929 1.18.9.19 1.593.214 2.283.466.837.307 1.063.725 2.061.945 1.587.35 3.656.506 5.612.866.342-.307 1.996-.844 2.435-.905.598-.083 1.738.063 2.54.05 1.045-.018 2.157-.398 3.166-.364 1.497.05 2.4.945 3.55 1.384.607.231 1.28.478 2.184.616 2.08.317 5.717-.249 7.56-.616.63-.126 1.331-.382 2.192-.576 1.531-.345 1.691-.233 3.654-.083 1.29.099 3.492.123 4.384.165.785.037 1.95-.184 2.68 0 .549.138.957.789 1.552 1.024 2.154.85 5.694.387 7.947.951 1.815.455 3.764.609 5.536 1.403 1.454.651 1.756.648 2.99.244.19-.063.632-.487.73-.494 1.096-.083 2.52.473 3.618.575 4.604.427 9.692-.145 14.346-.223 1.67-.028 3.941-.348 5.482-.023 1.014.214 1.849.727 2.86 1.152.464-.576 1.766-.918 2.315-1.317.489-.355.649-.718 1.096-1.152 1.128-1.096 2.125-2.099 3.765-3.268 1.361-.97 2.52-4.474 4.151-4.799.427-.085 1.859.498 2.314.577.917.157 2.495.299 3.984.09 1.29-.183 4.094-.859 4.92-1.676 1.977-1.953.462-5.684 3.7-6.824 2.492-.876 2.506-.546 3.269.948.179.35 1.324 3.314 1.908 3.264.61-.053 1.45-2.867 1.896-3.275.724-.66 2.692-1.17 4.076-.949.851.137 1.486.928 2.34 1.055.804.119.688-.04 1.432-.206.67-.149 1.558-.356 2.192-.576 1.361-.473 3.196-.986 4.628-1.646.54-.25 1.3-.709 1.705-.906 1.843-.898 2.088-.644 4.291-.085 1.983.502 2.566.754 4.234.414.83-.169 1.25-.44 2.03-.832 1.588-.798 1.703-.598 2.233-1.72.268-.566.391-.957.689-1.53.45-.867.687-3.672 1.787-4.231.559-.284 1.995.246 2.599 0 .452-.184.68-.787.92-1.152.7-1.065 1.724-2.186 2.168-3.31.861-2.185.756-4.787 1.11-7.028l.916-5.797c.135-.852-.104-3.042.595-3.764.968-1 2.232 1.158 2.856 1.79 1.084 1.098 1.491 2.854 2.01 4.116.619 1.505.938 2.669 1.522 4.444.13-1.208 1.32-2.084 1.705-2.798.467-.863.799-1.822 1.218-2.552.409-.71.899-3.793 2.152-4.449 1.589-.832 4.34.492 5.521.91 2.206.78 3.661.868 4.932 2.798.743 1.127 1.485 2.482 2.667 3.91.912 1.1.829 1.765 2.46 1.602 2.096-.21 1.8-1.307 2.242-2.378.148-.358.626-.849.73-1.158.288-.848.142-2.605 1.12-3.233 1.296-.83 1.488.731 1.798 1.442l1.71 3.931c1.252-2.404 4.035-3.786 5.664-6.091.462-.655 1.03-1.21 1.522-1.975 1.035-1.61 2.546-2.791 4.506-4.116l1.95 2.47c1.313-1.8 1.63-4.736 1.948-6.8.157-1.022-.103-3.745.928-4.382.504-.311 1.282.107 2.104.054 1.497-.097.704-.058 1.413-.726 2.423-2.282 3.377-6.267 4.08-9.218.148-.623.29-3.011 1.949-2.799.85.109 1.34 1.544 2.192 1.646.707.085 2.694-.91 3.41-1.152.483 7.833 1.423 14.618 2.923 22.224.096-.577 1.084-2.509 1.831-2.634 1.353-.227 1.157 1.043 1.348 1.687l2.18 7.367h.243c.342-.715 1.5-1.292 2.07-1.81.555-.505 1-.97 1.584-1.482.6-.526.807-1.035 1.904-1.153 1.073-.114 2.542.154 3.048.543.847.652 1.266 2.958 1.564 3.738.106.277.353 2.007.755 2.182.642.28 2.49-.998 3.203-1.36.606 1.267 1.4 4.967 2.907 5.598 2.91 1.217 3.25-4.13 3.55-5.091.763-2.447 1.067-4.23 2.068-6.186.33-.644.9-1.297 1.218-1.893.475-.889.692-1.228 1.4-1.728.573-.405 1.289-.416 1.767-.741 1.07-.729 1.217-1.457 1.705-2.14.184-.258 1.188-1.881 1.847-2.14.853-.337 3.472.12 3.999.164 2.343.2 2.038-.426 2.688-1.962.372-.88.857-3.502 2.183-3.635"/><path clip-rule="evenodd" fill="none" stroke="#816070" stroke-width="1.5" stroke-linecap="round" stroke-linejoin="round" stroke-miterlimit="10" d="M2.251 262.841c0-.169.03-.202 1.138-.17.2.006-.016.036.182.043.271.008.599 0 .874 0 1.41 0 3.152-.032 4.442.01-.034 0 .124.027.273.032.386.014.874 0 1.264 0 .715 0 1.435-.004 2.15 0 .615.004 3.694-.004 3.686.085.867-.113 3.2-.031 4.198-.024.899.006 2.046-.017 2.924.02.584.026.51.042 1.214.047.75.005.81-.02 1.298-.054.864-.061 1.886-.055 2.763-.11.201-.014.054-.042.175-.05.293-.019.69-.02 1-.029.631-.018 1.312-.05 1.951-.054 1.306-.008 2.71.044 4.008.065l6.577.108c2.724.044 5.351.014 8.09 0 1.44-.008 2.88-.004 4.32-.004h3.413c.533 0 1.119-.019 1.57.043.01-.094 5.674-.081 6.561-.085 1.104-.004 2.235.016 3.334 0 .196-.003.45.008.642 0 .091-.004-.027-.038.133-.047.284-.017.601-.02.881-.038.019-.002-.012-.042 0-.043.105-.01.33.012.428 0 .137-.017.165-.068.31-.085.104-.012.447-.013.555-.022.232-.02.11-.047.345-.063.276-.019.864 0 1.154 0 1.216 0 2.162.02 3.352.064 2.248.083 4.614.022 6.823.106.141.005-.027.039.092.043.241.008.551 0 .793 0 .786 0 1.717.023 2.491 0 .355-.011 2.085-.071 2.09-.128 1.697.027 3.388.05 5.088.068.688.007 5.743.01 5.726.102l1.474-.042c-.033.104 4.75.03 5.653 0 .039.088 3.2.123 3.687.138.02 0-.037.028.081.032.261.009.551-.008.813 0 .188.005.392-.005.58 0 .038 0-.058.04.028.042.512.016 1.892-.055 1.938.043 5.546-.046 10.932-.078 16.467-.043.01-.098 4 0 4.636 0 .56 0 1.26.021 1.811 0 .31-.011.446-.04.557-.042.874-.021 1.946.029 2.827.042.182-.075-.016.006.364-.042.06-.008.277-.06.31-.063.292-.027.77-.047 1.078-.076.134-.012.117-.063.265-.076.175-.015.429-.014.614-.023.499-.027 1.037-.04 1.547-.06.028.109 5.198.02 6.023.043.17.004.6.02.613.02.156.005.945.01 1.274.022.306.01 1.928.044 1.92.085l4.179-.042c-.018.1 4.42.021 5.16.042.038.001-.05.04.037.043.15.004.314-.005.463 0 .595.02 1.344 0 1.955 0 .468 0 .934 0 1.402.002 4.184.012 8.426-.009 12.6.04 1.439.017 2.86.08 4.302.083 2.175.004 4.367-.025 6.54-.037 3.917-.023 7.83-.06 11.744-.083 2.166-.013 4.377.04 6.538.066 1.785.022 3.843.07 5.54-.029.033.093 3.224.041 3.951.045 1.796.008 3.593.027 5.388.04.008-.117 1.198.03 1.229-.085.552.032 2.977.107 2.95 0 3.027.044 5.913.017 8.954-.01 3.004-.025 5.905-.02 8.916-.002 5.943.036 11.204-.038 17.043.002a352.87 352.87 0 0 0 9.325-.075c.012.081.825.043 1.229.043.335 0 .714-.008 1.046 0 .294.007.067.037.264.042.935.025 2.031.01 2.986.022 1.876.026 3.748.067 5.63.058 5.668-.025 11.337-.06 17.005-.077 2.162-.007 4.334.024 6.493.04.05-.084 2.976-.09 3.441-.106.429-.016 2.945.037 2.95-.022l2.703.043c-.026-.085 1.263-.048 1.65-.049l4.316-.016c1.95-.008 4.084-.063 6.004.005 1.12.04 2.271.022 3.355.06.627.022 1.419.072 2.37.042.031 0-.045-.037.122-.042.255-.008.573 0 .834 0 .33 0 .736.01 1.063 0 .203-.006.175-.042.193-.043 1.018-.032 2.142.034 3.16 0 .124-.004-.055-.037.137-.042.258-.008.704-.006.881-.011-.127.004.454-.029.492-.032.117-.009.315.004.44 0 .122-.003-.011-.04.051-.042.48-.015 2.697-.016 2.704-.086 1.36.014 2.804.056 4.163.043 1.303-.013 2.661-.086 3.947-.128.054.11 3.022.02 3.687.043-.032-.001.093.038.273.046.348.014.757.008 1.115.012l2.298.027c.037-.14 2.175.011 2.212-.128 1.153.023 2.227.043 3.381.034 1.488-.01 3.218.02 4.675-.033.14-.005-.021-.04.089-.043.252-.01.562 0 .816 0 .746 0 1.732.03 2.459 0 .18-.008.495-.06.92-.08.535-.025 1.515-.038 1.939-.098.525-.074.698-.253 1.113-.347.313-.07.656-.102.829-.177.071-.031.46-.17.656-.193.3-.034.008-.014.354-.035.303-.018.95.022 1.264.029.572.013 1.552.072 2.117.049.237-.01.484-.054.693-.076.093-.01.02-.022.077-.03.021-.003.347-.018.364-.021.12-.018.28-.073.43-.088.216-.022.539-.02.697-.05.207-.04.589-.259.66-.288.18-.074.414-.161.552-.212.065-.023-.056-.061 0-.085.012-.005.235.004.246 0 .042-.019-.04-.045 0-.064.08-.037.183-.003.246-.022.063-.018-.05-.054 0-.074.053-.02.21.002.246-.01.063-.023.109-.08.123-.086.154-.067.183-.142.368-.213.078-.03.193.015.27-.04.076-.054.069-.117.101-.172l.378-.642 2.068-3.517c.052-.088-.066-.344 1.013-.225.77.086.505.507.618.656.402.525 1.382.987 1.942 1.472.44-.381.616-.766 1.156-1.14.244-.17.515-.336.649-.508.104-.135.194-.27.291-.404.091-.126.18-.117.485-.203.016-.005.36-.084.369-.085-.048.009.48-.098.427-.08.105-.036.127-.1.254-.137.15-.043.385-.043.547-.081.062-.015.075-.08.128-.096.052-.017.302-.016.364-.032.068-.017-.099-.043 0-.063.24-.049.374-.056.519-.117.465-.197.273-.52.384-.73.103-.198.065-.418.32-.611.03-.022.241-.003.252-.01.047-.037-.02-.079 0-.116.034-.064-.076-.135 0-.198a.63.63 0 0 1 .184-.07c.069-.074.061-.198.061-.29 0-.114.185-.108.246-.169.11-.11-.095-.23 0-.34.022-.026.225.006.246-.018.043-.05 0-.106 0-.157 0-.214.22-.316.246-.555.016-.156.128-.311.219-.467.144-.25.056-.547.454-.787.08-.049-.027-.088.166-.11a3.99 3.99 0 0 1 .903.027c.316.068.25.314.316.398l2.365 2.979 2.95-.128 1.383 1.176.955.811c.09.077.104.254.401.314.322.065 1.264.11 1.705.148.264.023 1.096.052 1.236.074.211.032.2.118.366.158.106.026.393.055.462.074.215.06.393.123.619.182.231.06.367.165.637.235.456.118.327.106 1.157.063.378-.02 1.365-.037 1.647-.086.33-.057.343-.149.491-.202.075-.026.136-.023.246-.074.082-.037.12-.028.246-.085.074-.033.139-.02.246-.064.053-.021-.039-.053 0-.075.043-.026.197.007.245-.01.092-.034.147-.073.185-.086.057-.019.168-.065.256-.092.362-.111.536-.255.788-.376l3.195.256.622-.79a.524.524 0 0 0 .116-.22c.012-.063-.056-.131 0-.193.046-.052.242-.076.245-.079.089-.088.045-.234.123-.293.026-.02.186-.097.217-.147l.573-.892c.284-.442.557-.872 1.081-1.308.273-.226.666-.455.71-.686.042-.22.266-.357.491-.532.2-.155.098-.185.246-.335a.932.932 0 0 0 .246-.341c.107-.246.49-.495.737-.738l2.95.17c.008-.135.264-.287.48-.416.014-.009.15-.02.134-.01-.052.033.197-.087.123-.06.073-.027-.03-.078 0-.11 0 .001.207-.01.245-.055.13-.15.069-.177.246-.327a.972.972 0 0 0 .29-.07c.127-.099.054-.206.196-.304.03-.022.24 0 .252-.01.03-.025-.06-.061 0-.085.059-.023-.025-.06 0-.085.008-.009.216.014.245-.015.168-.167.091-.205.246-.368.01-.01.219.015.246-.015.04-.047-.039-.096 0-.142.051-.061.226-.042.246-.064.116-.128.015-.32.122-.417.108-.096-.01-.29.123-.417.026-.025.202.007.246-.032.104-.094 0-.21 0-.305 0-.216.314-.41.492-.586.309-.307-.03-.514.245-.822.007-.007.196-.027.246-.075.085-.08-.047-.167 0-.248.075-.13.246-.16.246-.324 0-.18.246-.204.246-.367 0-.095-.114-.213 0-.306.018-.015.207-.003.262-.041.281-.191.211-.42.31-.616.045-.09-.194-.375.657-.33"/><path clip-rule="evenodd" fill="none" stroke="#94A6B0" stroke-width="1.5" stroke-linecap="round" stroke-linejoin="round" stroke-miterlimit="10" d="M2.25 257.92c2.254.441 5.541.112 8.01.186 2.097.063 4.63.252 6.529.26 4.933.02 9.972.248 14.664.393 6.039.185 11.928.266 18.3 0 5.395-.226 11.201-.042 16.414-.373 2.05-.13 3.604-.336 5.223-.56 2.215-.305 5.13-.49 7.959-.931.459.157 1.679.278 2.238.373.824.139 1.576.313 2.487.466 1.318.221 1.865.351 3.39.314 1.77-.043 4.117-.198 5.476-.128 2.49.128 4.234.415 6.367.745 2 .31 5.357.9 8.394.466.895.252 2.405.37 3.233.56 1.057.24 1.706.35 2.736.605 1.144.284 1.89.643 3.29.71 2.656.127 5.31.111 7.901-.104.182.124 4.97.255 5.472.28 1.417.067 4.043-.045 5.223.279.626-.351 3.307-.265 4.36-.373.964-.099 2.375-.147 3.525-.28.995-.114 1.704-.308 3.058-.396a63.425 63.425 0 0 1 5.347-.07c3.004.106 6.49.154 10.132.187 3.043.027 6.236.19 8.692.175 4.12-.024 8.184-.149 12.303-.009 3.514.12 6.865-.077 9.785-.073 4.044.006 6.884-.134 10.694-.186 3.078-.043 7.325.074 10.569.129 2.5.042 4.133.16 6.591.104 1.24-.029 2.41.056 3.639.043.086-.001 1.526-.182 1.584-.183 2.12-.041 4.59-.02 6.715 0 .794.008 4.276-.015 4.974.186.535-.238 4.721-.446 5.592-.463 3.424-.07 6.888.235 10.317.155a403.28 403.28 0 0 0 5.355-.158c1.138-.042 2.272-.09 3.094-.093 3.774-.014 6.74.03 10.46-.28.393.16 2.13.02 2.736.047.537.024 1.605.202 2.12.233 1.939.118 3.01.319 5.433.22 2.257-.094 4.488-.29 6.993-.487 1.605-.127 6.536-.39 7.34-.012 1.731-.382 5.176-.187 7.213-.187 2.103 0 3.59-.118 4.919-.7.731-.32 1.48-1.054 2.666-1.163 1.121-.104 2.584.227 3.716.25.438.01 1.348-.094 1.88-.11.679-.022 1.44-.138 2.105-.173 1.47-.078 2.795.162 4.222.118.827-.026 1.973-.287 2.75-.458.701-.154 1.475-.482 2.654-.446 1.091.033 1.844.54 2.652.632 1.904.22 5.482-.14 6.943-.279.77-.073 1.742-.12 2.77-.22 1.08-.106 1.366-.263 2.267-.432.496-.093 1.17-.318 1.63-.369.878-.098 2.6.057 3.22-.004 1.129-.111 1.805-.33 3.134-.39 2.227-.1 4.263-.038 6.019.118 1.234.11 2.098.315 3.213.134.443-.072 1.014-.286 1.436-.375.735-.153 1.643-.239 2.363-.419 1.255-.313 1.953-.897 2.86-1.304.716-.322.357-.315 1.757-.452 1.179-.115 2.833-.044 3.89-.256 1.384-.277 1.921-1.46 2.312-1.901.384-.435.962-.847 1.368-1.444 1.012-1.492 1.344-2.646 2.362-4.426 1.891.25 3.865.427 5.736.672 1.624.212 1.828.571 3.218 1.005l1.468-2.97c.18-.364.41-2.43 2.046-2.014.657.168 1.102 1.735 1.211 1.912.36.588.727.972.995 1.674.995-.298 1.3-1.357 1.699-1.871.16-.206.322-.849.772-.996.338-.111 1.627-.103 2.005-.16.928-.142.572-.005 1.087-.271.514-.265.45-1.095.588-1.433.277-.673.291-1.355.555-2.026.129-.326.43-1.02.624-1.498.19-.471.266-1.937 1.623-1.761.743.096 2.05 1.792 2.487 2.283l3.233-.653c.51.572 1.166 1.373 1.493 1.84.302.433.942.763.994 1.328h.25c.19-.22 2.252-1.072 2.9-1.089.735-.02 1.746.618 2.57.717.262-.285 1.308-.415 2.045-.609.406-.107.38-.174.93-.299.438-.1 1.189-.168 1.75-.304.778-.188 1.468-.576 2.333-.883.611-.217.717-.337 1.443-.44.623-.088 1.702-.054 2.194-.12.515-.07 2.96-.462 3.233-.607.451-.238.439-.81.622-1.024.453-.53.89-1.115 1.424-1.733 1.225-1.418 1.418-3.495 1.685-4.993.313-1.76.784-3.418 1.277-5.093.175-.595.034-1.205.279-1.796.314-.76 1.04-1.495 1.388-2.253.25-.544.942-3.223 2.278-3.14"/><path clip-rule="evenodd" fill="none" stroke="#2DB7BC" stroke-width="1.5" stroke-linecap="round" stroke-linejoin="round" stroke-miterlimit="10" d="M2.251 253.526c2.286 0 3.966-.232 5.46-.74 1.469-.5 1.806-1.286 4.26-1.2 1.218.043 2.637.302 3.618.409 1.194.13 3.39.06 4.528.306 1.608.348 1.827.66 3.97.715 1.827.046 3.843.16 5.46-.026 1.396-.16 3.682-.223 5.706-.076.618.045.786.167 1.82.164 1.7-.005 1.823-.188 2.895-.675 1.158-.525 3.516-1.472 5.661-1.195 1.54.2 1.304.645 3.024.685 1.468.034 3.056-.368 4.467-.102.493-.282 2.196-.419 3.134-.803.846-.347 1.292-1.037 2.325-1.341 3.107-.917 6.096-.226 9.481-.378 1.644-.074 3.735-.14 5.213-.426 1.917-.37 2.612-1.277 4.583-.545 2.19.813 3.883 1.398 5.87 2.24 1.331.563 2.324 1.088 4.063.636.653-.17 1.477-.71 2.055-.813.776-.138 2.059.171 2.482-.102 1.694.175 2.856.358 3.97.613.879.2 1.908.587 2.853.714 2.877.388 7.016-.432 9.95.39l3.425.957c.677.19 1.022.455 1.39.593 2.259.854 2.07.02 4.383-.087.977-.044 1.958.284 2.987.19.984-.09 1.624-.484 2.528-.681 1.642-.359 3.324-.158 5.238-.136 1.57.018 4.35.203 5.707-.026.921-.155 1.74-.628 2.794-.933.801-.231.682-.27 1.797-.232 1.383.047 1.459.213 2.605-.086.824-.214 1.174-.602 1.921-.836.633-.197 1.833-.254 2.55-.523 1.243-.465 1.281-1.11 1.981-1.652.764-.593 1.766-1.341 2.253-1.886.462-.518.41-.986 1.249-1.488 1.12-.67 1.935.165 2.734.67 1.006.636.67.794 2.697.968a26.44 26.44 0 0 1 3.713.586c2.137.478 3.7 1.065 6.084 1.443.867.137 3.841.595 5.043.418 1.125-.166 1.574-.784 2.592-.967 1.195-.214 2.958.186 4.125.256 2.355.14 2.276-.015 4.001.51 1.35.411 1.688.408 3.778.408 1.494 0 2.784-.027 3.915 0 1.763.043 3.688-.049 5.432-.16.968-.063 2.028-.247 3.004-.248 1.055 0 2.146.238 3.196.282 1.664.069 3.427-.163 5.076-.066.9.052 1.626.262 2.523.26 1.006-.001 2.06-.157 3.101-.17 1.759-.021 2.79.088 3.97.409.352.095.67.347 1.053.41.948.156 2.292.011 3.295.097.36.03 1.208.277 1.957.257 1.043-.028 1.171-.234 2.132-.458 1.146-.267 3.022-.068 4.219-.179.695-.064 1.578-.354 2.146-.434 1.105-.155 2.66-.129 4.08-.153 4.222-.072 8.715-.322 12.945-.232 1.477.031 2.099.167 3.657.487.399-.314 3.111-.464 4.136-.604.272-.038.495-.183.867-.212 1.41-.111 3.139 0 4.575 0 3.355 0 5.391-.73 8.04-1.43 1.404-.37 2.554-.582 4.746-.424 1.483.107 4.057.619 5.552.22 1.23-.328 1.615-1.197 3.147-1.43.761-.115 1.866-.045 2.445-.128a9.418 9.418 0 0 0 1.728-.382c.563-.173.979-.252 1.49-.46.472-.191 1.182-.76 1.68-.92 1.275-.41 2.95-.037 3.778.257 1.143-.2 1.961-.074 2.978-.204.604-.077 1.283-.225 2.39-.3.547-.038 1.962-.199 2.866-.24 1.124-.053 2.64.111 3.429.055 1.993-.142 3.577-.924 5.428-1.18 1.676-.233 2.058.005 3-.575.736-.451 1.004-.746 1.49-1.225.854-.843 1.075-.49 3.026-.307 1.033.097 2.668.256 3.681.096.977-.153 1.593-.668 2.357-.816.719-.14 2.801-.184 3.64.08 1.527.481 1.436 2.623 3.101 2.858 1.288.181 2.65-.588 3.247-.901 1.346-.705 1.248-.74 3.33-.812.748-.026 1.79-.066 2.678 0 1.43.107 3.187.403 4.623.378.687-.012 2.024-.489 2.913-.45 1.042.045 1.838.83 2.895.99.263-.251 1.84-.759 2.482-.918a36.632 36.632 0 0 1 3.473-.715c.441.544 1.263 1.123 1.986 1.43.63.266-.048.383 1.099.27.674-.065 1.987-.626 2.375-.832.689-.366 1.886-1.54 2.233-1.99.71-.921 1.728-1.938 2.233-2.656.616-.874 1.16-2.338 1.8-3.369.338-.547.55-1.032.775-1.712.116-.349.298-1.125.973-1.249 1.056-.194 2.454.492 3.152.715.386-.43 1.966-.935 2.605-1.327.608-.373.725-.589 1.117-.92 1-.842 1.718-1.336 2.481-2.169 1.194-1.303 2.429-2.36 3.598-3.65 1.183-1.304 2.687-2.677 3.784-3.88.947-1.036 1.53-2.62 2.325-3.864.566-.884 1.412-.987 1.596-.002.113.604.495 1.53.608 1.964.354 1.36.557 2.522.806 3.842.227 1.2.931 2.412.931 3.676 1.2-.227 1.503-3.593 3.342-2.667.79.397.8 1.584 1.047 2.067.334.652.861 1.288 1.318 1.927h.248c.248-.454 1.726-1.11 2.564-1.278.963-.193 4.85-.632 5.64-.537 1.097.133 1.384 1.244 1.722 1.713.393.546.783 1.179 1.24 1.838l2.978-.919c.89.7 2.337 2.753 4.715 2.042 1.415-.424 1.907-1.576 2.357-1.94.788-.637 1.057-1.087 1.714-1.93.416-.534.9-1.677 1.824-2.085.728-.321 2.711-.432 3.782-.58 1.003.25 1.615.61 3.06.756 2.624.265 2.14-.641 2.648-1.47.513-.837 1.7-1.966 2-2.81.659-1.86.991-3.75 1.486-5.618l.9-3.398c.1-.381-.228-1.356 1.073-1.243"/><path clip-rule="evenodd" fill="none" stroke="#F59900" stroke-linecap="round" stroke-linejoin="round" stroke-miterlimit="10" d="M2.25 179.11c.463-2.95.883-12.452 1.279-16.743"/></svg>