<svg xmlns="http://www.w3.org/2000/svg" viewBox="0 0 56 64"><linearGradient id="id-555a" gradientUnits="userSpaceOnUse" x1="33.386" y1="33.105" x2="44" y2="33.105"><stop offset="0" stop-color="#f59900"/><stop offset="1" stop-color="#ca8608"/></linearGradient><path fill="none" stroke="url(#id-555a)" stroke-width="2" stroke-linejoin="round" stroke-miterlimit="10" d="M34 13s9 7 9 13v9l-2 11v8"/><linearGradient id="id-556b" gradientUnits="userSpaceOnUse" x1="10" y1="18" x2="35" y2="18"><stop offset="0" stop-color="#f59900"/><stop offset="1" stop-color="#ca8608"/></linearGradient><path fill="none" stroke="url(#id-556b)" stroke-width="2" stroke-linejoin="round" stroke-miterlimit="10" d="M29 35H12a1 1 0 0 1-1-1V2a1 1 0 0 1 1-1h21a1 1 0 0 1 1 1v25"/><linearGradient id="id-557c" gradientUnits="userSpaceOnUse" x1="19" y1="46" x2="25" y2="46"><stop offset="0" stop-color="#f59900"/><stop offset="1" stop-color="#ca8608"/></linearGradient><path fill="none" stroke="url(#id-557c)" stroke-width="2" stroke-linejoin="round" stroke-miterlimit="10" d="M20 38c0 5 4 10 4 10v6"/><linearGradient id="id-558d" gradientUnits="userSpaceOnUse" x1="20.111" y1="31.556" x2="36.707" y2="31.556"><stop offset="0" stop-color="#f59900"/><stop offset="1" stop-color="#ca8608"/></linearGradient><path fill="none" stroke="url(#id-558d)" stroke-width="2" stroke-linejoin="round" stroke-miterlimit="10" d="M36 29l-9-9s-3-2-5 0 0 5 0 5l7 7c0 3.313 2.686 12 6 12"/><linearGradient id="id-559e" gradientUnits="userSpaceOnUse" x1="16" y1="18" x2="18" y2="18"><stop offset="0" stop-color="#f59900"/><stop offset="1" stop-color="#ca8608"/></linearGradient><path fill="none" stroke="url(#id-559e)" stroke-width="2" stroke-linejoin="round" stroke-miterlimit="10" d="M17 1v34"/><linearGradient id="id-560f" gradientUnits="userSpaceOnUse" x1="20" y1="10" x2="22" y2="10"><stop offset="0" stop-color="#f59900"/><stop offset="1" stop-color="#ca8608"/></linearGradient><path fill="none" stroke="url(#id-560f)" stroke-width="2" stroke-linejoin="round" stroke-miterlimit="10" d="M21 4v12"/><linearGradient id="id-561g" gradientUnits="userSpaceOnUse" x1="21" y1="58" x2="44" y2="58"><stop offset="0" stop-color="#f59900"/><stop offset="1" stop-color="#ca8608"/></linearGradient><path fill="none" stroke="url(#id-561g)" stroke-width="2" stroke-linejoin="round" stroke-miterlimit="10" d="M22 64V53h21v11"/><linearGradient id="id-562h" gradientUnits="userSpaceOnUse" x1="25" y1="57" x2="27" y2="57"><stop offset="0" stop-color="#f59900"/><stop offset="1" stop-color="#ca8608"/></linearGradient><path fill="none" stroke="url(#id-562h)" stroke-width="2" stroke-linejoin="round" stroke-miterlimit="10" d="M25 57h2"/><linearGradient id="id-563i" gradientUnits="userSpaceOnUse" x1="25" y1="61" x2="27" y2="61"><stop offset="0" stop-color="#f59900"/><stop offset="1" stop-color="#ca8608"/></linearGradient><path fill="none" stroke="url(#id-563i)" stroke-width="2" stroke-linejoin="round" stroke-miterlimit="10" d="M25 61h2"/><linearGradient id="id-564j" gradientUnits="userSpaceOnUse" x1="24" y1="6" x2="26" y2="6"><stop offset="0" stop-color="#f59900"/><stop offset="1" stop-color="#ca8608"/></linearGradient><path fill="none" stroke="url(#id-564j)" stroke-width="2" stroke-linejoin="round" stroke-miterlimit="10" d="M25 4v4"/><linearGradient id="id-565k" gradientUnits="userSpaceOnUse" x1="24" y1="11" x2="26" y2="11"><stop offset="0" stop-color="#f59900"/><stop offset="1" stop-color="#ca8608"/></linearGradient><path fill="none" stroke="url(#id-565k)" stroke-width="2" stroke-linejoin="round" stroke-miterlimit="10" d="M25 10v2"/><linearGradient id="id-566l" gradientUnits="userSpaceOnUse" y1="32" x2="19" y2="32"><stop offset="0" stop-color="#f59900"/><stop offset="1" stop-color="#ca8608"/></linearGradient><path fill="none" stroke="url(#id-566l)" stroke-width="2" stroke-linejoin="round" stroke-miterlimit="10" d="M19 59H4a3 3 0 0 1-3-3V8a3 3 0 0 1 3-3h4"/><linearGradient id="id-567m" gradientUnits="userSpaceOnUse" x1="37" y1="32" x2="56" y2="32"><stop offset="0" stop-color="#f59900"/><stop offset="1" stop-color="#ca8608"/></linearGradient><path fill="none" stroke="url(#id-567m)" stroke-width="2" stroke-linejoin="round" stroke-miterlimit="10" d="M37 5h15a3 3 0 0 1 3 3v48a3 3 0 0 1-3 3h-6"/><linearGradient id="id-568n" gradientUnits="userSpaceOnUse" x1="37" y1="9" x2="55" y2="9"><stop offset="0" stop-color="#f59900"/><stop offset="1" stop-color="#ca8608"/></linearGradient><path fill="none" stroke="url(#id-568n)" stroke-width="2" stroke-linejoin="round" stroke-miterlimit="10" d="M55 9H37"/><linearGradient id="id-569o" gradientUnits="userSpaceOnUse" x1="1" y1="55" x2="19" y2="55"><stop offset="0" stop-color="#f59900"/><stop offset="1" stop-color="#ca8608"/></linearGradient><path fill="none" stroke="url(#id-569o)" stroke-width="2" stroke-linejoin="round" stroke-miterlimit="10" d="M1 55h18"/></svg>