<svg xmlns="http://www.w3.org/2000/svg" viewBox="0 0 64 48"><linearGradient id="id-790a" gradientUnits="userSpaceOnUse" x1="52" y1="4" x2="60" y2="4"><stop offset="0" stop-color="#f59900"/><stop offset="1" stop-color="#ca8608"/></linearGradient><path fill="none" stroke="url(#id-790a)" stroke-width="2" stroke-miterlimit="10" d="M59 8V1h-7"/><linearGradient id="id-791b" gradientUnits="userSpaceOnUse" x1="28.532" y1="9.62" x2="59.707" y2="9.62"><stop offset="0" stop-color="#f59900"/><stop offset="1" stop-color="#ca8608"/></linearGradient><path fill="none" stroke="url(#id-791b)" stroke-width="2" stroke-miterlimit="10" d="M59 1L42.565 17.435l-6.26-6.261-7.066 7.065"/><linearGradient id="id-792c" gradientUnits="userSpaceOnUse" y1="44" x2="64" y2="44"><stop offset="0" stop-color="#f59900"/><stop offset="1" stop-color="#ca8608"/></linearGradient><path fill="none" stroke="url(#id-792c)" stroke-width="2" stroke-miterlimit="10" d="M59 47H5l-4-4v-2h24l2 2h10l2-2h24v2z"/><linearGradient id="id-793d" gradientUnits="userSpaceOnUse" x1="4" y1="19" x2="48" y2="19"><stop offset="0" stop-color="#f59900"/><stop offset="1" stop-color="#ca8608"/></linearGradient><path fill="none" stroke="url(#id-793d)" stroke-width="2" stroke-miterlimit="10" d="M48 1H8a3 3 0 0 0-3 3v34"/><linearGradient id="id-794e" gradientUnits="userSpaceOnUse" x1="58" y1="25" x2="60" y2="25"><stop offset="0" stop-color="#f59900"/><stop offset="1" stop-color="#ca8608"/></linearGradient><path fill="none" stroke="url(#id-794e)" stroke-width="2" stroke-miterlimit="10" d="M59 38V12"/><linearGradient id="id-795f" gradientUnits="userSpaceOnUse" x1="8" y1="20" x2="56" y2="20"><stop offset="0" stop-color="#f59900"/><stop offset="1" stop-color="#ca8608"/></linearGradient><path fill="none" stroke="url(#id-795f)" stroke-width="2" stroke-miterlimit="10" d="M48 5H9v30h46V12"/><linearGradient id="id-796g" gradientUnits="userSpaceOnUse" x1="19" y1="31" x2="21" y2="31"><stop offset="0" stop-color="#f59900"/><stop offset="1" stop-color="#ca8608"/></linearGradient><path fill="none" stroke="url(#id-796g)" stroke-width="2" stroke-miterlimit="10" d="M20 32v-2"/><linearGradient id="id-797h" gradientUnits="userSpaceOnUse" x1="31" y1="26" x2="33" y2="26"><stop offset="0" stop-color="#f59900"/><stop offset="1" stop-color="#ca8608"/></linearGradient><path fill="none" stroke="url(#id-797h)" stroke-width="2" stroke-miterlimit="10" d="M32 32V20"/><linearGradient id="id-798i" gradientUnits="userSpaceOnUse" x1="35" y1="24" x2="37" y2="24"><stop offset="0" stop-color="#f59900"/><stop offset="1" stop-color="#ca8608"/></linearGradient><path fill="none" stroke="url(#id-798i)" stroke-width="2" stroke-miterlimit="10" d="M36 32V16"/><linearGradient id="id-799j" gradientUnits="userSpaceOnUse" x1="39" y1="26.5" x2="41" y2="26.5"><stop offset="0" stop-color="#f59900"/><stop offset="1" stop-color="#ca8608"/></linearGradient><path fill="none" stroke="url(#id-799j)" stroke-width="2" stroke-miterlimit="10" d="M40 32V21"/><linearGradient id="id-800k" gradientUnits="userSpaceOnUse" x1="43" y1="27" x2="45" y2="27"><stop offset="0" stop-color="#f59900"/><stop offset="1" stop-color="#ca8608"/></linearGradient><path fill="none" stroke="url(#id-800k)" stroke-width="2" stroke-miterlimit="10" d="M44 32V22"/><linearGradient id="id-801l" gradientUnits="userSpaceOnUse" x1="47" y1="24.5" x2="49" y2="24.5"><stop offset="0" stop-color="#f59900"/><stop offset="1" stop-color="#ca8608"/></linearGradient><path fill="none" stroke="url(#id-801l)" stroke-width="2" stroke-miterlimit="10" d="M48 32V17"/><linearGradient id="id-802m" gradientUnits="userSpaceOnUse" x1="17.5" y1="21.2" x2="26.5" y2="21.2"><stop offset="0" stop-color="#f59900"/><stop offset="1" stop-color="#ca8608"/></linearGradient><path fill="none" stroke="url(#id-802m)" stroke-width="2" stroke-miterlimit="10" d="M25.5 20.85c0 2.45-1.374 4.55-3.5 4.55s-3.5-2.1-3.5-4.55S19.2 17 22 17s3.5 1.4 3.5 3.85z"/><linearGradient id="id-803n" gradientUnits="userSpaceOnUse" x1="14" y1="27.916" x2="30" y2="27.916"><stop offset="0" stop-color="#f59900"/><stop offset="1" stop-color="#ca8608"/></linearGradient><path fill="none" stroke="url(#id-803n)" stroke-width="2" stroke-miterlimit="10" d="M24.1 24.7l4.9 2.8v1.4c0 1.16-.7 2.1-1.4 2.1H16.4c-.7 0-1.4-.94-1.4-2.1v-1.4l4.9-2.8"/></svg>