<svg xmlns="http://www.w3.org/2000/svg" viewBox="0 0 56 64"><linearGradient id="id-63a" gradientUnits="userSpaceOnUse" x1="33.386" y1="33.105" x2="44" y2="33.105"><stop offset="0" stop-color="#f59900"/><stop offset="1" stop-color="#ca8608"/></linearGradient><path fill="none" stroke="url(#id-63a)" stroke-width="2" stroke-linejoin="round" stroke-miterlimit="10" d="M34 13s9 7 9 13v9l-2 11v8"/><linearGradient id="id-64b" gradientUnits="userSpaceOnUse" x1="10" y1="18" x2="35" y2="18"><stop offset="0" stop-color="#f59900"/><stop offset="1" stop-color="#ca8608"/></linearGradient><path fill="none" stroke="url(#id-64b)" stroke-width="2" stroke-linejoin="round" stroke-miterlimit="10" d="M29 35H12a1 1 0 0 1-1-1V2a1 1 0 0 1 1-1h21a1 1 0 0 1 1 1v25"/><linearGradient id="id-65c" gradientUnits="userSpaceOnUse" x1="19" y1="46" x2="25" y2="46"><stop offset="0" stop-color="#f59900"/><stop offset="1" stop-color="#ca8608"/></linearGradient><path fill="none" stroke="url(#id-65c)" stroke-width="2" stroke-linejoin="round" stroke-miterlimit="10" d="M20 38c0 5 4 10 4 10v6"/><linearGradient id="id-66d" gradientUnits="userSpaceOnUse" x1="20.111" y1="31.556" x2="36.707" y2="31.556"><stop offset="0" stop-color="#f59900"/><stop offset="1" stop-color="#ca8608"/></linearGradient><path fill="none" stroke="url(#id-66d)" stroke-width="2" stroke-linejoin="round" stroke-miterlimit="10" d="M36 29l-9-9s-3-2-5 0 0 5 0 5l7 7c0 3.313 2.686 12 6 12"/><linearGradient id="id-67e" gradientUnits="userSpaceOnUse" x1="16" y1="18" x2="18" y2="18"><stop offset="0" stop-color="#f59900"/><stop offset="1" stop-color="#ca8608"/></linearGradient><path fill="none" stroke="url(#id-67e)" stroke-width="2" stroke-linejoin="round" stroke-miterlimit="10" d="M17 1v34"/><linearGradient id="id-68f" gradientUnits="userSpaceOnUse" x1="20" y1="10" x2="22" y2="10"><stop offset="0" stop-color="#f59900"/><stop offset="1" stop-color="#ca8608"/></linearGradient><path fill="none" stroke="url(#id-68f)" stroke-width="2" stroke-linejoin="round" stroke-miterlimit="10" d="M21 4v12"/><linearGradient id="id-69g" gradientUnits="userSpaceOnUse" x1="21" y1="58" x2="44" y2="58"><stop offset="0" stop-color="#f59900"/><stop offset="1" stop-color="#ca8608"/></linearGradient><path fill="none" stroke="url(#id-69g)" stroke-width="2" stroke-linejoin="round" stroke-miterlimit="10" d="M22 64V53h21v11"/><linearGradient id="id-70h" gradientUnits="userSpaceOnUse" x1="25" y1="57" x2="27" y2="57"><stop offset="0" stop-color="#f59900"/><stop offset="1" stop-color="#ca8608"/></linearGradient><path fill="none" stroke="url(#id-70h)" stroke-width="2" stroke-linejoin="round" stroke-miterlimit="10" d="M25 57h2"/><linearGradient id="id-71i" gradientUnits="userSpaceOnUse" x1="25" y1="61" x2="27" y2="61"><stop offset="0" stop-color="#f59900"/><stop offset="1" stop-color="#ca8608"/></linearGradient><path fill="none" stroke="url(#id-71i)" stroke-width="2" stroke-linejoin="round" stroke-miterlimit="10" d="M25 61h2"/><linearGradient id="id-72j" gradientUnits="userSpaceOnUse" x1="24" y1="6" x2="26" y2="6"><stop offset="0" stop-color="#f59900"/><stop offset="1" stop-color="#ca8608"/></linearGradient><path fill="none" stroke="url(#id-72j)" stroke-width="2" stroke-linejoin="round" stroke-miterlimit="10" d="M25 4v4"/><linearGradient id="id-73k" gradientUnits="userSpaceOnUse" x1="24" y1="11" x2="26" y2="11"><stop offset="0" stop-color="#f59900"/><stop offset="1" stop-color="#ca8608"/></linearGradient><path fill="none" stroke="url(#id-73k)" stroke-width="2" stroke-linejoin="round" stroke-miterlimit="10" d="M25 10v2"/><linearGradient id="id-74l" gradientUnits="userSpaceOnUse" y1="32" x2="19" y2="32"><stop offset="0" stop-color="#f59900"/><stop offset="1" stop-color="#ca8608"/></linearGradient><path fill="none" stroke="url(#id-74l)" stroke-width="2" stroke-linejoin="round" stroke-miterlimit="10" d="M19 59H4a3 3 0 0 1-3-3V8a3 3 0 0 1 3-3h4"/><linearGradient id="id-75m" gradientUnits="userSpaceOnUse" x1="37" y1="32" x2="56" y2="32"><stop offset="0" stop-color="#f59900"/><stop offset="1" stop-color="#ca8608"/></linearGradient><path fill="none" stroke="url(#id-75m)" stroke-width="2" stroke-linejoin="round" stroke-miterlimit="10" d="M37 5h15a3 3 0 0 1 3 3v48a3 3 0 0 1-3 3h-6"/><linearGradient id="id-76n" gradientUnits="userSpaceOnUse" x1="37" y1="9" x2="55" y2="9"><stop offset="0" stop-color="#f59900"/><stop offset="1" stop-color="#ca8608"/></linearGradient><path fill="none" stroke="url(#id-76n)" stroke-width="2" stroke-linejoin="round" stroke-miterlimit="10" d="M55 9H37"/><linearGradient id="id-77o" gradientUnits="userSpaceOnUse" x1="1" y1="55" x2="19" y2="55"><stop offset="0" stop-color="#f59900"/><stop offset="1" stop-color="#ca8608"/></linearGradient><path fill="none" stroke="url(#id-77o)" stroke-width="2" stroke-linejoin="round" stroke-miterlimit="10" d="M1 55h18"/></svg>