<svg xmlns="http://www.w3.org/2000/svg" viewBox="0 0 64 64"><linearGradient id="id-873a" gradientUnits="userSpaceOnUse" y1="22" x2="44" y2="22"><stop offset="0" stop-color="#f59900"/><stop offset="1" stop-color="#ca8608"/></linearGradient><path fill="none" stroke="url(#id-873a)" stroke-width="2" stroke-miterlimit="10" d="M22 43C10.402 43 1 33.598 1 22S10.402 1 22 1s21 9.402 21 21"/><linearGradient id="id-874b" gradientUnits="userSpaceOnUse" x1="20" y1="42" x2="64" y2="42"><stop offset="0" stop-color="#f59900"/><stop offset="1" stop-color="#ca8608"/></linearGradient><circle fill="none" stroke="url(#id-874b)" stroke-width="2" stroke-miterlimit="10" cx="42" cy="42" r="21"/><linearGradient id="id-875c" gradientUnits="userSpaceOnUse" x1="24" y1="42" x2="60" y2="42"><stop offset="0" stop-color="#f59900"/><stop offset="1" stop-color="#ca8608"/></linearGradient><circle fill="none" stroke="url(#id-875c)" stroke-width="2" stroke-miterlimit="10" cx="42" cy="42" r="17"/><linearGradient id="id-876d" gradientUnits="userSpaceOnUse" x1="44" y1="13" x2="58" y2="13"><stop offset="0" stop-color="#f59900"/><stop offset="1" stop-color="#ca8608"/></linearGradient><path fill="none" stroke="url(#id-876d)" stroke-width="2" stroke-miterlimit="10" d="M44 7h9a4 4 0 0 1 4 4v9"/><linearGradient id="id-877e" gradientUnits="userSpaceOnUse" x1="6" y1="51" x2="20" y2="51"><stop offset="0" stop-color="#f59900"/><stop offset="1" stop-color="#ca8608"/></linearGradient><path fill="none" stroke="url(#id-877e)" stroke-width="2" stroke-miterlimit="10" d="M20 57h-9a4 4 0 0 1-4-4v-9"/><linearGradient id="id-878f" gradientUnits="userSpaceOnUse" x1="4" y1="22" x2="40" y2="22"><stop offset="0" stop-color="#f59900"/><stop offset="1" stop-color="#ca8608"/></linearGradient><path fill="none" stroke="url(#id-878f)" stroke-width="2" stroke-miterlimit="10" d="M22 39c-9.389 0-17-7.611-17-17S12.611 5 22 5s17 7.611 17 17"/><linearGradient id="id-879g" gradientUnits="userSpaceOnUse" x1="12" y1="22" x2="30.96" y2="22"><stop offset="0" stop-color="#f59900"/><stop offset="1" stop-color="#ca8608"/></linearGradient><path fill="none" stroke="url(#id-879g)" stroke-width="2" stroke-miterlimit="10" d="M24 31h-2a9 9 0 1 1 8.064-13"/><linearGradient id="id-880h" gradientUnits="userSpaceOnUse" x1="32.946" y1="41.786" x2="49.304" y2="41.786"><stop offset="0" stop-color="#f59900"/><stop offset="1" stop-color="#ca8608"/></linearGradient><path fill="none" stroke="url(#id-880h)" stroke-width="2" stroke-miterlimit="10" d="M48.846 48.872l-1.778.915a9 9 0 0 1-12.122-3.881 9 9 0 0 1 13.34-11.368"/></svg>