<svg xmlns="http://www.w3.org/2000/svg" viewBox="0 0 64 64"><linearGradient id="id-997a" gradientUnits="userSpaceOnUse" x1="44" y1="13.724" x2="60.894" y2="13.724"><stop offset="0" stop-color="#f59900"/><stop offset="1" stop-color="#ca8608"/></linearGradient><path fill="none" stroke="url(#id-997a)" stroke-width="2" stroke-miterlimit="10" d="M44 7h9l7 14"/><linearGradient id="id-998b" gradientUnits="userSpaceOnUse" x1="3.106" y1="13.724" x2="20" y2="13.724"><stop offset="0" stop-color="#f59900"/><stop offset="1" stop-color="#ca8608"/></linearGradient><path fill="none" stroke="url(#id-998b)" stroke-width="2" stroke-miterlimit="10" d="M4 21l7-14h9"/><linearGradient id="id-999c" gradientUnits="userSpaceOnUse" x1="16" y1="8" x2="48" y2="8"><stop offset="0" stop-color="#f59900"/><stop offset="1" stop-color="#ca8608"/></linearGradient><path fill="none" stroke="url(#id-999c)" stroke-width="2" stroke-miterlimit="10" d="M17 16c0-8.284 6.716-15 15-15s15 6.716 15 15"/><linearGradient id="id-1000d" gradientUnits="userSpaceOnUse" y1="21" x2="64" y2="21"><stop offset="0" stop-color="#f59900"/><stop offset="1" stop-color="#ca8608"/></linearGradient><path fill="none" stroke="url(#id-1000d)" stroke-width="2" stroke-linejoin="round" stroke-miterlimit="10" d="M64 21H0"/><linearGradient id="id-1001e" gradientUnits="userSpaceOnUse" x1="7" y1="41.5" x2="9" y2="41.5"><stop offset="0" stop-color="#f59900"/><stop offset="1" stop-color="#ca8608"/></linearGradient><path fill="none" stroke="url(#id-1001e)" stroke-width="2" stroke-miterlimit="10" d="M8 51V32"/><linearGradient id="id-1002f" gradientUnits="userSpaceOnUse" x1="13" y1="41.5" x2="15" y2="41.5"><stop offset="0" stop-color="#f59900"/><stop offset="1" stop-color="#ca8608"/></linearGradient><path fill="none" stroke="url(#id-1002f)" stroke-width="2" stroke-miterlimit="10" d="M14 32v19"/><linearGradient id="id-1003g" gradientUnits="userSpaceOnUse" x1="5" y1="27" x2="17" y2="27"><stop offset="0" stop-color="#f59900"/><stop offset="1" stop-color="#ca8608"/></linearGradient><path fill="none" stroke="url(#id-1003g)" stroke-width="2" stroke-miterlimit="10" d="M6 25h10v4H6z"/><linearGradient id="id-1004h" gradientUnits="userSpaceOnUse" x1="5" y1="53" x2="17" y2="53"><stop offset="0" stop-color="#f59900"/><stop offset="1" stop-color="#ca8608"/></linearGradient><path fill="none" stroke="url(#id-1004h)" stroke-width="2" stroke-miterlimit="10" d="M6 51h10v4H6z"/><linearGradient id="id-1005i" gradientUnits="userSpaceOnUse" x1="21" y1="41.5" x2="23" y2="41.5"><stop offset="0" stop-color="#f59900"/><stop offset="1" stop-color="#ca8608"/></linearGradient><path fill="none" stroke="url(#id-1005i)" stroke-width="2" stroke-miterlimit="10" d="M22 51V32"/><linearGradient id="id-1006j" gradientUnits="userSpaceOnUse" x1="27" y1="41.5" x2="29" y2="41.5"><stop offset="0" stop-color="#f59900"/><stop offset="1" stop-color="#ca8608"/></linearGradient><path fill="none" stroke="url(#id-1006j)" stroke-width="2" stroke-miterlimit="10" d="M28 32v19"/><linearGradient id="id-1007k" gradientUnits="userSpaceOnUse" x1="19" y1="27" x2="31" y2="27"><stop offset="0" stop-color="#f59900"/><stop offset="1" stop-color="#ca8608"/></linearGradient><path fill="none" stroke="url(#id-1007k)" stroke-width="2" stroke-miterlimit="10" d="M20 25h10v4H20z"/><linearGradient id="id-1008l" gradientUnits="userSpaceOnUse" x1="19" y1="53" x2="31" y2="53"><stop offset="0" stop-color="#f59900"/><stop offset="1" stop-color="#ca8608"/></linearGradient><path fill="none" stroke="url(#id-1008l)" stroke-width="2" stroke-miterlimit="10" d="M20 51h10v4H20z"/><linearGradient id="id-1009m" gradientUnits="userSpaceOnUse" x1="35" y1="41.5" x2="37" y2="41.5"><stop offset="0" stop-color="#f59900"/><stop offset="1" stop-color="#ca8608"/></linearGradient><path fill="none" stroke="url(#id-1009m)" stroke-width="2" stroke-miterlimit="10" d="M36 51V32"/><linearGradient id="id-1010n" gradientUnits="userSpaceOnUse" x1="41" y1="41.5" x2="43" y2="41.5"><stop offset="0" stop-color="#f59900"/><stop offset="1" stop-color="#ca8608"/></linearGradient><path fill="none" stroke="url(#id-1010n)" stroke-width="2" stroke-miterlimit="10" d="M42 32v19"/><linearGradient id="id-1011o" gradientUnits="userSpaceOnUse" x1="33" y1="27" x2="45" y2="27"><stop offset="0" stop-color="#f59900"/><stop offset="1" stop-color="#ca8608"/></linearGradient><path fill="none" stroke="url(#id-1011o)" stroke-width="2" stroke-miterlimit="10" d="M34 25h10v4H34z"/><linearGradient id="id-1012p" gradientUnits="userSpaceOnUse" x1="33" y1="53" x2="45" y2="53"><stop offset="0" stop-color="#f59900"/><stop offset="1" stop-color="#ca8608"/></linearGradient><path fill="none" stroke="url(#id-1012p)" stroke-width="2" stroke-miterlimit="10" d="M34 51h10v4H34z"/><linearGradient id="id-1013q" gradientUnits="userSpaceOnUse" x1="49" y1="41.5" x2="51" y2="41.5"><stop offset="0" stop-color="#f59900"/><stop offset="1" stop-color="#ca8608"/></linearGradient><path fill="none" stroke="url(#id-1013q)" stroke-width="2" stroke-miterlimit="10" d="M50 51V32"/><linearGradient id="id-1014r" gradientUnits="userSpaceOnUse" x1="55" y1="41.5" x2="57" y2="41.5"><stop offset="0" stop-color="#f59900"/><stop offset="1" stop-color="#ca8608"/></linearGradient><path fill="none" stroke="url(#id-1014r)" stroke-width="2" stroke-miterlimit="10" d="M56 32v19"/><linearGradient id="id-1015s" gradientUnits="userSpaceOnUse" x1="47" y1="27" x2="59" y2="27"><stop offset="0" stop-color="#f59900"/><stop offset="1" stop-color="#ca8608"/></linearGradient><path fill="none" stroke="url(#id-1015s)" stroke-width="2" stroke-miterlimit="10" d="M48 25h10v4H48z"/><linearGradient id="id-1016t" gradientUnits="userSpaceOnUse" x1="47" y1="53" x2="59" y2="53"><stop offset="0" stop-color="#f59900"/><stop offset="1" stop-color="#ca8608"/></linearGradient><path fill="none" stroke="url(#id-1016t)" stroke-width="2" stroke-miterlimit="10" d="M48 51h10v4H48z"/><linearGradient id="id-1017u" gradientUnits="userSpaceOnUse" y1="25" x2="64" y2="25"><stop offset="0" stop-color="#f59900"/><stop offset="1" stop-color="#ca8608"/></linearGradient><path fill="none" stroke="url(#id-1017u)" stroke-width="2" stroke-miterlimit="10" d="M64 25H0"/><linearGradient id="id-1018v" gradientUnits="userSpaceOnUse" x1="3" y1="55" x2="61" y2="55"><stop offset="0" stop-color="#f59900"/><stop offset="1" stop-color="#ca8608"/></linearGradient><path fill="none" stroke="url(#id-1018v)" stroke-width="2" stroke-miterlimit="10" d="M3 55h58"/><linearGradient id="id-1019w" gradientUnits="userSpaceOnUse" x1="27" y1="11" x2="37" y2="11"><stop offset="0" stop-color="#f59900"/><stop offset="1" stop-color="#ca8608"/></linearGradient><circle fill="none" stroke="url(#id-1019w)" stroke-width="2" stroke-miterlimit="10" cx="32" cy="11" r="4"/><linearGradient id="id-1020x" gradientUnits="userSpaceOnUse" x1="39" y1="11" x2="41" y2="11"><stop offset="0" stop-color="#f59900"/><stop offset="1" stop-color="#ca8608"/></linearGradient><path fill="none" stroke="url(#id-1020x)" stroke-width="2" stroke-miterlimit="10" d="M39 11h2"/><linearGradient id="id-1021y" gradientUnits="userSpaceOnUse" x1="23" y1="11" x2="25" y2="11"><stop offset="0" stop-color="#f59900"/><stop offset="1" stop-color="#ca8608"/></linearGradient><path fill="none" stroke="url(#id-1021y)" stroke-width="2" stroke-miterlimit="10" d="M25 11h-2"/><linearGradient id="id-1022z" gradientUnits="userSpaceOnUse" y1="61" x2="64" y2="61"><stop offset="0" stop-color="#f59900"/><stop offset="1" stop-color="#ca8608"/></linearGradient><path fill="none" stroke="url(#id-1022z)" stroke-width="2" stroke-miterlimit="10" d="M1 59h62v4H1z"/></svg>