<svg xmlns="http://www.w3.org/2000/svg" viewBox="0 0 47.619 42.819"><path fill="none" stroke="#CA8608" stroke-width="2" stroke-linecap="round" stroke-linejoin="round" stroke-miterlimit="10" d="M43.456 38.24H4.078V10.295h39.378V38.13"/><path fill="none" stroke="#CA8608" stroke-width="2" stroke-miterlimit="10" d="M17.978 15.937h1.417v1.417h-1.417zm5.081 0h1.417v1.417h-1.417zm5.081 0h1.417v1.417H28.14zm5.081 0h1.417v1.417h-1.417zm5.081 0h1.417v1.417h-1.417zm-20.324 5.081h1.417v1.417h-1.417zm-5.081 0h1.417v1.417h-1.417zm-5.081 0h1.417v1.417H7.816zm15.243 0h1.417v1.417h-1.417zm5.081 0h1.417v1.417H28.14zm5.081 0h1.417v1.417h-1.417zm5.081 0h1.417v1.417h-1.417zM28.14 26.099h1.417v1.417H28.14zm5.081 0h1.417v1.417h-1.417zm5.081 0h1.417v1.417h-1.417zm-20.324 0h1.417v1.417h-1.417zm-5.081 0h1.417v1.417h-1.417zm-5.081 0h1.417v1.417H7.816zm15.243 0h1.417v1.417h-1.417zm0 5.081h1.417v1.417h-1.417zm-5.081 0h1.417v1.417h-1.417zm-5.081 0h1.417v1.417h-1.417zm-5.081 0h1.417v1.417H7.816z"/><path fill="none" stroke="#CA8608" stroke-width="2" stroke-linejoin="round" stroke-miterlimit="10" d="M4.078 8.39V3.942h39.378V8.39"/><linearGradient id="id-863a" gradientUnits="userSpaceOnUse" x1="32.206" y1="-1.955" x2="15.328" y2="14.923"><stop offset="0" stop-color="#f59900"/><stop offset="1" stop-color="#ca8608"/></linearGradient><path fill="none" stroke="url(#id-863a)" stroke-width="2" stroke-linejoin="round" stroke-miterlimit="10" d="M7.889 6.484h31.756"/><linearGradient id="id-864b" gradientUnits="userSpaceOnUse" x1="14.389" y1="15.863" x2="12.822" y2="17.429"><stop offset="0" stop-color="#f59900"/><stop offset="1" stop-color="#ca8608"/></linearGradient><path fill="none" stroke="url(#id-864b)" stroke-width="2" stroke-linejoin="round" stroke-miterlimit="10" d="M14.172 16.646h-1.134"/><linearGradient id="id-865c" gradientUnits="userSpaceOnUse" x1="9.342" y1="15.828" x2="7.707" y2="17.464"><stop offset="0" stop-color="#f59900"/><stop offset="1" stop-color="#ca8608"/></linearGradient><path fill="none" stroke="url(#id-865c)" stroke-width="2" stroke-linejoin="round" stroke-miterlimit="10" d="M9.159 16.646h-1.27"/><linearGradient id="id-866d" gradientUnits="userSpaceOnUse" x1="34.747" y1="31.071" x2="33.112" y2="32.707"><stop offset="0" stop-color="#f59900"/><stop offset="1" stop-color="#ca8608"/></linearGradient><path fill="none" stroke="url(#id-866d)" stroke-width="2" stroke-linejoin="round" stroke-miterlimit="10" d="M34.564 31.889h-1.27"/><linearGradient id="id-867e" gradientUnits="userSpaceOnUse" x1="39.828" y1="31.071" x2="38.193" y2="32.707"><stop offset="0" stop-color="#f59900"/><stop offset="1" stop-color="#ca8608"/></linearGradient><path fill="none" stroke="url(#id-867e)" stroke-width="2" stroke-linejoin="round" stroke-miterlimit="10" d="M39.645 31.889h-1.27"/><linearGradient id="id-868f" gradientUnits="userSpaceOnUse" x1="29.666" y1="31.071" x2="28.031" y2="32.707"><stop offset="0" stop-color="#f59900"/><stop offset="1" stop-color="#ca8608"/></linearGradient><path fill="none" stroke="url(#id-868f)" stroke-width="2" stroke-linejoin="round" stroke-miterlimit="10" d="M29.483 31.889h-1.27"/><linearGradient id="id-869g" gradientUnits="userSpaceOnUse" x1="8.741" y1="-1.601" x2="-1.833" y2="8.972"><stop offset="0" stop-color="#f59900"/><stop offset="1" stop-color="#ca8608"/></linearGradient><path fill="none" stroke="url(#id-869g)" stroke-width="2" stroke-linejoin="round" stroke-miterlimit="10" d="M1 10.805V2.512C1 1.68 1.68 1 2.512 1h7.83"/><linearGradient id="id-870h" gradientUnits="userSpaceOnUse" x1="45.094" y1="34.036" x2="32.394" y2="46.736"><stop offset="0" stop-color="#f59900"/><stop offset="1" stop-color="#ca8608"/></linearGradient><path fill="none" stroke="url(#id-870h)" stroke-width="2" stroke-linejoin="round" stroke-miterlimit="10" d="M46.619 36.561v3.746c0 .831-.68 1.512-1.512 1.512h-16.63"/></svg>