<svg xmlns="http://www.w3.org/2000/svg" viewBox="0 0 57.111 57"><linearGradient id="id-1131a" gradientUnits="userSpaceOnUse" x1="34.575" y1="10.463" x2="1.575" y2="43.463"><stop offset="0" stop-color="#f59900"/><stop offset="1" stop-color="#ca8608"/></linearGradient><path fill="none" stroke="url(#id-1131a)" stroke-width="2" stroke-miterlimit="10" d="M24.111 1C13.802 1 5.444 9.358 5.444 19.667L1 31.222V33h4.444v8a5.333 5.333 0 0 0 5.334 5.333h5.333V57"/><linearGradient id="id-1132b" gradientUnits="userSpaceOnUse" x1="18.611" y1="45.167" x2="16.278" y2="47.5"><stop offset="0" stop-color="#f59900"/><stop offset="1" stop-color="#ca8608"/></linearGradient><path fill="none" stroke="url(#id-1132b)" stroke-width="2" stroke-linejoin="round" stroke-miterlimit="10" d="M16.111 46.333h2.667"/><linearGradient id="id-1133c" gradientUnits="userSpaceOnUse" x1="32.167" y1="10.722" x2="30.278" y2="12.611"><stop offset="0" stop-color="#f59900"/><stop offset="1" stop-color="#ca8608"/></linearGradient><path fill="none" stroke="url(#id-1133c)" stroke-width="2" stroke-linejoin="round" stroke-miterlimit="10" d="M30.333 11.667h1.778"/><path fill="none" stroke="#CA8608" stroke-width="2" stroke-linejoin="round" stroke-miterlimit="10" d="M35.667 14.333l-7.111 7.111L25 17.89m11.556 1.777a8 8 0 1 1-8-8"/><linearGradient id="id-1134d" gradientUnits="userSpaceOnUse" x1="15.278" y1="21.389" x2="13.389" y2="23.278"><stop offset="0" stop-color="#f59900"/><stop offset="1" stop-color="#ca8608"/></linearGradient><path fill="none" stroke="url(#id-1134d)" stroke-width="2" stroke-miterlimit="10" d="M14.333 21.444v1.778"/><path fill="none" stroke="#CA8608" stroke-width="2" stroke-linejoin="round" stroke-miterlimit="10" d="M41 46.333h-2.667"/><path fill="none" stroke="#CA8608" stroke-width="2" stroke-miterlimit="10" d="M14.333 19.667C14.333 9.357 22.691 1 33 1s18.667 8.358 18.667 18.667l4.444 11.555V33h-4.444v8a5.333 5.333 0 0 1-5.334 5.333H41V57"/><path fill="none" stroke="#CA8608" stroke-width="2" stroke-miterlimit="10" d="M35.667 57V46.333c0-8.889 7.11-14.58 7.11-24.889v-1.777m.001-3.556v1.778"/></svg>