<svg xmlns="http://www.w3.org/2000/svg" viewBox="0 0 56.65 56.648"><path fill-rule="evenodd" clip-rule="evenodd" fill="#F59900" d="M0 .007h56.64v56.641H0z"/><path fill-rule="evenodd" clip-rule="evenodd" fill="#CA8608" d="M56.65 56.648H0V0z"/><path fill-rule="evenodd" clip-rule="evenodd" fill="#FFF" d="M34.081 24.021h3.136v13.17h-3.136z"/><circle fill-rule="evenodd" clip-rule="evenodd" fill="#FFF" cx="35.649" cy="20.572" r="2.195"/><path fill-rule="evenodd" clip-rule="evenodd" fill="#FFF" d="M29.983 19.944c-1.205-1.103-2.859-1.654-4.96-1.654H18.03v18.807h3.666v-6.82h3.327c2.101 0 3.755-.547 4.96-1.64 1.205-1.094 1.808-2.54 1.808-4.34 0-1.8-.603-3.251-1.808-4.353zm-2.637 6.568c-.527.572-1.301.859-2.323.859h-3.327v-6.174h3.327c1.03 0 1.806.295 2.33.884.523.59.784 1.337.784 2.241 0 .887-.263 1.617-.79 2.19z"/></svg>