<svg xmlns="http://www.w3.org/2000/svg" viewBox="0 0 64 58"><linearGradient id="id-478a" gradientUnits="userSpaceOnUse" x1="48.854" y1="34.854" x2="15.146" y2="68.561"><stop offset="0" stop-color="#f59900"/><stop offset="1" stop-color="#ca8608"/></linearGradient><path fill="none" stroke="url(#id-478a)" stroke-width="2" stroke-miterlimit="10" d="M59 57H5l-4-4v-2h24l2 2h10l2-2h24v2z"/><linearGradient id="id-479b" gradientUnits="userSpaceOnUse" x1="21.586" y1="15.586" x2="-3.414" y2="40.586"><stop offset="0" stop-color="#f59900"/><stop offset="1" stop-color="#ca8608"/></linearGradient><path fill="none" stroke="url(#id-479b)" stroke-width="2" stroke-miterlimit="10" d="M20 15H8a3 3 0 0 0-3 3v30"/><linearGradient id="id-480c" gradientUnits="userSpaceOnUse" x1="63.328" y1="19.672" x2="46.5" y2="36.5"><stop offset="0" stop-color="#f59900"/><stop offset="1" stop-color="#ca8608"/></linearGradient><path fill="none" stroke="url(#id-480c)" stroke-width="2" stroke-miterlimit="10" d="M59 48V18a3 3 0 0 0-3-3H44"/><linearGradient id="id-481d" gradientUnits="userSpaceOnUse" x1="24" y1="20" x2="3" y2="41"><stop offset="0" stop-color="#f59900"/><stop offset="1" stop-color="#ca8608"/></linearGradient><path fill="none" stroke="url(#id-481d)" stroke-width="2" stroke-miterlimit="10" d="M16 45H9V19h13"/><linearGradient id="id-482e" gradientUnits="userSpaceOnUse" x1="33" y1="26" x2="31" y2="28"><stop offset="0" stop-color="#f59900"/><stop offset="1" stop-color="#ca8608"/></linearGradient><path fill="none" stroke="url(#id-482e)" stroke-width="2" stroke-miterlimit="10" d="M33 27h-2"/><linearGradient id="id-483f" gradientUnits="userSpaceOnUse" x1="33" y1="22" x2="31" y2="24"><stop offset="0" stop-color="#f59900"/><stop offset="1" stop-color="#ca8608"/></linearGradient><path fill="none" stroke="url(#id-483f)" stroke-width="2" stroke-miterlimit="10" d="M33 23h-2"/><linearGradient id="id-484g" gradientUnits="userSpaceOnUse" x1="33" y1="30" x2="31" y2="32"><stop offset="0" stop-color="#f59900"/><stop offset="1" stop-color="#ca8608"/></linearGradient><path fill="none" stroke="url(#id-484g)" stroke-width="2" stroke-miterlimit="10" d="M33 31h-2"/><path fill="none" stroke="#CA8608" stroke-width="2" stroke-miterlimit="10" d="M30 35h7m-7-16h7m9 22H19v4h36V19H42"/><path fill="none" stroke="#CA8608" stroke-width="2" stroke-miterlimit="10" d="M23 41v-2l4-4V19l-4-4v-2h5V9m13 32v-2l-4-4V19l4-4v-2H31m5-4v4m4-8h-5V1h-6v4h-5"/><path fill="none" stroke="#CA8608" stroke-width="2" stroke-miterlimit="10" d="M26 1h-5v6l2 2h18l2-2V1h-5"/></svg>