<svg xmlns="http://www.w3.org/2000/svg" viewBox="0 0 503.841 503.841"><defs><linearGradient x1="100%" y1="0%" x2="0%" y2="100%" id="id-486a"><stop offset="0%" stop-color="#1400c8"/><stop offset="50%" stop-color="#b900b4"/><stop offset="100%" stop-color="#f50000"/></linearGradient></defs><g fill="url(#id-486a)"><path d="M251.92 45.391c67.266 0 75.234.257 101.798 1.469 24.562 1.12 37.901 5.224 46.778 8.674 11.759 4.57 20.151 10.03 28.966 18.845 8.816 8.815 14.275 17.207 18.845 28.966 3.45 8.877 7.554 22.216 8.674 46.778 1.212 26.564 1.469 34.532 1.469 101.798s-.257 75.233-1.469 101.797c-1.12 24.562-5.224 37.901-8.674 46.778-4.57 11.759-10.03 20.151-18.845 28.966-8.815 8.816-17.207 14.275-28.966 18.845-8.877 3.45-22.216 7.554-46.778 8.674-26.56 1.212-34.527 1.469-101.797 1.469s-75.237-.257-101.798-1.469c-24.562-1.12-37.901-5.224-46.778-8.674-11.759-4.57-20.151-10.03-28.966-18.845-8.815-8.815-14.275-17.207-18.845-28.966-3.45-8.877-7.554-22.216-8.674-46.778-1.212-26.564-1.469-34.532-1.469-101.797s.257-75.234 1.469-101.798c1.12-24.562 5.224-37.901 8.674-46.778 4.57-11.759 10.03-20.151 18.845-28.966 8.815-8.816 17.207-14.275 28.966-18.845 8.877-3.45 22.216-7.554 46.778-8.674 26.564-1.212 34.532-1.469 101.798-1.469m0-45.391c-68.418 0-76.997.29-103.867 1.516-26.814 1.223-45.127 5.482-61.151 11.71-16.566 6.437-30.615 15.051-44.62 29.056-14.006 14.006-22.62 28.055-29.057 44.62-6.228 16.025-10.487 34.338-11.71 61.152C.29 174.924 0 183.503 0 251.921c0 68.417.29 76.996 1.516 103.866 1.223 26.814 5.482 45.127 11.71 61.151 6.437 16.566 15.051 30.615 29.056 44.62 14.006 14.006 28.055 22.62 44.62 29.058 16.025 6.227 34.338 10.486 61.152 11.71 26.87 1.225 35.449 1.515 103.867 1.515s76.996-.29 103.866-1.516c26.814-1.223 45.127-5.482 61.151-11.71 16.566-6.437 30.615-15.051 44.62-29.056 14.006-14.006 22.62-28.055 29.058-44.62 6.227-16.025 10.486-34.338 11.71-61.152 1.225-26.87 1.515-35.449 1.515-103.866s-.29-76.997-1.516-103.867c-1.223-26.814-5.482-45.127-11.71-61.151-6.437-16.566-15.051-30.615-29.056-44.62-14.006-14.006-28.055-22.62-44.62-29.057-16.025-6.228-34.338-10.487-61.152-11.71C328.917.29 320.338 0 251.92 0z"/><path d="M251.92 122.556c-71.446 0-129.364 57.918-129.364 129.365s57.918 129.364 129.365 129.364 129.364-57.918 129.364-129.364-57.918-129.365-129.364-129.365zm0 213.338c-46.377 0-83.973-37.596-83.973-83.973 0-46.378 37.596-83.974 83.974-83.974s83.973 37.596 83.973 83.974c0 46.377-37.596 83.973-83.973 83.973z"/><circle cx="386.396" cy="117.445" r="30.23"/></g></svg>