<svg width="43" height="43" viewBox="0 0 43 43" xmlns="http://www.w3.org/2000/svg"><defs><linearGradient x1="50%" y1="0%" x2="50%" y2="100%" id="id-1157a"><stop stop-color="#6888F7" offset="0%"/><stop stop-color="#00E0E1" offset="31.122%"/><stop stop-color="#757FF1" offset="69.762%"/><stop stop-color="#E6388D" offset="100%"/></linearGradient></defs><g fill="none" fill-rule="evenodd"><path d="M14.67 7.742c4.376-1.336 9.246-1.317 13.543-.015.782.236 1.22-.712.443-.948-4.569-1.383-9.76-1.411-14.433.017-.778.238-.33 1.184.448.946m-5.003 4.994c3.259-2.62 7.772-4.049 12.379-3.92.828.026.878-.99.043-1.013-4.959-.136-9.808 1.4-13.312 4.217-.589.473.3 1.19.89.716m15.227-3.644c3.357.58 6.165 1.87 8.372 3.644.588.473 1.479-.243.89-.716-2.368-1.904-5.388-3.295-9.004-3.92-.813-.137-1.074.855-.258.992M35.741 22.27c0 4.838-2.66 9.46-7.377 12.608-.641.428.164 1.206.804.78C34.138 32.343 37 27.446 37 22.27c0-.67-1.259-.67-1.259 0m-2.83 6.472c.313-.467-.371-.959-.914-.655-3.622 2.031-7.373 1.91-9.388.966-.526-.25-1.145.19-.898.64.091.165 2.247 4.066 4.377 6.642.453.548 1.514.003 1.049-.56-1.381-1.67-2.812-3.984-3.618-5.35 2.186.499 4.69.375 7.184-.566-.823 1.12-1.677 2.032-3.085 2.933l-.544-.65.553-.116c.807-.168.489-1.149-.315-.98l-1.415.294c-.419.088-.607.483-.364.773 1.518 1.816 1.473 1.855 1.824 1.905a.755.755 0 0 0 .48-.088c2.632-1.536 3.657-3.067 5.075-5.188M7.259 22.221c0-6.3 6.375-11.424 14.208-11.424 6.798 0 12.687 3.884 14.003 9.236.161.655 1.397.462 1.235-.196-1.432-5.825-7.84-10.052-15.238-10.052C12.94 9.785 6 15.364 6 22.221c0 3.18 1.116 6.12 2.083 8.78.234.643 1.445.363 1.21-.285-.945-2.594-2.034-5.463-2.034-8.495m2.727 2.256c-.114-.663-1.362-.526-1.248.138.566 3.313 2.174 7.048 3.801 10.142.322.61 1.487.226 1.16-.395-1.58-3.003-3.155-6.642-3.713-9.885m5.523 7.5c-1.417-2.72-3.275-6.81-3.275-9.756 0-1.83.835-3.588 2.352-4.95.555-.499-.385-1.174-.939-.675-1.788 1.607-2.679 3.65-2.679 5.625 0 2.428 1.137 5.841 3.379 10.147.32.616 1.484.227 1.162-.391m1.179 2.16c-.346-.607-1.492-.187-1.146.422.38.666.78 1.345 1.19 2.016.364.598 1.498.157 1.13-.445-.404-.663-.8-1.334-1.174-1.992M14.747 22.22c0-2.977 3.013-5.4 6.716-5.4 6.455 0 8.628 6.863 4.898 6.863-1.003 0-1.819-.656-1.819-1.463 0-1.364-1.381-2.474-3.079-2.474-1.697 0-3.078 1.11-3.078 2.474 0 1.128.773 3.159 2.122 5.573.338.606 1.49.199 1.148-.415-1.26-2.254-2.011-4.183-2.011-5.158 0-.806.816-1.462 1.82-1.462 1.003 0 1.818.656 1.818 1.462 0 1.365 1.382 2.475 3.08 2.475 1.697 0 3.077-1.11 3.077-2.475 0-3.535-3.577-6.412-7.976-6.412-4.398 0-7.976 2.877-7.976 6.412 0 4.088 4.12 11.01 6.574 14.772.386.59 1.507.128 1.116-.47-2.402-3.68-6.43-10.432-6.43-14.302m8.838 6.035c5.234 1.579 10.83-1.55 10.83-6.035 0-2.44-1.072-4.814-3.02-6.682-.534-.513-1.5.137-.965.65 1.758 1.686 2.726 3.828 2.726 6.032 0 3.776-4.71 6.418-9.129 5.087-.777-.235-1.222.713-.442.948m4.882-13.56c.667.4 1.421-.41.756-.81-8.471-5.1-20.569-.234-20.702 8.2-.012.67 1.248.69 1.258.013.122-7.615 11.045-12.006 18.688-7.403m-2.696 7.525c0 .669 1.26.67 1.26 0 0-4.462-7.286-6.162-10.266-2.4-.447.564.615 1.108 1.062.543 2.302-2.904 7.944-1.601 7.944 1.857m-8.615 0c0-.668-1.26-.67-1.26 0 0 3.228 4.922 11.309 7.305 14.716.408.583 1.506.088 1.098-.495-2.88-4.12-7.143-11.487-7.143-14.22M28.69 25.15c-.295.149-.383.461-.198.698.12.153.324.236.534.236a.74.74 0 0 0 .334-.078c1.63-.824 2.603-2.24 2.603-3.786 0-6.462-8.768-10.612-15.88-7.242-.715.343-.07 1.213.646.87 6.236-2.958 13.974.667 13.974 6.372 0 1.196-.752 2.292-2.013 2.93m-2.29 1.541c-3.067 0-5.562-2.005-5.562-4.47 0-.67 1.26-.67 1.26 0 0 1.907 1.93 3.458 4.302 3.458.833 0 .832 1.012 0 1.012" fill="url(#id-1157a)"/><path d="M4.375 0H0v4.18c0 .33.28.598.625.598a.612.612 0 0 0 .625-.598V1.194h3.125A.611.611 0 0 0 5 .597C5 .267 4.72 0 4.375 0m34.25 0A.611.611 0 0 0 38 .597c0 .33.28.597.625.597h3.125V4.18c0 .33.28.598.625.598A.611.611 0 0 0 43 4.18V0h-4.375zM4.375 41.806H1.25V38.82c0-.33-.28-.598-.625-.598A.611.611 0 0 0 0 38.82V43h4.375A.611.611 0 0 0 5 42.402c0-.329-.28-.596-.625-.596m34.25 0h3.125V38.82c0-.33.28-.598.625-.598.346 0 .625.268.625.598V43h-4.375a.611.611 0 0 1-.625-.598c0-.329.28-.596.625-.596" fill="#777263"/></g></svg>