<svg xmlns="http://www.w3.org/2000/svg" viewBox="0 0 175.22 56.648"><path fill-rule="evenodd" clip-rule="evenodd" fill="#F59A00" d="M118.58.007h56.64v56.641h-56.64z"/><path fill-rule="evenodd" clip-rule="evenodd" fill="#CA8610" d="M118.57 56.648h56.65V0z"/><path fill-rule="evenodd" clip-rule="evenodd" d="M6.984 21.196c1.832 0 2.788 1.141 3.16 2.68h3.77c-.69-3.953-3.399-5.969-6.93-5.969-2.178 0-3.771.716-5.072 1.99C.027 21.78 0 23.902 0 27.51c0 3.607.026 5.73 1.912 7.613 1.3 1.273 2.894 1.989 5.072 1.989 3.505 0 6.24-2.016 6.93-5.968H10.17c-.372 1.538-1.354 2.679-3.186 2.679-1.01 0-1.833-.372-2.364-.982-.69-.795-.93-1.724-.93-5.331 0-3.608.24-4.536.93-5.332.531-.61 1.355-.982 2.364-.982zm25.25 2.653c0-3.157-2.284-5.783-6.134-5.783h-7.41v18.887h3.691V29.42h2.655l3.691 7.533h4.276l-4.223-8.144c1.833-.663 3.453-2.307 3.453-4.96zm-6.373 2.494h-3.479v-4.987h3.479c1.62 0 2.682 1.034 2.682 2.493 0 1.459-1.063 2.494-2.682 2.494zm17.07-.664l-3.53-7.613h-4.01l5.682 11.141v7.746h3.665v-7.746l5.682-11.14h-4.01l-3.478 7.612zm18.692-7.613h-7.329v18.887h3.691v-7.109h3.638c3.93 0 6.24-2.68 6.24-5.889 0-3.21-2.31-5.889-6.24-5.889zm-.186 8.462h-3.452v-5.172h3.452c1.673 0 2.735 1.06 2.735 2.6s-1.062 2.572-2.735 2.572zm9.583-5.172h4.94v15.597h3.69V21.356h4.94v-3.29H71.02v3.29zm29.022-1.46c-1.275-1.273-2.868-1.989-5.046-1.989-2.177 0-3.797.716-5.071 1.99-1.886 1.883-1.912 4.005-1.912 7.613 0 3.607.026 5.73 1.912 7.613 1.274 1.273 2.894 1.989 5.071 1.989 2.178 0 3.771-.716 5.046-1.99 1.885-1.883 1.938-4.005 1.938-7.612 0-3.608-.053-5.73-1.938-7.613zM97.36 32.789c-.531.61-1.355 1.035-2.364 1.035a3.19 3.19 0 0 1-2.39-1.035c-.69-.795-.902-1.67-.902-5.278 0-3.608.212-4.51.902-5.306.558-.61 1.381-1.008 2.39-1.008 1.01 0 1.833.398 2.364 1.008.69.796.929 1.698.929 5.306 0 3.607-.239 4.483-.93 5.278z"/><path fill-rule="evenodd" clip-rule="evenodd" fill="#FFF" d="M152.651 24.021h3.136v13.17h-3.136z"/><circle fill-rule="evenodd" clip-rule="evenodd" fill="#FFF" cx="154.219" cy="20.572" r="2.195"/><path fill-rule="evenodd" clip-rule="evenodd" fill="#FFF" d="M148.553 19.944c-1.205-1.103-2.858-1.654-4.96-1.654H136.6v18.807h3.666v-6.82h3.328c2.1 0 3.754-.547 4.96-1.64 1.204-1.094 1.807-2.54 1.807-4.34 0-1.8-.603-3.251-1.808-4.353zm-2.637 6.568c-.527.572-1.301.859-2.322.859h-3.328v-6.174h3.328c1.03 0 1.805.295 2.329.884.523.59.784 1.337.784 2.241 0 .887-.263 1.617-.79 2.19z"/></svg>