<svg xmlns="http://www.w3.org/2000/svg" viewBox="0 0 180 63.967"><g fill-rule="evenodd" clip-rule="evenodd"><path fill="#FD0C15" d="M170.151 25.084c0-1.95 1.539-3.54 3.386-3.54 1.898 0 3.385 1.59 3.385 3.54s-1.487 3.54-3.385 3.54c-1.847.051-3.386-1.54-3.386-3.54zm3.386 2.77c1.436 0 2.565-1.231 2.565-2.719s-1.18-2.718-2.565-2.718c-1.437 0-2.565 1.23-2.565 2.718s1.128 2.72 2.565 2.72zm-.462-1.18h-.718v-3.129h1.282c.257 0 .564 0 .77.154.256.154.359.462.359.77 0 .359-.205.666-.513.769l.564 1.385h-.77l-.461-1.231h-.513v1.282zm0-1.744h.41c.154 0 .308 0 .41-.05.103-.052.155-.206.155-.36 0-.103-.052-.257-.154-.308-.103-.05-.308-.05-.41-.05l-.36-.001-.051.77zM121.676 1.437l-.923 6.052c-2.001-1.077-3.489-1.487-5.079-1.487-4.206 0-7.182 4.309-7.182 10.413 0 4.206 2.001 6.771 5.284 6.771 1.385 0 2.924-.461 4.822-1.436l-.975 6.36c-2.103.616-3.437.822-5.027.822-6.104 0-9.9-4.617-9.9-12.004C102.696 6.976 107.928 0 115.469 0c.974 0 1.846.103 2.565.308l2.36.616c.615.256.769.307 1.282.513zM102.85 5.592c-.154-.052-.36-.052-.564-.052-1.847 0-2.924.975-4.668 3.694l.513-3.437H93l-3.488 22.621h5.694c2.051-13.85 2.564-16.21 5.283-16.21h.41c.513-2.718 1.18-4.719 2.155-6.565l-.205-.051zM68.943 28.11c-1.54.514-2.77.77-4.053.77-2.872 0-4.462-1.744-4.462-4.976 0-.615.05-1.333.153-2.051l.36-2.206.256-1.796 2.462-15.44h5.643l-.667 3.334h2.924l-.821 5.49-2.873-.001-1.487 9.438c-.051.411-.103.719-.103.924 0 1.18.616 1.693 1.95 1.693.667 0 1.128-.051 1.538-.205l-.82 5.027zM46.577 12.927c0 2.872 1.334 4.822 4.31 6.31 2.256 1.128 2.667 1.487 2.667 2.513 0 1.385-1.026 2.052-3.232 2.052-1.693 0-3.232-.257-5.078-.924l-.77 5.233.257.051 1.026.205c.359.051.82.154 1.487.205 1.334.103 2.411.205 3.13.205 5.95 0 8.72-2.41 8.72-7.54 0-3.078-1.129-4.925-4.002-6.31-2.36-1.128-2.616-1.385-2.616-2.462 0-1.231.924-1.847 2.77-1.847 1.129 0 2.616.154 4.053.36l.82-5.233c-1.487-.256-3.693-.462-4.975-.462-6.412 0-8.618 3.438-8.567 7.644zm120.291 15.44h-5.386l.256-2.206c-1.539 1.744-3.18 2.514-5.232 2.514-4.155 0-6.874-3.745-6.874-9.387 0-7.54 4.207-13.902 9.234-13.902 2.206 0 3.847.975 5.437 3.078l1.231-7.95h5.592l-4.258 27.853zm-8.361-5.283c2.667 0 4.514-3.13 4.514-7.643 0-2.873-1.077-4.463-3.027-4.463-2.565 0-4.411 3.18-4.411 7.591 0 2.976.975 4.515 2.924 4.515zm-71.61 4.821c-1.95.616-3.796.924-5.848.924-6.31 0-9.644-3.488-9.644-10.157 0-7.797 4.206-13.49 9.9-13.49 4.668 0 7.644 3.23 7.644 8.258 0 1.641-.206 3.283-.719 5.591H76.945c-.051.36-.051.513-.051.718 0 2.668 1.693 4.002 4.976 4.002 2 0 3.847-.462 5.899-1.437l-.872 5.591zm-3.18-13.49c.05-.462.05-.872.05-1.129 0-1.847-.974-2.924-2.667-2.924-1.795 0-3.078 1.436-3.59 4.052h6.206zM23.802 28.367h-5.643l3.232-21.39-7.284 21.39h-3.848L9.798 7.131 6.36 28.367H1.077L5.49.564h8.156L13.85 17.8 19.39.564h8.823l-4.411 27.803zm14.619-10.054c-.615-.051-.872-.102-1.282-.102-3.232 0-4.822 1.18-4.822 3.436 0 1.385.82 2.309 2.052 2.309 2.257 0 3.95-2.309 4.052-5.643zm4.104 10.054h-4.72l.103-2.36c-1.436 1.898-3.334 2.72-5.95 2.72-3.078 0-5.181-2.514-5.181-6.156 0-5.54 3.693-8.72 9.952-8.72.666 0 1.487.05 2.308.153.154-.77.205-1.077.205-1.487 0-1.488-.975-2.052-3.642-2.052-1.59 0-3.437.256-4.72.667l-.718.256-.512.154.769-5.078c2.821-.872 4.72-1.232 6.771-1.232 4.873 0 7.438 2.309 7.438 6.618 0 1.128-.103 1.95-.462 4.514l-1.128 8.053-.205 1.437-.154 1.128-.103.82-.05.565zm88.948-10.054c-.564-.051-.872-.102-1.282-.102-3.232 0-4.873 1.18-4.873 3.436 0 1.385.82 2.309 2.052 2.309 2.308 0 4-2.309 4.103-5.643zm4.104 10.054h-4.72l.103-2.36c-1.436 1.898-3.334 2.72-5.95 2.72-3.078 0-5.181-2.514-5.181-6.156 0-5.54 3.694-8.72 9.952-8.72.615 0 1.487.05 2.308.153.154-.77.205-1.077.205-1.487 0-1.488-.975-2.052-3.642-2.052-1.59 0-3.437.256-4.72.667l-.82.205-.513.154.77-5.079c2.82-.872 4.719-1.23 6.77-1.23 4.874 0 7.439 2.307 7.439 6.616 0 1.129-.103 1.95-.462 4.515l-1.18 8.002-.154 1.436-.154 1.129-.102.77.051.717zm15.851-22.775c-.154-.052-.36-.052-.564-.052-1.847 0-2.924.975-4.669 3.694l.514-3.437h-5.13l-3.488 22.621h5.694c2.051-13.85 2.564-16.21 5.283-16.21h.41c.513-2.718 1.232-4.719 2.155-6.565l-.205-.051z"/><path fill="#F3AE12" d="M127.626 50.373c0 5.13-1.59 8.157-4.103 8.157-1.847.05-2.924-2-2.924-5.027 0-3.591 1.641-7.695 4.206-7.695 2.103 0 2.821 2.206 2.821 4.565zm5.592.052c0-5.694-2.822-10.157-8.106-10.157-6.104 0-10.053 5.386-10.053 13.337 0 5.694 2.36 10.362 8.104 10.362 5.797 0 10.055-4.104 10.055-13.542zm-16.364-14.107l-.872 6.053c-1.898-1.077-3.232-1.487-4.72-1.487-3.95 0-6.72 4.308-6.72 10.413 0 4.206 1.847 6.77 4.925 6.77 1.334 0 2.77-.46 4.514-1.436l-.923 6.361c-1.95.616-3.232.821-4.72.821-5.693 0-9.284-4.617-9.284-12.003 0-9.952 4.924-16.928 11.952-16.928.923 0 1.693.102 2.36.308l2.154.615c.718.205.872.257 1.334.513zm-35.036 4.104c-.154-.052-.359-.052-.564-.052-1.744 0-2.719.975-4.36 3.694l.513-3.437h-4.77l-3.233 22.622h5.284c1.898-13.85 2.411-16.21 4.924-16.21.154 0 .154 0 .41.052.462-2.72 1.13-4.72 2.001-6.567l-.205-.102zm69.148 22.622h-5.027l.256-2.206c-1.436 1.744-2.975 2.514-4.924 2.514-3.847 0-6.412-3.745-6.412-9.388 0-7.54 3.95-13.901 8.618-13.901 2.051 0 3.642.974 5.078 3.129l1.18-7.951h5.232l-4 27.803zm-7.848-5.335c2.513 0 4.206-3.13 4.206-7.643 0-2.873-.975-4.412-2.821-4.412-2.411 0-4.104 3.13-4.104 7.592 0 2.975.923 4.463 2.719 4.463zM32.163 62.941c-1.795.616-3.54.924-5.437.924-5.9 0-8.977-3.489-8.977-10.157 0-7.746 3.95-13.491 9.233-13.491 4.36 0 7.13 3.18 7.13 8.259 0 1.641-.205 3.282-.667 5.59H22.93c-.052.36-.052.514-.052.719 0 2.616 1.59 3.95 4.669 3.95 1.897 0 3.59-.462 5.488-1.437l-.872 5.643zm-2.975-13.49c0-.463.051-.873.051-1.13 0-1.846-.923-2.923-2.513-2.923-1.693 0-2.873 1.436-3.386 4.052h5.848zm65.967 13.49c-1.795.616-3.54.924-5.437.924-5.95 0-9.028-3.489-9.028-10.157 0-7.746 3.95-13.491 9.233-13.491 4.36 0 7.182 3.18 7.182 8.259 0 1.641-.205 3.282-.667 5.59H85.922c-.052.36-.052.514-.052.719 0 2.616 1.59 3.95 4.669 3.95 1.898 0 3.59-.462 5.488-1.437l-.872 5.643zm-2.975-13.49c.051-.463.051-.873.051-1.13 0-1.846-.923-2.923-2.513-2.923-1.693 0-2.873 1.436-3.386 4.052h5.848zm76.843 13.49c-1.847.616-3.591.924-5.438.924-5.9 0-9.028-3.489-9.028-10.157 0-7.746 3.95-13.491 9.285-13.491 4.36 0 7.13 3.18 7.13 8.259 0 1.641-.205 3.282-.667 5.59h-10.516c-.051.36-.051.514-.051.719 0 2.616 1.59 3.95 4.668 3.95 1.898 0 3.59-.462 5.489-1.437l-.872 5.643zm-2.976-13.49c0-.463.052-.873.052-1.13 0-1.846-.924-2.923-2.514-2.923-1.693 0-2.872 1.436-3.386 4.052h5.848zM16.466 41.448c-1.026-.718-2.462-1.283-4.411-1.283-2.155 0-3.848.462-3.848 2.719 0 4.001 7.798 2.514 7.798 11.131 0 7.849-5.13 9.9-9.798 9.9-2.052 0-4.463-.666-6.207-1.487l1.282-5.745c1.078.975 3.18 1.641 4.976 1.641 1.693 0 4.258-.461 4.258-3.385 0-4.566-7.797-2.873-7.797-10.875 0-7.335 4.565-9.49 8.977-9.49 2.462 0 4.822.36 6.155 1.283l-1.385 5.59zm31.189 21.493c-1.078.513-2.565.872-4.72.872-4.616 0-7.489-4.617-7.489-10.26 0-7.386 4.155-13.234 10.26-13.234 1.333 0 3.385.565 4.975 1.488l-1.18 5.386c-1.128-.77-2.308-1.23-3.54-1.23-2.82 0-4.872 2.615-4.872 7.232 0 2.667 1.487 4.873 3.796 4.873 1.385 0 2.36-.308 3.539-.975l-.77 5.848zm19.8-5.694c-.256 1.95-.513 3.848-.667 5.848H61.71l.41-3.642h-.05c-1.591 2.462-3.233 4.155-6.157 4.155-3.18 0-4.924-3.386-4.924-7.746 0-1.539.102-2.36.41-4.72l1.437-10.464h5.693l-1.538 10.516c-.154 1.129-.36 2.257-.36 3.437 0 1.334.616 2.667 2.155 2.565 2.309 0 3.693-2.822 4.104-6.156l1.59-10.362h5.489l-2.514 16.57zm106.851 5.591h-.872v-3.744h-1.231v-.82h3.334v.82h-1.231v3.744zm5.694 0h-.82v-3.795l-.77 3.795h-.82l-.77-3.795v3.795h-.821v-4.565h1.282l.719 3.59h.05l.719-3.59H180v4.565z"/></g></svg>