<svg xmlns="http://www.w3.org/2000/svg" viewBox="0 0 116.496 90.611"><path fill="#231F20" d="M21.196 90.11v-6a3.56 3.56 0 0 0-3.76-3.8 3.7 3.7 0 0 0-3.36 1.7 3.51 3.51 0 0 0-3.16-1.7 3.16 3.16 0 0 0-2.8 1.42v-1.18h-2.08v9.56h2.1v-5.26a2.24 2.24 0 0 1 2.34-2.54c1.38 0 2.08.9 2.08 2.52v5.32h2.1v-5.3a2.25 2.25 0 0 1 2.34-2.54c1.42 0 2.1.9 2.1 2.52v5.32l2.1-.04zm31.07-9.56h-3.42v-2.9h-2.1v2.9h-1.9v1.9h1.94v4.4c0 2.22.86 3.54 3.32 3.54a4.88 4.88 0 0 0 2.6-.74l-.6-1.78a3.84 3.84 0 0 1-1.84.54c-1 0-1.38-.64-1.38-1.6v-4.36h3.4l-.02-1.9zm17.74-.24a2.82 2.82 0 0 0-2.52 1.4v-1.16h-2.06v9.56h2.08v-5.36c0-1.58.68-2.46 2-2.46a3.39 3.39 0 0 1 1.3.24l.64-2a4.45 4.45 0 0 0-1.48-.26l.04.04zm-26.82 1a7.15 7.15 0 0 0-3.9-1c-2.42 0-4 1.16-4 3.06 0 1.56 1.16 2.52 3.3 2.82l1 .14c1.14.16 1.68.46 1.68 1 0 .74-.76 1.16-2.18 1.16a5.09 5.09 0 0 1-3.18-1l-1 1.62a6.9 6.9 0 0 0 4.14 1.24c2.76 0 4.36-1.3 4.36-3.12s-1.26-2.56-3.34-2.86l-1-.14c-.9-.12-1.62-.3-1.62-.94s.68-1.12 1.82-1.12a6.16 6.16 0 0 1 3 .82l.92-1.68zm55.71-1a2.82 2.82 0 0 0-2.52 1.4v-1.16h-2.06v9.56h2.08v-5.36c0-1.58.68-2.46 2-2.46a3.39 3.39 0 0 1 1.3.24l.64-2a4.45 4.45 0 0 0-1.48-.26l.04.04zm-26.8 5a4.83 4.83 0 0 0 5.1 5 5 5 0 0 0 3.44-1.14l-1-1.68a4.2 4.2 0 0 1-2.5.86 3.07 3.07 0 0 1 0-6.12 4.2 4.2 0 0 1 2.5.86l1-1.68a5 5 0 0 0-3.44-1.14 4.83 4.83 0 0 0-5.1 5v.04zm19.48 0v-4.76h-2.08v1.16a3.63 3.63 0 0 0-3-1.4 5 5 0 0 0 0 10 3.63 3.63 0 0 0 3-1.4v1.16h2.08v-4.76zm-7.74 0a2.89 2.89 0 1 1 2.9 3.06 2.87 2.87 0 0 1-2.9-3.06zm-25.1-5a5 5 0 0 0 .14 10 5.81 5.81 0 0 0 3.97-1.3l-1-1.54a4.55 4.55 0 0 1-2.78 1 2.65 2.65 0 0 1-2.86-2.34h7.1v-.8c0-3-1.86-5-4.54-5l-.03-.02zm0 1.86a2.37 2.37 0 0 1 2.42 2.32h-5a2.46 2.46 0 0 1 2.54-2.32h.04zm52.11 3.16v-8.62h-2v5a3.63 3.63 0 0 0-3-1.4 5 5 0 0 0 0 10 3.63 3.63 0 0 0 3-1.4v1.16h2v-4.74zm3.47 3.39a1 1 0 0 1 .38.07 1 1 0 0 1 .31.2.93.93 0 0 1-.31 1.54.94.94 0 0 1-.38.08 1 1 0 0 1-.9-.58.94.94 0 0 1 0-.74 1 1 0 0 1 .21-.3 1 1 0 0 1 .31-.2 1 1 0 0 1 .41-.07h-.03zm0 1.69a.71.71 0 0 0 .52-.22.74.74 0 0 0 0-1 .72.72 0 0 0-.81-.16.73.73 0 0 0-.24.16.74.74 0 0 0 0 1 .74.74 0 0 0 .24.16c.101.044.21.065.32.06h-.03zm.06-1.19a.4.4 0 0 1 .26.08.25.25 0 0 1 .09.21.24.24 0 0 1-.07.18.35.35 0 0 1-.21.09l.29.33h-.23l-.27-.33h-.09v.33h-.19v-.88l.42-.01zm-.22.17v.24h.22a.21.21 0 0 0 .12 0 .1.1 0 0 0 0-.09.1.1 0 0 0 0-.09.21.21 0 0 0-.12 0l-.22-.06zm-11-4.06a2.89 2.89 0 1 1 2.9 3.06 2.87 2.87 0 0 1-2.9-3.06zm-70.23 0v-4.78h-2.08v1.16a3.63 3.63 0 0 0-3-1.4 5 5 0 0 0 0 10 3.63 3.63 0 0 0 3-1.4v1.16h2.08v-4.74zm-7.74 0a2.89 2.89 0 1 1 2.9 3.06 2.87 2.87 0 0 1-2.92-3.06h.02z"/><path fill="#FF5F00" d="M42.496 7.701h31.5v56.61h-31.5z"/><path fill="#EB001B" d="M44.496 36.01A35.94 35.94 0 0 1 58.246 7.7C42.614-4.584 19.982-1.87 7.696 13.762s-9.572 38.264 6.06 50.55c13.056 10.26 31.435 10.26 44.49 0a35.94 35.94 0 0 1-13.75-28.3z"/><path fill="#F79E1B" d="M116.496 36.01c0 19.883-16.118 36-36 36a36 36 0 0 1-22.25-7.7c15.633-12.285 18.346-34.917 6.06-50.549a36 36 0 0 0-6.06-6.06c15.63-12.289 38.263-9.58 50.551 6.05a36 36 0 0 1 7.7 22.25v.01zm-3.44 22.3v-1.16h.47v-.24h-1.19v.24h.51v1.16h.21zm2.31 0v-1.4h-.36l-.42 1-.42-1h-.32v1.4h.26v-1.05l.39.91h.27l.39-.91v1.06l.21-.01z"/></svg>