<svg xmlns="http://www.w3.org/2000/svg" viewBox="0 0 60.308 64"><linearGradient id="id-1204a" gradientUnits="userSpaceOnUse" x1="31.699" y1="55.185" x2="28.609" y2="58.275"><stop offset="0" stop-color="#f59900"/><stop offset="1" stop-color="#ca8608"/></linearGradient><path fill="none" stroke="url(#id-1204a)" stroke-width="2" stroke-miterlimit="10" d="M30.154 54.64v4.18"/><linearGradient id="id-1205b" gradientUnits="userSpaceOnUse" x1="32.339" y1="58.725" x2="27.969" y2="63.095"><stop offset="0" stop-color="#f59900"/><stop offset="1" stop-color="#ca8608"/></linearGradient><circle fill="none" stroke="url(#id-1205b)" stroke-width="2" stroke-miterlimit="10" cx="30.154" cy="60.91" r="2.09"/><linearGradient id="id-1206c" gradientUnits="userSpaceOnUse" x1="23.513" y1="55.36" x2="12.412" y2="66.461"><stop offset="0" stop-color="#f59900"/><stop offset="1" stop-color="#ca8608"/></linearGradient><path fill="none" stroke="url(#id-1206c)" stroke-width="2" stroke-miterlimit="10" d="M28.064 60.91H7.862"/><linearGradient id="id-1207d" gradientUnits="userSpaceOnUse" x1="47.896" y1="55.36" x2="36.794" y2="66.461"><stop offset="0" stop-color="#f59900"/><stop offset="1" stop-color="#ca8608"/></linearGradient><path fill="none" stroke="url(#id-1207d)" stroke-width="2" stroke-miterlimit="10" d="M52.446 60.91H32.244"/><linearGradient id="id-1208e" gradientUnits="userSpaceOnUse" x1="31.002" y1="49.612" x2="29.306" y2="51.309"><stop offset="0" stop-color="#f59900"/><stop offset="1" stop-color="#ca8608"/></linearGradient><path fill="none" stroke="url(#id-1208e)" stroke-width="2" stroke-miterlimit="10" d="M29.457 50.461h1.394"/><linearGradient id="id-1209f" gradientUnits="userSpaceOnUse" x1="28.216" y1="49.612" x2="26.519" y2="51.309"><stop offset="0" stop-color="#f59900"/><stop offset="1" stop-color="#ca8608"/></linearGradient><path fill="none" stroke="url(#id-1209f)" stroke-width="2" stroke-miterlimit="10" d="M26.671 50.461h1.393"/><linearGradient id="id-1210g" gradientUnits="userSpaceOnUse" x1="33.789" y1="49.612" x2="32.092" y2="51.309"><stop offset="0" stop-color="#f59900"/><stop offset="1" stop-color="#ca8608"/></linearGradient><path fill="none" stroke="url(#id-1210g)" stroke-width="2" stroke-miterlimit="10" d="M32.244 50.461h1.393"/><linearGradient id="id-1211h" gradientUnits="userSpaceOnUse" x1="31.002" y1="41.253" x2="29.306" y2="42.949"><stop offset="0" stop-color="#f59900"/><stop offset="1" stop-color="#ca8608"/></linearGradient><path fill="none" stroke="url(#id-1211h)" stroke-width="2" stroke-miterlimit="10" d="M29.457 42.101h1.394"/><linearGradient id="id-1212i" gradientUnits="userSpaceOnUse" x1="28.216" y1="41.253" x2="26.519" y2="42.949"><stop offset="0" stop-color="#f59900"/><stop offset="1" stop-color="#ca8608"/></linearGradient><path fill="none" stroke="url(#id-1212i)" stroke-width="2" stroke-miterlimit="10" d="M26.671 42.101h1.393"/><linearGradient id="id-1213j" gradientUnits="userSpaceOnUse" x1="33.789" y1="41.253" x2="32.092" y2="42.949"><stop offset="0" stop-color="#f59900"/><stop offset="1" stop-color="#ca8608"/></linearGradient><path fill="none" stroke="url(#id-1213j)" stroke-width="2" stroke-miterlimit="10" d="M32.244 42.101h1.393"/><linearGradient id="id-1214k" gradientUnits="userSpaceOnUse" x1="31.002" y1="32.893" x2="29.306" y2="34.59"><stop offset="0" stop-color="#f59900"/><stop offset="1" stop-color="#ca8608"/></linearGradient><path fill="none" stroke="url(#id-1214k)" stroke-width="2" stroke-miterlimit="10" d="M29.457 33.742h1.394"/><linearGradient id="id-1215l" gradientUnits="userSpaceOnUse" x1="28.216" y1="32.893" x2="26.519" y2="34.59"><stop offset="0" stop-color="#f59900"/><stop offset="1" stop-color="#ca8608"/></linearGradient><path fill="none" stroke="url(#id-1215l)" stroke-width="2" stroke-miterlimit="10" d="M26.671 33.742h1.393"/><linearGradient id="id-1216m" gradientUnits="userSpaceOnUse" x1="33.789" y1="32.893" x2="32.092" y2="34.59"><stop offset="0" stop-color="#f59900"/><stop offset="1" stop-color="#ca8608"/></linearGradient><path fill="none" stroke="url(#id-1216m)" stroke-width="2" stroke-miterlimit="10" d="M32.244 33.742h1.393"/><ellipse fill="none" stroke="#CA8608" stroke-width="2" stroke-miterlimit="10" cx="30.154" cy="24.685" rx="16.022" ry="4.876"/><path fill="none" stroke="#CA8608" stroke-width="2" stroke-miterlimit="10" d="M46.176 28.169v4.876c0 2.693-7.173 4.876-16.022 4.876-8.85 0-16.023-2.183-16.023-4.876v-4.876"/><path fill="none" stroke="#CA8608" stroke-width="2" stroke-miterlimit="10" d="M46.176 36.528v4.876c0 2.694-7.173 4.877-16.022 4.877-8.85 0-16.023-2.183-16.023-4.877v-4.876"/><path fill="none" stroke="#CA8608" stroke-width="2" stroke-miterlimit="10" d="M46.176 44.888v4.876c0 2.693-7.173 4.876-16.022 4.876-8.85 0-16.023-2.183-16.023-4.876v-4.876"/><linearGradient id="id-1217n" gradientUnits="userSpaceOnUse" x1="47.462" y1="9.245" x2="12.143" y2="44.564"><stop offset="0" stop-color="#f59900"/><stop offset="1" stop-color="#ca8608"/></linearGradient><path fill="none" stroke="url(#id-1217n)" stroke-width="2" stroke-miterlimit="10" d="M47.082 38.618h.94c6.233 0 11.286-5.053 11.286-11.285 0-5.594-3.762-10.345-9.405-10.345 0-4.703-2.821-8.464-8.464-8.464h-.94C37.934 3.893 33.002 1 27.333 1c-8.31 0-15.048 6.737-15.048 15.047C6.053 16.047 1 21.1 1 27.333c0 6.232 5.053 11.285 11.285 11.285h.94"/><linearGradient id="id-1218o" gradientUnits="userSpaceOnUse" x1="27.104" y1="5.414" x2="16.229" y2="16.288"><stop offset="0" stop-color="#f59900"/><stop offset="1" stop-color="#ca8608"/></linearGradient><path fill="none" stroke="url(#id-1218o)" stroke-width="2" stroke-miterlimit="10" d="M17.928 16.988c0-5.714 4.702-10.345 9.405-10.345"/></svg>