<svg xmlns="http://www.w3.org/2000/svg" viewBox="0 0 116.496 90.611"><path d="M35.246 90.11v-6a3.55 3.55 0 0 0-3.75-3.79 3.7 3.7 0 0 0-3.36 1.7 3.51 3.51 0 0 0-3.16-1.7 3.16 3.16 0 0 0-2.8 1.42v-1.18h-2.08v9.55h2.1v-5.29a2.23 2.23 0 0 1 2.34-2.54c1.38 0 2.08.9 2.08 2.52v5.31h2.1v-5.29a2.25 2.25 0 0 1 2.34-2.54c1.42 0 2.1.9 2.1 2.52v5.31h2.09zm11.7-4.77v-4.77h-2.1v1.16a3.62 3.62 0 0 0-3-1.4 5 5 0 0 0 0 10 3.62 3.62 0 0 0 3-1.4v1.16h2.08l.02-4.75zm-7.73 0a2.89 2.89 0 1 1 2.9 3.06 2.86 2.86 0 0 1-2.92-3.06h.02zm52.17-5a5.38 5.38 0 0 1 2 .38 5 5 0 0 1 1.63 1.06c.463.453.83.994 1.08 1.59a5.3 5.3 0 0 1 0 4 4.83 4.83 0 0 1-1.08 1.59 5 5 0 0 1-1.63 1.06 5.66 5.66 0 0 1-4.1 0 4.94 4.94 0 0 1-1.62-1.06 4.88 4.88 0 0 1-1.07-1.59 5.31 5.31 0 0 1 0-4 4.88 4.88 0 0 1 1.07-1.59 4.94 4.94 0 0 1 1.62-1.06 5.38 5.38 0 0 1 2.08-.41l.02.03zm0 2a3.1 3.1 0 0 0-1.19.22 2.81 2.81 0 0 0-.95.63 2.93 2.93 0 0 0-.63 1 3.47 3.47 0 0 0 0 2.48c.14.374.354.714.63 1a2.8 2.8 0 0 0 .95.63 3.25 3.25 0 0 0 2.37 0 2.86 2.86 0 0 0 1-.63 2.9 2.9 0 0 0 .63-1 3.47 3.47 0 0 0 0-2.48 2.9 2.9 0 0 0-.63-1 2.86 2.86 0 0 0-1-.63 3.1 3.1 0 0 0-1.2-.28l.02.06zm-33.14 3c0-3-1.86-5-4.53-5a5 5 0 0 0 .14 10 5.8 5.8 0 0 0 3.91-1.34l-1-1.54a4.55 4.55 0 0 1-2.78 1 2.65 2.65 0 0 1-2.86-2.34h7.09c.03-.25.03-.5.03-.78zm-7.11-.84a2.46 2.46 0 0 1 2.51-2.31 2.37 2.37 0 0 1 2.42 2.32l-4.93-.01zm15.86-1.5a6.15 6.15 0 0 0-3-.82c-1.14 0-1.82.42-1.82 1.12s.72.82 1.62.94l1 .14c2.08.3 3.34 1.18 3.34 2.86s-1.6 3.12-4.35 3.12a6.89 6.89 0 0 1-4.13-1.24l1-1.62a5.09 5.09 0 0 0 3.18 1c1.42 0 2.18-.42 2.18-1.16 0-.54-.54-.84-1.68-1l-1-.14c-2.14-.3-3.3-1.26-3.3-2.82 0-1.9 1.56-3.06 4-3.06a7.14 7.14 0 0 1 3.89 1l-.93 1.68zm10-.54h-3.39v4.31c0 1 .34 1.6 1.38 1.6a3.84 3.84 0 0 0 1.84-.54l.6 1.78a4.88 4.88 0 0 1-2.6.74c-2.46 0-3.32-1.32-3.32-3.54v-4.35h-1.94v-1.9h1.94v-2.9h2.1v2.9h3.39v1.9zm7.19-2.14a4.44 4.44 0 0 1 1.48.26l-.64 2a3.38 3.38 0 0 0-1.3-.24c-1.36 0-2 .88-2 2.46v5.35h-2.08V80.6h2.06v1.16a2.82 2.82 0 0 1 2.52-1.4l-.04-.04zm14.38 8.4a1 1 0 0 1 .38.07 1 1 0 0 1 .31.2.93.93 0 0 1-.31 1.54.94.94 0 0 1-.38.08 1 1 0 0 1-.9-.58.94.94 0 0 1 0-.74 1 1 0 0 1 .21-.3 1 1 0 0 1 .31-.2 1 1 0 0 1 .33-.07h.05zm0 1.69a.71.71 0 0 0 .52-.22.74.74 0 0 0-.52-1.26.75.75 0 0 0-.53.22.74.74 0 0 0 0 1c.14.142.331.222.53.22v.04zm.06-1.19a.4.4 0 0 1 .26.08.25.25 0 0 1 .09.21.24.24 0 0 1-.07.18.35.35 0 0 1-.21.09l.29.33h-.23l-.27-.33h-.09v.33h-.19v-.92l.42.03zm-.22.17v.24h.22a.21.21 0 0 0 .12 0 .1.1 0 0 0 0-.09.1.1 0 0 0 0-.09.21.21 0 0 0-.12 0l-.22-.06z"/><path fill="#7673C0" d="M42.496 7.701h31.5v56.61h-31.5z"/><path fill="#EB001B" d="M44.496 36.01A35.94 35.94 0 0 1 58.246 7.7C42.614-4.584 19.982-1.87 7.696 13.762c-12.285 15.632-9.572 38.264 6.06 50.55 13.056 10.26 31.435 10.26 44.49 0a35.94 35.94 0 0 1-13.75-28.3z"/><path fill="#00A1DF" d="M113.056 58.31v-1.12h.47v-.24h-1.19v.24h.47v1.16l.25-.04zm2.31 0v-1.4h-.36l-.42 1-.42-1h-.37v1.4h.26v-1.05l.39.91h.27l.39-.91v1.06l.26-.01zm1.12-22.3c-.005 19.883-16.126 35.997-36.008 35.992a36 36 0 0 1-22.232-7.691c15.633-12.286 18.346-34.918 6.06-50.55a36 36 0 0 0-6.06-6.06c15.63-12.289 38.263-9.58 50.551 6.05a36 36 0 0 1 7.7 22.25l-.01.01z"/></svg>