<svg xmlns="http://www.w3.org/2000/svg" viewBox="0 0 40 55" width="40" height="55"><path fill="#f59900" d="M0 0h40v40H0z"/><path fill="#ca8608" d="M0 0v40h13l7 15 7-15h13z"/><path fill="#fff" d="M24.338 16.961h2.214v9.299h-2.214z"/><circle cx="25.445" cy="14.526" r="1.55" fill="#fff"/><path d="M21.445 14.082c-.851-.778-2.019-1.167-3.502-1.167h-4.938v13.279h2.589v-4.816h2.349c1.483 0 2.65-.386 3.502-1.158.85-.772 1.276-1.794 1.276-3.064 0-1.271-.425-2.296-1.276-3.074zm-1.862 4.638c-.372.404-.92.606-1.64.606h-2.35v-4.36h2.35c.727 0 1.275.209 1.644.625.37.417.554.944.554 1.583 0 .626-.186 1.141-.558 1.546z" fill="#fff"/></svg>