<svg xmlns="http://www.w3.org/2000/svg" viewBox="0 0 58 58"><linearGradient id="id-1146a" gradientUnits="userSpaceOnUse" x1="56.194" y1="-1.806" x2="1.806" y2="52.581"><stop offset="0" stop-color="#f59900"/><stop offset="1" stop-color="#ca8608"/></linearGradient><path fill="none" stroke="url(#id-1146a)" stroke-width="2" stroke-miterlimit="10" d="M10.935 49.774H1V1h56v48.774h-9.935"/><linearGradient id="id-1147b" gradientUnits="userSpaceOnUse" x1="43.5" y1="-6.274" x2="14.5" y2="22.726"><stop offset="0" stop-color="#f59900"/><stop offset="1" stop-color="#ca8608"/></linearGradient><path fill="none" stroke="url(#id-1147b)" stroke-width="2" stroke-miterlimit="10" d="M1 8.226h56"/><linearGradient id="id-1148c" gradientUnits="userSpaceOnUse" x1="5.565" y1="3.661" x2="3.661" y2="5.565"><stop offset="0" stop-color="#f59900"/><stop offset="1" stop-color="#ca8608"/></linearGradient><path fill="none" stroke="url(#id-1148c)" stroke-width="2" stroke-miterlimit="10" d="M3.71 4.613h1.806"/><linearGradient id="id-1149d" gradientUnits="userSpaceOnUse" x1="9.177" y1="3.661" x2="7.274" y2="5.565"><stop offset="0" stop-color="#f59900"/><stop offset="1" stop-color="#ca8608"/></linearGradient><path fill="none" stroke="url(#id-1149d)" stroke-width="2" stroke-miterlimit="10" d="M7.323 4.613h1.806"/><linearGradient id="id-1150e" gradientUnits="userSpaceOnUse" x1="12.79" y1="3.661" x2="10.887" y2="5.565"><stop offset="0" stop-color="#f59900"/><stop offset="1" stop-color="#ca8608"/></linearGradient><path fill="none" stroke="url(#id-1150e)" stroke-width="2" stroke-miterlimit="10" d="M10.935 4.613h1.807"/><linearGradient id="id-1151f" gradientUnits="userSpaceOnUse" x1="17.758" y1="2.306" x2="13.145" y2="6.919"><stop offset="0" stop-color="#f59900"/><stop offset="1" stop-color="#ca8608"/></linearGradient><path fill="none" stroke="url(#id-1151f)" stroke-width="2" stroke-miterlimit="10" d="M15.452 1v7.226"/><linearGradient id="id-1152g" gradientUnits="userSpaceOnUse" x1="45.758" y1="-4.919" x2="26.694" y2="14.145"><stop offset="0" stop-color="#f59900"/><stop offset="1" stop-color="#ca8608"/></linearGradient><path fill="none" stroke="url(#id-1152g)" stroke-width="2" stroke-miterlimit="10" d="M18.161 4.613H54.29"/><path fill="none" stroke="#CA8608" stroke-width="2" stroke-miterlimit="10" d="M10.935 46.161H4.613V11.84h48.774v34.32h-6.322"/><linearGradient id="id-1153h" gradientUnits="userSpaceOnUse" x1="15.952" y1="12.242" x2="9.532" y2="18.661"><stop offset="0" stop-color="#f59900"/><stop offset="1" stop-color="#ca8608"/></linearGradient><path fill="none" stroke="url(#id-1153h)" stroke-width="2" stroke-miterlimit="10" d="M7.323 15.452h10.838"/><linearGradient id="id-1154i" gradientUnits="userSpaceOnUse" x1="18.661" y1="14.952" x2="10.435" y2="23.177"><stop offset="0" stop-color="#f59900"/><stop offset="1" stop-color="#ca8608"/></linearGradient><path fill="none" stroke="url(#id-1154i)" stroke-width="2" stroke-miterlimit="10" d="M7.323 19.065h14.451"/><linearGradient id="id-1155j" gradientUnits="userSpaceOnUse" x1="14.597" y1="19.919" x2="9.081" y2="25.435"><stop offset="0" stop-color="#f59900"/><stop offset="1" stop-color="#ca8608"/></linearGradient><path fill="none" stroke="url(#id-1155j)" stroke-width="2" stroke-miterlimit="10" d="M7.323 22.677h9.032"/><linearGradient id="id-1156k" gradientUnits="userSpaceOnUse" x1="28.145" y1="17.21" x2="24.435" y2="20.919"><stop offset="0" stop-color="#f59900"/><stop offset="1" stop-color="#ca8608"/></linearGradient><path fill="none" stroke="url(#id-1156k)" stroke-width="2" stroke-miterlimit="10" d="M23.581 19.065H29"/><linearGradient id="id-1157l" gradientUnits="userSpaceOnUse" x1="38.081" y1="16.306" x2="32.565" y2="21.823"><stop offset="0" stop-color="#f59900"/><stop offset="1" stop-color="#ca8608"/></linearGradient><path fill="none" stroke="url(#id-1157l)" stroke-width="2" stroke-miterlimit="10" d="M30.806 19.065h9.033"/><linearGradient id="id-1158m" gradientUnits="userSpaceOnUse" x1="22.726" y1="20.823" x2="19.016" y2="24.532"><stop offset="0" stop-color="#f59900"/><stop offset="1" stop-color="#ca8608"/></linearGradient><path fill="none" stroke="url(#id-1158m)" stroke-width="2" stroke-miterlimit="10" d="M18.161 22.677h5.42"/><linearGradient id="id-1159n" gradientUnits="userSpaceOnUse" x1="13.242" y1="23.984" x2="8.629" y2="28.597"><stop offset="0" stop-color="#f59900"/><stop offset="1" stop-color="#ca8608"/></linearGradient><path fill="none" stroke="url(#id-1159n)" stroke-width="2" stroke-miterlimit="10" d="M7.323 26.29h7.225"/><linearGradient id="id-1160o" gradientUnits="userSpaceOnUse" x1="25.887" y1="13.145" x2="21.274" y2="17.758"><stop offset="0" stop-color="#f59900"/><stop offset="1" stop-color="#ca8608"/></linearGradient><path fill="none" stroke="url(#id-1160o)" stroke-width="2" stroke-miterlimit="10" d="M19.968 15.452h7.226"/><linearGradient id="id-1161p" gradientUnits="userSpaceOnUse" x1="35.455" y1="34.287" x2="22.545" y2="47.197"><stop offset="0" stop-color="#f59900"/><stop offset="1" stop-color="#ca8608"/></linearGradient><circle fill="none" stroke="url(#id-1161p)" stroke-width="2" stroke-miterlimit="10" cx="29" cy="40.742" r="8.129"/><path fill="none" stroke="#CA8608" stroke-width="2" stroke-linejoin="round" stroke-miterlimit="10" d="M43.587 33.597l-4.94.137 1.657-4.662a16.24 16.24 0 0 0-3.692-2.692l-3.928 3.022-1.396-4.738c-.75-.106-1.51-.18-2.288-.18-.779 0-1.538.074-2.288.18l-1.396 4.738-3.928-3.022a16.24 16.24 0 0 0-3.692 2.692l1.658 4.662-4.941-.137a16.145 16.145 0 0 0-1.414 4.35l4.078 2.795L13 43.536a16.145 16.145 0 0 0 1.414 4.35l4.94-.136-1.657 4.662a16.24 16.24 0 0 0 3.692 2.692l3.928-3.022 1.396 4.738c.75.106 1.51.18 2.288.18.779 0 1.538-.074 2.288-.18l1.396-4.738 3.928 3.022a16.24 16.24 0 0 0 3.692-2.692l-1.658-4.662 4.941.137a16.145 16.145 0 0 0 1.414-4.35l-4.078-2.795L45 37.948a16.144 16.144 0 0 0-1.414-4.35z"/><circle fill="none" stroke="#CA8608" stroke-width="2" stroke-miterlimit="10" cx="29" cy="40.742" r="4.516"/></svg>