<svg xmlns="http://www.w3.org/2000/svg" viewBox="0 0 56.8 36.931"><g fill="none" stroke="#CA8608" stroke-width="2" stroke-miterlimit="10"><path stroke-linejoin="round" d="M19.294 1h24.79v2.254h-24.79zm0 32.678h24.79v2.254h-24.79z"/><path d="M40.704 33.678V30.86c0-9.015-7.325-11.832-7.325-11.832v-1.127s7.325-2.817 7.325-11.831V3.254m-18.029 0V6.07c0 9.014 7.324 11.831 7.324 11.831v1.127s-7.324 2.817-7.324 11.832v2.817"/><path d="M23.238 9.451l8.451 3.38 8.451-3.38M22.675 33.678c0-3.734 4.036-6.761 9.014-6.761s9.015 3.027 9.015 6.76m-9.015-14.085v1.127m0 1.127v1.127m0 1.127v1.127"/></g><linearGradient id="id-1297a" gradientUnits="userSpaceOnUse" x1="45.852" y1="24.304" x2="40.063" y2="30.093"><stop offset="0" stop-color="#f59900"/><stop offset="1" stop-color="#ca8608"/></linearGradient><path fill="none" stroke="url(#id-1297a)" stroke-width="2" stroke-miterlimit="10" d="M42.957 22.409v9.578"/><linearGradient id="id-1298b" gradientUnits="userSpaceOnUse" x1="45.852" y1="6.838" x2="40.063" y2="12.627"><stop offset="0" stop-color="#f59900"/><stop offset="1" stop-color="#ca8608"/></linearGradient><path fill="none" stroke="url(#id-1298b)" stroke-width="2" stroke-miterlimit="10" d="M42.957 4.944v9.578"/><linearGradient id="id-1299c" gradientUnits="userSpaceOnUse" x1="46.035" y1="15.388" x2="39.88" y2="21.543"><stop offset="0" stop-color="#f59900"/><stop offset="1" stop-color="#ca8608"/></linearGradient><path fill="none" stroke="url(#id-1299c)" stroke-width="2" stroke-linejoin="round" stroke-miterlimit="10" d="M44.084 21.846a.563.563 0 0 1-.563.563h-1.127a.563.563 0 0 1-.563-.563v-6.76c0-.312.252-.564.563-.564h1.127c.311 0 .563.252.563.563v6.761z"/><linearGradient id="id-1300d" gradientUnits="userSpaceOnUse" x1="23.316" y1="24.304" x2="17.527" y2="30.093"><stop offset="0" stop-color="#f59900"/><stop offset="1" stop-color="#ca8608"/></linearGradient><path fill="none" stroke="url(#id-1300d)" stroke-width="2" stroke-miterlimit="10" d="M20.421 22.409v9.578"/><linearGradient id="id-1301e" gradientUnits="userSpaceOnUse" x1="23.316" y1="6.838" x2="17.527" y2="12.627"><stop offset="0" stop-color="#f59900"/><stop offset="1" stop-color="#ca8608"/></linearGradient><path fill="none" stroke="url(#id-1301e)" stroke-width="2" stroke-miterlimit="10" d="M20.421 4.944v9.578"/><linearGradient id="id-1302f" gradientUnits="userSpaceOnUse" x1="23.499" y1="15.388" x2="17.344" y2="21.543"><stop offset="0" stop-color="#f59900"/><stop offset="1" stop-color="#ca8608"/></linearGradient><path fill="none" stroke="url(#id-1302f)" stroke-width="2" stroke-linejoin="round" stroke-miterlimit="10" d="M21.548 21.846a.563.563 0 0 1-.564.563h-1.126a.563.563 0 0 1-.564-.563v-6.76c0-.312.252-.564.564-.564h1.126c.312 0 .564.252.564.563v6.761z"/><linearGradient id="id-1303g" gradientUnits="userSpaceOnUse" x1="7.7" y1="20.143" x2="1.9" y2="25.943"><stop offset="0" stop-color="#f59900"/><stop offset="1" stop-color="#ca8608"/></linearGradient><path fill="none" stroke="url(#id-1303g)" stroke-width="2" stroke-miterlimit="10" d="M9.6 23.043H0"/><linearGradient id="id-1304h" gradientUnits="userSpaceOnUse" x1="13.7" y1="16.543" x2="7.1" y2="23.143"><stop offset="0" stop-color="#f59900"/><stop offset="1" stop-color="#ca8608"/></linearGradient><path fill="none" stroke="url(#id-1304h)" stroke-width="2" stroke-miterlimit="10" d="M16 19.843H4.8"/><linearGradient id="id-1305i" gradientUnits="userSpaceOnUse" x1="52.02" y1="15.503" x2="48.14" y2="19.383"><stop offset="0" stop-color="#f59900"/><stop offset="1" stop-color="#ca8608"/></linearGradient><path fill="none" stroke="url(#id-1305i)" stroke-width="2" stroke-miterlimit="10" d="M52.96 17.443H47.2"/><linearGradient id="id-1306j" gradientUnits="userSpaceOnUse" x1="55.62" y1="12.063" x2="51.26" y2="16.423"><stop offset="0" stop-color="#f59900"/><stop offset="1" stop-color="#ca8608"/></linearGradient><path fill="none" stroke="url(#id-1306j)" stroke-width="2" stroke-miterlimit="10" d="M56.8 14.243h-6.72"/></svg>