<svg xmlns="http://www.w3.org/2000/svg" viewBox="0 0 34.245 49.599"><linearGradient id="id-71a" gradientUnits="userSpaceOnUse" x1="33.184" y1="5.667" x2="-2.01" y2="40.861"><stop offset="0" stop-color="#f59900"/><stop offset="1" stop-color="#ca8608"/></linearGradient><path fill="none" stroke="url(#id-71a)" stroke-width="2" stroke-linejoin="round" stroke-miterlimit="10" d="M10.213 42.458H1V1h26.103l6.142 6.142v35.316h-9.213"/><linearGradient id="id-72b" gradientUnits="userSpaceOnUse" x1="30.674" y1="3.571" x2="26.103" y2="8.142"><stop offset="0" stop-color="#f59900"/><stop offset="1" stop-color="#ca8608"/></linearGradient><path fill="none" stroke="url(#id-72b)" stroke-width="2" stroke-miterlimit="10" d="M33.245 7.142h-6.142V1"/><linearGradient id="id-73c" gradientUnits="userSpaceOnUse" x1="22.332" y1="38.99" x2="11.912" y2="49.41"><stop offset="0" stop-color="#f59900"/><stop offset="1" stop-color="#ca8608"/></linearGradient><path fill="none" stroke="url(#id-73c)" stroke-width="2" stroke-linejoin="round" stroke-miterlimit="10" d="M21.729 39.387v9.212l-4.607-3.838-4.606 3.838v-9.212"/><path fill="none" stroke="#CA8608" stroke-width="2" stroke-miterlimit="10" d="M25.827 29.406c0-.974-.693-1.785-1.614-1.969a7.273 7.273 0 0 0-.695-1.675c.187-.304.3-.66.3-1.043 0-1.11-.9-2.01-2.008-2.01-.384 0-.74.114-1.044.301a7.27 7.27 0 0 0-1.675-.695 2.008 2.008 0 0 0-3.938 0 7.27 7.27 0 0 0-1.674.695c-.305-.187-.66-.3-1.044-.3a2.01 2.01 0 0 0-2.009 2.009c0 .384.113.739.3 1.043a7.273 7.273 0 0 0-.695 1.675 2.008 2.008 0 0 0 0 3.938c.164.592.397 1.153.695 1.675-.187.304-.3.66-.3 1.043 0 1.11.9 2.01 2.01 2.01.383 0 .738-.114 1.043-.3a7.276 7.276 0 0 0 1.674.694 2.008 2.008 0 0 0 3.938 0 7.276 7.276 0 0 0 1.675-.695c.305.187.66.3 1.044.3a2.01 2.01 0 0 0 2.009-2.009c0-.383-.114-.739-.3-1.043a7.273 7.273 0 0 0 .694-1.675 2.008 2.008 0 0 0 1.614-1.969z"/><circle fill="none" stroke="#CA8608" stroke-width="2" stroke-linejoin="round" stroke-miterlimit="10" cx="17.122" cy="29.406" r="4.745"/><path fill="none" stroke="#CA8608" stroke-width="2" stroke-linejoin="round" stroke-miterlimit="10" d="M4.839 4.839h9.212"/><linearGradient id="id-74d" gradientUnits="userSpaceOnUse" x1="23.764" y1="3.571" x2="10.481" y2="16.855"><stop offset="0" stop-color="#f59900"/><stop offset="1" stop-color="#ca8608"/></linearGradient><path fill="none" stroke="url(#id-74d)" stroke-width="2" stroke-linejoin="round" stroke-miterlimit="10" d="M4.839 10.213h24.567"/><linearGradient id="id-75e" gradientUnits="userSpaceOnUse" x1="23.764" y1="6.642" x2="10.481" y2="19.926"><stop offset="0" stop-color="#f59900"/><stop offset="1" stop-color="#ca8608"/></linearGradient><path fill="none" stroke="url(#id-75e)" stroke-width="2" stroke-linejoin="round" stroke-miterlimit="10" d="M4.839 13.284h24.567"/><linearGradient id="id-76f" gradientUnits="userSpaceOnUse" x1="23.764" y1="9.713" x2="10.481" y2="22.996"><stop offset="0" stop-color="#f59900"/><stop offset="1" stop-color="#ca8608"/></linearGradient><path fill="none" stroke="url(#id-76f)" stroke-width="2" stroke-linejoin="round" stroke-miterlimit="10" d="M4.839 16.355h24.567"/></svg>