<svg xmlns="http://www.w3.org/2000/svg" viewBox="0 0 216 69.759"><path fill="#1A1F71" d="M82.012 1.234l-28.278 67.47H35.282L21.368 14.858c-.846-3.317-1.58-4.53-4.15-5.927C13.026 6.655 6.097 4.52 0 3.194l.417-1.96h29.697c3.785 0 7.19 2.52 8.05 6.878l7.35 39.046L63.675 1.234h18.336zm72.294 45.441c.074-17.808-24.628-18.788-24.456-26.743.05-2.422 2.358-4.994 7.401-5.654 2.505-.326 9.392-.577 17.212 3.02l3.062-14.306C153.325 1.466 147.92 0 141.199 0c-17.25 0-29.394 9.172-29.496 22.305-.109 9.713 8.667 15.13 15.282 18.36 6.798 3.308 9.083 5.426 9.054 8.383-.045 4.53-5.425 6.525-10.443 6.604-8.777.139-13.869-2.369-17.93-4.26l-3.162 14.782c4.078 1.874 11.604 3.501 19.413 3.585 18.333 0 30.329-9.06 30.39-23.084m45.549 22.029H216l-14.087-67.47H187.01c-3.347 0-6.173 1.949-7.43 4.95l-26.184 62.52h18.326l3.64-10.076h22.392l2.102 10.076zm-19.473-23.905l9.189-25.336 5.288 25.336h-14.477zM106.952 1.234l-14.435 67.47H75.065L89.5 1.234h17.452z"/></svg>