<svg xmlns="http://www.w3.org/2000/svg" viewBox="0 0 183.903 91.946"><path d="M9.823 32.215L0 2.1h4.2l4.693 14.837c1.291 4.062 2.41 7.728 3.213 11.256h.092c.849-3.488 2.1-7.286 3.437-11.216L20.729 2.1h4.154L14.114 32.215h-4.29zm17.119-10.098c.092 5.319 3.483 7.505 7.418 7.505 2.817 0 4.51-.493 5.99-1.119l.671 2.817c-1.388.625-3.752 1.343-7.194 1.343-6.66 0-10.637-4.383-10.637-10.907 0-6.523 3.844-11.658 10.139-11.658 7.062 0 8.943 6.213 8.943 10.184 0 .803-.092 1.429-.137 1.835H26.942zm11.527-2.816c.05-2.502-1.027-6.391-5.45-6.391-3.977 0-5.716 3.665-6.03 6.39h11.48zm6.884-1.968c0-2.543-.046-4.734-.178-6.747h3.442l.133 4.246h.177c.982-2.904 3.35-4.734 5.99-4.734.442 0 .763.046 1.113.132v3.711a5.782 5.782 0 0 0-1.342-.137c-2.766 0-4.729 2.1-5.268 5.049-.09.54-.183 1.165-.183 1.835v11.527h-3.884V17.333zM62.737 4.51c.045 1.342-.941 2.415-2.502 2.415-1.383 0-2.37-1.073-2.37-2.415 0-1.383 1.028-2.456 2.462-2.456 1.469 0 2.41 1.073 2.41 2.456m-4.383 6.076h3.94V32.21h-3.94V10.586zm9.076 21.629V13.58h-3.04v-2.995h3.04V9.559c0-3.036.67-5.807 2.501-7.55C71.406.578 73.368 0 75.204 0c1.388 0 2.587.31 3.35.625l-.533 3.036c-.585-.27-1.389-.488-2.507-.488-3.346 0-4.195 2.949-4.195 6.254v1.159h5.222v2.995H71.32v18.634h-3.89zM84.793 4.51c.05 1.342-.94 2.415-2.502 2.415-1.383 0-2.37-1.073-2.37-2.415 0-1.383 1.033-2.456 2.462-2.456 1.47 0 2.41 1.073 2.41 2.456m-4.373 6.076h3.93V32.21h-3.93V10.586zm10.855 11.531c.092 5.319 3.484 7.505 7.418 7.505 2.818 0 4.511-.493 5.99-1.119l.671 2.817c-1.388.625-3.762 1.343-7.195 1.343-6.66 0-10.636-4.383-10.636-10.907 0-6.523 3.844-11.658 10.138-11.658 7.063 0 8.939 6.213 8.939 10.184 0 .803-.087 1.429-.138 1.835H91.275zm11.527-2.816c.04-2.502-1.028-6.391-5.451-6.391-3.975 0-5.715 3.665-6.035 6.39h11.486zM128.366.493v26.134c0 1.922.041 4.108.173 5.588h-3.523l-.183-3.752h-.092c-1.205 2.41-3.839 4.24-7.373 4.24-5.226 0-9.243-4.423-9.243-10.992-.046-7.195 4.424-11.613 9.696-11.613 3.3 0 5.537 1.566 6.518 3.305h.092V.493h3.935zm-3.935 18.9c0-.494-.045-1.165-.178-1.659-.58-2.501-2.73-4.555-5.674-4.555-4.068 0-6.478 3.574-6.478 8.359 0 4.378 2.14 7.992 6.391 7.992 2.63 0 5.044-1.738 5.761-4.693.133-.533.178-1.067.178-1.692v-3.753zm18.492 12.822a98.13 98.13 0 0 0 .178-5.588V.493h3.89v13.58h.091c1.383-2.41 3.884-3.975 7.372-3.975 5.364 0 9.157 4.469 9.117 11.033 0 7.728-4.87 11.572-9.697 11.572-3.13 0-5.633-1.205-7.24-4.062h-.131l-.184 3.574h-3.396zm4.067-8.67c0 .49.092.982.183 1.43.758 2.725 3.031 4.601 5.893 4.601 4.114 0 6.57-3.35 6.57-8.308 0-4.331-2.239-8.043-6.432-8.043-2.68 0-5.182 1.83-5.99 4.825-.092.447-.224.981-.224 1.606v3.89zm20.872-12.959l4.733 12.782a73.44 73.44 0 0 1 1.384 4.424h.09c.408-1.297.85-2.955 1.39-4.516l4.285-12.69h4.16L178 26.002c-2.812 7.418-4.733 11.216-7.413 13.54-1.922 1.693-3.844 2.364-4.824 2.547l-.987-3.31c.987-.31 2.278-.936 3.442-1.922 1.072-.85 2.41-2.364 3.31-4.378.178-.401.31-.711.31-.935 0-.224-.09-.54-.27-1.027l-7.997-19.931h4.291zM65.218 46.97L53.3 77.11l-4.825-25.625c-.554-2.857-2.791-4.515-5.278-4.515H23.708l-.264 1.281c3.997.88 8.542 2.273 11.298 3.763 1.683.924 2.166 1.723 2.71 3.9l9.142 35.336h12.11l18.559-44.28H65.218zm16.952 0l-9.468 44.28h11.455l9.452-44.28zm26.474 12.273c.035-1.586 1.55-3.273 4.86-3.72 1.647-.21 6.163-.368 11.298 1.982l2.009-9.381c-2.751-1.002-6.31-1.973-10.713-1.973-11.328 0-19.286 6.03-19.363 14.654-.06 6.366 5.696 9.924 10.028 12.05 4.464 2.16 5.968 3.548 5.938 5.505-.02 2.971-3.56 4.272-6.844 4.323-5.765.091-9.106-1.551-11.775-2.787l-2.064 9.702c2.665 1.225 7.61 2.298 12.74 2.348 12.016 0 19.891-5.948 19.932-15.151.051-11.694-16.158-12.335-16.046-17.552M141.81 75.57l6.086-16.632 3.426 16.631h-9.512zm4.347-28.6c-2.202 0-4.058 1.276-4.882 3.249l-17.18 41.031h12.035l2.39-6.614h14.659l1.377 6.614h10.62l-9.238-44.28h-9.78z" fill="#1A1F71"/></svg>