<svg xmlns="http://www.w3.org/2000/svg" xmlns:xlink="http://www.w3.org/1999/xlink" viewBox="0 0 192 192"><defs><path id="id-1362a" d="M66.56 0h58.88C179.2 0 192 12.8 192 66.56v58.88c0 53.76-12.8 66.56-66.56 66.56H66.56C12.8 192 0 179.2 0 125.44V66.56C0 12.8 12.8 0 66.56 0z"/></defs><use xlink:href="#id-1362a" overflow="visible" fill-rule="evenodd" clip-rule="evenodd" fill="#5181B8"/><path fill-rule="evenodd" clip-rule="evenodd" fill="#FFF" d="M157.249 66.146c.89-2.966 0-5.146-4.234-5.146h-14c-3.56 0-5.2 1.883-6.09 3.96 0 0-7.12 17.353-17.206 28.625-3.263 3.263-4.746 4.301-6.526 4.301-.89 0-2.178-1.038-2.178-4.004V66.146c0-3.56-1.033-5.146-4-5.146h-22c-2.225 0-3.562 1.652-3.562 3.218 0 3.375 5.042 4.153 5.562 13.645V98.48c0 4.52-.816 5.34-2.596 5.34-4.746 0-16.291-17.432-23.138-37.377C55.939 62.566 54.593 61 51.015 61h-14c-4 0-4.8 1.883-4.8 3.96 0 3.708 4.746 22.1 22.1 46.424C65.882 127.995 82.182 137 97.014 137c8.899 0 10-2 10-5.445V119c0-4 .843-4.798 3.661-4.798 2.076 0 5.636 1.038 13.942 9.047C134.11 132.742 135.675 137 141.014 137h14c4 0 6-2 4.846-5.947-1.262-3.934-5.795-9.64-11.808-16.406-3.263-3.857-8.158-8.01-9.641-10.086-2.077-2.67-1.483-3.857 0-6.23 0 0 17.057-24.027 18.837-32.185z"/></svg>