<svg xmlns="http://www.w3.org/2000/svg" viewBox="0 0 42.819 42.819"><circle fill="none" stroke="#CA8608" stroke-width="2" stroke-linejoin="round" stroke-miterlimit="10" cx="21.409" cy="21.409" r="2.254"/><path fill="none" stroke="#CA8608" stroke-width="2" stroke-linejoin="round" stroke-miterlimit="10" d="M23.663 21.409h6.761m-9.015-2.253v-6.761m0 21.409v5.071m0-34.931v5.07M3.944 21.409h5.07m24.79 0h5.071"/><linearGradient id="id-97a" gradientUnits="userSpaceOnUse" x1="35.15" y1="29.079" x2="33.586" y2="30.642"><stop offset="0" stop-color="#f59900"/><stop offset="1" stop-color="#ca8608"/></linearGradient><path fill="none" stroke="url(#id-97a)" stroke-width="2" stroke-linejoin="round" stroke-miterlimit="10" d="M33.804 29.861h1.127"/><linearGradient id="id-98b" gradientUnits="userSpaceOnUse" x1="35.15" y1="12.177" x2="33.586" y2="13.74"><stop offset="0" stop-color="#f59900"/><stop offset="1" stop-color="#ca8608"/></linearGradient><path fill="none" stroke="url(#id-98b)" stroke-width="2" stroke-linejoin="round" stroke-miterlimit="10" d="M33.804 12.958h1.127"/><linearGradient id="id-99c" gradientUnits="userSpaceOnUse" x1="9.233" y1="29.079" x2="7.669" y2="30.642"><stop offset="0" stop-color="#f59900"/><stop offset="1" stop-color="#ca8608"/></linearGradient><path fill="none" stroke="url(#id-99c)" stroke-width="2" stroke-linejoin="round" stroke-miterlimit="10" d="M7.888 29.861h1.126"/><linearGradient id="id-100d" gradientUnits="userSpaceOnUse" x1="9.233" y1="12.177" x2="7.669" y2="13.74"><stop offset="0" stop-color="#f59900"/><stop offset="1" stop-color="#ca8608"/></linearGradient><path fill="none" stroke="url(#id-100d)" stroke-width="2" stroke-linejoin="round" stroke-miterlimit="10" d="M7.888 12.958h1.126"/><linearGradient id="id-101e" gradientUnits="userSpaceOnUse" x1="30.642" y1="33.586" x2="29.079" y2="35.15"><stop offset="0" stop-color="#f59900"/><stop offset="1" stop-color="#ca8608"/></linearGradient><path fill="none" stroke="url(#id-101e)" stroke-width="2" stroke-linejoin="round" stroke-miterlimit="10" d="M29.297 34.368h1.127"/><linearGradient id="id-102f" gradientUnits="userSpaceOnUse" x1="13.74" y1="33.586" x2="12.177" y2="35.15"><stop offset="0" stop-color="#f59900"/><stop offset="1" stop-color="#ca8608"/></linearGradient><path fill="none" stroke="url(#id-102f)" stroke-width="2" stroke-linejoin="round" stroke-miterlimit="10" d="M12.395 34.368h1.127"/><linearGradient id="id-103g" gradientUnits="userSpaceOnUse" x1="30.642" y1="7.669" x2="29.079" y2="9.233"><stop offset="0" stop-color="#f59900"/><stop offset="1" stop-color="#ca8608"/></linearGradient><path fill="none" stroke="url(#id-103g)" stroke-width="2" stroke-linejoin="round" stroke-miterlimit="10" d="M29.297 8.451h1.127"/><linearGradient id="id-104h" gradientUnits="userSpaceOnUse" x1="13.74" y1="7.669" x2="12.177" y2="9.233"><stop offset="0" stop-color="#f59900"/><stop offset="1" stop-color="#ca8608"/></linearGradient><path fill="none" stroke="url(#id-104h)" stroke-width="2" stroke-linejoin="round" stroke-miterlimit="10" d="M12.395 8.451h1.127"/><linearGradient id="id-105i" gradientUnits="userSpaceOnUse" x1="24.445" y1="27.389" x2="22.881" y2="28.952"><stop offset="0" stop-color="#f59900"/><stop offset="1" stop-color="#ca8608"/></linearGradient><path fill="none" stroke="url(#id-105i)" stroke-width="2" stroke-linejoin="round" stroke-miterlimit="10" d="M23.1 28.17h1.126"/><linearGradient id="id-106j" gradientUnits="userSpaceOnUse" x1="22.191" y1="27.389" x2="20.628" y2="28.952"><stop offset="0" stop-color="#f59900"/><stop offset="1" stop-color="#ca8608"/></linearGradient><path fill="none" stroke="url(#id-106j)" stroke-width="2" stroke-linejoin="round" stroke-miterlimit="10" d="M20.846 28.17h1.127"/><linearGradient id="id-107k" gradientUnits="userSpaceOnUse" x1="19.938" y1="27.389" x2="18.374" y2="28.952"><stop offset="0" stop-color="#f59900"/><stop offset="1" stop-color="#ca8608"/></linearGradient><path fill="none" stroke="url(#id-107k)" stroke-width="2" stroke-linejoin="round" stroke-miterlimit="10" d="M18.592 28.17h1.127"/><path fill="none" stroke="#CA8608" stroke-width="2" stroke-linejoin="round" stroke-miterlimit="10" d="M38.875 37.748a1.13 1.13 0 0 1-1.127 1.127H5.071a1.13 1.13 0 0 1-1.127-1.127V5.071c0-.62.507-1.127 1.127-1.127h32.677c.62 0 1.127.507 1.127 1.127v32.677z"/><linearGradient id="id-108l" gradientUnits="userSpaceOnUse" x1="16.901" y1="2.379" x2="2.379" y2="16.901"><stop offset="0" stop-color="#f59900"/><stop offset="1" stop-color="#ca8608"/></linearGradient><path fill="none" stroke="url(#id-108l)" stroke-width="2" stroke-linejoin="round" stroke-miterlimit="10" d="M6.197 19.72V7.323c0-.62.508-1.127 1.127-1.127H19.72"/><linearGradient id="id-109m" gradientUnits="userSpaceOnUse" x1="13.458" y1="29.361" x2="5.821" y2="36.998"><stop offset="0" stop-color="#f59900"/><stop offset="1" stop-color="#ca8608"/></linearGradient><path fill="none" stroke="url(#id-109m)" stroke-width="2" stroke-linejoin="round" stroke-miterlimit="10" d="M19.72 36.621H7.323a1.13 1.13 0 0 1-1.127-1.126V23.1"/><path fill="none" stroke="#CA8608" stroke-width="2" stroke-linejoin="round" stroke-miterlimit="10" d="M36.621 23.1v12.395a1.13 1.13 0 0 1-1.126 1.126H23.1"/><linearGradient id="id-110n" gradientUnits="userSpaceOnUse" x1="36.998" y1="5.821" x2="29.361" y2="13.458"><stop offset="0" stop-color="#f59900"/><stop offset="1" stop-color="#ca8608"/></linearGradient><path fill="none" stroke="url(#id-110n)" stroke-width="2" stroke-linejoin="round" stroke-miterlimit="10" d="M23.1 6.197h12.395c.62 0 1.126.507 1.126 1.127V19.72"/><linearGradient id="id-111o" gradientUnits="userSpaceOnUse" x1="6.887" y1="34.964" x2=".253" y2="41.598"><stop offset="0" stop-color="#f59900"/><stop offset="1" stop-color="#ca8608"/></linearGradient><path fill="none" stroke="url(#id-111o)" stroke-width="2" stroke-linejoin="round" stroke-miterlimit="10" d="M10.805 41.819H2.512c-.831 0-1.512-.68-1.512-1.512v-10.23"/><linearGradient id="id-112p" gradientUnits="userSpaceOnUse" x1="43.103" y1="1.758" x2="37.669" y2="7.192"><stop offset="0" stop-color="#f59900"/><stop offset="1" stop-color="#ca8608"/></linearGradient><path fill="none" stroke="url(#id-112p)" stroke-width="2" stroke-linejoin="round" stroke-miterlimit="10" d="M36.561 1h3.746c.831 0 1.512.68 1.512 1.512v7.83"/></svg>