<svg xmlns="http://www.w3.org/2000/svg" viewBox="0 0 99 64"><linearGradient id="id-1439a" gradientUnits="userSpaceOnUse" x1="9.5" y1="32.5" x2="2.5" y2="39.5"><stop offset="0" stop-color="#f59900"/><stop offset="1" stop-color="#ca8608"/></linearGradient><path fill="none" stroke="url(#id-1439a)" stroke-width="2" stroke-miterlimit="10" d="M12 36H0"/><linearGradient id="id-1440b" gradientUnits="userSpaceOnUse" x1="17" y1="36" x2="9" y2="44"><stop offset="0" stop-color="#f59900"/><stop offset="1" stop-color="#ca8608"/></linearGradient><path fill="none" stroke="url(#id-1440b)" stroke-width="2" stroke-miterlimit="10" d="M20 40H6"/><linearGradient id="id-1441c" gradientUnits="userSpaceOnUse" x1="92.9" y1="17.7" x2="88.3" y2="22.3"><stop offset="0" stop-color="#f59900"/><stop offset="1" stop-color="#ca8608"/></linearGradient><path fill="none" stroke="url(#id-1441c)" stroke-width="2" stroke-miterlimit="10" d="M94.2 20H87"/><linearGradient id="id-1442d" gradientUnits="userSpaceOnUse" x1="97.4" y1="13.4" x2="92.2" y2="18.6"><stop offset="0" stop-color="#f59900"/><stop offset="1" stop-color="#ca8608"/></linearGradient><path fill="none" stroke="url(#id-1442d)" stroke-width="2" stroke-miterlimit="10" d="M99 16h-8.4"/><linearGradient id="id-1443e" gradientUnits="userSpaceOnUse" x1="42" y1="44" x2="40" y2="46"><stop offset="0" stop-color="#f59900"/><stop offset="1" stop-color="#ca8608"/></linearGradient><path fill="none" stroke="url(#id-1443e)" stroke-width="2" stroke-linejoin="round" stroke-miterlimit="10" d="M40 45h2"/><linearGradient id="id-1444f" gradientUnits="userSpaceOnUse" x1="38" y1="44" x2="36" y2="46"><stop offset="0" stop-color="#f59900"/><stop offset="1" stop-color="#ca8608"/></linearGradient><path fill="none" stroke="url(#id-1444f)" stroke-width="2" stroke-linejoin="round" stroke-miterlimit="10" d="M36 45h2"/><linearGradient id="id-1445g" gradientUnits="userSpaceOnUse" x1="46" y1="44" x2="44" y2="46"><stop offset="0" stop-color="#f59900"/><stop offset="1" stop-color="#ca8608"/></linearGradient><path fill="none" stroke="url(#id-1445g)" stroke-width="2" stroke-linejoin="round" stroke-miterlimit="10" d="M44 45h2"/><linearGradient id="id-1446h" gradientUnits="userSpaceOnUse" x1="47" y1="47" x2="35" y2="59"><stop offset="0" stop-color="#f59900"/><stop offset="1" stop-color="#ca8608"/></linearGradient><path fill="none" stroke="url(#id-1446h)" stroke-width="2" stroke-linejoin="round" stroke-miterlimit="10" d="M52 53H30"/><linearGradient id="id-1447i" gradientUnits="userSpaceOnUse" x1="81.056" y1="13.944" x2="48.5" y2="46.5"><stop offset="0" stop-color="#f59900"/><stop offset="1" stop-color="#ca8608"/></linearGradient><path fill="none" stroke="url(#id-1447i)" stroke-width="2" stroke-miterlimit="10" d="M58 1c11.598 0 21 9.403 21 21l6 13v2h-6v9a6 6 0 0 1-6 6h-6v12"/><linearGradient id="id-1448j" gradientUnits="userSpaceOnUse" x1="66.75" y1="50.75" x2="64.25" y2="53.25"><stop offset="0" stop-color="#f59900"/><stop offset="1" stop-color="#ca8608"/></linearGradient><path fill="none" stroke="url(#id-1448j)" stroke-width="2" stroke-miterlimit="10" d="M67 52h-3"/><linearGradient id="id-1449k" gradientUnits="userSpaceOnUse" x1="56.25" y1="-1.75" x2="50.75" y2="3.75"><stop offset="0" stop-color="#f59900"/><stop offset="1" stop-color="#ca8608"/></linearGradient><path fill="none" stroke="url(#id-1449k)" stroke-width="2" stroke-linejoin="round" stroke-miterlimit="10" d="M58 1h-9"/><path fill="none" stroke="#CA8608" stroke-width="2" stroke-linejoin="round" stroke-miterlimit="10" d="M29 35v11"/><path fill="none" stroke="#CA8608" stroke-width="2" stroke-linecap="square" stroke-linejoin="round" stroke-miterlimit="10" d="M41 22l6-3 12 3 2-4L51 8l-7-3V1"/><path fill="none" stroke="#CA8608" stroke-width="2" stroke-linejoin="round" stroke-miterlimit="10" d="M53 46v-9L37 18m9-8h2"/><path fill="none" stroke="#CA8608" stroke-width="2" stroke-miterlimit="10" d="M56 53a3 3 0 0 1 3 3v7H23v-7a3 3 0 0 1 3-3h1v-4h28v4h1z"/><path fill="none" stroke="#CA8608" stroke-width="2" stroke-linejoin="round" stroke-miterlimit="10" d="M44 1C17 1 24 27 29 35v11"/></svg>