<svg xmlns="http://www.w3.org/2000/svg" viewBox="0 0 64 64.001"><linearGradient id="id-1399a" gradientUnits="userSpaceOnUse" x1="34.25" y1="1.25" x2="29.75" y2="5.75"><stop offset="0" stop-color="#f59900"/><stop offset="1" stop-color="#ca8608"/></linearGradient><path fill="none" stroke="url(#id-1399a)" stroke-width="2" stroke-miterlimit="10" d="M32 7V0"/><linearGradient id="id-1400b" gradientUnits="userSpaceOnUse" x1="23.868" y1="2.632" x2="20.132" y2="6.369"><stop offset="0" stop-color="#f59900"/><stop offset="1" stop-color="#ca8608"/></linearGradient><path fill="none" stroke="url(#id-1400b)" stroke-width="2" stroke-miterlimit="10" d="M23 8l-2-7"/><linearGradient id="id-1401c" gradientUnits="userSpaceOnUse" x1="13.193" y1="6.807" x2="10.807" y2="9.194"><stop offset="0" stop-color="#f59900"/><stop offset="1" stop-color="#ca8608"/></linearGradient><path fill="none" stroke="url(#id-1401c)" stroke-width="2" stroke-miterlimit="10" d="M14 11l-4-5.999"/><linearGradient id="id-1402d" gradientUnits="userSpaceOnUse" x1="54.639" y1="5.362" x2="49.361" y2="10.639"><stop offset="0" stop-color="#f59900"/><stop offset="1" stop-color="#ca8608"/></linearGradient><path fill="none" stroke="url(#id-1402d)" stroke-width="2" stroke-miterlimit="10" d="M50 11l4-5.999"/><linearGradient id="id-1403e" gradientUnits="userSpaceOnUse" x1="44.593" y1="1.907" x2="39.407" y2="7.094"><stop offset="0" stop-color="#f59900"/><stop offset="1" stop-color="#ca8608"/></linearGradient><path fill="none" stroke="url(#id-1403e)" stroke-width="2" stroke-miterlimit="10" d="M41 8l2-7"/><linearGradient id="id-1404f" gradientUnits="userSpaceOnUse" x1="25" y1="52" x2="23" y2="54"><stop offset="0" stop-color="#f59900"/><stop offset="1" stop-color="#ca8608"/></linearGradient><path fill="none" stroke="url(#id-1404f)" stroke-width="2" stroke-miterlimit="10" d="M25 53h-2"/><linearGradient id="id-1405g" gradientUnits="userSpaceOnUse" x1="21" y1="52" x2="19" y2="54"><stop offset="0" stop-color="#f59900"/><stop offset="1" stop-color="#ca8608"/></linearGradient><path fill="none" stroke="url(#id-1405g)" stroke-width="2" stroke-miterlimit="10" d="M21 53h-2"/><linearGradient id="id-1406h" gradientUnits="userSpaceOnUse" x1="41" y1="52" x2="39" y2="54"><stop offset="0" stop-color="#f59900"/><stop offset="1" stop-color="#ca8608"/></linearGradient><path fill="none" stroke="url(#id-1406h)" stroke-width="2" stroke-miterlimit="10" d="M41 53h-2"/><linearGradient id="id-1407i" gradientUnits="userSpaceOnUse" x1="45" y1="52" x2="43" y2="54"><stop offset="0" stop-color="#f59900"/><stop offset="1" stop-color="#ca8608"/></linearGradient><path fill="none" stroke="url(#id-1407i)" stroke-width="2" stroke-miterlimit="10" d="M45 53h-2"/><linearGradient id="id-1408j" gradientUnits="userSpaceOnUse" x1="36.243" y1="21.758" x2="27.757" y2="30.243"><stop offset="0" stop-color="#f59900"/><stop offset="1" stop-color="#ca8608"/></linearGradient><circle fill="none" stroke="url(#id-1408j)" stroke-width="2" stroke-miterlimit="10" cx="32" cy="26" r="5"/><linearGradient id="id-1409k" gradientUnits="userSpaceOnUse" x1="48.214" y1="9.786" x2="15.785" y2="42.215"><stop offset="0" stop-color="#f59900"/><stop offset="1" stop-color="#ca8608"/></linearGradient><path fill="none" stroke="url(#id-1409k)" stroke-width="2" stroke-linejoin="round" stroke-miterlimit="10" d="M33 41h-1C14.879 41 1 26 1 26s13.879-15 31-15 31 15 31 15-6.913 7.471-17 11.868"/><path fill="none" stroke="#CA8608" stroke-width="2" stroke-miterlimit="10" d="M22.474 31.504A10.956 10.956 0 0 1 21 26c0-6.075 4.925-11 11-11s11 4.925 11 11c0 9-13 14-13 20v8"/><circle fill="none" stroke="#CA8608" stroke-width="2" stroke-miterlimit="10" cx="32" cy="60" r="3"/><path fill="none" stroke="#CA8608" stroke-width="2" stroke-miterlimit="10" d="M19.01 33.506A14.93 14.93 0 0 1 17 26c0-8.284 6.716-15 15-15 8.284 0 15 6.716 15 15 0 12-13 15-13 22v6"/></svg>