<svg xmlns="http://www.w3.org/2000/svg" viewBox="0 0 380.925 85.039"><path fill="red" d="M118.946 13.279a15.215 15.215 0 0 0-10.74-10.74C98.732 0 60.742 0 60.742 0S22.753 0 13.28 2.539a15.215 15.215 0 0 0-10.74 10.74C0 22.753 0 42.519 0 42.519S0 62.287 2.539 71.76a15.215 15.215 0 0 0 10.74 10.74c9.474 2.54 47.463 2.54 47.463 2.54s37.99 0 47.464-2.54a15.215 15.215 0 0 0 10.74-10.74c2.539-9.474 2.539-29.24 2.539-29.24s0-19.767-2.539-29.241z"/><path fill="#FFF" d="M48.594 60.742L80.155 42.52 48.594 24.297z"/><g fill="#282828"><path d="M176.336 77.364c-2.405-1.62-4.113-4.14-5.126-7.558-1.014-3.417-1.52-7.963-1.52-13.64v-7.732c0-5.734.578-10.339 1.737-13.814 1.158-3.474 2.967-6.007 5.43-7.601 2.46-1.592 5.69-2.39 9.686-2.39 3.939 0 7.095.812 9.47 2.433 2.374 1.622 4.111 4.157 5.212 7.602 1.1 3.446 1.651 8.036 1.651 13.77v7.732c0 5.677-.536 10.238-1.607 13.683-1.072 3.447-2.81 5.966-5.213 7.558-2.404 1.592-5.661 2.39-9.773 2.39-4.229 0-7.545-.812-9.947-2.433zm13.465-8.34c.665-1.738 1-4.575 1-8.514V43.916c0-3.822-.335-6.616-1-8.383-.666-1.766-1.84-2.65-3.518-2.65-1.622 0-2.767.884-3.432 2.65-.666 1.767-.999 4.56-.999 8.383V60.51c0 3.94.318 6.776.956 8.513.636 1.738 1.794 2.607 3.475 2.607 1.679 0 2.852-.869 3.518-2.607zm171.055-12.732v2.694c0 3.418.1 5.98.304 7.688.202 1.71.621 2.954 1.26 3.736.637.782 1.62 1.173 2.954 1.173 1.794 0 3.026-.695 3.692-2.085.665-1.39 1.027-3.706 1.086-6.95l10.338.608c.058.464.087 1.101.087 1.911 0 4.924-1.347 8.601-4.04 11.034s-6.501 3.649-11.424 3.649c-5.907 0-10.05-1.853-12.424-5.56-2.375-3.706-3.562-9.44-3.562-17.202V47.69c0-7.992 1.23-13.826 3.693-17.505 2.461-3.678 6.675-5.517 12.64-5.517 4.113 0 7.268.753 9.47 2.259 2.2 1.507 3.75 3.852 4.648 7.037.898 3.186 1.347 7.588 1.347 13.205v9.122h-20.069zm1.52-22.414c-.607.753-1.014 1.984-1.216 3.692-.204 1.71-.304 4.3-.304 7.776v3.823h8.774v-3.823c0-3.417-.116-6.008-.346-7.776-.233-1.766-.652-3.01-1.26-3.735-.609-.724-1.55-1.086-2.824-1.086-1.275 0-2.215.377-2.824 1.13zM147.142 55.295l-13.64-49.26h11.902l4.778 22.328c1.217 5.504 2.114 10.195 2.693 14.074h.348c.405-2.78 1.303-7.441 2.693-13.987l4.952-22.414h11.902l-13.813 49.26v23.631h-11.815V55.295zm94.444-29.623v53.255h-9.383l-1.043-6.516h-.26c-2.55 4.924-6.372 7.385-11.468 7.385-3.533 0-6.14-1.158-7.819-3.475-1.68-2.316-2.519-5.936-2.519-10.86v-39.79h11.989v39.095c0 2.376.26 4.07.782 5.083.521 1.014 1.39 1.52 2.606 1.52 1.043 0 2.042-.318 2.997-.956.956-.637 1.665-1.447 2.13-2.433V25.672h11.988zm61.496 0v53.255h-9.383l-1.043-6.516h-.26c-2.55 4.924-6.372 7.385-11.468 7.385-3.533 0-6.14-1.158-7.819-3.475-1.68-2.316-2.519-5.936-2.519-10.86v-39.79h11.989v39.095c0 2.376.26 4.07.782 5.083.521 1.014 1.39 1.52 2.606 1.52 1.043 0 2.042-.318 2.997-.956.956-.637 1.665-1.447 2.129-2.433V25.672h11.989z"/><path d="M274.164 15.68h-11.902v63.247h-11.728V15.681h-11.902V6.037h35.532v9.644zm68.597 18.505c-.725-3.358-1.898-5.79-3.519-7.298-1.622-1.505-3.852-2.258-6.69-2.258-2.2 0-4.256.623-6.167 1.867a12.695 12.695 0 0 0-4.431 4.91h-.088l.001-28.062h-11.554v75.583h9.903l1.217-5.04h.26c.926 1.797 2.316 3.215 4.17 4.258 1.853 1.042 3.91 1.563 6.169 1.563 4.053 0 7.037-1.867 8.948-5.603 1.911-3.736 2.867-9.57 2.867-17.506v-8.427c0-5.964-.363-10.627-1.086-13.987zm-10.99 21.723c0 3.88-.16 6.921-.478 9.121-.319 2.202-.855 3.766-1.607 4.692-.753.927-1.768 1.39-3.04 1.39a5.55 5.55 0 0 1-2.737-.695c-.84-.463-1.52-1.158-2.042-2.085V38.098c.405-1.447 1.1-2.635 2.085-3.562.984-.926 2.055-1.39 3.215-1.39 1.216 0 2.157.478 2.823 1.433.665.956 1.13 2.563 1.39 4.822s.391 5.473.391 9.643v6.864z"/></g></svg>