<?xml version="1.0" encoding="utf-8"?>
<!-- Generator: Adobe Illustrator 21.1.0, SVG Export Plug-In . SVG Version: 6.00 Build 0)  -->
<svg version="1.1" id="Capa_1" xmlns="http://www.w3.org/2000/svg" xmlns:xlink="http://www.w3.org/1999/xlink" x="0px" y="0px"
	 viewBox="0 0 31.059 31.059" style="enable-background:new 0 0 31.059 31.059;" xml:space="preserve">
<style type="text/css">
	.st0{fill:#010002;}
</style>
<g>
	<g>
		<path class="st0" d="M15.5290003,31.059C6.9660001,31.059,0,24.0919991,0,15.5290003S6.9660001,0,15.5290003,0
			s15.5290003,6.9660001,15.5290003,15.5290003C31.059,24.0919991,24.0919991,31.059,15.5290003,31.059z M15.5290003,1.774
			c-7.5840001,0-13.7539997,6.171-13.7539997,13.7550001s6.1700001,13.7540007,13.7539997,13.7540007
			s13.7540007-6.1700001,13.7540007-13.7539997S23.1140003,1.774,15.5290003,1.774z"/>
	</g>
	<g>
		<path class="st0" d="M21.6520004,16.4160004H9.4060001c-0.4899998,0-0.8870001-0.3959999-0.8870001-0.8870001
			c0-0.4899998,0.3979998-0.8879995,0.8870001-0.8879995h12.2460003c0.4899998,0,0.8869991,0.3979998,0.8869991,0.8880005
			C22.5389996,16.0200005,22.1429996,16.4160004,21.6520004,16.4160004z"/>
	</g>
</g>
<g>
	<path class="st0" d="M16.4165001,9.4055004v12.2460003c0,0.4899998-0.3959999,0.8869991-0.887001,0.8869991
		c-0.4899998,0-0.8879995-0.3979988-0.8879995-0.8869991l0.000001-12.2460012c0-0.4899998,0.3979998-0.8869991,0.8880005-0.8869982
		C16.0205002,8.5185013,16.4165001,8.9145012,16.4165001,9.4055004z"/>
</g>
</svg>
